<?xml version="1.0" encoding="utf-8" standalone="no"?>
<!DOCTYPE svg PUBLIC "-//W3C//DTD SVG 1.1//EN"
  "http://www.w3.org/Graphics/SVG/1.1/DTD/svg11.dtd">
<svg xmlns:xlink="http://www.w3.org/1999/xlink" width="500.851719pt" height="219.453523pt" viewBox="0 0 500.851719 219.453523" xmlns="http://www.w3.org/2000/svg" version="1.1">
 <metadata>
  <rdf:RDF xmlns:dc="http://purl.org/dc/elements/1.1/" xmlns:cc="http://creativecommons.org/ns#" xmlns:rdf="http://www.w3.org/1999/02/22-rdf-syntax-ns#">
   <cc:Work>
    <dc:type rdf:resource="http://purl.org/dc/dcmitype/StillImage"/>
    <dc:date>2026-07-10T15:12:18.346749</dc:date>
    <dc:format>image/svg+xml</dc:format>
    <dc:creator>
     <cc:Agent>
      <dc:title>Matplotlib v3.11.0, https://matplotlib.org/</dc:title>
     </cc:Agent>
    </dc:creator>
   </cc:Work>
  </rdf:RDF>
 </metadata>
 <defs>
  <style type="text/css">*{stroke-linejoin: round; stroke-linecap: butt}</style>
 </defs>
 <g id="figure_1">
  <g id="patch_1">
   <path d="M 0 219.453523 
L 500.851719 219.453523 
L 500.851719 0 
L 0 0 
z
" style="fill: #ffffff"/>
  </g>
  <g id="axes_1">
   <g id="patch_2">
    <path d="M 47.251719 177.168328 
L 493.651719 177.168328 
L 493.651719 21.936328 
L 47.251719 21.936328 
z
" style="fill: #f5f5f5"/>
   </g>
   <g id="matplotlib.axis_1">
    <g id="xtick_1">
     <g id="line2d_1">
      <path d="M 67.530483 177.168328 
L 67.530483 21.936328 
" clip-path="url(#pfab35047ba)" style="fill: none; stroke: #cccccc; stroke-linecap: round"/>
     </g>
     <g id="text_1">
      <!-- 0 -->
      <g style="fill: #262626" transform="translate(64.471967 194.676629) scale(0.11 -0.11)">
       <defs>
        <path id="ArialMT-13" d="M 266 2259 
Q 266 3072 433 3567 
Q 600 4063 929 4331 
Q 1259 4600 1759 4600 
Q 2128 4600 2406 4451 
Q 2684 4303 2865 4023 
Q 3047 3744 3150 3342 
Q 3253 2941 3253 2259 
Q 3253 1453 3087 958 
Q 2922 463 2592 192 
Q 2263 -78 1759 -78 
Q 1097 -78 719 397 
Q 266 969 266 2259 
z
M 844 2259 
Q 844 1131 1108 757 
Q 1372 384 1759 384 
Q 2147 384 2411 759 
Q 2675 1134 2675 2259 
Q 2675 3391 2411 3762 
Q 2147 4134 1753 4134 
Q 1366 4134 1134 3806 
Q 844 3388 844 2259 
z
" transform="scale(0.015625)"/>
       </defs>
       <use xlink:href="#ArialMT-13"/>
      </g>
     </g>
    </g>
    <g id="xtick_2">
     <g id="line2d_2">
      <path d="M 122.892057 177.168328 
L 122.892057 21.936328 
" clip-path="url(#pfab35047ba)" style="fill: none; stroke: #cccccc; stroke-linecap: round"/>
     </g>
     <g id="text_2">
      <!-- 50 -->
      <g style="fill: #262626" transform="translate(116.775026 194.676629) scale(0.11 -0.11)">
       <defs>
        <path id="ArialMT-18" d="M 266 1200 
L 856 1250 
Q 922 819 1161 601 
Q 1400 384 1738 384 
Q 2144 384 2425 690 
Q 2706 997 2706 1503 
Q 2706 1984 2436 2262 
Q 2166 2541 1728 2541 
Q 1456 2541 1237 2417 
Q 1019 2294 894 2097 
L 366 2166 
L 809 4519 
L 3088 4519 
L 3088 3981 
L 1259 3981 
L 1013 2750 
Q 1425 3038 1878 3038 
Q 2478 3038 2890 2622 
Q 3303 2206 3303 1553 
Q 3303 931 2941 478 
Q 2500 -78 1738 -78 
Q 1113 -78 717 272 
Q 322 622 266 1200 
z
" transform="scale(0.015625)"/>
       </defs>
       <use xlink:href="#ArialMT-18"/>
       <use xlink:href="#ArialMT-13" transform="translate(55.609375 0)"/>
      </g>
     </g>
    </g>
    <g id="xtick_3">
     <g id="line2d_3">
      <path d="M 178.253632 177.168328 
L 178.253632 21.936328 
" clip-path="url(#pfab35047ba)" style="fill: none; stroke: #cccccc; stroke-linecap: round"/>
     </g>
     <g id="text_3">
      <!-- 100 -->
      <g style="fill: #262626" transform="translate(169.078085 194.676629) scale(0.11 -0.11)">
       <defs>
        <path id="ArialMT-14" d="M 2384 0 
L 1822 0 
L 1822 3584 
Q 1619 3391 1289 3197 
Q 959 3003 697 2906 
L 697 3450 
Q 1169 3672 1522 3987 
Q 1875 4303 2022 4600 
L 2384 4600 
L 2384 0 
z
" transform="scale(0.015625)"/>
       </defs>
       <use xlink:href="#ArialMT-14"/>
       <use xlink:href="#ArialMT-13" transform="translate(55.609375 0)"/>
       <use xlink:href="#ArialMT-13" transform="translate(111.21875 0)"/>
      </g>
     </g>
    </g>
    <g id="xtick_4">
     <g id="line2d_4">
      <path d="M 233.615207 177.168328 
L 233.615207 21.936328 
" clip-path="url(#pfab35047ba)" style="fill: none; stroke: #cccccc; stroke-linecap: round"/>
     </g>
     <g id="text_4">
      <!-- 150 -->
      <g style="fill: #262626" transform="translate(224.43966 194.676629) scale(0.11 -0.11)">
       <use xlink:href="#ArialMT-14"/>
       <use xlink:href="#ArialMT-18" transform="translate(55.609375 0)"/>
       <use xlink:href="#ArialMT-13" transform="translate(111.21875 0)"/>
      </g>
     </g>
    </g>
    <g id="xtick_5">
     <g id="line2d_5">
      <path d="M 288.976781 177.168328 
L 288.976781 21.936328 
" clip-path="url(#pfab35047ba)" style="fill: none; stroke: #cccccc; stroke-linecap: round"/>
     </g>
     <g id="text_5">
      <!-- 200 -->
      <g style="fill: #262626" transform="translate(279.801235 194.676629) scale(0.11 -0.11)">
       <defs>
        <path id="ArialMT-15" d="M 3222 541 
L 3222 0 
L 194 0 
Q 188 203 259 391 
Q 375 700 629 1000 
Q 884 1300 1366 1694 
Q 2113 2306 2375 2664 
Q 2638 3022 2638 3341 
Q 2638 3675 2398 3904 
Q 2159 4134 1775 4134 
Q 1369 4134 1125 3890 
Q 881 3647 878 3216 
L 300 3275 
Q 359 3922 746 4261 
Q 1134 4600 1788 4600 
Q 2447 4600 2831 4234 
Q 3216 3869 3216 3328 
Q 3216 3053 3103 2787 
Q 2991 2522 2730 2228 
Q 2469 1934 1863 1422 
Q 1356 997 1212 845 
Q 1069 694 975 541 
L 3222 541 
z
" transform="scale(0.015625)"/>
       </defs>
       <use xlink:href="#ArialMT-15"/>
       <use xlink:href="#ArialMT-13" transform="translate(55.609375 0)"/>
       <use xlink:href="#ArialMT-13" transform="translate(111.21875 0)"/>
      </g>
     </g>
    </g>
    <g id="xtick_6">
     <g id="line2d_6">
      <path d="M 344.338356 177.168328 
L 344.338356 21.936328 
" clip-path="url(#pfab35047ba)" style="fill: none; stroke: #cccccc; stroke-linecap: round"/>
     </g>
     <g id="text_6">
      <!-- 250 -->
      <g style="fill: #262626" transform="translate(335.162809 194.676629) scale(0.11 -0.11)">
       <use xlink:href="#ArialMT-15"/>
       <use xlink:href="#ArialMT-18" transform="translate(55.609375 0)"/>
       <use xlink:href="#ArialMT-13" transform="translate(111.21875 0)"/>
      </g>
     </g>
    </g>
    <g id="xtick_7">
     <g id="line2d_7">
      <path d="M 399.699931 177.168328 
L 399.699931 21.936328 
" clip-path="url(#pfab35047ba)" style="fill: none; stroke: #cccccc; stroke-linecap: round"/>
     </g>
     <g id="text_7">
      <!-- 300 -->
      <g style="fill: #262626" transform="translate(390.524384 194.676629) scale(0.11 -0.11)">
       <defs>
        <path id="ArialMT-16" d="M 269 1209 
L 831 1284 
Q 928 806 1161 595 
Q 1394 384 1728 384 
Q 2125 384 2398 659 
Q 2672 934 2672 1341 
Q 2672 1728 2419 1979 
Q 2166 2231 1775 2231 
Q 1616 2231 1378 2169 
L 1441 2663 
Q 1497 2656 1531 2656 
Q 1891 2656 2178 2843 
Q 2466 3031 2466 3422 
Q 2466 3731 2256 3934 
Q 2047 4138 1716 4138 
Q 1388 4138 1169 3931 
Q 950 3725 888 3313 
L 325 3413 
Q 428 3978 793 4289 
Q 1159 4600 1703 4600 
Q 2078 4600 2393 4439 
Q 2709 4278 2876 4000 
Q 3044 3722 3044 3409 
Q 3044 3113 2884 2869 
Q 2725 2625 2413 2481 
Q 2819 2388 3044 2092 
Q 3269 1797 3269 1353 
Q 3269 753 2831 336 
Q 2394 -81 1725 -81 
Q 1122 -81 723 278 
Q 325 638 269 1209 
z
" transform="scale(0.015625)"/>
       </defs>
       <use xlink:href="#ArialMT-16"/>
       <use xlink:href="#ArialMT-13" transform="translate(55.609375 0)"/>
       <use xlink:href="#ArialMT-13" transform="translate(111.21875 0)"/>
      </g>
     </g>
    </g>
    <g id="xtick_8">
     <g id="line2d_8">
      <path d="M 455.061505 177.168328 
L 455.061505 21.936328 
" clip-path="url(#pfab35047ba)" style="fill: none; stroke: #cccccc; stroke-linecap: round"/>
     </g>
     <g id="text_8">
      <!-- 350 -->
      <g style="fill: #262626" transform="translate(445.885958 194.676629) scale(0.11 -0.11)">
       <use xlink:href="#ArialMT-16"/>
       <use xlink:href="#ArialMT-18" transform="translate(55.609375 0)"/>
       <use xlink:href="#ArialMT-13" transform="translate(111.21875 0)"/>
      </g>
     </g>
    </g>
    <g id="text_9">
     <!-- correction Δv (m/s) -->
     <g style="fill: #262626" transform="translate(220.107969 209.727898) scale(0.12 -0.12)">
      <defs>
       <path id="ArialMT-46" d="M 2588 1216 
L 3141 1144 
Q 3050 572 2676 248 
Q 2303 -75 1759 -75 
Q 1078 -75 664 370 
Q 250 816 250 1647 
Q 250 2184 428 2587 
Q 606 2991 970 3192 
Q 1334 3394 1763 3394 
Q 2303 3394 2647 3120 
Q 2991 2847 3088 2344 
L 2541 2259 
Q 2463 2594 2264 2762 
Q 2066 2931 1784 2931 
Q 1359 2931 1093 2626 
Q 828 2322 828 1663 
Q 828 994 1084 691 
Q 1341 388 1753 388 
Q 2084 388 2306 591 
Q 2528 794 2588 1216 
z
" transform="scale(0.015625)"/>
       <path id="ArialMT-52" d="M 213 1659 
Q 213 2581 725 3025 
Q 1153 3394 1769 3394 
Q 2453 3394 2887 2945 
Q 3322 2497 3322 1706 
Q 3322 1066 3130 698 
Q 2938 331 2570 128 
Q 2203 -75 1769 -75 
Q 1072 -75 642 372 
Q 213 819 213 1659 
z
M 791 1659 
Q 791 1022 1069 705 
Q 1347 388 1769 388 
Q 2188 388 2466 706 
Q 2744 1025 2744 1678 
Q 2744 2294 2464 2611 
Q 2184 2928 1769 2928 
Q 1347 2928 1069 2612 
Q 791 2297 791 1659 
z
" transform="scale(0.015625)"/>
       <path id="ArialMT-55" d="M 416 0 
L 416 3319 
L 922 3319 
L 922 2816 
Q 1116 3169 1280 3281 
Q 1444 3394 1641 3394 
Q 1925 3394 2219 3213 
L 2025 2691 
Q 1819 2813 1613 2813 
Q 1428 2813 1281 2702 
Q 1134 2591 1072 2394 
Q 978 2094 978 1738 
L 978 0 
L 416 0 
z
" transform="scale(0.015625)"/>
       <path id="ArialMT-48" d="M 2694 1069 
L 3275 997 
Q 3138 488 2766 206 
Q 2394 -75 1816 -75 
Q 1088 -75 661 373 
Q 234 822 234 1631 
Q 234 2469 665 2931 
Q 1097 3394 1784 3394 
Q 2450 3394 2872 2941 
Q 3294 2488 3294 1666 
Q 3294 1616 3291 1516 
L 816 1516 
Q 847 969 1125 678 
Q 1403 388 1819 388 
Q 2128 388 2347 550 
Q 2566 713 2694 1069 
z
M 847 1978 
L 2700 1978 
Q 2663 2397 2488 2606 
Q 2219 2931 1791 2931 
Q 1403 2931 1139 2672 
Q 875 2413 847 1978 
z
" transform="scale(0.015625)"/>
       <path id="ArialMT-57" d="M 1650 503 
L 1731 6 
Q 1494 -44 1306 -44 
Q 1000 -44 831 53 
Q 663 150 594 308 
Q 525 466 525 972 
L 525 2881 
L 113 2881 
L 113 3319 
L 525 3319 
L 525 4141 
L 1084 4478 
L 1084 3319 
L 1650 3319 
L 1650 2881 
L 1084 2881 
L 1084 941 
Q 1084 700 1114 631 
Q 1144 563 1211 522 
Q 1278 481 1403 481 
Q 1497 481 1650 503 
z
" transform="scale(0.015625)"/>
       <path id="ArialMT-4c" d="M 425 3934 
L 425 4581 
L 988 4581 
L 988 3934 
L 425 3934 
z
M 425 0 
L 425 3319 
L 988 3319 
L 988 0 
L 425 0 
z
" transform="scale(0.015625)"/>
       <path id="ArialMT-51" d="M 422 0 
L 422 3319 
L 928 3319 
L 928 2847 
Q 1294 3394 1984 3394 
Q 2284 3394 2536 3286 
Q 2788 3178 2913 3003 
Q 3038 2828 3088 2588 
Q 3119 2431 3119 2041 
L 3119 0 
L 2556 0 
L 2556 2019 
Q 2556 2363 2490 2533 
Q 2425 2703 2258 2804 
Q 2091 2906 1866 2906 
Q 1506 2906 1245 2678 
Q 984 2450 984 1813 
L 984 0 
L 422 0 
z
" transform="scale(0.015625)"/>
       <path id="ArialMT-3" transform="scale(0.015625)"/>
       <path id="ArialMT-1fb" d="M -6 0 
L 1753 4581 
L 2406 4581 
L 4281 0 
L -6 0 
z
M 834 541 
L 3381 541 
L 2391 3150 
Q 2169 3738 2066 4100 
Q 1981 3675 1819 3225 
L 834 541 
z
" transform="scale(0.015625)"/>
       <path id="ArialMT-59" d="M 1344 0 
L 81 3319 
L 675 3319 
L 1388 1331 
Q 1503 1009 1600 663 
Q 1675 925 1809 1294 
L 2547 3319 
L 3125 3319 
L 1869 0 
L 1344 0 
z
" transform="scale(0.015625)"/>
       <path id="ArialMT-b" d="M 1497 -1347 
Q 1031 -759 709 28 
Q 388 816 388 1659 
Q 388 2403 628 3084 
Q 909 3875 1497 4659 
L 1900 4659 
Q 1522 4009 1400 3731 
Q 1209 3300 1100 2831 
Q 966 2247 966 1656 
Q 966 153 1900 -1347 
L 1497 -1347 
z
" transform="scale(0.015625)"/>
       <path id="ArialMT-50" d="M 422 0 
L 422 3319 
L 925 3319 
L 925 2853 
Q 1081 3097 1340 3245 
Q 1600 3394 1931 3394 
Q 2300 3394 2536 3241 
Q 2772 3088 2869 2813 
Q 3263 3394 3894 3394 
Q 4388 3394 4653 3120 
Q 4919 2847 4919 2278 
L 4919 0 
L 4359 0 
L 4359 2091 
Q 4359 2428 4304 2576 
Q 4250 2725 4106 2815 
Q 3963 2906 3769 2906 
Q 3419 2906 3187 2673 
Q 2956 2441 2956 1928 
L 2956 0 
L 2394 0 
L 2394 2156 
Q 2394 2531 2256 2718 
Q 2119 2906 1806 2906 
Q 1569 2906 1367 2781 
Q 1166 2656 1075 2415 
Q 984 2175 984 1722 
L 984 0 
L 422 0 
z
" transform="scale(0.015625)"/>
       <path id="ArialMT-12" d="M 0 -78 
L 1328 4659 
L 1778 4659 
L 453 -78 
L 0 -78 
z
" transform="scale(0.015625)"/>
       <path id="ArialMT-56" d="M 197 991 
L 753 1078 
Q 800 744 1014 566 
Q 1228 388 1613 388 
Q 2000 388 2187 545 
Q 2375 703 2375 916 
Q 2375 1106 2209 1216 
Q 2094 1291 1634 1406 
Q 1016 1563 777 1677 
Q 538 1791 414 1992 
Q 291 2194 291 2438 
Q 291 2659 392 2848 
Q 494 3038 669 3163 
Q 800 3259 1026 3326 
Q 1253 3394 1513 3394 
Q 1903 3394 2198 3281 
Q 2494 3169 2634 2976 
Q 2775 2784 2828 2463 
L 2278 2388 
Q 2241 2644 2061 2787 
Q 1881 2931 1553 2931 
Q 1166 2931 1000 2803 
Q 834 2675 834 2503 
Q 834 2394 903 2306 
Q 972 2216 1119 2156 
Q 1203 2125 1616 2013 
Q 2213 1853 2448 1751 
Q 2684 1650 2818 1456 
Q 2953 1263 2953 975 
Q 2953 694 2789 445 
Q 2625 197 2315 61 
Q 2006 -75 1616 -75 
Q 969 -75 630 194 
Q 291 463 197 991 
z
" transform="scale(0.015625)"/>
       <path id="ArialMT-c" d="M 791 -1347 
L 388 -1347 
Q 1322 153 1322 1656 
Q 1322 2244 1188 2822 
Q 1081 3291 891 3722 
Q 769 4003 388 4659 
L 791 4659 
Q 1378 3875 1659 3084 
Q 1900 2403 1900 1659 
Q 1900 816 1576 28 
Q 1253 -759 791 -1347 
z
" transform="scale(0.015625)"/>
      </defs>
      <use xlink:href="#ArialMT-46"/>
      <use xlink:href="#ArialMT-52" transform="translate(50 0)"/>
      <use xlink:href="#ArialMT-55" transform="translate(105.609375 0)"/>
      <use xlink:href="#ArialMT-55" transform="translate(138.90625 0)"/>
      <use xlink:href="#ArialMT-48" transform="translate(172.203125 0)"/>
      <use xlink:href="#ArialMT-46" transform="translate(227.8125 0)"/>
      <use xlink:href="#ArialMT-57" transform="translate(277.8125 0)"/>
      <use xlink:href="#ArialMT-4c" transform="translate(305.59375 0)"/>
      <use xlink:href="#ArialMT-52" transform="translate(327.8125 0)"/>
      <use xlink:href="#ArialMT-51" transform="translate(383.421875 0)"/>
      <use xlink:href="#ArialMT-3" transform="translate(439.03125 0)"/>
      <use xlink:href="#ArialMT-1fb" transform="translate(466.8125 0)"/>
      <use xlink:href="#ArialMT-59" transform="translate(533.609375 0)"/>
      <use xlink:href="#ArialMT-3" transform="translate(583.609375 0)"/>
      <use xlink:href="#ArialMT-b" transform="translate(611.390625 0)"/>
      <use xlink:href="#ArialMT-50" transform="translate(644.6875 0)"/>
      <use xlink:href="#ArialMT-12" transform="translate(727.984375 0)"/>
      <use xlink:href="#ArialMT-56" transform="translate(755.765625 0)"/>
      <use xlink:href="#ArialMT-c" transform="translate(805.765625 0)"/>
     </g>
    </g>
   </g>
   <g id="matplotlib.axis_2">
    <g id="ytick_1">
     <g id="line2d_9">
      <path d="M 47.251719 177.168328 
L 493.651719 177.168328 
" clip-path="url(#pfab35047ba)" style="fill: none; stroke: #cccccc; stroke-linecap: round"/>
     </g>
     <g id="text_10">
      <!-- 0.0 -->
      <g style="fill: #262626" transform="translate(22.461719 181.172479) scale(0.11 -0.11)">
       <defs>
        <path id="ArialMT-11" d="M 581 0 
L 581 641 
L 1222 641 
L 1222 0 
L 581 0 
z
" transform="scale(0.015625)"/>
       </defs>
       <use xlink:href="#ArialMT-13"/>
       <use xlink:href="#ArialMT-11" transform="translate(55.609375 0)"/>
       <use xlink:href="#ArialMT-13" transform="translate(83.390625 0)"/>
      </g>
     </g>
    </g>
    <g id="ytick_2">
     <g id="line2d_10">
      <path d="M 47.251719 146.121928 
L 493.651719 146.121928 
" clip-path="url(#pfab35047ba)" style="fill: none; stroke: #cccccc; stroke-linecap: round"/>
     </g>
     <g id="text_11">
      <!-- 0.2 -->
      <g style="fill: #262626" transform="translate(22.461719 150.126079) scale(0.11 -0.11)">
       <use xlink:href="#ArialMT-13"/>
       <use xlink:href="#ArialMT-11" transform="translate(55.609375 0)"/>
       <use xlink:href="#ArialMT-15" transform="translate(83.390625 0)"/>
      </g>
     </g>
    </g>
    <g id="ytick_3">
     <g id="line2d_11">
      <path d="M 47.251719 115.075528 
L 493.651719 115.075528 
" clip-path="url(#pfab35047ba)" style="fill: none; stroke: #cccccc; stroke-linecap: round"/>
     </g>
     <g id="text_12">
      <!-- 0.4 -->
      <g style="fill: #262626" transform="translate(22.461719 119.079679) scale(0.11 -0.11)">
       <defs>
        <path id="ArialMT-17" d="M 2069 0 
L 2069 1097 
L 81 1097 
L 81 1613 
L 2172 4581 
L 2631 4581 
L 2631 1613 
L 3250 1613 
L 3250 1097 
L 2631 1097 
L 2631 0 
L 2069 0 
z
M 2069 1613 
L 2069 3678 
L 634 1613 
L 2069 1613 
z
" transform="scale(0.015625)"/>
       </defs>
       <use xlink:href="#ArialMT-13"/>
       <use xlink:href="#ArialMT-11" transform="translate(55.609375 0)"/>
       <use xlink:href="#ArialMT-17" transform="translate(83.390625 0)"/>
      </g>
     </g>
    </g>
    <g id="ytick_4">
     <g id="line2d_12">
      <path d="M 47.251719 84.029128 
L 493.651719 84.029128 
" clip-path="url(#pfab35047ba)" style="fill: none; stroke: #cccccc; stroke-linecap: round"/>
     </g>
     <g id="text_13">
      <!-- 0.6 -->
      <g style="fill: #262626" transform="translate(22.461719 88.033279) scale(0.11 -0.11)">
       <defs>
        <path id="ArialMT-19" d="M 3184 3459 
L 2625 3416 
Q 2550 3747 2413 3897 
Q 2184 4138 1850 4138 
Q 1581 4138 1378 3988 
Q 1113 3794 959 3422 
Q 806 3050 800 2363 
Q 1003 2672 1297 2822 
Q 1591 2972 1913 2972 
Q 2475 2972 2870 2558 
Q 3266 2144 3266 1488 
Q 3266 1056 3080 686 
Q 2894 316 2569 119 
Q 2244 -78 1831 -78 
Q 1128 -78 684 439 
Q 241 956 241 2144 
Q 241 3472 731 4075 
Q 1159 4600 1884 4600 
Q 2425 4600 2770 4297 
Q 3116 3994 3184 3459 
z
M 888 1484 
Q 888 1194 1011 928 
Q 1134 663 1356 523 
Q 1578 384 1822 384 
Q 2178 384 2434 671 
Q 2691 959 2691 1453 
Q 2691 1928 2437 2201 
Q 2184 2475 1800 2475 
Q 1419 2475 1153 2201 
Q 888 1928 888 1484 
z
" transform="scale(0.015625)"/>
       </defs>
       <use xlink:href="#ArialMT-13"/>
       <use xlink:href="#ArialMT-11" transform="translate(55.609375 0)"/>
       <use xlink:href="#ArialMT-19" transform="translate(83.390625 0)"/>
      </g>
     </g>
    </g>
    <g id="ytick_5">
     <g id="line2d_13">
      <path d="M 47.251719 52.982728 
L 493.651719 52.982728 
" clip-path="url(#pfab35047ba)" style="fill: none; stroke: #cccccc; stroke-linecap: round"/>
     </g>
     <g id="text_14">
      <!-- 0.8 -->
      <g style="fill: #262626" transform="translate(22.461719 56.986879) scale(0.11 -0.11)">
       <defs>
        <path id="ArialMT-1b" d="M 1131 2484 
Q 781 2613 612 2850 
Q 444 3088 444 3419 
Q 444 3919 803 4259 
Q 1163 4600 1759 4600 
Q 2359 4600 2725 4251 
Q 3091 3903 3091 3403 
Q 3091 3084 2923 2848 
Q 2756 2613 2416 2484 
Q 2838 2347 3058 2040 
Q 3278 1734 3278 1309 
Q 3278 722 2862 322 
Q 2447 -78 1769 -78 
Q 1091 -78 675 323 
Q 259 725 259 1325 
Q 259 1772 486 2073 
Q 713 2375 1131 2484 
z
M 1019 3438 
Q 1019 3113 1228 2906 
Q 1438 2700 1772 2700 
Q 2097 2700 2305 2904 
Q 2513 3109 2513 3406 
Q 2513 3716 2298 3927 
Q 2084 4138 1766 4138 
Q 1444 4138 1231 3931 
Q 1019 3725 1019 3438 
z
M 838 1322 
Q 838 1081 952 856 
Q 1066 631 1291 507 
Q 1516 384 1775 384 
Q 2178 384 2440 643 
Q 2703 903 2703 1303 
Q 2703 1709 2433 1975 
Q 2163 2241 1756 2241 
Q 1359 2241 1098 1978 
Q 838 1716 838 1322 
z
" transform="scale(0.015625)"/>
       </defs>
       <use xlink:href="#ArialMT-13"/>
       <use xlink:href="#ArialMT-11" transform="translate(55.609375 0)"/>
       <use xlink:href="#ArialMT-1b" transform="translate(83.390625 0)"/>
      </g>
     </g>
    </g>
    <g id="ytick_6">
     <g id="line2d_14">
      <path d="M 47.251719 21.936328 
L 493.651719 21.936328 
" clip-path="url(#pfab35047ba)" style="fill: none; stroke: #cccccc; stroke-linecap: round"/>
     </g>
     <g id="text_15">
      <!-- 1.0 -->
      <g style="fill: #262626" transform="translate(22.461719 25.940479) scale(0.11 -0.11)">
       <use xlink:href="#ArialMT-14"/>
       <use xlink:href="#ArialMT-11" transform="translate(55.609375 0)"/>
       <use xlink:href="#ArialMT-13" transform="translate(83.390625 0)"/>
      </g>
     </g>
    </g>
    <g id="text_16">
     <!-- cumulative fraction -->
     <g style="fill: #262626" transform="translate(15.936328 149.570766) rotate(-90) scale(0.12 -0.12)">
      <defs>
       <path id="ArialMT-58" d="M 2597 0 
L 2597 488 
Q 2209 -75 1544 -75 
Q 1250 -75 995 37 
Q 741 150 617 320 
Q 494 491 444 738 
Q 409 903 409 1263 
L 409 3319 
L 972 3319 
L 972 1478 
Q 972 1038 1006 884 
Q 1059 663 1231 536 
Q 1403 409 1656 409 
Q 1909 409 2131 539 
Q 2353 669 2445 892 
Q 2538 1116 2538 1541 
L 2538 3319 
L 3100 3319 
L 3100 0 
L 2597 0 
z
" transform="scale(0.015625)"/>
       <path id="ArialMT-4f" d="M 409 0 
L 409 4581 
L 972 4581 
L 972 0 
L 409 0 
z
" transform="scale(0.015625)"/>
       <path id="ArialMT-44" d="M 2588 409 
Q 2275 144 1986 34 
Q 1697 -75 1366 -75 
Q 819 -75 525 192 
Q 231 459 231 875 
Q 231 1119 342 1320 
Q 453 1522 633 1644 
Q 813 1766 1038 1828 
Q 1203 1872 1538 1913 
Q 2219 1994 2541 2106 
Q 2544 2222 2544 2253 
Q 2544 2597 2384 2738 
Q 2169 2928 1744 2928 
Q 1347 2928 1158 2789 
Q 969 2650 878 2297 
L 328 2372 
Q 403 2725 575 2942 
Q 747 3159 1072 3276 
Q 1397 3394 1825 3394 
Q 2250 3394 2515 3294 
Q 2781 3194 2906 3042 
Q 3031 2891 3081 2659 
Q 3109 2516 3109 2141 
L 3109 1391 
Q 3109 606 3145 398 
Q 3181 191 3288 0 
L 2700 0 
Q 2613 175 2588 409 
z
M 2541 1666 
Q 2234 1541 1622 1453 
Q 1275 1403 1131 1340 
Q 988 1278 909 1158 
Q 831 1038 831 891 
Q 831 666 1001 516 
Q 1172 366 1500 366 
Q 1825 366 2078 508 
Q 2331 650 2450 897 
Q 2541 1088 2541 1459 
L 2541 1666 
z
" transform="scale(0.015625)"/>
       <path id="ArialMT-49" d="M 556 0 
L 556 2881 
L 59 2881 
L 59 3319 
L 556 3319 
L 556 3672 
Q 556 4006 616 4169 
Q 697 4388 901 4523 
Q 1106 4659 1475 4659 
Q 1713 4659 2000 4603 
L 1916 4113 
Q 1741 4144 1584 4144 
Q 1328 4144 1222 4034 
Q 1116 3925 1116 3625 
L 1116 3319 
L 1763 3319 
L 1763 2881 
L 1116 2881 
L 1116 0 
L 556 0 
z
" transform="scale(0.015625)"/>
      </defs>
      <use xlink:href="#ArialMT-46"/>
      <use xlink:href="#ArialMT-58" transform="translate(50 0)"/>
      <use xlink:href="#ArialMT-50" transform="translate(105.609375 0)"/>
      <use xlink:href="#ArialMT-58" transform="translate(188.90625 0)"/>
      <use xlink:href="#ArialMT-4f" transform="translate(244.515625 0)"/>
      <use xlink:href="#ArialMT-44" transform="translate(266.734375 0)"/>
      <use xlink:href="#ArialMT-57" transform="translate(322.34375 0)"/>
      <use xlink:href="#ArialMT-4c" transform="translate(350.125 0)"/>
      <use xlink:href="#ArialMT-59" transform="translate(372.34375 0)"/>
      <use xlink:href="#ArialMT-48" transform="translate(422.34375 0)"/>
      <use xlink:href="#ArialMT-3" transform="translate(477.953125 0)"/>
      <use xlink:href="#ArialMT-49" transform="translate(505.734375 0)"/>
      <use xlink:href="#ArialMT-55" transform="translate(533.515625 0)"/>
      <use xlink:href="#ArialMT-44" transform="translate(566.8125 0)"/>
      <use xlink:href="#ArialMT-46" transform="translate(622.421875 0)"/>
      <use xlink:href="#ArialMT-57" transform="translate(672.421875 0)"/>
      <use xlink:href="#ArialMT-4c" transform="translate(700.203125 0)"/>
      <use xlink:href="#ArialMT-52" transform="translate(722.421875 0)"/>
      <use xlink:href="#ArialMT-51" transform="translate(778.03125 0)"/>
     </g>
    </g>
   </g>
   <g id="line2d_15">
    <path d="M 203.880378 177.013096 
L 205.263442 176.857864 
L 205.630438 176.236936 
L 205.760107 176.081704 
L 206.036911 175.926472 
L 206.393224 174.99508 
L 206.699844 174.839848 
L 206.78697 174.374152 
L 207.020655 174.063688 
L 207.268196 173.287528 
L 207.755856 172.511368 
L 207.912234 171.579976 
L 208.18586 170.648584 
L 208.412978 170.33812 
L 208.504436 169.872424 
L 208.635539 169.251496 
L 208.784269 168.941032 
L 208.905483 168.630568 
L 209.037351 168.320104 
L 209.549204 165.836392 
L 209.796658 165.525928 
L 210.009176 163.507912 
L 210.214104 163.197448 
L 210.26457 162.731752 
L 210.385472 162.421288 
L 210.569845 161.179432 
L 210.720577 160.403272 
L 210.877984 159.782344 
L 210.882054 159.627112 
L 211.106229 159.47188 
L 211.386556 156.988168 
L 211.574879 155.59108 
L 211.65821 155.280616 
L 211.852038 154.970152 
L 211.948141 154.504456 
L 212.040283 154.193992 
L 212.196458 153.2626 
L 212.323534 152.48644 
L 213.22044 146.432392 
L 213.419838 145.656232 
L 213.57306 144.569608 
L 213.783502 143.482984 
L 214.224135 139.757416 
L 214.441117 138.205096 
L 214.566144 137.894632 
L 214.725755 137.273704 
L 215.017108 135.721384 
L 215.136678 135.100456 
L 215.970695 129.9778 
L 216.064882 129.512104 
L 216.34528 127.028392 
L 216.503972 126.097 
L 216.689031 124.855144 
L 216.886863 123.923752 
L 216.990082 122.837128 
L 217.06914 122.526664 
L 217.189034 121.905736 
L 217.30282 121.595272 
L 217.357339 121.284808 
L 217.433282 120.974344 
L 217.56314 119.88772 
L 217.910654 117.869704 
L 218.042013 116.162152 
L 218.150517 115.696456 
L 218.282938 115.385992 
L 218.361486 114.920296 
L 218.464225 114.4546 
L 218.530524 113.833672 
L 218.671756 113.212744 
L 219.114321 111.039496 
L 219.254742 110.729032 
L 220.369062 104.054056 
L 220.475114 102.501736 
L 221.193942 97.844776 
L 221.35084 97.37908 
L 221.515149 96.292456 
L 221.773999 95.671528 
L 221.899513 95.0506 
L 222.186052 94.429672 
L 222.247591 93.963976 
L 222.351153 93.653512 
L 222.459902 93.032584 
L 222.598648 92.256424 
L 222.738387 91.94596 
L 222.762274 91.635496 
L 222.930645 91.325032 
L 223.040815 91.014568 
L 223.278534 89.927944 
L 223.408101 89.307016 
L 223.609717 88.220392 
L 223.748581 87.444232 
L 223.807036 86.978536 
L 224.015039 86.823304 
L 224.125772 86.047144 
L 224.312527 85.73668 
L 224.499779 85.426216 
L 224.583007 84.805288 
L 224.761213 83.873896 
L 224.966403 82.942504 
L 225.083986 82.63204 
L 225.19176 81.85588 
L 225.373974 80.924488 
L 225.5547 80.30356 
L 225.627742 79.993096 
L 225.802925 79.061704 
L 226.222465 78.440776 
L 226.236217 78.285544 
L 226.39686 77.97508 
L 226.489742 76.888456 
L 226.547334 76.577992 
L 226.749975 76.267528 
L 226.84165 75.957064 
L 226.941976 75.336136 
L 227.062302 75.025672 
L 227.556945 72.852424 
L 227.921144 71.610568 
L 228.078933 71.144872 
L 228.692921 69.592552 
L 228.949671 68.816392 
L 229.14535 68.505928 
L 229.409877 67.419304 
L 229.61765 67.10884 
L 229.970232 66.177448 
L 230.452654 64.159432 
L 230.613975 63.848968 
L 230.882916 62.917576 
L 231.3553 62.607112 
L 231.632152 61.67572 
L 232.026086 61.520488 
L 233.209193 57.79492 
L 233.365363 57.173992 
L 233.907755 56.397832 
L 233.964378 56.087368 
L 234.087079 55.776904 
L 234.100223 55.46644 
L 234.480803 55.000744 
L 234.79511 54.069352 
L 234.970784 53.448424 
L 235.260136 52.827496 
L 235.51819 52.206568 
L 235.564035 51.896104 
L 235.817612 51.740872 
L 235.921098 51.430408 
L 235.962758 51.275176 
L 236.46873 50.654248 
L 236.480101 50.499016 
L 236.732655 50.343784 
L 236.838841 49.722856 
L 237.078162 49.101928 
L 237.411935 48.791464 
L 237.810193 47.70484 
L 237.975033 47.394376 
L 238.076012 46.92868 
L 238.210873 46.307752 
L 238.447249 45.997288 
L 238.471218 45.842056 
L 238.792384 45.686824 
L 238.798779 45.531592 
L 238.968852 45.221128 
L 239.319904 44.444968 
L 239.503267 44.134504 
L 239.605701 43.82404 
L 239.72233 43.668808 
L 240.045486 43.358344 
L 240.404239 42.27172 
L 240.539266 41.650792 
L 240.968021 41.185096 
L 240.991828 41.029864 
L 241.430149 40.874632 
L 241.584031 40.408936 
L 241.74892 40.098472 
L 241.991153 39.477544 
L 242.474942 39.16708 
L 242.566886 39.011848 
L 242.807242 38.856616 
L 242.815234 38.701384 
L 243.477192 38.39092 
L 243.549231 38.235688 
L 244.076171 37.769992 
L 244.17433 37.304296 
L 244.390225 37.149064 
L 244.501244 36.8386 
L 245.001621 36.372904 
L 245.409109 36.06244 
L 245.750979 35.441512 
L 246.376574 34.975816 
L 246.85664 34.820584 
L 247.021157 34.354888 
L 247.916364 33.578728 
L 248.142966 33.268264 
L 248.2409 32.9578 
L 248.580257 32.492104 
L 248.58841 32.336872 
L 249.242998 31.715944 
L 249.341064 31.560712 
L 250.142744 31.095016 
L 251.061917 30.784552 
L 251.279628 30.318856 
L 251.391431 30.008392 
L 251.634472 29.697928 
L 251.653894 29.542696 
L 251.81122 29.232232 
L 252.01908 28.921768 
L 252.523922 28.611304 
L 252.658797 28.30084 
L 253.042445 27.835144 
L 255.291844 27.214216 
L 256.013561 26.74852 
L 256.590581 26.593288 
L 256.599023 26.438056 
L 257.158412 26.127592 
L 257.951042 25.97236 
L 258.419704 25.506664 
L 259.150523 25.351432 
L 259.557989 24.730504 
L 264.170179 24.42004 
L 264.980623 23.954344 
L 266.246066 23.799112 
L 269.001201 23.64388 
L 269.625179 23.488648 
L 269.673967 23.333416 
L 271.640825 23.022952 
L 272.666861 22.86772 
L 279.457939 22.402024 
L 281.396818 22.09156 
L 473.36081 21.936328 
L 473.36081 21.936328 
" clip-path="url(#pfab35047ba)" style="fill: none; stroke: #111111; stroke-width: 2; stroke-linecap: round"/>
   </g>
   <g id="line2d_16">
    <path d="M 194.887412 177.013096 
L 197.706797 176.702632 
L 197.957543 176.5474 
L 197.997649 175.926472 
L 198.146582 175.77124 
L 198.743958 175.460776 
L 199.526263 174.374152 
L 200.3439 171.89044 
L 200.507302 171.269512 
L 200.63901 170.803816 
L 200.687952 170.493352 
L 200.825867 170.027656 
L 201.268926 168.164872 
L 202.340798 158.850952 
L 202.437301 158.230024 
L 202.601611 157.1434 
L 202.719398 156.056776 
L 203.166795 150.468424 
L 203.314875 147.674248 
L 203.376266 146.587624 
L 203.477621 144.72484 
L 203.588627 142.551592 
L 203.832935 137.584168 
L 203.872937 136.96324 
L 204.230614 129.667336 
L 208.256553 45.37636 
L 208.357646 44.755432 
L 208.616826 41.49556 
L 208.735102 40.564168 
L 208.828499 39.94324 
L 208.938436 39.16708 
L 209.345625 34.820584 
L 209.683967 33.889192 
L 209.829434 33.113032 
L 210.016134 31.871176 
L 210.262056 30.474088 
L 210.296562 30.008392 
L 210.484419 29.542696 
L 210.607934 28.145608 
L 210.759019 27.835144 
L 210.75945 27.679912 
L 210.914493 27.369448 
L 211.209671 26.282824 
L 211.233989 26.127592 
L 211.408262 25.817128 
L 211.514621 25.506664 
L 211.648878 25.040968 
L 211.670609 24.885736 
L 211.857033 24.575272 
L 211.86305 24.42004 
L 212.10978 24.264808 
L 212.140814 24.109576 
L 212.689945 23.64388 
L 212.743648 23.488648 
L 213.604646 23.333416 
L 214.580156 22.557256 
L 215.714177 22.09156 
L 263.236728 21.936328 
L 263.236728 21.936328 
" clip-path="url(#pfab35047ba)" style="fill: none; stroke: #4878cf; stroke-width: 1.2; stroke-linecap: round"/>
   </g>
   <g id="line2d_17">
    <path d="M 67.542628 177.013096 
L 67.863436 171.89044 
L 68.079722 169.096264 
L 68.281056 165.836392 
L 68.423371 163.973608 
L 68.65122 158.850952 
L 68.737709 157.453864 
L 68.880029 154.970152 
L 68.965998 153.573064 
L 69.122059 152.020744 
L 69.535124 147.05332 
L 69.630564 146.27716 
L 69.753088 145.501 
L 69.857246 144.103912 
L 70.481996 135.721384 
L 70.541209 135.100456 
L 70.654839 133.08244 
L 70.702894 132.461512 
L 71.023077 128.580712 
L 71.069872 127.959784 
L 71.185021 126.252232 
L 71.248901 125.786536 
L 71.422818 122.060968 
L 71.486004 121.595272 
L 71.68668 118.180168 
L 71.846484 116.162152 
L 72.167286 113.523208 
L 72.280424 112.12612 
L 72.484973 109.487176 
L 72.651679 107.624392 
L 72.789256 104.985448 
L 73.18373 100.638952 
L 73.325487 98.776168 
L 73.473336 98.15524 
L 73.804827 95.361064 
L 73.987704 93.49828 
L 74.119182 92.256424 
L 74.185324 91.790728 
L 74.527835 88.06516 
L 74.712303 86.978536 
L 74.849097 85.891912 
L 74.972035 85.270984 
L 75.091894 84.494824 
L 75.223411 83.718664 
L 75.307919 82.942504 
L 75.466126 81.700648 
L 75.56051 80.769256 
L 75.677146 79.5274 
L 76.133718 75.957064 
L 76.297564 75.336136 
L 76.594786 72.54196 
L 76.69462 72.076264 
L 77.510456 66.487912 
L 77.709796 65.090824 
L 77.827359 64.159432 
L 78.022165 61.986184 
L 78.08586 61.365256 
L 78.237865 59.968168 
L 78.437298 59.036776 
L 78.585807 58.415848 
L 78.896893 56.553064 
L 78.985753 56.2426 
L 79.11268 55.155976 
L 79.538931 52.672264 
L 79.978326 50.964712 
L 80.201094 50.03332 
L 80.324948 49.412392 
L 80.532824 48.170536 
L 80.652024 47.860072 
L 80.746167 47.239144 
L 80.960885 46.307752 
L 81.058975 45.997288 
L 81.131144 45.531592 
L 81.165657 45.221128 
L 81.38977 44.755432 
L 81.520809 43.513576 
L 81.646961 42.892648 
L 81.857252 42.582184 
L 82.14057 41.650792 
L 82.582121 41.185096 
L 82.694593 40.253704 
L 82.874518 39.788008 
L 82.956906 39.16708 
L 83.382896 38.080456 
L 83.960756 36.217672 
L 84.21936 35.751976 
L 84.27918 35.441512 
L 84.688628 35.28628 
L 84.935765 34.665352 
L 85.097585 34.354888 
L 85.372339 33.73396 
L 85.931724 33.113032 
L 85.960615 32.9578 
L 86.115528 32.647336 
L 86.124732 32.492104 
L 86.431379 32.18164 
L 87.106243 31.095016 
L 87.320933 30.939784 
L 87.409828 30.62932 
L 87.575759 30.318856 
L 87.814384 29.85316 
L 88.306952 29.542696 
L 88.786897 29.232232 
L 89.606266 28.921768 
L 89.653974 28.611304 
L 89.990836 27.990376 
L 90.992548 27.058984 
L 91.427409 26.903752 
L 91.435813 26.74852 
L 92.124471 26.438056 
L 92.20018 26.282824 
L 92.574229 25.97236 
L 92.600792 25.817128 
L 93.202782 25.661896 
L 93.455828 25.351432 
L 93.64557 25.1962 
L 97.06207 24.42004 
L 98.184969 23.954344 
L 98.994411 23.799112 
L 99.048246 23.64388 
L 100.71031 23.333416 
L 101.942845 23.178184 
L 104.999743 23.022952 
L 105.090245 22.86772 
L 107.179443 22.557256 
L 118.710798 22.402024 
L 119.68617 22.246792 
L 133.857383 21.936328 
L 133.857383 21.936328 
" clip-path="url(#pfab35047ba)" style="fill: none; stroke: #d1701f; stroke-width: 1.2; stroke-linecap: round"/>
   </g>
   <g id="line2d_18">
    <path d="M 67.557999 177.013096 
L 67.829671 170.803816 
L 68.000446 167.854408 
L 68.160084 162.731752 
L 68.881233 144.72484 
L 69.074198 139.602184 
L 69.301882 135.566152 
L 70.179571 121.750504 
L 70.243765 121.129576 
L 70.824164 112.90228 
L 70.916749 111.970888 
L 71.031689 110.418568 
L 71.142312 109.487176 
L 71.355714 106.537768 
L 71.532199 105.14068 
L 71.622896 104.36452 
L 71.918278 102.501736 
L 72.053425 100.949416 
L 72.227601 99.397096 
L 72.343348 99.086632 
L 72.397132 98.620936 
L 72.55729 98.310472 
L 73.006745 96.913384 
L 73.149305 95.671528 
L 73.246954 95.361064 
L 73.342383 94.895368 
L 73.862316 93.653512 
L 74.019081 93.343048 
L 74.122089 93.032584 
L 74.314171 92.72212 
L 74.487945 91.94596 
L 74.729785 91.480264 
L 74.999551 91.014568 
L 75.050967 90.704104 
L 75.37298 90.39364 
L 75.41976 89.927944 
L 75.651347 89.772712 
L 75.796084 88.996552 
L 76.541423 87.909928 
L 77.060036 86.047144 
L 77.144228 85.426216 
L 77.305807 84.96052 
L 77.502414 84.494824 
L 77.853776 84.029128 
L 78.014612 83.563432 
L 79.073423 81.545416 
L 79.261634 80.924488 
L 79.538435 80.30356 
L 79.870862 79.216936 
L 80.040351 78.906472 
L 80.090496 78.75124 
L 80.281142 78.440776 
L 80.553704 76.888456 
L 80.694376 76.267528 
L 80.711513 76.112296 
L 80.976912 75.801832 
L 81.210114 75.180904 
L 81.545512 75.025672 
L 81.581914 74.87044 
L 81.858659 74.559976 
L 81.963278 74.249512 
L 82.094744 73.628584 
L 82.242337 73.162888 
L 82.30175 73.007656 
L 82.703409 72.54196 
L 82.883448 71.7658 
L 83.041025 70.98964 
L 83.200778 70.368712 
L 83.507341 69.592552 
L 83.886944 68.66116 
L 84.061511 68.350696 
L 84.071426 68.195464 
L 84.419355 67.885 
L 84.592387 67.10884 
L 84.687862 66.798376 
L 84.828068 66.022216 
L 85.024341 65.401288 
L 85.446907 64.78036 
L 85.58727 64.314664 
L 85.628519 64.159432 
L 85.852736 63.848968 
L 85.981941 63.538504 
L 86.195648 62.607112 
L 86.551428 61.986184 
L 86.582814 61.830952 
L 86.796012 61.520488 
L 87.009232 61.210024 
L 87.628691 58.726312 
L 87.684744 58.260616 
L 87.838614 57.950152 
L 88.089333 57.329224 
L 88.37265 56.708296 
L 88.509048 56.087368 
L 88.894487 55.776904 
L 88.966937 55.46644 
L 89.452832 54.69028 
L 89.516966 54.379816 
L 89.721134 54.069352 
L 89.771809 53.603656 
L 90.06429 53.293192 
L 91.35394 50.80948 
L 91.669211 50.499016 
L 91.906327 50.188552 
L 92.002511 49.878088 
L 92.065026 49.412392 
L 92.367975 48.791464 
L 92.42568 48.481 
L 92.632262 48.170536 
L 92.705503 47.549608 
L 92.960372 47.394376 
L 93.078426 46.773448 
L 93.219337 46.462984 
L 93.481225 45.221128 
L 93.821788 44.6002 
L 94.236902 44.289736 
L 94.530595 44.134504 
L 94.565623 43.82404 
L 94.855558 43.668808 
L 94.992227 42.892648 
L 95.322835 41.340328 
L 95.478576 41.029864 
L 95.569306 40.7194 
L 95.861709 40.564168 
L 95.927782 40.253704 
L 96.743096 39.632776 
L 97.245179 38.701384 
L 97.858168 38.235688 
L 98.328737 36.528136 
L 98.546129 36.217672 
L 98.605371 36.06244 
L 99.142626 35.751976 
L 99.192184 35.28628 
L 100.179055 34.354888 
L 100.605072 34.199656 
L 100.639617 33.889192 
L 101.009133 33.578728 
L 101.564899 32.802568 
L 101.973346 32.492104 
L 102.091362 31.871176 
L 102.478427 31.560712 
L 103.431728 30.318856 
L 103.964308 30.008392 
L 104.356241 29.232232 
L 104.409296 28.921768 
L 105.608938 27.990376 
L 106.380218 27.679912 
L 106.474494 27.369448 
L 106.838987 27.214216 
L 106.84639 27.058984 
L 107.076625 26.903752 
L 107.077556 26.74852 
L 107.55034 26.282824 
L 107.605496 26.127592 
L 108.089994 25.661896 
L 109.500835 25.040968 
L 109.596574 24.885736 
L 111.381778 24.109576 
L 111.433293 23.954344 
L 112.449363 23.799112 
L 112.624032 23.488648 
L 116.711078 23.022952 
L 117.847197 22.557256 
L 123.096839 22.402024 
L 123.397184 22.246792 
L 123.41633 22.09156 
L 211.327664 21.936328 
L 211.327664 21.936328 
" clip-path="url(#pfab35047ba)" style="fill: none; stroke: #6a51a3; stroke-width: 1.2; stroke-linecap: round"/>
   </g>
   <g id="patch_3">
    <path d="M 47.251719 177.168328 
L 47.251719 21.936328 
" style="fill: none; stroke: #cccccc; stroke-width: 1.25; stroke-linejoin: miter; stroke-linecap: square"/>
   </g>
   <g id="patch_4">
    <path d="M 47.251719 177.168328 
L 493.651719 177.168328 
" style="fill: none; stroke: #cccccc; stroke-width: 1.25; stroke-linejoin: miter; stroke-linecap: square"/>
   </g>
   <g id="text_17">
    <!-- Correction Δv - - empirical CDF (total + burns) -->
    <g style="fill: #262626" transform="translate(149.922031 15.936328) scale(0.12 -0.12)">
     <defs>
      <path id="ArialMT-26" d="M 3763 1606 
L 4369 1453 
Q 4178 706 3683 314 
Q 3188 -78 2472 -78 
Q 1731 -78 1267 223 
Q 803 525 561 1097 
Q 319 1669 319 2325 
Q 319 3041 592 3573 
Q 866 4106 1370 4382 
Q 1875 4659 2481 4659 
Q 3169 4659 3637 4309 
Q 4106 3959 4291 3325 
L 3694 3184 
Q 3534 3684 3231 3912 
Q 2928 4141 2469 4141 
Q 1941 4141 1586 3887 
Q 1231 3634 1087 3207 
Q 944 2781 944 2328 
Q 944 1744 1114 1308 
Q 1284 872 1643 656 
Q 2003 441 2422 441 
Q 2931 441 3284 734 
Q 3638 1028 3763 1606 
z
" transform="scale(0.015625)"/>
      <path id="ArialMT-10" d="M 203 1375 
L 203 1941 
L 1931 1941 
L 1931 1375 
L 203 1375 
z
" transform="scale(0.015625)"/>
      <path id="ArialMT-53" d="M 422 -1272 
L 422 3319 
L 934 3319 
L 934 2888 
Q 1116 3141 1344 3267 
Q 1572 3394 1897 3394 
Q 2322 3394 2647 3175 
Q 2972 2956 3137 2557 
Q 3303 2159 3303 1684 
Q 3303 1175 3120 767 
Q 2938 359 2589 142 
Q 2241 -75 1856 -75 
Q 1575 -75 1351 44 
Q 1128 163 984 344 
L 984 -1272 
L 422 -1272 
z
M 931 1641 
Q 931 1000 1190 694 
Q 1450 388 1819 388 
Q 2194 388 2461 705 
Q 2728 1022 2728 1688 
Q 2728 2322 2467 2637 
Q 2206 2953 1844 2953 
Q 1484 2953 1207 2617 
Q 931 2281 931 1641 
z
" transform="scale(0.015625)"/>
      <path id="ArialMT-27" d="M 494 0 
L 494 4581 
L 2072 4581 
Q 2606 4581 2888 4516 
Q 3281 4425 3559 4188 
Q 3922 3881 4101 3404 
Q 4281 2928 4281 2316 
Q 4281 1794 4159 1391 
Q 4038 988 3847 723 
Q 3656 459 3429 307 
Q 3203 156 2883 78 
Q 2563 0 2147 0 
L 494 0 
z
M 1100 541 
L 2078 541 
Q 2531 541 2789 625 
Q 3047 709 3200 863 
Q 3416 1078 3536 1442 
Q 3656 1806 3656 2325 
Q 3656 3044 3420 3430 
Q 3184 3816 2847 3947 
Q 2603 4041 2063 4041 
L 1100 4041 
L 1100 541 
z
" transform="scale(0.015625)"/>
      <path id="ArialMT-29" d="M 525 0 
L 525 4581 
L 3616 4581 
L 3616 4041 
L 1131 4041 
L 1131 2622 
L 3281 2622 
L 3281 2081 
L 1131 2081 
L 1131 0 
L 525 0 
z
" transform="scale(0.015625)"/>
      <path id="ArialMT-e" d="M 1603 741 
L 1603 1997 
L 356 1997 
L 356 2522 
L 1603 2522 
L 1603 3769 
L 2134 3769 
L 2134 2522 
L 3381 2522 
L 3381 1997 
L 2134 1997 
L 2134 741 
L 1603 741 
z
" transform="scale(0.015625)"/>
      <path id="ArialMT-45" d="M 941 0 
L 419 0 
L 419 4581 
L 981 4581 
L 981 2947 
Q 1338 3394 1891 3394 
Q 2197 3394 2470 3270 
Q 2744 3147 2920 2923 
Q 3097 2700 3197 2384 
Q 3297 2069 3297 1709 
Q 3297 856 2875 390 
Q 2453 -75 1863 -75 
Q 1275 -75 941 416 
L 941 0 
z
M 934 1684 
Q 934 1088 1097 822 
Q 1363 388 1816 388 
Q 2184 388 2453 708 
Q 2722 1028 2722 1663 
Q 2722 2313 2464 2622 
Q 2206 2931 1841 2931 
Q 1472 2931 1203 2611 
Q 934 2291 934 1684 
z
" transform="scale(0.015625)"/>
     </defs>
     <use xlink:href="#ArialMT-26"/>
     <use xlink:href="#ArialMT-52" transform="translate(72.21875 0)"/>
     <use xlink:href="#ArialMT-55" transform="translate(127.828125 0)"/>
     <use xlink:href="#ArialMT-55" transform="translate(161.125 0)"/>
     <use xlink:href="#ArialMT-48" transform="translate(194.421875 0)"/>
     <use xlink:href="#ArialMT-46" transform="translate(250.03125 0)"/>
     <use xlink:href="#ArialMT-57" transform="translate(300.03125 0)"/>
     <use xlink:href="#ArialMT-4c" transform="translate(327.8125 0)"/>
     <use xlink:href="#ArialMT-52" transform="translate(350.03125 0)"/>
     <use xlink:href="#ArialMT-51" transform="translate(405.640625 0)"/>
     <use xlink:href="#ArialMT-3" transform="translate(461.25 0)"/>
     <use xlink:href="#ArialMT-1fb" transform="translate(489.03125 0)"/>
     <use xlink:href="#ArialMT-59" transform="translate(555.828125 0)"/>
     <use xlink:href="#ArialMT-3" transform="translate(605.828125 0)"/>
     <use xlink:href="#ArialMT-10" transform="translate(633.609375 0)"/>
     <use xlink:href="#ArialMT-10" transform="translate(666.90625 0)"/>
     <use xlink:href="#ArialMT-3" transform="translate(700.203125 0)"/>
     <use xlink:href="#ArialMT-48" transform="translate(727.984375 0)"/>
     <use xlink:href="#ArialMT-50" transform="translate(783.59375 0)"/>
     <use xlink:href="#ArialMT-53" transform="translate(866.890625 0)"/>
     <use xlink:href="#ArialMT-4c" transform="translate(922.5 0)"/>
     <use xlink:href="#ArialMT-55" transform="translate(944.71875 0)"/>
     <use xlink:href="#ArialMT-4c" transform="translate(978.015625 0)"/>
     <use xlink:href="#ArialMT-46" transform="translate(1000.234375 0)"/>
     <use xlink:href="#ArialMT-44" transform="translate(1050.234375 0)"/>
     <use xlink:href="#ArialMT-4f" transform="translate(1105.84375 0)"/>
     <use xlink:href="#ArialMT-3" transform="translate(1128.0625 0)"/>
     <use xlink:href="#ArialMT-26" transform="translate(1155.84375 0)"/>
     <use xlink:href="#ArialMT-27" transform="translate(1228.0625 0)"/>
     <use xlink:href="#ArialMT-29" transform="translate(1300.28125 0)"/>
     <use xlink:href="#ArialMT-3" transform="translate(1361.359375 0)"/>
     <use xlink:href="#ArialMT-b" transform="translate(1389.140625 0)"/>
     <use xlink:href="#ArialMT-57" transform="translate(1422.4375 0)"/>
     <use xlink:href="#ArialMT-52" transform="translate(1450.21875 0)"/>
     <use xlink:href="#ArialMT-57" transform="translate(1505.828125 0)"/>
     <use xlink:href="#ArialMT-44" transform="translate(1533.609375 0)"/>
     <use xlink:href="#ArialMT-4f" transform="translate(1589.21875 0)"/>
     <use xlink:href="#ArialMT-3" transform="translate(1611.4375 0)"/>
     <use xlink:href="#ArialMT-e" transform="translate(1639.21875 0)"/>
     <use xlink:href="#ArialMT-3" transform="translate(1697.625 0)"/>
     <use xlink:href="#ArialMT-45" transform="translate(1725.40625 0)"/>
     <use xlink:href="#ArialMT-58" transform="translate(1781.015625 0)"/>
     <use xlink:href="#ArialMT-55" transform="translate(1836.625 0)"/>
     <use xlink:href="#ArialMT-51" transform="translate(1869.921875 0)"/>
     <use xlink:href="#ArialMT-56" transform="translate(1925.53125 0)"/>
     <use xlink:href="#ArialMT-c" transform="translate(1975.53125 0)"/>
    </g>
   </g>
   <g id="legend_1">
    <g id="patch_5">
     <path d="M 371.331916 172.170328 
L 486.654519 172.170328 
Q 488.653719 172.170328 488.653719 170.171128 
L 488.653719 113.654486 
Q 488.653719 111.655286 486.654519 111.655286 
L 371.331916 111.655286 
Q 369.332716 111.655286 369.332716 113.654486 
L 369.332716 170.171128 
Q 369.332716 172.170328 371.331916 172.170328 
z
" style="fill: #f5f5f5; opacity: 0.8; stroke: #cccccc; stroke-linejoin: miter"/>
    </g>
    <g id="line2d_19">
     <path d="M 373.331116 119.432447 
L 383.327116 119.432447 
L 393.323116 119.432447 
" style="fill: none; stroke: #111111; stroke-width: 2; stroke-linecap: round"/>
    </g>
    <g id="text_18">
     <!-- total Δv -->
     <g style="fill: #262626" transform="translate(401.319916 122.931047) scale(0.09996 -0.09996)">
      <use xlink:href="#ArialMT-57"/>
      <use xlink:href="#ArialMT-52" transform="translate(27.78125 0)"/>
      <use xlink:href="#ArialMT-57" transform="translate(83.390625 0)"/>
      <use xlink:href="#ArialMT-44" transform="translate(111.171875 0)"/>
      <use xlink:href="#ArialMT-4f" transform="translate(166.78125 0)"/>
      <use xlink:href="#ArialMT-3" transform="translate(189 0)"/>
      <use xlink:href="#ArialMT-1fb" transform="translate(216.78125 0)"/>
      <use xlink:href="#ArialMT-59" transform="translate(283.578125 0)"/>
     </g>
    </g>
    <g id="line2d_20">
     <path d="M 373.331116 133.811459 
L 383.327116 133.811459 
L 393.323116 133.811459 
" style="fill: none; stroke: #4878cf; stroke-width: 1.2; stroke-linecap: round"/>
    </g>
    <g id="text_19">
     <!-- dv1 periapsis raise -->
     <g style="fill: #262626" transform="translate(401.319916 137.310059) scale(0.09996 -0.09996)">
      <defs>
       <path id="ArialMT-47" d="M 2575 0 
L 2575 419 
Q 2259 -75 1647 -75 
Q 1250 -75 917 144 
Q 584 363 401 755 
Q 219 1147 219 1656 
Q 219 2153 384 2558 
Q 550 2963 881 3178 
Q 1213 3394 1622 3394 
Q 1922 3394 2156 3267 
Q 2391 3141 2538 2938 
L 2538 4581 
L 3097 4581 
L 3097 0 
L 2575 0 
z
M 797 1656 
Q 797 1019 1065 703 
Q 1334 388 1700 388 
Q 2069 388 2326 689 
Q 2584 991 2584 1609 
Q 2584 2291 2321 2609 
Q 2059 2928 1675 2928 
Q 1300 2928 1048 2622 
Q 797 2316 797 1656 
z
" transform="scale(0.015625)"/>
      </defs>
      <use xlink:href="#ArialMT-47"/>
      <use xlink:href="#ArialMT-59" transform="translate(55.609375 0)"/>
      <use xlink:href="#ArialMT-14" transform="translate(105.609375 0)"/>
      <use xlink:href="#ArialMT-3" transform="translate(161.21875 0)"/>
      <use xlink:href="#ArialMT-53" transform="translate(189 0)"/>
      <use xlink:href="#ArialMT-48" transform="translate(244.609375 0)"/>
      <use xlink:href="#ArialMT-55" transform="translate(300.21875 0)"/>
      <use xlink:href="#ArialMT-4c" transform="translate(333.515625 0)"/>
      <use xlink:href="#ArialMT-44" transform="translate(355.734375 0)"/>
      <use xlink:href="#ArialMT-53" transform="translate(411.34375 0)"/>
      <use xlink:href="#ArialMT-56" transform="translate(466.953125 0)"/>
      <use xlink:href="#ArialMT-4c" transform="translate(516.953125 0)"/>
      <use xlink:href="#ArialMT-56" transform="translate(539.171875 0)"/>
      <use xlink:href="#ArialMT-3" transform="translate(589.171875 0)"/>
      <use xlink:href="#ArialMT-55" transform="translate(616.953125 0)"/>
      <use xlink:href="#ArialMT-44" transform="translate(650.25 0)"/>
      <use xlink:href="#ArialMT-4c" transform="translate(705.859375 0)"/>
      <use xlink:href="#ArialMT-56" transform="translate(728.078125 0)"/>
      <use xlink:href="#ArialMT-48" transform="translate(778.078125 0)"/>
     </g>
    </g>
    <g id="line2d_21">
     <path d="M 373.331116 148.190471 
L 383.327116 148.190471 
L 393.323116 148.190471 
" style="fill: none; stroke: #d1701f; stroke-width: 1.2; stroke-linecap: round"/>
    </g>
    <g id="text_20">
     <!-- dv2 circularization -->
     <g style="fill: #262626" transform="translate(401.319916 151.689071) scale(0.09996 -0.09996)">
      <defs>
       <path id="ArialMT-5d" d="M 125 0 
L 125 456 
L 2238 2881 
Q 1878 2863 1603 2863 
L 250 2863 
L 250 3319 
L 2963 3319 
L 2963 2947 
L 1166 841 
L 819 456 
Q 1197 484 1528 484 
L 3063 484 
L 3063 0 
L 125 0 
z
" transform="scale(0.015625)"/>
      </defs>
      <use xlink:href="#ArialMT-47"/>
      <use xlink:href="#ArialMT-59" transform="translate(55.609375 0)"/>
      <use xlink:href="#ArialMT-15" transform="translate(105.609375 0)"/>
      <use xlink:href="#ArialMT-3" transform="translate(161.21875 0)"/>
      <use xlink:href="#ArialMT-46" transform="translate(189 0)"/>
      <use xlink:href="#ArialMT-4c" transform="translate(239 0)"/>
      <use xlink:href="#ArialMT-55" transform="translate(261.21875 0)"/>
      <use xlink:href="#ArialMT-46" transform="translate(294.515625 0)"/>
      <use xlink:href="#ArialMT-58" transform="translate(344.515625 0)"/>
      <use xlink:href="#ArialMT-4f" transform="translate(400.125 0)"/>
      <use xlink:href="#ArialMT-44" transform="translate(422.34375 0)"/>
      <use xlink:href="#ArialMT-55" transform="translate(477.953125 0)"/>
      <use xlink:href="#ArialMT-4c" transform="translate(511.25 0)"/>
      <use xlink:href="#ArialMT-5d" transform="translate(533.46875 0)"/>
      <use xlink:href="#ArialMT-44" transform="translate(583.46875 0)"/>
      <use xlink:href="#ArialMT-57" transform="translate(639.078125 0)"/>
      <use xlink:href="#ArialMT-4c" transform="translate(666.859375 0)"/>
      <use xlink:href="#ArialMT-52" transform="translate(689.078125 0)"/>
      <use xlink:href="#ArialMT-51" transform="translate(744.6875 0)"/>
     </g>
    </g>
    <g id="line2d_22">
     <path d="M 373.331116 162.569482 
L 383.327116 162.569482 
L 393.323116 162.569482 
" style="fill: none; stroke: #6a51a3; stroke-width: 1.2; stroke-linecap: round"/>
    </g>
    <g id="text_21">
     <!-- dv3 plane change -->
     <g style="fill: #262626" transform="translate(401.319916 166.068082) scale(0.09996 -0.09996)">
      <defs>
       <path id="ArialMT-4b" d="M 422 0 
L 422 4581 
L 984 4581 
L 984 2938 
Q 1378 3394 1978 3394 
Q 2347 3394 2619 3248 
Q 2891 3103 3008 2847 
Q 3125 2591 3125 2103 
L 3125 0 
L 2563 0 
L 2563 2103 
Q 2563 2525 2380 2717 
Q 2197 2909 1863 2909 
Q 1613 2909 1392 2779 
Q 1172 2650 1078 2428 
Q 984 2206 984 1816 
L 984 0 
L 422 0 
z
" transform="scale(0.015625)"/>
       <path id="ArialMT-4a" d="M 319 -275 
L 866 -356 
Q 900 -609 1056 -725 
Q 1266 -881 1628 -881 
Q 2019 -881 2231 -725 
Q 2444 -569 2519 -288 
Q 2563 -116 2559 434 
Q 2191 0 1641 0 
Q 956 0 581 494 
Q 206 988 206 1678 
Q 206 2153 378 2554 
Q 550 2956 876 3175 
Q 1203 3394 1644 3394 
Q 2231 3394 2613 2919 
L 2613 3319 
L 3131 3319 
L 3131 450 
Q 3131 -325 2973 -648 
Q 2816 -972 2473 -1159 
Q 2131 -1347 1631 -1347 
Q 1038 -1347 672 -1080 
Q 306 -813 319 -275 
z
M 784 1719 
Q 784 1066 1043 766 
Q 1303 466 1694 466 
Q 2081 466 2343 764 
Q 2606 1063 2606 1700 
Q 2606 2309 2336 2618 
Q 2066 2928 1684 2928 
Q 1309 2928 1046 2623 
Q 784 2319 784 1719 
z
" transform="scale(0.015625)"/>
      </defs>
      <use xlink:href="#ArialMT-47"/>
      <use xlink:href="#ArialMT-59" transform="translate(55.609375 0)"/>
      <use xlink:href="#ArialMT-16" transform="translate(105.609375 0)"/>
      <use xlink:href="#ArialMT-3" transform="translate(161.21875 0)"/>
      <use xlink:href="#ArialMT-53" transform="translate(189 0)"/>
      <use xlink:href="#ArialMT-4f" transform="translate(244.609375 0)"/>
      <use xlink:href="#ArialMT-44" transform="translate(266.828125 0)"/>
      <use xlink:href="#ArialMT-51" transform="translate(322.4375 0)"/>
      <use xlink:href="#ArialMT-48" transform="translate(378.046875 0)"/>
      <use xlink:href="#ArialMT-3" transform="translate(433.65625 0)"/>
      <use xlink:href="#ArialMT-46" transform="translate(461.4375 0)"/>
      <use xlink:href="#ArialMT-4b" transform="translate(511.4375 0)"/>
      <use xlink:href="#ArialMT-44" transform="translate(567.046875 0)"/>
      <use xlink:href="#ArialMT-51" transform="translate(622.65625 0)"/>
      <use xlink:href="#ArialMT-4a" transform="translate(678.265625 0)"/>
      <use xlink:href="#ArialMT-48" transform="translate(733.875 0)"/>
     </g>
    </g>
   </g>
  </g>
 </g>
 <defs>
  <clipPath id="pfab35047ba">
   <rect x="47.251719" y="21.936328" width="446.4" height="155.232"/>
  </clipPath>
 </defs>
</svg>
