<?xml version="1.0" encoding="utf-8" standalone="no"?>
<!DOCTYPE svg PUBLIC "-//W3C//DTD SVG 1.1//EN"
  "http://www.w3.org/Graphics/SVG/1.1/DTD/svg11.dtd">
<svg xmlns:xlink="http://www.w3.org/1999/xlink" width="500.851719pt" height="219.453523pt" viewBox="0 0 500.851719 219.453523" xmlns="http://www.w3.org/2000/svg" version="1.1">
 <metadata>
  <rdf:RDF xmlns:dc="http://purl.org/dc/elements/1.1/" xmlns:cc="http://creativecommons.org/ns#" xmlns:rdf="http://www.w3.org/1999/02/22-rdf-syntax-ns#">
   <cc:Work>
    <dc:type rdf:resource="http://purl.org/dc/dcmitype/StillImage"/>
    <dc:date>2026-07-10T15:12:15.370515</dc:date>
    <dc:format>image/svg+xml</dc:format>
    <dc:creator>
     <cc:Agent>
      <dc:title>Matplotlib v3.11.0, https://matplotlib.org/</dc:title>
     </cc:Agent>
    </dc:creator>
   </cc:Work>
  </rdf:RDF>
 </metadata>
 <defs>
  <style type="text/css">*{stroke-linejoin: round; stroke-linecap: butt}</style>
 </defs>
 <g id="figure_1">
  <g id="patch_1">
   <path d="M 0 219.453523 
L 500.851719 219.453523 
L 500.851719 0 
L 0 0 
z
" style="fill: #ffffff"/>
  </g>
  <g id="axes_1">
   <g id="patch_2">
    <path d="M 47.251719 177.168328 
L 493.651719 177.168328 
L 493.651719 21.936328 
L 47.251719 21.936328 
z
" style="fill: #f5f5f5"/>
   </g>
   <g id="matplotlib.axis_1">
    <g id="xtick_1">
     <g id="line2d_1">
      <path d="M 67.537432 177.168328 
L 67.537432 21.936328 
" clip-path="url(#p21fd9e6236)" style="fill: none; stroke: #cccccc; stroke-linecap: round"/>
     </g>
     <g id="text_1">
      <!-- 0 -->
      <g style="fill: #262626" transform="translate(64.478917 194.676629) scale(0.11 -0.11)">
       <defs>
        <path id="ArialMT-13" d="M 266 2259 
Q 266 3072 433 3567 
Q 600 4063 929 4331 
Q 1259 4600 1759 4600 
Q 2128 4600 2406 4451 
Q 2684 4303 2865 4023 
Q 3047 3744 3150 3342 
Q 3253 2941 3253 2259 
Q 3253 1453 3087 958 
Q 2922 463 2592 192 
Q 2263 -78 1759 -78 
Q 1097 -78 719 397 
Q 266 969 266 2259 
z
M 844 2259 
Q 844 1131 1108 757 
Q 1372 384 1759 384 
Q 2147 384 2411 759 
Q 2675 1134 2675 2259 
Q 2675 3391 2411 3762 
Q 2147 4134 1753 4134 
Q 1366 4134 1134 3806 
Q 844 3388 844 2259 
z
" transform="scale(0.015625)"/>
       </defs>
       <use xlink:href="#ArialMT-13"/>
      </g>
     </g>
    </g>
    <g id="xtick_2">
     <g id="line2d_2">
      <path d="M 126.200504 177.168328 
L 126.200504 21.936328 
" clip-path="url(#p21fd9e6236)" style="fill: none; stroke: #cccccc; stroke-linecap: round"/>
     </g>
     <g id="text_2">
      <!-- 25 -->
      <g style="fill: #262626" transform="translate(120.083473 194.676629) scale(0.11 -0.11)">
       <defs>
        <path id="ArialMT-15" d="M 3222 541 
L 3222 0 
L 194 0 
Q 188 203 259 391 
Q 375 700 629 1000 
Q 884 1300 1366 1694 
Q 2113 2306 2375 2664 
Q 2638 3022 2638 3341 
Q 2638 3675 2398 3904 
Q 2159 4134 1775 4134 
Q 1369 4134 1125 3890 
Q 881 3647 878 3216 
L 300 3275 
Q 359 3922 746 4261 
Q 1134 4600 1788 4600 
Q 2447 4600 2831 4234 
Q 3216 3869 3216 3328 
Q 3216 3053 3103 2787 
Q 2991 2522 2730 2228 
Q 2469 1934 1863 1422 
Q 1356 997 1212 845 
Q 1069 694 975 541 
L 3222 541 
z
" transform="scale(0.015625)"/>
        <path id="ArialMT-18" d="M 266 1200 
L 856 1250 
Q 922 819 1161 601 
Q 1400 384 1738 384 
Q 2144 384 2425 690 
Q 2706 997 2706 1503 
Q 2706 1984 2436 2262 
Q 2166 2541 1728 2541 
Q 1456 2541 1237 2417 
Q 1019 2294 894 2097 
L 366 2166 
L 809 4519 
L 3088 4519 
L 3088 3981 
L 1259 3981 
L 1013 2750 
Q 1425 3038 1878 3038 
Q 2478 3038 2890 2622 
Q 3303 2206 3303 1553 
Q 3303 931 2941 478 
Q 2500 -78 1738 -78 
Q 1113 -78 717 272 
Q 322 622 266 1200 
z
" transform="scale(0.015625)"/>
       </defs>
       <use xlink:href="#ArialMT-15"/>
       <use xlink:href="#ArialMT-18" transform="translate(55.609375 0)"/>
      </g>
     </g>
    </g>
    <g id="xtick_3">
     <g id="line2d_3">
      <path d="M 184.863576 177.168328 
L 184.863576 21.936328 
" clip-path="url(#p21fd9e6236)" style="fill: none; stroke: #cccccc; stroke-linecap: round"/>
     </g>
     <g id="text_3">
      <!-- 50 -->
      <g style="fill: #262626" transform="translate(178.746545 194.676629) scale(0.11 -0.11)">
       <use xlink:href="#ArialMT-18"/>
       <use xlink:href="#ArialMT-13" transform="translate(55.609375 0)"/>
      </g>
     </g>
    </g>
    <g id="xtick_4">
     <g id="line2d_4">
      <path d="M 243.526648 177.168328 
L 243.526648 21.936328 
" clip-path="url(#p21fd9e6236)" style="fill: none; stroke: #cccccc; stroke-linecap: round"/>
     </g>
     <g id="text_4">
      <!-- 75 -->
      <g style="fill: #262626" transform="translate(237.409617 194.676629) scale(0.11 -0.11)">
       <defs>
        <path id="ArialMT-1a" d="M 303 3981 
L 303 4522 
L 3269 4522 
L 3269 4084 
Q 2831 3619 2401 2847 
Q 1972 2075 1738 1259 
Q 1569 684 1522 0 
L 944 0 
Q 953 541 1156 1306 
Q 1359 2072 1739 2783 
Q 2119 3494 2547 3981 
L 303 3981 
z
" transform="scale(0.015625)"/>
       </defs>
       <use xlink:href="#ArialMT-1a"/>
       <use xlink:href="#ArialMT-18" transform="translate(55.609375 0)"/>
      </g>
     </g>
    </g>
    <g id="xtick_5">
     <g id="line2d_5">
      <path d="M 302.18972 177.168328 
L 302.18972 21.936328 
" clip-path="url(#p21fd9e6236)" style="fill: none; stroke: #cccccc; stroke-linecap: round"/>
     </g>
     <g id="text_5">
      <!-- 100 -->
      <g style="fill: #262626" transform="translate(293.014173 194.676629) scale(0.11 -0.11)">
       <defs>
        <path id="ArialMT-14" d="M 2384 0 
L 1822 0 
L 1822 3584 
Q 1619 3391 1289 3197 
Q 959 3003 697 2906 
L 697 3450 
Q 1169 3672 1522 3987 
Q 1875 4303 2022 4600 
L 2384 4600 
L 2384 0 
z
" transform="scale(0.015625)"/>
       </defs>
       <use xlink:href="#ArialMT-14"/>
       <use xlink:href="#ArialMT-13" transform="translate(55.609375 0)"/>
       <use xlink:href="#ArialMT-13" transform="translate(111.21875 0)"/>
      </g>
     </g>
    </g>
    <g id="xtick_6">
     <g id="line2d_6">
      <path d="M 360.852792 177.168328 
L 360.852792 21.936328 
" clip-path="url(#p21fd9e6236)" style="fill: none; stroke: #cccccc; stroke-linecap: round"/>
     </g>
     <g id="text_6">
      <!-- 125 -->
      <g style="fill: #262626" transform="translate(351.677245 194.676629) scale(0.11 -0.11)">
       <use xlink:href="#ArialMT-14"/>
       <use xlink:href="#ArialMT-15" transform="translate(55.609375 0)"/>
       <use xlink:href="#ArialMT-18" transform="translate(111.21875 0)"/>
      </g>
     </g>
    </g>
    <g id="xtick_7">
     <g id="line2d_7">
      <path d="M 419.515864 177.168328 
L 419.515864 21.936328 
" clip-path="url(#p21fd9e6236)" style="fill: none; stroke: #cccccc; stroke-linecap: round"/>
     </g>
     <g id="text_7">
      <!-- 150 -->
      <g style="fill: #262626" transform="translate(410.340317 194.676629) scale(0.11 -0.11)">
       <use xlink:href="#ArialMT-14"/>
       <use xlink:href="#ArialMT-18" transform="translate(55.609375 0)"/>
       <use xlink:href="#ArialMT-13" transform="translate(111.21875 0)"/>
      </g>
     </g>
    </g>
    <g id="xtick_8">
     <g id="line2d_8">
      <path d="M 478.178936 177.168328 
L 478.178936 21.936328 
" clip-path="url(#p21fd9e6236)" style="fill: none; stroke: #cccccc; stroke-linecap: round"/>
     </g>
     <g id="text_8">
      <!-- 175 -->
      <g style="fill: #262626" transform="translate(469.003389 194.676629) scale(0.11 -0.11)">
       <use xlink:href="#ArialMT-14"/>
       <use xlink:href="#ArialMT-1a" transform="translate(55.609375 0)"/>
       <use xlink:href="#ArialMT-18" transform="translate(111.21875 0)"/>
      </g>
     </g>
    </g>
    <g id="text_9">
     <!-- correction Δv (m/s) -->
     <g style="fill: #262626" transform="translate(220.107969 209.727898) scale(0.12 -0.12)">
      <defs>
       <path id="ArialMT-46" d="M 2588 1216 
L 3141 1144 
Q 3050 572 2676 248 
Q 2303 -75 1759 -75 
Q 1078 -75 664 370 
Q 250 816 250 1647 
Q 250 2184 428 2587 
Q 606 2991 970 3192 
Q 1334 3394 1763 3394 
Q 2303 3394 2647 3120 
Q 2991 2847 3088 2344 
L 2541 2259 
Q 2463 2594 2264 2762 
Q 2066 2931 1784 2931 
Q 1359 2931 1093 2626 
Q 828 2322 828 1663 
Q 828 994 1084 691 
Q 1341 388 1753 388 
Q 2084 388 2306 591 
Q 2528 794 2588 1216 
z
" transform="scale(0.015625)"/>
       <path id="ArialMT-52" d="M 213 1659 
Q 213 2581 725 3025 
Q 1153 3394 1769 3394 
Q 2453 3394 2887 2945 
Q 3322 2497 3322 1706 
Q 3322 1066 3130 698 
Q 2938 331 2570 128 
Q 2203 -75 1769 -75 
Q 1072 -75 642 372 
Q 213 819 213 1659 
z
M 791 1659 
Q 791 1022 1069 705 
Q 1347 388 1769 388 
Q 2188 388 2466 706 
Q 2744 1025 2744 1678 
Q 2744 2294 2464 2611 
Q 2184 2928 1769 2928 
Q 1347 2928 1069 2612 
Q 791 2297 791 1659 
z
" transform="scale(0.015625)"/>
       <path id="ArialMT-55" d="M 416 0 
L 416 3319 
L 922 3319 
L 922 2816 
Q 1116 3169 1280 3281 
Q 1444 3394 1641 3394 
Q 1925 3394 2219 3213 
L 2025 2691 
Q 1819 2813 1613 2813 
Q 1428 2813 1281 2702 
Q 1134 2591 1072 2394 
Q 978 2094 978 1738 
L 978 0 
L 416 0 
z
" transform="scale(0.015625)"/>
       <path id="ArialMT-48" d="M 2694 1069 
L 3275 997 
Q 3138 488 2766 206 
Q 2394 -75 1816 -75 
Q 1088 -75 661 373 
Q 234 822 234 1631 
Q 234 2469 665 2931 
Q 1097 3394 1784 3394 
Q 2450 3394 2872 2941 
Q 3294 2488 3294 1666 
Q 3294 1616 3291 1516 
L 816 1516 
Q 847 969 1125 678 
Q 1403 388 1819 388 
Q 2128 388 2347 550 
Q 2566 713 2694 1069 
z
M 847 1978 
L 2700 1978 
Q 2663 2397 2488 2606 
Q 2219 2931 1791 2931 
Q 1403 2931 1139 2672 
Q 875 2413 847 1978 
z
" transform="scale(0.015625)"/>
       <path id="ArialMT-57" d="M 1650 503 
L 1731 6 
Q 1494 -44 1306 -44 
Q 1000 -44 831 53 
Q 663 150 594 308 
Q 525 466 525 972 
L 525 2881 
L 113 2881 
L 113 3319 
L 525 3319 
L 525 4141 
L 1084 4478 
L 1084 3319 
L 1650 3319 
L 1650 2881 
L 1084 2881 
L 1084 941 
Q 1084 700 1114 631 
Q 1144 563 1211 522 
Q 1278 481 1403 481 
Q 1497 481 1650 503 
z
" transform="scale(0.015625)"/>
       <path id="ArialMT-4c" d="M 425 3934 
L 425 4581 
L 988 4581 
L 988 3934 
L 425 3934 
z
M 425 0 
L 425 3319 
L 988 3319 
L 988 0 
L 425 0 
z
" transform="scale(0.015625)"/>
       <path id="ArialMT-51" d="M 422 0 
L 422 3319 
L 928 3319 
L 928 2847 
Q 1294 3394 1984 3394 
Q 2284 3394 2536 3286 
Q 2788 3178 2913 3003 
Q 3038 2828 3088 2588 
Q 3119 2431 3119 2041 
L 3119 0 
L 2556 0 
L 2556 2019 
Q 2556 2363 2490 2533 
Q 2425 2703 2258 2804 
Q 2091 2906 1866 2906 
Q 1506 2906 1245 2678 
Q 984 2450 984 1813 
L 984 0 
L 422 0 
z
" transform="scale(0.015625)"/>
       <path id="ArialMT-3" transform="scale(0.015625)"/>
       <path id="ArialMT-1fb" d="M -6 0 
L 1753 4581 
L 2406 4581 
L 4281 0 
L -6 0 
z
M 834 541 
L 3381 541 
L 2391 3150 
Q 2169 3738 2066 4100 
Q 1981 3675 1819 3225 
L 834 541 
z
" transform="scale(0.015625)"/>
       <path id="ArialMT-59" d="M 1344 0 
L 81 3319 
L 675 3319 
L 1388 1331 
Q 1503 1009 1600 663 
Q 1675 925 1809 1294 
L 2547 3319 
L 3125 3319 
L 1869 0 
L 1344 0 
z
" transform="scale(0.015625)"/>
       <path id="ArialMT-b" d="M 1497 -1347 
Q 1031 -759 709 28 
Q 388 816 388 1659 
Q 388 2403 628 3084 
Q 909 3875 1497 4659 
L 1900 4659 
Q 1522 4009 1400 3731 
Q 1209 3300 1100 2831 
Q 966 2247 966 1656 
Q 966 153 1900 -1347 
L 1497 -1347 
z
" transform="scale(0.015625)"/>
       <path id="ArialMT-50" d="M 422 0 
L 422 3319 
L 925 3319 
L 925 2853 
Q 1081 3097 1340 3245 
Q 1600 3394 1931 3394 
Q 2300 3394 2536 3241 
Q 2772 3088 2869 2813 
Q 3263 3394 3894 3394 
Q 4388 3394 4653 3120 
Q 4919 2847 4919 2278 
L 4919 0 
L 4359 0 
L 4359 2091 
Q 4359 2428 4304 2576 
Q 4250 2725 4106 2815 
Q 3963 2906 3769 2906 
Q 3419 2906 3187 2673 
Q 2956 2441 2956 1928 
L 2956 0 
L 2394 0 
L 2394 2156 
Q 2394 2531 2256 2718 
Q 2119 2906 1806 2906 
Q 1569 2906 1367 2781 
Q 1166 2656 1075 2415 
Q 984 2175 984 1722 
L 984 0 
L 422 0 
z
" transform="scale(0.015625)"/>
       <path id="ArialMT-12" d="M 0 -78 
L 1328 4659 
L 1778 4659 
L 453 -78 
L 0 -78 
z
" transform="scale(0.015625)"/>
       <path id="ArialMT-56" d="M 197 991 
L 753 1078 
Q 800 744 1014 566 
Q 1228 388 1613 388 
Q 2000 388 2187 545 
Q 2375 703 2375 916 
Q 2375 1106 2209 1216 
Q 2094 1291 1634 1406 
Q 1016 1563 777 1677 
Q 538 1791 414 1992 
Q 291 2194 291 2438 
Q 291 2659 392 2848 
Q 494 3038 669 3163 
Q 800 3259 1026 3326 
Q 1253 3394 1513 3394 
Q 1903 3394 2198 3281 
Q 2494 3169 2634 2976 
Q 2775 2784 2828 2463 
L 2278 2388 
Q 2241 2644 2061 2787 
Q 1881 2931 1553 2931 
Q 1166 2931 1000 2803 
Q 834 2675 834 2503 
Q 834 2394 903 2306 
Q 972 2216 1119 2156 
Q 1203 2125 1616 2013 
Q 2213 1853 2448 1751 
Q 2684 1650 2818 1456 
Q 2953 1263 2953 975 
Q 2953 694 2789 445 
Q 2625 197 2315 61 
Q 2006 -75 1616 -75 
Q 969 -75 630 194 
Q 291 463 197 991 
z
" transform="scale(0.015625)"/>
       <path id="ArialMT-c" d="M 791 -1347 
L 388 -1347 
Q 1322 153 1322 1656 
Q 1322 2244 1188 2822 
Q 1081 3291 891 3722 
Q 769 4003 388 4659 
L 791 4659 
Q 1378 3875 1659 3084 
Q 1900 2403 1900 1659 
Q 1900 816 1576 28 
Q 1253 -759 791 -1347 
z
" transform="scale(0.015625)"/>
      </defs>
      <use xlink:href="#ArialMT-46"/>
      <use xlink:href="#ArialMT-52" transform="translate(50 0)"/>
      <use xlink:href="#ArialMT-55" transform="translate(105.609375 0)"/>
      <use xlink:href="#ArialMT-55" transform="translate(138.90625 0)"/>
      <use xlink:href="#ArialMT-48" transform="translate(172.203125 0)"/>
      <use xlink:href="#ArialMT-46" transform="translate(227.8125 0)"/>
      <use xlink:href="#ArialMT-57" transform="translate(277.8125 0)"/>
      <use xlink:href="#ArialMT-4c" transform="translate(305.59375 0)"/>
      <use xlink:href="#ArialMT-52" transform="translate(327.8125 0)"/>
      <use xlink:href="#ArialMT-51" transform="translate(383.421875 0)"/>
      <use xlink:href="#ArialMT-3" transform="translate(439.03125 0)"/>
      <use xlink:href="#ArialMT-1fb" transform="translate(466.8125 0)"/>
      <use xlink:href="#ArialMT-59" transform="translate(533.609375 0)"/>
      <use xlink:href="#ArialMT-3" transform="translate(583.609375 0)"/>
      <use xlink:href="#ArialMT-b" transform="translate(611.390625 0)"/>
      <use xlink:href="#ArialMT-50" transform="translate(644.6875 0)"/>
      <use xlink:href="#ArialMT-12" transform="translate(727.984375 0)"/>
      <use xlink:href="#ArialMT-56" transform="translate(755.765625 0)"/>
      <use xlink:href="#ArialMT-c" transform="translate(805.765625 0)"/>
     </g>
    </g>
   </g>
   <g id="matplotlib.axis_2">
    <g id="ytick_1">
     <g id="line2d_9">
      <path d="M 47.251719 177.168328 
L 493.651719 177.168328 
" clip-path="url(#p21fd9e6236)" style="fill: none; stroke: #cccccc; stroke-linecap: round"/>
     </g>
     <g id="text_10">
      <!-- 0.0 -->
      <g style="fill: #262626" transform="translate(22.461719 181.172479) scale(0.11 -0.11)">
       <defs>
        <path id="ArialMT-11" d="M 581 0 
L 581 641 
L 1222 641 
L 1222 0 
L 581 0 
z
" transform="scale(0.015625)"/>
       </defs>
       <use xlink:href="#ArialMT-13"/>
       <use xlink:href="#ArialMT-11" transform="translate(55.609375 0)"/>
       <use xlink:href="#ArialMT-13" transform="translate(83.390625 0)"/>
      </g>
     </g>
    </g>
    <g id="ytick_2">
     <g id="line2d_10">
      <path d="M 47.251719 146.121928 
L 493.651719 146.121928 
" clip-path="url(#p21fd9e6236)" style="fill: none; stroke: #cccccc; stroke-linecap: round"/>
     </g>
     <g id="text_11">
      <!-- 0.2 -->
      <g style="fill: #262626" transform="translate(22.461719 150.126079) scale(0.11 -0.11)">
       <use xlink:href="#ArialMT-13"/>
       <use xlink:href="#ArialMT-11" transform="translate(55.609375 0)"/>
       <use xlink:href="#ArialMT-15" transform="translate(83.390625 0)"/>
      </g>
     </g>
    </g>
    <g id="ytick_3">
     <g id="line2d_11">
      <path d="M 47.251719 115.075528 
L 493.651719 115.075528 
" clip-path="url(#p21fd9e6236)" style="fill: none; stroke: #cccccc; stroke-linecap: round"/>
     </g>
     <g id="text_12">
      <!-- 0.4 -->
      <g style="fill: #262626" transform="translate(22.461719 119.079679) scale(0.11 -0.11)">
       <defs>
        <path id="ArialMT-17" d="M 2069 0 
L 2069 1097 
L 81 1097 
L 81 1613 
L 2172 4581 
L 2631 4581 
L 2631 1613 
L 3250 1613 
L 3250 1097 
L 2631 1097 
L 2631 0 
L 2069 0 
z
M 2069 1613 
L 2069 3678 
L 634 1613 
L 2069 1613 
z
" transform="scale(0.015625)"/>
       </defs>
       <use xlink:href="#ArialMT-13"/>
       <use xlink:href="#ArialMT-11" transform="translate(55.609375 0)"/>
       <use xlink:href="#ArialMT-17" transform="translate(83.390625 0)"/>
      </g>
     </g>
    </g>
    <g id="ytick_4">
     <g id="line2d_12">
      <path d="M 47.251719 84.029128 
L 493.651719 84.029128 
" clip-path="url(#p21fd9e6236)" style="fill: none; stroke: #cccccc; stroke-linecap: round"/>
     </g>
     <g id="text_13">
      <!-- 0.6 -->
      <g style="fill: #262626" transform="translate(22.461719 88.033279) scale(0.11 -0.11)">
       <defs>
        <path id="ArialMT-19" d="M 3184 3459 
L 2625 3416 
Q 2550 3747 2413 3897 
Q 2184 4138 1850 4138 
Q 1581 4138 1378 3988 
Q 1113 3794 959 3422 
Q 806 3050 800 2363 
Q 1003 2672 1297 2822 
Q 1591 2972 1913 2972 
Q 2475 2972 2870 2558 
Q 3266 2144 3266 1488 
Q 3266 1056 3080 686 
Q 2894 316 2569 119 
Q 2244 -78 1831 -78 
Q 1128 -78 684 439 
Q 241 956 241 2144 
Q 241 3472 731 4075 
Q 1159 4600 1884 4600 
Q 2425 4600 2770 4297 
Q 3116 3994 3184 3459 
z
M 888 1484 
Q 888 1194 1011 928 
Q 1134 663 1356 523 
Q 1578 384 1822 384 
Q 2178 384 2434 671 
Q 2691 959 2691 1453 
Q 2691 1928 2437 2201 
Q 2184 2475 1800 2475 
Q 1419 2475 1153 2201 
Q 888 1928 888 1484 
z
" transform="scale(0.015625)"/>
       </defs>
       <use xlink:href="#ArialMT-13"/>
       <use xlink:href="#ArialMT-11" transform="translate(55.609375 0)"/>
       <use xlink:href="#ArialMT-19" transform="translate(83.390625 0)"/>
      </g>
     </g>
    </g>
    <g id="ytick_5">
     <g id="line2d_13">
      <path d="M 47.251719 52.982728 
L 493.651719 52.982728 
" clip-path="url(#p21fd9e6236)" style="fill: none; stroke: #cccccc; stroke-linecap: round"/>
     </g>
     <g id="text_14">
      <!-- 0.8 -->
      <g style="fill: #262626" transform="translate(22.461719 56.986879) scale(0.11 -0.11)">
       <defs>
        <path id="ArialMT-1b" d="M 1131 2484 
Q 781 2613 612 2850 
Q 444 3088 444 3419 
Q 444 3919 803 4259 
Q 1163 4600 1759 4600 
Q 2359 4600 2725 4251 
Q 3091 3903 3091 3403 
Q 3091 3084 2923 2848 
Q 2756 2613 2416 2484 
Q 2838 2347 3058 2040 
Q 3278 1734 3278 1309 
Q 3278 722 2862 322 
Q 2447 -78 1769 -78 
Q 1091 -78 675 323 
Q 259 725 259 1325 
Q 259 1772 486 2073 
Q 713 2375 1131 2484 
z
M 1019 3438 
Q 1019 3113 1228 2906 
Q 1438 2700 1772 2700 
Q 2097 2700 2305 2904 
Q 2513 3109 2513 3406 
Q 2513 3716 2298 3927 
Q 2084 4138 1766 4138 
Q 1444 4138 1231 3931 
Q 1019 3725 1019 3438 
z
M 838 1322 
Q 838 1081 952 856 
Q 1066 631 1291 507 
Q 1516 384 1775 384 
Q 2178 384 2440 643 
Q 2703 903 2703 1303 
Q 2703 1709 2433 1975 
Q 2163 2241 1756 2241 
Q 1359 2241 1098 1978 
Q 838 1716 838 1322 
z
" transform="scale(0.015625)"/>
       </defs>
       <use xlink:href="#ArialMT-13"/>
       <use xlink:href="#ArialMT-11" transform="translate(55.609375 0)"/>
       <use xlink:href="#ArialMT-1b" transform="translate(83.390625 0)"/>
      </g>
     </g>
    </g>
    <g id="ytick_6">
     <g id="line2d_14">
      <path d="M 47.251719 21.936328 
L 493.651719 21.936328 
" clip-path="url(#p21fd9e6236)" style="fill: none; stroke: #cccccc; stroke-linecap: round"/>
     </g>
     <g id="text_15">
      <!-- 1.0 -->
      <g style="fill: #262626" transform="translate(22.461719 25.940479) scale(0.11 -0.11)">
       <use xlink:href="#ArialMT-14"/>
       <use xlink:href="#ArialMT-11" transform="translate(55.609375 0)"/>
       <use xlink:href="#ArialMT-13" transform="translate(83.390625 0)"/>
      </g>
     </g>
    </g>
    <g id="text_16">
     <!-- cumulative fraction -->
     <g style="fill: #262626" transform="translate(15.936328 149.570766) rotate(-90) scale(0.12 -0.12)">
      <defs>
       <path id="ArialMT-58" d="M 2597 0 
L 2597 488 
Q 2209 -75 1544 -75 
Q 1250 -75 995 37 
Q 741 150 617 320 
Q 494 491 444 738 
Q 409 903 409 1263 
L 409 3319 
L 972 3319 
L 972 1478 
Q 972 1038 1006 884 
Q 1059 663 1231 536 
Q 1403 409 1656 409 
Q 1909 409 2131 539 
Q 2353 669 2445 892 
Q 2538 1116 2538 1541 
L 2538 3319 
L 3100 3319 
L 3100 0 
L 2597 0 
z
" transform="scale(0.015625)"/>
       <path id="ArialMT-4f" d="M 409 0 
L 409 4581 
L 972 4581 
L 972 0 
L 409 0 
z
" transform="scale(0.015625)"/>
       <path id="ArialMT-44" d="M 2588 409 
Q 2275 144 1986 34 
Q 1697 -75 1366 -75 
Q 819 -75 525 192 
Q 231 459 231 875 
Q 231 1119 342 1320 
Q 453 1522 633 1644 
Q 813 1766 1038 1828 
Q 1203 1872 1538 1913 
Q 2219 1994 2541 2106 
Q 2544 2222 2544 2253 
Q 2544 2597 2384 2738 
Q 2169 2928 1744 2928 
Q 1347 2928 1158 2789 
Q 969 2650 878 2297 
L 328 2372 
Q 403 2725 575 2942 
Q 747 3159 1072 3276 
Q 1397 3394 1825 3394 
Q 2250 3394 2515 3294 
Q 2781 3194 2906 3042 
Q 3031 2891 3081 2659 
Q 3109 2516 3109 2141 
L 3109 1391 
Q 3109 606 3145 398 
Q 3181 191 3288 0 
L 2700 0 
Q 2613 175 2588 409 
z
M 2541 1666 
Q 2234 1541 1622 1453 
Q 1275 1403 1131 1340 
Q 988 1278 909 1158 
Q 831 1038 831 891 
Q 831 666 1001 516 
Q 1172 366 1500 366 
Q 1825 366 2078 508 
Q 2331 650 2450 897 
Q 2541 1088 2541 1459 
L 2541 1666 
z
" transform="scale(0.015625)"/>
       <path id="ArialMT-49" d="M 556 0 
L 556 2881 
L 59 2881 
L 59 3319 
L 556 3319 
L 556 3672 
Q 556 4006 616 4169 
Q 697 4388 901 4523 
Q 1106 4659 1475 4659 
Q 1713 4659 2000 4603 
L 1916 4113 
Q 1741 4144 1584 4144 
Q 1328 4144 1222 4034 
Q 1116 3925 1116 3625 
L 1116 3319 
L 1763 3319 
L 1763 2881 
L 1116 2881 
L 1116 0 
L 556 0 
z
" transform="scale(0.015625)"/>
      </defs>
      <use xlink:href="#ArialMT-46"/>
      <use xlink:href="#ArialMT-58" transform="translate(50 0)"/>
      <use xlink:href="#ArialMT-50" transform="translate(105.609375 0)"/>
      <use xlink:href="#ArialMT-58" transform="translate(188.90625 0)"/>
      <use xlink:href="#ArialMT-4f" transform="translate(244.515625 0)"/>
      <use xlink:href="#ArialMT-44" transform="translate(266.734375 0)"/>
      <use xlink:href="#ArialMT-57" transform="translate(322.34375 0)"/>
      <use xlink:href="#ArialMT-4c" transform="translate(350.125 0)"/>
      <use xlink:href="#ArialMT-59" transform="translate(372.34375 0)"/>
      <use xlink:href="#ArialMT-48" transform="translate(422.34375 0)"/>
      <use xlink:href="#ArialMT-3" transform="translate(477.953125 0)"/>
      <use xlink:href="#ArialMT-49" transform="translate(505.734375 0)"/>
      <use xlink:href="#ArialMT-55" transform="translate(533.515625 0)"/>
      <use xlink:href="#ArialMT-44" transform="translate(566.8125 0)"/>
      <use xlink:href="#ArialMT-46" transform="translate(622.421875 0)"/>
      <use xlink:href="#ArialMT-57" transform="translate(672.421875 0)"/>
      <use xlink:href="#ArialMT-4c" transform="translate(700.203125 0)"/>
      <use xlink:href="#ArialMT-52" transform="translate(722.421875 0)"/>
      <use xlink:href="#ArialMT-51" transform="translate(778.03125 0)"/>
     </g>
    </g>
   </g>
   <g id="line2d_15">
    <path d="M 329.408372 177.013096 
L 333.66079 176.702632 
L 334.161845 176.5474 
L 334.252447 176.392168 
L 334.551801 176.236936 
L 334.624529 175.926472 
L 334.769676 175.616008 
L 334.784265 175.460776 
L 335.143566 175.150312 
L 336.037158 174.99508 
L 336.749896 174.374152 
L 336.857177 174.063688 
L 337.570423 173.287528 
L 337.636073 172.821832 
L 337.91162 172.6666 
L 337.942893 172.511368 
L 338.271026 172.356136 
L 338.441396 171.735208 
L 339.651784 168.941032 
L 340.25438 168.475336 
L 340.701348 165.991624 
L 340.880888 165.525928 
L 341.159389 164.594536 
L 341.37248 164.439304 
L 341.47686 164.12884 
L 341.853885 162.886984 
L 341.983976 162.266056 
L 342.10077 161.645128 
L 342.302107 160.713736 
L 342.991154 159.161416 
L 343.111676 158.540488 
L 343.187176 158.074792 
L 343.327789 157.764328 
L 343.680609 156.988168 
L 343.834308 156.677704 
L 344.205656 154.81492 
L 344.287388 154.504456 
L 344.418548 153.728296 
L 344.562672 153.417832 
L 344.746463 152.331208 
L 345.123623 151.399816 
L 345.215094 150.623656 
L 345.349382 150.002728 
L 345.420034 149.226568 
L 345.597101 148.916104 
L 345.731232 148.60564 
L 345.862774 147.363784 
L 346.103281 147.208552 
L 346.581496 145.501 
L 346.671248 145.190536 
L 346.674825 145.035304 
L 346.820665 144.72484 
L 346.910247 143.94868 
L 346.982461 143.638216 
L 347.089823 142.706824 
L 347.232787 142.39636 
L 347.400548 141.6202 
L 347.481588 141.154504 
L 347.607284 140.378344 
L 347.724381 139.757416 
L 348.227044 136.342312 
L 348.409848 134.63476 
L 348.571619 134.324296 
L 348.747122 133.703368 
L 348.84683 132.461512 
L 349.136414 131.374888 
L 349.427761 129.667336 
L 349.744639 129.356872 
L 349.91079 128.270248 
L 350.370135 125.786536 
L 350.491135 125.32084 
L 350.652189 124.389448 
L 351.94457 116.938312 
L 352.155199 116.627848 
L 352.61138 114.144136 
L 352.76788 113.523208 
L 352.878948 112.90228 
L 352.998398 111.815656 
L 353.090249 111.505192 
L 353.21142 109.952872 
L 353.817023 107.46916 
L 353.925826 106.537768 
L 354.24165 106.072072 
L 354.547941 104.519752 
L 354.687491 103.58836 
L 354.87743 102.346504 
L 355.48834 99.70756 
L 355.762718 99.241864 
L 356.040173 98.000008 
L 356.182626 97.37908 
L 356.527906 95.82676 
L 356.951252 93.808744 
L 357.233071 93.187816 
L 357.362418 92.256424 
L 357.521443 91.790728 
L 357.68781 91.325032 
L 357.856748 90.859336 
L 357.967453 90.238408 
L 358.128656 89.927944 
L 358.183871 89.462248 
L 358.345624 88.996552 
L 358.440974 88.530856 
L 359.241895 85.426216 
L 359.397505 84.650056 
L 359.629602 83.873896 
L 359.755853 83.252968 
L 360.537918 81.07972 
L 360.748737 80.769256 
L 360.756352 80.614024 
L 361.101741 80.148328 
L 361.324259 79.372168 
L 361.410193 78.906472 
L 361.754169 77.043688 
L 362.429697 74.249512 
L 362.66124 73.628584 
L 362.819077 72.697192 
L 363.019229 72.386728 
L 363.072695 71.921032 
L 363.219818 71.455336 
L 363.224752 71.300104 
L 363.390029 70.98964 
L 363.465347 70.523944 
L 364.179131 69.747784 
L 364.325283 68.66116 
L 364.428722 68.350696 
L 364.498515 67.729768 
L 364.683511 67.574536 
L 364.77284 67.10884 
L 364.949566 66.643144 
L 365.31024 65.866984 
L 365.544257 64.314664 
L 365.847765 64.0042 
L 365.938517 63.538504 
L 365.969469 63.22804 
L 366.271128 62.762344 
L 366.318418 62.296648 
L 366.522358 61.986184 
L 366.97847 60.433864 
L 367.180936 60.1234 
L 367.193987 59.812936 
L 367.455199 59.657704 
L 367.645736 58.881544 
L 367.959659 58.57108 
L 368.195133 58.260616 
L 368.313413 57.79492 
L 368.513672 57.329224 
L 368.639029 56.863528 
L 368.798457 56.2426 
L 369.052184 55.155976 
L 369.481651 54.069352 
L 369.586832 53.758888 
L 369.919027 52.982728 
L 369.993762 52.3618 
L 370.138578 52.051336 
L 370.55069 50.964712 
L 370.734312 50.654248 
L 370.984467 49.722856 
L 371.431349 49.412392 
L 371.462155 49.25716 
L 372.250982 48.481 
L 372.370706 47.860072 
L 372.596453 47.70484 
L 372.770544 47.083912 
L 373.367414 45.997288 
L 373.402311 45.842056 
L 373.565395 45.531592 
L 373.698615 45.221128 
L 374.230874 43.513576 
L 374.591782 43.358344 
L 374.778246 43.04788 
L 375.080797 42.737416 
L 375.285441 41.806024 
L 375.697549 41.185096 
L 376.023108 41.029864 
L 376.416645 39.94324 
L 376.66838 39.788008 
L 376.788083 39.16708 
L 376.833422 39.011848 
L 378.608022 37.769992 
L 378.737153 37.459528 
L 379.604705 36.8386 
L 380.168979 36.683368 
L 380.418838 36.372904 
L 380.613472 36.217672 
L 380.629429 36.06244 
L 380.875727 35.907208 
L 380.900029 35.596744 
L 381.873748 34.51012 
L 381.878056 34.354888 
L 383.822069 33.113032 
L 384.398123 32.9578 
L 384.905387 32.336872 
L 385.56324 32.18164 
L 385.803894 31.871176 
L 386.166973 31.715944 
L 386.348425 31.40548 
L 386.661974 31.250248 
L 386.684394 31.095016 
L 387.275587 30.784552 
L 387.384062 30.62932 
L 387.984119 30.163624 
L 388.159975 30.008392 
L 390.292149 29.387464 
L 391.52371 28.921768 
L 391.690045 28.611304 
L 392.755616 28.456072 
L 392.854925 28.30084 
L 393.257906 28.145608 
L 393.259681 27.990376 
L 393.442016 27.835144 
L 395.681591 27.058984 
L 395.770604 26.903752 
L 395.988919 26.74852 
L 396.856932 26.593288 
L 396.988723 26.438056 
L 398.924171 26.127592 
L 399.589653 25.97236 
L 399.718432 25.817128 
L 400.826377 25.506664 
L 403.25232 25.351432 
L 404.765625 24.730504 
L 404.780217 24.575272 
L 404.939644 24.42004 
L 408.33488 24.109576 
L 408.521372 23.954344 
L 410.138876 23.799112 
L 410.48282 23.64388 
L 415.087046 23.488648 
L 415.269783 23.333416 
L 419.506581 23.178184 
L 424.735068 22.402024 
L 473.36081 21.936328 
L 473.36081 21.936328 
" clip-path="url(#p21fd9e6236)" style="fill: none; stroke: #111111; stroke-width: 2; stroke-linecap: round"/>
   </g>
   <g id="line2d_16">
    <path d="M 321.563228 177.013096 
L 321.604813 176.857864 
L 323.360494 176.5474 
L 323.956404 176.081704 
L 324.639092 175.926472 
L 324.730455 175.77124 
L 325.43294 175.305544 
L 325.509683 174.99508 
L 325.781134 174.839848 
L 325.840165 174.374152 
L 326.615558 173.132296 
L 326.818105 172.977064 
L 326.843066 172.511368 
L 327.071374 172.356136 
L 327.209376 171.89044 
L 327.527017 170.648584 
L 327.720364 169.717192 
L 328.052509 169.406728 
L 328.245115 169.096264 
L 328.382921 168.475336 
L 328.545266 167.388712 
L 328.880917 165.525928 
L 328.978665 164.905 
L 329.493887 163.35268 
L 329.698593 162.731752 
L 329.846263 161.80036 
L 329.950207 161.489896 
L 330.054095 160.24804 
L 331.791768 150.623656 
L 331.865846 149.692264 
L 331.995081 149.3818 
L 332.132924 148.139944 
L 332.261988 147.519016 
L 332.34229 146.898088 
L 332.460018 145.811464 
L 333.125147 142.085896 
L 333.25146 140.999272 
L 333.541269 138.670792 
L 333.666313 137.894632 
L 335.382474 122.99236 
L 335.54082 122.2162 
L 335.743171 120.353416 
L 335.827917 119.88772 
L 335.948058 118.3354 
L 336.115767 117.869704 
L 336.317585 116.317384 
L 336.407923 115.696456 
L 336.563261 113.67844 
L 336.678021 113.367976 
L 337.591406 106.537768 
L 337.663651 105.91684 
L 337.878613 104.209288 
L 338.019552 103.58836 
L 338.386584 100.328488 
L 338.79614 96.913384 
L 338.91506 96.137224 
L 339.005908 95.0506 
L 339.131384 93.49828 
L 339.270316 92.72212 
L 339.452544 91.1698 
L 339.704743 89.772712 
L 339.925545 88.530856 
L 340.025338 87.444232 
L 340.113524 86.823304 
L 340.264596 85.426216 
L 341.17267 80.924488 
L 341.272791 80.148328 
L 341.600247 79.372168 
L 342.021489 77.19892 
L 342.090967 76.577992 
L 342.209408 75.6466 
L 342.485346 73.939048 
L 342.690703 71.7658 
L 342.750213 71.300104 
L 343.224137 68.350696 
L 343.64661 64.935592 
L 343.746168 64.469896 
L 344.328305 61.054792 
L 344.581341 60.278632 
L 345.090007 57.01876 
L 345.193277 56.708296 
L 345.330668 55.46644 
L 345.576627 55.155976 
L 345.603076 55.000744 
L 345.781022 54.69028 
L 345.86439 54.224584 
L 346.066387 52.672264 
L 346.191795 52.3618 
L 346.396674 51.119944 
L 346.53778 50.80948 
L 346.628503 50.343784 
L 346.933535 49.567624 
L 347.068818 48.791464 
L 347.20195 48.481 
L 347.335926 47.394376 
L 347.458169 46.773448 
L 347.546603 46.15252 
L 347.772692 45.842056 
L 347.921864 45.221128 
L 347.981893 44.755432 
L 348.081101 43.979272 
L 348.228308 43.668808 
L 348.310807 43.358344 
L 348.587802 42.737416 
L 348.624027 42.582184 
L 349.033462 42.27172 
L 349.27102 41.340328 
L 349.81632 39.94324 
L 350.258291 37.769992 
L 350.468904 37.459528 
L 350.546113 37.149064 
L 350.65954 36.683368 
L 350.766151 36.217672 
L 351.140958 34.820584 
L 351.549553 34.199656 
L 351.714852 33.113032 
L 351.938161 32.802568 
L 352.064557 32.336872 
L 352.314322 32.026408 
L 352.507601 31.560712 
L 353.288043 31.40548 
L 353.397387 30.62932 
L 353.654743 30.318856 
L 354.195556 29.232232 
L 354.737557 29.077 
L 354.765229 28.921768 
L 355.747108 28.456072 
L 355.81979 28.30084 
L 356.284533 27.990376 
L 356.465236 27.835144 
L 357.018866 27.52468 
L 357.062682 27.369448 
L 358.206088 26.903752 
L 358.732478 26.438056 
L 358.75068 26.282824 
L 359.659533 25.97236 
L 359.697197 25.817128 
L 360.532274 25.506664 
L 361.620358 25.351432 
L 362.240198 25.040968 
L 364.145267 24.730504 
L 367.061978 24.264808 
L 367.157706 24.109576 
L 369.486718 23.954344 
L 369.621673 23.799112 
L 370.099495 23.64388 
L 373.552661 23.333416 
L 373.704839 23.022952 
L 374.429364 22.86772 
L 378.58626 22.712488 
L 379.098146 22.557256 
L 382.643889 22.246792 
L 390.68179 21.936328 
L 390.68179 21.936328 
" clip-path="url(#p21fd9e6236)" style="fill: none; stroke: #4878cf; stroke-width: 1.2; stroke-linecap: round"/>
   </g>
   <g id="line2d_17">
    <path d="M 67.55105 177.013096 
L 68.210366 170.33812 
L 68.457911 168.320104 
L 68.662122 165.991624 
L 68.727042 165.525928 
L 68.864974 163.35268 
L 69.10423 160.558504 
L 69.19146 160.24804 
L 70.236092 149.226568 
L 70.388333 147.674248 
L 70.547625 146.121928 
L 70.616126 145.656232 
L 70.706379 144.414376 
L 70.774346 144.103912 
L 70.902458 142.706824 
L 70.980785 142.241128 
L 71.078199 140.688808 
L 71.17756 140.06788 
L 72.449039 125.941768 
L 72.534119 124.699912 
L 72.649996 123.76852 
L 73.432185 115.541224 
L 73.645951 112.90228 
L 74.087923 109.487176 
L 74.234867 107.779624 
L 74.430933 106.072072 
L 74.504967 105.761608 
L 74.619514 103.898824 
L 74.676222 103.277896 
L 74.738365 102.346504 
L 74.848087 102.03604 
L 74.974942 100.638952 
L 75.284991 98.15524 
L 75.371533 97.689544 
L 75.532938 96.913384 
L 75.632032 96.137224 
L 75.782207 95.205832 
L 76.046779 93.653512 
L 76.179376 93.343048 
L 76.249784 92.877352 
L 76.418912 91.94596 
L 76.483627 91.325032 
L 76.579271 90.39364 
L 76.652521 89.927944 
L 76.983351 86.668072 
L 77.083428 86.047144 
L 77.251907 84.650056 
L 77.312192 84.18436 
L 77.435875 83.873896 
L 78.991082 72.54196 
L 80.09587 68.350696 
L 80.37468 65.866984 
L 80.458437 65.55652 
L 80.58733 64.159432 
L 80.878246 62.607112 
L 81.073811 61.054792 
L 81.175819 60.744328 
L 81.329221 59.192008 
L 81.428565 58.260616 
L 81.731593 57.01876 
L 81.825062 56.2426 
L 81.965048 55.932136 
L 82.065361 54.535048 
L 82.171913 54.224584 
L 82.254789 53.603656 
L 82.488063 52.827496 
L 82.952068 50.964712 
L 83.050354 50.343784 
L 83.330408 49.878088 
L 83.426447 49.101928 
L 83.912859 47.083912 
L 84.104001 46.92868 
L 84.170474 46.462984 
L 84.391975 46.307752 
L 84.475639 45.842056 
L 84.702289 45.531592 
L 85.708831 42.426952 
L 85.831304 41.650792 
L 85.991158 41.340328 
L 86.065277 40.7194 
L 86.454926 39.788008 
L 86.693793 39.16708 
L 86.897714 39.011848 
L 86.967375 38.701384 
L 87.368232 38.235688 
L 87.6425 38.080456 
L 87.727882 37.61476 
L 88.054214 37.459528 
L 88.135573 36.993832 
L 88.38898 36.683368 
L 89.510046 34.665352 
L 90.149525 33.423496 
L 90.26574 32.9578 
L 90.401055 32.647336 
L 90.437926 32.336872 
L 90.936978 32.026408 
L 91.233155 31.250248 
L 91.488045 31.095016 
L 91.495967 30.939784 
L 91.724531 30.784552 
L 91.857236 30.163624 
L 91.97848 30.008392 
L 92.351523 29.697928 
L 92.530716 29.077 
L 92.684812 28.766536 
L 92.685383 28.611304 
L 92.960855 28.456072 
L 93.165898 27.990376 
L 93.6259 27.214216 
L 94.892561 26.903752 
L 94.939129 26.74852 
L 96.724421 25.661896 
L 96.883151 25.351432 
L 98.155868 25.1962 
L 98.448723 25.040968 
L 98.47207 24.730504 
L 99.192276 24.42004 
L 99.260029 24.109576 
L 99.601669 23.954344 
L 99.64348 23.799112 
L 100.075746 23.488648 
L 100.133006 23.333416 
L 100.90478 23.178184 
L 101.10206 23.022952 
L 101.658532 22.712488 
L 101.789935 22.557256 
L 103.016565 22.402024 
L 114.531985 21.936328 
L 114.531985 21.936328 
" clip-path="url(#p21fd9e6236)" style="fill: none; stroke: #d1701f; stroke-width: 1.2; stroke-linecap: round"/>
   </g>
   <g id="line2d_18">
    <path d="M 67.542628 177.013096 
L 67.658896 174.99508 
L 69.345325 145.035304 
L 69.995842 131.685352 
L 70.231632 128.891176 
L 70.330746 127.804552 
L 70.475204 125.631304 
L 70.73766 120.508648 
L 71.223187 111.970888 
L 71.361481 110.263336 
L 71.599702 107.003464 
L 71.894428 102.8122 
L 72.335052 98.9314 
L 72.440279 98.000008 
L 72.596743 95.82676 
L 72.674429 94.895368 
L 73.063412 91.325032 
L 73.155885 90.39364 
L 73.280545 88.686088 
L 73.37557 87.754696 
L 73.483161 87.444232 
L 73.610264 84.805288 
L 73.817859 83.097736 
L 73.95065 81.234952 
L 74.179651 78.75124 
L 74.292629 78.285544 
L 74.382148 77.509384 
L 74.575278 75.6466 
L 75.050351 73.007656 
L 75.156317 72.076264 
L 76.00419 66.643144 
L 76.173163 66.33268 
L 76.922966 63.383272 
L 77.042782 63.072808 
L 77.310352 61.520488 
L 77.431294 61.054792 
L 77.449203 60.744328 
L 77.888594 60.278632 
L 78.017685 59.657704 
L 78.771962 58.57108 
L 78.878731 58.260616 
L 78.908263 58.105384 
L 79.148 57.79492 
L 79.272459 57.484456 
L 79.578864 57.173992 
L 79.955983 56.708296 
L 80.004979 56.553064 
L 80.467079 56.2426 
L 80.527012 56.087368 
L 81.082853 55.621672 
L 81.111897 55.46644 
L 81.530754 55.155976 
L 81.671238 54.69028 
L 82.430795 54.379816 
L 82.466434 54.069352 
L 83.083771 53.13796 
L 83.857392 52.827496 
L 84.037806 52.3618 
L 84.599421 51.740872 
L 85.879555 49.412392 
L 86.92373 48.946696 
L 88.044083 48.325768 
L 88.160937 47.860072 
L 88.507463 47.394376 
L 89.013668 47.239144 
L 89.182569 46.773448 
L 89.731938 45.842056 
L 90.763071 45.065896 
L 90.775196 44.910664 
L 90.984062 44.6002 
L 91.665185 44.444968 
L 91.787274 44.134504 
L 92.286796 43.82404 
L 92.508817 43.04788 
L 92.693284 42.737416 
L 92.730038 42.582184 
L 93.246384 42.27172 
L 93.26317 42.116488 
L 95.126566 40.408936 
L 95.32967 40.098472 
L 95.420803 39.94324 
L 96.068686 39.788008 
L 96.084223 39.632776 
L 96.580047 39.322312 
L 96.747547 38.701384 
L 96.899695 38.546152 
L 97.628903 38.39092 
L 98.166992 37.61476 
L 98.355542 37.149064 
L 99.065858 36.683368 
L 99.080577 36.528136 
L 99.820373 36.217672 
L 100.725649 34.51012 
L 101.423149 34.044424 
L 101.426206 33.889192 
L 101.87292 33.73396 
L 102.451151 32.802568 
L 102.536385 32.492104 
L 103.178407 31.871176 
L 103.2638 31.560712 
L 104.153861 30.939784 
L 104.439796 30.474088 
L 104.634633 30.163624 
L 105.131008 30.008392 
L 105.190268 29.542696 
L 106.058448 28.766536 
L 108.806495 27.990376 
L 109.446129 27.52468 
L 109.793303 27.214216 
L 111.294475 26.74852 
L 111.621457 26.438056 
L 111.802628 25.97236 
L 112.497993 25.817128 
L 112.598861 25.661896 
L 113.966836 25.506664 
L 114.147968 25.351432 
L 114.153339 25.1962 
L 114.469559 24.885736 
L 114.608824 24.575272 
L 118.138852 24.109576 
L 118.268473 23.954344 
L 118.547476 23.799112 
L 120.614109 23.64388 
L 121.043895 23.333416 
L 121.075516 23.178184 
L 121.950897 22.712488 
L 123.805468 22.557256 
L 136.800024 21.936328 
L 136.800024 21.936328 
" clip-path="url(#p21fd9e6236)" style="fill: none; stroke: #6a51a3; stroke-width: 1.2; stroke-linecap: round"/>
   </g>
   <g id="patch_3">
    <path d="M 47.251719 177.168328 
L 47.251719 21.936328 
" style="fill: none; stroke: #cccccc; stroke-width: 1.25; stroke-linejoin: miter; stroke-linecap: square"/>
   </g>
   <g id="patch_4">
    <path d="M 47.251719 177.168328 
L 493.651719 177.168328 
" style="fill: none; stroke: #cccccc; stroke-width: 1.25; stroke-linejoin: miter; stroke-linecap: square"/>
   </g>
   <g id="text_17">
    <!-- Correction Δv - - empirical CDF (total + burns) -->
    <g style="fill: #262626" transform="translate(149.922031 15.936328) scale(0.12 -0.12)">
     <defs>
      <path id="ArialMT-26" d="M 3763 1606 
L 4369 1453 
Q 4178 706 3683 314 
Q 3188 -78 2472 -78 
Q 1731 -78 1267 223 
Q 803 525 561 1097 
Q 319 1669 319 2325 
Q 319 3041 592 3573 
Q 866 4106 1370 4382 
Q 1875 4659 2481 4659 
Q 3169 4659 3637 4309 
Q 4106 3959 4291 3325 
L 3694 3184 
Q 3534 3684 3231 3912 
Q 2928 4141 2469 4141 
Q 1941 4141 1586 3887 
Q 1231 3634 1087 3207 
Q 944 2781 944 2328 
Q 944 1744 1114 1308 
Q 1284 872 1643 656 
Q 2003 441 2422 441 
Q 2931 441 3284 734 
Q 3638 1028 3763 1606 
z
" transform="scale(0.015625)"/>
      <path id="ArialMT-10" d="M 203 1375 
L 203 1941 
L 1931 1941 
L 1931 1375 
L 203 1375 
z
" transform="scale(0.015625)"/>
      <path id="ArialMT-53" d="M 422 -1272 
L 422 3319 
L 934 3319 
L 934 2888 
Q 1116 3141 1344 3267 
Q 1572 3394 1897 3394 
Q 2322 3394 2647 3175 
Q 2972 2956 3137 2557 
Q 3303 2159 3303 1684 
Q 3303 1175 3120 767 
Q 2938 359 2589 142 
Q 2241 -75 1856 -75 
Q 1575 -75 1351 44 
Q 1128 163 984 344 
L 984 -1272 
L 422 -1272 
z
M 931 1641 
Q 931 1000 1190 694 
Q 1450 388 1819 388 
Q 2194 388 2461 705 
Q 2728 1022 2728 1688 
Q 2728 2322 2467 2637 
Q 2206 2953 1844 2953 
Q 1484 2953 1207 2617 
Q 931 2281 931 1641 
z
" transform="scale(0.015625)"/>
      <path id="ArialMT-27" d="M 494 0 
L 494 4581 
L 2072 4581 
Q 2606 4581 2888 4516 
Q 3281 4425 3559 4188 
Q 3922 3881 4101 3404 
Q 4281 2928 4281 2316 
Q 4281 1794 4159 1391 
Q 4038 988 3847 723 
Q 3656 459 3429 307 
Q 3203 156 2883 78 
Q 2563 0 2147 0 
L 494 0 
z
M 1100 541 
L 2078 541 
Q 2531 541 2789 625 
Q 3047 709 3200 863 
Q 3416 1078 3536 1442 
Q 3656 1806 3656 2325 
Q 3656 3044 3420 3430 
Q 3184 3816 2847 3947 
Q 2603 4041 2063 4041 
L 1100 4041 
L 1100 541 
z
" transform="scale(0.015625)"/>
      <path id="ArialMT-29" d="M 525 0 
L 525 4581 
L 3616 4581 
L 3616 4041 
L 1131 4041 
L 1131 2622 
L 3281 2622 
L 3281 2081 
L 1131 2081 
L 1131 0 
L 525 0 
z
" transform="scale(0.015625)"/>
      <path id="ArialMT-e" d="M 1603 741 
L 1603 1997 
L 356 1997 
L 356 2522 
L 1603 2522 
L 1603 3769 
L 2134 3769 
L 2134 2522 
L 3381 2522 
L 3381 1997 
L 2134 1997 
L 2134 741 
L 1603 741 
z
" transform="scale(0.015625)"/>
      <path id="ArialMT-45" d="M 941 0 
L 419 0 
L 419 4581 
L 981 4581 
L 981 2947 
Q 1338 3394 1891 3394 
Q 2197 3394 2470 3270 
Q 2744 3147 2920 2923 
Q 3097 2700 3197 2384 
Q 3297 2069 3297 1709 
Q 3297 856 2875 390 
Q 2453 -75 1863 -75 
Q 1275 -75 941 416 
L 941 0 
z
M 934 1684 
Q 934 1088 1097 822 
Q 1363 388 1816 388 
Q 2184 388 2453 708 
Q 2722 1028 2722 1663 
Q 2722 2313 2464 2622 
Q 2206 2931 1841 2931 
Q 1472 2931 1203 2611 
Q 934 2291 934 1684 
z
" transform="scale(0.015625)"/>
     </defs>
     <use xlink:href="#ArialMT-26"/>
     <use xlink:href="#ArialMT-52" transform="translate(72.21875 0)"/>
     <use xlink:href="#ArialMT-55" transform="translate(127.828125 0)"/>
     <use xlink:href="#ArialMT-55" transform="translate(161.125 0)"/>
     <use xlink:href="#ArialMT-48" transform="translate(194.421875 0)"/>
     <use xlink:href="#ArialMT-46" transform="translate(250.03125 0)"/>
     <use xlink:href="#ArialMT-57" transform="translate(300.03125 0)"/>
     <use xlink:href="#ArialMT-4c" transform="translate(327.8125 0)"/>
     <use xlink:href="#ArialMT-52" transform="translate(350.03125 0)"/>
     <use xlink:href="#ArialMT-51" transform="translate(405.640625 0)"/>
     <use xlink:href="#ArialMT-3" transform="translate(461.25 0)"/>
     <use xlink:href="#ArialMT-1fb" transform="translate(489.03125 0)"/>
     <use xlink:href="#ArialMT-59" transform="translate(555.828125 0)"/>
     <use xlink:href="#ArialMT-3" transform="translate(605.828125 0)"/>
     <use xlink:href="#ArialMT-10" transform="translate(633.609375 0)"/>
     <use xlink:href="#ArialMT-10" transform="translate(666.90625 0)"/>
     <use xlink:href="#ArialMT-3" transform="translate(700.203125 0)"/>
     <use xlink:href="#ArialMT-48" transform="translate(727.984375 0)"/>
     <use xlink:href="#ArialMT-50" transform="translate(783.59375 0)"/>
     <use xlink:href="#ArialMT-53" transform="translate(866.890625 0)"/>
     <use xlink:href="#ArialMT-4c" transform="translate(922.5 0)"/>
     <use xlink:href="#ArialMT-55" transform="translate(944.71875 0)"/>
     <use xlink:href="#ArialMT-4c" transform="translate(978.015625 0)"/>
     <use xlink:href="#ArialMT-46" transform="translate(1000.234375 0)"/>
     <use xlink:href="#ArialMT-44" transform="translate(1050.234375 0)"/>
     <use xlink:href="#ArialMT-4f" transform="translate(1105.84375 0)"/>
     <use xlink:href="#ArialMT-3" transform="translate(1128.0625 0)"/>
     <use xlink:href="#ArialMT-26" transform="translate(1155.84375 0)"/>
     <use xlink:href="#ArialMT-27" transform="translate(1228.0625 0)"/>
     <use xlink:href="#ArialMT-29" transform="translate(1300.28125 0)"/>
     <use xlink:href="#ArialMT-3" transform="translate(1361.359375 0)"/>
     <use xlink:href="#ArialMT-b" transform="translate(1389.140625 0)"/>
     <use xlink:href="#ArialMT-57" transform="translate(1422.4375 0)"/>
     <use xlink:href="#ArialMT-52" transform="translate(1450.21875 0)"/>
     <use xlink:href="#ArialMT-57" transform="translate(1505.828125 0)"/>
     <use xlink:href="#ArialMT-44" transform="translate(1533.609375 0)"/>
     <use xlink:href="#ArialMT-4f" transform="translate(1589.21875 0)"/>
     <use xlink:href="#ArialMT-3" transform="translate(1611.4375 0)"/>
     <use xlink:href="#ArialMT-e" transform="translate(1639.21875 0)"/>
     <use xlink:href="#ArialMT-3" transform="translate(1697.625 0)"/>
     <use xlink:href="#ArialMT-45" transform="translate(1725.40625 0)"/>
     <use xlink:href="#ArialMT-58" transform="translate(1781.015625 0)"/>
     <use xlink:href="#ArialMT-55" transform="translate(1836.625 0)"/>
     <use xlink:href="#ArialMT-51" transform="translate(1869.921875 0)"/>
     <use xlink:href="#ArialMT-56" transform="translate(1925.53125 0)"/>
     <use xlink:href="#ArialMT-c" transform="translate(1975.53125 0)"/>
    </g>
   </g>
   <g id="legend_1">
    <g id="patch_5">
     <path d="M 371.331916 172.170328 
L 486.654519 172.170328 
Q 488.653719 172.170328 488.653719 170.171128 
L 488.653719 113.654486 
Q 488.653719 111.655286 486.654519 111.655286 
L 371.331916 111.655286 
Q 369.332716 111.655286 369.332716 113.654486 
L 369.332716 170.171128 
Q 369.332716 172.170328 371.331916 172.170328 
z
" style="fill: #f5f5f5; opacity: 0.8; stroke: #cccccc; stroke-linejoin: miter"/>
    </g>
    <g id="line2d_19">
     <path d="M 373.331116 119.432447 
L 383.327116 119.432447 
L 393.323116 119.432447 
" style="fill: none; stroke: #111111; stroke-width: 2; stroke-linecap: round"/>
    </g>
    <g id="text_18">
     <!-- total Δv -->
     <g style="fill: #262626" transform="translate(401.319916 122.931047) scale(0.09996 -0.09996)">
      <use xlink:href="#ArialMT-57"/>
      <use xlink:href="#ArialMT-52" transform="translate(27.78125 0)"/>
      <use xlink:href="#ArialMT-57" transform="translate(83.390625 0)"/>
      <use xlink:href="#ArialMT-44" transform="translate(111.171875 0)"/>
      <use xlink:href="#ArialMT-4f" transform="translate(166.78125 0)"/>
      <use xlink:href="#ArialMT-3" transform="translate(189 0)"/>
      <use xlink:href="#ArialMT-1fb" transform="translate(216.78125 0)"/>
      <use xlink:href="#ArialMT-59" transform="translate(283.578125 0)"/>
     </g>
    </g>
    <g id="line2d_20">
     <path d="M 373.331116 133.811459 
L 383.327116 133.811459 
L 393.323116 133.811459 
" style="fill: none; stroke: #4878cf; stroke-width: 1.2; stroke-linecap: round"/>
    </g>
    <g id="text_19">
     <!-- dv1 periapsis raise -->
     <g style="fill: #262626" transform="translate(401.319916 137.310059) scale(0.09996 -0.09996)">
      <defs>
       <path id="ArialMT-47" d="M 2575 0 
L 2575 419 
Q 2259 -75 1647 -75 
Q 1250 -75 917 144 
Q 584 363 401 755 
Q 219 1147 219 1656 
Q 219 2153 384 2558 
Q 550 2963 881 3178 
Q 1213 3394 1622 3394 
Q 1922 3394 2156 3267 
Q 2391 3141 2538 2938 
L 2538 4581 
L 3097 4581 
L 3097 0 
L 2575 0 
z
M 797 1656 
Q 797 1019 1065 703 
Q 1334 388 1700 388 
Q 2069 388 2326 689 
Q 2584 991 2584 1609 
Q 2584 2291 2321 2609 
Q 2059 2928 1675 2928 
Q 1300 2928 1048 2622 
Q 797 2316 797 1656 
z
" transform="scale(0.015625)"/>
      </defs>
      <use xlink:href="#ArialMT-47"/>
      <use xlink:href="#ArialMT-59" transform="translate(55.609375 0)"/>
      <use xlink:href="#ArialMT-14" transform="translate(105.609375 0)"/>
      <use xlink:href="#ArialMT-3" transform="translate(161.21875 0)"/>
      <use xlink:href="#ArialMT-53" transform="translate(189 0)"/>
      <use xlink:href="#ArialMT-48" transform="translate(244.609375 0)"/>
      <use xlink:href="#ArialMT-55" transform="translate(300.21875 0)"/>
      <use xlink:href="#ArialMT-4c" transform="translate(333.515625 0)"/>
      <use xlink:href="#ArialMT-44" transform="translate(355.734375 0)"/>
      <use xlink:href="#ArialMT-53" transform="translate(411.34375 0)"/>
      <use xlink:href="#ArialMT-56" transform="translate(466.953125 0)"/>
      <use xlink:href="#ArialMT-4c" transform="translate(516.953125 0)"/>
      <use xlink:href="#ArialMT-56" transform="translate(539.171875 0)"/>
      <use xlink:href="#ArialMT-3" transform="translate(589.171875 0)"/>
      <use xlink:href="#ArialMT-55" transform="translate(616.953125 0)"/>
      <use xlink:href="#ArialMT-44" transform="translate(650.25 0)"/>
      <use xlink:href="#ArialMT-4c" transform="translate(705.859375 0)"/>
      <use xlink:href="#ArialMT-56" transform="translate(728.078125 0)"/>
      <use xlink:href="#ArialMT-48" transform="translate(778.078125 0)"/>
     </g>
    </g>
    <g id="line2d_21">
     <path d="M 373.331116 148.190471 
L 383.327116 148.190471 
L 393.323116 148.190471 
" style="fill: none; stroke: #d1701f; stroke-width: 1.2; stroke-linecap: round"/>
    </g>
    <g id="text_20">
     <!-- dv2 circularization -->
     <g style="fill: #262626" transform="translate(401.319916 151.689071) scale(0.09996 -0.09996)">
      <defs>
       <path id="ArialMT-5d" d="M 125 0 
L 125 456 
L 2238 2881 
Q 1878 2863 1603 2863 
L 250 2863 
L 250 3319 
L 2963 3319 
L 2963 2947 
L 1166 841 
L 819 456 
Q 1197 484 1528 484 
L 3063 484 
L 3063 0 
L 125 0 
z
" transform="scale(0.015625)"/>
      </defs>
      <use xlink:href="#ArialMT-47"/>
      <use xlink:href="#ArialMT-59" transform="translate(55.609375 0)"/>
      <use xlink:href="#ArialMT-15" transform="translate(105.609375 0)"/>
      <use xlink:href="#ArialMT-3" transform="translate(161.21875 0)"/>
      <use xlink:href="#ArialMT-46" transform="translate(189 0)"/>
      <use xlink:href="#ArialMT-4c" transform="translate(239 0)"/>
      <use xlink:href="#ArialMT-55" transform="translate(261.21875 0)"/>
      <use xlink:href="#ArialMT-46" transform="translate(294.515625 0)"/>
      <use xlink:href="#ArialMT-58" transform="translate(344.515625 0)"/>
      <use xlink:href="#ArialMT-4f" transform="translate(400.125 0)"/>
      <use xlink:href="#ArialMT-44" transform="translate(422.34375 0)"/>
      <use xlink:href="#ArialMT-55" transform="translate(477.953125 0)"/>
      <use xlink:href="#ArialMT-4c" transform="translate(511.25 0)"/>
      <use xlink:href="#ArialMT-5d" transform="translate(533.46875 0)"/>
      <use xlink:href="#ArialMT-44" transform="translate(583.46875 0)"/>
      <use xlink:href="#ArialMT-57" transform="translate(639.078125 0)"/>
      <use xlink:href="#ArialMT-4c" transform="translate(666.859375 0)"/>
      <use xlink:href="#ArialMT-52" transform="translate(689.078125 0)"/>
      <use xlink:href="#ArialMT-51" transform="translate(744.6875 0)"/>
     </g>
    </g>
    <g id="line2d_22">
     <path d="M 373.331116 162.569482 
L 383.327116 162.569482 
L 393.323116 162.569482 
" style="fill: none; stroke: #6a51a3; stroke-width: 1.2; stroke-linecap: round"/>
    </g>
    <g id="text_21">
     <!-- dv3 plane change -->
     <g style="fill: #262626" transform="translate(401.319916 166.068082) scale(0.09996 -0.09996)">
      <defs>
       <path id="ArialMT-16" d="M 269 1209 
L 831 1284 
Q 928 806 1161 595 
Q 1394 384 1728 384 
Q 2125 384 2398 659 
Q 2672 934 2672 1341 
Q 2672 1728 2419 1979 
Q 2166 2231 1775 2231 
Q 1616 2231 1378 2169 
L 1441 2663 
Q 1497 2656 1531 2656 
Q 1891 2656 2178 2843 
Q 2466 3031 2466 3422 
Q 2466 3731 2256 3934 
Q 2047 4138 1716 4138 
Q 1388 4138 1169 3931 
Q 950 3725 888 3313 
L 325 3413 
Q 428 3978 793 4289 
Q 1159 4600 1703 4600 
Q 2078 4600 2393 4439 
Q 2709 4278 2876 4000 
Q 3044 3722 3044 3409 
Q 3044 3113 2884 2869 
Q 2725 2625 2413 2481 
Q 2819 2388 3044 2092 
Q 3269 1797 3269 1353 
Q 3269 753 2831 336 
Q 2394 -81 1725 -81 
Q 1122 -81 723 278 
Q 325 638 269 1209 
z
" transform="scale(0.015625)"/>
       <path id="ArialMT-4b" d="M 422 0 
L 422 4581 
L 984 4581 
L 984 2938 
Q 1378 3394 1978 3394 
Q 2347 3394 2619 3248 
Q 2891 3103 3008 2847 
Q 3125 2591 3125 2103 
L 3125 0 
L 2563 0 
L 2563 2103 
Q 2563 2525 2380 2717 
Q 2197 2909 1863 2909 
Q 1613 2909 1392 2779 
Q 1172 2650 1078 2428 
Q 984 2206 984 1816 
L 984 0 
L 422 0 
z
" transform="scale(0.015625)"/>
       <path id="ArialMT-4a" d="M 319 -275 
L 866 -356 
Q 900 -609 1056 -725 
Q 1266 -881 1628 -881 
Q 2019 -881 2231 -725 
Q 2444 -569 2519 -288 
Q 2563 -116 2559 434 
Q 2191 0 1641 0 
Q 956 0 581 494 
Q 206 988 206 1678 
Q 206 2153 378 2554 
Q 550 2956 876 3175 
Q 1203 3394 1644 3394 
Q 2231 3394 2613 2919 
L 2613 3319 
L 3131 3319 
L 3131 450 
Q 3131 -325 2973 -648 
Q 2816 -972 2473 -1159 
Q 2131 -1347 1631 -1347 
Q 1038 -1347 672 -1080 
Q 306 -813 319 -275 
z
M 784 1719 
Q 784 1066 1043 766 
Q 1303 466 1694 466 
Q 2081 466 2343 764 
Q 2606 1063 2606 1700 
Q 2606 2309 2336 2618 
Q 2066 2928 1684 2928 
Q 1309 2928 1046 2623 
Q 784 2319 784 1719 
z
" transform="scale(0.015625)"/>
      </defs>
      <use xlink:href="#ArialMT-47"/>
      <use xlink:href="#ArialMT-59" transform="translate(55.609375 0)"/>
      <use xlink:href="#ArialMT-16" transform="translate(105.609375 0)"/>
      <use xlink:href="#ArialMT-3" transform="translate(161.21875 0)"/>
      <use xlink:href="#ArialMT-53" transform="translate(189 0)"/>
      <use xlink:href="#ArialMT-4f" transform="translate(244.609375 0)"/>
      <use xlink:href="#ArialMT-44" transform="translate(266.828125 0)"/>
      <use xlink:href="#ArialMT-51" transform="translate(322.4375 0)"/>
      <use xlink:href="#ArialMT-48" transform="translate(378.046875 0)"/>
      <use xlink:href="#ArialMT-3" transform="translate(433.65625 0)"/>
      <use xlink:href="#ArialMT-46" transform="translate(461.4375 0)"/>
      <use xlink:href="#ArialMT-4b" transform="translate(511.4375 0)"/>
      <use xlink:href="#ArialMT-44" transform="translate(567.046875 0)"/>
      <use xlink:href="#ArialMT-51" transform="translate(622.65625 0)"/>
      <use xlink:href="#ArialMT-4a" transform="translate(678.265625 0)"/>
      <use xlink:href="#ArialMT-48" transform="translate(733.875 0)"/>
     </g>
    </g>
   </g>
  </g>
 </g>
 <defs>
  <clipPath id="p21fd9e6236">
   <rect x="47.251719" y="21.936328" width="446.4" height="155.232"/>
  </clipPath>
 </defs>
</svg>
