<?xml version="1.0" encoding="utf-8" standalone="no"?>
<!DOCTYPE svg PUBLIC "-//W3C//DTD SVG 1.1//EN"
  "http://www.w3.org/Graphics/SVG/1.1/DTD/svg11.dtd">
<svg xmlns:xlink="http://www.w3.org/1999/xlink" width="612.164375pt" height="241.364719pt" viewBox="0 0 612.164375 241.364719" xmlns="http://www.w3.org/2000/svg" version="1.1">
 <metadata>
  <rdf:RDF xmlns:dc="http://purl.org/dc/elements/1.1/" xmlns:cc="http://creativecommons.org/ns#" xmlns:rdf="http://www.w3.org/1999/02/22-rdf-syntax-ns#">
   <cc:Work>
    <dc:type rdf:resource="http://purl.org/dc/dcmitype/StillImage"/>
    <dc:date>2026-07-03T21:41:06.139583</dc:date>
    <dc:format>image/svg+xml</dc:format>
    <dc:creator>
     <cc:Agent>
      <dc:title>Matplotlib v3.10.9, https://matplotlib.org/</dc:title>
     </cc:Agent>
    </dc:creator>
   </cc:Work>
  </rdf:RDF>
 </metadata>
 <defs>
  <style type="text/css">*{stroke-linejoin: round; stroke-linecap: butt}</style>
 </defs>
 <g id="figure_1">
  <g id="patch_1">
   <path d="M 0 241.364719 
L 612.164375 241.364719 
L 612.164375 -0 
L 0 -0 
z
" style="fill: #ffffff"/>
  </g>
  <g id="axes_1">
   <g id="patch_2">
    <path d="M 46.964375 199.343625 
L 604.964375 199.343625 
L 604.964375 21.935625 
L 46.964375 21.935625 
z
" style="fill: #f5f5f5"/>
   </g>
   <g id="matplotlib.axis_1">
    <g id="xtick_1">
     <g id="line2d_1">
      <path d="M 72.321517 199.343625 
L 72.321517 21.935625 
" clip-path="url(#p51bc68549b)" style="fill: none; stroke: #cccccc; stroke-linecap: round"/>
     </g>
     <g id="text_1">
      <!-- 0 -->
      <g style="fill: #262626" transform="translate(69.263001 216.717219) scale(0.11 -0.11)">
       <defs>
        <path id="ArialMT-30" d="M 266 2259 
Q 266 3072 433 3567 
Q 600 4063 929 4331 
Q 1259 4600 1759 4600 
Q 2128 4600 2406 4451 
Q 2684 4303 2865 4023 
Q 3047 3744 3150 3342 
Q 3253 2941 3253 2259 
Q 3253 1453 3087 958 
Q 2922 463 2592 192 
Q 2263 -78 1759 -78 
Q 1097 -78 719 397 
Q 266 969 266 2259 
z
M 844 2259 
Q 844 1131 1108 757 
Q 1372 384 1759 384 
Q 2147 384 2411 759 
Q 2675 1134 2675 2259 
Q 2675 3391 2411 3762 
Q 2147 4134 1753 4134 
Q 1366 4134 1134 3806 
Q 844 3388 844 2259 
z
" transform="scale(0.015625)"/>
       </defs>
       <use xlink:href="#ArialMT-30"/>
      </g>
     </g>
    </g>
    <g id="xtick_2">
     <g id="line2d_2">
      <path d="M 145.650357 199.343625 
L 145.650357 21.935625 
" clip-path="url(#p51bc68549b)" style="fill: none; stroke: #cccccc; stroke-linecap: round"/>
     </g>
     <g id="text_2">
      <!-- 25 -->
      <g style="fill: #262626" transform="translate(139.533326 216.717219) scale(0.11 -0.11)">
       <defs>
        <path id="ArialMT-32" d="M 3222 541 
L 3222 0 
L 194 0 
Q 188 203 259 391 
Q 375 700 629 1000 
Q 884 1300 1366 1694 
Q 2113 2306 2375 2664 
Q 2638 3022 2638 3341 
Q 2638 3675 2398 3904 
Q 2159 4134 1775 4134 
Q 1369 4134 1125 3890 
Q 881 3647 878 3216 
L 300 3275 
Q 359 3922 746 4261 
Q 1134 4600 1788 4600 
Q 2447 4600 2831 4234 
Q 3216 3869 3216 3328 
Q 3216 3053 3103 2787 
Q 2991 2522 2730 2228 
Q 2469 1934 1863 1422 
Q 1356 997 1212 845 
Q 1069 694 975 541 
L 3222 541 
z
" transform="scale(0.015625)"/>
        <path id="ArialMT-35" d="M 266 1200 
L 856 1250 
Q 922 819 1161 601 
Q 1400 384 1738 384 
Q 2144 384 2425 690 
Q 2706 997 2706 1503 
Q 2706 1984 2436 2262 
Q 2166 2541 1728 2541 
Q 1456 2541 1237 2417 
Q 1019 2294 894 2097 
L 366 2166 
L 809 4519 
L 3088 4519 
L 3088 3981 
L 1259 3981 
L 1013 2750 
Q 1425 3038 1878 3038 
Q 2478 3038 2890 2622 
Q 3303 2206 3303 1553 
Q 3303 931 2941 478 
Q 2500 -78 1738 -78 
Q 1113 -78 717 272 
Q 322 622 266 1200 
z
" transform="scale(0.015625)"/>
       </defs>
       <use xlink:href="#ArialMT-32"/>
       <use xlink:href="#ArialMT-35" transform="translate(55.615234 0)"/>
      </g>
     </g>
    </g>
    <g id="xtick_3">
     <g id="line2d_3">
      <path d="M 218.979197 199.343625 
L 218.979197 21.935625 
" clip-path="url(#p51bc68549b)" style="fill: none; stroke: #cccccc; stroke-linecap: round"/>
     </g>
     <g id="text_3">
      <!-- 50 -->
      <g style="fill: #262626" transform="translate(212.862166 216.717219) scale(0.11 -0.11)">
       <use xlink:href="#ArialMT-35"/>
       <use xlink:href="#ArialMT-30" transform="translate(55.615234 0)"/>
      </g>
     </g>
    </g>
    <g id="xtick_4">
     <g id="line2d_4">
      <path d="M 292.308037 199.343625 
L 292.308037 21.935625 
" clip-path="url(#p51bc68549b)" style="fill: none; stroke: #cccccc; stroke-linecap: round"/>
     </g>
     <g id="text_4">
      <!-- 75 -->
      <g style="fill: #262626" transform="translate(286.191005 216.717219) scale(0.11 -0.11)">
       <defs>
        <path id="ArialMT-37" d="M 303 3981 
L 303 4522 
L 3269 4522 
L 3269 4084 
Q 2831 3619 2401 2847 
Q 1972 2075 1738 1259 
Q 1569 684 1522 0 
L 944 0 
Q 953 541 1156 1306 
Q 1359 2072 1739 2783 
Q 2119 3494 2547 3981 
L 303 3981 
z
" transform="scale(0.015625)"/>
       </defs>
       <use xlink:href="#ArialMT-37"/>
       <use xlink:href="#ArialMT-35" transform="translate(55.615234 0)"/>
      </g>
     </g>
    </g>
    <g id="xtick_5">
     <g id="line2d_5">
      <path d="M 365.636877 199.343625 
L 365.636877 21.935625 
" clip-path="url(#p51bc68549b)" style="fill: none; stroke: #cccccc; stroke-linecap: round"/>
     </g>
     <g id="text_5">
      <!-- 100 -->
      <g style="fill: #262626" transform="translate(356.46133 216.717219) scale(0.11 -0.11)">
       <defs>
        <path id="ArialMT-31" d="M 2384 0 
L 1822 0 
L 1822 3584 
Q 1619 3391 1289 3197 
Q 959 3003 697 2906 
L 697 3450 
Q 1169 3672 1522 3987 
Q 1875 4303 2022 4600 
L 2384 4600 
L 2384 0 
z
" transform="scale(0.015625)"/>
       </defs>
       <use xlink:href="#ArialMT-31"/>
       <use xlink:href="#ArialMT-30" transform="translate(55.615234 0)"/>
       <use xlink:href="#ArialMT-30" transform="translate(111.230469 0)"/>
      </g>
     </g>
    </g>
    <g id="xtick_6">
     <g id="line2d_6">
      <path d="M 438.965716 199.343625 
L 438.965716 21.935625 
" clip-path="url(#p51bc68549b)" style="fill: none; stroke: #cccccc; stroke-linecap: round"/>
     </g>
     <g id="text_6">
      <!-- 125 -->
      <g style="fill: #262626" transform="translate(429.790169 216.717219) scale(0.11 -0.11)">
       <use xlink:href="#ArialMT-31"/>
       <use xlink:href="#ArialMT-32" transform="translate(55.615234 0)"/>
       <use xlink:href="#ArialMT-35" transform="translate(111.230469 0)"/>
      </g>
     </g>
    </g>
    <g id="xtick_7">
     <g id="line2d_7">
      <path d="M 512.294556 199.343625 
L 512.294556 21.935625 
" clip-path="url(#p51bc68549b)" style="fill: none; stroke: #cccccc; stroke-linecap: round"/>
     </g>
     <g id="text_7">
      <!-- 150 -->
      <g style="fill: #262626" transform="translate(503.119009 216.717219) scale(0.11 -0.11)">
       <use xlink:href="#ArialMT-31"/>
       <use xlink:href="#ArialMT-35" transform="translate(55.615234 0)"/>
       <use xlink:href="#ArialMT-30" transform="translate(111.230469 0)"/>
      </g>
     </g>
    </g>
    <g id="xtick_8">
     <g id="line2d_8">
      <path d="M 585.623396 199.343625 
L 585.623396 21.935625 
" clip-path="url(#p51bc68549b)" style="fill: none; stroke: #cccccc; stroke-linecap: round"/>
     </g>
     <g id="text_8">
      <!-- 175 -->
      <g style="fill: #262626" transform="translate(576.447849 216.717219) scale(0.11 -0.11)">
       <use xlink:href="#ArialMT-31"/>
       <use xlink:href="#ArialMT-37" transform="translate(55.615234 0)"/>
       <use xlink:href="#ArialMT-35" transform="translate(111.230469 0)"/>
      </g>
     </g>
    </g>
    <g id="text_9">
     <!-- correction Δv (m/s) -->
     <g style="fill: #262626" transform="translate(275.950625 231.639094) scale(0.12 -0.12)">
      <defs>
       <path id="ArialMT-63" d="M 2588 1216 
L 3141 1144 
Q 3050 572 2676 248 
Q 2303 -75 1759 -75 
Q 1078 -75 664 370 
Q 250 816 250 1647 
Q 250 2184 428 2587 
Q 606 2991 970 3192 
Q 1334 3394 1763 3394 
Q 2303 3394 2647 3120 
Q 2991 2847 3088 2344 
L 2541 2259 
Q 2463 2594 2264 2762 
Q 2066 2931 1784 2931 
Q 1359 2931 1093 2626 
Q 828 2322 828 1663 
Q 828 994 1084 691 
Q 1341 388 1753 388 
Q 2084 388 2306 591 
Q 2528 794 2588 1216 
z
" transform="scale(0.015625)"/>
       <path id="ArialMT-6f" d="M 213 1659 
Q 213 2581 725 3025 
Q 1153 3394 1769 3394 
Q 2453 3394 2887 2945 
Q 3322 2497 3322 1706 
Q 3322 1066 3130 698 
Q 2938 331 2570 128 
Q 2203 -75 1769 -75 
Q 1072 -75 642 372 
Q 213 819 213 1659 
z
M 791 1659 
Q 791 1022 1069 705 
Q 1347 388 1769 388 
Q 2188 388 2466 706 
Q 2744 1025 2744 1678 
Q 2744 2294 2464 2611 
Q 2184 2928 1769 2928 
Q 1347 2928 1069 2612 
Q 791 2297 791 1659 
z
" transform="scale(0.015625)"/>
       <path id="ArialMT-72" d="M 416 0 
L 416 3319 
L 922 3319 
L 922 2816 
Q 1116 3169 1280 3281 
Q 1444 3394 1641 3394 
Q 1925 3394 2219 3213 
L 2025 2691 
Q 1819 2813 1613 2813 
Q 1428 2813 1281 2702 
Q 1134 2591 1072 2394 
Q 978 2094 978 1738 
L 978 0 
L 416 0 
z
" transform="scale(0.015625)"/>
       <path id="ArialMT-65" d="M 2694 1069 
L 3275 997 
Q 3138 488 2766 206 
Q 2394 -75 1816 -75 
Q 1088 -75 661 373 
Q 234 822 234 1631 
Q 234 2469 665 2931 
Q 1097 3394 1784 3394 
Q 2450 3394 2872 2941 
Q 3294 2488 3294 1666 
Q 3294 1616 3291 1516 
L 816 1516 
Q 847 969 1125 678 
Q 1403 388 1819 388 
Q 2128 388 2347 550 
Q 2566 713 2694 1069 
z
M 847 1978 
L 2700 1978 
Q 2663 2397 2488 2606 
Q 2219 2931 1791 2931 
Q 1403 2931 1139 2672 
Q 875 2413 847 1978 
z
" transform="scale(0.015625)"/>
       <path id="ArialMT-74" d="M 1650 503 
L 1731 6 
Q 1494 -44 1306 -44 
Q 1000 -44 831 53 
Q 663 150 594 308 
Q 525 466 525 972 
L 525 2881 
L 113 2881 
L 113 3319 
L 525 3319 
L 525 4141 
L 1084 4478 
L 1084 3319 
L 1650 3319 
L 1650 2881 
L 1084 2881 
L 1084 941 
Q 1084 700 1114 631 
Q 1144 563 1211 522 
Q 1278 481 1403 481 
Q 1497 481 1650 503 
z
" transform="scale(0.015625)"/>
       <path id="ArialMT-69" d="M 425 3934 
L 425 4581 
L 988 4581 
L 988 3934 
L 425 3934 
z
M 425 0 
L 425 3319 
L 988 3319 
L 988 0 
L 425 0 
z
" transform="scale(0.015625)"/>
       <path id="ArialMT-6e" d="M 422 0 
L 422 3319 
L 928 3319 
L 928 2847 
Q 1294 3394 1984 3394 
Q 2284 3394 2536 3286 
Q 2788 3178 2913 3003 
Q 3038 2828 3088 2588 
Q 3119 2431 3119 2041 
L 3119 0 
L 2556 0 
L 2556 2019 
Q 2556 2363 2490 2533 
Q 2425 2703 2258 2804 
Q 2091 2906 1866 2906 
Q 1506 2906 1245 2678 
Q 984 2450 984 1813 
L 984 0 
L 422 0 
z
" transform="scale(0.015625)"/>
       <path id="ArialMT-20" transform="scale(0.015625)"/>
       <path id="ArialMT-394" d="M -6 0 
L 1753 4581 
L 2406 4581 
L 4281 0 
L -6 0 
z
M 834 541 
L 3381 541 
L 2391 3150 
Q 2169 3738 2066 4100 
Q 1981 3675 1819 3225 
L 834 541 
z
" transform="scale(0.015625)"/>
       <path id="ArialMT-76" d="M 1344 0 
L 81 3319 
L 675 3319 
L 1388 1331 
Q 1503 1009 1600 663 
Q 1675 925 1809 1294 
L 2547 3319 
L 3125 3319 
L 1869 0 
L 1344 0 
z
" transform="scale(0.015625)"/>
       <path id="ArialMT-28" d="M 1497 -1347 
Q 1031 -759 709 28 
Q 388 816 388 1659 
Q 388 2403 628 3084 
Q 909 3875 1497 4659 
L 1900 4659 
Q 1522 4009 1400 3731 
Q 1209 3300 1100 2831 
Q 966 2247 966 1656 
Q 966 153 1900 -1347 
L 1497 -1347 
z
" transform="scale(0.015625)"/>
       <path id="ArialMT-6d" d="M 422 0 
L 422 3319 
L 925 3319 
L 925 2853 
Q 1081 3097 1340 3245 
Q 1600 3394 1931 3394 
Q 2300 3394 2536 3241 
Q 2772 3088 2869 2813 
Q 3263 3394 3894 3394 
Q 4388 3394 4653 3120 
Q 4919 2847 4919 2278 
L 4919 0 
L 4359 0 
L 4359 2091 
Q 4359 2428 4304 2576 
Q 4250 2725 4106 2815 
Q 3963 2906 3769 2906 
Q 3419 2906 3187 2673 
Q 2956 2441 2956 1928 
L 2956 0 
L 2394 0 
L 2394 2156 
Q 2394 2531 2256 2718 
Q 2119 2906 1806 2906 
Q 1569 2906 1367 2781 
Q 1166 2656 1075 2415 
Q 984 2175 984 1722 
L 984 0 
L 422 0 
z
" transform="scale(0.015625)"/>
       <path id="ArialMT-2f" d="M 0 -78 
L 1328 4659 
L 1778 4659 
L 453 -78 
L 0 -78 
z
" transform="scale(0.015625)"/>
       <path id="ArialMT-73" d="M 197 991 
L 753 1078 
Q 800 744 1014 566 
Q 1228 388 1613 388 
Q 2000 388 2187 545 
Q 2375 703 2375 916 
Q 2375 1106 2209 1216 
Q 2094 1291 1634 1406 
Q 1016 1563 777 1677 
Q 538 1791 414 1992 
Q 291 2194 291 2438 
Q 291 2659 392 2848 
Q 494 3038 669 3163 
Q 800 3259 1026 3326 
Q 1253 3394 1513 3394 
Q 1903 3394 2198 3281 
Q 2494 3169 2634 2976 
Q 2775 2784 2828 2463 
L 2278 2388 
Q 2241 2644 2061 2787 
Q 1881 2931 1553 2931 
Q 1166 2931 1000 2803 
Q 834 2675 834 2503 
Q 834 2394 903 2306 
Q 972 2216 1119 2156 
Q 1203 2125 1616 2013 
Q 2213 1853 2448 1751 
Q 2684 1650 2818 1456 
Q 2953 1263 2953 975 
Q 2953 694 2789 445 
Q 2625 197 2315 61 
Q 2006 -75 1616 -75 
Q 969 -75 630 194 
Q 291 463 197 991 
z
" transform="scale(0.015625)"/>
       <path id="ArialMT-29" d="M 791 -1347 
L 388 -1347 
Q 1322 153 1322 1656 
Q 1322 2244 1188 2822 
Q 1081 3291 891 3722 
Q 769 4003 388 4659 
L 791 4659 
Q 1378 3875 1659 3084 
Q 1900 2403 1900 1659 
Q 1900 816 1576 28 
Q 1253 -759 791 -1347 
z
" transform="scale(0.015625)"/>
      </defs>
      <use xlink:href="#ArialMT-63"/>
      <use xlink:href="#ArialMT-6f" transform="translate(50 0)"/>
      <use xlink:href="#ArialMT-72" transform="translate(105.615234 0)"/>
      <use xlink:href="#ArialMT-72" transform="translate(138.916016 0)"/>
      <use xlink:href="#ArialMT-65" transform="translate(172.216797 0)"/>
      <use xlink:href="#ArialMT-63" transform="translate(227.832031 0)"/>
      <use xlink:href="#ArialMT-74" transform="translate(277.832031 0)"/>
      <use xlink:href="#ArialMT-69" transform="translate(305.615234 0)"/>
      <use xlink:href="#ArialMT-6f" transform="translate(327.832031 0)"/>
      <use xlink:href="#ArialMT-6e" transform="translate(383.447266 0)"/>
      <use xlink:href="#ArialMT-20" transform="translate(439.0625 0)"/>
      <use xlink:href="#ArialMT-394" transform="translate(461.345703 0)"/>
      <use xlink:href="#ArialMT-76" transform="translate(528.142578 0)"/>
      <use xlink:href="#ArialMT-20" transform="translate(578.142578 0)"/>
      <use xlink:href="#ArialMT-28" transform="translate(605.925781 0)"/>
      <use xlink:href="#ArialMT-6d" transform="translate(639.226562 0)"/>
      <use xlink:href="#ArialMT-2f" transform="translate(722.527344 0)"/>
      <use xlink:href="#ArialMT-73" transform="translate(750.310547 0)"/>
      <use xlink:href="#ArialMT-29" transform="translate(800.310547 0)"/>
     </g>
    </g>
   </g>
   <g id="matplotlib.axis_2">
    <g id="ytick_1">
     <g id="line2d_9">
      <path d="M 46.964375 199.343625 
L 604.964375 199.343625 
" clip-path="url(#p51bc68549b)" style="fill: none; stroke: #cccccc; stroke-linecap: round"/>
     </g>
     <g id="text_10">
      <!-- 0.0 -->
      <g style="fill: #262626" transform="translate(22.174375 203.280422) scale(0.11 -0.11)">
       <defs>
        <path id="ArialMT-2e" d="M 581 0 
L 581 641 
L 1222 641 
L 1222 0 
L 581 0 
z
" transform="scale(0.015625)"/>
       </defs>
       <use xlink:href="#ArialMT-30"/>
       <use xlink:href="#ArialMT-2e" transform="translate(55.615234 0)"/>
       <use xlink:href="#ArialMT-30" transform="translate(83.398438 0)"/>
      </g>
     </g>
    </g>
    <g id="ytick_2">
     <g id="line2d_10">
      <path d="M 46.964375 163.862025 
L 604.964375 163.862025 
" clip-path="url(#p51bc68549b)" style="fill: none; stroke: #cccccc; stroke-linecap: round"/>
     </g>
     <g id="text_11">
      <!-- 0.2 -->
      <g style="fill: #262626" transform="translate(22.174375 167.798822) scale(0.11 -0.11)">
       <use xlink:href="#ArialMT-30"/>
       <use xlink:href="#ArialMT-2e" transform="translate(55.615234 0)"/>
       <use xlink:href="#ArialMT-32" transform="translate(83.398438 0)"/>
      </g>
     </g>
    </g>
    <g id="ytick_3">
     <g id="line2d_11">
      <path d="M 46.964375 128.380425 
L 604.964375 128.380425 
" clip-path="url(#p51bc68549b)" style="fill: none; stroke: #cccccc; stroke-linecap: round"/>
     </g>
     <g id="text_12">
      <!-- 0.4 -->
      <g style="fill: #262626" transform="translate(22.174375 132.317222) scale(0.11 -0.11)">
       <defs>
        <path id="ArialMT-34" d="M 2069 0 
L 2069 1097 
L 81 1097 
L 81 1613 
L 2172 4581 
L 2631 4581 
L 2631 1613 
L 3250 1613 
L 3250 1097 
L 2631 1097 
L 2631 0 
L 2069 0 
z
M 2069 1613 
L 2069 3678 
L 634 1613 
L 2069 1613 
z
" transform="scale(0.015625)"/>
       </defs>
       <use xlink:href="#ArialMT-30"/>
       <use xlink:href="#ArialMT-2e" transform="translate(55.615234 0)"/>
       <use xlink:href="#ArialMT-34" transform="translate(83.398438 0)"/>
      </g>
     </g>
    </g>
    <g id="ytick_4">
     <g id="line2d_12">
      <path d="M 46.964375 92.898825 
L 604.964375 92.898825 
" clip-path="url(#p51bc68549b)" style="fill: none; stroke: #cccccc; stroke-linecap: round"/>
     </g>
     <g id="text_13">
      <!-- 0.6 -->
      <g style="fill: #262626" transform="translate(22.174375 96.835622) scale(0.11 -0.11)">
       <defs>
        <path id="ArialMT-36" d="M 3184 3459 
L 2625 3416 
Q 2550 3747 2413 3897 
Q 2184 4138 1850 4138 
Q 1581 4138 1378 3988 
Q 1113 3794 959 3422 
Q 806 3050 800 2363 
Q 1003 2672 1297 2822 
Q 1591 2972 1913 2972 
Q 2475 2972 2870 2558 
Q 3266 2144 3266 1488 
Q 3266 1056 3080 686 
Q 2894 316 2569 119 
Q 2244 -78 1831 -78 
Q 1128 -78 684 439 
Q 241 956 241 2144 
Q 241 3472 731 4075 
Q 1159 4600 1884 4600 
Q 2425 4600 2770 4297 
Q 3116 3994 3184 3459 
z
M 888 1484 
Q 888 1194 1011 928 
Q 1134 663 1356 523 
Q 1578 384 1822 384 
Q 2178 384 2434 671 
Q 2691 959 2691 1453 
Q 2691 1928 2437 2201 
Q 2184 2475 1800 2475 
Q 1419 2475 1153 2201 
Q 888 1928 888 1484 
z
" transform="scale(0.015625)"/>
       </defs>
       <use xlink:href="#ArialMT-30"/>
       <use xlink:href="#ArialMT-2e" transform="translate(55.615234 0)"/>
       <use xlink:href="#ArialMT-36" transform="translate(83.398438 0)"/>
      </g>
     </g>
    </g>
    <g id="ytick_5">
     <g id="line2d_13">
      <path d="M 46.964375 57.417225 
L 604.964375 57.417225 
" clip-path="url(#p51bc68549b)" style="fill: none; stroke: #cccccc; stroke-linecap: round"/>
     </g>
     <g id="text_14">
      <!-- 0.8 -->
      <g style="fill: #262626" transform="translate(22.174375 61.354022) scale(0.11 -0.11)">
       <defs>
        <path id="ArialMT-38" d="M 1131 2484 
Q 781 2613 612 2850 
Q 444 3088 444 3419 
Q 444 3919 803 4259 
Q 1163 4600 1759 4600 
Q 2359 4600 2725 4251 
Q 3091 3903 3091 3403 
Q 3091 3084 2923 2848 
Q 2756 2613 2416 2484 
Q 2838 2347 3058 2040 
Q 3278 1734 3278 1309 
Q 3278 722 2862 322 
Q 2447 -78 1769 -78 
Q 1091 -78 675 323 
Q 259 725 259 1325 
Q 259 1772 486 2073 
Q 713 2375 1131 2484 
z
M 1019 3438 
Q 1019 3113 1228 2906 
Q 1438 2700 1772 2700 
Q 2097 2700 2305 2904 
Q 2513 3109 2513 3406 
Q 2513 3716 2298 3927 
Q 2084 4138 1766 4138 
Q 1444 4138 1231 3931 
Q 1019 3725 1019 3438 
z
M 838 1322 
Q 838 1081 952 856 
Q 1066 631 1291 507 
Q 1516 384 1775 384 
Q 2178 384 2440 643 
Q 2703 903 2703 1303 
Q 2703 1709 2433 1975 
Q 2163 2241 1756 2241 
Q 1359 2241 1098 1978 
Q 838 1716 838 1322 
z
" transform="scale(0.015625)"/>
       </defs>
       <use xlink:href="#ArialMT-30"/>
       <use xlink:href="#ArialMT-2e" transform="translate(55.615234 0)"/>
       <use xlink:href="#ArialMT-38" transform="translate(83.398438 0)"/>
      </g>
     </g>
    </g>
    <g id="ytick_6">
     <g id="line2d_14">
      <path d="M 46.964375 21.935625 
L 604.964375 21.935625 
" clip-path="url(#p51bc68549b)" style="fill: none; stroke: #cccccc; stroke-linecap: round"/>
     </g>
     <g id="text_15">
      <!-- 1.0 -->
      <g style="fill: #262626" transform="translate(22.174375 25.872422) scale(0.11 -0.11)">
       <use xlink:href="#ArialMT-31"/>
       <use xlink:href="#ArialMT-2e" transform="translate(55.615234 0)"/>
       <use xlink:href="#ArialMT-30" transform="translate(83.398438 0)"/>
      </g>
     </g>
    </g>
    <g id="text_16">
     <!-- cumulative fraction -->
     <g style="fill: #262626" transform="translate(15.789375 160.658062) rotate(-90) scale(0.12 -0.12)">
      <defs>
       <path id="ArialMT-75" d="M 2597 0 
L 2597 488 
Q 2209 -75 1544 -75 
Q 1250 -75 995 37 
Q 741 150 617 320 
Q 494 491 444 738 
Q 409 903 409 1263 
L 409 3319 
L 972 3319 
L 972 1478 
Q 972 1038 1006 884 
Q 1059 663 1231 536 
Q 1403 409 1656 409 
Q 1909 409 2131 539 
Q 2353 669 2445 892 
Q 2538 1116 2538 1541 
L 2538 3319 
L 3100 3319 
L 3100 0 
L 2597 0 
z
" transform="scale(0.015625)"/>
       <path id="ArialMT-6c" d="M 409 0 
L 409 4581 
L 972 4581 
L 972 0 
L 409 0 
z
" transform="scale(0.015625)"/>
       <path id="ArialMT-61" d="M 2588 409 
Q 2275 144 1986 34 
Q 1697 -75 1366 -75 
Q 819 -75 525 192 
Q 231 459 231 875 
Q 231 1119 342 1320 
Q 453 1522 633 1644 
Q 813 1766 1038 1828 
Q 1203 1872 1538 1913 
Q 2219 1994 2541 2106 
Q 2544 2222 2544 2253 
Q 2544 2597 2384 2738 
Q 2169 2928 1744 2928 
Q 1347 2928 1158 2789 
Q 969 2650 878 2297 
L 328 2372 
Q 403 2725 575 2942 
Q 747 3159 1072 3276 
Q 1397 3394 1825 3394 
Q 2250 3394 2515 3294 
Q 2781 3194 2906 3042 
Q 3031 2891 3081 2659 
Q 3109 2516 3109 2141 
L 3109 1391 
Q 3109 606 3145 398 
Q 3181 191 3288 0 
L 2700 0 
Q 2613 175 2588 409 
z
M 2541 1666 
Q 2234 1541 1622 1453 
Q 1275 1403 1131 1340 
Q 988 1278 909 1158 
Q 831 1038 831 891 
Q 831 666 1001 516 
Q 1172 366 1500 366 
Q 1825 366 2078 508 
Q 2331 650 2450 897 
Q 2541 1088 2541 1459 
L 2541 1666 
z
" transform="scale(0.015625)"/>
       <path id="ArialMT-66" d="M 556 0 
L 556 2881 
L 59 2881 
L 59 3319 
L 556 3319 
L 556 3672 
Q 556 4006 616 4169 
Q 697 4388 901 4523 
Q 1106 4659 1475 4659 
Q 1713 4659 2000 4603 
L 1916 4113 
Q 1741 4144 1584 4144 
Q 1328 4144 1222 4034 
Q 1116 3925 1116 3625 
L 1116 3319 
L 1763 3319 
L 1763 2881 
L 1116 2881 
L 1116 0 
L 556 0 
z
" transform="scale(0.015625)"/>
      </defs>
      <use xlink:href="#ArialMT-63"/>
      <use xlink:href="#ArialMT-75" transform="translate(50 0)"/>
      <use xlink:href="#ArialMT-6d" transform="translate(105.615234 0)"/>
      <use xlink:href="#ArialMT-75" transform="translate(188.916016 0)"/>
      <use xlink:href="#ArialMT-6c" transform="translate(244.53125 0)"/>
      <use xlink:href="#ArialMT-61" transform="translate(266.748047 0)"/>
      <use xlink:href="#ArialMT-74" transform="translate(322.363281 0)"/>
      <use xlink:href="#ArialMT-69" transform="translate(350.146484 0)"/>
      <use xlink:href="#ArialMT-76" transform="translate(372.363281 0)"/>
      <use xlink:href="#ArialMT-65" transform="translate(422.363281 0)"/>
      <use xlink:href="#ArialMT-20" transform="translate(477.978516 0)"/>
      <use xlink:href="#ArialMT-66" transform="translate(505.761719 0)"/>
      <use xlink:href="#ArialMT-72" transform="translate(533.544922 0)"/>
      <use xlink:href="#ArialMT-61" transform="translate(566.845703 0)"/>
      <use xlink:href="#ArialMT-63" transform="translate(622.460938 0)"/>
      <use xlink:href="#ArialMT-74" transform="translate(672.460938 0)"/>
      <use xlink:href="#ArialMT-69" transform="translate(700.244141 0)"/>
      <use xlink:href="#ArialMT-6f" transform="translate(722.460938 0)"/>
      <use xlink:href="#ArialMT-6e" transform="translate(778.076172 0)"/>
     </g>
    </g>
   </g>
   <g id="line2d_15">
    <path d="M 399.660191 199.166217 
L 404.975714 198.811401 
L 405.602033 198.633993 
L 405.715285 198.456585 
L 406.089478 198.279177 
L 406.180388 197.924361 
L 406.361821 197.569545 
L 406.380058 197.392137 
L 406.829184 197.037321 
L 407.946174 196.859913 
L 408.179723 196.682505 
L 408.626317 196.505097 
L 408.664647 196.327689 
L 408.837096 196.150281 
L 408.971198 195.795465 
L 409.600148 195.263241 
L 409.630264 195.085833 
L 409.862755 194.908425 
L 409.944817 194.376201 
L 410.289252 194.198793 
L 410.328342 194.021385 
L 410.73851 193.843977 
L 410.87357 193.311753 
L 411.646613 191.360265 
L 411.745205 191.005449 
L 412.830598 189.586185 
L 413.217702 189.408777 
L 413.627061 186.925065 
L 413.776412 186.570249 
L 414.000836 186.038025 
L 414.348963 184.973577 
L 414.615327 184.796169 
L 414.745801 184.441353 
L 415.207759 183.199497 
L 415.326498 182.489865 
L 415.391477 181.957641 
L 415.600459 181.248009 
L 415.69185 180.893193 
L 415.948508 180.006153 
L 416.539577 179.119113 
L 417.207474 176.635401 
L 417.288751 176.457993 
L 417.657341 176.103177 
L 418.422911 172.555017 
L 418.600053 172.377609 
L 418.698311 171.490569 
L 419.082422 170.426121 
L 419.406229 169.361673 
L 419.493472 168.829449 
L 419.662242 167.587593 
L 419.674769 167.410185 
L 419.883404 167.232777 
L 419.896103 167.055369 
L 420.063766 166.700553 
L 420.185269 165.636105 
L 420.228194 165.281289 
L 420.528827 165.103881 
L 420.992246 163.329801 
L 421.232031 162.974985 
L 421.243257 162.620169 
L 421.425558 162.265353 
L 421.537535 161.378313 
L 421.627803 161.023497 
L 421.689515 160.136457 
L 422.230544 158.539785 
L 422.41116 157.120521 
L 422.529771 156.765705 
L 422.976714 154.281993 
L 423.077748 153.572361 
L 423.214647 151.975689 
L 423.288908 151.443465 
L 423.913272 148.959753 
L 424.081921 147.895305 
L 424.246726 147.717897 
L 424.35283 146.653449 
L 424.684428 145.056777 
L 425.080525 144.701961 
L 425.284235 143.637513 
L 425.391819 142.573065 
L 425.862396 140.621577 
L 425.963048 140.266761 
L 426.107343 139.379721 
L 426.814386 136.008969 
L 427.450644 132.283401 
L 427.559849 131.751177 
L 427.64984 131.396361 
L 427.830439 130.509321 
L 428.093725 130.154505 
L 428.663951 127.315977 
L 428.752365 126.961161 
L 428.88524 126.251529 
L 428.998411 125.896713 
L 429.147725 124.654857 
L 429.262538 124.300041 
L 429.396285 122.703369 
L 429.467861 122.348553 
L 429.816215 121.638921 
L 429.981849 120.574473 
L 430.115473 120.219657 
L 430.30701 118.622985 
L 430.701789 118.090761 
L 431.084653 116.316681 
L 431.212747 115.429641 
L 431.414578 114.365193 
L 431.496514 113.832969 
L 431.60338 112.945929 
L 431.793578 112.058889 
L 431.901539 111.704073 
L 432.042972 111.349257 
L 432.159568 110.994441 
L 432.891211 109.575177 
L 433.009537 108.510729 
L 433.39691 107.446281 
L 433.549216 106.559241 
L 433.675976 105.849609 
L 433.813829 105.317385 
L 434.012339 104.252937 
L 434.526956 102.833673 
L 434.731136 101.946633 
L 435.335498 100.172553 
L 435.490369 99.817737 
L 435.584533 99.285513 
L 436.293278 96.801801 
L 436.610315 95.914761 
L 436.669498 95.559945 
L 436.850052 95.382537 
L 436.96427 94.318089 
L 436.972889 94.140681 
L 437.121752 93.785865 
L 437.32424 93.076233 
L 437.818906 91.124745 
L 438.070808 90.947337 
L 438.089839 90.769929 
L 438.263587 90.415113 
L 438.572124 89.528073 
L 438.800373 89.350665 
L 438.845167 88.995849 
L 439.03915 88.818441 
L 439.046863 88.641033 
L 439.362028 88.286217 
L 439.49768 87.931401 
L 440.636877 82.076937 
L 440.936848 81.722121 
L 441.139269 81.189897 
L 441.247897 80.835081 
L 441.423573 79.948041 
L 441.673763 79.593225 
L 441.740595 79.061001 
L 441.924499 78.528777 
L 441.930667 78.351369 
L 442.128169 78.173961 
L 442.23141 77.464329 
L 443.12364 76.577289 
L 443.306331 75.335433 
L 443.435629 74.980617 
L 443.52287 74.270985 
L 443.754115 74.093577 
L 443.865777 73.561353 
L 444.00165 73.206537 
L 444.287909 72.674313 
L 444.505637 72.496905 
L 444.830048 70.368009 
L 445.209433 70.013193 
L 445.314537 69.658377 
L 445.361562 69.126153 
L 445.738637 68.593929 
L 445.797749 68.061705 
L 446.052674 67.706889 
L 446.491808 66.110217 
L 446.888534 65.400585 
L 446.892211 65.223177 
L 447.218725 65.045769 
L 447.456897 64.158729 
L 447.8493 63.803913 
L 448.143642 63.449097 
L 448.252859 63.094281 
L 448.444675 62.562057 
L 448.683986 62.029833 
L 448.774434 61.497609 
L 448.897798 61.142793 
L 449.108162 60.078345 
L 449.651602 59.013897 
L 449.883266 58.304265 
L 450.118334 57.772041 
L 450.358188 57.062409 
L 450.391928 56.707593 
L 450.572948 56.352777 
L 451.088089 55.110921 
L 451.296777 54.933513 
L 451.411052 54.401289 
L 451.568608 53.869065 
L 451.630311 53.691657 
L 452.068776 53.514249 
L 452.464628 52.982025 
L 452.903118 52.804617 
L 452.974996 52.449801 
L 453.213454 52.272393 
L 453.363109 51.562761 
L 453.645293 51.385353 
L 453.862907 50.675721 
L 454.608994 49.433865 
L 454.652616 49.256457 
L 454.854654 49.079049 
L 454.85647 48.901641 
L 455.017228 48.724233 
L 455.130638 48.192009 
L 455.156825 48.014601 
L 455.420114 47.659785 
L 455.582385 46.950153 
L 455.688319 46.595337 
L 456.139455 46.417929 
L 456.372535 46.063113 
L 456.695127 45.885705 
L 457.277889 44.111625 
L 458.129207 43.401993 
L 458.24968 43.047177 
L 458.420532 42.514953 
L 458.735201 42.337545 
L 458.88483 41.627913 
L 458.941504 41.450505 
L 459.334858 41.095689 
L 459.925271 40.740873 
L 460.660523 40.563465 
L 461.86913 39.321609 
L 462.338355 39.144201 
L 462.405607 38.966793 
L 463.110951 38.789385 
L 463.192973 38.611977 
L 463.666566 38.257161 
L 463.686512 38.079753 
L 463.994385 37.902345 
L 464.024762 37.547529 
L 465.241912 36.305673 
L 465.247297 36.128265 
L 467.677313 34.709001 
L 468.39738 34.531593 
L 469.031461 33.821961 
L 469.853776 33.644553 
L 470.154595 33.289737 
L 470.608442 33.112329 
L 470.835258 32.757513 
L 471.227194 32.580105 
L 471.255218 32.402697 
L 471.994211 32.047881 
L 472.129805 31.870473 
L 472.778378 31.515657 
L 473.099695 31.160841 
L 473.876828 30.983433 
L 475.202604 30.806025 
L 476.351026 30.273801 
L 477.304364 29.918985 
L 477.338185 29.741577 
L 477.512282 29.564169 
L 478.844246 29.386761 
L 478.968383 29.209353 
L 479.472109 29.031945 
L 479.474328 28.854537 
L 479.702246 28.677129 
L 482.501715 27.790089 
L 482.612981 27.612681 
L 482.885876 27.435273 
L 483.970892 27.257865 
L 484.13563 27.080457 
L 486.55494 26.725641 
L 487.386793 26.548233 
L 487.547767 26.370825 
L 488.932698 26.016009 
L 491.965127 25.838601 
L 493.856757 25.128969 
L 493.874998 24.951561 
L 494.074282 24.774153 
L 498.318327 24.419337 
L 498.551442 24.241929 
L 500.573322 24.064521 
L 501.003252 23.887113 
L 506.758534 23.709705 
L 506.986955 23.532297 
L 512.282952 23.354889 
L 513.749061 23.177481 
L 517.381202 22.822665 
L 517.518737 22.645257 
L 518.818561 22.467849 
L 579.600739 21.935625 
L 579.600739 21.935625 
" clip-path="url(#p51bc68549b)" style="fill: none; stroke: #111111; stroke-width: 2; stroke-linecap: round"/>
   </g>
   <g id="line2d_16">
    <path d="M 389.853762 199.166217 
L 389.905743 198.988809 
L 392.100345 198.633993 
L 392.845232 198.101769 
L 393.698592 197.924361 
L 393.812795 197.746953 
L 394.690902 197.214729 
L 394.78683 196.859913 
L 395.126144 196.682505 
L 395.199933 196.150281 
L 396.169174 194.731017 
L 396.422357 194.553609 
L 396.453559 194.021385 
L 396.738944 193.843977 
L 396.757408 193.666569 
L 396.911447 193.311753 
L 397.145365 192.424713 
L 397.270518 192.069897 
L 397.550181 190.828041 
L 397.892606 190.650633 
L 398.431823 189.053961 
L 398.627015 187.989513 
L 398.884545 186.570249 
L 399.252085 184.973577 
L 399.425508 184.618761 
L 399.603565 183.731721 
L 399.96308 183.199497 
L 400.504154 179.828745 
L 400.632837 178.941705 
L 400.785683 178.409481 
L 400.907771 177.877257 
L 401.049205 177.345033 
L 401.24289 175.925769 
L 401.373132 175.570953 
L 401.706953 173.974281 
L 402.080558 171.845385 
L 402.255211 171.135753 
L 402.369484 170.603529 
L 402.559025 169.716489 
L 403.227211 165.458697 
L 403.298109 164.926473 
L 405.136359 153.217545 
L 405.254134 151.975689 
L 405.932801 146.476041 
L 406.066692 144.879369 
L 406.188305 143.460105 
L 406.293661 142.927881 
L 406.406453 142.218249 
L 407.558774 134.767113 
L 407.934036 131.928585 
L 408.044435 131.573769 
L 408.296708 129.799689 
L 408.40628 129.267465 
L 408.548296 127.493385 
L 409.229038 122.525961 
L 409.355179 121.461513 
L 409.944245 118.445577 
L 410.340074 115.607049 
L 410.439753 115.074825 
L 410.667397 113.300745 
L 410.962857 110.994441 
L 411.445829 106.914057 
L 411.579772 106.559241 
L 411.813956 103.720713 
L 411.936523 103.011081 
L 412.128461 101.946633 
L 412.240845 100.527369 
L 412.43439 99.817737 
L 412.753388 98.753289 
L 413.230472 94.495497 
L 414.361203 89.528073 
L 414.490716 88.463625 
L 414.863828 87.753993 
L 415.704172 83.141385 
L 415.766332 82.609161 
L 415.886101 82.254345 
L 416.056133 80.480265 
L 416.153536 79.770633 
L 416.614747 76.754697 
L 416.87201 75.690249 
L 416.997082 74.625801 
L 417.161763 73.029129 
L 417.365574 71.432457 
L 417.541835 70.900233 
L 417.986428 68.416521 
L 418.05816 67.884297 
L 418.130782 67.529481 
L 418.737379 65.045769 
L 419.042783 63.094281 
L 419.413336 61.142793 
L 419.510967 60.610569 
L 419.563062 60.255753 
L 419.87051 59.900937 
L 419.903572 59.723529 
L 420.102309 59.546121 
L 420.482711 57.062409 
L 420.63947 56.707593 
L 420.895569 55.288329 
L 421.063741 55.110921 
L 421.185355 54.401289 
L 421.48967 53.691657 
L 421.58263 53.336841 
L 421.735749 52.627209 
L 421.902165 52.272393 
L 422.015804 51.207945 
L 422.291978 49.966089 
L 422.33298 49.611273 
L 422.615591 49.256457 
L 422.648787 48.901641 
L 422.802057 48.546825 
L 422.872327 48.192009 
L 423.001103 47.127561 
L 423.185112 46.772745 
L 423.288235 46.417929 
L 423.634479 45.708297 
L 423.67976 45.530889 
L 424.191554 45.176073 
L 424.488502 44.111625 
L 425.170127 42.514953 
L 425.72259 40.031241 
L 425.985856 39.676425 
L 426.082367 39.321609 
L 426.224151 38.789385 
L 426.254307 38.434569 
L 426.450181 37.902345 
L 426.615616 37.015305 
L 426.616971 36.837897 
L 427.306414 36.128265 
L 427.543291 34.709001 
L 427.822428 34.354185 
L 427.980423 33.821961 
L 428.292629 33.467145 
L 428.534228 32.934921 
L 429.509781 32.757513 
L 429.646461 31.870473 
L 429.929235 31.693065 
L 430.067845 31.160841 
L 430.409239 30.806025 
L 430.511717 30.451209 
L 430.644171 30.273801 
L 431.321673 30.096393 
L 431.356262 29.918985 
L 432.193435 29.564169 
L 432.583612 29.386761 
L 432.674465 29.209353 
L 433.128505 29.031945 
L 433.481272 28.677129 
L 434.173309 28.322313 
L 434.228079 28.144905 
L 435.657337 27.612681 
L 436.315325 27.080457 
L 436.338077 26.903049 
L 437.474143 26.548233 
L 437.521223 26.370825 
L 438.565069 26.016009 
L 439.925175 25.838601 
L 440.699974 25.483785 
L 443.081311 25.128969 
L 446.727199 24.596745 
L 446.846859 24.419337 
L 449.758124 24.241929 
L 449.926817 24.064521 
L 450.524096 23.887113 
L 454.840553 23.532297 
L 455.030775 23.177481 
L 455.936432 23.000073 
L 461.132551 22.822665 
L 461.77241 22.645257 
L 466.204588 22.290441 
L 476.251964 21.935625 
L 476.251964 21.935625 
" clip-path="url(#p51bc68549b)" style="fill: none; stroke: #4878cf; stroke-width: 1.2; stroke-linecap: round"/>
   </g>
   <g id="line2d_17">
    <path d="M 72.338539 199.166217 
L 73.064427 192.069897 
L 73.158615 191.715081 
L 73.286014 190.295817 
L 73.472115 189.231369 
L 73.683767 186.925065 
L 73.826039 185.328393 
L 73.932339 183.731721 
L 74.020476 183.022089 
L 74.123165 181.248009 
L 74.494125 178.764297 
L 74.638084 176.812809 
L 78.348511 142.395657 
L 78.512012 139.911945 
L 78.942143 136.363785 
L 80.042051 125.187081 
L 80.171666 124.654857 
L 80.327056 123.590409 
L 80.466006 122.880777 
L 80.585776 120.929289 
L 81.230231 115.074825 
L 81.543141 112.236297 
L 81.80979 110.994441 
L 81.959484 109.575177 
L 82.182311 108.155913 
L 82.280939 107.801097 
L 83.51017 101.059593 
L 83.623815 100.172553 
L 83.715377 99.640329 
L 84.062595 96.446985 
L 84.173516 95.559945 
L 84.29028 95.027721 
L 84.405798 93.963273 
L 84.468675 93.431049 
L 84.539967 93.076233 
L 84.694571 92.721417 
L 86.513611 80.125449 
L 86.856195 79.238409 
L 87.093747 78.173961 
L 87.29542 77.641737 
L 88.019565 74.980617 
L 88.113223 74.625801 
L 88.209072 74.270985 
L 88.708831 69.835785 
L 88.874375 69.303561 
L 89.24199 66.642441 
L 89.369501 66.287625 
L 89.558708 64.690953 
L 89.685433 63.449097 
L 89.773419 62.916873 
L 89.848816 62.562057 
L 90.041706 62.207241 
L 90.181054 61.142793 
L 90.356036 60.787977 
L 90.481428 59.191305 
L 90.614618 58.836489 
L 90.718213 58.126857 
L 90.816534 57.772041 
L 90.927124 57.417225 
L 91.508384 55.997961 
L 91.589811 55.110921 
L 91.668594 54.578697 
L 91.858331 54.223881 
L 92.062737 53.869065 
L 92.182785 52.982025 
L 92.552891 51.562761 
L 92.677255 51.207945 
L 92.7908 50.675721 
L 93.029728 50.498313 
L 93.112819 49.966089 
L 93.389696 49.788681 
L 93.494275 49.256457 
L 93.777587 48.901641 
L 93.967701 48.192009 
L 94.099912 47.837193 
L 94.50652 47.127561 
L 94.624593 46.595337 
L 94.879351 45.885705 
L 95.035766 45.353481 
L 95.188857 44.466441 
L 95.388675 44.111625 
L 95.481322 43.401993 
L 95.968384 42.337545 
L 96.266968 41.627913 
L 96.521869 41.450505 
L 96.608946 41.095689 
L 96.821166 40.740873 
L 97.452852 40.386057 
L 97.55958 39.853833 
L 97.967494 39.676425 
L 98.069193 39.144201 
L 98.385952 38.789385 
L 98.931043 37.724937 
L 99.201838 37.547529 
L 99.61092 36.660489 
L 100.012877 36.128265 
L 100.014099 35.950857 
L 100.586633 35.063817 
L 100.731902 34.531593 
L 100.901045 34.176777 
L 100.947134 33.821961 
L 101.570948 33.467145 
L 101.94117 32.580105 
L 102.259783 32.402697 
L 102.269686 32.225289 
L 102.55539 32.047881 
L 102.686214 31.515657 
L 102.721271 31.338249 
L 102.872826 31.160841 
L 103.33913 30.806025 
L 103.563121 30.096393 
L 103.755742 29.741577 
L 103.756455 29.564169 
L 104.100796 29.386761 
L 104.357099 28.854537 
L 104.932102 27.967497 
L 106.162408 27.790089 
L 106.515428 27.612681 
L 106.573638 27.435273 
L 108.805253 26.193417 
L 109.003665 25.838601 
L 110.594561 25.661193 
L 110.96063 25.483785 
L 110.989814 25.128969 
L 111.890072 24.774153 
L 111.974763 24.419337 
L 112.401813 24.241929 
L 112.454076 24.064521 
L 112.889516 23.887113 
L 113.065985 23.532297 
L 114.030702 23.354889 
L 114.277301 23.177481 
L 114.819937 23.000073 
L 115.137145 22.645257 
L 116.670433 22.467849 
L 131.064707 21.935625 
L 131.064707 21.935625 
" clip-path="url(#p51bc68549b)" style="fill: none; stroke: #d1701f; stroke-width: 1.2; stroke-linecap: round"/>
   </g>
   <g id="line2d_18">
    <path d="M 72.328011 199.166217 
L 72.44574 197.746953 
L 72.642033 194.553609 
L 72.990443 190.828041 
L 73.12199 187.102473 
L 73.365214 184.086537 
L 73.493157 182.135049 
L 73.553768 181.070601 
L 73.704429 178.941705 
L 73.846494 176.635401 
L 74.044052 172.200201 
L 74.115605 170.426121 
L 74.212942 169.361673 
L 74.35309 167.587593 
L 74.629581 161.910537 
L 74.712728 159.959049 
L 74.881665 157.120521 
L 77.125026 122.525961 
L 77.21923 122.171145 
L 77.332483 120.219657 
L 77.596866 115.961865 
L 78.098882 111.349257 
L 78.109543 110.994441 
L 78.237619 110.639625 
L 79.619189 97.156617 
L 79.753677 96.801801 
L 79.857759 94.672905 
L 80.085876 92.721417 
L 80.292658 90.592521 
L 80.351922 89.350665 
L 80.559893 87.221769 
L 82.904964 73.029129 
L 83.095445 72.851721 
L 83.285681 72.142089 
L 83.69719 70.013193 
L 83.948742 69.658377 
L 84.532182 67.352073 
L 84.659111 66.819849 
L 84.71123 66.287625 
L 85.260469 65.755401 
L 85.421833 65.045769 
L 86.364679 63.803913 
L 86.368816 63.626505 
L 86.834726 62.916873 
L 86.853131 62.739465 
L 86.9903 62.562057 
L 87.310416 62.384649 
L 87.373306 62.207241 
L 87.844706 61.675017 
L 87.90595 61.497609 
L 88.483576 61.142793 
L 88.558492 60.965385 
L 89.253293 60.433161 
L 89.289598 60.255753 
L 89.813169 59.900937 
L 89.936454 59.546121 
L 89.988774 59.368713 
L 90.93822 59.013897 
L 90.982769 58.659081 
L 91.203345 58.304265 
L 91.225041 58.126857 
L 91.754441 57.594633 
L 92.721466 57.239817 
L 92.946984 56.707593 
L 93.649002 55.997961 
L 95.24917 53.336841 
L 95.784279 53.159433 
L 95.930771 52.982025 
L 96.956582 52.627209 
L 97.95483 52.094985 
L 98.100898 51.562761 
L 98.534055 51.030537 
L 99.166812 50.853129 
L 99.274263 50.498313 
L 100.064649 49.256457 
L 101.174668 48.546825 
L 101.353566 48.369417 
L 101.368722 48.192009 
L 101.629805 47.837193 
L 102.481207 47.659785 
L 102.633819 47.304969 
L 103.115939 47.127561 
L 103.413187 46.595337 
L 103.535748 46.063113 
L 103.739412 45.885705 
L 103.812275 45.530889 
L 104.457707 45.176073 
L 104.478688 44.998665 
L 106.456229 43.224585 
L 107.035587 42.869769 
L 107.17573 42.514953 
L 107.985584 42.337545 
L 108.005005 42.160137 
L 108.501544 41.982729 
L 108.667697 41.627913 
L 108.834161 41.095689 
L 109.024345 40.918281 
L 109.935856 40.740873 
L 110.100018 40.563465 
L 110.100511 40.386057 
L 110.475205 40.031241 
L 110.651699 39.676425 
L 110.844154 39.321609 
L 111.155231 39.144201 
L 111.718244 38.966793 
L 111.750448 38.611977 
L 112.675193 38.257161 
L 112.915414 37.724937 
L 112.973128 37.547529 
L 113.407601 37.192713 
L 113.58294 36.660489 
L 113.806788 36.305673 
L 114.678663 35.773449 
L 114.682484 35.596041 
L 115.240876 35.418633 
L 115.693891 34.709001 
L 115.740794 34.531593 
L 115.963665 34.354185 
L 116.070208 33.999369 
L 116.810795 33.467145 
L 116.979476 32.934921 
L 118.092052 32.225289 
L 118.449471 31.693065 
L 118.501802 31.515657 
L 118.693017 31.338249 
L 119.313486 31.160841 
L 119.387562 30.628617 
L 119.695349 30.273801 
L 119.826637 30.096393 
L 120.472786 29.741577 
L 121.792116 29.386761 
L 122.181753 29.209353 
L 124.25157 28.677129 
L 124.665063 28.499721 
L 124.707388 28.322313 
L 125.141355 27.967497 
L 127.01782 27.435273 
L 127.426548 27.080457 
L 127.653012 26.548233 
L 128.522218 26.370825 
L 128.648303 26.193417 
L 130.358271 26.016009 
L 130.584686 25.838601 
L 130.5914 25.661193 
L 130.986675 25.306377 
L 131.160757 24.951561 
L 134.60879 24.596745 
L 135.573292 24.419337 
L 135.735318 24.241929 
L 136.084072 24.064521 
L 138.667362 23.887113 
L 139.100293 23.709705 
L 139.244122 23.354889 
L 140.338348 22.822665 
L 142.656561 22.645257 
L 158.899757 21.935625 
L 158.899757 21.935625 
" clip-path="url(#p51bc68549b)" style="fill: none; stroke: #6a51a3; stroke-width: 1.2; stroke-linecap: round"/>
   </g>
   <g id="patch_3">
    <path d="M 46.964375 199.343625 
L 46.964375 21.935625 
" style="fill: none; stroke: #cccccc; stroke-width: 1.25; stroke-linejoin: miter; stroke-linecap: square"/>
   </g>
   <g id="patch_4">
    <path d="M 46.964375 199.343625 
L 604.964375 199.343625 
" style="fill: none; stroke: #cccccc; stroke-width: 1.25; stroke-linejoin: miter; stroke-linecap: square"/>
   </g>
   <g id="text_17">
    <!-- Correction Δv - - empirical CDF (total + burns) -->
    <g style="fill: #262626" transform="translate(205.764688 15.935625) scale(0.12 -0.12)">
     <defs>
      <path id="ArialMT-43" d="M 3763 1606 
L 4369 1453 
Q 4178 706 3683 314 
Q 3188 -78 2472 -78 
Q 1731 -78 1267 223 
Q 803 525 561 1097 
Q 319 1669 319 2325 
Q 319 3041 592 3573 
Q 866 4106 1370 4382 
Q 1875 4659 2481 4659 
Q 3169 4659 3637 4309 
Q 4106 3959 4291 3325 
L 3694 3184 
Q 3534 3684 3231 3912 
Q 2928 4141 2469 4141 
Q 1941 4141 1586 3887 
Q 1231 3634 1087 3207 
Q 944 2781 944 2328 
Q 944 1744 1114 1308 
Q 1284 872 1643 656 
Q 2003 441 2422 441 
Q 2931 441 3284 734 
Q 3638 1028 3763 1606 
z
" transform="scale(0.015625)"/>
      <path id="ArialMT-2d" d="M 203 1375 
L 203 1941 
L 1931 1941 
L 1931 1375 
L 203 1375 
z
" transform="scale(0.015625)"/>
      <path id="ArialMT-70" d="M 422 -1272 
L 422 3319 
L 934 3319 
L 934 2888 
Q 1116 3141 1344 3267 
Q 1572 3394 1897 3394 
Q 2322 3394 2647 3175 
Q 2972 2956 3137 2557 
Q 3303 2159 3303 1684 
Q 3303 1175 3120 767 
Q 2938 359 2589 142 
Q 2241 -75 1856 -75 
Q 1575 -75 1351 44 
Q 1128 163 984 344 
L 984 -1272 
L 422 -1272 
z
M 931 1641 
Q 931 1000 1190 694 
Q 1450 388 1819 388 
Q 2194 388 2461 705 
Q 2728 1022 2728 1688 
Q 2728 2322 2467 2637 
Q 2206 2953 1844 2953 
Q 1484 2953 1207 2617 
Q 931 2281 931 1641 
z
" transform="scale(0.015625)"/>
      <path id="ArialMT-44" d="M 494 0 
L 494 4581 
L 2072 4581 
Q 2606 4581 2888 4516 
Q 3281 4425 3559 4188 
Q 3922 3881 4101 3404 
Q 4281 2928 4281 2316 
Q 4281 1794 4159 1391 
Q 4038 988 3847 723 
Q 3656 459 3429 307 
Q 3203 156 2883 78 
Q 2563 0 2147 0 
L 494 0 
z
M 1100 541 
L 2078 541 
Q 2531 541 2789 625 
Q 3047 709 3200 863 
Q 3416 1078 3536 1442 
Q 3656 1806 3656 2325 
Q 3656 3044 3420 3430 
Q 3184 3816 2847 3947 
Q 2603 4041 2063 4041 
L 1100 4041 
L 1100 541 
z
" transform="scale(0.015625)"/>
      <path id="ArialMT-46" d="M 525 0 
L 525 4581 
L 3616 4581 
L 3616 4041 
L 1131 4041 
L 1131 2622 
L 3281 2622 
L 3281 2081 
L 1131 2081 
L 1131 0 
L 525 0 
z
" transform="scale(0.015625)"/>
      <path id="ArialMT-2b" d="M 1603 741 
L 1603 1997 
L 356 1997 
L 356 2522 
L 1603 2522 
L 1603 3769 
L 2134 3769 
L 2134 2522 
L 3381 2522 
L 3381 1997 
L 2134 1997 
L 2134 741 
L 1603 741 
z
" transform="scale(0.015625)"/>
      <path id="ArialMT-62" d="M 941 0 
L 419 0 
L 419 4581 
L 981 4581 
L 981 2947 
Q 1338 3394 1891 3394 
Q 2197 3394 2470 3270 
Q 2744 3147 2920 2923 
Q 3097 2700 3197 2384 
Q 3297 2069 3297 1709 
Q 3297 856 2875 390 
Q 2453 -75 1863 -75 
Q 1275 -75 941 416 
L 941 0 
z
M 934 1684 
Q 934 1088 1097 822 
Q 1363 388 1816 388 
Q 2184 388 2453 708 
Q 2722 1028 2722 1663 
Q 2722 2313 2464 2622 
Q 2206 2931 1841 2931 
Q 1472 2931 1203 2611 
Q 934 2291 934 1684 
z
" transform="scale(0.015625)"/>
     </defs>
     <use xlink:href="#ArialMT-43"/>
     <use xlink:href="#ArialMT-6f" transform="translate(72.216797 0)"/>
     <use xlink:href="#ArialMT-72" transform="translate(127.832031 0)"/>
     <use xlink:href="#ArialMT-72" transform="translate(161.132812 0)"/>
     <use xlink:href="#ArialMT-65" transform="translate(194.433594 0)"/>
     <use xlink:href="#ArialMT-63" transform="translate(250.048828 0)"/>
     <use xlink:href="#ArialMT-74" transform="translate(300.048828 0)"/>
     <use xlink:href="#ArialMT-69" transform="translate(327.832031 0)"/>
     <use xlink:href="#ArialMT-6f" transform="translate(350.048828 0)"/>
     <use xlink:href="#ArialMT-6e" transform="translate(405.664062 0)"/>
     <use xlink:href="#ArialMT-20" transform="translate(461.279297 0)"/>
     <use xlink:href="#ArialMT-394" transform="translate(483.5625 0)"/>
     <use xlink:href="#ArialMT-76" transform="translate(550.359375 0)"/>
     <use xlink:href="#ArialMT-20" transform="translate(600.359375 0)"/>
     <use xlink:href="#ArialMT-2d" transform="translate(628.142578 0)"/>
     <use xlink:href="#ArialMT-2d" transform="translate(661.443359 0)"/>
     <use xlink:href="#ArialMT-20" transform="translate(694.744141 0)"/>
     <use xlink:href="#ArialMT-65" transform="translate(722.527344 0)"/>
     <use xlink:href="#ArialMT-6d" transform="translate(778.142578 0)"/>
     <use xlink:href="#ArialMT-70" transform="translate(861.443359 0)"/>
     <use xlink:href="#ArialMT-69" transform="translate(917.058594 0)"/>
     <use xlink:href="#ArialMT-72" transform="translate(939.275391 0)"/>
     <use xlink:href="#ArialMT-69" transform="translate(972.576172 0)"/>
     <use xlink:href="#ArialMT-63" transform="translate(994.792969 0)"/>
     <use xlink:href="#ArialMT-61" transform="translate(1044.792969 0)"/>
     <use xlink:href="#ArialMT-6c" transform="translate(1100.408203 0)"/>
     <use xlink:href="#ArialMT-20" transform="translate(1122.625 0)"/>
     <use xlink:href="#ArialMT-43" transform="translate(1150.408203 0)"/>
     <use xlink:href="#ArialMT-44" transform="translate(1222.625 0)"/>
     <use xlink:href="#ArialMT-46" transform="translate(1294.841797 0)"/>
     <use xlink:href="#ArialMT-20" transform="translate(1355.925781 0)"/>
     <use xlink:href="#ArialMT-28" transform="translate(1383.708984 0)"/>
     <use xlink:href="#ArialMT-74" transform="translate(1417.009766 0)"/>
     <use xlink:href="#ArialMT-6f" transform="translate(1444.792969 0)"/>
     <use xlink:href="#ArialMT-74" transform="translate(1500.408203 0)"/>
     <use xlink:href="#ArialMT-61" transform="translate(1528.191406 0)"/>
     <use xlink:href="#ArialMT-6c" transform="translate(1583.806641 0)"/>
     <use xlink:href="#ArialMT-20" transform="translate(1606.023438 0)"/>
     <use xlink:href="#ArialMT-2b" transform="translate(1633.806641 0)"/>
     <use xlink:href="#ArialMT-20" transform="translate(1692.205078 0)"/>
     <use xlink:href="#ArialMT-62" transform="translate(1719.988281 0)"/>
     <use xlink:href="#ArialMT-75" transform="translate(1775.603516 0)"/>
     <use xlink:href="#ArialMT-72" transform="translate(1831.21875 0)"/>
     <use xlink:href="#ArialMT-6e" transform="translate(1864.519531 0)"/>
     <use xlink:href="#ArialMT-73" transform="translate(1920.134766 0)"/>
     <use xlink:href="#ArialMT-29" transform="translate(1970.134766 0)"/>
    </g>
   </g>
   <g id="legend_1">
    <g id="patch_5">
     <path d="M 482.644572 194.345625 
L 597.967175 194.345625 
Q 599.966375 194.345625 599.966375 192.346425 
L 599.966375 136.610916 
Q 599.966375 134.611716 597.967175 134.611716 
L 482.644572 134.611716 
Q 480.645372 134.611716 480.645372 136.610916 
L 480.645372 192.346425 
Q 480.645372 194.345625 482.644572 194.345625 
z
" style="fill: #f5f5f5; opacity: 0.8; stroke: #cccccc; stroke-linejoin: miter"/>
    </g>
    <g id="line2d_19">
     <path d="M 484.643772 142.266465 
L 494.639772 142.266465 
L 504.635772 142.266465 
" style="fill: none; stroke: #111111; stroke-width: 2; stroke-linecap: round"/>
    </g>
    <g id="text_18">
     <!-- total Δv -->
     <g style="fill: #262626" transform="translate(512.632572 145.765065) scale(0.09996 -0.09996)">
      <use xlink:href="#ArialMT-74"/>
      <use xlink:href="#ArialMT-6f" transform="translate(27.783203 0)"/>
      <use xlink:href="#ArialMT-74" transform="translate(83.398438 0)"/>
      <use xlink:href="#ArialMT-61" transform="translate(111.181641 0)"/>
      <use xlink:href="#ArialMT-6c" transform="translate(166.796875 0)"/>
      <use xlink:href="#ArialMT-20" transform="translate(189.013672 0)"/>
      <use xlink:href="#ArialMT-394" transform="translate(211.296875 0)"/>
      <use xlink:href="#ArialMT-76" transform="translate(278.09375 0)"/>
     </g>
    </g>
    <g id="line2d_20">
     <path d="M 484.643772 156.435795 
L 494.639772 156.435795 
L 504.635772 156.435795 
" style="fill: none; stroke: #4878cf; stroke-width: 1.2; stroke-linecap: round"/>
    </g>
    <g id="text_19">
     <!-- dv1 periapsis raise -->
     <g style="fill: #262626" transform="translate(512.632572 159.934395) scale(0.09996 -0.09996)">
      <defs>
       <path id="ArialMT-64" d="M 2575 0 
L 2575 419 
Q 2259 -75 1647 -75 
Q 1250 -75 917 144 
Q 584 363 401 755 
Q 219 1147 219 1656 
Q 219 2153 384 2558 
Q 550 2963 881 3178 
Q 1213 3394 1622 3394 
Q 1922 3394 2156 3267 
Q 2391 3141 2538 2938 
L 2538 4581 
L 3097 4581 
L 3097 0 
L 2575 0 
z
M 797 1656 
Q 797 1019 1065 703 
Q 1334 388 1700 388 
Q 2069 388 2326 689 
Q 2584 991 2584 1609 
Q 2584 2291 2321 2609 
Q 2059 2928 1675 2928 
Q 1300 2928 1048 2622 
Q 797 2316 797 1656 
z
" transform="scale(0.015625)"/>
      </defs>
      <use xlink:href="#ArialMT-64"/>
      <use xlink:href="#ArialMT-76" transform="translate(55.615234 0)"/>
      <use xlink:href="#ArialMT-31" transform="translate(105.615234 0)"/>
      <use xlink:href="#ArialMT-20" transform="translate(161.230469 0)"/>
      <use xlink:href="#ArialMT-70" transform="translate(189.013672 0)"/>
      <use xlink:href="#ArialMT-65" transform="translate(244.628906 0)"/>
      <use xlink:href="#ArialMT-72" transform="translate(300.244141 0)"/>
      <use xlink:href="#ArialMT-69" transform="translate(333.544922 0)"/>
      <use xlink:href="#ArialMT-61" transform="translate(355.761719 0)"/>
      <use xlink:href="#ArialMT-70" transform="translate(411.376953 0)"/>
      <use xlink:href="#ArialMT-73" transform="translate(466.992188 0)"/>
      <use xlink:href="#ArialMT-69" transform="translate(516.992188 0)"/>
      <use xlink:href="#ArialMT-73" transform="translate(539.208984 0)"/>
      <use xlink:href="#ArialMT-20" transform="translate(589.208984 0)"/>
      <use xlink:href="#ArialMT-72" transform="translate(616.992188 0)"/>
      <use xlink:href="#ArialMT-61" transform="translate(650.292969 0)"/>
      <use xlink:href="#ArialMT-69" transform="translate(705.908203 0)"/>
      <use xlink:href="#ArialMT-73" transform="translate(728.125 0)"/>
      <use xlink:href="#ArialMT-65" transform="translate(778.125 0)"/>
     </g>
    </g>
    <g id="line2d_21">
     <path d="M 484.643772 170.575449 
L 494.639772 170.575449 
L 504.635772 170.575449 
" style="fill: none; stroke: #d1701f; stroke-width: 1.2; stroke-linecap: round"/>
    </g>
    <g id="text_20">
     <!-- dv2 circularization -->
     <g style="fill: #262626" transform="translate(512.632572 174.074049) scale(0.09996 -0.09996)">
      <defs>
       <path id="ArialMT-7a" d="M 125 0 
L 125 456 
L 2238 2881 
Q 1878 2863 1603 2863 
L 250 2863 
L 250 3319 
L 2963 3319 
L 2963 2947 
L 1166 841 
L 819 456 
Q 1197 484 1528 484 
L 3063 484 
L 3063 0 
L 125 0 
z
" transform="scale(0.015625)"/>
      </defs>
      <use xlink:href="#ArialMT-64"/>
      <use xlink:href="#ArialMT-76" transform="translate(55.615234 0)"/>
      <use xlink:href="#ArialMT-32" transform="translate(105.615234 0)"/>
      <use xlink:href="#ArialMT-20" transform="translate(161.230469 0)"/>
      <use xlink:href="#ArialMT-63" transform="translate(189.013672 0)"/>
      <use xlink:href="#ArialMT-69" transform="translate(239.013672 0)"/>
      <use xlink:href="#ArialMT-72" transform="translate(261.230469 0)"/>
      <use xlink:href="#ArialMT-63" transform="translate(294.53125 0)"/>
      <use xlink:href="#ArialMT-75" transform="translate(344.53125 0)"/>
      <use xlink:href="#ArialMT-6c" transform="translate(400.146484 0)"/>
      <use xlink:href="#ArialMT-61" transform="translate(422.363281 0)"/>
      <use xlink:href="#ArialMT-72" transform="translate(477.978516 0)"/>
      <use xlink:href="#ArialMT-69" transform="translate(511.279297 0)"/>
      <use xlink:href="#ArialMT-7a" transform="translate(533.496094 0)"/>
      <use xlink:href="#ArialMT-61" transform="translate(583.496094 0)"/>
      <use xlink:href="#ArialMT-74" transform="translate(639.111328 0)"/>
      <use xlink:href="#ArialMT-69" transform="translate(666.894531 0)"/>
      <use xlink:href="#ArialMT-6f" transform="translate(689.111328 0)"/>
      <use xlink:href="#ArialMT-6e" transform="translate(744.726562 0)"/>
     </g>
    </g>
    <g id="line2d_22">
     <path d="M 484.643772 184.744779 
L 494.639772 184.744779 
L 504.635772 184.744779 
" style="fill: none; stroke: #6a51a3; stroke-width: 1.2; stroke-linecap: round"/>
    </g>
    <g id="text_21">
     <!-- dv3 plane change -->
     <g style="fill: #262626" transform="translate(512.632572 188.243379) scale(0.09996 -0.09996)">
      <defs>
       <path id="ArialMT-33" d="M 269 1209 
L 831 1284 
Q 928 806 1161 595 
Q 1394 384 1728 384 
Q 2125 384 2398 659 
Q 2672 934 2672 1341 
Q 2672 1728 2419 1979 
Q 2166 2231 1775 2231 
Q 1616 2231 1378 2169 
L 1441 2663 
Q 1497 2656 1531 2656 
Q 1891 2656 2178 2843 
Q 2466 3031 2466 3422 
Q 2466 3731 2256 3934 
Q 2047 4138 1716 4138 
Q 1388 4138 1169 3931 
Q 950 3725 888 3313 
L 325 3413 
Q 428 3978 793 4289 
Q 1159 4600 1703 4600 
Q 2078 4600 2393 4439 
Q 2709 4278 2876 4000 
Q 3044 3722 3044 3409 
Q 3044 3113 2884 2869 
Q 2725 2625 2413 2481 
Q 2819 2388 3044 2092 
Q 3269 1797 3269 1353 
Q 3269 753 2831 336 
Q 2394 -81 1725 -81 
Q 1122 -81 723 278 
Q 325 638 269 1209 
z
" transform="scale(0.015625)"/>
       <path id="ArialMT-68" d="M 422 0 
L 422 4581 
L 984 4581 
L 984 2938 
Q 1378 3394 1978 3394 
Q 2347 3394 2619 3248 
Q 2891 3103 3008 2847 
Q 3125 2591 3125 2103 
L 3125 0 
L 2563 0 
L 2563 2103 
Q 2563 2525 2380 2717 
Q 2197 2909 1863 2909 
Q 1613 2909 1392 2779 
Q 1172 2650 1078 2428 
Q 984 2206 984 1816 
L 984 0 
L 422 0 
z
" transform="scale(0.015625)"/>
       <path id="ArialMT-67" d="M 319 -275 
L 866 -356 
Q 900 -609 1056 -725 
Q 1266 -881 1628 -881 
Q 2019 -881 2231 -725 
Q 2444 -569 2519 -288 
Q 2563 -116 2559 434 
Q 2191 0 1641 0 
Q 956 0 581 494 
Q 206 988 206 1678 
Q 206 2153 378 2554 
Q 550 2956 876 3175 
Q 1203 3394 1644 3394 
Q 2231 3394 2613 2919 
L 2613 3319 
L 3131 3319 
L 3131 450 
Q 3131 -325 2973 -648 
Q 2816 -972 2473 -1159 
Q 2131 -1347 1631 -1347 
Q 1038 -1347 672 -1080 
Q 306 -813 319 -275 
z
M 784 1719 
Q 784 1066 1043 766 
Q 1303 466 1694 466 
Q 2081 466 2343 764 
Q 2606 1063 2606 1700 
Q 2606 2309 2336 2618 
Q 2066 2928 1684 2928 
Q 1309 2928 1046 2623 
Q 784 2319 784 1719 
z
" transform="scale(0.015625)"/>
      </defs>
      <use xlink:href="#ArialMT-64"/>
      <use xlink:href="#ArialMT-76" transform="translate(55.615234 0)"/>
      <use xlink:href="#ArialMT-33" transform="translate(105.615234 0)"/>
      <use xlink:href="#ArialMT-20" transform="translate(161.230469 0)"/>
      <use xlink:href="#ArialMT-70" transform="translate(189.013672 0)"/>
      <use xlink:href="#ArialMT-6c" transform="translate(244.628906 0)"/>
      <use xlink:href="#ArialMT-61" transform="translate(266.845703 0)"/>
      <use xlink:href="#ArialMT-6e" transform="translate(322.460938 0)"/>
      <use xlink:href="#ArialMT-65" transform="translate(378.076172 0)"/>
      <use xlink:href="#ArialMT-20" transform="translate(433.691406 0)"/>
      <use xlink:href="#ArialMT-63" transform="translate(461.474609 0)"/>
      <use xlink:href="#ArialMT-68" transform="translate(511.474609 0)"/>
      <use xlink:href="#ArialMT-61" transform="translate(567.089844 0)"/>
      <use xlink:href="#ArialMT-6e" transform="translate(622.705078 0)"/>
      <use xlink:href="#ArialMT-67" transform="translate(678.320312 0)"/>
      <use xlink:href="#ArialMT-65" transform="translate(733.935547 0)"/>
     </g>
    </g>
   </g>
  </g>
 </g>
 <defs>
  <clipPath id="p51bc68549b">
   <rect x="46.964375" y="21.935625" width="558" height="177.408"/>
  </clipPath>
 </defs>
</svg>
