<?xml version="1.0" encoding="utf-8" standalone="no"?>
<!DOCTYPE svg PUBLIC "-//W3C//DTD SVG 1.1//EN"
  "http://www.w3.org/Graphics/SVG/1.1/DTD/svg11.dtd">
<svg xmlns:xlink="http://www.w3.org/1999/xlink" width="612.164375pt" height="241.364719pt" viewBox="0 0 612.164375 241.364719" xmlns="http://www.w3.org/2000/svg" version="1.1">
 <metadata>
  <rdf:RDF xmlns:dc="http://purl.org/dc/elements/1.1/" xmlns:cc="http://creativecommons.org/ns#" xmlns:rdf="http://www.w3.org/1999/02/22-rdf-syntax-ns#">
   <cc:Work>
    <dc:type rdf:resource="http://purl.org/dc/dcmitype/StillImage"/>
    <dc:date>2026-07-03T21:42:50.816750</dc:date>
    <dc:format>image/svg+xml</dc:format>
    <dc:creator>
     <cc:Agent>
      <dc:title>Matplotlib v3.10.9, https://matplotlib.org/</dc:title>
     </cc:Agent>
    </dc:creator>
   </cc:Work>
  </rdf:RDF>
 </metadata>
 <defs>
  <style type="text/css">*{stroke-linejoin: round; stroke-linecap: butt}</style>
 </defs>
 <g id="figure_1">
  <g id="patch_1">
   <path d="M 0 241.364719 
L 612.164375 241.364719 
L 612.164375 -0 
L 0 -0 
z
" style="fill: #ffffff"/>
  </g>
  <g id="axes_1">
   <g id="patch_2">
    <path d="M 46.964375 199.343625 
L 604.964375 199.343625 
L 604.964375 21.935625 
L 46.964375 21.935625 
z
" style="fill: #f5f5f5"/>
   </g>
   <g id="matplotlib.axis_1">
    <g id="xtick_1">
     <g id="line2d_1">
      <path d="M 72.326706 199.343625 
L 72.326706 21.935625 
" clip-path="url(#pca763cc782)" style="fill: none; stroke: #cccccc; stroke-linecap: round"/>
     </g>
     <g id="text_1">
      <!-- 0 -->
      <g style="fill: #262626" transform="translate(69.26819 216.717219) scale(0.11 -0.11)">
       <defs>
        <path id="ArialMT-30" d="M 266 2259 
Q 266 3072 433 3567 
Q 600 4063 929 4331 
Q 1259 4600 1759 4600 
Q 2128 4600 2406 4451 
Q 2684 4303 2865 4023 
Q 3047 3744 3150 3342 
Q 3253 2941 3253 2259 
Q 3253 1453 3087 958 
Q 2922 463 2592 192 
Q 2263 -78 1759 -78 
Q 1097 -78 719 397 
Q 266 969 266 2259 
z
M 844 2259 
Q 844 1131 1108 757 
Q 1372 384 1759 384 
Q 2147 384 2411 759 
Q 2675 1134 2675 2259 
Q 2675 3391 2411 3762 
Q 2147 4134 1753 4134 
Q 1366 4134 1134 3806 
Q 844 3388 844 2259 
z
" transform="scale(0.015625)"/>
       </defs>
       <use xlink:href="#ArialMT-30"/>
      </g>
     </g>
    </g>
    <g id="xtick_2">
     <g id="line2d_2">
      <path d="M 150.946058 199.343625 
L 150.946058 21.935625 
" clip-path="url(#pca763cc782)" style="fill: none; stroke: #cccccc; stroke-linecap: round"/>
     </g>
     <g id="text_2">
      <!-- 20 -->
      <g style="fill: #262626" transform="translate(144.829027 216.717219) scale(0.11 -0.11)">
       <defs>
        <path id="ArialMT-32" d="M 3222 541 
L 3222 0 
L 194 0 
Q 188 203 259 391 
Q 375 700 629 1000 
Q 884 1300 1366 1694 
Q 2113 2306 2375 2664 
Q 2638 3022 2638 3341 
Q 2638 3675 2398 3904 
Q 2159 4134 1775 4134 
Q 1369 4134 1125 3890 
Q 881 3647 878 3216 
L 300 3275 
Q 359 3922 746 4261 
Q 1134 4600 1788 4600 
Q 2447 4600 2831 4234 
Q 3216 3869 3216 3328 
Q 3216 3053 3103 2787 
Q 2991 2522 2730 2228 
Q 2469 1934 1863 1422 
Q 1356 997 1212 845 
Q 1069 694 975 541 
L 3222 541 
z
" transform="scale(0.015625)"/>
       </defs>
       <use xlink:href="#ArialMT-32"/>
       <use xlink:href="#ArialMT-30" transform="translate(55.615234 0)"/>
      </g>
     </g>
    </g>
    <g id="xtick_3">
     <g id="line2d_3">
      <path d="M 229.565411 199.343625 
L 229.565411 21.935625 
" clip-path="url(#pca763cc782)" style="fill: none; stroke: #cccccc; stroke-linecap: round"/>
     </g>
     <g id="text_3">
      <!-- 40 -->
      <g style="fill: #262626" transform="translate(223.44838 216.717219) scale(0.11 -0.11)">
       <defs>
        <path id="ArialMT-34" d="M 2069 0 
L 2069 1097 
L 81 1097 
L 81 1613 
L 2172 4581 
L 2631 4581 
L 2631 1613 
L 3250 1613 
L 3250 1097 
L 2631 1097 
L 2631 0 
L 2069 0 
z
M 2069 1613 
L 2069 3678 
L 634 1613 
L 2069 1613 
z
" transform="scale(0.015625)"/>
       </defs>
       <use xlink:href="#ArialMT-34"/>
       <use xlink:href="#ArialMT-30" transform="translate(55.615234 0)"/>
      </g>
     </g>
    </g>
    <g id="xtick_4">
     <g id="line2d_4">
      <path d="M 308.184764 199.343625 
L 308.184764 21.935625 
" clip-path="url(#pca763cc782)" style="fill: none; stroke: #cccccc; stroke-linecap: round"/>
     </g>
     <g id="text_4">
      <!-- 60 -->
      <g style="fill: #262626" transform="translate(302.067733 216.717219) scale(0.11 -0.11)">
       <defs>
        <path id="ArialMT-36" d="M 3184 3459 
L 2625 3416 
Q 2550 3747 2413 3897 
Q 2184 4138 1850 4138 
Q 1581 4138 1378 3988 
Q 1113 3794 959 3422 
Q 806 3050 800 2363 
Q 1003 2672 1297 2822 
Q 1591 2972 1913 2972 
Q 2475 2972 2870 2558 
Q 3266 2144 3266 1488 
Q 3266 1056 3080 686 
Q 2894 316 2569 119 
Q 2244 -78 1831 -78 
Q 1128 -78 684 439 
Q 241 956 241 2144 
Q 241 3472 731 4075 
Q 1159 4600 1884 4600 
Q 2425 4600 2770 4297 
Q 3116 3994 3184 3459 
z
M 888 1484 
Q 888 1194 1011 928 
Q 1134 663 1356 523 
Q 1578 384 1822 384 
Q 2178 384 2434 671 
Q 2691 959 2691 1453 
Q 2691 1928 2437 2201 
Q 2184 2475 1800 2475 
Q 1419 2475 1153 2201 
Q 888 1928 888 1484 
z
" transform="scale(0.015625)"/>
       </defs>
       <use xlink:href="#ArialMT-36"/>
       <use xlink:href="#ArialMT-30" transform="translate(55.615234 0)"/>
      </g>
     </g>
    </g>
    <g id="xtick_5">
     <g id="line2d_5">
      <path d="M 386.804117 199.343625 
L 386.804117 21.935625 
" clip-path="url(#pca763cc782)" style="fill: none; stroke: #cccccc; stroke-linecap: round"/>
     </g>
     <g id="text_5">
      <!-- 80 -->
      <g style="fill: #262626" transform="translate(380.687086 216.717219) scale(0.11 -0.11)">
       <defs>
        <path id="ArialMT-38" d="M 1131 2484 
Q 781 2613 612 2850 
Q 444 3088 444 3419 
Q 444 3919 803 4259 
Q 1163 4600 1759 4600 
Q 2359 4600 2725 4251 
Q 3091 3903 3091 3403 
Q 3091 3084 2923 2848 
Q 2756 2613 2416 2484 
Q 2838 2347 3058 2040 
Q 3278 1734 3278 1309 
Q 3278 722 2862 322 
Q 2447 -78 1769 -78 
Q 1091 -78 675 323 
Q 259 725 259 1325 
Q 259 1772 486 2073 
Q 713 2375 1131 2484 
z
M 1019 3438 
Q 1019 3113 1228 2906 
Q 1438 2700 1772 2700 
Q 2097 2700 2305 2904 
Q 2513 3109 2513 3406 
Q 2513 3716 2298 3927 
Q 2084 4138 1766 4138 
Q 1444 4138 1231 3931 
Q 1019 3725 1019 3438 
z
M 838 1322 
Q 838 1081 952 856 
Q 1066 631 1291 507 
Q 1516 384 1775 384 
Q 2178 384 2440 643 
Q 2703 903 2703 1303 
Q 2703 1709 2433 1975 
Q 2163 2241 1756 2241 
Q 1359 2241 1098 1978 
Q 838 1716 838 1322 
z
" transform="scale(0.015625)"/>
       </defs>
       <use xlink:href="#ArialMT-38"/>
       <use xlink:href="#ArialMT-30" transform="translate(55.615234 0)"/>
      </g>
     </g>
    </g>
    <g id="xtick_6">
     <g id="line2d_6">
      <path d="M 465.42347 199.343625 
L 465.42347 21.935625 
" clip-path="url(#pca763cc782)" style="fill: none; stroke: #cccccc; stroke-linecap: round"/>
     </g>
     <g id="text_6">
      <!-- 100 -->
      <g style="fill: #262626" transform="translate(456.247923 216.717219) scale(0.11 -0.11)">
       <defs>
        <path id="ArialMT-31" d="M 2384 0 
L 1822 0 
L 1822 3584 
Q 1619 3391 1289 3197 
Q 959 3003 697 2906 
L 697 3450 
Q 1169 3672 1522 3987 
Q 1875 4303 2022 4600 
L 2384 4600 
L 2384 0 
z
" transform="scale(0.015625)"/>
       </defs>
       <use xlink:href="#ArialMT-31"/>
       <use xlink:href="#ArialMT-30" transform="translate(55.615234 0)"/>
       <use xlink:href="#ArialMT-30" transform="translate(111.230469 0)"/>
      </g>
     </g>
    </g>
    <g id="xtick_7">
     <g id="line2d_7">
      <path d="M 544.042823 199.343625 
L 544.042823 21.935625 
" clip-path="url(#pca763cc782)" style="fill: none; stroke: #cccccc; stroke-linecap: round"/>
     </g>
     <g id="text_7">
      <!-- 120 -->
      <g style="fill: #262626" transform="translate(534.867276 216.717219) scale(0.11 -0.11)">
       <use xlink:href="#ArialMT-31"/>
       <use xlink:href="#ArialMT-32" transform="translate(55.615234 0)"/>
       <use xlink:href="#ArialMT-30" transform="translate(111.230469 0)"/>
      </g>
     </g>
    </g>
    <g id="text_8">
     <!-- correction Δv (m/s) -->
     <g style="fill: #262626" transform="translate(275.950625 231.639094) scale(0.12 -0.12)">
      <defs>
       <path id="ArialMT-63" d="M 2588 1216 
L 3141 1144 
Q 3050 572 2676 248 
Q 2303 -75 1759 -75 
Q 1078 -75 664 370 
Q 250 816 250 1647 
Q 250 2184 428 2587 
Q 606 2991 970 3192 
Q 1334 3394 1763 3394 
Q 2303 3394 2647 3120 
Q 2991 2847 3088 2344 
L 2541 2259 
Q 2463 2594 2264 2762 
Q 2066 2931 1784 2931 
Q 1359 2931 1093 2626 
Q 828 2322 828 1663 
Q 828 994 1084 691 
Q 1341 388 1753 388 
Q 2084 388 2306 591 
Q 2528 794 2588 1216 
z
" transform="scale(0.015625)"/>
       <path id="ArialMT-6f" d="M 213 1659 
Q 213 2581 725 3025 
Q 1153 3394 1769 3394 
Q 2453 3394 2887 2945 
Q 3322 2497 3322 1706 
Q 3322 1066 3130 698 
Q 2938 331 2570 128 
Q 2203 -75 1769 -75 
Q 1072 -75 642 372 
Q 213 819 213 1659 
z
M 791 1659 
Q 791 1022 1069 705 
Q 1347 388 1769 388 
Q 2188 388 2466 706 
Q 2744 1025 2744 1678 
Q 2744 2294 2464 2611 
Q 2184 2928 1769 2928 
Q 1347 2928 1069 2612 
Q 791 2297 791 1659 
z
" transform="scale(0.015625)"/>
       <path id="ArialMT-72" d="M 416 0 
L 416 3319 
L 922 3319 
L 922 2816 
Q 1116 3169 1280 3281 
Q 1444 3394 1641 3394 
Q 1925 3394 2219 3213 
L 2025 2691 
Q 1819 2813 1613 2813 
Q 1428 2813 1281 2702 
Q 1134 2591 1072 2394 
Q 978 2094 978 1738 
L 978 0 
L 416 0 
z
" transform="scale(0.015625)"/>
       <path id="ArialMT-65" d="M 2694 1069 
L 3275 997 
Q 3138 488 2766 206 
Q 2394 -75 1816 -75 
Q 1088 -75 661 373 
Q 234 822 234 1631 
Q 234 2469 665 2931 
Q 1097 3394 1784 3394 
Q 2450 3394 2872 2941 
Q 3294 2488 3294 1666 
Q 3294 1616 3291 1516 
L 816 1516 
Q 847 969 1125 678 
Q 1403 388 1819 388 
Q 2128 388 2347 550 
Q 2566 713 2694 1069 
z
M 847 1978 
L 2700 1978 
Q 2663 2397 2488 2606 
Q 2219 2931 1791 2931 
Q 1403 2931 1139 2672 
Q 875 2413 847 1978 
z
" transform="scale(0.015625)"/>
       <path id="ArialMT-74" d="M 1650 503 
L 1731 6 
Q 1494 -44 1306 -44 
Q 1000 -44 831 53 
Q 663 150 594 308 
Q 525 466 525 972 
L 525 2881 
L 113 2881 
L 113 3319 
L 525 3319 
L 525 4141 
L 1084 4478 
L 1084 3319 
L 1650 3319 
L 1650 2881 
L 1084 2881 
L 1084 941 
Q 1084 700 1114 631 
Q 1144 563 1211 522 
Q 1278 481 1403 481 
Q 1497 481 1650 503 
z
" transform="scale(0.015625)"/>
       <path id="ArialMT-69" d="M 425 3934 
L 425 4581 
L 988 4581 
L 988 3934 
L 425 3934 
z
M 425 0 
L 425 3319 
L 988 3319 
L 988 0 
L 425 0 
z
" transform="scale(0.015625)"/>
       <path id="ArialMT-6e" d="M 422 0 
L 422 3319 
L 928 3319 
L 928 2847 
Q 1294 3394 1984 3394 
Q 2284 3394 2536 3286 
Q 2788 3178 2913 3003 
Q 3038 2828 3088 2588 
Q 3119 2431 3119 2041 
L 3119 0 
L 2556 0 
L 2556 2019 
Q 2556 2363 2490 2533 
Q 2425 2703 2258 2804 
Q 2091 2906 1866 2906 
Q 1506 2906 1245 2678 
Q 984 2450 984 1813 
L 984 0 
L 422 0 
z
" transform="scale(0.015625)"/>
       <path id="ArialMT-20" transform="scale(0.015625)"/>
       <path id="ArialMT-394" d="M -6 0 
L 1753 4581 
L 2406 4581 
L 4281 0 
L -6 0 
z
M 834 541 
L 3381 541 
L 2391 3150 
Q 2169 3738 2066 4100 
Q 1981 3675 1819 3225 
L 834 541 
z
" transform="scale(0.015625)"/>
       <path id="ArialMT-76" d="M 1344 0 
L 81 3319 
L 675 3319 
L 1388 1331 
Q 1503 1009 1600 663 
Q 1675 925 1809 1294 
L 2547 3319 
L 3125 3319 
L 1869 0 
L 1344 0 
z
" transform="scale(0.015625)"/>
       <path id="ArialMT-28" d="M 1497 -1347 
Q 1031 -759 709 28 
Q 388 816 388 1659 
Q 388 2403 628 3084 
Q 909 3875 1497 4659 
L 1900 4659 
Q 1522 4009 1400 3731 
Q 1209 3300 1100 2831 
Q 966 2247 966 1656 
Q 966 153 1900 -1347 
L 1497 -1347 
z
" transform="scale(0.015625)"/>
       <path id="ArialMT-6d" d="M 422 0 
L 422 3319 
L 925 3319 
L 925 2853 
Q 1081 3097 1340 3245 
Q 1600 3394 1931 3394 
Q 2300 3394 2536 3241 
Q 2772 3088 2869 2813 
Q 3263 3394 3894 3394 
Q 4388 3394 4653 3120 
Q 4919 2847 4919 2278 
L 4919 0 
L 4359 0 
L 4359 2091 
Q 4359 2428 4304 2576 
Q 4250 2725 4106 2815 
Q 3963 2906 3769 2906 
Q 3419 2906 3187 2673 
Q 2956 2441 2956 1928 
L 2956 0 
L 2394 0 
L 2394 2156 
Q 2394 2531 2256 2718 
Q 2119 2906 1806 2906 
Q 1569 2906 1367 2781 
Q 1166 2656 1075 2415 
Q 984 2175 984 1722 
L 984 0 
L 422 0 
z
" transform="scale(0.015625)"/>
       <path id="ArialMT-2f" d="M 0 -78 
L 1328 4659 
L 1778 4659 
L 453 -78 
L 0 -78 
z
" transform="scale(0.015625)"/>
       <path id="ArialMT-73" d="M 197 991 
L 753 1078 
Q 800 744 1014 566 
Q 1228 388 1613 388 
Q 2000 388 2187 545 
Q 2375 703 2375 916 
Q 2375 1106 2209 1216 
Q 2094 1291 1634 1406 
Q 1016 1563 777 1677 
Q 538 1791 414 1992 
Q 291 2194 291 2438 
Q 291 2659 392 2848 
Q 494 3038 669 3163 
Q 800 3259 1026 3326 
Q 1253 3394 1513 3394 
Q 1903 3394 2198 3281 
Q 2494 3169 2634 2976 
Q 2775 2784 2828 2463 
L 2278 2388 
Q 2241 2644 2061 2787 
Q 1881 2931 1553 2931 
Q 1166 2931 1000 2803 
Q 834 2675 834 2503 
Q 834 2394 903 2306 
Q 972 2216 1119 2156 
Q 1203 2125 1616 2013 
Q 2213 1853 2448 1751 
Q 2684 1650 2818 1456 
Q 2953 1263 2953 975 
Q 2953 694 2789 445 
Q 2625 197 2315 61 
Q 2006 -75 1616 -75 
Q 969 -75 630 194 
Q 291 463 197 991 
z
" transform="scale(0.015625)"/>
       <path id="ArialMT-29" d="M 791 -1347 
L 388 -1347 
Q 1322 153 1322 1656 
Q 1322 2244 1188 2822 
Q 1081 3291 891 3722 
Q 769 4003 388 4659 
L 791 4659 
Q 1378 3875 1659 3084 
Q 1900 2403 1900 1659 
Q 1900 816 1576 28 
Q 1253 -759 791 -1347 
z
" transform="scale(0.015625)"/>
      </defs>
      <use xlink:href="#ArialMT-63"/>
      <use xlink:href="#ArialMT-6f" transform="translate(50 0)"/>
      <use xlink:href="#ArialMT-72" transform="translate(105.615234 0)"/>
      <use xlink:href="#ArialMT-72" transform="translate(138.916016 0)"/>
      <use xlink:href="#ArialMT-65" transform="translate(172.216797 0)"/>
      <use xlink:href="#ArialMT-63" transform="translate(227.832031 0)"/>
      <use xlink:href="#ArialMT-74" transform="translate(277.832031 0)"/>
      <use xlink:href="#ArialMT-69" transform="translate(305.615234 0)"/>
      <use xlink:href="#ArialMT-6f" transform="translate(327.832031 0)"/>
      <use xlink:href="#ArialMT-6e" transform="translate(383.447266 0)"/>
      <use xlink:href="#ArialMT-20" transform="translate(439.0625 0)"/>
      <use xlink:href="#ArialMT-394" transform="translate(461.345703 0)"/>
      <use xlink:href="#ArialMT-76" transform="translate(528.142578 0)"/>
      <use xlink:href="#ArialMT-20" transform="translate(578.142578 0)"/>
      <use xlink:href="#ArialMT-28" transform="translate(605.925781 0)"/>
      <use xlink:href="#ArialMT-6d" transform="translate(639.226562 0)"/>
      <use xlink:href="#ArialMT-2f" transform="translate(722.527344 0)"/>
      <use xlink:href="#ArialMT-73" transform="translate(750.310547 0)"/>
      <use xlink:href="#ArialMT-29" transform="translate(800.310547 0)"/>
     </g>
    </g>
   </g>
   <g id="matplotlib.axis_2">
    <g id="ytick_1">
     <g id="line2d_8">
      <path d="M 46.964375 199.343625 
L 604.964375 199.343625 
" clip-path="url(#pca763cc782)" style="fill: none; stroke: #cccccc; stroke-linecap: round"/>
     </g>
     <g id="text_9">
      <!-- 0.0 -->
      <g style="fill: #262626" transform="translate(22.174375 203.280422) scale(0.11 -0.11)">
       <defs>
        <path id="ArialMT-2e" d="M 581 0 
L 581 641 
L 1222 641 
L 1222 0 
L 581 0 
z
" transform="scale(0.015625)"/>
       </defs>
       <use xlink:href="#ArialMT-30"/>
       <use xlink:href="#ArialMT-2e" transform="translate(55.615234 0)"/>
       <use xlink:href="#ArialMT-30" transform="translate(83.398438 0)"/>
      </g>
     </g>
    </g>
    <g id="ytick_2">
     <g id="line2d_9">
      <path d="M 46.964375 163.862025 
L 604.964375 163.862025 
" clip-path="url(#pca763cc782)" style="fill: none; stroke: #cccccc; stroke-linecap: round"/>
     </g>
     <g id="text_10">
      <!-- 0.2 -->
      <g style="fill: #262626" transform="translate(22.174375 167.798822) scale(0.11 -0.11)">
       <use xlink:href="#ArialMT-30"/>
       <use xlink:href="#ArialMT-2e" transform="translate(55.615234 0)"/>
       <use xlink:href="#ArialMT-32" transform="translate(83.398438 0)"/>
      </g>
     </g>
    </g>
    <g id="ytick_3">
     <g id="line2d_10">
      <path d="M 46.964375 128.380425 
L 604.964375 128.380425 
" clip-path="url(#pca763cc782)" style="fill: none; stroke: #cccccc; stroke-linecap: round"/>
     </g>
     <g id="text_11">
      <!-- 0.4 -->
      <g style="fill: #262626" transform="translate(22.174375 132.317222) scale(0.11 -0.11)">
       <use xlink:href="#ArialMT-30"/>
       <use xlink:href="#ArialMT-2e" transform="translate(55.615234 0)"/>
       <use xlink:href="#ArialMT-34" transform="translate(83.398438 0)"/>
      </g>
     </g>
    </g>
    <g id="ytick_4">
     <g id="line2d_11">
      <path d="M 46.964375 92.898825 
L 604.964375 92.898825 
" clip-path="url(#pca763cc782)" style="fill: none; stroke: #cccccc; stroke-linecap: round"/>
     </g>
     <g id="text_12">
      <!-- 0.6 -->
      <g style="fill: #262626" transform="translate(22.174375 96.835622) scale(0.11 -0.11)">
       <use xlink:href="#ArialMT-30"/>
       <use xlink:href="#ArialMT-2e" transform="translate(55.615234 0)"/>
       <use xlink:href="#ArialMT-36" transform="translate(83.398438 0)"/>
      </g>
     </g>
    </g>
    <g id="ytick_5">
     <g id="line2d_12">
      <path d="M 46.964375 57.417225 
L 604.964375 57.417225 
" clip-path="url(#pca763cc782)" style="fill: none; stroke: #cccccc; stroke-linecap: round"/>
     </g>
     <g id="text_13">
      <!-- 0.8 -->
      <g style="fill: #262626" transform="translate(22.174375 61.354022) scale(0.11 -0.11)">
       <use xlink:href="#ArialMT-30"/>
       <use xlink:href="#ArialMT-2e" transform="translate(55.615234 0)"/>
       <use xlink:href="#ArialMT-38" transform="translate(83.398438 0)"/>
      </g>
     </g>
    </g>
    <g id="ytick_6">
     <g id="line2d_13">
      <path d="M 46.964375 21.935625 
L 604.964375 21.935625 
" clip-path="url(#pca763cc782)" style="fill: none; stroke: #cccccc; stroke-linecap: round"/>
     </g>
     <g id="text_14">
      <!-- 1.0 -->
      <g style="fill: #262626" transform="translate(22.174375 25.872422) scale(0.11 -0.11)">
       <use xlink:href="#ArialMT-31"/>
       <use xlink:href="#ArialMT-2e" transform="translate(55.615234 0)"/>
       <use xlink:href="#ArialMT-30" transform="translate(83.398438 0)"/>
      </g>
     </g>
    </g>
    <g id="text_15">
     <!-- cumulative fraction -->
     <g style="fill: #262626" transform="translate(15.789375 160.658062) rotate(-90) scale(0.12 -0.12)">
      <defs>
       <path id="ArialMT-75" d="M 2597 0 
L 2597 488 
Q 2209 -75 1544 -75 
Q 1250 -75 995 37 
Q 741 150 617 320 
Q 494 491 444 738 
Q 409 903 409 1263 
L 409 3319 
L 972 3319 
L 972 1478 
Q 972 1038 1006 884 
Q 1059 663 1231 536 
Q 1403 409 1656 409 
Q 1909 409 2131 539 
Q 2353 669 2445 892 
Q 2538 1116 2538 1541 
L 2538 3319 
L 3100 3319 
L 3100 0 
L 2597 0 
z
" transform="scale(0.015625)"/>
       <path id="ArialMT-6c" d="M 409 0 
L 409 4581 
L 972 4581 
L 972 0 
L 409 0 
z
" transform="scale(0.015625)"/>
       <path id="ArialMT-61" d="M 2588 409 
Q 2275 144 1986 34 
Q 1697 -75 1366 -75 
Q 819 -75 525 192 
Q 231 459 231 875 
Q 231 1119 342 1320 
Q 453 1522 633 1644 
Q 813 1766 1038 1828 
Q 1203 1872 1538 1913 
Q 2219 1994 2541 2106 
Q 2544 2222 2544 2253 
Q 2544 2597 2384 2738 
Q 2169 2928 1744 2928 
Q 1347 2928 1158 2789 
Q 969 2650 878 2297 
L 328 2372 
Q 403 2725 575 2942 
Q 747 3159 1072 3276 
Q 1397 3394 1825 3394 
Q 2250 3394 2515 3294 
Q 2781 3194 2906 3042 
Q 3031 2891 3081 2659 
Q 3109 2516 3109 2141 
L 3109 1391 
Q 3109 606 3145 398 
Q 3181 191 3288 0 
L 2700 0 
Q 2613 175 2588 409 
z
M 2541 1666 
Q 2234 1541 1622 1453 
Q 1275 1403 1131 1340 
Q 988 1278 909 1158 
Q 831 1038 831 891 
Q 831 666 1001 516 
Q 1172 366 1500 366 
Q 1825 366 2078 508 
Q 2331 650 2450 897 
Q 2541 1088 2541 1459 
L 2541 1666 
z
" transform="scale(0.015625)"/>
       <path id="ArialMT-66" d="M 556 0 
L 556 2881 
L 59 2881 
L 59 3319 
L 556 3319 
L 556 3672 
Q 556 4006 616 4169 
Q 697 4388 901 4523 
Q 1106 4659 1475 4659 
Q 1713 4659 2000 4603 
L 1916 4113 
Q 1741 4144 1584 4144 
Q 1328 4144 1222 4034 
Q 1116 3925 1116 3625 
L 1116 3319 
L 1763 3319 
L 1763 2881 
L 1116 2881 
L 1116 0 
L 556 0 
z
" transform="scale(0.015625)"/>
      </defs>
      <use xlink:href="#ArialMT-63"/>
      <use xlink:href="#ArialMT-75" transform="translate(50 0)"/>
      <use xlink:href="#ArialMT-6d" transform="translate(105.615234 0)"/>
      <use xlink:href="#ArialMT-75" transform="translate(188.916016 0)"/>
      <use xlink:href="#ArialMT-6c" transform="translate(244.53125 0)"/>
      <use xlink:href="#ArialMT-61" transform="translate(266.748047 0)"/>
      <use xlink:href="#ArialMT-74" transform="translate(322.363281 0)"/>
      <use xlink:href="#ArialMT-69" transform="translate(350.146484 0)"/>
      <use xlink:href="#ArialMT-76" transform="translate(372.363281 0)"/>
      <use xlink:href="#ArialMT-65" transform="translate(422.363281 0)"/>
      <use xlink:href="#ArialMT-20" transform="translate(477.978516 0)"/>
      <use xlink:href="#ArialMT-66" transform="translate(505.761719 0)"/>
      <use xlink:href="#ArialMT-72" transform="translate(533.544922 0)"/>
      <use xlink:href="#ArialMT-61" transform="translate(566.845703 0)"/>
      <use xlink:href="#ArialMT-63" transform="translate(622.460938 0)"/>
      <use xlink:href="#ArialMT-74" transform="translate(672.460938 0)"/>
      <use xlink:href="#ArialMT-69" transform="translate(700.244141 0)"/>
      <use xlink:href="#ArialMT-6f" transform="translate(722.460938 0)"/>
      <use xlink:href="#ArialMT-6e" transform="translate(778.076172 0)"/>
     </g>
    </g>
   </g>
   <g id="line2d_14">
    <path d="M 480.949601 199.166217 
L 483.046253 198.811401 
L 483.165666 198.633993 
L 483.964652 198.456585 
L 484.933773 197.746953 
L 485.135049 197.214729 
L 486.402561 195.972873 
L 486.4554 195.618057 
L 486.649139 195.263241 
L 487.172765 195.085833 
L 487.475985 193.843977 
L 487.722859 193.311753 
L 487.841124 192.424713 
L 488.286586 192.069897 
L 488.399196 191.715081 
L 488.715162 190.473225 
L 488.80876 190.118409 
L 488.928162 189.586185 
L 489.110016 188.876553 
L 489.411516 188.166921 
L 489.766051 186.747657 
L 489.912188 186.392841 
L 490.048512 186.038025 
L 490.084899 185.505801 
L 490.192115 185.150985 
L 490.297806 184.441353 
L 490.44676 184.086537 
L 490.571317 183.376905 
L 490.729767 183.022089 
L 490.922759 182.135049 
L 491.217994 180.006153 
L 491.31541 179.473929 
L 491.471419 178.764297 
L 491.569663 178.409481 
L 491.573484 177.877257 
L 491.722077 177.522441 
L 491.845401 176.457993 
L 491.929717 176.103177 
L 492.125551 175.393545 
L 492.374891 173.796873 
L 492.546935 172.555017 
L 492.991774 170.958345 
L 493.108988 170.071305 
L 493.237561 169.361673 
L 493.660003 167.232777 
L 493.690574 166.877961 
L 493.835739 166.523145 
L 494.064499 164.926473 
L 494.183818 164.571657 
L 494.41682 161.910537 
L 494.566009 161.733129 
L 494.671565 161.200905 
L 495.002476 159.604233 
L 495.114999 158.539785 
L 495.117397 158.362377 
L 495.322775 158.007561 
L 495.703133 155.878665 
L 495.869528 155.169033 
L 496.034725 153.217545 
L 496.151403 151.443465 
L 496.495012 149.669385 
L 496.610225 148.604937 
L 496.766119 148.250121 
L 496.904775 147.540489 
L 497.450743 143.105289 
L 497.576999 142.218249 
L 497.695327 141.686025 
L 498.027338 140.089353 
L 498.228291 139.734537 
L 498.452892 137.605641 
L 498.629617 137.250825 
L 498.841285 135.654153 
L 499.040516 134.767113 
L 499.44143 129.799689 
L 499.559147 128.912649 
L 499.696792 127.138569 
L 499.879019 125.364489 
L 500.177842 121.993737 
L 500.487906 118.977801 
L 500.578109 117.913353 
L 500.904952 116.139273 
L 501.110882 115.429641 
L 502.149178 107.623689 
L 502.254771 107.268873 
L 502.346825 106.559241 
L 502.544615 105.672201 
L 503.126678 102.656265 
L 503.280849 102.301449 
L 503.287893 102.124041 
L 503.428442 101.769225 
L 503.741962 98.753289 
L 504.135577 95.382537 
L 504.274711 94.318089 
L 504.410923 92.898825 
L 504.587249 92.544009 
L 504.875499 90.415113 
L 505.458385 88.286217 
L 505.542565 87.931401 
L 505.645318 87.576585 
L 505.762314 87.044361 
L 505.831832 86.512137 
L 505.843023 86.157321 
L 505.984204 85.802505 
L 506.108362 84.738057 
L 506.359016 83.318793 
L 506.550832 82.431753 
L 506.558203 82.254345 
L 506.709338 82.076937 
L 506.801126 81.722121 
L 507.626389 77.464329 
L 507.763435 76.222473 
L 508.351444 73.738761 
L 508.583965 72.674313 
L 508.683087 72.319497 
L 508.885727 71.432457 
L 509.156164 70.368009 
L 509.41492 68.416521 
L 509.99046 65.577993 
L 510.129677 64.690953 
L 510.191533 64.336137 
L 510.335816 63.803913 
L 510.65065 62.739465 
L 510.7509 62.029833 
L 510.90735 61.675017 
L 510.979621 61.142793 
L 511.091899 60.787977 
L 511.406469 59.013897 
L 511.684044 57.949449 
L 511.816058 57.239817 
L 512.14248 56.707593 
L 512.257715 56.175369 
L 512.541605 54.046473 
L 512.837006 52.449801 
L 513.011069 52.094985 
L 513.161968 51.030537 
L 513.491972 50.498313 
L 513.675825 49.966089 
L 513.991123 49.079049 
L 514.049242 48.724233 
L 514.234383 48.369417 
L 514.490308 47.304969 
L 514.742834 47.127561 
L 514.971596 46.240521 
L 515.425243 45.885705 
L 516.098039 43.934217 
L 516.318211 43.756809 
L 516.389763 43.224585 
L 516.875902 42.514953 
L 516.970053 42.160137 
L 517.294501 41.982729 
L 517.340962 41.805321 
L 517.877737 41.273097 
L 517.891594 41.095689 
L 518.186602 40.918281 
L 519.726065 37.370121 
L 519.999679 37.015305 
L 520.097073 36.660489 
L 520.703572 35.418633 
L 521.061137 33.999369 
L 521.474476 33.821961 
L 521.795804 33.289737 
L 522.535461 32.225289 
L 522.585919 32.047881 
L 522.917333 31.693065 
L 523.182878 31.338249 
L 523.804742 30.983433 
L 523.89516 30.806025 
L 524.174223 30.628617 
L 524.205797 30.451209 
L 525.24921 29.741577 
L 525.510037 29.564169 
L 525.60393 29.209353 
L 525.78581 28.854537 
L 526.075552 28.677129 
L 526.150666 28.499721 
L 526.998802 28.144905 
L 527.207595 27.435273 
L 527.323081 27.080457 
L 528.537125 26.903049 
L 529.022841 26.370825 
L 529.122066 26.193417 
L 530.080737 25.838601 
L 530.370528 25.483785 
L 531.017235 25.306377 
L 531.176651 25.128969 
L 531.538759 24.951561 
L 532.361217 24.774153 
L 533.306314 23.709705 
L 535.800608 23.354889 
L 540.22233 23.177481 
L 544.167653 22.467849 
L 557.607713 22.113033 
L 579.600739 21.935625 
L 579.600739 21.935625 
" clip-path="url(#pca763cc782)" style="fill: none; stroke: #111111; stroke-width: 2; stroke-linecap: round"/>
   </g>
   <g id="line2d_15">
    <path d="M 473.936942 199.166217 
L 474.932817 198.988809 
L 475.095661 198.811401 
L 476.664899 198.279177 
L 476.708683 198.101769 
L 477.607363 197.569545 
L 477.621502 197.392137 
L 478.036787 196.682505 
L 478.042784 196.505097 
L 478.32026 196.327689 
L 478.345663 196.150281 
L 478.849493 195.618057 
L 478.961934 195.085833 
L 479.322558 194.553609 
L 479.402474 193.843977 
L 479.64596 193.311753 
L 479.758 191.182857 
L 480.086131 189.053961 
L 480.356758 187.634697 
L 480.557086 185.150985 
L 480.941684 181.425417 
L 481.046113 181.070601 
L 481.204405 178.764297 
L 481.268225 178.232073 
L 481.404629 176.812809 
L 481.847555 171.490569 
L 482.030325 169.361673 
L 482.968076 157.120521 
L 483.807385 143.105289 
L 483.970945 140.798985 
L 484.124647 138.315273 
L 484.451602 133.880073 
L 485.024924 122.880777 
L 485.101113 121.638921 
L 485.314595 118.090761 
L 485.418987 116.848905 
L 485.562906 114.187785 
L 486.426458 98.930697 
L 486.557454 96.092169 
L 486.59569 95.027721 
L 486.753474 92.898825 
L 486.848796 92.544009 
L 487.058788 87.753993 
L 487.144995 86.866953 
L 487.390411 82.076937 
L 487.466273 81.544713 
L 487.622762 79.415817 
L 487.779189 77.286921 
L 487.894794 75.158025 
L 489.092776 58.481673 
L 489.341674 54.933513 
L 489.491442 53.869065 
L 489.617531 51.740169 
L 489.851499 49.256457 
L 490.073679 46.417929 
L 490.174445 45.708297 
L 490.344166 43.401993 
L 490.532986 42.869769 
L 490.905473 40.563465 
L 491.043879 39.499017 
L 491.336328 37.547529 
L 491.49358 36.483081 
L 491.934248 34.531593 
L 492.502337 32.757513 
L 492.594836 32.047881 
L 492.806536 30.628617 
L 493.221593 28.677129 
L 493.631345 28.144905 
L 493.698059 27.612681 
L 493.728515 27.257865 
L 493.873502 26.903049 
L 493.969144 26.370825 
L 494.414444 25.838601 
L 494.611755 25.128969 
L 495.025027 24.774153 
L 495.038942 24.596745 
L 495.323902 24.419337 
L 495.434339 24.064521 
L 496.519045 23.709705 
L 496.649821 23.354889 
L 496.679253 23.177481 
L 496.876233 23.000073 
L 499.005446 22.645257 
L 499.618247 22.467849 
L 502.135241 22.290441 
L 503.030911 22.113033 
L 503.058635 21.935625 
L 503.058635 21.935625 
" clip-path="url(#pca763cc782)" style="fill: none; stroke: #4878cf; stroke-width: 1.2; stroke-linecap: round"/>
   </g>
   <g id="line2d_16">
    <path d="M 72.328011 199.166217 
L 72.417624 198.633993 
L 72.68973 196.150281 
L 72.787535 195.795465 
L 73.050133 193.311753 
L 73.150939 191.360265 
L 73.268565 190.473225 
L 73.320808 189.586185 
L 73.473429 189.053961 
L 73.58738 187.279881 
L 74.74305 176.280585 
L 75.038719 174.683913 
L 75.168813 173.442057 
L 75.277287 172.555017 
L 75.398732 171.490569 
L 75.627423 169.361673 
L 75.707192 168.297225 
L 75.788781 167.765001 
L 75.869537 166.168329 
L 76.004417 165.813513 
L 76.227825 162.974985 
L 76.387314 161.023497 
L 76.499209 159.249417 
L 76.711156 157.475337 
L 76.835282 157.120521 
L 77.74935 149.846793 
L 77.876294 148.427529 
L 78.022585 147.363081 
L 78.196745 144.701961 
L 78.32576 144.169737 
L 78.600693 141.153801 
L 79.056486 137.605641 
L 79.276523 135.476745 
L 79.330879 134.944521 
L 79.485617 133.525257 
L 79.945901 129.622281 
L 80.037767 128.912649 
L 80.209219 127.848201 
L 80.350735 125.719305 
L 80.720747 122.525961 
L 81.055953 120.219657 
L 81.147385 119.332617 
L 81.309468 118.445577 
L 81.575432 116.139273 
L 81.748219 115.252233 
L 82.342457 109.575177 
L 82.444962 109.220361 
L 82.773323 106.204425 
L 82.982426 104.785161 
L 83.570316 100.527369 
L 83.706033 99.995145 
L 83.825813 99.108105 
L 83.915451 98.221065 
L 84.025624 96.979209 
L 84.222046 96.446985 
L 84.617337 92.898825 
L 84.832658 91.302153 
L 85.014766 90.060297 
L 85.213531 89.350665 
L 85.444522 87.221769 
L 85.63235 86.866953 
L 86.769377 79.061001 
L 86.937518 78.706185 
L 87.116065 77.996553 
L 87.567711 74.625801 
L 87.697038 74.270985 
L 87.697229 74.093577 
L 87.884288 73.738761 
L 87.991425 73.029129 
L 88.059283 72.674313 
L 88.112635 72.319497 
L 88.228924 71.787273 
L 88.287401 70.900233 
L 88.413741 70.545417 
L 88.73463 67.884297 
L 89.056877 66.997257 
L 89.177042 66.110217 
L 89.322346 65.577993 
L 89.55512 65.045769 
L 89.694784 64.336137 
L 89.966755 63.449097 
L 89.976331 63.094281 
L 90.402965 62.384649 
L 90.508292 61.852425 
L 90.890777 59.723529 
L 91.081006 58.836489 
L 91.331942 57.949449 
L 91.416984 57.062409 
L 92.219018 55.110921 
L 92.443327 53.514249 
L 92.78991 52.094985 
L 93.143967 51.207945 
L 93.455434 49.966089 
L 93.733767 49.256457 
L 94.395502 46.240521 
L 94.647931 45.708297 
L 94.743116 45.176073 
L 94.98751 44.289033 
L 95.026128 43.934217 
L 95.382157 43.401993 
L 95.427072 43.047177 
L 95.792511 42.692361 
L 96.327999 41.627913 
L 96.385078 41.095689 
L 96.48622 40.740873 
L 96.703118 40.563465 
L 96.778286 40.208649 
L 96.918508 39.853833 
L 96.942527 39.499017 
L 97.815546 37.724937 
L 97.856123 37.547529 
L 98.158044 37.370121 
L 98.437059 36.660489 
L 98.795743 36.305673 
L 99.455793 34.709001 
L 99.879801 34.354185 
L 100.195913 33.821961 
L 100.761302 33.467145 
L 100.998463 32.934921 
L 101.216349 32.580105 
L 101.290375 32.225289 
L 101.993894 31.870473 
L 102.251871 31.515657 
L 102.667895 31.160841 
L 102.716166 30.983433 
L 103.411853 30.273801 
L 103.567389 29.564169 
L 104.186356 29.386761 
L 104.45135 28.854537 
L 104.57742 28.499721 
L 105.517252 28.322313 
L 105.769227 28.144905 
L 105.804567 27.967497 
L 105.991389 27.790089 
L 106.965035 27.612681 
L 107.083045 27.435273 
L 107.366264 27.257865 
L 107.398663 27.080457 
L 108.034061 26.725641 
L 108.079008 26.548233 
L 108.658881 26.016009 
L 109.195696 25.838601 
L 109.386226 25.483785 
L 109.552445 25.306377 
L 110.094654 24.951561 
L 110.233178 24.774153 
L 111.451898 24.241929 
L 112.52123 23.887113 
L 112.556017 23.709705 
L 113.282765 23.532297 
L 114.594562 23.354889 
L 114.912465 23.177481 
L 116.298477 23.000073 
L 121.988913 22.822665 
L 122.742713 22.467849 
L 137.930085 22.113033 
L 166.606383 21.935625 
L 166.606383 21.935625 
" clip-path="url(#pca763cc782)" style="fill: none; stroke: #d1701f; stroke-width: 1.2; stroke-linecap: round"/>
   </g>
   <g id="line2d_17">
    <path d="M 72.331606 199.166217 
L 72.567187 192.956937 
L 75.28745 139.024905 
L 75.406306 136.008969 
L 75.478863 135.654153 
L 75.584578 134.234889 
L 76.053017 124.832265 
L 76.141068 123.767817 
L 76.294602 121.106697 
L 76.654762 115.252233 
L 76.80458 114.010377 
L 77.440032 105.672201 
L 77.57911 102.124041 
L 77.934395 98.043657 
L 78.512109 90.237705 
L 78.554981 89.350665 
L 79.265258 81.012489 
L 79.498923 79.238409 
L 79.674599 76.932105 
L 79.770154 76.045065 
L 79.985202 72.674313 
L 80.842224 62.916873 
L 80.925653 62.562057 
L 81.705051 55.288329 
L 82.167275 51.740169 
L 82.345299 51.030537 
L 82.630841 49.611273 
L 82.928241 47.482377 
L 83.045686 45.885705 
L 83.150032 44.821257 
L 83.272977 43.224585 
L 83.462428 42.337545 
L 83.576782 40.918281 
L 83.695142 40.563465 
L 84.06689 37.902345 
L 84.214719 37.192713 
L 84.326455 36.305673 
L 84.555049 35.241225 
L 84.714 35.063817 
L 84.805547 34.531593 
L 85.278955 32.402697 
L 85.555262 32.225289 
L 86.617706 28.499721 
L 86.880346 28.322313 
L 86.985241 27.257865 
L 88.182267 26.370825 
L 88.461232 25.661193 
L 88.577464 25.306377 
L 89.006065 25.128969 
L 89.589072 24.241929 
L 90.515017 23.887113 
L 90.582016 23.532297 
L 90.87739 23.177481 
L 90.91201 23.000073 
L 91.966512 22.645257 
L 92.076008 22.467849 
L 93.100031 22.290441 
L 93.123121 22.113033 
L 93.261502 21.935625 
L 93.261502 21.935625 
" clip-path="url(#pca763cc782)" style="fill: none; stroke: #6a51a3; stroke-width: 1.2; stroke-linecap: round"/>
   </g>
   <g id="patch_3">
    <path d="M 46.964375 199.343625 
L 46.964375 21.935625 
" style="fill: none; stroke: #cccccc; stroke-width: 1.25; stroke-linejoin: miter; stroke-linecap: square"/>
   </g>
   <g id="patch_4">
    <path d="M 46.964375 199.343625 
L 604.964375 199.343625 
" style="fill: none; stroke: #cccccc; stroke-width: 1.25; stroke-linejoin: miter; stroke-linecap: square"/>
   </g>
   <g id="text_16">
    <!-- Correction Δv - - empirical CDF (total + burns) -->
    <g style="fill: #262626" transform="translate(205.764688 15.935625) scale(0.12 -0.12)">
     <defs>
      <path id="ArialMT-43" d="M 3763 1606 
L 4369 1453 
Q 4178 706 3683 314 
Q 3188 -78 2472 -78 
Q 1731 -78 1267 223 
Q 803 525 561 1097 
Q 319 1669 319 2325 
Q 319 3041 592 3573 
Q 866 4106 1370 4382 
Q 1875 4659 2481 4659 
Q 3169 4659 3637 4309 
Q 4106 3959 4291 3325 
L 3694 3184 
Q 3534 3684 3231 3912 
Q 2928 4141 2469 4141 
Q 1941 4141 1586 3887 
Q 1231 3634 1087 3207 
Q 944 2781 944 2328 
Q 944 1744 1114 1308 
Q 1284 872 1643 656 
Q 2003 441 2422 441 
Q 2931 441 3284 734 
Q 3638 1028 3763 1606 
z
" transform="scale(0.015625)"/>
      <path id="ArialMT-2d" d="M 203 1375 
L 203 1941 
L 1931 1941 
L 1931 1375 
L 203 1375 
z
" transform="scale(0.015625)"/>
      <path id="ArialMT-70" d="M 422 -1272 
L 422 3319 
L 934 3319 
L 934 2888 
Q 1116 3141 1344 3267 
Q 1572 3394 1897 3394 
Q 2322 3394 2647 3175 
Q 2972 2956 3137 2557 
Q 3303 2159 3303 1684 
Q 3303 1175 3120 767 
Q 2938 359 2589 142 
Q 2241 -75 1856 -75 
Q 1575 -75 1351 44 
Q 1128 163 984 344 
L 984 -1272 
L 422 -1272 
z
M 931 1641 
Q 931 1000 1190 694 
Q 1450 388 1819 388 
Q 2194 388 2461 705 
Q 2728 1022 2728 1688 
Q 2728 2322 2467 2637 
Q 2206 2953 1844 2953 
Q 1484 2953 1207 2617 
Q 931 2281 931 1641 
z
" transform="scale(0.015625)"/>
      <path id="ArialMT-44" d="M 494 0 
L 494 4581 
L 2072 4581 
Q 2606 4581 2888 4516 
Q 3281 4425 3559 4188 
Q 3922 3881 4101 3404 
Q 4281 2928 4281 2316 
Q 4281 1794 4159 1391 
Q 4038 988 3847 723 
Q 3656 459 3429 307 
Q 3203 156 2883 78 
Q 2563 0 2147 0 
L 494 0 
z
M 1100 541 
L 2078 541 
Q 2531 541 2789 625 
Q 3047 709 3200 863 
Q 3416 1078 3536 1442 
Q 3656 1806 3656 2325 
Q 3656 3044 3420 3430 
Q 3184 3816 2847 3947 
Q 2603 4041 2063 4041 
L 1100 4041 
L 1100 541 
z
" transform="scale(0.015625)"/>
      <path id="ArialMT-46" d="M 525 0 
L 525 4581 
L 3616 4581 
L 3616 4041 
L 1131 4041 
L 1131 2622 
L 3281 2622 
L 3281 2081 
L 1131 2081 
L 1131 0 
L 525 0 
z
" transform="scale(0.015625)"/>
      <path id="ArialMT-2b" d="M 1603 741 
L 1603 1997 
L 356 1997 
L 356 2522 
L 1603 2522 
L 1603 3769 
L 2134 3769 
L 2134 2522 
L 3381 2522 
L 3381 1997 
L 2134 1997 
L 2134 741 
L 1603 741 
z
" transform="scale(0.015625)"/>
      <path id="ArialMT-62" d="M 941 0 
L 419 0 
L 419 4581 
L 981 4581 
L 981 2947 
Q 1338 3394 1891 3394 
Q 2197 3394 2470 3270 
Q 2744 3147 2920 2923 
Q 3097 2700 3197 2384 
Q 3297 2069 3297 1709 
Q 3297 856 2875 390 
Q 2453 -75 1863 -75 
Q 1275 -75 941 416 
L 941 0 
z
M 934 1684 
Q 934 1088 1097 822 
Q 1363 388 1816 388 
Q 2184 388 2453 708 
Q 2722 1028 2722 1663 
Q 2722 2313 2464 2622 
Q 2206 2931 1841 2931 
Q 1472 2931 1203 2611 
Q 934 2291 934 1684 
z
" transform="scale(0.015625)"/>
     </defs>
     <use xlink:href="#ArialMT-43"/>
     <use xlink:href="#ArialMT-6f" transform="translate(72.216797 0)"/>
     <use xlink:href="#ArialMT-72" transform="translate(127.832031 0)"/>
     <use xlink:href="#ArialMT-72" transform="translate(161.132812 0)"/>
     <use xlink:href="#ArialMT-65" transform="translate(194.433594 0)"/>
     <use xlink:href="#ArialMT-63" transform="translate(250.048828 0)"/>
     <use xlink:href="#ArialMT-74" transform="translate(300.048828 0)"/>
     <use xlink:href="#ArialMT-69" transform="translate(327.832031 0)"/>
     <use xlink:href="#ArialMT-6f" transform="translate(350.048828 0)"/>
     <use xlink:href="#ArialMT-6e" transform="translate(405.664062 0)"/>
     <use xlink:href="#ArialMT-20" transform="translate(461.279297 0)"/>
     <use xlink:href="#ArialMT-394" transform="translate(483.5625 0)"/>
     <use xlink:href="#ArialMT-76" transform="translate(550.359375 0)"/>
     <use xlink:href="#ArialMT-20" transform="translate(600.359375 0)"/>
     <use xlink:href="#ArialMT-2d" transform="translate(628.142578 0)"/>
     <use xlink:href="#ArialMT-2d" transform="translate(661.443359 0)"/>
     <use xlink:href="#ArialMT-20" transform="translate(694.744141 0)"/>
     <use xlink:href="#ArialMT-65" transform="translate(722.527344 0)"/>
     <use xlink:href="#ArialMT-6d" transform="translate(778.142578 0)"/>
     <use xlink:href="#ArialMT-70" transform="translate(861.443359 0)"/>
     <use xlink:href="#ArialMT-69" transform="translate(917.058594 0)"/>
     <use xlink:href="#ArialMT-72" transform="translate(939.275391 0)"/>
     <use xlink:href="#ArialMT-69" transform="translate(972.576172 0)"/>
     <use xlink:href="#ArialMT-63" transform="translate(994.792969 0)"/>
     <use xlink:href="#ArialMT-61" transform="translate(1044.792969 0)"/>
     <use xlink:href="#ArialMT-6c" transform="translate(1100.408203 0)"/>
     <use xlink:href="#ArialMT-20" transform="translate(1122.625 0)"/>
     <use xlink:href="#ArialMT-43" transform="translate(1150.408203 0)"/>
     <use xlink:href="#ArialMT-44" transform="translate(1222.625 0)"/>
     <use xlink:href="#ArialMT-46" transform="translate(1294.841797 0)"/>
     <use xlink:href="#ArialMT-20" transform="translate(1355.925781 0)"/>
     <use xlink:href="#ArialMT-28" transform="translate(1383.708984 0)"/>
     <use xlink:href="#ArialMT-74" transform="translate(1417.009766 0)"/>
     <use xlink:href="#ArialMT-6f" transform="translate(1444.792969 0)"/>
     <use xlink:href="#ArialMT-74" transform="translate(1500.408203 0)"/>
     <use xlink:href="#ArialMT-61" transform="translate(1528.191406 0)"/>
     <use xlink:href="#ArialMT-6c" transform="translate(1583.806641 0)"/>
     <use xlink:href="#ArialMT-20" transform="translate(1606.023438 0)"/>
     <use xlink:href="#ArialMT-2b" transform="translate(1633.806641 0)"/>
     <use xlink:href="#ArialMT-20" transform="translate(1692.205078 0)"/>
     <use xlink:href="#ArialMT-62" transform="translate(1719.988281 0)"/>
     <use xlink:href="#ArialMT-75" transform="translate(1775.603516 0)"/>
     <use xlink:href="#ArialMT-72" transform="translate(1831.21875 0)"/>
     <use xlink:href="#ArialMT-6e" transform="translate(1864.519531 0)"/>
     <use xlink:href="#ArialMT-73" transform="translate(1920.134766 0)"/>
     <use xlink:href="#ArialMT-29" transform="translate(1970.134766 0)"/>
    </g>
   </g>
   <g id="legend_1">
    <g id="patch_5">
     <path d="M 482.644572 194.345625 
L 597.967175 194.345625 
Q 599.966375 194.345625 599.966375 192.346425 
L 599.966375 136.610916 
Q 599.966375 134.611716 597.967175 134.611716 
L 482.644572 134.611716 
Q 480.645372 134.611716 480.645372 136.610916 
L 480.645372 192.346425 
Q 480.645372 194.345625 482.644572 194.345625 
z
" style="fill: #f5f5f5; opacity: 0.8; stroke: #cccccc; stroke-linejoin: miter"/>
    </g>
    <g id="line2d_18">
     <path d="M 484.643772 142.266465 
L 494.639772 142.266465 
L 504.635772 142.266465 
" style="fill: none; stroke: #111111; stroke-width: 2; stroke-linecap: round"/>
    </g>
    <g id="text_17">
     <!-- total Δv -->
     <g style="fill: #262626" transform="translate(512.632572 145.765065) scale(0.09996 -0.09996)">
      <use xlink:href="#ArialMT-74"/>
      <use xlink:href="#ArialMT-6f" transform="translate(27.783203 0)"/>
      <use xlink:href="#ArialMT-74" transform="translate(83.398438 0)"/>
      <use xlink:href="#ArialMT-61" transform="translate(111.181641 0)"/>
      <use xlink:href="#ArialMT-6c" transform="translate(166.796875 0)"/>
      <use xlink:href="#ArialMT-20" transform="translate(189.013672 0)"/>
      <use xlink:href="#ArialMT-394" transform="translate(211.296875 0)"/>
      <use xlink:href="#ArialMT-76" transform="translate(278.09375 0)"/>
     </g>
    </g>
    <g id="line2d_19">
     <path d="M 484.643772 156.435795 
L 494.639772 156.435795 
L 504.635772 156.435795 
" style="fill: none; stroke: #4878cf; stroke-width: 1.2; stroke-linecap: round"/>
    </g>
    <g id="text_18">
     <!-- dv1 periapsis raise -->
     <g style="fill: #262626" transform="translate(512.632572 159.934395) scale(0.09996 -0.09996)">
      <defs>
       <path id="ArialMT-64" d="M 2575 0 
L 2575 419 
Q 2259 -75 1647 -75 
Q 1250 -75 917 144 
Q 584 363 401 755 
Q 219 1147 219 1656 
Q 219 2153 384 2558 
Q 550 2963 881 3178 
Q 1213 3394 1622 3394 
Q 1922 3394 2156 3267 
Q 2391 3141 2538 2938 
L 2538 4581 
L 3097 4581 
L 3097 0 
L 2575 0 
z
M 797 1656 
Q 797 1019 1065 703 
Q 1334 388 1700 388 
Q 2069 388 2326 689 
Q 2584 991 2584 1609 
Q 2584 2291 2321 2609 
Q 2059 2928 1675 2928 
Q 1300 2928 1048 2622 
Q 797 2316 797 1656 
z
" transform="scale(0.015625)"/>
      </defs>
      <use xlink:href="#ArialMT-64"/>
      <use xlink:href="#ArialMT-76" transform="translate(55.615234 0)"/>
      <use xlink:href="#ArialMT-31" transform="translate(105.615234 0)"/>
      <use xlink:href="#ArialMT-20" transform="translate(161.230469 0)"/>
      <use xlink:href="#ArialMT-70" transform="translate(189.013672 0)"/>
      <use xlink:href="#ArialMT-65" transform="translate(244.628906 0)"/>
      <use xlink:href="#ArialMT-72" transform="translate(300.244141 0)"/>
      <use xlink:href="#ArialMT-69" transform="translate(333.544922 0)"/>
      <use xlink:href="#ArialMT-61" transform="translate(355.761719 0)"/>
      <use xlink:href="#ArialMT-70" transform="translate(411.376953 0)"/>
      <use xlink:href="#ArialMT-73" transform="translate(466.992188 0)"/>
      <use xlink:href="#ArialMT-69" transform="translate(516.992188 0)"/>
      <use xlink:href="#ArialMT-73" transform="translate(539.208984 0)"/>
      <use xlink:href="#ArialMT-20" transform="translate(589.208984 0)"/>
      <use xlink:href="#ArialMT-72" transform="translate(616.992188 0)"/>
      <use xlink:href="#ArialMT-61" transform="translate(650.292969 0)"/>
      <use xlink:href="#ArialMT-69" transform="translate(705.908203 0)"/>
      <use xlink:href="#ArialMT-73" transform="translate(728.125 0)"/>
      <use xlink:href="#ArialMT-65" transform="translate(778.125 0)"/>
     </g>
    </g>
    <g id="line2d_20">
     <path d="M 484.643772 170.575449 
L 494.639772 170.575449 
L 504.635772 170.575449 
" style="fill: none; stroke: #d1701f; stroke-width: 1.2; stroke-linecap: round"/>
    </g>
    <g id="text_19">
     <!-- dv2 circularization -->
     <g style="fill: #262626" transform="translate(512.632572 174.074049) scale(0.09996 -0.09996)">
      <defs>
       <path id="ArialMT-7a" d="M 125 0 
L 125 456 
L 2238 2881 
Q 1878 2863 1603 2863 
L 250 2863 
L 250 3319 
L 2963 3319 
L 2963 2947 
L 1166 841 
L 819 456 
Q 1197 484 1528 484 
L 3063 484 
L 3063 0 
L 125 0 
z
" transform="scale(0.015625)"/>
      </defs>
      <use xlink:href="#ArialMT-64"/>
      <use xlink:href="#ArialMT-76" transform="translate(55.615234 0)"/>
      <use xlink:href="#ArialMT-32" transform="translate(105.615234 0)"/>
      <use xlink:href="#ArialMT-20" transform="translate(161.230469 0)"/>
      <use xlink:href="#ArialMT-63" transform="translate(189.013672 0)"/>
      <use xlink:href="#ArialMT-69" transform="translate(239.013672 0)"/>
      <use xlink:href="#ArialMT-72" transform="translate(261.230469 0)"/>
      <use xlink:href="#ArialMT-63" transform="translate(294.53125 0)"/>
      <use xlink:href="#ArialMT-75" transform="translate(344.53125 0)"/>
      <use xlink:href="#ArialMT-6c" transform="translate(400.146484 0)"/>
      <use xlink:href="#ArialMT-61" transform="translate(422.363281 0)"/>
      <use xlink:href="#ArialMT-72" transform="translate(477.978516 0)"/>
      <use xlink:href="#ArialMT-69" transform="translate(511.279297 0)"/>
      <use xlink:href="#ArialMT-7a" transform="translate(533.496094 0)"/>
      <use xlink:href="#ArialMT-61" transform="translate(583.496094 0)"/>
      <use xlink:href="#ArialMT-74" transform="translate(639.111328 0)"/>
      <use xlink:href="#ArialMT-69" transform="translate(666.894531 0)"/>
      <use xlink:href="#ArialMT-6f" transform="translate(689.111328 0)"/>
      <use xlink:href="#ArialMT-6e" transform="translate(744.726562 0)"/>
     </g>
    </g>
    <g id="line2d_21">
     <path d="M 484.643772 184.744779 
L 494.639772 184.744779 
L 504.635772 184.744779 
" style="fill: none; stroke: #6a51a3; stroke-width: 1.2; stroke-linecap: round"/>
    </g>
    <g id="text_20">
     <!-- dv3 plane change -->
     <g style="fill: #262626" transform="translate(512.632572 188.243379) scale(0.09996 -0.09996)">
      <defs>
       <path id="ArialMT-33" d="M 269 1209 
L 831 1284 
Q 928 806 1161 595 
Q 1394 384 1728 384 
Q 2125 384 2398 659 
Q 2672 934 2672 1341 
Q 2672 1728 2419 1979 
Q 2166 2231 1775 2231 
Q 1616 2231 1378 2169 
L 1441 2663 
Q 1497 2656 1531 2656 
Q 1891 2656 2178 2843 
Q 2466 3031 2466 3422 
Q 2466 3731 2256 3934 
Q 2047 4138 1716 4138 
Q 1388 4138 1169 3931 
Q 950 3725 888 3313 
L 325 3413 
Q 428 3978 793 4289 
Q 1159 4600 1703 4600 
Q 2078 4600 2393 4439 
Q 2709 4278 2876 4000 
Q 3044 3722 3044 3409 
Q 3044 3113 2884 2869 
Q 2725 2625 2413 2481 
Q 2819 2388 3044 2092 
Q 3269 1797 3269 1353 
Q 3269 753 2831 336 
Q 2394 -81 1725 -81 
Q 1122 -81 723 278 
Q 325 638 269 1209 
z
" transform="scale(0.015625)"/>
       <path id="ArialMT-68" d="M 422 0 
L 422 4581 
L 984 4581 
L 984 2938 
Q 1378 3394 1978 3394 
Q 2347 3394 2619 3248 
Q 2891 3103 3008 2847 
Q 3125 2591 3125 2103 
L 3125 0 
L 2563 0 
L 2563 2103 
Q 2563 2525 2380 2717 
Q 2197 2909 1863 2909 
Q 1613 2909 1392 2779 
Q 1172 2650 1078 2428 
Q 984 2206 984 1816 
L 984 0 
L 422 0 
z
" transform="scale(0.015625)"/>
       <path id="ArialMT-67" d="M 319 -275 
L 866 -356 
Q 900 -609 1056 -725 
Q 1266 -881 1628 -881 
Q 2019 -881 2231 -725 
Q 2444 -569 2519 -288 
Q 2563 -116 2559 434 
Q 2191 0 1641 0 
Q 956 0 581 494 
Q 206 988 206 1678 
Q 206 2153 378 2554 
Q 550 2956 876 3175 
Q 1203 3394 1644 3394 
Q 2231 3394 2613 2919 
L 2613 3319 
L 3131 3319 
L 3131 450 
Q 3131 -325 2973 -648 
Q 2816 -972 2473 -1159 
Q 2131 -1347 1631 -1347 
Q 1038 -1347 672 -1080 
Q 306 -813 319 -275 
z
M 784 1719 
Q 784 1066 1043 766 
Q 1303 466 1694 466 
Q 2081 466 2343 764 
Q 2606 1063 2606 1700 
Q 2606 2309 2336 2618 
Q 2066 2928 1684 2928 
Q 1309 2928 1046 2623 
Q 784 2319 784 1719 
z
" transform="scale(0.015625)"/>
      </defs>
      <use xlink:href="#ArialMT-64"/>
      <use xlink:href="#ArialMT-76" transform="translate(55.615234 0)"/>
      <use xlink:href="#ArialMT-33" transform="translate(105.615234 0)"/>
      <use xlink:href="#ArialMT-20" transform="translate(161.230469 0)"/>
      <use xlink:href="#ArialMT-70" transform="translate(189.013672 0)"/>
      <use xlink:href="#ArialMT-6c" transform="translate(244.628906 0)"/>
      <use xlink:href="#ArialMT-61" transform="translate(266.845703 0)"/>
      <use xlink:href="#ArialMT-6e" transform="translate(322.460938 0)"/>
      <use xlink:href="#ArialMT-65" transform="translate(378.076172 0)"/>
      <use xlink:href="#ArialMT-20" transform="translate(433.691406 0)"/>
      <use xlink:href="#ArialMT-63" transform="translate(461.474609 0)"/>
      <use xlink:href="#ArialMT-68" transform="translate(511.474609 0)"/>
      <use xlink:href="#ArialMT-61" transform="translate(567.089844 0)"/>
      <use xlink:href="#ArialMT-6e" transform="translate(622.705078 0)"/>
      <use xlink:href="#ArialMT-67" transform="translate(678.320312 0)"/>
      <use xlink:href="#ArialMT-65" transform="translate(733.935547 0)"/>
     </g>
    </g>
   </g>
  </g>
 </g>
 <defs>
  <clipPath id="pca763cc782">
   <rect x="46.964375" y="21.935625" width="558" height="177.408"/>
  </clipPath>
 </defs>
</svg>
