<?xml version="1.0" encoding="utf-8" standalone="no"?>
<!DOCTYPE svg PUBLIC "-//W3C//DTD SVG 1.1//EN"
  "http://www.w3.org/Graphics/SVG/1.1/DTD/svg11.dtd">
<svg xmlns:xlink="http://www.w3.org/1999/xlink" width="500.851719pt" height="219.453523pt" viewBox="0 0 500.851719 219.453523" xmlns="http://www.w3.org/2000/svg" version="1.1">
 <metadata>
  <rdf:RDF xmlns:dc="http://purl.org/dc/elements/1.1/" xmlns:cc="http://creativecommons.org/ns#" xmlns:rdf="http://www.w3.org/1999/02/22-rdf-syntax-ns#">
   <cc:Work>
    <dc:type rdf:resource="http://purl.org/dc/dcmitype/StillImage"/>
    <dc:date>2026-07-10T15:11:56.344773</dc:date>
    <dc:format>image/svg+xml</dc:format>
    <dc:creator>
     <cc:Agent>
      <dc:title>Matplotlib v3.11.0, https://matplotlib.org/</dc:title>
     </cc:Agent>
    </dc:creator>
   </cc:Work>
  </rdf:RDF>
 </metadata>
 <defs>
  <style type="text/css">*{stroke-linejoin: round; stroke-linecap: butt}</style>
 </defs>
 <g id="figure_1">
  <g id="patch_1">
   <path d="M 0 219.453523 
L 500.851719 219.453523 
L 500.851719 0 
L 0 0 
z
" style="fill: #ffffff"/>
  </g>
  <g id="axes_1">
   <g id="patch_2">
    <path d="M 47.251719 177.168328 
L 493.651719 177.168328 
L 493.651719 21.936328 
L 47.251719 21.936328 
z
" style="fill: #f5f5f5"/>
   </g>
   <g id="matplotlib.axis_1">
    <g id="xtick_1">
     <g id="line2d_1">
      <path d="M 67.541583 177.168328 
L 67.541583 21.936328 
" clip-path="url(#pc6a5398e89)" style="fill: none; stroke: #cccccc; stroke-linecap: round"/>
     </g>
     <g id="text_1">
      <!-- 0 -->
      <g style="fill: #262626" transform="translate(64.483068 194.676629) scale(0.11 -0.11)">
       <defs>
        <path id="ArialMT-13" d="M 266 2259 
Q 266 3072 433 3567 
Q 600 4063 929 4331 
Q 1259 4600 1759 4600 
Q 2128 4600 2406 4451 
Q 2684 4303 2865 4023 
Q 3047 3744 3150 3342 
Q 3253 2941 3253 2259 
Q 3253 1453 3087 958 
Q 2922 463 2592 192 
Q 2263 -78 1759 -78 
Q 1097 -78 719 397 
Q 266 969 266 2259 
z
M 844 2259 
Q 844 1131 1108 757 
Q 1372 384 1759 384 
Q 2147 384 2411 759 
Q 2675 1134 2675 2259 
Q 2675 3391 2411 3762 
Q 2147 4134 1753 4134 
Q 1366 4134 1134 3806 
Q 844 3388 844 2259 
z
" transform="scale(0.015625)"/>
       </defs>
       <use xlink:href="#ArialMT-13"/>
      </g>
     </g>
    </g>
    <g id="xtick_2">
     <g id="line2d_2">
      <path d="M 130.437065 177.168328 
L 130.437065 21.936328 
" clip-path="url(#pc6a5398e89)" style="fill: none; stroke: #cccccc; stroke-linecap: round"/>
     </g>
     <g id="text_2">
      <!-- 20 -->
      <g style="fill: #262626" transform="translate(124.320034 194.676629) scale(0.11 -0.11)">
       <defs>
        <path id="ArialMT-15" d="M 3222 541 
L 3222 0 
L 194 0 
Q 188 203 259 391 
Q 375 700 629 1000 
Q 884 1300 1366 1694 
Q 2113 2306 2375 2664 
Q 2638 3022 2638 3341 
Q 2638 3675 2398 3904 
Q 2159 4134 1775 4134 
Q 1369 4134 1125 3890 
Q 881 3647 878 3216 
L 300 3275 
Q 359 3922 746 4261 
Q 1134 4600 1788 4600 
Q 2447 4600 2831 4234 
Q 3216 3869 3216 3328 
Q 3216 3053 3103 2787 
Q 2991 2522 2730 2228 
Q 2469 1934 1863 1422 
Q 1356 997 1212 845 
Q 1069 694 975 541 
L 3222 541 
z
" transform="scale(0.015625)"/>
       </defs>
       <use xlink:href="#ArialMT-15"/>
       <use xlink:href="#ArialMT-13" transform="translate(55.609375 0)"/>
      </g>
     </g>
    </g>
    <g id="xtick_3">
     <g id="line2d_3">
      <path d="M 193.332548 177.168328 
L 193.332548 21.936328 
" clip-path="url(#pc6a5398e89)" style="fill: none; stroke: #cccccc; stroke-linecap: round"/>
     </g>
     <g id="text_3">
      <!-- 40 -->
      <g style="fill: #262626" transform="translate(187.215517 194.676629) scale(0.11 -0.11)">
       <defs>
        <path id="ArialMT-17" d="M 2069 0 
L 2069 1097 
L 81 1097 
L 81 1613 
L 2172 4581 
L 2631 4581 
L 2631 1613 
L 3250 1613 
L 3250 1097 
L 2631 1097 
L 2631 0 
L 2069 0 
z
M 2069 1613 
L 2069 3678 
L 634 1613 
L 2069 1613 
z
" transform="scale(0.015625)"/>
       </defs>
       <use xlink:href="#ArialMT-17"/>
       <use xlink:href="#ArialMT-13" transform="translate(55.609375 0)"/>
      </g>
     </g>
    </g>
    <g id="xtick_4">
     <g id="line2d_4">
      <path d="M 256.22803 177.168328 
L 256.22803 21.936328 
" clip-path="url(#pc6a5398e89)" style="fill: none; stroke: #cccccc; stroke-linecap: round"/>
     </g>
     <g id="text_4">
      <!-- 60 -->
      <g style="fill: #262626" transform="translate(250.110999 194.676629) scale(0.11 -0.11)">
       <defs>
        <path id="ArialMT-19" d="M 3184 3459 
L 2625 3416 
Q 2550 3747 2413 3897 
Q 2184 4138 1850 4138 
Q 1581 4138 1378 3988 
Q 1113 3794 959 3422 
Q 806 3050 800 2363 
Q 1003 2672 1297 2822 
Q 1591 2972 1913 2972 
Q 2475 2972 2870 2558 
Q 3266 2144 3266 1488 
Q 3266 1056 3080 686 
Q 2894 316 2569 119 
Q 2244 -78 1831 -78 
Q 1128 -78 684 439 
Q 241 956 241 2144 
Q 241 3472 731 4075 
Q 1159 4600 1884 4600 
Q 2425 4600 2770 4297 
Q 3116 3994 3184 3459 
z
M 888 1484 
Q 888 1194 1011 928 
Q 1134 663 1356 523 
Q 1578 384 1822 384 
Q 2178 384 2434 671 
Q 2691 959 2691 1453 
Q 2691 1928 2437 2201 
Q 2184 2475 1800 2475 
Q 1419 2475 1153 2201 
Q 888 1928 888 1484 
z
" transform="scale(0.015625)"/>
       </defs>
       <use xlink:href="#ArialMT-19"/>
       <use xlink:href="#ArialMT-13" transform="translate(55.609375 0)"/>
      </g>
     </g>
    </g>
    <g id="xtick_5">
     <g id="line2d_5">
      <path d="M 319.123512 177.168328 
L 319.123512 21.936328 
" clip-path="url(#pc6a5398e89)" style="fill: none; stroke: #cccccc; stroke-linecap: round"/>
     </g>
     <g id="text_5">
      <!-- 80 -->
      <g style="fill: #262626" transform="translate(313.006481 194.676629) scale(0.11 -0.11)">
       <defs>
        <path id="ArialMT-1b" d="M 1131 2484 
Q 781 2613 612 2850 
Q 444 3088 444 3419 
Q 444 3919 803 4259 
Q 1163 4600 1759 4600 
Q 2359 4600 2725 4251 
Q 3091 3903 3091 3403 
Q 3091 3084 2923 2848 
Q 2756 2613 2416 2484 
Q 2838 2347 3058 2040 
Q 3278 1734 3278 1309 
Q 3278 722 2862 322 
Q 2447 -78 1769 -78 
Q 1091 -78 675 323 
Q 259 725 259 1325 
Q 259 1772 486 2073 
Q 713 2375 1131 2484 
z
M 1019 3438 
Q 1019 3113 1228 2906 
Q 1438 2700 1772 2700 
Q 2097 2700 2305 2904 
Q 2513 3109 2513 3406 
Q 2513 3716 2298 3927 
Q 2084 4138 1766 4138 
Q 1444 4138 1231 3931 
Q 1019 3725 1019 3438 
z
M 838 1322 
Q 838 1081 952 856 
Q 1066 631 1291 507 
Q 1516 384 1775 384 
Q 2178 384 2440 643 
Q 2703 903 2703 1303 
Q 2703 1709 2433 1975 
Q 2163 2241 1756 2241 
Q 1359 2241 1098 1978 
Q 838 1716 838 1322 
z
" transform="scale(0.015625)"/>
       </defs>
       <use xlink:href="#ArialMT-1b"/>
       <use xlink:href="#ArialMT-13" transform="translate(55.609375 0)"/>
      </g>
     </g>
    </g>
    <g id="xtick_6">
     <g id="line2d_6">
      <path d="M 382.018995 177.168328 
L 382.018995 21.936328 
" clip-path="url(#pc6a5398e89)" style="fill: none; stroke: #cccccc; stroke-linecap: round"/>
     </g>
     <g id="text_6">
      <!-- 100 -->
      <g style="fill: #262626" transform="translate(372.843448 194.676629) scale(0.11 -0.11)">
       <defs>
        <path id="ArialMT-14" d="M 2384 0 
L 1822 0 
L 1822 3584 
Q 1619 3391 1289 3197 
Q 959 3003 697 2906 
L 697 3450 
Q 1169 3672 1522 3987 
Q 1875 4303 2022 4600 
L 2384 4600 
L 2384 0 
z
" transform="scale(0.015625)"/>
       </defs>
       <use xlink:href="#ArialMT-14"/>
       <use xlink:href="#ArialMT-13" transform="translate(55.609375 0)"/>
       <use xlink:href="#ArialMT-13" transform="translate(111.21875 0)"/>
      </g>
     </g>
    </g>
    <g id="xtick_7">
     <g id="line2d_7">
      <path d="M 444.914477 177.168328 
L 444.914477 21.936328 
" clip-path="url(#pc6a5398e89)" style="fill: none; stroke: #cccccc; stroke-linecap: round"/>
     </g>
     <g id="text_7">
      <!-- 120 -->
      <g style="fill: #262626" transform="translate(435.73893 194.676629) scale(0.11 -0.11)">
       <use xlink:href="#ArialMT-14"/>
       <use xlink:href="#ArialMT-15" transform="translate(55.609375 0)"/>
       <use xlink:href="#ArialMT-13" transform="translate(111.21875 0)"/>
      </g>
     </g>
    </g>
    <g id="text_8">
     <!-- correction Δv (m/s) -->
     <g style="fill: #262626" transform="translate(220.107969 209.727898) scale(0.12 -0.12)">
      <defs>
       <path id="ArialMT-46" d="M 2588 1216 
L 3141 1144 
Q 3050 572 2676 248 
Q 2303 -75 1759 -75 
Q 1078 -75 664 370 
Q 250 816 250 1647 
Q 250 2184 428 2587 
Q 606 2991 970 3192 
Q 1334 3394 1763 3394 
Q 2303 3394 2647 3120 
Q 2991 2847 3088 2344 
L 2541 2259 
Q 2463 2594 2264 2762 
Q 2066 2931 1784 2931 
Q 1359 2931 1093 2626 
Q 828 2322 828 1663 
Q 828 994 1084 691 
Q 1341 388 1753 388 
Q 2084 388 2306 591 
Q 2528 794 2588 1216 
z
" transform="scale(0.015625)"/>
       <path id="ArialMT-52" d="M 213 1659 
Q 213 2581 725 3025 
Q 1153 3394 1769 3394 
Q 2453 3394 2887 2945 
Q 3322 2497 3322 1706 
Q 3322 1066 3130 698 
Q 2938 331 2570 128 
Q 2203 -75 1769 -75 
Q 1072 -75 642 372 
Q 213 819 213 1659 
z
M 791 1659 
Q 791 1022 1069 705 
Q 1347 388 1769 388 
Q 2188 388 2466 706 
Q 2744 1025 2744 1678 
Q 2744 2294 2464 2611 
Q 2184 2928 1769 2928 
Q 1347 2928 1069 2612 
Q 791 2297 791 1659 
z
" transform="scale(0.015625)"/>
       <path id="ArialMT-55" d="M 416 0 
L 416 3319 
L 922 3319 
L 922 2816 
Q 1116 3169 1280 3281 
Q 1444 3394 1641 3394 
Q 1925 3394 2219 3213 
L 2025 2691 
Q 1819 2813 1613 2813 
Q 1428 2813 1281 2702 
Q 1134 2591 1072 2394 
Q 978 2094 978 1738 
L 978 0 
L 416 0 
z
" transform="scale(0.015625)"/>
       <path id="ArialMT-48" d="M 2694 1069 
L 3275 997 
Q 3138 488 2766 206 
Q 2394 -75 1816 -75 
Q 1088 -75 661 373 
Q 234 822 234 1631 
Q 234 2469 665 2931 
Q 1097 3394 1784 3394 
Q 2450 3394 2872 2941 
Q 3294 2488 3294 1666 
Q 3294 1616 3291 1516 
L 816 1516 
Q 847 969 1125 678 
Q 1403 388 1819 388 
Q 2128 388 2347 550 
Q 2566 713 2694 1069 
z
M 847 1978 
L 2700 1978 
Q 2663 2397 2488 2606 
Q 2219 2931 1791 2931 
Q 1403 2931 1139 2672 
Q 875 2413 847 1978 
z
" transform="scale(0.015625)"/>
       <path id="ArialMT-57" d="M 1650 503 
L 1731 6 
Q 1494 -44 1306 -44 
Q 1000 -44 831 53 
Q 663 150 594 308 
Q 525 466 525 972 
L 525 2881 
L 113 2881 
L 113 3319 
L 525 3319 
L 525 4141 
L 1084 4478 
L 1084 3319 
L 1650 3319 
L 1650 2881 
L 1084 2881 
L 1084 941 
Q 1084 700 1114 631 
Q 1144 563 1211 522 
Q 1278 481 1403 481 
Q 1497 481 1650 503 
z
" transform="scale(0.015625)"/>
       <path id="ArialMT-4c" d="M 425 3934 
L 425 4581 
L 988 4581 
L 988 3934 
L 425 3934 
z
M 425 0 
L 425 3319 
L 988 3319 
L 988 0 
L 425 0 
z
" transform="scale(0.015625)"/>
       <path id="ArialMT-51" d="M 422 0 
L 422 3319 
L 928 3319 
L 928 2847 
Q 1294 3394 1984 3394 
Q 2284 3394 2536 3286 
Q 2788 3178 2913 3003 
Q 3038 2828 3088 2588 
Q 3119 2431 3119 2041 
L 3119 0 
L 2556 0 
L 2556 2019 
Q 2556 2363 2490 2533 
Q 2425 2703 2258 2804 
Q 2091 2906 1866 2906 
Q 1506 2906 1245 2678 
Q 984 2450 984 1813 
L 984 0 
L 422 0 
z
" transform="scale(0.015625)"/>
       <path id="ArialMT-3" transform="scale(0.015625)"/>
       <path id="ArialMT-1fb" d="M -6 0 
L 1753 4581 
L 2406 4581 
L 4281 0 
L -6 0 
z
M 834 541 
L 3381 541 
L 2391 3150 
Q 2169 3738 2066 4100 
Q 1981 3675 1819 3225 
L 834 541 
z
" transform="scale(0.015625)"/>
       <path id="ArialMT-59" d="M 1344 0 
L 81 3319 
L 675 3319 
L 1388 1331 
Q 1503 1009 1600 663 
Q 1675 925 1809 1294 
L 2547 3319 
L 3125 3319 
L 1869 0 
L 1344 0 
z
" transform="scale(0.015625)"/>
       <path id="ArialMT-b" d="M 1497 -1347 
Q 1031 -759 709 28 
Q 388 816 388 1659 
Q 388 2403 628 3084 
Q 909 3875 1497 4659 
L 1900 4659 
Q 1522 4009 1400 3731 
Q 1209 3300 1100 2831 
Q 966 2247 966 1656 
Q 966 153 1900 -1347 
L 1497 -1347 
z
" transform="scale(0.015625)"/>
       <path id="ArialMT-50" d="M 422 0 
L 422 3319 
L 925 3319 
L 925 2853 
Q 1081 3097 1340 3245 
Q 1600 3394 1931 3394 
Q 2300 3394 2536 3241 
Q 2772 3088 2869 2813 
Q 3263 3394 3894 3394 
Q 4388 3394 4653 3120 
Q 4919 2847 4919 2278 
L 4919 0 
L 4359 0 
L 4359 2091 
Q 4359 2428 4304 2576 
Q 4250 2725 4106 2815 
Q 3963 2906 3769 2906 
Q 3419 2906 3187 2673 
Q 2956 2441 2956 1928 
L 2956 0 
L 2394 0 
L 2394 2156 
Q 2394 2531 2256 2718 
Q 2119 2906 1806 2906 
Q 1569 2906 1367 2781 
Q 1166 2656 1075 2415 
Q 984 2175 984 1722 
L 984 0 
L 422 0 
z
" transform="scale(0.015625)"/>
       <path id="ArialMT-12" d="M 0 -78 
L 1328 4659 
L 1778 4659 
L 453 -78 
L 0 -78 
z
" transform="scale(0.015625)"/>
       <path id="ArialMT-56" d="M 197 991 
L 753 1078 
Q 800 744 1014 566 
Q 1228 388 1613 388 
Q 2000 388 2187 545 
Q 2375 703 2375 916 
Q 2375 1106 2209 1216 
Q 2094 1291 1634 1406 
Q 1016 1563 777 1677 
Q 538 1791 414 1992 
Q 291 2194 291 2438 
Q 291 2659 392 2848 
Q 494 3038 669 3163 
Q 800 3259 1026 3326 
Q 1253 3394 1513 3394 
Q 1903 3394 2198 3281 
Q 2494 3169 2634 2976 
Q 2775 2784 2828 2463 
L 2278 2388 
Q 2241 2644 2061 2787 
Q 1881 2931 1553 2931 
Q 1166 2931 1000 2803 
Q 834 2675 834 2503 
Q 834 2394 903 2306 
Q 972 2216 1119 2156 
Q 1203 2125 1616 2013 
Q 2213 1853 2448 1751 
Q 2684 1650 2818 1456 
Q 2953 1263 2953 975 
Q 2953 694 2789 445 
Q 2625 197 2315 61 
Q 2006 -75 1616 -75 
Q 969 -75 630 194 
Q 291 463 197 991 
z
" transform="scale(0.015625)"/>
       <path id="ArialMT-c" d="M 791 -1347 
L 388 -1347 
Q 1322 153 1322 1656 
Q 1322 2244 1188 2822 
Q 1081 3291 891 3722 
Q 769 4003 388 4659 
L 791 4659 
Q 1378 3875 1659 3084 
Q 1900 2403 1900 1659 
Q 1900 816 1576 28 
Q 1253 -759 791 -1347 
z
" transform="scale(0.015625)"/>
      </defs>
      <use xlink:href="#ArialMT-46"/>
      <use xlink:href="#ArialMT-52" transform="translate(50 0)"/>
      <use xlink:href="#ArialMT-55" transform="translate(105.609375 0)"/>
      <use xlink:href="#ArialMT-55" transform="translate(138.90625 0)"/>
      <use xlink:href="#ArialMT-48" transform="translate(172.203125 0)"/>
      <use xlink:href="#ArialMT-46" transform="translate(227.8125 0)"/>
      <use xlink:href="#ArialMT-57" transform="translate(277.8125 0)"/>
      <use xlink:href="#ArialMT-4c" transform="translate(305.59375 0)"/>
      <use xlink:href="#ArialMT-52" transform="translate(327.8125 0)"/>
      <use xlink:href="#ArialMT-51" transform="translate(383.421875 0)"/>
      <use xlink:href="#ArialMT-3" transform="translate(439.03125 0)"/>
      <use xlink:href="#ArialMT-1fb" transform="translate(466.8125 0)"/>
      <use xlink:href="#ArialMT-59" transform="translate(533.609375 0)"/>
      <use xlink:href="#ArialMT-3" transform="translate(583.609375 0)"/>
      <use xlink:href="#ArialMT-b" transform="translate(611.390625 0)"/>
      <use xlink:href="#ArialMT-50" transform="translate(644.6875 0)"/>
      <use xlink:href="#ArialMT-12" transform="translate(727.984375 0)"/>
      <use xlink:href="#ArialMT-56" transform="translate(755.765625 0)"/>
      <use xlink:href="#ArialMT-c" transform="translate(805.765625 0)"/>
     </g>
    </g>
   </g>
   <g id="matplotlib.axis_2">
    <g id="ytick_1">
     <g id="line2d_8">
      <path d="M 47.251719 177.168328 
L 493.651719 177.168328 
" clip-path="url(#pc6a5398e89)" style="fill: none; stroke: #cccccc; stroke-linecap: round"/>
     </g>
     <g id="text_9">
      <!-- 0.0 -->
      <g style="fill: #262626" transform="translate(22.461719 181.172479) scale(0.11 -0.11)">
       <defs>
        <path id="ArialMT-11" d="M 581 0 
L 581 641 
L 1222 641 
L 1222 0 
L 581 0 
z
" transform="scale(0.015625)"/>
       </defs>
       <use xlink:href="#ArialMT-13"/>
       <use xlink:href="#ArialMT-11" transform="translate(55.609375 0)"/>
       <use xlink:href="#ArialMT-13" transform="translate(83.390625 0)"/>
      </g>
     </g>
    </g>
    <g id="ytick_2">
     <g id="line2d_9">
      <path d="M 47.251719 146.121928 
L 493.651719 146.121928 
" clip-path="url(#pc6a5398e89)" style="fill: none; stroke: #cccccc; stroke-linecap: round"/>
     </g>
     <g id="text_10">
      <!-- 0.2 -->
      <g style="fill: #262626" transform="translate(22.461719 150.126079) scale(0.11 -0.11)">
       <use xlink:href="#ArialMT-13"/>
       <use xlink:href="#ArialMT-11" transform="translate(55.609375 0)"/>
       <use xlink:href="#ArialMT-15" transform="translate(83.390625 0)"/>
      </g>
     </g>
    </g>
    <g id="ytick_3">
     <g id="line2d_10">
      <path d="M 47.251719 115.075528 
L 493.651719 115.075528 
" clip-path="url(#pc6a5398e89)" style="fill: none; stroke: #cccccc; stroke-linecap: round"/>
     </g>
     <g id="text_11">
      <!-- 0.4 -->
      <g style="fill: #262626" transform="translate(22.461719 119.079679) scale(0.11 -0.11)">
       <use xlink:href="#ArialMT-13"/>
       <use xlink:href="#ArialMT-11" transform="translate(55.609375 0)"/>
       <use xlink:href="#ArialMT-17" transform="translate(83.390625 0)"/>
      </g>
     </g>
    </g>
    <g id="ytick_4">
     <g id="line2d_11">
      <path d="M 47.251719 84.029128 
L 493.651719 84.029128 
" clip-path="url(#pc6a5398e89)" style="fill: none; stroke: #cccccc; stroke-linecap: round"/>
     </g>
     <g id="text_12">
      <!-- 0.6 -->
      <g style="fill: #262626" transform="translate(22.461719 88.033279) scale(0.11 -0.11)">
       <use xlink:href="#ArialMT-13"/>
       <use xlink:href="#ArialMT-11" transform="translate(55.609375 0)"/>
       <use xlink:href="#ArialMT-19" transform="translate(83.390625 0)"/>
      </g>
     </g>
    </g>
    <g id="ytick_5">
     <g id="line2d_12">
      <path d="M 47.251719 52.982728 
L 493.651719 52.982728 
" clip-path="url(#pc6a5398e89)" style="fill: none; stroke: #cccccc; stroke-linecap: round"/>
     </g>
     <g id="text_13">
      <!-- 0.8 -->
      <g style="fill: #262626" transform="translate(22.461719 56.986879) scale(0.11 -0.11)">
       <use xlink:href="#ArialMT-13"/>
       <use xlink:href="#ArialMT-11" transform="translate(55.609375 0)"/>
       <use xlink:href="#ArialMT-1b" transform="translate(83.390625 0)"/>
      </g>
     </g>
    </g>
    <g id="ytick_6">
     <g id="line2d_13">
      <path d="M 47.251719 21.936328 
L 493.651719 21.936328 
" clip-path="url(#pc6a5398e89)" style="fill: none; stroke: #cccccc; stroke-linecap: round"/>
     </g>
     <g id="text_14">
      <!-- 1.0 -->
      <g style="fill: #262626" transform="translate(22.461719 25.940479) scale(0.11 -0.11)">
       <use xlink:href="#ArialMT-14"/>
       <use xlink:href="#ArialMT-11" transform="translate(55.609375 0)"/>
       <use xlink:href="#ArialMT-13" transform="translate(83.390625 0)"/>
      </g>
     </g>
    </g>
    <g id="text_15">
     <!-- cumulative fraction -->
     <g style="fill: #262626" transform="translate(15.936328 149.570766) rotate(-90) scale(0.12 -0.12)">
      <defs>
       <path id="ArialMT-58" d="M 2597 0 
L 2597 488 
Q 2209 -75 1544 -75 
Q 1250 -75 995 37 
Q 741 150 617 320 
Q 494 491 444 738 
Q 409 903 409 1263 
L 409 3319 
L 972 3319 
L 972 1478 
Q 972 1038 1006 884 
Q 1059 663 1231 536 
Q 1403 409 1656 409 
Q 1909 409 2131 539 
Q 2353 669 2445 892 
Q 2538 1116 2538 1541 
L 2538 3319 
L 3100 3319 
L 3100 0 
L 2597 0 
z
" transform="scale(0.015625)"/>
       <path id="ArialMT-4f" d="M 409 0 
L 409 4581 
L 972 4581 
L 972 0 
L 409 0 
z
" transform="scale(0.015625)"/>
       <path id="ArialMT-44" d="M 2588 409 
Q 2275 144 1986 34 
Q 1697 -75 1366 -75 
Q 819 -75 525 192 
Q 231 459 231 875 
Q 231 1119 342 1320 
Q 453 1522 633 1644 
Q 813 1766 1038 1828 
Q 1203 1872 1538 1913 
Q 2219 1994 2541 2106 
Q 2544 2222 2544 2253 
Q 2544 2597 2384 2738 
Q 2169 2928 1744 2928 
Q 1347 2928 1158 2789 
Q 969 2650 878 2297 
L 328 2372 
Q 403 2725 575 2942 
Q 747 3159 1072 3276 
Q 1397 3394 1825 3394 
Q 2250 3394 2515 3294 
Q 2781 3194 2906 3042 
Q 3031 2891 3081 2659 
Q 3109 2516 3109 2141 
L 3109 1391 
Q 3109 606 3145 398 
Q 3181 191 3288 0 
L 2700 0 
Q 2613 175 2588 409 
z
M 2541 1666 
Q 2234 1541 1622 1453 
Q 1275 1403 1131 1340 
Q 988 1278 909 1158 
Q 831 1038 831 891 
Q 831 666 1001 516 
Q 1172 366 1500 366 
Q 1825 366 2078 508 
Q 2331 650 2450 897 
Q 2541 1088 2541 1459 
L 2541 1666 
z
" transform="scale(0.015625)"/>
       <path id="ArialMT-49" d="M 556 0 
L 556 2881 
L 59 2881 
L 59 3319 
L 556 3319 
L 556 3672 
Q 556 4006 616 4169 
Q 697 4388 901 4523 
Q 1106 4659 1475 4659 
Q 1713 4659 2000 4603 
L 1916 4113 
Q 1741 4144 1584 4144 
Q 1328 4144 1222 4034 
Q 1116 3925 1116 3625 
L 1116 3319 
L 1763 3319 
L 1763 2881 
L 1116 2881 
L 1116 0 
L 556 0 
z
" transform="scale(0.015625)"/>
      </defs>
      <use xlink:href="#ArialMT-46"/>
      <use xlink:href="#ArialMT-58" transform="translate(50 0)"/>
      <use xlink:href="#ArialMT-50" transform="translate(105.609375 0)"/>
      <use xlink:href="#ArialMT-58" transform="translate(188.90625 0)"/>
      <use xlink:href="#ArialMT-4f" transform="translate(244.515625 0)"/>
      <use xlink:href="#ArialMT-44" transform="translate(266.734375 0)"/>
      <use xlink:href="#ArialMT-57" transform="translate(322.34375 0)"/>
      <use xlink:href="#ArialMT-4c" transform="translate(350.125 0)"/>
      <use xlink:href="#ArialMT-59" transform="translate(372.34375 0)"/>
      <use xlink:href="#ArialMT-48" transform="translate(422.34375 0)"/>
      <use xlink:href="#ArialMT-3" transform="translate(477.953125 0)"/>
      <use xlink:href="#ArialMT-49" transform="translate(505.734375 0)"/>
      <use xlink:href="#ArialMT-55" transform="translate(533.515625 0)"/>
      <use xlink:href="#ArialMT-44" transform="translate(566.8125 0)"/>
      <use xlink:href="#ArialMT-46" transform="translate(622.421875 0)"/>
      <use xlink:href="#ArialMT-57" transform="translate(672.421875 0)"/>
      <use xlink:href="#ArialMT-4c" transform="translate(700.203125 0)"/>
      <use xlink:href="#ArialMT-52" transform="translate(722.421875 0)"/>
      <use xlink:href="#ArialMT-51" transform="translate(778.03125 0)"/>
     </g>
    </g>
   </g>
   <g id="line2d_14">
    <path d="M 394.4399 177.013096 
L 396.117221 176.702632 
L 396.212752 176.5474 
L 397.073189 176.236936 
L 397.196121 176.081704 
L 397.627237 175.77124 
L 397.788258 175.305544 
L 398.802267 174.21892 
L 398.99953 173.597992 
L 399.418431 173.44276 
L 399.661007 172.356136 
L 399.858506 171.89044 
L 399.953118 171.11428 
L 400.309488 170.803816 
L 400.46247 170.182888 
L 401.054267 167.854408 
L 401.1852 167.543944 
L 401.493059 166.146856 
L 401.691618 165.68116 
L 402.446155 161.645128 
L 402.548167 161.334664 
L 403.472787 155.59108 
L 403.669255 154.03876 
L 403.847138 153.2626 
L 403.937751 152.952136 
L 404.056245 152.48644 
L 404.354514 150.623656 
L 404.47742 150.15796 
L 404.632678 148.760872 
L 404.74881 148.450408 
L 404.931818 147.05332 
L 405.027273 146.742856 
L 405.213675 144.414376 
L 405.335198 144.103912 
L 405.454767 143.638216 
L 406.507999 136.808008 
L 406.636422 135.100456 
L 406.968399 132.771976 
L 407.093114 132.461512 
L 407.218086 131.685352 
L 407.320227 130.75396 
L 407.390988 130.288264 
L 407.480423 129.667336 
L 407.710814 127.494088 
L 408.414744 123.458056 
L 408.541706 122.99236 
L 408.642071 122.2162 
L 409.420444 114.299368 
L 410.40418 104.36452 
L 410.568924 103.743592 
L 411.557679 95.981992 
L 411.715911 95.205832 
L 412.181561 92.566888 
L 412.304898 92.256424 
L 412.442924 91.480264 
L 412.535152 90.704104 
L 412.673789 89.151784 
L 412.992582 86.047144 
L 413.120657 84.96052 
L 413.648367 81.545416 
L 413.77217 81.234952 
L 413.954286 80.458792 
L 414.196473 79.372168 
L 414.354637 78.130312 
L 414.467582 77.819848 
L 414.582063 76.733224 
L 414.707537 75.957064 
L 414.816514 75.336136 
L 415.78133 70.523944 
L 415.930163 69.282088 
L 416.259637 68.195464 
L 416.417569 66.798376 
L 416.616389 66.177448 
L 416.7888 65.246056 
L 417.016488 64.159432 
L 417.171708 62.917576 
L 417.286436 62.141416 
L 417.390275 61.67572 
L 417.902269 58.881544 
L 418.280939 57.01876 
L 418.414786 56.553064 
L 418.602307 55.621672 
L 418.692224 54.535048 
L 418.907474 54.069352 
L 419.504168 51.430408 
L 419.627315 50.343784 
L 419.737616 49.878088 
L 419.789894 49.412392 
L 419.921698 49.101928 
L 419.949824 48.636232 
L 420.089074 48.325768 
L 420.209793 47.394376 
L 420.473797 46.92868 
L 420.789164 46.15252 
L 420.919613 45.37636 
L 421.067725 45.065896 
L 421.272465 44.134504 
L 421.518994 43.82404 
L 421.628453 43.358344 
L 421.657495 43.203112 
L 422.020413 42.892648 
L 422.55865 41.185096 
L 422.734788 41.029864 
L 422.792029 40.564168 
L 423.18094 39.94324 
L 423.256261 39.632776 
L 423.51582 39.477544 
L 423.699502 39.16708 
L 423.964873 39.011848 
L 423.993494 38.701384 
L 424.289406 38.39092 
L 424.702177 37.304296 
L 424.853154 36.993832 
L 424.954376 36.528136 
L 425.679962 35.131048 
L 425.757877 34.820584 
L 426.243077 33.73396 
L 426.529128 32.492104 
L 426.8598 32.336872 
L 427.230294 31.715944 
L 427.695018 31.095016 
L 427.748954 30.784552 
L 428.014085 30.474088 
L 428.226521 30.163624 
L 428.724012 29.85316 
L 428.796347 29.697928 
L 429.019597 29.542696 
L 429.044856 29.387464 
L 430.088248 28.611304 
L 430.163363 28.30084 
L 430.600751 27.679912 
L 431.27926 27.369448 
L 431.446295 26.74852 
L 431.538683 26.438056 
L 432.509919 26.282824 
L 432.898492 25.817128 
L 432.977871 25.661896 
L 433.744808 25.351432 
L 433.976641 25.040968 
L 434.494006 24.885736 
L 434.621539 24.730504 
L 434.911226 24.575272 
L 435.569192 24.42004 
L 436.32527 23.488648 
L 438.320705 23.178184 
L 441.858082 23.022952 
L 445.014341 22.402024 
L 455.766389 22.09156 
L 473.36081 21.936328 
L 473.36081 21.936328 
" clip-path="url(#pc6a5398e89)" style="fill: none; stroke: #111111; stroke-width: 2; stroke-linecap: round"/>
   </g>
   <g id="line2d_15">
    <path d="M 388.829772 177.013096 
L 389.626473 176.857864 
L 389.756747 176.702632 
L 391.047166 176.081704 
L 391.766109 175.616008 
L 391.896377 175.150312 
L 392.109649 174.839848 
L 392.114446 174.684616 
L 392.336427 174.529384 
L 392.356749 174.374152 
L 392.759813 173.908456 
L 392.849766 173.44276 
L 393.138265 172.977064 
L 393.202198 172.356136 
L 393.397146 171.735208 
L 393.749124 168.164872 
L 393.965625 166.923016 
L 394.139108 164.594536 
L 394.178215 163.663144 
L 394.253371 162.731752 
L 394.365483 162.266056 
L 394.643743 159.161416 
L 394.694799 158.69572 
L 394.838225 156.832936 
L 395.114508 153.728296 
L 395.224153 151.555048 
L 395.290016 151.089352 
L 395.681517 145.811464 
L 395.796262 144.103912 
L 397.397616 116.00692 
L 397.819026 107.779624 
L 397.895438 107.158696 
L 398.596751 94.27444 
L 399.192169 82.942504 
L 399.308727 79.993096 
L 399.509874 75.957064 
L 399.564431 75.025672 
L 399.71959 72.54196 
L 399.826013 71.7658 
L 399.996054 68.505928 
L 400.974256 53.448424 
L 401.06096 52.3618 
L 401.111437 51.896104 
L 401.227622 50.343784 
L 402.039333 40.564168 
L 402.15031 39.94324 
L 402.252704 38.701384 
L 402.437626 38.080456 
L 403.120203 33.423496 
L 403.953048 29.387464 
L 404.029114 28.611304 
L 404.246203 27.990376 
L 404.257493 27.835144 
L 404.585295 27.369448 
L 404.638666 26.903752 
L 404.751461 26.438056 
L 405.029041 25.506664 
L 405.267797 25.1962 
L 405.369623 24.730504 
L 405.70024 24.42004 
L 405.711373 24.264808 
L 405.994784 23.954344 
L 406.02769 23.799112 
L 406.895455 23.488648 
L 407.181205 22.86772 
L 408.884576 22.557256 
L 409.374816 22.402024 
L 412.104947 22.09156 
L 412.127127 21.936328 
L 412.127127 21.936328 
" clip-path="url(#pc6a5398e89)" style="fill: none; stroke: #4878cf; stroke-width: 1.2; stroke-linecap: round"/>
   </g>
   <g id="line2d_16">
    <path d="M 67.542628 177.013096 
L 67.626655 176.392168 
L 67.990649 173.132296 
L 68.102261 172.356136 
L 68.233704 170.027656 
L 68.295071 169.406728 
L 68.405155 168.475336 
L 68.512374 167.23348 
L 68.664607 164.905 
L 68.802675 163.818376 
L 68.983768 162.266056 
L 69.052272 161.489896 
L 69.192642 159.782344 
L 69.278751 158.850952 
L 69.801548 154.659688 
L 71.325925 138.670792 
L 71.431526 138.049864 
L 74.36178 109.642408 
L 74.422892 109.02148 
L 75.116047 103.122664 
L 75.279895 101.25988 
L 75.367021 100.949416 
L 75.52464 98.776168 
L 75.727414 97.223848 
L 75.858003 95.82676 
L 76.046335 94.740136 
L 76.264141 92.72212 
L 76.338468 92.256424 
L 76.45921 91.480264 
L 76.820918 88.530856 
L 76.900718 87.599464 
L 77.057856 87.133768 
L 77.437101 83.252968 
L 77.544692 82.787272 
L 77.657401 81.700648 
L 77.952772 79.993096 
L 78.035836 79.061704 
L 78.186099 78.75124 
L 79.095721 71.921032 
L 79.230233 71.610568 
L 79.388953 70.834408 
L 79.54804 69.43732 
L 80.268593 65.401288 
L 80.411211 64.469896 
L 80.73356 61.986184 
L 80.92572 61.365256 
L 81.049059 60.433864 
L 81.332632 59.502472 
L 81.490674 58.881544 
L 81.585163 58.57108 
L 81.661283 57.950152 
L 82.002591 57.329224 
L 82.125294 56.553064 
L 82.621405 53.91412 
L 82.731067 53.603656 
L 82.942531 52.206568 
L 83.11448 51.896104 
L 83.251092 51.58564 
L 83.379245 51.119944 
L 83.465806 50.80948 
L 83.63488 49.567624 
L 83.984683 48.170536 
L 84.341116 47.083912 
L 84.525768 46.307752 
L 84.638918 45.997288 
L 85.276999 43.04788 
L 85.435524 42.426952 
L 85.830599 41.029864 
L 85.985944 40.7194 
L 86.021876 40.408936 
L 86.314227 40.098472 
L 86.742618 39.16708 
L 86.835515 38.546152 
L 86.869194 38.39092 
L 87.042713 38.235688 
L 87.102847 37.925224 
L 87.215025 37.61476 
L 87.312926 37.149064 
L 87.888633 36.06244 
L 87.965117 35.596744 
L 88.263704 35.28628 
L 88.402194 34.975816 
L 88.429866 34.820584 
L 88.716813 34.51012 
L 89.244853 33.113032 
L 89.58406 32.802568 
L 89.836949 32.336872 
L 90.289261 32.026408 
L 90.478989 31.560712 
L 90.653298 31.250248 
L 90.712519 30.939784 
L 91.275334 30.62932 
L 91.481716 30.318856 
L 91.814535 30.008392 
L 91.853151 29.85316 
L 92.409701 29.232232 
L 92.53413 28.611304 
L 93.029304 28.456072 
L 93.342155 27.679912 
L 94.09402 27.52468 
L 94.323872 27.214216 
L 94.47333 27.058984 
L 95.252247 26.903752 
L 95.346654 26.74852 
L 95.57323 26.593288 
L 95.599149 26.438056 
L 96.107467 26.127592 
L 96.272099 25.817128 
L 97.174992 25.1962 
L 97.189199 25.040968 
L 97.322175 24.885736 
L 97.755942 24.575272 
L 97.866761 24.42004 
L 98.841737 23.954344 
L 99.697203 23.64388 
L 99.725032 23.488648 
L 100.306431 23.333416 
L 101.355869 23.178184 
L 101.61019 23.022952 
L 102.719001 22.86772 
L 107.271349 22.712488 
L 107.874389 22.402024 
L 120.024286 22.09156 
L 142.965325 21.936328 
L 142.965325 21.936328 
" clip-path="url(#pc6a5398e89)" style="fill: none; stroke: #d1701f; stroke-width: 1.2; stroke-linecap: round"/>
   </g>
   <g id="line2d_17">
    <path d="M 67.545504 177.013096 
L 67.753481 171.269512 
L 67.809859 170.027656 
L 67.92339 166.767784 
L 67.996734 165.836392 
L 68.194268 161.179432 
L 68.280825 160.092808 
L 70.004378 121.905736 
L 70.088681 120.974344 
L 70.142735 120.353416 
L 70.522633 111.970888 
L 70.617635 110.729032 
L 71.056319 103.122664 
L 71.136407 102.346504 
L 71.34512 99.70756 
L 71.634913 94.895368 
L 71.771529 91.635496 
L 71.832882 91.014568 
L 71.962869 89.927944 
L 72.057176 88.06516 
L 72.200783 86.047144 
L 73.079869 73.783816 
L 74.78207 54.069352 
L 75.006733 51.896104 
L 75.176395 49.878088 
L 76.054141 43.82404 
L 76.169125 42.116488 
L 76.22539 41.340328 
L 76.398466 40.253704 
L 76.450161 39.788008 
L 76.541644 38.546152 
L 76.636332 38.235688 
L 76.981476 35.751976 
L 77.141383 34.51012 
L 77.324258 33.578728 
L 77.453169 33.268264 
L 77.903383 31.095016 
L 78.162207 30.784552 
L 79.2587 26.74852 
L 79.268411 26.593288 
L 80.226033 25.817128 
L 80.54219 24.885736 
L 80.982722 24.575272 
L 81.337314 24.109576 
L 81.351477 23.954344 
L 82.126934 23.488648 
L 82.145831 23.333416 
L 82.38213 23.022952 
L 82.409827 22.86772 
L 83.253428 22.557256 
L 83.341026 22.402024 
L 84.160243 22.246792 
L 84.28942 21.936328 
L 84.28942 21.936328 
" clip-path="url(#pc6a5398e89)" style="fill: none; stroke: #6a51a3; stroke-width: 1.2; stroke-linecap: round"/>
   </g>
   <g id="patch_3">
    <path d="M 47.251719 177.168328 
L 47.251719 21.936328 
" style="fill: none; stroke: #cccccc; stroke-width: 1.25; stroke-linejoin: miter; stroke-linecap: square"/>
   </g>
   <g id="patch_4">
    <path d="M 47.251719 177.168328 
L 493.651719 177.168328 
" style="fill: none; stroke: #cccccc; stroke-width: 1.25; stroke-linejoin: miter; stroke-linecap: square"/>
   </g>
   <g id="text_16">
    <!-- Correction Δv - - empirical CDF (total + burns) -->
    <g style="fill: #262626" transform="translate(149.922031 15.936328) scale(0.12 -0.12)">
     <defs>
      <path id="ArialMT-26" d="M 3763 1606 
L 4369 1453 
Q 4178 706 3683 314 
Q 3188 -78 2472 -78 
Q 1731 -78 1267 223 
Q 803 525 561 1097 
Q 319 1669 319 2325 
Q 319 3041 592 3573 
Q 866 4106 1370 4382 
Q 1875 4659 2481 4659 
Q 3169 4659 3637 4309 
Q 4106 3959 4291 3325 
L 3694 3184 
Q 3534 3684 3231 3912 
Q 2928 4141 2469 4141 
Q 1941 4141 1586 3887 
Q 1231 3634 1087 3207 
Q 944 2781 944 2328 
Q 944 1744 1114 1308 
Q 1284 872 1643 656 
Q 2003 441 2422 441 
Q 2931 441 3284 734 
Q 3638 1028 3763 1606 
z
" transform="scale(0.015625)"/>
      <path id="ArialMT-10" d="M 203 1375 
L 203 1941 
L 1931 1941 
L 1931 1375 
L 203 1375 
z
" transform="scale(0.015625)"/>
      <path id="ArialMT-53" d="M 422 -1272 
L 422 3319 
L 934 3319 
L 934 2888 
Q 1116 3141 1344 3267 
Q 1572 3394 1897 3394 
Q 2322 3394 2647 3175 
Q 2972 2956 3137 2557 
Q 3303 2159 3303 1684 
Q 3303 1175 3120 767 
Q 2938 359 2589 142 
Q 2241 -75 1856 -75 
Q 1575 -75 1351 44 
Q 1128 163 984 344 
L 984 -1272 
L 422 -1272 
z
M 931 1641 
Q 931 1000 1190 694 
Q 1450 388 1819 388 
Q 2194 388 2461 705 
Q 2728 1022 2728 1688 
Q 2728 2322 2467 2637 
Q 2206 2953 1844 2953 
Q 1484 2953 1207 2617 
Q 931 2281 931 1641 
z
" transform="scale(0.015625)"/>
      <path id="ArialMT-27" d="M 494 0 
L 494 4581 
L 2072 4581 
Q 2606 4581 2888 4516 
Q 3281 4425 3559 4188 
Q 3922 3881 4101 3404 
Q 4281 2928 4281 2316 
Q 4281 1794 4159 1391 
Q 4038 988 3847 723 
Q 3656 459 3429 307 
Q 3203 156 2883 78 
Q 2563 0 2147 0 
L 494 0 
z
M 1100 541 
L 2078 541 
Q 2531 541 2789 625 
Q 3047 709 3200 863 
Q 3416 1078 3536 1442 
Q 3656 1806 3656 2325 
Q 3656 3044 3420 3430 
Q 3184 3816 2847 3947 
Q 2603 4041 2063 4041 
L 1100 4041 
L 1100 541 
z
" transform="scale(0.015625)"/>
      <path id="ArialMT-29" d="M 525 0 
L 525 4581 
L 3616 4581 
L 3616 4041 
L 1131 4041 
L 1131 2622 
L 3281 2622 
L 3281 2081 
L 1131 2081 
L 1131 0 
L 525 0 
z
" transform="scale(0.015625)"/>
      <path id="ArialMT-e" d="M 1603 741 
L 1603 1997 
L 356 1997 
L 356 2522 
L 1603 2522 
L 1603 3769 
L 2134 3769 
L 2134 2522 
L 3381 2522 
L 3381 1997 
L 2134 1997 
L 2134 741 
L 1603 741 
z
" transform="scale(0.015625)"/>
      <path id="ArialMT-45" d="M 941 0 
L 419 0 
L 419 4581 
L 981 4581 
L 981 2947 
Q 1338 3394 1891 3394 
Q 2197 3394 2470 3270 
Q 2744 3147 2920 2923 
Q 3097 2700 3197 2384 
Q 3297 2069 3297 1709 
Q 3297 856 2875 390 
Q 2453 -75 1863 -75 
Q 1275 -75 941 416 
L 941 0 
z
M 934 1684 
Q 934 1088 1097 822 
Q 1363 388 1816 388 
Q 2184 388 2453 708 
Q 2722 1028 2722 1663 
Q 2722 2313 2464 2622 
Q 2206 2931 1841 2931 
Q 1472 2931 1203 2611 
Q 934 2291 934 1684 
z
" transform="scale(0.015625)"/>
     </defs>
     <use xlink:href="#ArialMT-26"/>
     <use xlink:href="#ArialMT-52" transform="translate(72.21875 0)"/>
     <use xlink:href="#ArialMT-55" transform="translate(127.828125 0)"/>
     <use xlink:href="#ArialMT-55" transform="translate(161.125 0)"/>
     <use xlink:href="#ArialMT-48" transform="translate(194.421875 0)"/>
     <use xlink:href="#ArialMT-46" transform="translate(250.03125 0)"/>
     <use xlink:href="#ArialMT-57" transform="translate(300.03125 0)"/>
     <use xlink:href="#ArialMT-4c" transform="translate(327.8125 0)"/>
     <use xlink:href="#ArialMT-52" transform="translate(350.03125 0)"/>
     <use xlink:href="#ArialMT-51" transform="translate(405.640625 0)"/>
     <use xlink:href="#ArialMT-3" transform="translate(461.25 0)"/>
     <use xlink:href="#ArialMT-1fb" transform="translate(489.03125 0)"/>
     <use xlink:href="#ArialMT-59" transform="translate(555.828125 0)"/>
     <use xlink:href="#ArialMT-3" transform="translate(605.828125 0)"/>
     <use xlink:href="#ArialMT-10" transform="translate(633.609375 0)"/>
     <use xlink:href="#ArialMT-10" transform="translate(666.90625 0)"/>
     <use xlink:href="#ArialMT-3" transform="translate(700.203125 0)"/>
     <use xlink:href="#ArialMT-48" transform="translate(727.984375 0)"/>
     <use xlink:href="#ArialMT-50" transform="translate(783.59375 0)"/>
     <use xlink:href="#ArialMT-53" transform="translate(866.890625 0)"/>
     <use xlink:href="#ArialMT-4c" transform="translate(922.5 0)"/>
     <use xlink:href="#ArialMT-55" transform="translate(944.71875 0)"/>
     <use xlink:href="#ArialMT-4c" transform="translate(978.015625 0)"/>
     <use xlink:href="#ArialMT-46" transform="translate(1000.234375 0)"/>
     <use xlink:href="#ArialMT-44" transform="translate(1050.234375 0)"/>
     <use xlink:href="#ArialMT-4f" transform="translate(1105.84375 0)"/>
     <use xlink:href="#ArialMT-3" transform="translate(1128.0625 0)"/>
     <use xlink:href="#ArialMT-26" transform="translate(1155.84375 0)"/>
     <use xlink:href="#ArialMT-27" transform="translate(1228.0625 0)"/>
     <use xlink:href="#ArialMT-29" transform="translate(1300.28125 0)"/>
     <use xlink:href="#ArialMT-3" transform="translate(1361.359375 0)"/>
     <use xlink:href="#ArialMT-b" transform="translate(1389.140625 0)"/>
     <use xlink:href="#ArialMT-57" transform="translate(1422.4375 0)"/>
     <use xlink:href="#ArialMT-52" transform="translate(1450.21875 0)"/>
     <use xlink:href="#ArialMT-57" transform="translate(1505.828125 0)"/>
     <use xlink:href="#ArialMT-44" transform="translate(1533.609375 0)"/>
     <use xlink:href="#ArialMT-4f" transform="translate(1589.21875 0)"/>
     <use xlink:href="#ArialMT-3" transform="translate(1611.4375 0)"/>
     <use xlink:href="#ArialMT-e" transform="translate(1639.21875 0)"/>
     <use xlink:href="#ArialMT-3" transform="translate(1697.625 0)"/>
     <use xlink:href="#ArialMT-45" transform="translate(1725.40625 0)"/>
     <use xlink:href="#ArialMT-58" transform="translate(1781.015625 0)"/>
     <use xlink:href="#ArialMT-55" transform="translate(1836.625 0)"/>
     <use xlink:href="#ArialMT-51" transform="translate(1869.921875 0)"/>
     <use xlink:href="#ArialMT-56" transform="translate(1925.53125 0)"/>
     <use xlink:href="#ArialMT-c" transform="translate(1975.53125 0)"/>
    </g>
   </g>
   <g id="legend_1">
    <g id="patch_5">
     <path d="M 371.331916 172.170328 
L 486.654519 172.170328 
Q 488.653719 172.170328 488.653719 170.171128 
L 488.653719 113.654486 
Q 488.653719 111.655286 486.654519 111.655286 
L 371.331916 111.655286 
Q 369.332716 111.655286 369.332716 113.654486 
L 369.332716 170.171128 
Q 369.332716 172.170328 371.331916 172.170328 
z
" style="fill: #f5f5f5; opacity: 0.8; stroke: #cccccc; stroke-linejoin: miter"/>
    </g>
    <g id="line2d_18">
     <path d="M 373.331116 119.432447 
L 383.327116 119.432447 
L 393.323116 119.432447 
" style="fill: none; stroke: #111111; stroke-width: 2; stroke-linecap: round"/>
    </g>
    <g id="text_17">
     <!-- total Δv -->
     <g style="fill: #262626" transform="translate(401.319916 122.931047) scale(0.09996 -0.09996)">
      <use xlink:href="#ArialMT-57"/>
      <use xlink:href="#ArialMT-52" transform="translate(27.78125 0)"/>
      <use xlink:href="#ArialMT-57" transform="translate(83.390625 0)"/>
      <use xlink:href="#ArialMT-44" transform="translate(111.171875 0)"/>
      <use xlink:href="#ArialMT-4f" transform="translate(166.78125 0)"/>
      <use xlink:href="#ArialMT-3" transform="translate(189 0)"/>
      <use xlink:href="#ArialMT-1fb" transform="translate(216.78125 0)"/>
      <use xlink:href="#ArialMT-59" transform="translate(283.578125 0)"/>
     </g>
    </g>
    <g id="line2d_19">
     <path d="M 373.331116 133.811459 
L 383.327116 133.811459 
L 393.323116 133.811459 
" style="fill: none; stroke: #4878cf; stroke-width: 1.2; stroke-linecap: round"/>
    </g>
    <g id="text_18">
     <!-- dv1 periapsis raise -->
     <g style="fill: #262626" transform="translate(401.319916 137.310059) scale(0.09996 -0.09996)">
      <defs>
       <path id="ArialMT-47" d="M 2575 0 
L 2575 419 
Q 2259 -75 1647 -75 
Q 1250 -75 917 144 
Q 584 363 401 755 
Q 219 1147 219 1656 
Q 219 2153 384 2558 
Q 550 2963 881 3178 
Q 1213 3394 1622 3394 
Q 1922 3394 2156 3267 
Q 2391 3141 2538 2938 
L 2538 4581 
L 3097 4581 
L 3097 0 
L 2575 0 
z
M 797 1656 
Q 797 1019 1065 703 
Q 1334 388 1700 388 
Q 2069 388 2326 689 
Q 2584 991 2584 1609 
Q 2584 2291 2321 2609 
Q 2059 2928 1675 2928 
Q 1300 2928 1048 2622 
Q 797 2316 797 1656 
z
" transform="scale(0.015625)"/>
      </defs>
      <use xlink:href="#ArialMT-47"/>
      <use xlink:href="#ArialMT-59" transform="translate(55.609375 0)"/>
      <use xlink:href="#ArialMT-14" transform="translate(105.609375 0)"/>
      <use xlink:href="#ArialMT-3" transform="translate(161.21875 0)"/>
      <use xlink:href="#ArialMT-53" transform="translate(189 0)"/>
      <use xlink:href="#ArialMT-48" transform="translate(244.609375 0)"/>
      <use xlink:href="#ArialMT-55" transform="translate(300.21875 0)"/>
      <use xlink:href="#ArialMT-4c" transform="translate(333.515625 0)"/>
      <use xlink:href="#ArialMT-44" transform="translate(355.734375 0)"/>
      <use xlink:href="#ArialMT-53" transform="translate(411.34375 0)"/>
      <use xlink:href="#ArialMT-56" transform="translate(466.953125 0)"/>
      <use xlink:href="#ArialMT-4c" transform="translate(516.953125 0)"/>
      <use xlink:href="#ArialMT-56" transform="translate(539.171875 0)"/>
      <use xlink:href="#ArialMT-3" transform="translate(589.171875 0)"/>
      <use xlink:href="#ArialMT-55" transform="translate(616.953125 0)"/>
      <use xlink:href="#ArialMT-44" transform="translate(650.25 0)"/>
      <use xlink:href="#ArialMT-4c" transform="translate(705.859375 0)"/>
      <use xlink:href="#ArialMT-56" transform="translate(728.078125 0)"/>
      <use xlink:href="#ArialMT-48" transform="translate(778.078125 0)"/>
     </g>
    </g>
    <g id="line2d_20">
     <path d="M 373.331116 148.190471 
L 383.327116 148.190471 
L 393.323116 148.190471 
" style="fill: none; stroke: #d1701f; stroke-width: 1.2; stroke-linecap: round"/>
    </g>
    <g id="text_19">
     <!-- dv2 circularization -->
     <g style="fill: #262626" transform="translate(401.319916 151.689071) scale(0.09996 -0.09996)">
      <defs>
       <path id="ArialMT-5d" d="M 125 0 
L 125 456 
L 2238 2881 
Q 1878 2863 1603 2863 
L 250 2863 
L 250 3319 
L 2963 3319 
L 2963 2947 
L 1166 841 
L 819 456 
Q 1197 484 1528 484 
L 3063 484 
L 3063 0 
L 125 0 
z
" transform="scale(0.015625)"/>
      </defs>
      <use xlink:href="#ArialMT-47"/>
      <use xlink:href="#ArialMT-59" transform="translate(55.609375 0)"/>
      <use xlink:href="#ArialMT-15" transform="translate(105.609375 0)"/>
      <use xlink:href="#ArialMT-3" transform="translate(161.21875 0)"/>
      <use xlink:href="#ArialMT-46" transform="translate(189 0)"/>
      <use xlink:href="#ArialMT-4c" transform="translate(239 0)"/>
      <use xlink:href="#ArialMT-55" transform="translate(261.21875 0)"/>
      <use xlink:href="#ArialMT-46" transform="translate(294.515625 0)"/>
      <use xlink:href="#ArialMT-58" transform="translate(344.515625 0)"/>
      <use xlink:href="#ArialMT-4f" transform="translate(400.125 0)"/>
      <use xlink:href="#ArialMT-44" transform="translate(422.34375 0)"/>
      <use xlink:href="#ArialMT-55" transform="translate(477.953125 0)"/>
      <use xlink:href="#ArialMT-4c" transform="translate(511.25 0)"/>
      <use xlink:href="#ArialMT-5d" transform="translate(533.46875 0)"/>
      <use xlink:href="#ArialMT-44" transform="translate(583.46875 0)"/>
      <use xlink:href="#ArialMT-57" transform="translate(639.078125 0)"/>
      <use xlink:href="#ArialMT-4c" transform="translate(666.859375 0)"/>
      <use xlink:href="#ArialMT-52" transform="translate(689.078125 0)"/>
      <use xlink:href="#ArialMT-51" transform="translate(744.6875 0)"/>
     </g>
    </g>
    <g id="line2d_21">
     <path d="M 373.331116 162.569482 
L 383.327116 162.569482 
L 393.323116 162.569482 
" style="fill: none; stroke: #6a51a3; stroke-width: 1.2; stroke-linecap: round"/>
    </g>
    <g id="text_20">
     <!-- dv3 plane change -->
     <g style="fill: #262626" transform="translate(401.319916 166.068082) scale(0.09996 -0.09996)">
      <defs>
       <path id="ArialMT-16" d="M 269 1209 
L 831 1284 
Q 928 806 1161 595 
Q 1394 384 1728 384 
Q 2125 384 2398 659 
Q 2672 934 2672 1341 
Q 2672 1728 2419 1979 
Q 2166 2231 1775 2231 
Q 1616 2231 1378 2169 
L 1441 2663 
Q 1497 2656 1531 2656 
Q 1891 2656 2178 2843 
Q 2466 3031 2466 3422 
Q 2466 3731 2256 3934 
Q 2047 4138 1716 4138 
Q 1388 4138 1169 3931 
Q 950 3725 888 3313 
L 325 3413 
Q 428 3978 793 4289 
Q 1159 4600 1703 4600 
Q 2078 4600 2393 4439 
Q 2709 4278 2876 4000 
Q 3044 3722 3044 3409 
Q 3044 3113 2884 2869 
Q 2725 2625 2413 2481 
Q 2819 2388 3044 2092 
Q 3269 1797 3269 1353 
Q 3269 753 2831 336 
Q 2394 -81 1725 -81 
Q 1122 -81 723 278 
Q 325 638 269 1209 
z
" transform="scale(0.015625)"/>
       <path id="ArialMT-4b" d="M 422 0 
L 422 4581 
L 984 4581 
L 984 2938 
Q 1378 3394 1978 3394 
Q 2347 3394 2619 3248 
Q 2891 3103 3008 2847 
Q 3125 2591 3125 2103 
L 3125 0 
L 2563 0 
L 2563 2103 
Q 2563 2525 2380 2717 
Q 2197 2909 1863 2909 
Q 1613 2909 1392 2779 
Q 1172 2650 1078 2428 
Q 984 2206 984 1816 
L 984 0 
L 422 0 
z
" transform="scale(0.015625)"/>
       <path id="ArialMT-4a" d="M 319 -275 
L 866 -356 
Q 900 -609 1056 -725 
Q 1266 -881 1628 -881 
Q 2019 -881 2231 -725 
Q 2444 -569 2519 -288 
Q 2563 -116 2559 434 
Q 2191 0 1641 0 
Q 956 0 581 494 
Q 206 988 206 1678 
Q 206 2153 378 2554 
Q 550 2956 876 3175 
Q 1203 3394 1644 3394 
Q 2231 3394 2613 2919 
L 2613 3319 
L 3131 3319 
L 3131 450 
Q 3131 -325 2973 -648 
Q 2816 -972 2473 -1159 
Q 2131 -1347 1631 -1347 
Q 1038 -1347 672 -1080 
Q 306 -813 319 -275 
z
M 784 1719 
Q 784 1066 1043 766 
Q 1303 466 1694 466 
Q 2081 466 2343 764 
Q 2606 1063 2606 1700 
Q 2606 2309 2336 2618 
Q 2066 2928 1684 2928 
Q 1309 2928 1046 2623 
Q 784 2319 784 1719 
z
" transform="scale(0.015625)"/>
      </defs>
      <use xlink:href="#ArialMT-47"/>
      <use xlink:href="#ArialMT-59" transform="translate(55.609375 0)"/>
      <use xlink:href="#ArialMT-16" transform="translate(105.609375 0)"/>
      <use xlink:href="#ArialMT-3" transform="translate(161.21875 0)"/>
      <use xlink:href="#ArialMT-53" transform="translate(189 0)"/>
      <use xlink:href="#ArialMT-4f" transform="translate(244.609375 0)"/>
      <use xlink:href="#ArialMT-44" transform="translate(266.828125 0)"/>
      <use xlink:href="#ArialMT-51" transform="translate(322.4375 0)"/>
      <use xlink:href="#ArialMT-48" transform="translate(378.046875 0)"/>
      <use xlink:href="#ArialMT-3" transform="translate(433.65625 0)"/>
      <use xlink:href="#ArialMT-46" transform="translate(461.4375 0)"/>
      <use xlink:href="#ArialMT-4b" transform="translate(511.4375 0)"/>
      <use xlink:href="#ArialMT-44" transform="translate(567.046875 0)"/>
      <use xlink:href="#ArialMT-51" transform="translate(622.65625 0)"/>
      <use xlink:href="#ArialMT-4a" transform="translate(678.265625 0)"/>
      <use xlink:href="#ArialMT-48" transform="translate(733.875 0)"/>
     </g>
    </g>
   </g>
  </g>
 </g>
 <defs>
  <clipPath id="pc6a5398e89">
   <rect x="47.251719" y="21.936328" width="446.4" height="155.232"/>
  </clipPath>
 </defs>
</svg>
