<?xml version="1.0" encoding="utf-8" standalone="no"?>
<!DOCTYPE svg PUBLIC "-//W3C//DTD SVG 1.1//EN"
  "http://www.w3.org/Graphics/SVG/1.1/DTD/svg11.dtd">
<svg xmlns:xlink="http://www.w3.org/1999/xlink" width="612.164375pt" height="241.364719pt" viewBox="0 0 612.164375 241.364719" xmlns="http://www.w3.org/2000/svg" version="1.1">
 <metadata>
  <rdf:RDF xmlns:dc="http://purl.org/dc/elements/1.1/" xmlns:cc="http://creativecommons.org/ns#" xmlns:rdf="http://www.w3.org/1999/02/22-rdf-syntax-ns#">
   <cc:Work>
    <dc:type rdf:resource="http://purl.org/dc/dcmitype/StillImage"/>
    <dc:date>2026-07-03T21:40:56.631730</dc:date>
    <dc:format>image/svg+xml</dc:format>
    <dc:creator>
     <cc:Agent>
      <dc:title>Matplotlib v3.10.9, https://matplotlib.org/</dc:title>
     </cc:Agent>
    </dc:creator>
   </cc:Work>
  </rdf:RDF>
 </metadata>
 <defs>
  <style type="text/css">*{stroke-linejoin: round; stroke-linecap: butt}</style>
 </defs>
 <g id="figure_1">
  <g id="patch_1">
   <path d="M 0 241.364719 
L 612.164375 241.364719 
L 612.164375 -0 
L 0 -0 
z
" style="fill: #ffffff"/>
  </g>
  <g id="axes_1">
   <g id="patch_2">
    <path d="M 46.964375 199.343625 
L 604.964375 199.343625 
L 604.964375 21.935625 
L 46.964375 21.935625 
z
" style="fill: #f5f5f5"/>
   </g>
   <g id="matplotlib.axis_1">
    <g id="xtick_1">
     <g id="line2d_1">
      <path d="M 72.326571 199.343625 
L 72.326571 21.935625 
" clip-path="url(#p8cc4e3c715)" style="fill: none; stroke: #cccccc; stroke-linecap: round"/>
     </g>
     <g id="text_1">
      <!-- 0 -->
      <g style="fill: #262626" transform="translate(69.268055 216.717219) scale(0.11 -0.11)">
       <defs>
        <path id="ArialMT-30" d="M 266 2259 
Q 266 3072 433 3567 
Q 600 4063 929 4331 
Q 1259 4600 1759 4600 
Q 2128 4600 2406 4451 
Q 2684 4303 2865 4023 
Q 3047 3744 3150 3342 
Q 3253 2941 3253 2259 
Q 3253 1453 3087 958 
Q 2922 463 2592 192 
Q 2263 -78 1759 -78 
Q 1097 -78 719 397 
Q 266 969 266 2259 
z
M 844 2259 
Q 844 1131 1108 757 
Q 1372 384 1759 384 
Q 2147 384 2411 759 
Q 2675 1134 2675 2259 
Q 2675 3391 2411 3762 
Q 2147 4134 1753 4134 
Q 1366 4134 1134 3806 
Q 844 3388 844 2259 
z
" transform="scale(0.015625)"/>
       </defs>
       <use xlink:href="#ArialMT-30"/>
      </g>
     </g>
    </g>
    <g id="xtick_2">
     <g id="line2d_2">
      <path d="M 135.342344 199.343625 
L 135.342344 21.935625 
" clip-path="url(#p8cc4e3c715)" style="fill: none; stroke: #cccccc; stroke-linecap: round"/>
     </g>
     <g id="text_2">
      <!-- 20 -->
      <g style="fill: #262626" transform="translate(129.225312 216.717219) scale(0.11 -0.11)">
       <defs>
        <path id="ArialMT-32" d="M 3222 541 
L 3222 0 
L 194 0 
Q 188 203 259 391 
Q 375 700 629 1000 
Q 884 1300 1366 1694 
Q 2113 2306 2375 2664 
Q 2638 3022 2638 3341 
Q 2638 3675 2398 3904 
Q 2159 4134 1775 4134 
Q 1369 4134 1125 3890 
Q 881 3647 878 3216 
L 300 3275 
Q 359 3922 746 4261 
Q 1134 4600 1788 4600 
Q 2447 4600 2831 4234 
Q 3216 3869 3216 3328 
Q 3216 3053 3103 2787 
Q 2991 2522 2730 2228 
Q 2469 1934 1863 1422 
Q 1356 997 1212 845 
Q 1069 694 975 541 
L 3222 541 
z
" transform="scale(0.015625)"/>
       </defs>
       <use xlink:href="#ArialMT-32"/>
       <use xlink:href="#ArialMT-30" transform="translate(55.615234 0)"/>
      </g>
     </g>
    </g>
    <g id="xtick_3">
     <g id="line2d_3">
      <path d="M 198.358117 199.343625 
L 198.358117 21.935625 
" clip-path="url(#p8cc4e3c715)" style="fill: none; stroke: #cccccc; stroke-linecap: round"/>
     </g>
     <g id="text_3">
      <!-- 40 -->
      <g style="fill: #262626" transform="translate(192.241085 216.717219) scale(0.11 -0.11)">
       <defs>
        <path id="ArialMT-34" d="M 2069 0 
L 2069 1097 
L 81 1097 
L 81 1613 
L 2172 4581 
L 2631 4581 
L 2631 1613 
L 3250 1613 
L 3250 1097 
L 2631 1097 
L 2631 0 
L 2069 0 
z
M 2069 1613 
L 2069 3678 
L 634 1613 
L 2069 1613 
z
" transform="scale(0.015625)"/>
       </defs>
       <use xlink:href="#ArialMT-34"/>
       <use xlink:href="#ArialMT-30" transform="translate(55.615234 0)"/>
      </g>
     </g>
    </g>
    <g id="xtick_4">
     <g id="line2d_4">
      <path d="M 261.373889 199.343625 
L 261.373889 21.935625 
" clip-path="url(#p8cc4e3c715)" style="fill: none; stroke: #cccccc; stroke-linecap: round"/>
     </g>
     <g id="text_4">
      <!-- 60 -->
      <g style="fill: #262626" transform="translate(255.256858 216.717219) scale(0.11 -0.11)">
       <defs>
        <path id="ArialMT-36" d="M 3184 3459 
L 2625 3416 
Q 2550 3747 2413 3897 
Q 2184 4138 1850 4138 
Q 1581 4138 1378 3988 
Q 1113 3794 959 3422 
Q 806 3050 800 2363 
Q 1003 2672 1297 2822 
Q 1591 2972 1913 2972 
Q 2475 2972 2870 2558 
Q 3266 2144 3266 1488 
Q 3266 1056 3080 686 
Q 2894 316 2569 119 
Q 2244 -78 1831 -78 
Q 1128 -78 684 439 
Q 241 956 241 2144 
Q 241 3472 731 4075 
Q 1159 4600 1884 4600 
Q 2425 4600 2770 4297 
Q 3116 3994 3184 3459 
z
M 888 1484 
Q 888 1194 1011 928 
Q 1134 663 1356 523 
Q 1578 384 1822 384 
Q 2178 384 2434 671 
Q 2691 959 2691 1453 
Q 2691 1928 2437 2201 
Q 2184 2475 1800 2475 
Q 1419 2475 1153 2201 
Q 888 1928 888 1484 
z
" transform="scale(0.015625)"/>
       </defs>
       <use xlink:href="#ArialMT-36"/>
       <use xlink:href="#ArialMT-30" transform="translate(55.615234 0)"/>
      </g>
     </g>
    </g>
    <g id="xtick_5">
     <g id="line2d_5">
      <path d="M 324.389662 199.343625 
L 324.389662 21.935625 
" clip-path="url(#p8cc4e3c715)" style="fill: none; stroke: #cccccc; stroke-linecap: round"/>
     </g>
     <g id="text_5">
      <!-- 80 -->
      <g style="fill: #262626" transform="translate(318.272631 216.717219) scale(0.11 -0.11)">
       <defs>
        <path id="ArialMT-38" d="M 1131 2484 
Q 781 2613 612 2850 
Q 444 3088 444 3419 
Q 444 3919 803 4259 
Q 1163 4600 1759 4600 
Q 2359 4600 2725 4251 
Q 3091 3903 3091 3403 
Q 3091 3084 2923 2848 
Q 2756 2613 2416 2484 
Q 2838 2347 3058 2040 
Q 3278 1734 3278 1309 
Q 3278 722 2862 322 
Q 2447 -78 1769 -78 
Q 1091 -78 675 323 
Q 259 725 259 1325 
Q 259 1772 486 2073 
Q 713 2375 1131 2484 
z
M 1019 3438 
Q 1019 3113 1228 2906 
Q 1438 2700 1772 2700 
Q 2097 2700 2305 2904 
Q 2513 3109 2513 3406 
Q 2513 3716 2298 3927 
Q 2084 4138 1766 4138 
Q 1444 4138 1231 3931 
Q 1019 3725 1019 3438 
z
M 838 1322 
Q 838 1081 952 856 
Q 1066 631 1291 507 
Q 1516 384 1775 384 
Q 2178 384 2440 643 
Q 2703 903 2703 1303 
Q 2703 1709 2433 1975 
Q 2163 2241 1756 2241 
Q 1359 2241 1098 1978 
Q 838 1716 838 1322 
z
" transform="scale(0.015625)"/>
       </defs>
       <use xlink:href="#ArialMT-38"/>
       <use xlink:href="#ArialMT-30" transform="translate(55.615234 0)"/>
      </g>
     </g>
    </g>
    <g id="xtick_6">
     <g id="line2d_6">
      <path d="M 387.405435 199.343625 
L 387.405435 21.935625 
" clip-path="url(#p8cc4e3c715)" style="fill: none; stroke: #cccccc; stroke-linecap: round"/>
     </g>
     <g id="text_6">
      <!-- 100 -->
      <g style="fill: #262626" transform="translate(378.229888 216.717219) scale(0.11 -0.11)">
       <defs>
        <path id="ArialMT-31" d="M 2384 0 
L 1822 0 
L 1822 3584 
Q 1619 3391 1289 3197 
Q 959 3003 697 2906 
L 697 3450 
Q 1169 3672 1522 3987 
Q 1875 4303 2022 4600 
L 2384 4600 
L 2384 0 
z
" transform="scale(0.015625)"/>
       </defs>
       <use xlink:href="#ArialMT-31"/>
       <use xlink:href="#ArialMT-30" transform="translate(55.615234 0)"/>
       <use xlink:href="#ArialMT-30" transform="translate(111.230469 0)"/>
      </g>
     </g>
    </g>
    <g id="xtick_7">
     <g id="line2d_7">
      <path d="M 450.421208 199.343625 
L 450.421208 21.935625 
" clip-path="url(#p8cc4e3c715)" style="fill: none; stroke: #cccccc; stroke-linecap: round"/>
     </g>
     <g id="text_7">
      <!-- 120 -->
      <g style="fill: #262626" transform="translate(441.245661 216.717219) scale(0.11 -0.11)">
       <use xlink:href="#ArialMT-31"/>
       <use xlink:href="#ArialMT-32" transform="translate(55.615234 0)"/>
       <use xlink:href="#ArialMT-30" transform="translate(111.230469 0)"/>
      </g>
     </g>
    </g>
    <g id="xtick_8">
     <g id="line2d_8">
      <path d="M 513.436981 199.343625 
L 513.436981 21.935625 
" clip-path="url(#p8cc4e3c715)" style="fill: none; stroke: #cccccc; stroke-linecap: round"/>
     </g>
     <g id="text_8">
      <!-- 140 -->
      <g style="fill: #262626" transform="translate(504.261434 216.717219) scale(0.11 -0.11)">
       <use xlink:href="#ArialMT-31"/>
       <use xlink:href="#ArialMT-34" transform="translate(55.615234 0)"/>
       <use xlink:href="#ArialMT-30" transform="translate(111.230469 0)"/>
      </g>
     </g>
    </g>
    <g id="xtick_9">
     <g id="line2d_9">
      <path d="M 576.452754 199.343625 
L 576.452754 21.935625 
" clip-path="url(#p8cc4e3c715)" style="fill: none; stroke: #cccccc; stroke-linecap: round"/>
     </g>
     <g id="text_9">
      <!-- 160 -->
      <g style="fill: #262626" transform="translate(567.277207 216.717219) scale(0.11 -0.11)">
       <use xlink:href="#ArialMT-31"/>
       <use xlink:href="#ArialMT-36" transform="translate(55.615234 0)"/>
       <use xlink:href="#ArialMT-30" transform="translate(111.230469 0)"/>
      </g>
     </g>
    </g>
    <g id="text_10">
     <!-- correction Δv (m/s) -->
     <g style="fill: #262626" transform="translate(275.950625 231.639094) scale(0.12 -0.12)">
      <defs>
       <path id="ArialMT-63" d="M 2588 1216 
L 3141 1144 
Q 3050 572 2676 248 
Q 2303 -75 1759 -75 
Q 1078 -75 664 370 
Q 250 816 250 1647 
Q 250 2184 428 2587 
Q 606 2991 970 3192 
Q 1334 3394 1763 3394 
Q 2303 3394 2647 3120 
Q 2991 2847 3088 2344 
L 2541 2259 
Q 2463 2594 2264 2762 
Q 2066 2931 1784 2931 
Q 1359 2931 1093 2626 
Q 828 2322 828 1663 
Q 828 994 1084 691 
Q 1341 388 1753 388 
Q 2084 388 2306 591 
Q 2528 794 2588 1216 
z
" transform="scale(0.015625)"/>
       <path id="ArialMT-6f" d="M 213 1659 
Q 213 2581 725 3025 
Q 1153 3394 1769 3394 
Q 2453 3394 2887 2945 
Q 3322 2497 3322 1706 
Q 3322 1066 3130 698 
Q 2938 331 2570 128 
Q 2203 -75 1769 -75 
Q 1072 -75 642 372 
Q 213 819 213 1659 
z
M 791 1659 
Q 791 1022 1069 705 
Q 1347 388 1769 388 
Q 2188 388 2466 706 
Q 2744 1025 2744 1678 
Q 2744 2294 2464 2611 
Q 2184 2928 1769 2928 
Q 1347 2928 1069 2612 
Q 791 2297 791 1659 
z
" transform="scale(0.015625)"/>
       <path id="ArialMT-72" d="M 416 0 
L 416 3319 
L 922 3319 
L 922 2816 
Q 1116 3169 1280 3281 
Q 1444 3394 1641 3394 
Q 1925 3394 2219 3213 
L 2025 2691 
Q 1819 2813 1613 2813 
Q 1428 2813 1281 2702 
Q 1134 2591 1072 2394 
Q 978 2094 978 1738 
L 978 0 
L 416 0 
z
" transform="scale(0.015625)"/>
       <path id="ArialMT-65" d="M 2694 1069 
L 3275 997 
Q 3138 488 2766 206 
Q 2394 -75 1816 -75 
Q 1088 -75 661 373 
Q 234 822 234 1631 
Q 234 2469 665 2931 
Q 1097 3394 1784 3394 
Q 2450 3394 2872 2941 
Q 3294 2488 3294 1666 
Q 3294 1616 3291 1516 
L 816 1516 
Q 847 969 1125 678 
Q 1403 388 1819 388 
Q 2128 388 2347 550 
Q 2566 713 2694 1069 
z
M 847 1978 
L 2700 1978 
Q 2663 2397 2488 2606 
Q 2219 2931 1791 2931 
Q 1403 2931 1139 2672 
Q 875 2413 847 1978 
z
" transform="scale(0.015625)"/>
       <path id="ArialMT-74" d="M 1650 503 
L 1731 6 
Q 1494 -44 1306 -44 
Q 1000 -44 831 53 
Q 663 150 594 308 
Q 525 466 525 972 
L 525 2881 
L 113 2881 
L 113 3319 
L 525 3319 
L 525 4141 
L 1084 4478 
L 1084 3319 
L 1650 3319 
L 1650 2881 
L 1084 2881 
L 1084 941 
Q 1084 700 1114 631 
Q 1144 563 1211 522 
Q 1278 481 1403 481 
Q 1497 481 1650 503 
z
" transform="scale(0.015625)"/>
       <path id="ArialMT-69" d="M 425 3934 
L 425 4581 
L 988 4581 
L 988 3934 
L 425 3934 
z
M 425 0 
L 425 3319 
L 988 3319 
L 988 0 
L 425 0 
z
" transform="scale(0.015625)"/>
       <path id="ArialMT-6e" d="M 422 0 
L 422 3319 
L 928 3319 
L 928 2847 
Q 1294 3394 1984 3394 
Q 2284 3394 2536 3286 
Q 2788 3178 2913 3003 
Q 3038 2828 3088 2588 
Q 3119 2431 3119 2041 
L 3119 0 
L 2556 0 
L 2556 2019 
Q 2556 2363 2490 2533 
Q 2425 2703 2258 2804 
Q 2091 2906 1866 2906 
Q 1506 2906 1245 2678 
Q 984 2450 984 1813 
L 984 0 
L 422 0 
z
" transform="scale(0.015625)"/>
       <path id="ArialMT-20" transform="scale(0.015625)"/>
       <path id="ArialMT-394" d="M -6 0 
L 1753 4581 
L 2406 4581 
L 4281 0 
L -6 0 
z
M 834 541 
L 3381 541 
L 2391 3150 
Q 2169 3738 2066 4100 
Q 1981 3675 1819 3225 
L 834 541 
z
" transform="scale(0.015625)"/>
       <path id="ArialMT-76" d="M 1344 0 
L 81 3319 
L 675 3319 
L 1388 1331 
Q 1503 1009 1600 663 
Q 1675 925 1809 1294 
L 2547 3319 
L 3125 3319 
L 1869 0 
L 1344 0 
z
" transform="scale(0.015625)"/>
       <path id="ArialMT-28" d="M 1497 -1347 
Q 1031 -759 709 28 
Q 388 816 388 1659 
Q 388 2403 628 3084 
Q 909 3875 1497 4659 
L 1900 4659 
Q 1522 4009 1400 3731 
Q 1209 3300 1100 2831 
Q 966 2247 966 1656 
Q 966 153 1900 -1347 
L 1497 -1347 
z
" transform="scale(0.015625)"/>
       <path id="ArialMT-6d" d="M 422 0 
L 422 3319 
L 925 3319 
L 925 2853 
Q 1081 3097 1340 3245 
Q 1600 3394 1931 3394 
Q 2300 3394 2536 3241 
Q 2772 3088 2869 2813 
Q 3263 3394 3894 3394 
Q 4388 3394 4653 3120 
Q 4919 2847 4919 2278 
L 4919 0 
L 4359 0 
L 4359 2091 
Q 4359 2428 4304 2576 
Q 4250 2725 4106 2815 
Q 3963 2906 3769 2906 
Q 3419 2906 3187 2673 
Q 2956 2441 2956 1928 
L 2956 0 
L 2394 0 
L 2394 2156 
Q 2394 2531 2256 2718 
Q 2119 2906 1806 2906 
Q 1569 2906 1367 2781 
Q 1166 2656 1075 2415 
Q 984 2175 984 1722 
L 984 0 
L 422 0 
z
" transform="scale(0.015625)"/>
       <path id="ArialMT-2f" d="M 0 -78 
L 1328 4659 
L 1778 4659 
L 453 -78 
L 0 -78 
z
" transform="scale(0.015625)"/>
       <path id="ArialMT-73" d="M 197 991 
L 753 1078 
Q 800 744 1014 566 
Q 1228 388 1613 388 
Q 2000 388 2187 545 
Q 2375 703 2375 916 
Q 2375 1106 2209 1216 
Q 2094 1291 1634 1406 
Q 1016 1563 777 1677 
Q 538 1791 414 1992 
Q 291 2194 291 2438 
Q 291 2659 392 2848 
Q 494 3038 669 3163 
Q 800 3259 1026 3326 
Q 1253 3394 1513 3394 
Q 1903 3394 2198 3281 
Q 2494 3169 2634 2976 
Q 2775 2784 2828 2463 
L 2278 2388 
Q 2241 2644 2061 2787 
Q 1881 2931 1553 2931 
Q 1166 2931 1000 2803 
Q 834 2675 834 2503 
Q 834 2394 903 2306 
Q 972 2216 1119 2156 
Q 1203 2125 1616 2013 
Q 2213 1853 2448 1751 
Q 2684 1650 2818 1456 
Q 2953 1263 2953 975 
Q 2953 694 2789 445 
Q 2625 197 2315 61 
Q 2006 -75 1616 -75 
Q 969 -75 630 194 
Q 291 463 197 991 
z
" transform="scale(0.015625)"/>
       <path id="ArialMT-29" d="M 791 -1347 
L 388 -1347 
Q 1322 153 1322 1656 
Q 1322 2244 1188 2822 
Q 1081 3291 891 3722 
Q 769 4003 388 4659 
L 791 4659 
Q 1378 3875 1659 3084 
Q 1900 2403 1900 1659 
Q 1900 816 1576 28 
Q 1253 -759 791 -1347 
z
" transform="scale(0.015625)"/>
      </defs>
      <use xlink:href="#ArialMT-63"/>
      <use xlink:href="#ArialMT-6f" transform="translate(50 0)"/>
      <use xlink:href="#ArialMT-72" transform="translate(105.615234 0)"/>
      <use xlink:href="#ArialMT-72" transform="translate(138.916016 0)"/>
      <use xlink:href="#ArialMT-65" transform="translate(172.216797 0)"/>
      <use xlink:href="#ArialMT-63" transform="translate(227.832031 0)"/>
      <use xlink:href="#ArialMT-74" transform="translate(277.832031 0)"/>
      <use xlink:href="#ArialMT-69" transform="translate(305.615234 0)"/>
      <use xlink:href="#ArialMT-6f" transform="translate(327.832031 0)"/>
      <use xlink:href="#ArialMT-6e" transform="translate(383.447266 0)"/>
      <use xlink:href="#ArialMT-20" transform="translate(439.0625 0)"/>
      <use xlink:href="#ArialMT-394" transform="translate(461.345703 0)"/>
      <use xlink:href="#ArialMT-76" transform="translate(528.142578 0)"/>
      <use xlink:href="#ArialMT-20" transform="translate(578.142578 0)"/>
      <use xlink:href="#ArialMT-28" transform="translate(605.925781 0)"/>
      <use xlink:href="#ArialMT-6d" transform="translate(639.226562 0)"/>
      <use xlink:href="#ArialMT-2f" transform="translate(722.527344 0)"/>
      <use xlink:href="#ArialMT-73" transform="translate(750.310547 0)"/>
      <use xlink:href="#ArialMT-29" transform="translate(800.310547 0)"/>
     </g>
    </g>
   </g>
   <g id="matplotlib.axis_2">
    <g id="ytick_1">
     <g id="line2d_10">
      <path d="M 46.964375 199.343625 
L 604.964375 199.343625 
" clip-path="url(#p8cc4e3c715)" style="fill: none; stroke: #cccccc; stroke-linecap: round"/>
     </g>
     <g id="text_11">
      <!-- 0.0 -->
      <g style="fill: #262626" transform="translate(22.174375 203.280422) scale(0.11 -0.11)">
       <defs>
        <path id="ArialMT-2e" d="M 581 0 
L 581 641 
L 1222 641 
L 1222 0 
L 581 0 
z
" transform="scale(0.015625)"/>
       </defs>
       <use xlink:href="#ArialMT-30"/>
       <use xlink:href="#ArialMT-2e" transform="translate(55.615234 0)"/>
       <use xlink:href="#ArialMT-30" transform="translate(83.398438 0)"/>
      </g>
     </g>
    </g>
    <g id="ytick_2">
     <g id="line2d_11">
      <path d="M 46.964375 163.862025 
L 604.964375 163.862025 
" clip-path="url(#p8cc4e3c715)" style="fill: none; stroke: #cccccc; stroke-linecap: round"/>
     </g>
     <g id="text_12">
      <!-- 0.2 -->
      <g style="fill: #262626" transform="translate(22.174375 167.798822) scale(0.11 -0.11)">
       <use xlink:href="#ArialMT-30"/>
       <use xlink:href="#ArialMT-2e" transform="translate(55.615234 0)"/>
       <use xlink:href="#ArialMT-32" transform="translate(83.398438 0)"/>
      </g>
     </g>
    </g>
    <g id="ytick_3">
     <g id="line2d_12">
      <path d="M 46.964375 128.380425 
L 604.964375 128.380425 
" clip-path="url(#p8cc4e3c715)" style="fill: none; stroke: #cccccc; stroke-linecap: round"/>
     </g>
     <g id="text_13">
      <!-- 0.4 -->
      <g style="fill: #262626" transform="translate(22.174375 132.317222) scale(0.11 -0.11)">
       <use xlink:href="#ArialMT-30"/>
       <use xlink:href="#ArialMT-2e" transform="translate(55.615234 0)"/>
       <use xlink:href="#ArialMT-34" transform="translate(83.398438 0)"/>
      </g>
     </g>
    </g>
    <g id="ytick_4">
     <g id="line2d_13">
      <path d="M 46.964375 92.898825 
L 604.964375 92.898825 
" clip-path="url(#p8cc4e3c715)" style="fill: none; stroke: #cccccc; stroke-linecap: round"/>
     </g>
     <g id="text_14">
      <!-- 0.6 -->
      <g style="fill: #262626" transform="translate(22.174375 96.835622) scale(0.11 -0.11)">
       <use xlink:href="#ArialMT-30"/>
       <use xlink:href="#ArialMT-2e" transform="translate(55.615234 0)"/>
       <use xlink:href="#ArialMT-36" transform="translate(83.398438 0)"/>
      </g>
     </g>
    </g>
    <g id="ytick_5">
     <g id="line2d_14">
      <path d="M 46.964375 57.417225 
L 604.964375 57.417225 
" clip-path="url(#p8cc4e3c715)" style="fill: none; stroke: #cccccc; stroke-linecap: round"/>
     </g>
     <g id="text_15">
      <!-- 0.8 -->
      <g style="fill: #262626" transform="translate(22.174375 61.354022) scale(0.11 -0.11)">
       <use xlink:href="#ArialMT-30"/>
       <use xlink:href="#ArialMT-2e" transform="translate(55.615234 0)"/>
       <use xlink:href="#ArialMT-38" transform="translate(83.398438 0)"/>
      </g>
     </g>
    </g>
    <g id="ytick_6">
     <g id="line2d_15">
      <path d="M 46.964375 21.935625 
L 604.964375 21.935625 
" clip-path="url(#p8cc4e3c715)" style="fill: none; stroke: #cccccc; stroke-linecap: round"/>
     </g>
     <g id="text_16">
      <!-- 1.0 -->
      <g style="fill: #262626" transform="translate(22.174375 25.872422) scale(0.11 -0.11)">
       <use xlink:href="#ArialMT-31"/>
       <use xlink:href="#ArialMT-2e" transform="translate(55.615234 0)"/>
       <use xlink:href="#ArialMT-30" transform="translate(83.398438 0)"/>
      </g>
     </g>
    </g>
    <g id="text_17">
     <!-- cumulative fraction -->
     <g style="fill: #262626" transform="translate(15.789375 160.658062) rotate(-90) scale(0.12 -0.12)">
      <defs>
       <path id="ArialMT-75" d="M 2597 0 
L 2597 488 
Q 2209 -75 1544 -75 
Q 1250 -75 995 37 
Q 741 150 617 320 
Q 494 491 444 738 
Q 409 903 409 1263 
L 409 3319 
L 972 3319 
L 972 1478 
Q 972 1038 1006 884 
Q 1059 663 1231 536 
Q 1403 409 1656 409 
Q 1909 409 2131 539 
Q 2353 669 2445 892 
Q 2538 1116 2538 1541 
L 2538 3319 
L 3100 3319 
L 3100 0 
L 2597 0 
z
" transform="scale(0.015625)"/>
       <path id="ArialMT-6c" d="M 409 0 
L 409 4581 
L 972 4581 
L 972 0 
L 409 0 
z
" transform="scale(0.015625)"/>
       <path id="ArialMT-61" d="M 2588 409 
Q 2275 144 1986 34 
Q 1697 -75 1366 -75 
Q 819 -75 525 192 
Q 231 459 231 875 
Q 231 1119 342 1320 
Q 453 1522 633 1644 
Q 813 1766 1038 1828 
Q 1203 1872 1538 1913 
Q 2219 1994 2541 2106 
Q 2544 2222 2544 2253 
Q 2544 2597 2384 2738 
Q 2169 2928 1744 2928 
Q 1347 2928 1158 2789 
Q 969 2650 878 2297 
L 328 2372 
Q 403 2725 575 2942 
Q 747 3159 1072 3276 
Q 1397 3394 1825 3394 
Q 2250 3394 2515 3294 
Q 2781 3194 2906 3042 
Q 3031 2891 3081 2659 
Q 3109 2516 3109 2141 
L 3109 1391 
Q 3109 606 3145 398 
Q 3181 191 3288 0 
L 2700 0 
Q 2613 175 2588 409 
z
M 2541 1666 
Q 2234 1541 1622 1453 
Q 1275 1403 1131 1340 
Q 988 1278 909 1158 
Q 831 1038 831 891 
Q 831 666 1001 516 
Q 1172 366 1500 366 
Q 1825 366 2078 508 
Q 2331 650 2450 897 
Q 2541 1088 2541 1459 
L 2541 1666 
z
" transform="scale(0.015625)"/>
       <path id="ArialMT-66" d="M 556 0 
L 556 2881 
L 59 2881 
L 59 3319 
L 556 3319 
L 556 3672 
Q 556 4006 616 4169 
Q 697 4388 901 4523 
Q 1106 4659 1475 4659 
Q 1713 4659 2000 4603 
L 1916 4113 
Q 1741 4144 1584 4144 
Q 1328 4144 1222 4034 
Q 1116 3925 1116 3625 
L 1116 3319 
L 1763 3319 
L 1763 2881 
L 1116 2881 
L 1116 0 
L 556 0 
z
" transform="scale(0.015625)"/>
      </defs>
      <use xlink:href="#ArialMT-63"/>
      <use xlink:href="#ArialMT-75" transform="translate(50 0)"/>
      <use xlink:href="#ArialMT-6d" transform="translate(105.615234 0)"/>
      <use xlink:href="#ArialMT-75" transform="translate(188.916016 0)"/>
      <use xlink:href="#ArialMT-6c" transform="translate(244.53125 0)"/>
      <use xlink:href="#ArialMT-61" transform="translate(266.748047 0)"/>
      <use xlink:href="#ArialMT-74" transform="translate(322.363281 0)"/>
      <use xlink:href="#ArialMT-69" transform="translate(350.146484 0)"/>
      <use xlink:href="#ArialMT-76" transform="translate(372.363281 0)"/>
      <use xlink:href="#ArialMT-65" transform="translate(422.363281 0)"/>
      <use xlink:href="#ArialMT-20" transform="translate(477.978516 0)"/>
      <use xlink:href="#ArialMT-66" transform="translate(505.761719 0)"/>
      <use xlink:href="#ArialMT-72" transform="translate(533.544922 0)"/>
      <use xlink:href="#ArialMT-61" transform="translate(566.845703 0)"/>
      <use xlink:href="#ArialMT-63" transform="translate(622.460938 0)"/>
      <use xlink:href="#ArialMT-74" transform="translate(672.460938 0)"/>
      <use xlink:href="#ArialMT-69" transform="translate(700.244141 0)"/>
      <use xlink:href="#ArialMT-6f" transform="translate(722.460938 0)"/>
      <use xlink:href="#ArialMT-6e" transform="translate(778.076172 0)"/>
     </g>
    </g>
   </g>
   <g id="line2d_16">
    <path d="M 433.96184 199.166217 
L 436.150597 198.988809 
L 436.204751 198.811401 
L 436.901277 198.456585 
L 437.3194 198.101769 
L 437.622171 197.924361 
L 437.658262 197.746953 
L 438.601168 197.392137 
L 438.69094 197.214729 
L 440.003905 196.682505 
L 440.09401 196.505097 
L 440.406602 196.327689 
L 440.642675 195.795465 
L 440.950637 195.618057 
L 441.063598 195.263241 
L 441.371443 195.085833 
L 441.389594 194.908425 
L 441.687411 194.553609 
L 442.077815 194.376201 
L 442.270323 194.021385 
L 443.111 193.134345 
L 443.511854 192.069897 
L 444.073079 191.892489 
L 444.149583 191.537673 
L 444.380602 191.360265 
L 444.391335 191.182857 
L 444.568497 190.828041 
L 444.58733 190.650633 
L 444.759841 190.473225 
L 444.875563 190.118409 
L 445.078189 189.408777 
L 445.436097 189.053961 
L 445.840726 188.166921 
L 446.216448 187.989513 
L 446.238008 187.812105 
L 446.41096 187.634697 
L 446.604799 186.747657 
L 446.704586 186.392841 
L 446.935264 185.860617 
L 447.076536 185.505801 
L 447.51772 185.150985 
L 447.543693 184.973577 
L 447.853632 184.618761 
L 447.97968 184.263945 
L 448.138121 183.376905 
L 448.434859 182.312457 
L 448.722168 181.425417 
L 448.873402 181.070601 
L 449.002401 180.183561 
L 449.41169 177.345033 
L 449.596225 177.167625 
L 449.706585 176.280585 
L 449.852114 175.570953 
L 450.268399 174.506505 
L 450.271367 174.329097 
L 450.570619 174.151689 
L 450.880811 173.442057 
L 451.160924 173.264649 
L 451.297618 172.377609 
L 451.568636 171.667977 
L 451.615323 171.313161 
L 451.780563 170.780937 
L 452.119332 169.361673 
L 452.205001 168.829449 
L 452.369701 168.652041 
L 452.426391 168.297225 
L 452.538309 167.942409 
L 452.615348 167.587593 
L 452.669036 167.410185 
L 452.868706 167.055369 
L 452.959052 166.345737 
L 453.073902 165.813513 
L 453.489259 163.862025 
L 453.574839 162.974985 
L 453.770009 162.797577 
L 453.793848 162.442761 
L 453.946805 162.087945 
L 454.25501 161.200905 
L 454.286364 161.023497 
L 454.48541 160.846089 
L 454.775404 159.604233 
L 454.964416 159.426825 
L 455.099414 158.362377 
L 455.247338 158.007561 
L 455.662237 155.878665 
L 455.85662 154.814217 
L 456.163064 153.927177 
L 456.545975 152.330505 
L 456.790082 151.443465 
L 456.951192 150.733833 
L 457.343493 149.491977 
L 457.530672 147.717897 
L 457.701781 147.185673 
L 457.740926 146.476041 
L 457.888264 146.121225 
L 458.01823 145.234185 
L 458.168657 144.879369 
L 458.610271 143.282697 
L 458.643619 142.927881 
L 458.858981 142.395657 
L 458.881921 142.218249 
L 459.02199 141.863433 
L 459.055775 141.508617 
L 459.270056 141.331209 
L 459.568185 139.734537 
L 460.074521 137.250825 
L 460.188134 136.541193 
L 460.539843 134.767113 
L 460.644428 134.412297 
L 460.735381 133.880073 
L 460.876506 133.525257 
L 461.203078 131.573769 
L 461.289547 131.218953 
L 461.455939 130.331913 
L 461.548161 129.622281 
L 461.796905 128.203017 
L 462.137754 127.848201 
L 462.985345 123.590409 
L 463.063504 123.058185 
L 463.20874 122.171145 
L 463.565979 120.397065 
L 463.71973 119.864841 
L 463.948647 119.332617 
L 464.421451 117.735945 
L 464.986974 114.897417 
L 465.078455 114.365193 
L 465.243522 113.300745 
L 465.619403 111.704073 
L 465.82588 110.639625 
L 466.334156 108.688137 
L 466.503128 108.333321 
L 466.616912 107.446281 
L 466.762014 106.914057 
L 466.892768 106.204425 
L 467.293438 104.252937 
L 467.525768 103.898121 
L 467.650147 103.188489 
L 467.798383 102.833673 
L 468.207963 101.414409 
L 468.636316 100.704777 
L 468.778996 99.817737 
L 468.976467 98.753289 
L 469.109474 98.398473 
L 469.319664 97.866249 
L 469.457733 97.688841 
L 469.77115 97.511433 
L 469.937008 96.801801 
L 470.143747 96.624393 
L 470.30162 96.269577 
L 470.530012 95.205129 
L 470.641969 94.850313 
L 470.798523 94.495497 
L 471.028087 93.785865 
L 471.233335 93.076233 
L 471.469278 92.366601 
L 471.739983 92.189193 
L 471.799404 92.011785 
L 472.292512 91.479561 
L 472.393031 90.769929 
L 472.499357 90.415113 
L 472.620687 89.882889 
L 473.038629 89.173257 
L 473.040175 88.995849 
L 473.41336 88.818441 
L 473.633507 87.931401 
L 474.192469 85.270281 
L 474.453059 84.915465 
L 475.207061 82.786569 
L 476.242945 78.706185 
L 476.406513 78.528777 
L 476.407558 78.351369 
L 476.533946 77.996553 
L 476.862016 77.109513 
L 477.250949 74.980617 
L 477.893494 73.206537 
L 477.940446 72.851721 
L 478.336969 72.319497 
L 478.590724 71.609865 
L 478.876313 70.900233 
L 479.024661 70.368009 
L 479.404219 69.658377 
L 479.750389 69.303561 
L 479.807395 68.948745 
L 480.069782 68.416521 
L 480.094545 67.884297 
L 480.339959 67.529481 
L 480.795762 66.819849 
L 480.99025 65.755401 
L 481.18103 65.400585 
L 481.256513 65.045769 
L 481.614987 64.690953 
L 481.816051 63.803913 
L 482.136199 63.271689 
L 482.26407 62.384649 
L 482.482464 61.320201 
L 483.105073 59.723529 
L 483.652807 59.368713 
L 483.747792 58.836489 
L 483.879615 58.304265 
L 483.994366 58.126857 
L 484.442454 57.772041 
L 484.637627 57.239817 
L 484.885226 56.707593 
L 484.934463 56.352777 
L 485.833577 55.465737 
L 486.184364 55.110921 
L 486.710787 54.756105 
L 486.712713 54.578697 
L 487.099612 54.401289 
L 487.160268 54.223881 
L 487.643868 53.869065 
L 487.681536 53.691657 
L 488.478023 52.982025 
L 488.586394 52.627209 
L 488.714282 52.094985 
L 488.991702 51.740169 
L 489.247139 51.030537 
L 489.614728 50.853129 
L 489.774435 50.498313 
L 490.068953 49.966089 
L 490.210214 49.611273 
L 490.309619 49.256457 
L 490.61834 48.546825 
L 490.98461 48.192009 
L 490.999584 47.837193 
L 491.214532 47.482377 
L 491.220448 47.304969 
L 491.490462 46.772745 
L 491.592494 45.885705 
L 492.271211 45.530889 
L 492.755285 44.466441 
L 492.876953 44.289033 
L 493.329742 43.934217 
L 493.436164 43.579401 
L 493.955096 43.224585 
L 494.068267 42.869769 
L 494.348273 42.514953 
L 494.534509 41.982729 
L 494.677327 41.805321 
L 495.053581 41.627913 
L 495.062073 41.450505 
L 495.762751 40.386057 
L 496.239031 40.208649 
L 496.344893 39.853833 
L 496.560218 39.676425 
L 496.725678 39.321609 
L 497.105928 38.611977 
L 497.494706 38.434569 
L 497.737145 37.724937 
L 498.53218 37.370121 
L 499.510409 35.950857 
L 499.662285 35.773449 
L 500.083769 35.596041 
L 500.206529 35.418633 
L 501.055415 34.886409 
L 501.123001 34.709001 
L 502.082876 34.176777 
L 502.167964 33.999369 
L 502.585906 33.821961 
L 503.336552 32.580105 
L 504.267594 32.225289 
L 504.314664 32.047881 
L 504.943255 31.870473 
L 505.308366 31.515657 
L 506.164124 31.160841 
L 506.415237 30.806025 
L 506.734994 30.096393 
L 507.480931 29.918985 
L 507.609422 29.741577 
L 508.121659 29.564169 
L 508.406724 29.209353 
L 509.044513 28.854537 
L 509.70947 28.677129 
L 509.928469 28.499721 
L 510.728411 28.322313 
L 510.734402 28.144905 
L 512.465278 27.967497 
L 512.820901 27.612681 
L 514.323571 27.257865 
L 514.611149 27.080457 
L 515.566269 26.903049 
L 515.913006 26.548233 
L 517.152744 26.370825 
L 517.190052 26.193417 
L 517.463834 26.016009 
L 517.943323 25.838601 
L 519.031441 25.661193 
L 519.162344 25.483785 
L 520.848076 25.128969 
L 520.972889 24.951561 
L 524.948332 24.241929 
L 527.885381 23.887113 
L 538.502338 23.354889 
L 540.011674 23.177481 
L 550.132314 22.822665 
L 551.732702 22.645257 
L 562.069431 22.467849 
L 564.0596 22.113033 
L 579.600739 21.935625 
L 579.600739 21.935625 
" clip-path="url(#p8cc4e3c715)" style="fill: none; stroke: #111111; stroke-width: 2; stroke-linecap: round"/>
   </g>
   <g id="line2d_17">
    <path d="M 408.719632 199.166217 
L 410.984197 198.988809 
L 411.319677 198.456585 
L 412.968013 198.279177 
L 412.989477 198.101769 
L 413.546089 197.924361 
L 413.561224 197.746953 
L 414.074809 197.569545 
L 414.164989 197.214729 
L 414.232217 197.037321 
L 414.514089 196.859913 
L 414.537188 196.682505 
L 414.692295 196.505097 
L 415.266247 196.327689 
L 416.03425 195.085833 
L 416.167328 194.731017 
L 416.496276 194.553609 
L 416.717641 194.021385 
L 417.030652 193.311753 
L 417.476231 193.134345 
L 418.396618 190.295817 
L 418.611989 189.941001 
L 418.709922 189.053961 
L 418.878131 188.521737 
L 418.939414 188.166921 
L 419.231849 187.812105 
L 419.383863 187.457289 
L 419.577445 187.279881 
L 419.680943 186.392841 
L 419.777214 185.860617 
L 420.001609 185.505801 
L 420.10439 184.618761 
L 420.532001 184.086537 
L 420.973537 181.780233 
L 421.163364 181.602825 
L 421.182102 181.248009 
L 421.483792 180.715785 
L 421.749139 178.586889 
L 421.959454 178.232073 
L 422.27794 176.635401 
L 422.538506 176.457993 
L 422.772691 175.393545 
L 422.898608 174.683913 
L 423.702352 172.377609 
L 423.705227 172.200201 
L 423.961696 172.022793 
L 424.083681 170.780937 
L 425.134565 168.119817 
L 425.252647 167.232777 
L 425.416196 166.700553 
L 425.524076 165.813513 
L 425.617414 164.749065 
L 425.709799 164.394249 
L 425.888408 164.039433 
L 426.165922 163.507209 
L 426.362544 162.620169 
L 426.988088 161.910537 
L 427.139377 161.378313 
L 427.277728 160.846089 
L 427.434652 160.313865 
L 427.506291 159.959049 
L 427.722915 159.781641 
L 427.817985 159.249417 
L 427.978719 158.894601 
L 428.091881 158.362377 
L 428.232734 157.475337 
L 428.242521 157.120521 
L 428.759695 156.233481 
L 428.811058 155.878665 
L 429.010738 155.701257 
L 429.020642 155.523849 
L 429.384078 154.991625 
L 429.480024 154.636809 
L 429.763677 153.572361 
L 430.162296 153.394953 
L 430.809739 151.443465 
L 430.97818 150.911241 
L 431.081438 150.201609 
L 431.406196 149.846793 
L 431.696774 149.314569 
L 431.810427 148.782345 
L 432.970053 144.701961 
L 433.194509 144.524553 
L 433.310041 144.169737 
L 433.654521 143.460105 
L 433.821658 142.395657 
L 433.988091 141.863433 
L 434.147758 140.976393 
L 434.723014 138.670089 
L 434.789953 137.960457 
L 435.005515 137.428233 
L 435.067443 136.896009 
L 435.195976 136.541193 
L 435.197838 136.363785 
L 435.345599 136.186377 
L 435.663669 136.008969 
L 435.70647 135.654153 
L 435.814286 135.299337 
L 435.961542 134.234889 
L 436.169025 133.347849 
L 436.351754 132.460809 
L 436.518328 131.396361 
L 436.665391 130.686729 
L 436.809118 130.154505 
L 436.83877 129.799689 
L 437.000505 129.444873 
L 437.096679 128.912649 
L 437.64326 127.315977 
L 437.776946 126.251529 
L 438.034585 125.364489 
L 438.202277 124.477449 
L 438.301794 123.767817 
L 438.6017 123.413001 
L 438.952696 121.816329 
L 439.340964 121.106697 
L 439.351842 120.751881 
L 439.47854 120.397065 
L 439.692759 119.332617 
L 439.913909 117.913353 
L 440.073992 117.381129 
L 440.190912 116.316681 
L 440.763797 113.478153 
L 440.98978 112.768521 
L 441.038671 112.591113 
L 441.242242 112.413705 
L 443.146888 102.833673 
L 443.643981 100.349961 
L 443.743213 99.995145 
L 444.292686 97.334025 
L 444.629165 96.092169 
L 444.896964 95.205129 
L 445.009901 94.672905 
L 445.111486 94.318089 
L 445.444307 93.076233 
L 445.836954 90.415113 
L 446.101491 90.060297 
L 446.492145 88.463625 
L 446.878511 86.512137 
L 447.192674 84.738057 
L 447.294546 83.851017 
L 447.565973 83.496201 
L 447.770964 82.431753 
L 447.91676 81.722121 
L 448.055791 81.012489 
L 448.143108 80.657673 
L 448.33736 80.125449 
L 448.891241 78.173961 
L 449.792233 75.690249 
L 449.832326 75.158025 
L 450.022761 74.803209 
L 450.39741 72.851721 
L 450.455021 72.319497 
L 450.608843 71.787273 
L 450.78059 70.722825 
L 450.8796 70.368009 
L 450.937441 69.835785 
L 451.054622 69.480969 
L 451.643457 67.352073 
L 451.937439 66.110217 
L 452.078028 65.755401 
L 452.081828 65.577993 
L 452.403446 65.400585 
L 452.711656 64.513545 
L 453.011291 63.803913 
L 453.147829 63.094281 
L 453.392945 62.739465 
L 453.651204 61.320201 
L 453.95344 60.433161 
L 454.428103 59.900937 
L 454.486678 59.546121 
L 454.873422 58.836489 
L 455.017848 58.481673 
L 455.736263 57.239817 
L 455.867179 56.707593 
L 456.255708 56.352777 
L 456.823747 54.756105 
L 457.003059 54.578697 
L 457.004609 54.401289 
L 457.295648 54.046473 
L 457.479311 52.982025 
L 457.705592 52.449801 
L 457.967141 51.562761 
L 458.248298 51.207945 
L 458.29498 51.030537 
L 458.521892 50.675721 
L 459.329039 48.546825 
L 459.511737 48.192009 
L 459.522646 48.014601 
L 460.634049 46.595337 
L 460.759276 45.708297 
L 460.925452 45.353481 
L 461.236387 44.998665 
L 461.511904 44.289033 
L 461.823268 43.934217 
L 462.068573 43.224585 
L 463.357237 41.627913 
L 464.175642 40.386057 
L 464.335582 40.031241 
L 464.913242 38.966793 
L 465.658911 38.611977 
L 466.136251 37.902345 
L 466.178729 37.724937 
L 466.505343 37.370121 
L 466.773409 36.837897 
L 467.204668 35.596041 
L 467.636613 35.418633 
L 467.680461 35.241225 
L 468.050668 34.886409 
L 468.301823 34.531593 
L 468.767122 34.354185 
L 469.141026 33.467145 
L 469.356668 32.934921 
L 470.093488 32.580105 
L 470.630297 32.402697 
L 470.72245 31.693065 
L 471.232098 31.338249 
L 471.438894 30.983433 
L 472.643492 30.451209 
L 472.812542 29.918985 
L 473.361045 29.564169 
L 473.413162 29.031945 
L 473.869531 28.854537 
L 473.870279 28.677129 
L 475.05441 27.257865 
L 475.105141 27.080457 
L 475.46454 26.903049 
L 475.481288 26.725641 
L 476.531061 26.548233 
L 476.731714 26.193417 
L 477.431595 26.016009 
L 477.535044 25.838601 
L 478.31999 25.661193 
L 478.621311 25.128969 
L 479.929211 24.774153 
L 480.210664 24.419337 
L 480.251305 24.241929 
L 480.702157 23.887113 
L 481.034878 23.532297 
L 481.747999 23.354889 
L 483.359796 23.177481 
L 488.389565 22.822665 
L 490.509677 22.467849 
L 490.706594 22.290441 
L 493.154738 21.935625 
L 493.154738 21.935625 
" clip-path="url(#p8cc4e3c715)" style="fill: none; stroke: #4878cf; stroke-width: 1.2; stroke-linecap: round"/>
   </g>
   <g id="line2d_18">
    <path d="M 72.339793 199.166217 
L 72.473432 198.101769 
L 72.536915 197.569545 
L 72.67707 196.150281 
L 72.797417 194.198793 
L 72.939036 192.779529 
L 73.10486 191.715081 
L 73.788679 187.102473 
L 73.934221 185.328393 
L 74.019352 183.909129 
L 74.15373 183.554313 
L 74.634898 179.473929 
L 74.77411 179.119113 
L 75.315727 176.635401 
L 75.523703 175.925769 
L 75.635147 175.216137 
L 75.756496 174.861321 
L 76.162843 171.135753 
L 76.260497 170.603529 
L 76.379331 170.248713 
L 76.556319 170.071305 
L 76.740802 168.829449 
L 76.987261 167.587593 
L 77.181191 166.345737 
L 77.250975 165.636105 
L 77.400498 164.749065 
L 77.523746 164.216841 
L 77.674786 163.684617 
L 77.772184 163.152393 
L 78.041647 160.846089 
L 78.208875 160.313865 
L 78.651716 157.120521 
L 78.8048 156.588297 
L 78.916314 156.056073 
L 79.206343 153.749769 
L 79.307182 153.394953 
L 79.410626 152.507913 
L 79.72958 149.846793 
L 79.803835 149.314569 
L 79.91753 148.604937 
L 80.149526 147.540489 
L 80.338289 146.121225 
L 80.52617 144.524553 
L 80.602027 143.814921 
L 80.729181 143.460105 
L 81.02171 142.573065 
L 81.30397 141.331209 
L 81.425914 140.621577 
L 81.520169 139.911945 
L 81.90797 138.315273 
L 82.150444 137.605641 
L 82.818394 133.702665 
L 82.917203 132.993033 
L 83.049114 132.638217 
L 84.922543 120.042249 
L 85.185718 119.332617 
L 85.330601 118.268169 
L 85.933037 116.316681 
L 86.000469 115.961865 
L 86.116062 115.607049 
L 86.330252 114.187785 
L 86.441731 113.300745 
L 86.716073 112.413705 
L 86.936096 112.058889 
L 86.969185 111.526665 
L 87.121231 111.171849 
L 87.180519 110.817033 
L 87.322538 110.462217 
L 88.166578 105.849609 
L 88.313193 105.494793 
L 88.454901 104.785161 
L 88.651565 104.430345 
L 88.773448 103.720713 
L 88.902972 103.188489 
L 88.998901 101.591817 
L 89.069882 101.059593 
L 89.262782 100.172553 
L 89.439439 99.640329 
L 89.615199 98.753289 
L 89.784754 97.866249 
L 90.418495 96.979209 
L 90.591973 95.382537 
L 90.828507 94.672905 
L 91.091769 93.963273 
L 91.164969 93.253641 
L 91.544021 92.721417 
L 91.716597 91.656969 
L 92.292114 89.350665 
L 92.432842 88.463625 
L 92.568151 88.108809 
L 93.181665 86.334729 
L 93.385676 85.092873 
L 93.89776 84.383241 
L 94.029518 83.673609 
L 94.274512 83.141385 
L 94.42042 82.254345 
L 94.515722 81.899529 
L 94.568366 81.544713 
L 94.745932 81.012489 
L 94.908009 80.480265 
L 95.075721 80.125449 
L 95.160369 79.415817 
L 95.605477 78.883593 
L 95.878489 78.351369 
L 95.902808 78.173961 
L 96.079634 77.996553 
L 96.199063 77.464329 
L 96.353064 76.932105 
L 96.67252 76.577289 
L 96.89696 76.222473 
L 97.133481 75.512841 
L 97.469729 74.980617 
L 97.4752 74.803209 
L 97.707631 74.625801 
L 97.835506 73.916169 
L 98.295618 72.496905 
L 98.595782 71.432457 
L 98.847974 70.900233 
L 98.95948 70.545417 
L 99.029453 70.190601 
L 99.274226 69.835785 
L 100.172875 67.884297 
L 100.298013 67.529481 
L 100.64259 67.352073 
L 100.643521 67.174665 
L 101.0592 66.465033 
L 101.255131 65.755401 
L 101.790103 65.223177 
L 101.849848 65.045769 
L 102.083927 64.868361 
L 102.213309 64.336137 
L 102.717884 63.803913 
L 102.996627 63.271689 
L 103.431222 63.094281 
L 103.470199 62.739465 
L 103.65194 62.562057 
L 103.77364 62.207241 
L 103.963841 61.852425 
L 104.009334 61.675017 
L 104.545401 61.320201 
L 105.092667 60.787977 
L 105.517008 60.610569 
L 105.570918 59.900937 
L 106.126554 58.836489 
L 106.178764 58.659081 
L 106.673276 58.481673 
L 106.897033 58.126857 
L 107.409825 57.772041 
L 107.506262 57.417225 
L 107.886694 56.530185 
L 108.216743 56.175369 
L 108.295908 55.820553 
L 108.718884 55.110921 
L 108.732957 54.933513 
L 109.382711 54.401289 
L 110.028348 54.223881 
L 110.329124 53.869065 
L 111.247543 52.627209 
L 111.704722 52.272393 
L 111.718101 52.094985 
L 112.102717 51.740169 
L 112.315922 51.207945 
L 112.884081 51.030537 
L 113.083613 50.675721 
L 113.372325 50.320905 
L 113.793083 49.966089 
L 113.928765 49.788681 
L 114.494946 49.433865 
L 114.92918 48.369417 
L 115.289193 48.014601 
L 115.725287 47.837193 
L 115.835115 47.482377 
L 116.45123 46.950153 
L 116.749092 46.417929 
L 117.310845 45.885705 
L 118.361852 45.708297 
L 118.642314 45.353481 
L 119.357031 45.176073 
L 119.446752 44.998665 
L 120.02538 44.821257 
L 120.032789 44.643849 
L 120.644537 44.289033 
L 120.928975 43.934217 
L 121.400618 43.579401 
L 121.802631 43.224585 
L 121.859259 43.047177 
L 122.207592 42.869769 
L 122.234839 42.692361 
L 122.989468 41.982729 
L 123.57175 41.805321 
L 123.743511 41.627913 
L 125.055957 41.273097 
L 125.443534 40.918281 
L 126.058866 40.031241 
L 126.851197 38.789385 
L 128.126939 38.611977 
L 129.173647 38.079753 
L 129.316678 37.547529 
L 129.716976 37.370121 
L 129.864381 36.660489 
L 130.372559 36.305673 
L 130.430509 36.128265 
L 131.054344 35.773449 
L 131.461216 35.596041 
L 131.749405 35.241225 
L 132.001032 35.063817 
L 132.49821 34.886409 
L 133.733483 34.531593 
L 134.995942 33.821961 
L 135.315043 33.467145 
L 138.892361 32.580105 
L 139.33111 32.225289 
L 140.204245 31.515657 
L 140.470547 31.160841 
L 141.856036 30.983433 
L 142.002402 30.806025 
L 142.924535 30.628617 
L 143.003609 30.273801 
L 143.729064 29.918985 
L 144.267562 29.564169 
L 144.449257 29.386761 
L 144.806327 29.209353 
L 146.581076 28.854537 
L 147.564809 27.967497 
L 148.731988 27.612681 
L 148.858583 27.435273 
L 149.309307 27.257865 
L 149.349141 27.080457 
L 150.983851 26.725641 
L 153.959126 26.548233 
L 154.845209 26.193417 
L 156.225678 26.016009 
L 156.279971 25.838601 
L 157.788702 25.483785 
L 157.914529 25.306377 
L 159.28194 25.128969 
L 159.353212 24.951561 
L 160.427834 24.774153 
L 160.442 24.596745 
L 164.794908 24.241929 
L 165.105059 24.064521 
L 165.672155 23.887113 
L 171.554934 23.709705 
L 173.090876 23.354889 
L 175.208374 23.177481 
L 176.961464 22.645257 
L 190.223402 22.290441 
L 196.051244 22.113033 
L 210.383033 21.935625 
L 210.383033 21.935625 
" clip-path="url(#p8cc4e3c715)" style="fill: none; stroke: #d1701f; stroke-width: 1.2; stroke-linecap: round"/>
   </g>
   <g id="line2d_19">
    <path d="M 72.328011 199.166217 
L 72.372085 198.279177 
L 72.481099 195.440649 
L 72.564697 194.553609 
L 72.984246 184.441353 
L 73.177504 180.715785 
L 73.255725 179.473929 
L 73.465301 175.748361 
L 73.543279 174.683913 
L 73.721814 172.732425 
L 73.814932 170.603529 
L 73.920922 167.587593 
L 75.520224 136.008969 
L 75.65502 133.170441 
L 76.218313 121.106697 
L 77.161194 104.607753 
L 77.289597 102.478857 
L 77.384314 101.059593 
L 77.470242 100.527369 
L 77.562416 99.108105 
L 77.656528 98.575881 
L 77.766621 96.801801 
L 77.902226 94.850313 
L 78.017897 92.366601 
L 78.208512 89.173257 
L 78.300137 87.931401 
L 78.669267 84.383241 
L 78.751069 83.673609 
L 78.812682 82.963977 
L 78.917591 81.722121 
L 79.18396 78.706185 
L 79.316361 77.464329 
L 79.470206 75.690249 
L 79.578103 73.738761 
L 79.686135 72.851721 
L 79.74288 71.787273 
L 79.880519 71.432457 
L 80.102413 69.126153 
L 80.270176 66.819849 
L 80.377439 65.932809 
L 80.567798 64.513545 
L 80.654206 63.981321 
L 81.147089 58.836489 
L 81.230376 57.772041 
L 81.368502 57.239817 
L 81.646895 55.997961 
L 81.760155 54.046473 
L 81.94788 52.982025 
L 82.170603 50.853129 
L 82.480464 49.788681 
L 82.535825 49.433865 
L 82.776009 49.079049 
L 83.054748 46.240521 
L 83.148714 45.885705 
L 83.604048 43.579401 
L 83.685254 43.047177 
L 83.803001 41.805321 
L 84.649005 38.611977 
L 85.20089 37.902345 
L 85.547486 37.015305 
L 85.88217 36.660489 
L 86.122972 36.128265 
L 86.212484 35.596041 
L 86.56006 35.418633 
L 86.656017 34.709001 
L 86.917566 34.354185 
L 87.108554 32.934921 
L 87.411733 32.757513 
L 87.490064 32.402697 
L 87.860902 31.515657 
L 88.051042 30.806025 
L 88.453471 30.451209 
L 88.765417 29.918985 
L 88.781387 29.741577 
L 89.512086 29.209353 
L 90.020379 28.677129 
L 90.803412 28.499721 
L 90.868321 27.967497 
L 92.090239 27.435273 
L 92.428308 26.903049 
L 93.005078 26.725641 
L 93.200699 26.370825 
L 93.828018 26.193417 
L 94.040647 26.016009 
L 95.415044 25.661193 
L 95.554166 25.483785 
L 95.971587 25.306377 
L 97.344425 24.951561 
L 97.566968 24.774153 
L 99.581225 24.241929 
L 105.604661 23.532297 
L 106.77633 23.177481 
L 108.716432 23.000073 
L 108.740555 22.822665 
L 109.565684 22.645257 
L 127.109339 22.113033 
L 141.729564 21.935625 
L 141.729564 21.935625 
" clip-path="url(#p8cc4e3c715)" style="fill: none; stroke: #6a51a3; stroke-width: 1.2; stroke-linecap: round"/>
   </g>
   <g id="patch_3">
    <path d="M 46.964375 199.343625 
L 46.964375 21.935625 
" style="fill: none; stroke: #cccccc; stroke-width: 1.25; stroke-linejoin: miter; stroke-linecap: square"/>
   </g>
   <g id="patch_4">
    <path d="M 46.964375 199.343625 
L 604.964375 199.343625 
" style="fill: none; stroke: #cccccc; stroke-width: 1.25; stroke-linejoin: miter; stroke-linecap: square"/>
   </g>
   <g id="text_18">
    <!-- Correction Δv - - empirical CDF (total + burns) -->
    <g style="fill: #262626" transform="translate(205.764688 15.935625) scale(0.12 -0.12)">
     <defs>
      <path id="ArialMT-43" d="M 3763 1606 
L 4369 1453 
Q 4178 706 3683 314 
Q 3188 -78 2472 -78 
Q 1731 -78 1267 223 
Q 803 525 561 1097 
Q 319 1669 319 2325 
Q 319 3041 592 3573 
Q 866 4106 1370 4382 
Q 1875 4659 2481 4659 
Q 3169 4659 3637 4309 
Q 4106 3959 4291 3325 
L 3694 3184 
Q 3534 3684 3231 3912 
Q 2928 4141 2469 4141 
Q 1941 4141 1586 3887 
Q 1231 3634 1087 3207 
Q 944 2781 944 2328 
Q 944 1744 1114 1308 
Q 1284 872 1643 656 
Q 2003 441 2422 441 
Q 2931 441 3284 734 
Q 3638 1028 3763 1606 
z
" transform="scale(0.015625)"/>
      <path id="ArialMT-2d" d="M 203 1375 
L 203 1941 
L 1931 1941 
L 1931 1375 
L 203 1375 
z
" transform="scale(0.015625)"/>
      <path id="ArialMT-70" d="M 422 -1272 
L 422 3319 
L 934 3319 
L 934 2888 
Q 1116 3141 1344 3267 
Q 1572 3394 1897 3394 
Q 2322 3394 2647 3175 
Q 2972 2956 3137 2557 
Q 3303 2159 3303 1684 
Q 3303 1175 3120 767 
Q 2938 359 2589 142 
Q 2241 -75 1856 -75 
Q 1575 -75 1351 44 
Q 1128 163 984 344 
L 984 -1272 
L 422 -1272 
z
M 931 1641 
Q 931 1000 1190 694 
Q 1450 388 1819 388 
Q 2194 388 2461 705 
Q 2728 1022 2728 1688 
Q 2728 2322 2467 2637 
Q 2206 2953 1844 2953 
Q 1484 2953 1207 2617 
Q 931 2281 931 1641 
z
" transform="scale(0.015625)"/>
      <path id="ArialMT-44" d="M 494 0 
L 494 4581 
L 2072 4581 
Q 2606 4581 2888 4516 
Q 3281 4425 3559 4188 
Q 3922 3881 4101 3404 
Q 4281 2928 4281 2316 
Q 4281 1794 4159 1391 
Q 4038 988 3847 723 
Q 3656 459 3429 307 
Q 3203 156 2883 78 
Q 2563 0 2147 0 
L 494 0 
z
M 1100 541 
L 2078 541 
Q 2531 541 2789 625 
Q 3047 709 3200 863 
Q 3416 1078 3536 1442 
Q 3656 1806 3656 2325 
Q 3656 3044 3420 3430 
Q 3184 3816 2847 3947 
Q 2603 4041 2063 4041 
L 1100 4041 
L 1100 541 
z
" transform="scale(0.015625)"/>
      <path id="ArialMT-46" d="M 525 0 
L 525 4581 
L 3616 4581 
L 3616 4041 
L 1131 4041 
L 1131 2622 
L 3281 2622 
L 3281 2081 
L 1131 2081 
L 1131 0 
L 525 0 
z
" transform="scale(0.015625)"/>
      <path id="ArialMT-2b" d="M 1603 741 
L 1603 1997 
L 356 1997 
L 356 2522 
L 1603 2522 
L 1603 3769 
L 2134 3769 
L 2134 2522 
L 3381 2522 
L 3381 1997 
L 2134 1997 
L 2134 741 
L 1603 741 
z
" transform="scale(0.015625)"/>
      <path id="ArialMT-62" d="M 941 0 
L 419 0 
L 419 4581 
L 981 4581 
L 981 2947 
Q 1338 3394 1891 3394 
Q 2197 3394 2470 3270 
Q 2744 3147 2920 2923 
Q 3097 2700 3197 2384 
Q 3297 2069 3297 1709 
Q 3297 856 2875 390 
Q 2453 -75 1863 -75 
Q 1275 -75 941 416 
L 941 0 
z
M 934 1684 
Q 934 1088 1097 822 
Q 1363 388 1816 388 
Q 2184 388 2453 708 
Q 2722 1028 2722 1663 
Q 2722 2313 2464 2622 
Q 2206 2931 1841 2931 
Q 1472 2931 1203 2611 
Q 934 2291 934 1684 
z
" transform="scale(0.015625)"/>
     </defs>
     <use xlink:href="#ArialMT-43"/>
     <use xlink:href="#ArialMT-6f" transform="translate(72.216797 0)"/>
     <use xlink:href="#ArialMT-72" transform="translate(127.832031 0)"/>
     <use xlink:href="#ArialMT-72" transform="translate(161.132812 0)"/>
     <use xlink:href="#ArialMT-65" transform="translate(194.433594 0)"/>
     <use xlink:href="#ArialMT-63" transform="translate(250.048828 0)"/>
     <use xlink:href="#ArialMT-74" transform="translate(300.048828 0)"/>
     <use xlink:href="#ArialMT-69" transform="translate(327.832031 0)"/>
     <use xlink:href="#ArialMT-6f" transform="translate(350.048828 0)"/>
     <use xlink:href="#ArialMT-6e" transform="translate(405.664062 0)"/>
     <use xlink:href="#ArialMT-20" transform="translate(461.279297 0)"/>
     <use xlink:href="#ArialMT-394" transform="translate(483.5625 0)"/>
     <use xlink:href="#ArialMT-76" transform="translate(550.359375 0)"/>
     <use xlink:href="#ArialMT-20" transform="translate(600.359375 0)"/>
     <use xlink:href="#ArialMT-2d" transform="translate(628.142578 0)"/>
     <use xlink:href="#ArialMT-2d" transform="translate(661.443359 0)"/>
     <use xlink:href="#ArialMT-20" transform="translate(694.744141 0)"/>
     <use xlink:href="#ArialMT-65" transform="translate(722.527344 0)"/>
     <use xlink:href="#ArialMT-6d" transform="translate(778.142578 0)"/>
     <use xlink:href="#ArialMT-70" transform="translate(861.443359 0)"/>
     <use xlink:href="#ArialMT-69" transform="translate(917.058594 0)"/>
     <use xlink:href="#ArialMT-72" transform="translate(939.275391 0)"/>
     <use xlink:href="#ArialMT-69" transform="translate(972.576172 0)"/>
     <use xlink:href="#ArialMT-63" transform="translate(994.792969 0)"/>
     <use xlink:href="#ArialMT-61" transform="translate(1044.792969 0)"/>
     <use xlink:href="#ArialMT-6c" transform="translate(1100.408203 0)"/>
     <use xlink:href="#ArialMT-20" transform="translate(1122.625 0)"/>
     <use xlink:href="#ArialMT-43" transform="translate(1150.408203 0)"/>
     <use xlink:href="#ArialMT-44" transform="translate(1222.625 0)"/>
     <use xlink:href="#ArialMT-46" transform="translate(1294.841797 0)"/>
     <use xlink:href="#ArialMT-20" transform="translate(1355.925781 0)"/>
     <use xlink:href="#ArialMT-28" transform="translate(1383.708984 0)"/>
     <use xlink:href="#ArialMT-74" transform="translate(1417.009766 0)"/>
     <use xlink:href="#ArialMT-6f" transform="translate(1444.792969 0)"/>
     <use xlink:href="#ArialMT-74" transform="translate(1500.408203 0)"/>
     <use xlink:href="#ArialMT-61" transform="translate(1528.191406 0)"/>
     <use xlink:href="#ArialMT-6c" transform="translate(1583.806641 0)"/>
     <use xlink:href="#ArialMT-20" transform="translate(1606.023438 0)"/>
     <use xlink:href="#ArialMT-2b" transform="translate(1633.806641 0)"/>
     <use xlink:href="#ArialMT-20" transform="translate(1692.205078 0)"/>
     <use xlink:href="#ArialMT-62" transform="translate(1719.988281 0)"/>
     <use xlink:href="#ArialMT-75" transform="translate(1775.603516 0)"/>
     <use xlink:href="#ArialMT-72" transform="translate(1831.21875 0)"/>
     <use xlink:href="#ArialMT-6e" transform="translate(1864.519531 0)"/>
     <use xlink:href="#ArialMT-73" transform="translate(1920.134766 0)"/>
     <use xlink:href="#ArialMT-29" transform="translate(1970.134766 0)"/>
    </g>
   </g>
   <g id="legend_1">
    <g id="patch_5">
     <path d="M 482.644572 194.345625 
L 597.967175 194.345625 
Q 599.966375 194.345625 599.966375 192.346425 
L 599.966375 136.610916 
Q 599.966375 134.611716 597.967175 134.611716 
L 482.644572 134.611716 
Q 480.645372 134.611716 480.645372 136.610916 
L 480.645372 192.346425 
Q 480.645372 194.345625 482.644572 194.345625 
z
" style="fill: #f5f5f5; opacity: 0.8; stroke: #cccccc; stroke-linejoin: miter"/>
    </g>
    <g id="line2d_20">
     <path d="M 484.643772 142.266465 
L 494.639772 142.266465 
L 504.635772 142.266465 
" style="fill: none; stroke: #111111; stroke-width: 2; stroke-linecap: round"/>
    </g>
    <g id="text_19">
     <!-- total Δv -->
     <g style="fill: #262626" transform="translate(512.632572 145.765065) scale(0.09996 -0.09996)">
      <use xlink:href="#ArialMT-74"/>
      <use xlink:href="#ArialMT-6f" transform="translate(27.783203 0)"/>
      <use xlink:href="#ArialMT-74" transform="translate(83.398438 0)"/>
      <use xlink:href="#ArialMT-61" transform="translate(111.181641 0)"/>
      <use xlink:href="#ArialMT-6c" transform="translate(166.796875 0)"/>
      <use xlink:href="#ArialMT-20" transform="translate(189.013672 0)"/>
      <use xlink:href="#ArialMT-394" transform="translate(211.296875 0)"/>
      <use xlink:href="#ArialMT-76" transform="translate(278.09375 0)"/>
     </g>
    </g>
    <g id="line2d_21">
     <path d="M 484.643772 156.435795 
L 494.639772 156.435795 
L 504.635772 156.435795 
" style="fill: none; stroke: #4878cf; stroke-width: 1.2; stroke-linecap: round"/>
    </g>
    <g id="text_20">
     <!-- dv1 periapsis raise -->
     <g style="fill: #262626" transform="translate(512.632572 159.934395) scale(0.09996 -0.09996)">
      <defs>
       <path id="ArialMT-64" d="M 2575 0 
L 2575 419 
Q 2259 -75 1647 -75 
Q 1250 -75 917 144 
Q 584 363 401 755 
Q 219 1147 219 1656 
Q 219 2153 384 2558 
Q 550 2963 881 3178 
Q 1213 3394 1622 3394 
Q 1922 3394 2156 3267 
Q 2391 3141 2538 2938 
L 2538 4581 
L 3097 4581 
L 3097 0 
L 2575 0 
z
M 797 1656 
Q 797 1019 1065 703 
Q 1334 388 1700 388 
Q 2069 388 2326 689 
Q 2584 991 2584 1609 
Q 2584 2291 2321 2609 
Q 2059 2928 1675 2928 
Q 1300 2928 1048 2622 
Q 797 2316 797 1656 
z
" transform="scale(0.015625)"/>
      </defs>
      <use xlink:href="#ArialMT-64"/>
      <use xlink:href="#ArialMT-76" transform="translate(55.615234 0)"/>
      <use xlink:href="#ArialMT-31" transform="translate(105.615234 0)"/>
      <use xlink:href="#ArialMT-20" transform="translate(161.230469 0)"/>
      <use xlink:href="#ArialMT-70" transform="translate(189.013672 0)"/>
      <use xlink:href="#ArialMT-65" transform="translate(244.628906 0)"/>
      <use xlink:href="#ArialMT-72" transform="translate(300.244141 0)"/>
      <use xlink:href="#ArialMT-69" transform="translate(333.544922 0)"/>
      <use xlink:href="#ArialMT-61" transform="translate(355.761719 0)"/>
      <use xlink:href="#ArialMT-70" transform="translate(411.376953 0)"/>
      <use xlink:href="#ArialMT-73" transform="translate(466.992188 0)"/>
      <use xlink:href="#ArialMT-69" transform="translate(516.992188 0)"/>
      <use xlink:href="#ArialMT-73" transform="translate(539.208984 0)"/>
      <use xlink:href="#ArialMT-20" transform="translate(589.208984 0)"/>
      <use xlink:href="#ArialMT-72" transform="translate(616.992188 0)"/>
      <use xlink:href="#ArialMT-61" transform="translate(650.292969 0)"/>
      <use xlink:href="#ArialMT-69" transform="translate(705.908203 0)"/>
      <use xlink:href="#ArialMT-73" transform="translate(728.125 0)"/>
      <use xlink:href="#ArialMT-65" transform="translate(778.125 0)"/>
     </g>
    </g>
    <g id="line2d_22">
     <path d="M 484.643772 170.575449 
L 494.639772 170.575449 
L 504.635772 170.575449 
" style="fill: none; stroke: #d1701f; stroke-width: 1.2; stroke-linecap: round"/>
    </g>
    <g id="text_21">
     <!-- dv2 circularization -->
     <g style="fill: #262626" transform="translate(512.632572 174.074049) scale(0.09996 -0.09996)">
      <defs>
       <path id="ArialMT-7a" d="M 125 0 
L 125 456 
L 2238 2881 
Q 1878 2863 1603 2863 
L 250 2863 
L 250 3319 
L 2963 3319 
L 2963 2947 
L 1166 841 
L 819 456 
Q 1197 484 1528 484 
L 3063 484 
L 3063 0 
L 125 0 
z
" transform="scale(0.015625)"/>
      </defs>
      <use xlink:href="#ArialMT-64"/>
      <use xlink:href="#ArialMT-76" transform="translate(55.615234 0)"/>
      <use xlink:href="#ArialMT-32" transform="translate(105.615234 0)"/>
      <use xlink:href="#ArialMT-20" transform="translate(161.230469 0)"/>
      <use xlink:href="#ArialMT-63" transform="translate(189.013672 0)"/>
      <use xlink:href="#ArialMT-69" transform="translate(239.013672 0)"/>
      <use xlink:href="#ArialMT-72" transform="translate(261.230469 0)"/>
      <use xlink:href="#ArialMT-63" transform="translate(294.53125 0)"/>
      <use xlink:href="#ArialMT-75" transform="translate(344.53125 0)"/>
      <use xlink:href="#ArialMT-6c" transform="translate(400.146484 0)"/>
      <use xlink:href="#ArialMT-61" transform="translate(422.363281 0)"/>
      <use xlink:href="#ArialMT-72" transform="translate(477.978516 0)"/>
      <use xlink:href="#ArialMT-69" transform="translate(511.279297 0)"/>
      <use xlink:href="#ArialMT-7a" transform="translate(533.496094 0)"/>
      <use xlink:href="#ArialMT-61" transform="translate(583.496094 0)"/>
      <use xlink:href="#ArialMT-74" transform="translate(639.111328 0)"/>
      <use xlink:href="#ArialMT-69" transform="translate(666.894531 0)"/>
      <use xlink:href="#ArialMT-6f" transform="translate(689.111328 0)"/>
      <use xlink:href="#ArialMT-6e" transform="translate(744.726562 0)"/>
     </g>
    </g>
    <g id="line2d_23">
     <path d="M 484.643772 184.744779 
L 494.639772 184.744779 
L 504.635772 184.744779 
" style="fill: none; stroke: #6a51a3; stroke-width: 1.2; stroke-linecap: round"/>
    </g>
    <g id="text_22">
     <!-- dv3 plane change -->
     <g style="fill: #262626" transform="translate(512.632572 188.243379) scale(0.09996 -0.09996)">
      <defs>
       <path id="ArialMT-33" d="M 269 1209 
L 831 1284 
Q 928 806 1161 595 
Q 1394 384 1728 384 
Q 2125 384 2398 659 
Q 2672 934 2672 1341 
Q 2672 1728 2419 1979 
Q 2166 2231 1775 2231 
Q 1616 2231 1378 2169 
L 1441 2663 
Q 1497 2656 1531 2656 
Q 1891 2656 2178 2843 
Q 2466 3031 2466 3422 
Q 2466 3731 2256 3934 
Q 2047 4138 1716 4138 
Q 1388 4138 1169 3931 
Q 950 3725 888 3313 
L 325 3413 
Q 428 3978 793 4289 
Q 1159 4600 1703 4600 
Q 2078 4600 2393 4439 
Q 2709 4278 2876 4000 
Q 3044 3722 3044 3409 
Q 3044 3113 2884 2869 
Q 2725 2625 2413 2481 
Q 2819 2388 3044 2092 
Q 3269 1797 3269 1353 
Q 3269 753 2831 336 
Q 2394 -81 1725 -81 
Q 1122 -81 723 278 
Q 325 638 269 1209 
z
" transform="scale(0.015625)"/>
       <path id="ArialMT-68" d="M 422 0 
L 422 4581 
L 984 4581 
L 984 2938 
Q 1378 3394 1978 3394 
Q 2347 3394 2619 3248 
Q 2891 3103 3008 2847 
Q 3125 2591 3125 2103 
L 3125 0 
L 2563 0 
L 2563 2103 
Q 2563 2525 2380 2717 
Q 2197 2909 1863 2909 
Q 1613 2909 1392 2779 
Q 1172 2650 1078 2428 
Q 984 2206 984 1816 
L 984 0 
L 422 0 
z
" transform="scale(0.015625)"/>
       <path id="ArialMT-67" d="M 319 -275 
L 866 -356 
Q 900 -609 1056 -725 
Q 1266 -881 1628 -881 
Q 2019 -881 2231 -725 
Q 2444 -569 2519 -288 
Q 2563 -116 2559 434 
Q 2191 0 1641 0 
Q 956 0 581 494 
Q 206 988 206 1678 
Q 206 2153 378 2554 
Q 550 2956 876 3175 
Q 1203 3394 1644 3394 
Q 2231 3394 2613 2919 
L 2613 3319 
L 3131 3319 
L 3131 450 
Q 3131 -325 2973 -648 
Q 2816 -972 2473 -1159 
Q 2131 -1347 1631 -1347 
Q 1038 -1347 672 -1080 
Q 306 -813 319 -275 
z
M 784 1719 
Q 784 1066 1043 766 
Q 1303 466 1694 466 
Q 2081 466 2343 764 
Q 2606 1063 2606 1700 
Q 2606 2309 2336 2618 
Q 2066 2928 1684 2928 
Q 1309 2928 1046 2623 
Q 784 2319 784 1719 
z
" transform="scale(0.015625)"/>
      </defs>
      <use xlink:href="#ArialMT-64"/>
      <use xlink:href="#ArialMT-76" transform="translate(55.615234 0)"/>
      <use xlink:href="#ArialMT-33" transform="translate(105.615234 0)"/>
      <use xlink:href="#ArialMT-20" transform="translate(161.230469 0)"/>
      <use xlink:href="#ArialMT-70" transform="translate(189.013672 0)"/>
      <use xlink:href="#ArialMT-6c" transform="translate(244.628906 0)"/>
      <use xlink:href="#ArialMT-61" transform="translate(266.845703 0)"/>
      <use xlink:href="#ArialMT-6e" transform="translate(322.460938 0)"/>
      <use xlink:href="#ArialMT-65" transform="translate(378.076172 0)"/>
      <use xlink:href="#ArialMT-20" transform="translate(433.691406 0)"/>
      <use xlink:href="#ArialMT-63" transform="translate(461.474609 0)"/>
      <use xlink:href="#ArialMT-68" transform="translate(511.474609 0)"/>
      <use xlink:href="#ArialMT-61" transform="translate(567.089844 0)"/>
      <use xlink:href="#ArialMT-6e" transform="translate(622.705078 0)"/>
      <use xlink:href="#ArialMT-67" transform="translate(678.320312 0)"/>
      <use xlink:href="#ArialMT-65" transform="translate(733.935547 0)"/>
     </g>
    </g>
   </g>
  </g>
 </g>
 <defs>
  <clipPath id="p8cc4e3c715">
   <rect x="46.964375" y="21.935625" width="558" height="177.408"/>
  </clipPath>
 </defs>
</svg>
