<?xml version="1.0" encoding="utf-8" standalone="no"?>
<!DOCTYPE svg PUBLIC "-//W3C//DTD SVG 1.1//EN"
  "http://www.w3.org/Graphics/SVG/1.1/DTD/svg11.dtd">
<svg xmlns:xlink="http://www.w3.org/1999/xlink" width="500.851719pt" height="219.453523pt" viewBox="0 0 500.851719 219.453523" xmlns="http://www.w3.org/2000/svg" version="1.1">
 <metadata>
  <rdf:RDF xmlns:dc="http://purl.org/dc/elements/1.1/" xmlns:cc="http://creativecommons.org/ns#" xmlns:rdf="http://www.w3.org/1999/02/22-rdf-syntax-ns#">
   <cc:Work>
    <dc:type rdf:resource="http://purl.org/dc/dcmitype/StillImage"/>
    <dc:date>2026-07-10T12:47:31.312987</dc:date>
    <dc:format>image/svg+xml</dc:format>
    <dc:creator>
     <cc:Agent>
      <dc:title>Matplotlib v3.11.0, https://matplotlib.org/</dc:title>
     </cc:Agent>
    </dc:creator>
   </cc:Work>
  </rdf:RDF>
 </metadata>
 <defs>
  <style type="text/css">*{stroke-linejoin: round; stroke-linecap: butt}</style>
 </defs>
 <g id="figure_1">
  <g id="patch_1">
   <path d="M 0 219.453523 
L 500.851719 219.453523 
L 500.851719 0 
L 0 0 
z
" style="fill: #ffffff"/>
  </g>
  <g id="axes_1">
   <g id="patch_2">
    <path d="M 47.251719 177.168328 
L 493.651719 177.168328 
L 493.651719 21.936328 
L 47.251719 21.936328 
z
" style="fill: #f5f5f5"/>
   </g>
   <g id="matplotlib.axis_1">
    <g id="xtick_1">
     <g id="line2d_1">
      <path d="M 67.541475 177.168328 
L 67.541475 21.936328 
" clip-path="url(#pe2b28d7bee)" style="fill: none; stroke: #cccccc; stroke-linecap: round"/>
     </g>
     <g id="text_1">
      <!-- 0 -->
      <g style="fill: #262626" transform="translate(64.48296 194.676629) scale(0.11 -0.11)">
       <defs>
        <path id="ArialMT-13" d="M 266 2259 
Q 266 3072 433 3567 
Q 600 4063 929 4331 
Q 1259 4600 1759 4600 
Q 2128 4600 2406 4451 
Q 2684 4303 2865 4023 
Q 3047 3744 3150 3342 
Q 3253 2941 3253 2259 
Q 3253 1453 3087 958 
Q 2922 463 2592 192 
Q 2263 -78 1759 -78 
Q 1097 -78 719 397 
Q 266 969 266 2259 
z
M 844 2259 
Q 844 1131 1108 757 
Q 1372 384 1759 384 
Q 2147 384 2411 759 
Q 2675 1134 2675 2259 
Q 2675 3391 2411 3762 
Q 2147 4134 1753 4134 
Q 1366 4134 1134 3806 
Q 844 3388 844 2259 
z
" transform="scale(0.015625)"/>
       </defs>
       <use xlink:href="#ArialMT-13"/>
      </g>
     </g>
    </g>
    <g id="xtick_2">
     <g id="line2d_2">
      <path d="M 117.954094 177.168328 
L 117.954094 21.936328 
" clip-path="url(#pe2b28d7bee)" style="fill: none; stroke: #cccccc; stroke-linecap: round"/>
     </g>
     <g id="text_2">
      <!-- 20 -->
      <g style="fill: #262626" transform="translate(111.837062 194.676629) scale(0.11 -0.11)">
       <defs>
        <path id="ArialMT-15" d="M 3222 541 
L 3222 0 
L 194 0 
Q 188 203 259 391 
Q 375 700 629 1000 
Q 884 1300 1366 1694 
Q 2113 2306 2375 2664 
Q 2638 3022 2638 3341 
Q 2638 3675 2398 3904 
Q 2159 4134 1775 4134 
Q 1369 4134 1125 3890 
Q 881 3647 878 3216 
L 300 3275 
Q 359 3922 746 4261 
Q 1134 4600 1788 4600 
Q 2447 4600 2831 4234 
Q 3216 3869 3216 3328 
Q 3216 3053 3103 2787 
Q 2991 2522 2730 2228 
Q 2469 1934 1863 1422 
Q 1356 997 1212 845 
Q 1069 694 975 541 
L 3222 541 
z
" transform="scale(0.015625)"/>
       </defs>
       <use xlink:href="#ArialMT-15"/>
       <use xlink:href="#ArialMT-13" transform="translate(55.609375 0)"/>
      </g>
     </g>
    </g>
    <g id="xtick_3">
     <g id="line2d_3">
      <path d="M 168.366712 177.168328 
L 168.366712 21.936328 
" clip-path="url(#pe2b28d7bee)" style="fill: none; stroke: #cccccc; stroke-linecap: round"/>
     </g>
     <g id="text_3">
      <!-- 40 -->
      <g style="fill: #262626" transform="translate(162.249681 194.676629) scale(0.11 -0.11)">
       <defs>
        <path id="ArialMT-17" d="M 2069 0 
L 2069 1097 
L 81 1097 
L 81 1613 
L 2172 4581 
L 2631 4581 
L 2631 1613 
L 3250 1613 
L 3250 1097 
L 2631 1097 
L 2631 0 
L 2069 0 
z
M 2069 1613 
L 2069 3678 
L 634 1613 
L 2069 1613 
z
" transform="scale(0.015625)"/>
       </defs>
       <use xlink:href="#ArialMT-17"/>
       <use xlink:href="#ArialMT-13" transform="translate(55.609375 0)"/>
      </g>
     </g>
    </g>
    <g id="xtick_4">
     <g id="line2d_4">
      <path d="M 218.77933 177.168328 
L 218.77933 21.936328 
" clip-path="url(#pe2b28d7bee)" style="fill: none; stroke: #cccccc; stroke-linecap: round"/>
     </g>
     <g id="text_4">
      <!-- 60 -->
      <g style="fill: #262626" transform="translate(212.662299 194.676629) scale(0.11 -0.11)">
       <defs>
        <path id="ArialMT-19" d="M 3184 3459 
L 2625 3416 
Q 2550 3747 2413 3897 
Q 2184 4138 1850 4138 
Q 1581 4138 1378 3988 
Q 1113 3794 959 3422 
Q 806 3050 800 2363 
Q 1003 2672 1297 2822 
Q 1591 2972 1913 2972 
Q 2475 2972 2870 2558 
Q 3266 2144 3266 1488 
Q 3266 1056 3080 686 
Q 2894 316 2569 119 
Q 2244 -78 1831 -78 
Q 1128 -78 684 439 
Q 241 956 241 2144 
Q 241 3472 731 4075 
Q 1159 4600 1884 4600 
Q 2425 4600 2770 4297 
Q 3116 3994 3184 3459 
z
M 888 1484 
Q 888 1194 1011 928 
Q 1134 663 1356 523 
Q 1578 384 1822 384 
Q 2178 384 2434 671 
Q 2691 959 2691 1453 
Q 2691 1928 2437 2201 
Q 2184 2475 1800 2475 
Q 1419 2475 1153 2201 
Q 888 1928 888 1484 
z
" transform="scale(0.015625)"/>
       </defs>
       <use xlink:href="#ArialMT-19"/>
       <use xlink:href="#ArialMT-13" transform="translate(55.609375 0)"/>
      </g>
     </g>
    </g>
    <g id="xtick_5">
     <g id="line2d_5">
      <path d="M 269.191949 177.168328 
L 269.191949 21.936328 
" clip-path="url(#pe2b28d7bee)" style="fill: none; stroke: #cccccc; stroke-linecap: round"/>
     </g>
     <g id="text_5">
      <!-- 80 -->
      <g style="fill: #262626" transform="translate(263.074917 194.676629) scale(0.11 -0.11)">
       <defs>
        <path id="ArialMT-1b" d="M 1131 2484 
Q 781 2613 612 2850 
Q 444 3088 444 3419 
Q 444 3919 803 4259 
Q 1163 4600 1759 4600 
Q 2359 4600 2725 4251 
Q 3091 3903 3091 3403 
Q 3091 3084 2923 2848 
Q 2756 2613 2416 2484 
Q 2838 2347 3058 2040 
Q 3278 1734 3278 1309 
Q 3278 722 2862 322 
Q 2447 -78 1769 -78 
Q 1091 -78 675 323 
Q 259 725 259 1325 
Q 259 1772 486 2073 
Q 713 2375 1131 2484 
z
M 1019 3438 
Q 1019 3113 1228 2906 
Q 1438 2700 1772 2700 
Q 2097 2700 2305 2904 
Q 2513 3109 2513 3406 
Q 2513 3716 2298 3927 
Q 2084 4138 1766 4138 
Q 1444 4138 1231 3931 
Q 1019 3725 1019 3438 
z
M 838 1322 
Q 838 1081 952 856 
Q 1066 631 1291 507 
Q 1516 384 1775 384 
Q 2178 384 2440 643 
Q 2703 903 2703 1303 
Q 2703 1709 2433 1975 
Q 2163 2241 1756 2241 
Q 1359 2241 1098 1978 
Q 838 1716 838 1322 
z
" transform="scale(0.015625)"/>
       </defs>
       <use xlink:href="#ArialMT-1b"/>
       <use xlink:href="#ArialMT-13" transform="translate(55.609375 0)"/>
      </g>
     </g>
    </g>
    <g id="xtick_6">
     <g id="line2d_6">
      <path d="M 319.604567 177.168328 
L 319.604567 21.936328 
" clip-path="url(#pe2b28d7bee)" style="fill: none; stroke: #cccccc; stroke-linecap: round"/>
     </g>
     <g id="text_6">
      <!-- 100 -->
      <g style="fill: #262626" transform="translate(310.42902 194.676629) scale(0.11 -0.11)">
       <defs>
        <path id="ArialMT-14" d="M 2384 0 
L 1822 0 
L 1822 3584 
Q 1619 3391 1289 3197 
Q 959 3003 697 2906 
L 697 3450 
Q 1169 3672 1522 3987 
Q 1875 4303 2022 4600 
L 2384 4600 
L 2384 0 
z
" transform="scale(0.015625)"/>
       </defs>
       <use xlink:href="#ArialMT-14"/>
       <use xlink:href="#ArialMT-13" transform="translate(55.609375 0)"/>
       <use xlink:href="#ArialMT-13" transform="translate(111.21875 0)"/>
      </g>
     </g>
    </g>
    <g id="xtick_7">
     <g id="line2d_7">
      <path d="M 370.017185 177.168328 
L 370.017185 21.936328 
" clip-path="url(#pe2b28d7bee)" style="fill: none; stroke: #cccccc; stroke-linecap: round"/>
     </g>
     <g id="text_7">
      <!-- 120 -->
      <g style="fill: #262626" transform="translate(360.841638 194.676629) scale(0.11 -0.11)">
       <use xlink:href="#ArialMT-14"/>
       <use xlink:href="#ArialMT-15" transform="translate(55.609375 0)"/>
       <use xlink:href="#ArialMT-13" transform="translate(111.21875 0)"/>
      </g>
     </g>
    </g>
    <g id="xtick_8">
     <g id="line2d_8">
      <path d="M 420.429803 177.168328 
L 420.429803 21.936328 
" clip-path="url(#pe2b28d7bee)" style="fill: none; stroke: #cccccc; stroke-linecap: round"/>
     </g>
     <g id="text_8">
      <!-- 140 -->
      <g style="fill: #262626" transform="translate(411.254256 194.676629) scale(0.11 -0.11)">
       <use xlink:href="#ArialMT-14"/>
       <use xlink:href="#ArialMT-17" transform="translate(55.609375 0)"/>
       <use xlink:href="#ArialMT-13" transform="translate(111.21875 0)"/>
      </g>
     </g>
    </g>
    <g id="xtick_9">
     <g id="line2d_9">
      <path d="M 470.842422 177.168328 
L 470.842422 21.936328 
" clip-path="url(#pe2b28d7bee)" style="fill: none; stroke: #cccccc; stroke-linecap: round"/>
     </g>
     <g id="text_9">
      <!-- 160 -->
      <g style="fill: #262626" transform="translate(461.666875 194.676629) scale(0.11 -0.11)">
       <use xlink:href="#ArialMT-14"/>
       <use xlink:href="#ArialMT-19" transform="translate(55.609375 0)"/>
       <use xlink:href="#ArialMT-13" transform="translate(111.21875 0)"/>
      </g>
     </g>
    </g>
    <g id="text_10">
     <!-- correction Δv (m/s) -->
     <g style="fill: #262626" transform="translate(220.107969 209.727898) scale(0.12 -0.12)">
      <defs>
       <path id="ArialMT-46" d="M 2588 1216 
L 3141 1144 
Q 3050 572 2676 248 
Q 2303 -75 1759 -75 
Q 1078 -75 664 370 
Q 250 816 250 1647 
Q 250 2184 428 2587 
Q 606 2991 970 3192 
Q 1334 3394 1763 3394 
Q 2303 3394 2647 3120 
Q 2991 2847 3088 2344 
L 2541 2259 
Q 2463 2594 2264 2762 
Q 2066 2931 1784 2931 
Q 1359 2931 1093 2626 
Q 828 2322 828 1663 
Q 828 994 1084 691 
Q 1341 388 1753 388 
Q 2084 388 2306 591 
Q 2528 794 2588 1216 
z
" transform="scale(0.015625)"/>
       <path id="ArialMT-52" d="M 213 1659 
Q 213 2581 725 3025 
Q 1153 3394 1769 3394 
Q 2453 3394 2887 2945 
Q 3322 2497 3322 1706 
Q 3322 1066 3130 698 
Q 2938 331 2570 128 
Q 2203 -75 1769 -75 
Q 1072 -75 642 372 
Q 213 819 213 1659 
z
M 791 1659 
Q 791 1022 1069 705 
Q 1347 388 1769 388 
Q 2188 388 2466 706 
Q 2744 1025 2744 1678 
Q 2744 2294 2464 2611 
Q 2184 2928 1769 2928 
Q 1347 2928 1069 2612 
Q 791 2297 791 1659 
z
" transform="scale(0.015625)"/>
       <path id="ArialMT-55" d="M 416 0 
L 416 3319 
L 922 3319 
L 922 2816 
Q 1116 3169 1280 3281 
Q 1444 3394 1641 3394 
Q 1925 3394 2219 3213 
L 2025 2691 
Q 1819 2813 1613 2813 
Q 1428 2813 1281 2702 
Q 1134 2591 1072 2394 
Q 978 2094 978 1738 
L 978 0 
L 416 0 
z
" transform="scale(0.015625)"/>
       <path id="ArialMT-48" d="M 2694 1069 
L 3275 997 
Q 3138 488 2766 206 
Q 2394 -75 1816 -75 
Q 1088 -75 661 373 
Q 234 822 234 1631 
Q 234 2469 665 2931 
Q 1097 3394 1784 3394 
Q 2450 3394 2872 2941 
Q 3294 2488 3294 1666 
Q 3294 1616 3291 1516 
L 816 1516 
Q 847 969 1125 678 
Q 1403 388 1819 388 
Q 2128 388 2347 550 
Q 2566 713 2694 1069 
z
M 847 1978 
L 2700 1978 
Q 2663 2397 2488 2606 
Q 2219 2931 1791 2931 
Q 1403 2931 1139 2672 
Q 875 2413 847 1978 
z
" transform="scale(0.015625)"/>
       <path id="ArialMT-57" d="M 1650 503 
L 1731 6 
Q 1494 -44 1306 -44 
Q 1000 -44 831 53 
Q 663 150 594 308 
Q 525 466 525 972 
L 525 2881 
L 113 2881 
L 113 3319 
L 525 3319 
L 525 4141 
L 1084 4478 
L 1084 3319 
L 1650 3319 
L 1650 2881 
L 1084 2881 
L 1084 941 
Q 1084 700 1114 631 
Q 1144 563 1211 522 
Q 1278 481 1403 481 
Q 1497 481 1650 503 
z
" transform="scale(0.015625)"/>
       <path id="ArialMT-4c" d="M 425 3934 
L 425 4581 
L 988 4581 
L 988 3934 
L 425 3934 
z
M 425 0 
L 425 3319 
L 988 3319 
L 988 0 
L 425 0 
z
" transform="scale(0.015625)"/>
       <path id="ArialMT-51" d="M 422 0 
L 422 3319 
L 928 3319 
L 928 2847 
Q 1294 3394 1984 3394 
Q 2284 3394 2536 3286 
Q 2788 3178 2913 3003 
Q 3038 2828 3088 2588 
Q 3119 2431 3119 2041 
L 3119 0 
L 2556 0 
L 2556 2019 
Q 2556 2363 2490 2533 
Q 2425 2703 2258 2804 
Q 2091 2906 1866 2906 
Q 1506 2906 1245 2678 
Q 984 2450 984 1813 
L 984 0 
L 422 0 
z
" transform="scale(0.015625)"/>
       <path id="ArialMT-3" transform="scale(0.015625)"/>
       <path id="ArialMT-1fb" d="M -6 0 
L 1753 4581 
L 2406 4581 
L 4281 0 
L -6 0 
z
M 834 541 
L 3381 541 
L 2391 3150 
Q 2169 3738 2066 4100 
Q 1981 3675 1819 3225 
L 834 541 
z
" transform="scale(0.015625)"/>
       <path id="ArialMT-59" d="M 1344 0 
L 81 3319 
L 675 3319 
L 1388 1331 
Q 1503 1009 1600 663 
Q 1675 925 1809 1294 
L 2547 3319 
L 3125 3319 
L 1869 0 
L 1344 0 
z
" transform="scale(0.015625)"/>
       <path id="ArialMT-b" d="M 1497 -1347 
Q 1031 -759 709 28 
Q 388 816 388 1659 
Q 388 2403 628 3084 
Q 909 3875 1497 4659 
L 1900 4659 
Q 1522 4009 1400 3731 
Q 1209 3300 1100 2831 
Q 966 2247 966 1656 
Q 966 153 1900 -1347 
L 1497 -1347 
z
" transform="scale(0.015625)"/>
       <path id="ArialMT-50" d="M 422 0 
L 422 3319 
L 925 3319 
L 925 2853 
Q 1081 3097 1340 3245 
Q 1600 3394 1931 3394 
Q 2300 3394 2536 3241 
Q 2772 3088 2869 2813 
Q 3263 3394 3894 3394 
Q 4388 3394 4653 3120 
Q 4919 2847 4919 2278 
L 4919 0 
L 4359 0 
L 4359 2091 
Q 4359 2428 4304 2576 
Q 4250 2725 4106 2815 
Q 3963 2906 3769 2906 
Q 3419 2906 3187 2673 
Q 2956 2441 2956 1928 
L 2956 0 
L 2394 0 
L 2394 2156 
Q 2394 2531 2256 2718 
Q 2119 2906 1806 2906 
Q 1569 2906 1367 2781 
Q 1166 2656 1075 2415 
Q 984 2175 984 1722 
L 984 0 
L 422 0 
z
" transform="scale(0.015625)"/>
       <path id="ArialMT-12" d="M 0 -78 
L 1328 4659 
L 1778 4659 
L 453 -78 
L 0 -78 
z
" transform="scale(0.015625)"/>
       <path id="ArialMT-56" d="M 197 991 
L 753 1078 
Q 800 744 1014 566 
Q 1228 388 1613 388 
Q 2000 388 2187 545 
Q 2375 703 2375 916 
Q 2375 1106 2209 1216 
Q 2094 1291 1634 1406 
Q 1016 1563 777 1677 
Q 538 1791 414 1992 
Q 291 2194 291 2438 
Q 291 2659 392 2848 
Q 494 3038 669 3163 
Q 800 3259 1026 3326 
Q 1253 3394 1513 3394 
Q 1903 3394 2198 3281 
Q 2494 3169 2634 2976 
Q 2775 2784 2828 2463 
L 2278 2388 
Q 2241 2644 2061 2787 
Q 1881 2931 1553 2931 
Q 1166 2931 1000 2803 
Q 834 2675 834 2503 
Q 834 2394 903 2306 
Q 972 2216 1119 2156 
Q 1203 2125 1616 2013 
Q 2213 1853 2448 1751 
Q 2684 1650 2818 1456 
Q 2953 1263 2953 975 
Q 2953 694 2789 445 
Q 2625 197 2315 61 
Q 2006 -75 1616 -75 
Q 969 -75 630 194 
Q 291 463 197 991 
z
" transform="scale(0.015625)"/>
       <path id="ArialMT-c" d="M 791 -1347 
L 388 -1347 
Q 1322 153 1322 1656 
Q 1322 2244 1188 2822 
Q 1081 3291 891 3722 
Q 769 4003 388 4659 
L 791 4659 
Q 1378 3875 1659 3084 
Q 1900 2403 1900 1659 
Q 1900 816 1576 28 
Q 1253 -759 791 -1347 
z
" transform="scale(0.015625)"/>
      </defs>
      <use xlink:href="#ArialMT-46"/>
      <use xlink:href="#ArialMT-52" transform="translate(50 0)"/>
      <use xlink:href="#ArialMT-55" transform="translate(105.609375 0)"/>
      <use xlink:href="#ArialMT-55" transform="translate(138.90625 0)"/>
      <use xlink:href="#ArialMT-48" transform="translate(172.203125 0)"/>
      <use xlink:href="#ArialMT-46" transform="translate(227.8125 0)"/>
      <use xlink:href="#ArialMT-57" transform="translate(277.8125 0)"/>
      <use xlink:href="#ArialMT-4c" transform="translate(305.59375 0)"/>
      <use xlink:href="#ArialMT-52" transform="translate(327.8125 0)"/>
      <use xlink:href="#ArialMT-51" transform="translate(383.421875 0)"/>
      <use xlink:href="#ArialMT-3" transform="translate(439.03125 0)"/>
      <use xlink:href="#ArialMT-1fb" transform="translate(466.8125 0)"/>
      <use xlink:href="#ArialMT-59" transform="translate(533.609375 0)"/>
      <use xlink:href="#ArialMT-3" transform="translate(583.609375 0)"/>
      <use xlink:href="#ArialMT-b" transform="translate(611.390625 0)"/>
      <use xlink:href="#ArialMT-50" transform="translate(644.6875 0)"/>
      <use xlink:href="#ArialMT-12" transform="translate(727.984375 0)"/>
      <use xlink:href="#ArialMT-56" transform="translate(755.765625 0)"/>
      <use xlink:href="#ArialMT-c" transform="translate(805.765625 0)"/>
     </g>
    </g>
   </g>
   <g id="matplotlib.axis_2">
    <g id="ytick_1">
     <g id="line2d_10">
      <path d="M 47.251719 177.168328 
L 493.651719 177.168328 
" clip-path="url(#pe2b28d7bee)" style="fill: none; stroke: #cccccc; stroke-linecap: round"/>
     </g>
     <g id="text_11">
      <!-- 0.0 -->
      <g style="fill: #262626" transform="translate(22.461719 181.172479) scale(0.11 -0.11)">
       <defs>
        <path id="ArialMT-11" d="M 581 0 
L 581 641 
L 1222 641 
L 1222 0 
L 581 0 
z
" transform="scale(0.015625)"/>
       </defs>
       <use xlink:href="#ArialMT-13"/>
       <use xlink:href="#ArialMT-11" transform="translate(55.609375 0)"/>
       <use xlink:href="#ArialMT-13" transform="translate(83.390625 0)"/>
      </g>
     </g>
    </g>
    <g id="ytick_2">
     <g id="line2d_11">
      <path d="M 47.251719 146.121928 
L 493.651719 146.121928 
" clip-path="url(#pe2b28d7bee)" style="fill: none; stroke: #cccccc; stroke-linecap: round"/>
     </g>
     <g id="text_12">
      <!-- 0.2 -->
      <g style="fill: #262626" transform="translate(22.461719 150.126079) scale(0.11 -0.11)">
       <use xlink:href="#ArialMT-13"/>
       <use xlink:href="#ArialMT-11" transform="translate(55.609375 0)"/>
       <use xlink:href="#ArialMT-15" transform="translate(83.390625 0)"/>
      </g>
     </g>
    </g>
    <g id="ytick_3">
     <g id="line2d_12">
      <path d="M 47.251719 115.075528 
L 493.651719 115.075528 
" clip-path="url(#pe2b28d7bee)" style="fill: none; stroke: #cccccc; stroke-linecap: round"/>
     </g>
     <g id="text_13">
      <!-- 0.4 -->
      <g style="fill: #262626" transform="translate(22.461719 119.079679) scale(0.11 -0.11)">
       <use xlink:href="#ArialMT-13"/>
       <use xlink:href="#ArialMT-11" transform="translate(55.609375 0)"/>
       <use xlink:href="#ArialMT-17" transform="translate(83.390625 0)"/>
      </g>
     </g>
    </g>
    <g id="ytick_4">
     <g id="line2d_13">
      <path d="M 47.251719 84.029128 
L 493.651719 84.029128 
" clip-path="url(#pe2b28d7bee)" style="fill: none; stroke: #cccccc; stroke-linecap: round"/>
     </g>
     <g id="text_14">
      <!-- 0.6 -->
      <g style="fill: #262626" transform="translate(22.461719 88.033279) scale(0.11 -0.11)">
       <use xlink:href="#ArialMT-13"/>
       <use xlink:href="#ArialMT-11" transform="translate(55.609375 0)"/>
       <use xlink:href="#ArialMT-19" transform="translate(83.390625 0)"/>
      </g>
     </g>
    </g>
    <g id="ytick_5">
     <g id="line2d_14">
      <path d="M 47.251719 52.982728 
L 493.651719 52.982728 
" clip-path="url(#pe2b28d7bee)" style="fill: none; stroke: #cccccc; stroke-linecap: round"/>
     </g>
     <g id="text_15">
      <!-- 0.8 -->
      <g style="fill: #262626" transform="translate(22.461719 56.986879) scale(0.11 -0.11)">
       <use xlink:href="#ArialMT-13"/>
       <use xlink:href="#ArialMT-11" transform="translate(55.609375 0)"/>
       <use xlink:href="#ArialMT-1b" transform="translate(83.390625 0)"/>
      </g>
     </g>
    </g>
    <g id="ytick_6">
     <g id="line2d_15">
      <path d="M 47.251719 21.936328 
L 493.651719 21.936328 
" clip-path="url(#pe2b28d7bee)" style="fill: none; stroke: #cccccc; stroke-linecap: round"/>
     </g>
     <g id="text_16">
      <!-- 1.0 -->
      <g style="fill: #262626" transform="translate(22.461719 25.940479) scale(0.11 -0.11)">
       <use xlink:href="#ArialMT-14"/>
       <use xlink:href="#ArialMT-11" transform="translate(55.609375 0)"/>
       <use xlink:href="#ArialMT-13" transform="translate(83.390625 0)"/>
      </g>
     </g>
    </g>
    <g id="text_17">
     <!-- cumulative fraction -->
     <g style="fill: #262626" transform="translate(15.936328 149.570766) rotate(-90) scale(0.12 -0.12)">
      <defs>
       <path id="ArialMT-58" d="M 2597 0 
L 2597 488 
Q 2209 -75 1544 -75 
Q 1250 -75 995 37 
Q 741 150 617 320 
Q 494 491 444 738 
Q 409 903 409 1263 
L 409 3319 
L 972 3319 
L 972 1478 
Q 972 1038 1006 884 
Q 1059 663 1231 536 
Q 1403 409 1656 409 
Q 1909 409 2131 539 
Q 2353 669 2445 892 
Q 2538 1116 2538 1541 
L 2538 3319 
L 3100 3319 
L 3100 0 
L 2597 0 
z
" transform="scale(0.015625)"/>
       <path id="ArialMT-4f" d="M 409 0 
L 409 4581 
L 972 4581 
L 972 0 
L 409 0 
z
" transform="scale(0.015625)"/>
       <path id="ArialMT-44" d="M 2588 409 
Q 2275 144 1986 34 
Q 1697 -75 1366 -75 
Q 819 -75 525 192 
Q 231 459 231 875 
Q 231 1119 342 1320 
Q 453 1522 633 1644 
Q 813 1766 1038 1828 
Q 1203 1872 1538 1913 
Q 2219 1994 2541 2106 
Q 2544 2222 2544 2253 
Q 2544 2597 2384 2738 
Q 2169 2928 1744 2928 
Q 1347 2928 1158 2789 
Q 969 2650 878 2297 
L 328 2372 
Q 403 2725 575 2942 
Q 747 3159 1072 3276 
Q 1397 3394 1825 3394 
Q 2250 3394 2515 3294 
Q 2781 3194 2906 3042 
Q 3031 2891 3081 2659 
Q 3109 2516 3109 2141 
L 3109 1391 
Q 3109 606 3145 398 
Q 3181 191 3288 0 
L 2700 0 
Q 2613 175 2588 409 
z
M 2541 1666 
Q 2234 1541 1622 1453 
Q 1275 1403 1131 1340 
Q 988 1278 909 1158 
Q 831 1038 831 891 
Q 831 666 1001 516 
Q 1172 366 1500 366 
Q 1825 366 2078 508 
Q 2331 650 2450 897 
Q 2541 1088 2541 1459 
L 2541 1666 
z
" transform="scale(0.015625)"/>
       <path id="ArialMT-49" d="M 556 0 
L 556 2881 
L 59 2881 
L 59 3319 
L 556 3319 
L 556 3672 
Q 556 4006 616 4169 
Q 697 4388 901 4523 
Q 1106 4659 1475 4659 
Q 1713 4659 2000 4603 
L 1916 4113 
Q 1741 4144 1584 4144 
Q 1328 4144 1222 4034 
Q 1116 3925 1116 3625 
L 1116 3319 
L 1763 3319 
L 1763 2881 
L 1116 2881 
L 1116 0 
L 556 0 
z
" transform="scale(0.015625)"/>
      </defs>
      <use xlink:href="#ArialMT-46"/>
      <use xlink:href="#ArialMT-58" transform="translate(50 0)"/>
      <use xlink:href="#ArialMT-50" transform="translate(105.609375 0)"/>
      <use xlink:href="#ArialMT-58" transform="translate(188.90625 0)"/>
      <use xlink:href="#ArialMT-4f" transform="translate(244.515625 0)"/>
      <use xlink:href="#ArialMT-44" transform="translate(266.734375 0)"/>
      <use xlink:href="#ArialMT-57" transform="translate(322.34375 0)"/>
      <use xlink:href="#ArialMT-4c" transform="translate(350.125 0)"/>
      <use xlink:href="#ArialMT-59" transform="translate(372.34375 0)"/>
      <use xlink:href="#ArialMT-48" transform="translate(422.34375 0)"/>
      <use xlink:href="#ArialMT-3" transform="translate(477.953125 0)"/>
      <use xlink:href="#ArialMT-49" transform="translate(505.734375 0)"/>
      <use xlink:href="#ArialMT-55" transform="translate(533.515625 0)"/>
      <use xlink:href="#ArialMT-44" transform="translate(566.8125 0)"/>
      <use xlink:href="#ArialMT-46" transform="translate(622.421875 0)"/>
      <use xlink:href="#ArialMT-57" transform="translate(672.421875 0)"/>
      <use xlink:href="#ArialMT-4c" transform="translate(700.203125 0)"/>
      <use xlink:href="#ArialMT-52" transform="translate(722.421875 0)"/>
      <use xlink:href="#ArialMT-51" transform="translate(778.03125 0)"/>
     </g>
    </g>
   </g>
   <g id="line2d_16">
    <path d="M 356.849691 177.013096 
L 358.600696 176.857864 
L 358.64402 176.702632 
L 359.20124 176.392168 
L 359.777955 175.926472 
L 359.806829 175.77124 
L 360.561153 175.460776 
L 360.632971 175.305544 
L 361.683343 174.839848 
L 361.755426 174.684616 
L 362.047285 174.374152 
L 363.030147 172.977064 
L 363.34247 172.821832 
L 363.496477 172.511368 
L 364.22636 171.579976 
L 364.489702 170.803816 
L 364.938682 170.648584 
L 364.999885 170.33812 
L 365.1847 170.182888 
L 365.305891 169.872424 
L 365.498654 169.251496 
L 365.718094 168.630568 
L 365.74277 168.475336 
L 366.029097 168.164872 
L 366.3528 167.388712 
L 366.653377 167.23348 
L 366.670625 167.078248 
L 366.822348 166.767784 
L 367.077683 165.68116 
L 367.341447 165.060232 
L 367.694394 164.749768 
L 367.715173 164.594536 
L 367.963124 164.284072 
L 368.107363 163.818376 
L 368.190715 163.197448 
L 368.464999 162.110824 
L 368.609472 161.80036 
L 368.749862 161.334664 
L 369.160598 158.540488 
L 369.209571 157.91956 
L 369.357907 157.609096 
L 369.897312 155.280616 
L 370.19063 154.970152 
L 370.61371 154.193992 
L 370.709668 153.728296 
L 370.792184 153.417832 
L 371.096128 152.331208 
L 371.221916 151.555048 
L 371.432334 150.623656 
L 371.444219 150.468424 
L 371.585055 150.15796 
L 371.815448 149.226568 
L 371.975183 148.916104 
L 372.109224 148.139944 
L 372.54009 145.345768 
L 372.710096 145.035304 
L 372.715297 144.880072 
L 372.837662 144.569608 
L 373.301977 143.17252 
L 373.500542 142.39636 
L 373.669521 142.085896 
L 373.75975 141.309736 
L 373.878089 140.999272 
L 374.363283 138.360328 
L 374.429294 138.049864 
L 374.765178 136.808008 
L 374.855428 136.18708 
L 375.112284 135.255688 
L 375.241172 134.63476 
L 375.555013 133.548136 
L 375.704756 131.995816 
L 375.845062 131.374888 
L 376.042002 130.133032 
L 376.924839 126.562696 
L 377.113995 126.252232 
L 377.316882 125.165608 
L 377.411263 124.699912 
L 377.547893 124.389448 
L 377.653662 123.458056 
L 377.915389 120.974344 
L 378.112093 120.66388 
L 378.195761 120.353416 
L 378.268524 119.88772 
L 378.399954 119.422024 
L 378.589778 118.3354 
L 378.954531 116.00692 
L 379.061917 115.696456 
L 379.117742 114.920296 
L 379.390422 114.609832 
L 380.068495 110.884264 
L 380.172694 110.263336 
L 380.533002 108.090088 
L 380.656003 107.624392 
L 380.953068 106.693 
L 381.24021 105.606376 
L 381.35104 104.674984 
L 381.429176 104.209288 
L 381.54501 103.58836 
L 381.723477 103.122664 
L 381.875036 101.880808 
L 382.189746 100.328488 
L 382.375581 99.397096 
L 382.51729 98.9314 
L 382.609422 98.310472 
L 382.882721 97.534312 
L 382.973748 96.758152 
L 383.08983 96.292456 
L 383.223091 95.516296 
L 383.514969 93.963976 
L 383.700833 93.653512 
L 383.918925 92.72212 
L 384.351681 91.325032 
L 384.589272 90.859336 
L 384.703415 90.083176 
L 384.861393 89.151784 
L 384.967798 88.84132 
L 385.13595 88.375624 
L 385.246405 88.220392 
L 385.497138 88.06516 
L 385.629825 87.444232 
L 385.81507 87.133768 
L 385.963693 86.823304 
L 386.065219 86.202376 
L 386.744803 83.718664 
L 387.539807 82.476808 
L 388.112359 80.614024 
L 388.410907 80.458792 
L 388.615665 79.5274 
L 388.858222 78.285544 
L 388.902594 77.509384 
L 389.299136 76.888456 
L 389.437963 76.42276 
L 389.845868 75.180904 
L 390.674575 71.610568 
L 390.806265 71.300104 
L 391.067802 70.679176 
L 391.480978 68.350696 
L 391.995014 66.798376 
L 392.032576 66.487912 
L 392.349794 66.022216 
L 392.552798 65.401288 
L 392.853611 64.625128 
L 392.961029 64.159432 
L 393.736045 62.607112 
L 393.755855 62.141416 
L 393.952186 61.830952 
L 394.334983 61.054792 
L 394.57965 60.1234 
L 394.685429 59.657704 
L 394.972208 59.34724 
L 395.245252 58.415848 
L 395.389178 58.105384 
L 395.50848 57.173992 
L 396.164277 55.000744 
L 396.602464 54.69028 
L 396.702745 54.069352 
L 396.783911 53.758888 
L 396.875711 53.603656 
L 397.234182 53.293192 
L 397.39032 52.827496 
L 397.625836 52.206568 
L 397.627789 52.051336 
L 398.34708 51.275176 
L 398.62771 50.964712 
L 399.048848 50.654248 
L 399.050389 50.499016 
L 399.359908 50.343784 
L 399.408433 50.188552 
L 399.795313 49.878088 
L 399.825447 49.722856 
L 400.462637 49.101928 
L 400.55609 48.636232 
L 401.07793 47.394376 
L 401.372002 47.239144 
L 401.551923 46.773448 
L 401.735381 46.462984 
L 401.927914 45.842056 
L 402.174891 45.221128 
L 402.475888 44.755432 
L 402.479886 44.6002 
L 402.651844 44.289736 
L 402.752472 43.979272 
L 402.872588 43.668808 
L 402.954214 42.892648 
L 403.550896 42.426952 
L 403.981781 41.49556 
L 404.344012 41.185096 
L 404.42915 40.874632 
L 404.844296 40.564168 
L 404.934833 40.253704 
L 405.158837 39.94324 
L 405.307826 39.477544 
L 405.42208 39.322312 
L 405.723084 39.16708 
L 405.827186 38.856616 
L 406.053711 38.546152 
L 406.054081 38.39092 
L 406.274692 38.235688 
L 406.29042 38.080456 
L 406.671444 37.925224 
L 406.959372 37.304296 
L 407.869935 35.751976 
L 408.505963 35.441512 
L 409.288546 34.199656 
L 409.410047 34.044424 
L 409.845442 33.73396 
L 410.524551 33.268264 
L 410.57862 33.113032 
L 411.34652 32.647336 
L 411.41459 32.492104 
L 411.848882 32.18164 
L 412.155874 31.715944 
L 412.250198 31.40548 
L 412.34946 31.250248 
L 413.094294 30.939784 
L 413.13195 30.784552 
L 413.765566 30.474088 
L 413.926912 30.318856 
L 414.611518 30.008392 
L 414.812408 29.697928 
L 415.068214 29.077 
L 415.664964 28.921768 
L 415.767756 28.766536 
L 416.177546 28.611304 
L 416.405598 28.30084 
L 416.91583 27.990376 
L 418.262948 27.52468 
L 418.267741 27.369448 
L 419.652441 27.214216 
L 419.93694 26.903752 
L 421.139075 26.593288 
L 421.369138 26.438056 
L 422.133234 26.282824 
L 422.410623 25.97236 
L 423.402414 25.817128 
L 423.43226 25.661896 
L 424.034877 25.351432 
L 424.905371 25.1962 
L 425.010094 25.040968 
L 426.35868 24.730504 
L 426.45853 24.575272 
L 429.638885 23.954344 
L 431.988523 23.64388 
L 440.482089 23.178184 
L 441.689558 23.022952 
L 449.78607 22.712488 
L 451.066381 22.557256 
L 459.335763 22.402024 
L 460.927899 22.09156 
L 473.36081 21.936328 
L 473.36081 21.936328 
" clip-path="url(#pe2b28d7bee)" style="fill: none; stroke: #111111; stroke-width: 2; stroke-linecap: round"/>
   </g>
   <g id="line2d_17">
    <path d="M 336.655925 177.013096 
L 338.467576 176.857864 
L 338.735961 176.392168 
L 340.054629 176.236936 
L 340.0718 176.081704 
L 340.51709 175.926472 
L 340.529198 175.77124 
L 340.940066 175.616008 
L 341.065993 175.150312 
L 341.29149 174.99508 
L 341.434055 174.684616 
L 341.893216 174.529384 
L 342.534716 173.287528 
L 342.614081 173.132296 
L 342.877239 172.977064 
L 343.130215 172.356136 
L 343.30474 171.89044 
L 343.661204 171.735208 
L 344.397513 169.251496 
L 344.56981 168.941032 
L 344.725673 168.00964 
L 344.791296 167.543944 
L 344.977112 167.23348 
L 345.344975 166.45732 
L 345.50199 165.370696 
L 345.681506 165.060232 
L 345.76373 164.284072 
L 346.105819 163.818376 
L 346.459048 161.80036 
L 346.620932 161.489896 
L 346.740656 161.179432 
L 346.867252 160.868968 
L 347.07953 159.006184 
L 347.247782 158.69572 
L 347.752426 156.988168 
L 347.853336 156.522472 
L 347.949467 155.901544 
L 348.053366 155.280616 
L 348.308087 154.970152 
L 348.560593 153.728296 
L 348.861919 152.952136 
L 349.170825 151.555048 
L 349.363503 151.244584 
L 349.655873 150.15796 
L 349.787871 149.847496 
L 349.89887 148.916104 
L 350.157983 147.208552 
L 350.248058 146.587624 
L 350.489864 146.121928 
L 350.770254 145.035304 
L 351.339539 144.259144 
L 352.220259 140.84404 
L 352.376919 140.06788 
L 353.264238 138.049864 
L 353.49116 137.118472 
L 353.810056 136.96324 
L 354.344828 135.100456 
L 354.462763 134.789992 
L 354.545369 134.169064 
L 354.913628 133.703368 
L 355.093259 133.08244 
L 355.981039 129.512104 
L 356.647513 127.959784 
L 356.737545 127.338856 
L 356.870691 126.87316 
L 356.998425 126.097 
L 357.45863 124.078984 
L 357.512181 123.458056 
L 357.686489 122.837128 
L 357.956698 121.905736 
L 358.211154 121.750504 
L 358.245395 121.44004 
L 358.331648 121.129576 
L 358.449452 120.198184 
L 358.615439 119.422024 
L 358.806334 118.3354 
L 359.53465 114.920296 
L 359.70436 114.609832 
L 359.840857 113.833672 
L 360.031781 112.747048 
L 360.148958 112.281352 
L 360.261511 111.505192 
L 360.321654 111.039496 
L 360.561579 110.729032 
L 360.842376 109.331944 
L 361.158836 108.555784 
L 361.263051 108.090088 
L 361.445967 107.003464 
L 361.935257 104.054056 
L 362.029429 103.277896 
L 362.120014 102.8122 
L 362.123882 102.656968 
L 362.254506 102.346504 
L 362.511155 101.25988 
L 362.700692 100.949416 
L 362.801682 99.862792 
L 362.934186 99.241864 
L 363.037443 98.9314 
L 363.11254 98.310472 
L 363.508552 96.137224 
L 363.639647 95.82676 
L 363.76277 95.205832 
L 364.007938 93.343048 
L 364.121232 93.032584 
L 364.403873 91.635496 
L 364.578568 90.859336 
L 364.732437 89.927944 
L 365.002184 88.686088 
L 365.435307 86.668072 
L 365.559095 86.202376 
L 366.096095 83.718664 
L 366.218502 82.321576 
L 366.780686 80.614024 
L 366.894029 79.993096 
L 367.044577 78.906472 
L 367.382311 77.354152 
L 367.515856 76.112296 
L 367.732997 75.801832 
L 367.89699 74.87044 
L 368.013626 74.249512 
L 368.124851 73.628584 
L 368.194705 73.31812 
L 368.383452 72.697192 
L 368.443624 72.386728 
L 368.553659 72.076264 
L 368.629717 71.455336 
L 368.793212 71.144872 
L 369.514005 68.971624 
L 369.54608 68.505928 
L 369.698428 68.195464 
L 370.037818 66.177448 
L 370.17979 65.246056 
L 370.304691 64.625128 
L 370.383899 64.314664 
L 370.523916 63.538504 
L 371.106013 61.210024 
L 371.23017 60.589096 
L 371.342641 60.278632 
L 371.345681 60.1234 
L 371.602976 59.968168 
L 371.849543 59.192008 
L 372.089252 58.57108 
L 372.198482 57.950152 
L 372.410852 57.484456 
L 372.563703 56.708296 
L 372.649721 56.2426 
L 372.760553 55.932136 
L 372.842971 55.621672 
L 373.222702 55.155976 
L 373.269561 54.845512 
L 373.578956 54.224584 
L 373.790604 53.758888 
L 373.942301 53.448424 
L 374.269229 52.827496 
L 374.373962 52.3618 
L 374.733633 51.896104 
L 375.139216 50.654248 
L 375.471912 50.188552 
L 375.657192 49.25716 
L 375.750952 48.946696 
L 375.878658 48.481 
L 375.942376 48.015304 
L 376.497732 47.083912 
L 377.14345 45.221128 
L 378.193355 43.358344 
L 378.42058 42.426952 
L 378.669328 42.116488 
L 378.889742 41.49556 
L 379.173905 41.029864 
L 379.335077 40.564168 
L 380.366008 39.16708 
L 381.020733 38.080456 
L 381.446759 37.304296 
L 381.610812 36.8386 
L 382.207347 36.528136 
L 382.589219 35.907208 
L 382.623202 35.751976 
L 382.884493 35.441512 
L 383.354068 34.044424 
L 383.443953 33.889192 
L 383.789509 33.73396 
L 383.824588 33.578728 
L 384.120753 33.268264 
L 384.321677 32.9578 
L 384.693916 32.802568 
L 384.993039 32.026408 
L 385.403326 31.40548 
L 386.217247 30.939784 
L 386.258179 30.474088 
L 386.665897 30.163624 
L 386.831334 29.85316 
L 387.795012 29.387464 
L 387.930253 28.921768 
L 388.369055 28.611304 
L 388.410748 28.145608 
L 388.775844 27.990376 
L 388.776442 27.835144 
L 389.723746 26.593288 
L 389.764331 26.438056 
L 390.051851 26.282824 
L 390.065249 26.127592 
L 390.905068 25.97236 
L 391.06559 25.661896 
L 391.625495 25.506664 
L 391.708254 25.351432 
L 392.33621 25.1962 
L 392.577268 24.730504 
L 393.623587 24.42004 
L 393.84875 24.109576 
L 393.881263 23.954344 
L 394.356322 23.488648 
L 394.508121 23.333416 
L 395.078618 23.178184 
L 396.368055 23.022952 
L 400.391871 22.712488 
L 402.087961 22.402024 
L 402.245494 22.246792 
L 404.204009 21.936328 
L 404.204009 21.936328 
" clip-path="url(#pe2b28d7bee)" style="fill: none; stroke: #4878cf; stroke-width: 1.2; stroke-linecap: round"/>
   </g>
   <g id="line2d_18">
    <path d="M 67.552053 177.013096 
L 67.658965 176.081704 
L 67.762065 175.305544 
L 67.941722 172.511368 
L 68.379977 168.630568 
L 68.510568 168.320104 
L 68.579649 167.854408 
L 68.683633 166.767784 
L 68.769433 165.525928 
L 68.895701 163.663144 
L 69.018892 163.197448 
L 69.228164 161.0242 
L 69.535486 159.161416 
L 69.619167 158.69572 
L 69.846245 157.764328 
L 70.103183 156.522472 
L 70.188336 156.056776 
L 70.304811 155.59108 
L 70.661511 152.175976 
L 70.783684 151.71028 
L 70.935621 151.399816 
L 71.041686 151.089352 
L 71.242958 149.537032 
L 71.974359 144.72484 
L 72.113536 143.482984 
L 72.247319 143.017288 
L 72.75684 139.446952 
L 72.853349 138.981256 
L 72.99798 137.584168 
L 73.208708 136.342312 
L 73.316437 135.41092 
L 73.463883 133.8586 
L 73.523287 133.392904 
L 73.631725 132.616744 
L 73.985336 130.133032 
L 74.101155 129.20164 
L 74.890389 125.32084 
L 74.997329 124.54468 
L 75.150101 124.234216 
L 75.285881 123.458056 
L 75.428813 122.99236 
L 75.601406 122.060968 
L 75.840973 120.819112 
L 76.242089 117.404008 
L 76.399715 116.627848 
L 76.541705 115.541224 
L 76.711293 114.299368 
L 76.786454 113.367976 
L 76.895634 112.90228 
L 77.026229 111.970888 
L 77.178454 111.194728 
L 77.270662 110.418568 
L 77.725367 107.46916 
L 77.828793 107.158696 
L 77.9447 106.227304 
L 78.4411 104.36452 
L 78.743891 102.8122 
L 78.833604 101.880808 
L 79.053077 101.104648 
L 79.229096 100.794184 
L 79.351736 100.173256 
L 80.213481 95.361064 
L 80.361704 94.895368 
L 80.444139 94.429672 
L 80.601471 94.119208 
L 80.698977 93.49828 
L 80.805579 92.877352 
L 80.87934 91.635496 
L 80.956475 91.014568 
L 81.187969 90.083176 
L 81.434696 88.84132 
L 81.508022 88.375624 
L 82.015015 87.599464 
L 82.185139 86.047144 
L 82.318158 85.73668 
L 82.430078 85.270984 
L 82.553634 84.96052 
L 82.612194 84.339592 
L 82.915436 83.873896 
L 83.053497 82.942504 
L 83.527775 80.769256 
L 83.626493 80.148328 
L 83.73474 79.837864 
L 84.239648 78.130312 
L 84.38876 77.19892 
L 84.798426 76.577992 
L 84.903833 75.957064 
L 85.099828 75.491368 
L 85.334912 74.09428 
L 85.476964 73.628584 
L 85.606626 73.162888 
L 85.740796 72.852424 
L 85.808514 72.231496 
L 86.164601 71.7658 
L 86.38301 71.300104 
L 86.402465 71.144872 
L 86.546402 70.834408 
L 86.653854 70.368712 
L 87.223327 69.282088 
L 87.387003 68.816392 
L 87.656002 68.350696 
L 87.660379 68.195464 
L 87.846324 68.040232 
L 87.948623 67.419304 
L 88.347156 66.022216 
L 88.556844 65.246056 
L 88.84727 64.625128 
L 88.903781 64.159432 
L 89.099599 63.848968 
L 89.88111 61.986184 
L 89.918629 61.830952 
L 90.194291 61.67572 
L 90.302017 61.365256 
L 90.3323 61.210024 
L 90.52706 61.054792 
L 90.619653 60.433864 
L 90.866777 60.1234 
L 91.420819 59.192008 
L 91.450866 59.036776 
L 91.854526 58.57108 
L 92.07752 58.105384 
L 92.425196 57.950152 
L 92.456378 57.639688 
L 92.618103 57.329224 
L 92.887686 56.708296 
L 93.316539 56.397832 
L 93.754352 55.932136 
L 94.093825 55.776904 
L 94.136953 55.155976 
L 94.62323 54.069352 
L 95.018839 53.91412 
L 95.197845 53.603656 
L 95.608079 53.293192 
L 95.748258 52.827496 
L 97.034612 50.499016 
L 97.186388 50.343784 
L 97.873472 50.03332 
L 98.049255 49.722856 
L 98.303447 49.412392 
L 98.914443 48.636232 
L 99.432474 47.860072 
L 99.532956 47.549608 
L 99.987484 47.394376 
L 100.225724 46.92868 
L 101.413277 45.686824 
L 101.484761 45.37636 
L 101.623562 45.065896 
L 101.911573 44.755432 
L 102.260448 44.6002 
L 102.348311 44.289736 
L 102.841203 43.82404 
L 103.079492 43.358344 
L 103.528895 42.892648 
L 104.3697 42.737416 
L 104.59407 42.426952 
L 105.165844 42.27172 
L 105.23762 42.116488 
L 105.700523 41.961256 
L 105.70645 41.806024 
L 106.195848 41.49556 
L 106.423398 41.185096 
L 106.800713 40.874632 
L 107.122323 40.564168 
L 107.167626 40.408936 
L 107.446293 40.253704 
L 107.591185 39.94324 
L 108.071793 39.477544 
L 109.724984 38.856616 
L 110.035046 38.546152 
L 110.633383 37.61476 
L 110.859712 37.304296 
L 110.99117 36.993832 
L 111.161176 36.683368 
L 112.498467 36.372904 
L 112.598244 36.217672 
L 113.019137 36.06244 
L 113.133561 35.596744 
L 113.453799 35.441512 
L 113.818295 34.665352 
L 114.523694 34.044424 
L 114.93235 33.73396 
L 115.281045 33.423496 
L 117.285891 32.647336 
L 117.316915 32.492104 
L 117.820541 32.18164 
L 117.932253 32.026408 
L 120.794108 31.250248 
L 121.357101 30.784552 
L 121.843615 30.318856 
L 122.056656 30.008392 
L 123.165048 29.85316 
L 123.282141 29.697928 
L 124.019846 29.542696 
L 124.083106 29.232232 
L 124.66347 28.921768 
L 125.094268 28.611304 
L 125.52528 28.30084 
L 126.94508 27.990376 
L 127.732066 27.214216 
L 128.665809 26.903752 
L 128.767085 26.74852 
L 129.127665 26.593288 
L 129.159532 26.438056 
L 130.4673 26.127592 
L 132.84752 25.97236 
L 133.556386 25.661896 
L 134.660761 25.506664 
L 134.704196 25.351432 
L 135.91118 25.040968 
L 136.011842 24.885736 
L 137.10577 24.730504 
L 137.162788 24.575272 
L 138.022486 24.42004 
L 138.033819 24.264808 
L 141.516145 23.954344 
L 142.217943 23.64388 
L 146.924166 23.488648 
L 148.15292 23.178184 
L 149.846918 23.022952 
L 151.24939 22.557256 
L 161.85894 22.246792 
L 166.521214 22.09156 
L 177.986645 21.936328 
L 177.986645 21.936328 
" clip-path="url(#pe2b28d7bee)" style="fill: none; stroke: #d1701f; stroke-width: 1.2; stroke-linecap: round"/>
   </g>
   <g id="line2d_19">
    <path d="M 67.542628 177.013096 
L 67.579114 176.081704 
L 67.695825 173.597992 
L 67.79872 171.11428 
L 67.909944 168.630568 
L 67.974367 167.078248 
L 68.096055 163.663144 
L 68.342212 158.69572 
L 68.476274 156.36724 
L 68.631984 154.03876 
L 68.70943 152.952136 
L 68.825835 149.071336 
L 68.991852 145.345768 
L 70.654349 108.866248 
L 70.774713 105.761608 
L 71.238435 97.223848 
L 71.279395 96.292456 
L 71.58767 91.1698 
L 71.657634 90.548872 
L 71.811062 88.530856 
L 72.449439 78.596008 
L 72.551881 77.819848 
L 72.664359 76.112296 
L 72.860943 73.31812 
L 72.943437 72.386728 
L 73.027387 71.610568 
L 73.169653 70.058248 
L 73.631272 64.625128 
L 73.782595 62.917576 
L 74.134457 59.192008 
L 74.220031 58.57108 
L 74.335475 57.01876 
L 74.814515 52.672264 
L 75.00736 51.430408 
L 75.12456 49.878088 
L 75.491859 46.773448 
L 75.657679 46.462984 
L 75.708878 45.997288 
L 75.901026 45.686824 
L 76.124017 43.203112 
L 76.22169 42.737416 
L 76.42714 41.806024 
L 76.493598 41.029864 
L 76.612804 40.564168 
L 76.942089 38.235688 
L 77.189907 37.459528 
L 77.399423 36.528136 
L 77.878435 35.751976 
L 78.650206 33.889192 
L 78.928267 33.73396 
L 79.005032 33.113032 
L 79.214271 32.802568 
L 79.367062 31.560712 
L 79.609605 31.40548 
L 79.67227 31.095016 
L 80.110561 29.85316 
L 80.121052 29.697928 
L 80.442995 29.387464 
L 80.952141 28.611304 
L 81.289888 28.30084 
L 81.696522 27.835144 
L 82.322948 27.679912 
L 82.374876 27.214216 
L 83.447357 26.593288 
L 83.622865 26.282824 
L 84.084281 26.127592 
L 84.240778 25.817128 
L 86.012254 25.1962 
L 86.123551 25.040968 
L 86.457488 24.885736 
L 87.555759 24.575272 
L 87.733793 24.42004 
L 89.345199 23.954344 
L 94.163948 23.333416 
L 95.101283 23.022952 
L 96.653365 22.86772 
L 96.672663 22.712488 
L 97.332766 22.557256 
L 111.36769 22.09156 
L 123.06387 21.936328 
L 123.06387 21.936328 
" clip-path="url(#pe2b28d7bee)" style="fill: none; stroke: #6a51a3; stroke-width: 1.2; stroke-linecap: round"/>
   </g>
   <g id="patch_3">
    <path d="M 47.251719 177.168328 
L 47.251719 21.936328 
" style="fill: none; stroke: #cccccc; stroke-width: 1.25; stroke-linejoin: miter; stroke-linecap: square"/>
   </g>
   <g id="patch_4">
    <path d="M 47.251719 177.168328 
L 493.651719 177.168328 
" style="fill: none; stroke: #cccccc; stroke-width: 1.25; stroke-linejoin: miter; stroke-linecap: square"/>
   </g>
   <g id="text_18">
    <!-- Correction Δv - - empirical CDF (total + burns) -->
    <g style="fill: #262626" transform="translate(149.922031 15.936328) scale(0.12 -0.12)">
     <defs>
      <path id="ArialMT-26" d="M 3763 1606 
L 4369 1453 
Q 4178 706 3683 314 
Q 3188 -78 2472 -78 
Q 1731 -78 1267 223 
Q 803 525 561 1097 
Q 319 1669 319 2325 
Q 319 3041 592 3573 
Q 866 4106 1370 4382 
Q 1875 4659 2481 4659 
Q 3169 4659 3637 4309 
Q 4106 3959 4291 3325 
L 3694 3184 
Q 3534 3684 3231 3912 
Q 2928 4141 2469 4141 
Q 1941 4141 1586 3887 
Q 1231 3634 1087 3207 
Q 944 2781 944 2328 
Q 944 1744 1114 1308 
Q 1284 872 1643 656 
Q 2003 441 2422 441 
Q 2931 441 3284 734 
Q 3638 1028 3763 1606 
z
" transform="scale(0.015625)"/>
      <path id="ArialMT-10" d="M 203 1375 
L 203 1941 
L 1931 1941 
L 1931 1375 
L 203 1375 
z
" transform="scale(0.015625)"/>
      <path id="ArialMT-53" d="M 422 -1272 
L 422 3319 
L 934 3319 
L 934 2888 
Q 1116 3141 1344 3267 
Q 1572 3394 1897 3394 
Q 2322 3394 2647 3175 
Q 2972 2956 3137 2557 
Q 3303 2159 3303 1684 
Q 3303 1175 3120 767 
Q 2938 359 2589 142 
Q 2241 -75 1856 -75 
Q 1575 -75 1351 44 
Q 1128 163 984 344 
L 984 -1272 
L 422 -1272 
z
M 931 1641 
Q 931 1000 1190 694 
Q 1450 388 1819 388 
Q 2194 388 2461 705 
Q 2728 1022 2728 1688 
Q 2728 2322 2467 2637 
Q 2206 2953 1844 2953 
Q 1484 2953 1207 2617 
Q 931 2281 931 1641 
z
" transform="scale(0.015625)"/>
      <path id="ArialMT-27" d="M 494 0 
L 494 4581 
L 2072 4581 
Q 2606 4581 2888 4516 
Q 3281 4425 3559 4188 
Q 3922 3881 4101 3404 
Q 4281 2928 4281 2316 
Q 4281 1794 4159 1391 
Q 4038 988 3847 723 
Q 3656 459 3429 307 
Q 3203 156 2883 78 
Q 2563 0 2147 0 
L 494 0 
z
M 1100 541 
L 2078 541 
Q 2531 541 2789 625 
Q 3047 709 3200 863 
Q 3416 1078 3536 1442 
Q 3656 1806 3656 2325 
Q 3656 3044 3420 3430 
Q 3184 3816 2847 3947 
Q 2603 4041 2063 4041 
L 1100 4041 
L 1100 541 
z
" transform="scale(0.015625)"/>
      <path id="ArialMT-29" d="M 525 0 
L 525 4581 
L 3616 4581 
L 3616 4041 
L 1131 4041 
L 1131 2622 
L 3281 2622 
L 3281 2081 
L 1131 2081 
L 1131 0 
L 525 0 
z
" transform="scale(0.015625)"/>
      <path id="ArialMT-e" d="M 1603 741 
L 1603 1997 
L 356 1997 
L 356 2522 
L 1603 2522 
L 1603 3769 
L 2134 3769 
L 2134 2522 
L 3381 2522 
L 3381 1997 
L 2134 1997 
L 2134 741 
L 1603 741 
z
" transform="scale(0.015625)"/>
      <path id="ArialMT-45" d="M 941 0 
L 419 0 
L 419 4581 
L 981 4581 
L 981 2947 
Q 1338 3394 1891 3394 
Q 2197 3394 2470 3270 
Q 2744 3147 2920 2923 
Q 3097 2700 3197 2384 
Q 3297 2069 3297 1709 
Q 3297 856 2875 390 
Q 2453 -75 1863 -75 
Q 1275 -75 941 416 
L 941 0 
z
M 934 1684 
Q 934 1088 1097 822 
Q 1363 388 1816 388 
Q 2184 388 2453 708 
Q 2722 1028 2722 1663 
Q 2722 2313 2464 2622 
Q 2206 2931 1841 2931 
Q 1472 2931 1203 2611 
Q 934 2291 934 1684 
z
" transform="scale(0.015625)"/>
     </defs>
     <use xlink:href="#ArialMT-26"/>
     <use xlink:href="#ArialMT-52" transform="translate(72.21875 0)"/>
     <use xlink:href="#ArialMT-55" transform="translate(127.828125 0)"/>
     <use xlink:href="#ArialMT-55" transform="translate(161.125 0)"/>
     <use xlink:href="#ArialMT-48" transform="translate(194.421875 0)"/>
     <use xlink:href="#ArialMT-46" transform="translate(250.03125 0)"/>
     <use xlink:href="#ArialMT-57" transform="translate(300.03125 0)"/>
     <use xlink:href="#ArialMT-4c" transform="translate(327.8125 0)"/>
     <use xlink:href="#ArialMT-52" transform="translate(350.03125 0)"/>
     <use xlink:href="#ArialMT-51" transform="translate(405.640625 0)"/>
     <use xlink:href="#ArialMT-3" transform="translate(461.25 0)"/>
     <use xlink:href="#ArialMT-1fb" transform="translate(489.03125 0)"/>
     <use xlink:href="#ArialMT-59" transform="translate(555.828125 0)"/>
     <use xlink:href="#ArialMT-3" transform="translate(605.828125 0)"/>
     <use xlink:href="#ArialMT-10" transform="translate(633.609375 0)"/>
     <use xlink:href="#ArialMT-10" transform="translate(666.90625 0)"/>
     <use xlink:href="#ArialMT-3" transform="translate(700.203125 0)"/>
     <use xlink:href="#ArialMT-48" transform="translate(727.984375 0)"/>
     <use xlink:href="#ArialMT-50" transform="translate(783.59375 0)"/>
     <use xlink:href="#ArialMT-53" transform="translate(866.890625 0)"/>
     <use xlink:href="#ArialMT-4c" transform="translate(922.5 0)"/>
     <use xlink:href="#ArialMT-55" transform="translate(944.71875 0)"/>
     <use xlink:href="#ArialMT-4c" transform="translate(978.015625 0)"/>
     <use xlink:href="#ArialMT-46" transform="translate(1000.234375 0)"/>
     <use xlink:href="#ArialMT-44" transform="translate(1050.234375 0)"/>
     <use xlink:href="#ArialMT-4f" transform="translate(1105.84375 0)"/>
     <use xlink:href="#ArialMT-3" transform="translate(1128.0625 0)"/>
     <use xlink:href="#ArialMT-26" transform="translate(1155.84375 0)"/>
     <use xlink:href="#ArialMT-27" transform="translate(1228.0625 0)"/>
     <use xlink:href="#ArialMT-29" transform="translate(1300.28125 0)"/>
     <use xlink:href="#ArialMT-3" transform="translate(1361.359375 0)"/>
     <use xlink:href="#ArialMT-b" transform="translate(1389.140625 0)"/>
     <use xlink:href="#ArialMT-57" transform="translate(1422.4375 0)"/>
     <use xlink:href="#ArialMT-52" transform="translate(1450.21875 0)"/>
     <use xlink:href="#ArialMT-57" transform="translate(1505.828125 0)"/>
     <use xlink:href="#ArialMT-44" transform="translate(1533.609375 0)"/>
     <use xlink:href="#ArialMT-4f" transform="translate(1589.21875 0)"/>
     <use xlink:href="#ArialMT-3" transform="translate(1611.4375 0)"/>
     <use xlink:href="#ArialMT-e" transform="translate(1639.21875 0)"/>
     <use xlink:href="#ArialMT-3" transform="translate(1697.625 0)"/>
     <use xlink:href="#ArialMT-45" transform="translate(1725.40625 0)"/>
     <use xlink:href="#ArialMT-58" transform="translate(1781.015625 0)"/>
     <use xlink:href="#ArialMT-55" transform="translate(1836.625 0)"/>
     <use xlink:href="#ArialMT-51" transform="translate(1869.921875 0)"/>
     <use xlink:href="#ArialMT-56" transform="translate(1925.53125 0)"/>
     <use xlink:href="#ArialMT-c" transform="translate(1975.53125 0)"/>
    </g>
   </g>
   <g id="legend_1">
    <g id="patch_5">
     <path d="M 371.331916 172.170328 
L 486.654519 172.170328 
Q 488.653719 172.170328 488.653719 170.171128 
L 488.653719 113.654486 
Q 488.653719 111.655286 486.654519 111.655286 
L 371.331916 111.655286 
Q 369.332716 111.655286 369.332716 113.654486 
L 369.332716 170.171128 
Q 369.332716 172.170328 371.331916 172.170328 
z
" style="fill: #f5f5f5; opacity: 0.8; stroke: #cccccc; stroke-linejoin: miter"/>
    </g>
    <g id="line2d_20">
     <path d="M 373.331116 119.432447 
L 383.327116 119.432447 
L 393.323116 119.432447 
" style="fill: none; stroke: #111111; stroke-width: 2; stroke-linecap: round"/>
    </g>
    <g id="text_19">
     <!-- total Δv -->
     <g style="fill: #262626" transform="translate(401.319916 122.931047) scale(0.09996 -0.09996)">
      <use xlink:href="#ArialMT-57"/>
      <use xlink:href="#ArialMT-52" transform="translate(27.78125 0)"/>
      <use xlink:href="#ArialMT-57" transform="translate(83.390625 0)"/>
      <use xlink:href="#ArialMT-44" transform="translate(111.171875 0)"/>
      <use xlink:href="#ArialMT-4f" transform="translate(166.78125 0)"/>
      <use xlink:href="#ArialMT-3" transform="translate(189 0)"/>
      <use xlink:href="#ArialMT-1fb" transform="translate(216.78125 0)"/>
      <use xlink:href="#ArialMT-59" transform="translate(283.578125 0)"/>
     </g>
    </g>
    <g id="line2d_21">
     <path d="M 373.331116 133.811459 
L 383.327116 133.811459 
L 393.323116 133.811459 
" style="fill: none; stroke: #4878cf; stroke-width: 1.2; stroke-linecap: round"/>
    </g>
    <g id="text_20">
     <!-- dv1 periapsis raise -->
     <g style="fill: #262626" transform="translate(401.319916 137.310059) scale(0.09996 -0.09996)">
      <defs>
       <path id="ArialMT-47" d="M 2575 0 
L 2575 419 
Q 2259 -75 1647 -75 
Q 1250 -75 917 144 
Q 584 363 401 755 
Q 219 1147 219 1656 
Q 219 2153 384 2558 
Q 550 2963 881 3178 
Q 1213 3394 1622 3394 
Q 1922 3394 2156 3267 
Q 2391 3141 2538 2938 
L 2538 4581 
L 3097 4581 
L 3097 0 
L 2575 0 
z
M 797 1656 
Q 797 1019 1065 703 
Q 1334 388 1700 388 
Q 2069 388 2326 689 
Q 2584 991 2584 1609 
Q 2584 2291 2321 2609 
Q 2059 2928 1675 2928 
Q 1300 2928 1048 2622 
Q 797 2316 797 1656 
z
" transform="scale(0.015625)"/>
      </defs>
      <use xlink:href="#ArialMT-47"/>
      <use xlink:href="#ArialMT-59" transform="translate(55.609375 0)"/>
      <use xlink:href="#ArialMT-14" transform="translate(105.609375 0)"/>
      <use xlink:href="#ArialMT-3" transform="translate(161.21875 0)"/>
      <use xlink:href="#ArialMT-53" transform="translate(189 0)"/>
      <use xlink:href="#ArialMT-48" transform="translate(244.609375 0)"/>
      <use xlink:href="#ArialMT-55" transform="translate(300.21875 0)"/>
      <use xlink:href="#ArialMT-4c" transform="translate(333.515625 0)"/>
      <use xlink:href="#ArialMT-44" transform="translate(355.734375 0)"/>
      <use xlink:href="#ArialMT-53" transform="translate(411.34375 0)"/>
      <use xlink:href="#ArialMT-56" transform="translate(466.953125 0)"/>
      <use xlink:href="#ArialMT-4c" transform="translate(516.953125 0)"/>
      <use xlink:href="#ArialMT-56" transform="translate(539.171875 0)"/>
      <use xlink:href="#ArialMT-3" transform="translate(589.171875 0)"/>
      <use xlink:href="#ArialMT-55" transform="translate(616.953125 0)"/>
      <use xlink:href="#ArialMT-44" transform="translate(650.25 0)"/>
      <use xlink:href="#ArialMT-4c" transform="translate(705.859375 0)"/>
      <use xlink:href="#ArialMT-56" transform="translate(728.078125 0)"/>
      <use xlink:href="#ArialMT-48" transform="translate(778.078125 0)"/>
     </g>
    </g>
    <g id="line2d_22">
     <path d="M 373.331116 148.190471 
L 383.327116 148.190471 
L 393.323116 148.190471 
" style="fill: none; stroke: #d1701f; stroke-width: 1.2; stroke-linecap: round"/>
    </g>
    <g id="text_21">
     <!-- dv2 circularization -->
     <g style="fill: #262626" transform="translate(401.319916 151.689071) scale(0.09996 -0.09996)">
      <defs>
       <path id="ArialMT-5d" d="M 125 0 
L 125 456 
L 2238 2881 
Q 1878 2863 1603 2863 
L 250 2863 
L 250 3319 
L 2963 3319 
L 2963 2947 
L 1166 841 
L 819 456 
Q 1197 484 1528 484 
L 3063 484 
L 3063 0 
L 125 0 
z
" transform="scale(0.015625)"/>
      </defs>
      <use xlink:href="#ArialMT-47"/>
      <use xlink:href="#ArialMT-59" transform="translate(55.609375 0)"/>
      <use xlink:href="#ArialMT-15" transform="translate(105.609375 0)"/>
      <use xlink:href="#ArialMT-3" transform="translate(161.21875 0)"/>
      <use xlink:href="#ArialMT-46" transform="translate(189 0)"/>
      <use xlink:href="#ArialMT-4c" transform="translate(239 0)"/>
      <use xlink:href="#ArialMT-55" transform="translate(261.21875 0)"/>
      <use xlink:href="#ArialMT-46" transform="translate(294.515625 0)"/>
      <use xlink:href="#ArialMT-58" transform="translate(344.515625 0)"/>
      <use xlink:href="#ArialMT-4f" transform="translate(400.125 0)"/>
      <use xlink:href="#ArialMT-44" transform="translate(422.34375 0)"/>
      <use xlink:href="#ArialMT-55" transform="translate(477.953125 0)"/>
      <use xlink:href="#ArialMT-4c" transform="translate(511.25 0)"/>
      <use xlink:href="#ArialMT-5d" transform="translate(533.46875 0)"/>
      <use xlink:href="#ArialMT-44" transform="translate(583.46875 0)"/>
      <use xlink:href="#ArialMT-57" transform="translate(639.078125 0)"/>
      <use xlink:href="#ArialMT-4c" transform="translate(666.859375 0)"/>
      <use xlink:href="#ArialMT-52" transform="translate(689.078125 0)"/>
      <use xlink:href="#ArialMT-51" transform="translate(744.6875 0)"/>
     </g>
    </g>
    <g id="line2d_23">
     <path d="M 373.331116 162.569482 
L 383.327116 162.569482 
L 393.323116 162.569482 
" style="fill: none; stroke: #6a51a3; stroke-width: 1.2; stroke-linecap: round"/>
    </g>
    <g id="text_22">
     <!-- dv3 plane change -->
     <g style="fill: #262626" transform="translate(401.319916 166.068082) scale(0.09996 -0.09996)">
      <defs>
       <path id="ArialMT-16" d="M 269 1209 
L 831 1284 
Q 928 806 1161 595 
Q 1394 384 1728 384 
Q 2125 384 2398 659 
Q 2672 934 2672 1341 
Q 2672 1728 2419 1979 
Q 2166 2231 1775 2231 
Q 1616 2231 1378 2169 
L 1441 2663 
Q 1497 2656 1531 2656 
Q 1891 2656 2178 2843 
Q 2466 3031 2466 3422 
Q 2466 3731 2256 3934 
Q 2047 4138 1716 4138 
Q 1388 4138 1169 3931 
Q 950 3725 888 3313 
L 325 3413 
Q 428 3978 793 4289 
Q 1159 4600 1703 4600 
Q 2078 4600 2393 4439 
Q 2709 4278 2876 4000 
Q 3044 3722 3044 3409 
Q 3044 3113 2884 2869 
Q 2725 2625 2413 2481 
Q 2819 2388 3044 2092 
Q 3269 1797 3269 1353 
Q 3269 753 2831 336 
Q 2394 -81 1725 -81 
Q 1122 -81 723 278 
Q 325 638 269 1209 
z
" transform="scale(0.015625)"/>
       <path id="ArialMT-4b" d="M 422 0 
L 422 4581 
L 984 4581 
L 984 2938 
Q 1378 3394 1978 3394 
Q 2347 3394 2619 3248 
Q 2891 3103 3008 2847 
Q 3125 2591 3125 2103 
L 3125 0 
L 2563 0 
L 2563 2103 
Q 2563 2525 2380 2717 
Q 2197 2909 1863 2909 
Q 1613 2909 1392 2779 
Q 1172 2650 1078 2428 
Q 984 2206 984 1816 
L 984 0 
L 422 0 
z
" transform="scale(0.015625)"/>
       <path id="ArialMT-4a" d="M 319 -275 
L 866 -356 
Q 900 -609 1056 -725 
Q 1266 -881 1628 -881 
Q 2019 -881 2231 -725 
Q 2444 -569 2519 -288 
Q 2563 -116 2559 434 
Q 2191 0 1641 0 
Q 956 0 581 494 
Q 206 988 206 1678 
Q 206 2153 378 2554 
Q 550 2956 876 3175 
Q 1203 3394 1644 3394 
Q 2231 3394 2613 2919 
L 2613 3319 
L 3131 3319 
L 3131 450 
Q 3131 -325 2973 -648 
Q 2816 -972 2473 -1159 
Q 2131 -1347 1631 -1347 
Q 1038 -1347 672 -1080 
Q 306 -813 319 -275 
z
M 784 1719 
Q 784 1066 1043 766 
Q 1303 466 1694 466 
Q 2081 466 2343 764 
Q 2606 1063 2606 1700 
Q 2606 2309 2336 2618 
Q 2066 2928 1684 2928 
Q 1309 2928 1046 2623 
Q 784 2319 784 1719 
z
" transform="scale(0.015625)"/>
      </defs>
      <use xlink:href="#ArialMT-47"/>
      <use xlink:href="#ArialMT-59" transform="translate(55.609375 0)"/>
      <use xlink:href="#ArialMT-16" transform="translate(105.609375 0)"/>
      <use xlink:href="#ArialMT-3" transform="translate(161.21875 0)"/>
      <use xlink:href="#ArialMT-53" transform="translate(189 0)"/>
      <use xlink:href="#ArialMT-4f" transform="translate(244.609375 0)"/>
      <use xlink:href="#ArialMT-44" transform="translate(266.828125 0)"/>
      <use xlink:href="#ArialMT-51" transform="translate(322.4375 0)"/>
      <use xlink:href="#ArialMT-48" transform="translate(378.046875 0)"/>
      <use xlink:href="#ArialMT-3" transform="translate(433.65625 0)"/>
      <use xlink:href="#ArialMT-46" transform="translate(461.4375 0)"/>
      <use xlink:href="#ArialMT-4b" transform="translate(511.4375 0)"/>
      <use xlink:href="#ArialMT-44" transform="translate(567.046875 0)"/>
      <use xlink:href="#ArialMT-51" transform="translate(622.65625 0)"/>
      <use xlink:href="#ArialMT-4a" transform="translate(678.265625 0)"/>
      <use xlink:href="#ArialMT-48" transform="translate(733.875 0)"/>
     </g>
    </g>
   </g>
  </g>
 </g>
 <defs>
  <clipPath id="pe2b28d7bee">
   <rect x="47.251719" y="21.936328" width="446.4" height="155.232"/>
  </clipPath>
 </defs>
</svg>
