<?xml version="1.0" encoding="utf-8" standalone="no"?>
<!DOCTYPE svg PUBLIC "-//W3C//DTD SVG 1.1//EN"
  "http://www.w3.org/Graphics/SVG/1.1/DTD/svg11.dtd">
<svg xmlns:xlink="http://www.w3.org/1999/xlink" width="592.543906pt" height="268.712222pt" viewBox="0 0 592.543906 268.712222" xmlns="http://www.w3.org/2000/svg" version="1.1">
 <metadata>
  <rdf:RDF xmlns:dc="http://purl.org/dc/elements/1.1/" xmlns:cc="http://creativecommons.org/ns#" xmlns:rdf="http://www.w3.org/1999/02/22-rdf-syntax-ns#">
   <cc:Work>
    <dc:type rdf:resource="http://purl.org/dc/dcmitype/StillImage"/>
    <dc:date>2026-07-03T22:50:23.413415</dc:date>
    <dc:format>image/svg+xml</dc:format>
    <dc:creator>
     <cc:Agent>
      <dc:title>Matplotlib v3.10.9, https://matplotlib.org/</dc:title>
     </cc:Agent>
    </dc:creator>
   </cc:Work>
  </rdf:RDF>
 </metadata>
 <defs>
  <style type="text/css">*{stroke-linejoin: round; stroke-linecap: butt}</style>
 </defs>
 <g id="figure_1">
  <g id="patch_1">
   <path d="M 0 268.712222 
L 592.543906 268.712222 
L 592.543906 0 
L 0 0 
z
" style="fill: #ffffff"/>
  </g>
  <g id="axes_1">
   <g id="patch_2">
    <path d="M 42.118906 235.426134 
L 289.791406 235.426134 
L 289.791406 20.5 
L 42.118906 20.5 
z
" style="fill: #f5f5f5"/>
   </g>
   <g id="patch_3">
    <path d="M 42.118906 34.714033 
L 289.791406 34.714033 
L 289.791406 30.26937 
L 42.118906 30.26937 
z
" clip-path="url(#p431c8ca6cc)" style="fill: #c44e52; opacity: 0.12; stroke: #c44e52; stroke-linejoin: miter"/>
   </g>
   <g id="matplotlib.axis_1">
    <g id="xtick_1">
     <g id="line2d_1">
      <path d="M 91.319036 235.426134 
L 91.319036 20.5 
" clip-path="url(#p431c8ca6cc)" style="fill: none; stroke: #dddddd; stroke-width: 0.6; stroke-linecap: round"/>
     </g>
     <g id="text_1">
      <!-- Mamba-962 -->
      <g style="fill: #262626" transform="translate(70.84197 259.683086) rotate(-12) scale(0.085 -0.085)">
       <defs>
        <path id="STIXTwoText-4d" d="M 1683 0 
L 179 0 
L 179 192 
Q 442 192 570 240 
Q 698 288 742 448 
Q 787 608 787 934 
L 787 3424 
Q 787 3667 742 3792 
Q 698 3917 573 3965 
Q 448 4013 192 4013 
L 192 4205 
L 1498 4205 
L 2848 986 
L 2874 986 
L 4218 4205 
L 5434 4205 
L 5434 4013 
Q 5210 4013 5088 3965 
Q 4966 3917 4921 3792 
Q 4877 3667 4877 3430 
L 4877 762 
Q 4877 531 4921 406 
Q 4966 282 5088 237 
Q 5210 192 5440 192 
L 5440 0 
L 3738 0 
L 3738 192 
Q 3987 192 4108 237 
Q 4230 282 4268 406 
Q 4307 531 4307 762 
L 4307 3520 
L 4282 3520 
L 2790 0 
L 2637 0 
L 1126 3514 
L 1101 3514 
L 1101 934 
Q 1101 608 1145 448 
Q 1190 288 1315 240 
Q 1440 192 1683 192 
L 1683 0 
z
" transform="scale(0.015625)"/>
        <path id="STIXTwoText-61" d="M 1005 -45 
Q 634 -45 438 160 
Q 243 365 243 672 
Q 243 928 361 1104 
Q 480 1280 675 1401 
Q 870 1523 1097 1606 
Q 1325 1690 1542 1747 
Q 1760 1805 1926 1856 
L 1926 2138 
Q 1926 2554 1782 2730 
Q 1638 2906 1350 2906 
Q 1075 2906 998 2790 
Q 922 2675 922 2387 
Q 922 2240 848 2166 
Q 774 2093 640 2093 
Q 544 2093 457 2166 
Q 371 2240 371 2400 
Q 371 2579 508 2739 
Q 646 2899 899 3001 
Q 1152 3104 1498 3104 
Q 2022 3104 2240 2861 
Q 2458 2618 2458 2118 
L 2458 666 
Q 2458 467 2502 409 
Q 2547 352 2650 352 
Q 2739 352 2812 397 
Q 2886 442 2950 512 
L 3046 410 
Q 2886 179 2742 73 
Q 2598 -32 2355 -32 
Q 2131 -32 2064 96 
Q 1997 224 1965 461 
L 1926 538 
L 1926 1645 
Q 1638 1574 1382 1478 
Q 1126 1382 966 1228 
Q 806 1075 806 826 
Q 806 589 934 448 
Q 1062 307 1267 307 
Q 1434 307 1616 390 
Q 1798 474 1971 627 
L 2022 397 
L 1946 397 
Q 1798 269 1660 166 
Q 1523 64 1366 9 
Q 1210 -45 1005 -45 
z
" transform="scale(0.015625)"/>
        <path id="STIXTwoText-6d" d="M 3520 0 
L 2003 0 
L 2003 186 
Q 2234 186 2336 230 
Q 2438 275 2467 396 
Q 2496 518 2496 742 
L 2496 2010 
Q 2496 2419 2352 2556 
Q 2208 2694 1984 2694 
Q 1805 2694 1648 2617 
Q 1491 2541 1363 2438 
Q 1235 2336 1146 2246 
L 1094 2566 
L 1190 2566 
Q 1453 2790 1696 2947 
Q 1939 3104 2266 3104 
Q 2554 3104 2730 2937 
Q 2906 2771 2995 2522 
Q 3008 2502 3014 2480 
Q 3021 2458 3027 2432 
L 3027 742 
Q 3027 525 3056 403 
Q 3085 282 3187 234 
Q 3290 186 3520 186 
L 3520 0 
z
M 1664 0 
L 205 0 
L 205 186 
Q 410 186 502 221 
Q 595 256 624 355 
Q 653 454 653 646 
L 653 2438 
Q 653 2611 585 2668 
Q 518 2726 384 2726 
Q 314 2726 262 2720 
Q 211 2714 211 2714 
L 211 2899 
L 1011 3085 
L 1165 3085 
L 1165 2496 
L 1184 2355 
L 1184 621 
Q 1184 442 1222 349 
Q 1261 256 1363 221 
Q 1466 186 1664 186 
L 1664 0 
z
M 5306 0 
L 3859 0 
L 3859 186 
Q 4077 186 4173 243 
Q 4269 301 4291 425 
Q 4314 550 4314 742 
L 4314 1971 
Q 4314 2266 4240 2419 
Q 4166 2573 4041 2633 
Q 3917 2694 3763 2694 
Q 3552 2694 3347 2544 
Q 3142 2394 2976 2253 
L 2906 2573 
L 3002 2573 
Q 3264 2835 3513 2969 
Q 3763 3104 4019 3104 
Q 4397 3104 4621 2867 
Q 4845 2630 4845 2048 
L 4845 742 
Q 4845 544 4867 419 
Q 4890 294 4989 240 
Q 5088 186 5306 186 
L 5306 0 
z
" transform="scale(0.015625)"/>
        <path id="STIXTwoText-62" d="M 877 4518 
L 1043 4518 
L 1043 2560 
L 1062 2560 
Q 1229 2765 1478 2934 
Q 1728 3104 2048 3104 
Q 2368 3104 2608 2921 
Q 2848 2739 2982 2419 
Q 3117 2099 3117 1683 
Q 3117 1114 2918 723 
Q 2720 333 2374 134 
Q 2029 -64 1581 -64 
Q 1171 -64 899 32 
Q 627 128 512 192 
L 512 3789 
Q 512 4006 464 4067 
Q 416 4128 230 4128 
Q 154 4128 102 4121 
Q 51 4115 51 4115 
L 51 4294 
L 877 4518 
z
M 1043 2278 
L 1043 499 
Q 1133 390 1286 294 
Q 1440 198 1696 198 
Q 2003 198 2185 371 
Q 2368 544 2451 835 
Q 2534 1126 2534 1478 
Q 2534 1786 2470 2058 
Q 2406 2330 2240 2499 
Q 2074 2669 1766 2669 
Q 1523 2669 1328 2531 
Q 1133 2394 1043 2278 
z
" transform="scale(0.015625)"/>
        <path id="STIXTwoText-2d" d="M 1728 1395 
L 288 1395 
L 288 1811 
L 1728 1811 
L 1728 1395 
z
" transform="scale(0.015625)"/>
        <path id="STIXTwoText-39" d="M 544 -83 
L 531 102 
Q 973 154 1344 362 
Q 1715 570 1961 931 
Q 2208 1293 2278 1811 
L 2240 1818 
Q 2022 1619 1833 1520 
Q 1645 1421 1402 1421 
Q 877 1421 563 1776 
Q 250 2131 250 2765 
Q 250 3411 592 3772 
Q 934 4134 1536 4134 
Q 2016 4134 2310 3897 
Q 2605 3661 2742 3264 
Q 2880 2867 2880 2394 
Q 2880 1773 2713 1312 
Q 2547 851 2240 540 
Q 1933 230 1504 76 
Q 1075 -77 544 -83 
z
M 1594 1798 
Q 1875 1798 2089 1968 
Q 2304 2138 2304 2547 
Q 2304 2950 2224 3257 
Q 2144 3565 1968 3741 
Q 1792 3917 1510 3917 
Q 1197 3917 1001 3667 
Q 806 3418 806 2803 
Q 806 2355 1001 2076 
Q 1197 1798 1594 1798 
z
" transform="scale(0.015625)"/>
        <path id="STIXTwoText-36" d="M 1658 -77 
Q 1184 -77 880 156 
Q 576 390 432 784 
Q 288 1178 288 1645 
Q 288 2221 464 2675 
Q 640 3130 957 3446 
Q 1274 3763 1706 3939 
Q 2138 4115 2656 4134 
L 2669 3949 
Q 2221 3885 1849 3661 
Q 1478 3437 1228 3078 
Q 979 2720 896 2253 
L 941 2246 
Q 1139 2438 1331 2540 
Q 1523 2643 1773 2643 
Q 2298 2643 2611 2284 
Q 2925 1926 2925 1299 
Q 2925 646 2595 284 
Q 2266 -77 1658 -77 
z
M 1683 147 
Q 2003 147 2185 393 
Q 2368 640 2368 1248 
Q 2368 1683 2173 1977 
Q 1978 2272 1581 2272 
Q 1395 2272 1232 2198 
Q 1069 2125 966 1958 
Q 864 1792 864 1510 
Q 864 1114 953 806 
Q 1043 499 1225 323 
Q 1408 147 1683 147 
z
" transform="scale(0.015625)"/>
        <path id="STIXTwoText-32" d="M 2765 0 
L 243 0 
L 243 218 
L 1216 1190 
Q 1536 1517 1747 1782 
Q 1958 2048 2064 2317 
Q 2170 2586 2170 2918 
Q 2170 3277 1955 3491 
Q 1741 3706 1370 3706 
Q 1056 3706 835 3571 
Q 614 3437 435 3078 
L 282 3142 
Q 429 3610 749 3866 
Q 1069 4122 1536 4122 
Q 1901 4122 2176 3984 
Q 2451 3846 2608 3600 
Q 2765 3354 2765 3014 
Q 2765 2733 2646 2473 
Q 2528 2214 2294 1939 
Q 2061 1664 1722 1318 
L 877 518 
L 877 486 
L 1325 506 
L 2214 506 
Q 2470 506 2572 621 
Q 2675 736 2784 1024 
L 2970 1024 
L 2765 0 
z
" transform="scale(0.015625)"/>
       </defs>
       <use xlink:href="#STIXTwoText-4d"/>
       <use xlink:href="#STIXTwoText-61" transform="translate(89.499985 0)"/>
       <use xlink:href="#STIXTwoText-6d" transform="translate(137.499969 0)"/>
       <use xlink:href="#STIXTwoText-62" transform="translate(222.699951 0)"/>
       <use xlink:href="#STIXTwoText-61" transform="translate(274.899948 0)"/>
       <use xlink:href="#STIXTwoText-2d" transform="translate(322.899933 0)"/>
       <use xlink:href="#STIXTwoText-39" transform="translate(354.399918 0)"/>
       <use xlink:href="#STIXTwoText-36" transform="translate(403.899902 0)"/>
       <use xlink:href="#STIXTwoText-32" transform="translate(453.399887 0)"/>
      </g>
     </g>
    </g>
    <g id="xtick_2">
     <g id="line2d_2">
      <path d="M 165.955156 235.426134 
L 165.955156 20.5 
" clip-path="url(#p431c8ca6cc)" style="fill: none; stroke: #dddddd; stroke-width: 0.6; stroke-linecap: round"/>
     </g>
     <g id="text_2">
      <!-- LSTM-1082 -->
      <g style="fill: #262626" transform="translate(146.089317 259.423245) rotate(-12) scale(0.085 -0.085)">
       <defs>
        <path id="STIXTwoText-4c" d="M 3443 0 
L 269 0 
L 269 192 
Q 525 192 649 237 
Q 774 282 812 410 
Q 851 538 851 787 
L 851 3392 
Q 851 3642 812 3776 
Q 774 3910 649 3961 
Q 525 4013 269 4013 
L 269 4205 
L 2067 4205 
L 2067 4013 
Q 1811 4013 1673 3958 
Q 1536 3904 1488 3769 
Q 1440 3635 1440 3386 
L 1440 608 
Q 1440 397 1542 333 
Q 1645 269 1926 269 
L 2221 269 
Q 2541 269 2739 317 
Q 2938 365 3056 480 
Q 3174 595 3254 784 
Q 3334 973 3430 1248 
L 3635 1248 
L 3443 0 
z
" transform="scale(0.015625)"/>
        <path id="STIXTwoText-53" d="M 480 -96 
L 282 -96 
L 224 1286 
L 422 1286 
Q 538 845 691 611 
Q 845 378 1072 291 
Q 1299 205 1626 205 
Q 1869 205 2041 272 
Q 2214 339 2310 489 
Q 2406 640 2406 883 
Q 2406 1165 2249 1350 
Q 2093 1536 1849 1680 
Q 1606 1824 1344 1971 
Q 1088 2118 851 2284 
Q 614 2451 464 2681 
Q 314 2912 314 3245 
Q 314 3584 480 3811 
Q 646 4038 921 4160 
Q 1197 4282 1530 4282 
Q 1824 4282 1984 4234 
Q 2144 4186 2237 4134 
Q 2330 4083 2406 4083 
Q 2483 4083 2531 4124 
Q 2579 4166 2605 4269 
L 2771 4269 
L 2816 2989 
L 2624 2989 
Q 2490 3520 2266 3776 
Q 2042 4032 1555 4026 
Q 1229 4026 1049 3875 
Q 870 3725 870 3424 
Q 870 3187 1004 3017 
Q 1139 2848 1356 2713 
Q 1574 2579 1811 2438 
Q 2022 2317 2236 2195 
Q 2451 2074 2627 1920 
Q 2803 1766 2908 1561 
Q 3014 1357 3014 1069 
Q 3014 698 2844 442 
Q 2675 186 2380 54 
Q 2086 -77 1715 -77 
Q 1382 -77 1174 -29 
Q 966 19 848 67 
Q 730 115 653 115 
Q 589 115 537 57 
Q 486 0 480 -96 
z
" transform="scale(0.015625)"/>
        <path id="STIXTwoText-54" d="M 2861 0 
L 1005 0 
L 1005 192 
Q 1274 192 1408 233 
Q 1542 275 1587 412 
Q 1632 550 1632 838 
L 1632 3917 
L 1222 3917 
Q 870 3917 694 3846 
Q 518 3776 441 3590 
Q 365 3405 294 3053 
L 96 3053 
L 166 4205 
L 3706 4205 
L 3757 3053 
L 3558 3053 
Q 3488 3405 3411 3590 
Q 3334 3776 3161 3846 
Q 2989 3917 2630 3917 
L 2227 3917 
L 2227 838 
Q 2227 550 2272 412 
Q 2317 275 2451 233 
Q 2586 192 2861 192 
L 2861 0 
z
" transform="scale(0.015625)"/>
        <path id="STIXTwoText-31" d="M 2726 0 
L 512 0 
L 512 179 
Q 966 179 1152 275 
Q 1338 371 1338 608 
L 1338 3315 
Q 1338 3482 1293 3555 
Q 1248 3629 1126 3629 
Q 1062 3629 947 3616 
Q 832 3603 704 3580 
Q 576 3558 474 3526 
L 474 3738 
L 1715 4090 
L 1901 4090 
L 1901 608 
Q 1901 371 2093 275 
Q 2285 179 2726 179 
L 2726 0 
z
" transform="scale(0.015625)"/>
        <path id="STIXTwoText-30" d="M 1581 -70 
Q 1197 -70 928 99 
Q 659 269 492 563 
Q 326 858 249 1242 
Q 173 1626 173 2048 
Q 173 2656 336 3120 
Q 499 3584 816 3846 
Q 1133 4109 1594 4109 
Q 2010 4109 2323 3862 
Q 2637 3616 2816 3152 
Q 2995 2688 2995 2029 
Q 2995 1619 2915 1241 
Q 2835 864 2665 569 
Q 2496 275 2227 102 
Q 1958 -70 1581 -70 
z
M 1581 160 
Q 1958 160 2166 614 
Q 2374 1069 2374 1990 
Q 2374 2963 2172 3427 
Q 1971 3891 1574 3891 
Q 1197 3891 992 3430 
Q 787 2970 787 2016 
Q 787 1088 992 624 
Q 1197 160 1581 160 
z
" transform="scale(0.015625)"/>
        <path id="STIXTwoText-38" d="M 1574 -77 
Q 1203 -77 915 32 
Q 627 141 460 361 
Q 294 582 294 909 
Q 294 1165 390 1341 
Q 486 1517 681 1670 
Q 877 1824 1171 2022 
L 1171 2099 
L 1421 1965 
Q 1222 1805 1081 1664 
Q 941 1523 867 1356 
Q 794 1190 794 960 
Q 794 531 1014 326 
Q 1235 122 1600 122 
Q 1798 122 1964 195 
Q 2131 269 2230 413 
Q 2330 557 2330 774 
Q 2330 986 2243 1158 
Q 2157 1331 1929 1520 
Q 1702 1709 1280 1978 
L 1248 1990 
Q 890 2234 701 2419 
Q 512 2605 445 2787 
Q 378 2970 378 3194 
Q 378 3488 534 3699 
Q 691 3910 966 4025 
Q 1242 4141 1594 4141 
Q 1914 4141 2166 4025 
Q 2419 3910 2566 3712 
Q 2714 3514 2714 3258 
Q 2714 3027 2630 2860 
Q 2547 2694 2368 2556 
Q 2189 2419 1888 2253 
L 1888 2176 
L 1619 2317 
Q 1978 2522 2109 2736 
Q 2240 2950 2240 3270 
Q 2240 3590 2064 3760 
Q 1888 3930 1581 3930 
Q 1254 3930 1065 3766 
Q 877 3603 877 3309 
Q 877 3014 1088 2803 
Q 1299 2592 1766 2310 
L 1811 2278 
Q 2214 2042 2444 1840 
Q 2675 1638 2771 1433 
Q 2867 1229 2867 960 
Q 2867 627 2704 393 
Q 2541 160 2249 41 
Q 1958 -77 1574 -77 
z
" transform="scale(0.015625)"/>
       </defs>
       <use xlink:href="#STIXTwoText-4c"/>
       <use xlink:href="#STIXTwoText-53" transform="translate(58.499985 0)"/>
       <use xlink:href="#STIXTwoText-54" transform="translate(108.899979 0)"/>
       <use xlink:href="#STIXTwoText-4d" transform="translate(169.199966 0)"/>
       <use xlink:href="#STIXTwoText-2d" transform="translate(258.699951 0)"/>
       <use xlink:href="#STIXTwoText-31" transform="translate(290.199936 0)"/>
       <use xlink:href="#STIXTwoText-30" transform="translate(339.699921 0)"/>
       <use xlink:href="#STIXTwoText-38" transform="translate(389.199905 0)"/>
       <use xlink:href="#STIXTwoText-32" transform="translate(438.69989 0)"/>
      </g>
     </g>
    </g>
    <g id="xtick_3">
     <g id="line2d_3">
      <path d="M 240.591276 235.426134 
L 240.591276 20.5 
" clip-path="url(#p431c8ca6cc)" style="fill: none; stroke: #dddddd; stroke-width: 0.6; stroke-linecap: round"/>
     </g>
     <g id="text_3">
      <!-- Dense-515 -->
      <g style="fill: #262626" transform="translate(222.608486 258.622736) rotate(-12) scale(0.085 -0.085)">
       <defs>
        <path id="STIXTwoText-44" d="M 2054 0 
L 224 0 
L 224 192 
Q 506 192 640 233 
Q 774 275 812 406 
Q 851 538 851 794 
L 851 3475 
Q 851 3712 793 3824 
Q 736 3936 601 3974 
Q 467 4013 224 4013 
L 224 4205 
L 1984 4205 
Q 2483 4205 2915 4099 
Q 3347 3994 3667 3750 
Q 3987 3507 4169 3110 
Q 4352 2714 4352 2125 
Q 4352 1574 4189 1171 
Q 4026 768 3722 509 
Q 3418 250 2995 125 
Q 2573 0 2054 0 
z
M 1818 243 
Q 2400 243 2816 400 
Q 3232 557 3456 953 
Q 3680 1350 3680 2067 
Q 3680 2982 3213 3462 
Q 2746 3942 1754 3942 
Q 1677 3942 1603 3942 
Q 1530 3942 1440 3930 
L 1440 262 
Q 1536 256 1629 249 
Q 1722 243 1818 243 
z
" transform="scale(0.015625)"/>
        <path id="STIXTwoText-65" d="M 1581 -64 
Q 1197 -64 886 118 
Q 576 301 397 656 
Q 218 1011 218 1523 
Q 218 2061 400 2409 
Q 582 2758 889 2931 
Q 1197 3104 1568 3104 
Q 2093 3104 2413 2739 
Q 2733 2374 2758 1702 
L 678 1702 
L 672 1939 
L 2157 1939 
Q 2150 2176 2073 2384 
Q 1997 2592 1849 2720 
Q 1702 2848 1472 2848 
Q 1101 2848 915 2557 
Q 730 2266 730 1734 
Q 730 1293 870 998 
Q 1011 704 1241 560 
Q 1472 416 1734 416 
Q 1997 416 2160 486 
Q 2323 557 2438 669 
Q 2554 781 2656 915 
L 2778 826 
Q 2694 646 2585 483 
Q 2477 320 2339 198 
Q 2202 77 2016 6 
Q 1830 -64 1581 -64 
z
" transform="scale(0.015625)"/>
        <path id="STIXTwoText-6e" d="M 3552 0 
L 2074 0 
L 2074 179 
Q 2304 179 2403 220 
Q 2502 262 2524 364 
Q 2547 467 2547 646 
L 2547 1805 
Q 2547 2189 2460 2381 
Q 2374 2573 2240 2633 
Q 2106 2694 1958 2694 
Q 1773 2694 1625 2620 
Q 1478 2547 1360 2444 
Q 1242 2342 1139 2253 
L 1094 2566 
L 1190 2566 
Q 1453 2797 1686 2950 
Q 1920 3104 2221 3104 
Q 2656 3104 2867 2809 
Q 3078 2515 3078 1965 
L 3078 646 
Q 3078 467 3107 364 
Q 3136 262 3238 220 
Q 3341 179 3552 179 
L 3552 0 
z
M 1670 0 
L 205 0 
L 205 179 
Q 422 179 515 220 
Q 608 262 630 364 
Q 653 467 653 646 
L 653 2445 
Q 653 2618 582 2672 
Q 512 2726 384 2726 
Q 301 2726 256 2720 
Q 211 2714 211 2714 
L 211 2899 
L 1024 3085 
L 1171 3085 
L 1165 2496 
L 1184 2362 
L 1184 646 
Q 1184 467 1209 364 
Q 1235 262 1337 220 
Q 1440 179 1670 179 
L 1670 0 
z
" transform="scale(0.015625)"/>
        <path id="STIXTwoText-73" d="M 269 -51 
L 250 1050 
L 416 1050 
Q 518 557 716 361 
Q 915 166 1267 166 
Q 1510 166 1664 265 
Q 1818 365 1818 589 
Q 1818 742 1763 844 
Q 1709 947 1555 1052 
Q 1402 1158 1101 1306 
Q 806 1453 620 1590 
Q 435 1728 345 1894 
Q 256 2061 256 2298 
Q 256 2694 541 2899 
Q 826 3104 1235 3104 
Q 1478 3104 1632 3049 
Q 1786 2995 1907 2938 
L 1914 2938 
L 2022 3072 
L 2150 3072 
L 2170 2093 
L 1997 2093 
Q 1894 2547 1708 2716 
Q 1523 2886 1229 2886 
Q 1011 2886 860 2784 
Q 710 2682 710 2464 
Q 710 2278 883 2131 
Q 1056 1984 1459 1779 
Q 1754 1626 1952 1482 
Q 2150 1338 2252 1168 
Q 2355 998 2355 762 
Q 2355 461 2208 278 
Q 2061 96 1814 13 
Q 1568 -70 1280 -70 
Q 1005 -70 841 -12 
Q 678 45 550 96 
L 538 96 
L 403 -51 
L 269 -51 
z
" transform="scale(0.015625)"/>
        <path id="STIXTwoText-35" d="M 1114 -83 
Q 742 -83 560 6 
Q 378 96 378 275 
Q 378 384 445 467 
Q 512 550 634 550 
Q 730 550 822 502 
Q 915 454 1014 393 
Q 1114 333 1235 285 
Q 1357 237 1510 237 
Q 1741 237 1936 326 
Q 2131 416 2249 614 
Q 2368 813 2368 1146 
Q 2368 1504 2227 1721 
Q 2086 1939 1849 2054 
Q 1613 2170 1315 2214 
Q 1018 2259 698 2266 
L 621 2362 
L 1018 4032 
L 2771 4032 
L 2669 3514 
L 1165 3514 
L 992 2784 
Q 1312 2758 1590 2704 
Q 1869 2650 2096 2554 
Q 2323 2458 2489 2301 
Q 2656 2144 2745 1923 
Q 2835 1702 2835 1402 
Q 2835 1030 2710 752 
Q 2586 474 2355 288 
Q 2125 102 1811 9 
Q 1498 -83 1114 -83 
z
" transform="scale(0.015625)"/>
       </defs>
       <use xlink:href="#STIXTwoText-44"/>
       <use xlink:href="#STIXTwoText-65" transform="translate(72.999985 0)"/>
       <use xlink:href="#STIXTwoText-6e" transform="translate(119.399979 0)"/>
       <use xlink:href="#STIXTwoText-73" transform="translate(176.999969 0)"/>
       <use xlink:href="#STIXTwoText-65" transform="translate(216.499954 0)"/>
       <use xlink:href="#STIXTwoText-2d" transform="translate(262.899948 0)"/>
       <use xlink:href="#STIXTwoText-35" transform="translate(294.399933 0)"/>
       <use xlink:href="#STIXTwoText-31" transform="translate(343.899918 0)"/>
       <use xlink:href="#STIXTwoText-35" transform="translate(393.399902 0)"/>
      </g>
     </g>
    </g>
   </g>
   <g id="matplotlib.axis_2">
    <g id="ytick_1">
     <g id="line2d_4">
      <path d="M 42.118906 230.279214 
L 289.791406 230.279214 
" clip-path="url(#p431c8ca6cc)" style="fill: none; stroke: #dddddd; stroke-width: 0.6; stroke-linecap: round"/>
     </g>
     <g id="text_4">
      <!-- 120 -->
      <g style="fill: #262626" transform="translate(19.996406 233.279449) scale(0.085 -0.085)">
       <use xlink:href="#STIXTwoText-31"/>
       <use xlink:href="#STIXTwoText-32" transform="translate(49.499985 0)"/>
       <use xlink:href="#STIXTwoText-30" transform="translate(98.999969 0)"/>
      </g>
     </g>
    </g>
    <g id="ytick_2">
     <g id="line2d_5">
      <path d="M 42.118906 185.832582 
L 289.791406 185.832582 
" clip-path="url(#p431c8ca6cc)" style="fill: none; stroke: #dddddd; stroke-width: 0.6; stroke-linecap: round"/>
     </g>
     <g id="text_5">
      <!-- 130 -->
      <g style="fill: #262626" transform="translate(19.996406 188.832816) scale(0.085 -0.085)">
       <defs>
        <path id="STIXTwoText-33" d="M 1094 -83 
Q 806 -83 652 -28 
Q 499 26 438 106 
Q 378 186 378 269 
Q 378 371 442 460 
Q 506 550 627 550 
Q 723 550 828 502 
Q 934 454 1049 393 
Q 1165 333 1283 285 
Q 1402 237 1523 237 
Q 1728 237 1907 310 
Q 2086 384 2201 560 
Q 2317 736 2317 1050 
Q 2317 1338 2157 1549 
Q 1997 1760 1731 1878 
Q 1466 1997 1158 1997 
L 1030 1997 
L 1030 2240 
L 1152 2240 
Q 1370 2240 1574 2349 
Q 1779 2458 1910 2656 
Q 2042 2854 2042 3110 
Q 2042 3392 1866 3549 
Q 1690 3706 1389 3706 
Q 1101 3706 909 3574 
Q 717 3443 550 3187 
L 403 3270 
Q 582 3686 876 3904 
Q 1171 4122 1562 4122 
Q 2054 4122 2323 3875 
Q 2592 3629 2592 3264 
Q 2592 2931 2397 2726 
Q 2202 2522 1901 2330 
L 1901 2310 
Q 2157 2234 2371 2090 
Q 2586 1946 2714 1738 
Q 2842 1530 2842 1242 
Q 2842 806 2598 508 
Q 2355 211 1958 64 
Q 1562 -83 1094 -83 
z
" transform="scale(0.015625)"/>
       </defs>
       <use xlink:href="#STIXTwoText-31"/>
       <use xlink:href="#STIXTwoText-33" transform="translate(49.499985 0)"/>
       <use xlink:href="#STIXTwoText-30" transform="translate(98.999969 0)"/>
      </g>
     </g>
    </g>
    <g id="ytick_3">
     <g id="line2d_6">
      <path d="M 42.118906 141.38595 
L 289.791406 141.38595 
" clip-path="url(#p431c8ca6cc)" style="fill: none; stroke: #dddddd; stroke-width: 0.6; stroke-linecap: round"/>
     </g>
     <g id="text_6">
      <!-- 140 -->
      <g style="fill: #262626" transform="translate(19.996406 144.386184) scale(0.085 -0.085)">
       <defs>
        <path id="STIXTwoText-34" d="M 2426 0 
L 1856 0 
L 1856 1011 
L 83 1011 
L 83 1414 
L 2035 4128 
L 2426 4128 
L 2426 1453 
L 3078 1453 
L 3078 1011 
L 2426 1011 
L 2426 0 
z
M 435 1478 
L 435 1453 
L 1856 1453 
L 1856 3430 
L 1830 3430 
L 435 1478 
z
" transform="scale(0.015625)"/>
       </defs>
       <use xlink:href="#STIXTwoText-31"/>
       <use xlink:href="#STIXTwoText-34" transform="translate(49.499985 0)"/>
       <use xlink:href="#STIXTwoText-30" transform="translate(98.999969 0)"/>
      </g>
     </g>
    </g>
    <g id="ytick_4">
     <g id="line2d_7">
      <path d="M 42.118906 96.939318 
L 289.791406 96.939318 
" clip-path="url(#p431c8ca6cc)" style="fill: none; stroke: #dddddd; stroke-width: 0.6; stroke-linecap: round"/>
     </g>
     <g id="text_7">
      <!-- 150 -->
      <g style="fill: #262626" transform="translate(19.996406 99.939552) scale(0.085 -0.085)">
       <use xlink:href="#STIXTwoText-31"/>
       <use xlink:href="#STIXTwoText-35" transform="translate(49.499985 0)"/>
       <use xlink:href="#STIXTwoText-30" transform="translate(98.999969 0)"/>
      </g>
     </g>
    </g>
    <g id="ytick_5">
     <g id="line2d_8">
      <path d="M 42.118906 52.492686 
L 289.791406 52.492686 
" clip-path="url(#p431c8ca6cc)" style="fill: none; stroke: #dddddd; stroke-width: 0.6; stroke-linecap: round"/>
     </g>
     <g id="text_8">
      <!-- 160 -->
      <g style="fill: #262626" transform="translate(19.996406 55.49292) scale(0.085 -0.085)">
       <use xlink:href="#STIXTwoText-31"/>
       <use xlink:href="#STIXTwoText-36" transform="translate(49.499985 0)"/>
       <use xlink:href="#STIXTwoText-30" transform="translate(98.999969 0)"/>
      </g>
     </g>
    </g>
    <g id="text_9">
     <!-- CVaR$_{99.9}$ (m/s) -->
     <g style="fill: #262626" transform="translate(13.906406 158.030567) rotate(-90) scale(0.095 -0.095)">
      <defs>
       <path id="STIXTwoText-43" d="M 2330 -70 
Q 1670 -70 1222 211 
Q 774 493 547 985 
Q 320 1478 320 2099 
Q 320 2797 589 3283 
Q 858 3770 1331 4026 
Q 1805 4282 2419 4282 
Q 2758 4282 2963 4224 
Q 3168 4166 3289 4108 
Q 3411 4051 3488 4051 
Q 3565 4051 3606 4118 
Q 3648 4186 3706 4282 
L 3898 4282 
L 3898 2816 
L 3680 2816 
Q 3578 3443 3248 3724 
Q 2918 4006 2426 4006 
Q 1734 4006 1360 3513 
Q 986 3021 986 2163 
Q 986 1523 1181 1120 
Q 1376 717 1721 525 
Q 2067 333 2515 333 
Q 2957 333 3289 496 
Q 3622 659 3891 954 
L 4045 819 
Q 3872 563 3632 361 
Q 3392 160 3072 45 
Q 2752 -70 2330 -70 
z
" transform="scale(0.015625)"/>
       <path id="STIXTwoText-56" d="M 2330 -32 
L 2074 -32 
L 608 3430 
Q 518 3648 428 3773 
Q 339 3898 224 3955 
Q 109 4013 -64 4013 
L -64 4205 
L 1651 4205 
L 1651 4013 
Q 1568 4013 1465 4000 
Q 1363 3987 1289 3939 
Q 1216 3891 1216 3770 
Q 1216 3642 1325 3379 
L 2099 1478 
L 2349 806 
L 2381 806 
L 2605 1446 
L 3411 3482 
Q 3443 3552 3462 3632 
Q 3482 3712 3482 3795 
Q 3482 3923 3379 3968 
Q 3277 4013 3053 4013 
L 3053 4205 
L 4397 4205 
L 4397 4013 
Q 4262 4013 4169 3984 
Q 4077 3955 4003 3868 
Q 3930 3782 3846 3616 
Q 3763 3450 3648 3181 
L 2330 -32 
z
" transform="scale(0.015625)"/>
       <path id="STIXTwoText-52" d="M 2074 0 
L 275 0 
L 275 192 
Q 518 192 640 230 
Q 762 269 803 397 
Q 845 525 845 794 
L 845 3539 
Q 845 3718 809 3820 
Q 774 3923 652 3968 
Q 531 4013 275 4013 
L 275 4205 
L 1850 4205 
Q 2330 4205 2704 4112 
Q 3078 4019 3289 3792 
Q 3501 3565 3501 3155 
Q 3501 2797 3337 2573 
Q 3174 2349 2928 2224 
Q 2682 2099 2419 2035 
L 2419 2010 
Q 2528 1946 2665 1789 
Q 2803 1632 3020 1328 
Q 3238 1024 3590 518 
Q 3744 307 3888 249 
Q 4032 192 4250 192 
L 4250 0 
L 3194 0 
Q 2931 397 2755 662 
Q 2579 928 2457 1110 
Q 2336 1293 2240 1433 
Q 2144 1574 2048 1715 
Q 1952 1862 1872 1894 
Q 1792 1926 1619 1926 
L 1440 1926 
L 1440 794 
Q 1440 531 1485 400 
Q 1530 269 1664 230 
Q 1798 192 2074 192 
L 2074 0 
z
M 1440 2176 
L 1683 2170 
Q 2035 2189 2297 2285 
Q 2560 2381 2707 2585 
Q 2854 2790 2854 3130 
Q 2854 3514 2617 3734 
Q 2381 3955 1862 3955 
Q 1760 3955 1651 3952 
Q 1542 3949 1440 3936 
L 1440 2176 
z
" transform="scale(0.015625)"/>
       <path id="STIXGeneral-Regular-39" d="M 378 -141 
L 358 -13 
Q 1094 115 1603 608 
Q 2112 1101 2304 1882 
Q 1933 1517 1344 1517 
Q 826 1517 509 1875 
Q 192 2234 192 2816 
Q 192 3462 573 3894 
Q 954 4326 1523 4326 
Q 2131 4326 2528 3840 
Q 2938 3328 2938 2522 
Q 2938 1958 2742 1462 
Q 2547 966 2170 621 
Q 1773 262 1395 105 
Q 1018 -51 378 -141 
z
M 2317 2272 
L 2317 2522 
Q 2317 4147 1472 4147 
Q 1171 4147 1005 3930 
Q 909 3802 845 3546 
Q 781 3290 781 3034 
Q 781 2464 995 2128 
Q 1210 1792 1568 1792 
Q 1824 1792 2070 1917 
Q 2317 2042 2317 2272 
z
" transform="scale(0.015625)"/>
       <path id="STIXGeneral-Regular-2e" d="M 1158 275 
Q 1158 134 1052 32 
Q 947 -70 800 -70 
Q 653 -70 550 32 
Q 448 134 448 281 
Q 448 429 553 534 
Q 659 640 806 640 
Q 947 640 1052 531 
Q 1158 422 1158 275 
z
" transform="scale(0.015625)"/>
       <path id="STIXTwoText-20" transform="scale(0.015625)"/>
       <path id="STIXTwoText-28" d="M 1997 -1011 
L 1894 -1190 
Q 1120 -794 656 -48 
Q 192 698 192 1754 
Q 192 2803 656 3542 
Q 1120 4282 1894 4672 
L 1997 4506 
Q 1299 4038 1008 3372 
Q 717 2707 717 1754 
Q 717 787 1008 118 
Q 1299 -550 1997 -1011 
z
" transform="scale(0.015625)"/>
       <path id="STIXTwoText-2f" d="M 589 -570 
L 230 -570 
L 1901 4538 
L 2253 4538 
L 589 -570 
z
" transform="scale(0.015625)"/>
       <path id="STIXTwoText-29" d="M 301 -1190 
L 198 -1011 
Q 902 -550 1190 118 
Q 1478 787 1478 1754 
Q 1478 2707 1190 3372 
Q 902 4038 198 4506 
L 301 4672 
Q 1075 4282 1539 3542 
Q 2003 2803 2003 1754 
Q 2003 698 1539 -48 
Q 1075 -794 301 -1190 
z
" transform="scale(0.015625)"/>
      </defs>
      <use xlink:href="#STIXTwoText-43"/>
      <use xlink:href="#STIXTwoText-56" transform="translate(66.999985 0)"/>
      <use xlink:href="#STIXTwoText-61" transform="translate(134.999969 0)"/>
      <use xlink:href="#STIXTwoText-52" transform="translate(182.999954 0)"/>
      <use xlink:href="#STIXGeneral-Regular-39" transform="translate(250.443229 -13.228125) scale(0.7)"/>
      <use xlink:href="#STIXGeneral-Regular-39" transform="translate(285.443219 -13.228125) scale(0.7)"/>
      <use xlink:href="#STIXGeneral-Regular-2e" transform="translate(320.443208 -13.228125) scale(0.7)"/>
      <use xlink:href="#STIXGeneral-Regular-39" transform="translate(337.943197 -13.228125) scale(0.7)"/>
      <use xlink:href="#STIXTwoText-20" transform="translate(377.352562 0)"/>
      <use xlink:href="#STIXTwoText-28" transform="translate(400.852546 0)"/>
      <use xlink:href="#STIXTwoText-6d" transform="translate(435.152534 0)"/>
      <use xlink:href="#STIXTwoText-2f" transform="translate(520.352516 0)"/>
      <use xlink:href="#STIXTwoText-73" transform="translate(559.052513 0)"/>
      <use xlink:href="#STIXTwoText-29" transform="translate(598.552498 0)"/>
     </g>
    </g>
   </g>
   <g id="line2d_9">
    <path d="M 42.118906 34.714033 
L 289.791406 34.714033 
" clip-path="url(#p431c8ca6cc)" style="fill: none; stroke-dasharray: 2.96,1.28; stroke-dashoffset: 0; stroke: #c44e52; stroke-width: 0.8"/>
   </g>
   <g id="patch_4">
    <path d="M 42.118906 235.426134 
L 42.118906 20.5 
" style="fill: none; stroke: #bbbbbb; stroke-width: 0.8; stroke-linejoin: miter; stroke-linecap: square"/>
   </g>
   <g id="patch_5">
    <path d="M 289.791406 235.426134 
L 289.791406 20.5 
" style="fill: none; stroke: #bbbbbb; stroke-width: 0.8; stroke-linejoin: miter; stroke-linecap: square"/>
   </g>
   <g id="patch_6">
    <path d="M 42.118906 235.426134 
L 289.791406 235.426134 
" style="fill: none; stroke: #bbbbbb; stroke-width: 0.8; stroke-linejoin: miter; stroke-linecap: square"/>
   </g>
   <g id="patch_7">
    <path d="M 42.118906 20.5 
L 289.791406 20.5 
" style="fill: none; stroke: #bbbbbb; stroke-width: 0.8; stroke-linejoin: miter; stroke-linecap: square"/>
   </g>
   <g id="text_10">
    <!-- best classical -->
    <g style="fill: #c44e52" transform="translate(233.498233 18.064538) scale(0.075 -0.075)">
     <defs>
      <path id="STIXTwoText-74" d="M 1875 576 
L 1997 474 
Q 1875 301 1769 182 
Q 1664 64 1536 0 
Q 1408 -64 1203 -64 
Q 883 -64 736 125 
Q 589 314 589 742 
L 589 2726 
L 237 2726 
L 237 2874 
Q 461 3014 624 3254 
Q 787 3494 960 3904 
L 1120 3904 
L 1120 2995 
L 1843 2995 
L 1843 2726 
L 1120 2726 
L 1120 922 
Q 1120 582 1181 448 
Q 1242 314 1427 314 
Q 1581 314 1667 378 
Q 1754 442 1875 576 
z
" transform="scale(0.015625)"/>
      <path id="STIXTwoText-63" d="M 2611 947 
L 2733 858 
Q 2611 602 2454 390 
Q 2298 179 2067 57 
Q 1837 -64 1491 -64 
Q 1094 -64 806 128 
Q 518 320 364 662 
Q 211 1005 211 1446 
Q 211 1952 380 2323 
Q 550 2694 873 2899 
Q 1197 3104 1658 3104 
Q 2112 3104 2371 2905 
Q 2630 2707 2630 2426 
Q 2630 2285 2563 2211 
Q 2496 2138 2362 2138 
Q 2221 2138 2147 2211 
Q 2074 2285 2029 2393 
Q 1984 2502 1936 2611 
Q 1888 2720 1801 2793 
Q 1715 2867 1549 2867 
Q 1158 2867 937 2582 
Q 717 2298 717 1747 
Q 717 1165 957 790 
Q 1197 416 1690 416 
Q 2003 416 2198 544 
Q 2394 672 2611 947 
z
" transform="scale(0.015625)"/>
      <path id="STIXTwoText-6c" d="M 1664 0 
L 192 0 
L 192 186 
Q 403 186 499 227 
Q 595 269 617 368 
Q 640 467 640 646 
L 640 3859 
Q 640 4058 566 4096 
Q 493 4134 371 4134 
Q 288 4134 227 4128 
Q 166 4122 166 4122 
L 166 4294 
L 1011 4518 
L 1171 4518 
L 1171 646 
Q 1171 461 1200 361 
Q 1229 262 1331 224 
Q 1434 186 1664 186 
L 1664 0 
z
" transform="scale(0.015625)"/>
      <path id="STIXTwoText-69" d="M 1645 0 
L 205 0 
L 205 179 
Q 422 179 515 220 
Q 608 262 630 364 
Q 653 467 653 646 
L 653 2432 
Q 653 2637 582 2685 
Q 512 2733 371 2733 
Q 307 2733 259 2726 
Q 211 2720 211 2720 
L 211 2906 
L 1018 3085 
L 1184 3085 
L 1184 646 
Q 1184 461 1209 358 
Q 1235 256 1334 217 
Q 1434 179 1645 179 
L 1645 0 
z
M 928 3584 
Q 768 3584 665 3693 
Q 563 3802 563 3949 
Q 563 4096 662 4201 
Q 762 4307 928 4307 
Q 1094 4307 1193 4201 
Q 1293 4096 1293 3949 
Q 1293 3802 1193 3693 
Q 1094 3584 928 3584 
z
" transform="scale(0.015625)"/>
     </defs>
     <use xlink:href="#STIXTwoText-62"/>
     <use xlink:href="#STIXTwoText-65" transform="translate(52.199997 0)"/>
     <use xlink:href="#STIXTwoText-73" transform="translate(98.599991 0)"/>
     <use xlink:href="#STIXTwoText-74" transform="translate(138.099976 0)"/>
     <use xlink:href="#STIXTwoText-20" transform="translate(169.59996 0)"/>
     <use xlink:href="#STIXTwoText-63" transform="translate(193.099945 0)"/>
     <use xlink:href="#STIXTwoText-6c" transform="translate(237.699936 0)"/>
     <use xlink:href="#STIXTwoText-61" transform="translate(265.999924 0)"/>
     <use xlink:href="#STIXTwoText-73" transform="translate(313.999908 0)"/>
     <use xlink:href="#STIXTwoText-73" transform="translate(353.499893 0)"/>
     <use xlink:href="#STIXTwoText-69" transform="translate(392.999878 0)"/>
     <use xlink:href="#STIXTwoText-63" transform="translate(421.499863 0)"/>
     <use xlink:href="#STIXTwoText-61" transform="translate(466.099854 0)"/>
     <use xlink:href="#STIXTwoText-6c" transform="translate(514.099838 0)"/>
    </g>
    <!-- (joint-FTC / FNPAG) -->
    <g style="fill: #c44e52" transform="translate(206.610733 26.284538) scale(0.075 -0.075)">
     <defs>
      <path id="STIXTwoText-6a" d="M 70 -1504 
Q -243 -1504 -425 -1379 
Q -608 -1254 -608 -1043 
Q -608 -922 -531 -848 
Q -454 -774 -326 -774 
Q -211 -774 -137 -841 
Q -64 -909 -6 -998 
Q 51 -1088 121 -1155 
Q 192 -1222 301 -1222 
Q 538 -1222 589 -969 
Q 640 -717 640 -205 
L 640 2387 
Q 640 2598 585 2665 
Q 531 2733 358 2733 
Q 282 2733 224 2723 
Q 166 2714 166 2714 
L 166 2906 
L 998 3085 
L 1171 3085 
L 1171 -13 
Q 1171 -518 1052 -848 
Q 934 -1178 691 -1341 
Q 448 -1504 70 -1504 
z
M 890 3584 
Q 730 3584 624 3693 
Q 518 3802 518 3949 
Q 518 4096 617 4201 
Q 717 4307 890 4307 
Q 1056 4307 1161 4201 
Q 1267 4096 1267 3949 
Q 1267 3802 1161 3693 
Q 1056 3584 890 3584 
z
" transform="scale(0.015625)"/>
      <path id="STIXTwoText-6f" d="M 1651 -64 
Q 979 -64 598 355 
Q 218 774 218 1549 
Q 218 2016 397 2365 
Q 576 2714 899 2909 
Q 1222 3104 1651 3104 
Q 2310 3104 2691 2694 
Q 3072 2285 3072 1574 
Q 3072 1037 2889 672 
Q 2707 307 2387 121 
Q 2067 -64 1651 -64 
z
M 1677 192 
Q 1939 192 2118 313 
Q 2298 435 2390 729 
Q 2483 1024 2483 1542 
Q 2483 2131 2268 2496 
Q 2054 2861 1626 2861 
Q 1261 2861 1037 2553 
Q 813 2246 813 1632 
Q 813 870 1040 528 
Q 1267 186 1677 192 
z
" transform="scale(0.015625)"/>
      <path id="STIXTwoText-46" d="M 2106 0 
L 230 0 
L 230 192 
Q 493 192 624 230 
Q 755 269 803 387 
Q 851 506 851 742 
L 851 3482 
Q 851 3706 793 3818 
Q 736 3930 598 3971 
Q 461 4013 230 4013 
L 230 4205 
L 3635 4205 
L 3674 3155 
L 3469 3155 
Q 3424 3386 3376 3533 
Q 3328 3680 3232 3763 
Q 3136 3846 2953 3881 
Q 2771 3917 2458 3917 
L 1440 3917 
L 1440 2298 
L 2195 2298 
Q 2470 2298 2617 2349 
Q 2765 2400 2819 2537 
Q 2874 2675 2874 2931 
L 3091 2931 
L 3091 1446 
L 2874 1446 
Q 2874 1709 2819 1837 
Q 2765 1965 2617 2006 
Q 2470 2048 2195 2048 
L 1440 2048 
L 1440 704 
Q 1440 486 1501 377 
Q 1562 269 1709 230 
Q 1856 192 2106 192 
L 2106 0 
z
" transform="scale(0.015625)"/>
      <path id="STIXTwoText-4e" d="M 3994 -51 
L 3782 -51 
L 1133 3373 
L 954 3373 
L 838 3622 
Q 717 3789 624 3872 
Q 531 3955 432 3984 
Q 333 4013 186 4013 
L 186 4205 
L 1274 4205 
L 3642 1114 
L 3674 1114 
L 3674 3187 
Q 3674 3488 3635 3667 
Q 3597 3846 3469 3929 
Q 3341 4013 3066 4013 
L 3066 4205 
L 4576 4205 
L 4576 4013 
Q 4333 4013 4205 3926 
Q 4077 3840 4035 3651 
Q 3994 3462 3994 3155 
L 3994 -51 
z
M 1683 0 
L 186 0 
L 186 192 
Q 442 192 570 246 
Q 698 301 742 467 
Q 787 634 787 954 
L 787 3821 
L 1101 3821 
L 1101 954 
Q 1101 634 1145 470 
Q 1190 307 1318 249 
Q 1446 192 1683 192 
L 1683 0 
z
" transform="scale(0.015625)"/>
      <path id="STIXTwoText-50" d="M 2086 0 
L 282 0 
L 282 192 
Q 531 192 652 237 
Q 774 282 812 413 
Q 851 544 851 813 
L 851 3565 
Q 851 3846 732 3929 
Q 614 4013 307 4013 
L 307 4205 
L 1901 4205 
Q 2208 4205 2493 4157 
Q 2778 4109 2998 3993 
Q 3219 3878 3350 3670 
Q 3482 3462 3482 3142 
Q 3482 2771 3341 2518 
Q 3200 2266 2960 2112 
Q 2720 1958 2419 1894 
Q 2118 1830 1805 1830 
Q 1709 1830 1600 1843 
Q 1491 1856 1440 1882 
L 1440 787 
Q 1440 525 1494 397 
Q 1549 269 1689 230 
Q 1830 192 2086 192 
L 2086 0 
z
M 1786 2093 
Q 2131 2093 2368 2179 
Q 2605 2266 2726 2474 
Q 2848 2682 2848 3053 
Q 2848 3488 2595 3721 
Q 2342 3955 1824 3955 
Q 1728 3955 1635 3948 
Q 1542 3942 1440 3930 
L 1440 2118 
Q 1491 2112 1590 2102 
Q 1690 2093 1786 2093 
z
" transform="scale(0.015625)"/>
      <path id="STIXTwoText-41" d="M 1363 0 
L 19 0 
L 19 192 
Q 198 192 307 249 
Q 416 307 518 483 
Q 621 659 774 1024 
L 2131 4237 
L 2394 4237 
L 3910 762 
Q 4051 448 4182 320 
Q 4314 192 4570 192 
L 4570 0 
L 2848 0 
L 2848 192 
Q 2944 192 3046 205 
Q 3149 218 3219 269 
Q 3290 320 3290 429 
Q 3290 499 3267 592 
Q 3245 685 3181 826 
L 2906 1466 
L 2861 1594 
L 2131 3450 
L 2112 3450 
L 1363 1594 
L 1318 1466 
L 1005 723 
Q 979 646 956 572 
Q 934 499 934 410 
Q 934 275 1036 233 
Q 1139 192 1363 192 
L 1363 0 
z
M 3002 1402 
L 1222 1402 
L 1318 1658 
L 2906 1658 
L 3002 1402 
z
" transform="scale(0.015625)"/>
      <path id="STIXTwoText-47" d="M 2368 -70 
Q 1350 -70 835 496 
Q 320 1062 320 2086 
Q 320 2797 592 3286 
Q 864 3776 1334 4029 
Q 1805 4282 2406 4282 
Q 2758 4282 2966 4224 
Q 3174 4166 3292 4108 
Q 3411 4051 3488 4051 
Q 3571 4051 3612 4115 
Q 3654 4179 3718 4282 
L 3904 4282 
L 3904 2816 
L 3686 2816 
Q 3578 3456 3251 3731 
Q 2925 4006 2413 4006 
Q 1734 4006 1360 3510 
Q 986 3014 986 2163 
Q 986 1184 1379 701 
Q 1773 218 2458 218 
Q 2758 218 2966 307 
Q 3174 397 3366 538 
L 3366 1229 
Q 3366 1459 3328 1577 
Q 3290 1696 3168 1737 
Q 3046 1779 2803 1779 
L 2803 1984 
L 4384 1984 
L 4384 1779 
Q 4115 1779 4032 1686 
Q 3949 1594 3949 1293 
L 3949 365 
Q 3603 166 3251 48 
Q 2899 -70 2368 -70 
z
" transform="scale(0.015625)"/>
     </defs>
     <use xlink:href="#STIXTwoText-28"/>
     <use xlink:href="#STIXTwoText-6a" transform="translate(34.299988 0)"/>
     <use xlink:href="#STIXTwoText-6f" transform="translate(60.599976 0)"/>
     <use xlink:href="#STIXTwoText-69" transform="translate(111.999969 0)"/>
     <use xlink:href="#STIXTwoText-6e" transform="translate(140.499954 0)"/>
     <use xlink:href="#STIXTwoText-74" transform="translate(198.099945 0)"/>
     <use xlink:href="#STIXTwoText-2d" transform="translate(229.59993 0)"/>
     <use xlink:href="#STIXTwoText-46" transform="translate(261.099915 0)"/>
     <use xlink:href="#STIXTwoText-54" transform="translate(319.899902 0)"/>
     <use xlink:href="#STIXTwoText-43" transform="translate(380.19989 0)"/>
     <use xlink:href="#STIXTwoText-20" transform="translate(447.199875 0)"/>
     <use xlink:href="#STIXTwoText-2f" transform="translate(470.69986 0)"/>
     <use xlink:href="#STIXTwoText-20" transform="translate(509.399857 0)"/>
     <use xlink:href="#STIXTwoText-46" transform="translate(532.899841 0)"/>
     <use xlink:href="#STIXTwoText-4e" transform="translate(591.699829 0)"/>
     <use xlink:href="#STIXTwoText-50" transform="translate(665.899811 0)"/>
     <use xlink:href="#STIXTwoText-41" transform="translate(722.799805 0)"/>
     <use xlink:href="#STIXTwoText-47" transform="translate(794.599792 0)"/>
     <use xlink:href="#STIXTwoText-29" transform="translate(866.599777 0)"/>
    </g>
   </g>
   <g id="PathCollection_1">
    <defs>
     <path id="m3d345e81d2" d="M 0 2.915476 
C 0.773193 2.915476 1.514823 2.608283 2.061553 2.061553 
C 2.608283 1.514823 2.915476 0.773193 2.915476 0 
C 2.915476 -0.773193 2.608283 -1.514823 2.061553 -2.061553 
C 1.514823 -2.608283 0.773193 -2.915476 0 -2.915476 
C -0.773193 -2.915476 -1.514823 -2.608283 -2.061553 -2.061553 
C -2.608283 -1.514823 -2.915476 -0.773193 -2.915476 0 
C -2.915476 0.773193 -2.608283 1.514823 -2.061553 2.061553 
C -1.514823 2.608283 -0.773193 2.915476 0 2.915476 
z
" style="stroke: #1f6f3f; stroke-opacity: 0.85"/>
    </defs>
    <g clip-path="url(#p431c8ca6cc)">
     <use xlink:href="#m3d345e81d2" x="91.319036" y="221.434334" style="fill: #1f6f3f; fill-opacity: 0.85; stroke: #1f6f3f; stroke-opacity: 0.85"/>
     <use xlink:href="#m3d345e81d2" x="91.319036" y="184.27695" style="fill: #1f6f3f; fill-opacity: 0.85; stroke: #1f6f3f; stroke-opacity: 0.85"/>
     <use xlink:href="#m3d345e81d2" x="91.319036" y="225.656764" style="fill: #1f6f3f; fill-opacity: 0.85; stroke: #1f6f3f; stroke-opacity: 0.85"/>
    </g>
   </g>
   <g id="text_11">
    <!-- 124.5 -->
    <g style="fill: #1f6f3f" transform="translate(110.724428 212.399766) scale(0.08 -0.08)">
     <defs>
      <path id="STIXTwoText-2e" d="M 774 -51 
Q 582 -51 489 57 
Q 397 166 397 326 
Q 397 493 499 611 
Q 602 730 781 730 
Q 966 730 1068 608 
Q 1171 486 1171 320 
Q 1171 173 1068 61 
Q 966 -51 774 -51 
z
" transform="scale(0.015625)"/>
     </defs>
     <use xlink:href="#STIXTwoText-31"/>
     <use xlink:href="#STIXTwoText-32" transform="translate(49.499985 0)"/>
     <use xlink:href="#STIXTwoText-34" transform="translate(98.999969 0)"/>
     <use xlink:href="#STIXTwoText-2e" transform="translate(148.499954 0)"/>
     <use xlink:href="#STIXTwoText-35" transform="translate(172.999939 0)"/>
    </g>
   </g>
   <g id="PathCollection_2">
    <defs>
     <path id="m19352491f1" d="M 0 2.915476 
C 0.773193 2.915476 1.514823 2.608283 2.061553 2.061553 
C 2.608283 1.514823 2.915476 0.773193 2.915476 0 
C 2.915476 -0.773193 2.608283 -1.514823 2.061553 -2.061553 
C 1.514823 -2.608283 0.773193 -2.915476 0 -2.915476 
C -0.773193 -2.915476 -1.514823 -2.608283 -2.061553 -2.061553 
C -2.608283 -1.514823 -2.915476 -0.773193 -2.915476 0 
C -2.915476 0.773193 -2.608283 1.514823 -2.061553 2.061553 
C -1.514823 2.608283 -0.773193 2.915476 0 2.915476 
z
" style="stroke: #6a51a3; stroke-opacity: 0.85"/>
    </defs>
    <g clip-path="url(#p431c8ca6cc)">
     <use xlink:href="#m19352491f1" x="165.955156" y="215.878505" style="fill: #6a51a3; fill-opacity: 0.85; stroke: #6a51a3; stroke-opacity: 0.85"/>
     <use xlink:href="#m19352491f1" x="165.955156" y="167.164997" style="fill: #6a51a3; fill-opacity: 0.85; stroke: #6a51a3; stroke-opacity: 0.85"/>
     <use xlink:href="#m19352491f1" x="165.955156" y="185.477009" style="fill: #6a51a3; fill-opacity: 0.85; stroke: #6a51a3; stroke-opacity: 0.85"/>
    </g>
   </g>
   <g id="text_12">
    <!-- 129.2 -->
    <g style="fill: #6a51a3" transform="translate(185.360547 191.450587) scale(0.08 -0.08)">
     <use xlink:href="#STIXTwoText-31"/>
     <use xlink:href="#STIXTwoText-32" transform="translate(49.499985 0)"/>
     <use xlink:href="#STIXTwoText-39" transform="translate(98.999969 0)"/>
     <use xlink:href="#STIXTwoText-2e" transform="translate(148.499954 0)"/>
     <use xlink:href="#STIXTwoText-32" transform="translate(172.999939 0)"/>
    </g>
   </g>
   <g id="PathCollection_3">
    <defs>
     <path id="md1a2f94826" d="M 0 2.915476 
C 0.773193 2.915476 1.514823 2.608283 2.061553 2.061553 
C 2.608283 1.514823 2.915476 0.773193 2.915476 0 
C 2.915476 -0.773193 2.608283 -1.514823 2.061553 -2.061553 
C 1.514823 -2.608283 0.773193 -2.915476 0 -2.915476 
C -0.773193 -2.915476 -1.514823 -2.608283 -2.061553 -2.061553 
C -2.608283 -1.514823 -2.915476 -0.773193 -2.915476 0 
C -2.915476 0.773193 -2.608283 1.514823 -2.061553 2.061553 
C -1.514823 2.608283 -0.773193 2.915476 0 2.915476 
z
" style="stroke: #4878cf; stroke-opacity: 0.85"/>
    </defs>
    <g clip-path="url(#p431c8ca6cc)">
     <use xlink:href="#md1a2f94826" x="240.591276" y="194.232996" style="fill: #4878cf; fill-opacity: 0.85; stroke: #4878cf; stroke-opacity: 0.85"/>
     <use xlink:href="#md1a2f94826" x="240.591276" y="142.097096" style="fill: #4878cf; fill-opacity: 0.85; stroke: #4878cf; stroke-opacity: 0.85"/>
     <use xlink:href="#md1a2f94826" x="240.591276" y="98.672737" style="fill: #4878cf; fill-opacity: 0.85; stroke: #4878cf; stroke-opacity: 0.85"/>
    </g>
   </g>
   <g id="text_13">
    <!-- 139.2 -->
    <g style="fill: #4878cf" transform="translate(259.996667 146.944693) scale(0.08 -0.08)">
     <use xlink:href="#STIXTwoText-31"/>
     <use xlink:href="#STIXTwoText-33" transform="translate(49.499985 0)"/>
     <use xlink:href="#STIXTwoText-39" transform="translate(98.999969 0)"/>
     <use xlink:href="#STIXTwoText-2e" transform="translate(148.499954 0)"/>
     <use xlink:href="#STIXTwoText-32" transform="translate(172.999939 0)"/>
    </g>
   </g>
   <g id="text_14">
    <!-- Sizing tail (3-seed $\sigma_{run}$, far-tail n=10000) -->
    <g style="fill: #262626" transform="translate(42.118906 14.5) scale(0.1 -0.1)">
     <defs>
      <path id="STIXTwoText-7a" d="M 2656 0 
L 198 0 
L 198 186 
L 1997 2739 
L 1997 2758 
L 1133 2758 
Q 781 2758 662 2582 
Q 544 2406 499 2086 
L 301 2086 
L 333 3027 
L 2694 3027 
L 2694 2842 
L 896 282 
L 896 262 
L 1696 262 
Q 1971 262 2124 329 
Q 2278 397 2361 563 
Q 2445 730 2509 1024 
L 2720 1024 
L 2656 0 
z
" transform="scale(0.015625)"/>
      <path id="STIXTwoText-67" d="M 1222 -1504 
Q 806 -1504 566 -1401 
Q 326 -1299 230 -1136 
Q 134 -973 134 -800 
Q 134 -640 265 -464 
Q 397 -288 653 -38 
L 653 32 
L 845 -6 
Q 723 -211 678 -342 
Q 634 -474 634 -582 
Q 634 -858 870 -998 
Q 1107 -1139 1594 -1139 
Q 1971 -1139 2204 -1043 
Q 2438 -947 2544 -806 
Q 2650 -666 2650 -531 
Q 2650 -358 2538 -265 
Q 2426 -173 2253 -134 
Q 2080 -96 1888 -86 
Q 1696 -77 1536 -77 
Q 1248 -70 1101 -70 
Q 954 -70 890 -67 
Q 826 -64 774 -64 
L 710 -32 
Q 614 0 518 70 
Q 422 141 358 240 
Q 294 339 294 448 
Q 294 563 361 688 
Q 429 813 550 937 
Q 672 1062 819 1178 
L 819 1235 
L 986 1114 
Q 954 1082 909 998 
Q 864 915 832 822 
Q 800 730 800 666 
Q 800 570 867 515 
Q 934 461 1097 435 
Q 1261 410 1555 410 
Q 1958 410 2281 371 
Q 2605 333 2790 173 
Q 2976 13 2976 -352 
Q 2976 -672 2819 -893 
Q 2662 -1114 2403 -1248 
Q 2144 -1382 1833 -1443 
Q 1523 -1504 1222 -1504 
z
M 1517 998 
Q 1350 998 1206 1030 
Q 1062 1062 928 1107 
L 858 1171 
Q 691 1261 572 1382 
Q 454 1504 390 1673 
Q 326 1843 326 2061 
Q 326 2381 473 2614 
Q 621 2848 883 2976 
Q 1146 3104 1485 3104 
Q 1677 3104 1846 3069 
Q 2016 3034 2163 2963 
Q 2310 2893 2419 2797 
L 2419 2630 
Q 2490 2534 2570 2374 
Q 2650 2214 2650 1971 
Q 2650 1677 2506 1456 
Q 2362 1235 2109 1116 
Q 1856 998 1517 998 
z
M 1523 1222 
Q 1766 1222 1923 1388 
Q 2080 1555 2080 2010 
Q 2080 2400 1913 2637 
Q 1747 2874 1440 2874 
Q 1190 2874 1040 2682 
Q 890 2490 890 2086 
Q 890 1677 1050 1449 
Q 1210 1222 1523 1222 
z
M 3021 2989 
L 3021 2643 
L 2330 2662 
L 2106 2938 
L 3021 2989 
z
" transform="scale(0.015625)"/>
      <path id="STIXTwoText-64" d="M 1306 -51 
Q 947 -51 700 141 
Q 454 333 332 662 
Q 211 992 211 1402 
Q 211 1933 409 2313 
Q 608 2694 944 2899 
Q 1280 3104 1683 3104 
Q 1837 3104 1987 3065 
Q 2138 3027 2278 2950 
L 2304 2950 
L 2304 3789 
Q 2304 4000 2256 4064 
Q 2208 4128 2022 4128 
Q 1978 4128 1917 4121 
Q 1856 4115 1856 4115 
L 1856 4294 
L 2662 4518 
L 2835 4518 
L 2835 685 
Q 2835 435 2905 361 
Q 2976 288 3155 288 
L 3290 288 
L 3290 115 
L 2470 -32 
L 2323 -32 
L 2323 410 
L 2298 410 
Q 2118 250 1872 99 
Q 1626 -51 1306 -51 
z
M 1606 410 
Q 1830 410 1984 470 
Q 2138 531 2304 646 
L 2304 2336 
Q 2266 2534 2118 2691 
Q 1971 2848 1670 2848 
Q 1267 2848 1017 2553 
Q 768 2259 768 1651 
Q 768 992 982 701 
Q 1197 410 1606 410 
z
" transform="scale(0.015625)"/>
      <path id="STIXGeneral-Italic-3c3" d="M 3398 2739 
L 3283 2266 
L 2195 2266 
Q 2291 2112 2457 1981 
Q 2624 1850 2717 1725 
Q 2810 1600 2810 1389 
Q 2810 851 2288 390 
Q 1766 -70 1107 -70 
Q 659 -70 416 170 
Q 173 410 173 832 
Q 173 1274 409 1706 
Q 646 2138 1113 2438 
Q 1581 2739 2157 2739 
L 3398 2739 
z
M 2272 1414 
Q 2272 1709 2166 1939 
Q 2061 2170 1901 2266 
Q 1530 2266 1120 1770 
Q 710 1274 710 640 
Q 710 358 844 211 
Q 979 64 1210 64 
Q 1638 64 1955 525 
Q 2272 986 2272 1414 
z
" transform="scale(0.015625)"/>
      <path id="STIXGeneral-Italic-72" d="M 1126 1427 
L 1229 1651 
Q 1446 2131 1830 2534 
Q 2106 2822 2336 2822 
Q 2470 2822 2553 2732 
Q 2637 2643 2637 2496 
Q 2637 2349 2557 2249 
Q 2477 2150 2336 2150 
Q 2214 2150 2112 2317 
Q 2061 2406 2010 2406 
Q 1837 2406 1485 1805 
Q 1267 1434 1136 1104 
Q 1005 774 774 0 
L 288 0 
L 806 1869 
Q 909 2246 909 2394 
Q 909 2560 666 2560 
Q 614 2560 467 2541 
L 467 2650 
L 1459 2822 
L 1478 2810 
L 1126 1427 
z
" transform="scale(0.015625)"/>
      <path id="STIXGeneral-Italic-75" d="M 2950 762 
L 3040 704 
Q 2733 237 2560 89 
Q 2387 -58 2157 -58 
Q 1850 -58 1850 250 
Q 1850 538 2138 1510 
Q 1568 576 1257 253 
Q 947 -70 608 -70 
Q 269 -70 269 269 
Q 269 384 442 1088 
L 666 1978 
Q 755 2349 755 2406 
Q 755 2483 684 2521 
Q 614 2560 365 2560 
L 365 2650 
Q 806 2701 1325 2822 
L 1350 2803 
L 781 531 
Q 762 474 762 429 
Q 762 269 890 269 
Q 1178 269 1798 1210 
Q 2010 1530 2128 1795 
Q 2246 2061 2502 2765 
L 2976 2765 
L 2470 851 
Q 2349 390 2349 352 
Q 2349 243 2419 243 
Q 2496 243 2605 345 
Q 2714 448 2950 762 
z
" transform="scale(0.015625)"/>
      <path id="STIXGeneral-Italic-6e" d="M 2944 749 
L 3034 666 
Q 2707 218 2534 80 
Q 2362 -58 2138 -58 
Q 2010 -58 1923 28 
Q 1837 115 1837 288 
Q 1837 390 1939 768 
L 2221 1805 
Q 2310 2150 2310 2310 
Q 2310 2496 2157 2496 
Q 1971 2496 1750 2275 
Q 1530 2054 1210 1587 
Q 998 1274 899 1024 
Q 800 774 570 0 
L 90 0 
L 704 2240 
Q 717 2304 717 2349 
Q 717 2445 630 2480 
Q 544 2515 301 2522 
L 301 2624 
Q 550 2675 857 2729 
Q 1165 2784 1338 2822 
L 1363 2810 
L 934 1414 
Q 1408 2170 1753 2496 
Q 2099 2822 2413 2822 
Q 2611 2822 2720 2716 
Q 2829 2611 2829 2432 
Q 2829 2272 2765 2048 
L 2406 749 
Q 2317 429 2317 358 
Q 2317 243 2419 243 
Q 2541 243 2810 582 
Q 2854 634 2944 749 
z
" transform="scale(0.015625)"/>
      <path id="STIXTwoText-2c" d="M 448 -845 
L 371 -685 
Q 493 -634 614 -554 
Q 736 -474 819 -320 
Q 902 -166 902 90 
Q 800 51 704 51 
Q 518 51 435 153 
Q 352 256 352 397 
Q 352 550 454 662 
Q 557 774 749 774 
Q 909 774 1017 707 
Q 1126 640 1184 515 
Q 1242 390 1242 211 
Q 1242 -58 1155 -243 
Q 1069 -429 941 -544 
Q 813 -659 678 -729 
Q 544 -800 448 -845 
z
" transform="scale(0.015625)"/>
      <path id="STIXTwoText-66" d="M 1837 0 
L 115 0 
L 115 186 
Q 352 186 464 227 
Q 576 269 614 390 
Q 653 512 653 762 
L 653 2797 
Q 653 3162 669 3395 
Q 685 3629 729 3789 
Q 774 3949 858 4096 
Q 986 4320 1181 4441 
Q 1376 4563 1709 4563 
Q 1920 4563 2080 4512 
Q 2240 4461 2333 4361 
Q 2426 4262 2426 4115 
Q 2426 3974 2349 3907 
Q 2272 3840 2163 3840 
Q 2042 3840 1965 3920 
Q 1888 4000 1818 4090 
Q 1754 4179 1680 4252 
Q 1606 4326 1491 4326 
Q 1312 4326 1248 4163 
Q 1184 4000 1184 3597 
L 1184 762 
Q 1184 512 1235 390 
Q 1286 269 1427 227 
Q 1568 186 1837 186 
L 1837 0 
z
M 1965 2726 
L 166 2726 
L 166 2995 
L 1965 2995 
L 1965 2726 
z
" transform="scale(0.015625)"/>
      <path id="STIXTwoText-72" d="M 1786 0 
L 186 0 
L 186 186 
Q 397 186 496 221 
Q 595 256 624 349 
Q 653 442 653 621 
L 653 2381 
Q 653 2554 624 2640 
Q 595 2726 422 2726 
Q 326 2726 275 2720 
Q 224 2714 224 2714 
L 224 2893 
L 1018 3085 
L 1171 3085 
L 1171 2426 
L 1190 2426 
Q 1357 2662 1485 2816 
Q 1613 2970 1737 3046 
Q 1862 3123 2016 3123 
Q 2202 3123 2294 3027 
Q 2387 2931 2387 2765 
Q 2387 2586 2300 2502 
Q 2214 2419 2106 2419 
Q 2003 2419 1923 2473 
Q 1843 2528 1785 2582 
Q 1728 2637 1690 2637 
Q 1581 2637 1440 2470 
Q 1299 2304 1184 2112 
L 1184 653 
Q 1184 454 1235 352 
Q 1286 250 1417 218 
Q 1549 186 1786 186 
L 1786 0 
z
" transform="scale(0.015625)"/>
      <path id="STIXTwoText-3d" d="M 4211 2189 
L 397 2189 
L 397 2624 
L 4211 2624 
L 4211 2189 
z
M 4211 672 
L 397 672 
L 397 1101 
L 4211 1101 
L 4211 672 
z
" transform="scale(0.015625)"/>
     </defs>
     <use xlink:href="#STIXTwoText-53"/>
     <use xlink:href="#STIXTwoText-69" transform="translate(50.399994 0)"/>
     <use xlink:href="#STIXTwoText-7a" transform="translate(78.899979 0)"/>
     <use xlink:href="#STIXTwoText-69" transform="translate(124.699966 0)"/>
     <use xlink:href="#STIXTwoText-6e" transform="translate(153.199951 0)"/>
     <use xlink:href="#STIXTwoText-67" transform="translate(210.799942 0)"/>
     <use xlink:href="#STIXTwoText-20" transform="translate(259.199936 0)"/>
     <use xlink:href="#STIXTwoText-74" transform="translate(282.699921 0)"/>
     <use xlink:href="#STIXTwoText-61" transform="translate(314.199905 0)"/>
     <use xlink:href="#STIXTwoText-69" transform="translate(362.19989 0)"/>
     <use xlink:href="#STIXTwoText-6c" transform="translate(390.699875 0)"/>
     <use xlink:href="#STIXTwoText-20" transform="translate(418.999863 0)"/>
     <use xlink:href="#STIXTwoText-28" transform="translate(442.499847 0)"/>
     <use xlink:href="#STIXTwoText-33" transform="translate(476.799835 0)"/>
     <use xlink:href="#STIXTwoText-2d" transform="translate(526.29982 0)"/>
     <use xlink:href="#STIXTwoText-73" transform="translate(557.799805 0)"/>
     <use xlink:href="#STIXTwoText-65" transform="translate(597.299789 0)"/>
     <use xlink:href="#STIXTwoText-65" transform="translate(643.699783 0)"/>
     <use xlink:href="#STIXTwoText-64" transform="translate(690.099777 0)"/>
     <use xlink:href="#STIXTwoText-20" transform="translate(743.999771 0)"/>
     <use xlink:href="#STIXGeneral-Italic-3c3" transform="translate(767.499756 0)"/>
     <use xlink:href="#STIXGeneral-Italic-72" transform="translate(817.299744 -13.228125) scale(0.7)"/>
     <use xlink:href="#STIXGeneral-Italic-75" transform="translate(844.529739 -13.228125) scale(0.7)"/>
     <use xlink:href="#STIXGeneral-Italic-6e" transform="translate(879.529729 -13.228125) scale(0.7)"/>
     <use xlink:href="#STIXTwoText-2c" transform="translate(918.939093 0)"/>
     <use xlink:href="#STIXTwoText-20" transform="translate(943.439078 0)"/>
     <use xlink:href="#STIXTwoText-66" transform="translate(966.939062 0)"/>
     <use xlink:href="#STIXTwoText-61" transform="translate(997.639059 0)"/>
     <use xlink:href="#STIXTwoText-72" transform="translate(1045.639044 0)"/>
     <use xlink:href="#STIXTwoText-2d" transform="translate(1083.639029 0)"/>
     <use xlink:href="#STIXTwoText-74" transform="translate(1115.139014 0)"/>
     <use xlink:href="#STIXTwoText-61" transform="translate(1146.638998 0)"/>
     <use xlink:href="#STIXTwoText-69" transform="translate(1194.638983 0)"/>
     <use xlink:href="#STIXTwoText-6c" transform="translate(1223.138968 0)"/>
     <use xlink:href="#STIXTwoText-20" transform="translate(1251.438956 0)"/>
     <use xlink:href="#STIXTwoText-6e" transform="translate(1274.93894 0)"/>
     <use xlink:href="#STIXTwoText-3d" transform="translate(1332.538931 0)"/>
     <use xlink:href="#STIXTwoText-31" transform="translate(1404.538916 0)"/>
     <use xlink:href="#STIXTwoText-30" transform="translate(1454.038901 0)"/>
     <use xlink:href="#STIXTwoText-30" transform="translate(1503.538885 0)"/>
     <use xlink:href="#STIXTwoText-30" transform="translate(1553.03887 0)"/>
     <use xlink:href="#STIXTwoText-30" transform="translate(1602.538855 0)"/>
     <use xlink:href="#STIXTwoText-29" transform="translate(1652.03884 0)"/>
    </g>
   </g>
   <g id="line2d_10">
    <path d="M 74.89909 210.456016 
L 107.738983 210.456016 
" clip-path="url(#p431c8ca6cc)" style="fill: none; stroke: #1f6f3f; stroke-width: 2.4; stroke-linecap: round"/>
   </g>
   <g id="line2d_11">
    <path d="M 149.53521 189.506837 
L 182.375103 189.506837 
" clip-path="url(#p431c8ca6cc)" style="fill: none; stroke: #6a51a3; stroke-width: 2.4; stroke-linecap: round"/>
   </g>
   <g id="line2d_12">
    <path d="M 224.17133 145.000943 
L 257.011222 145.000943 
" clip-path="url(#p431c8ca6cc)" style="fill: none; stroke: #4878cf; stroke-width: 2.4; stroke-linecap: round"/>
   </g>
  </g>
  <g id="axes_2">
   <g id="patch_8">
    <path d="M 337.671406 235.426134 
L 585.343906 235.426134 
L 585.343906 20.5 
L 337.671406 20.5 
z
" style="fill: #f5f5f5"/>
   </g>
   <g id="patch_9">
    <path d="M 337.671406 93.768716 
L 585.343906 93.768716 
L 585.343906 90.654476 
L 337.671406 90.654476 
z
" clip-path="url(#pd59a3f6268)" style="fill: #c44e52; opacity: 0.12; stroke: #c44e52; stroke-linejoin: miter"/>
   </g>
   <g id="matplotlib.axis_3">
    <g id="xtick_4">
     <g id="line2d_13">
      <path d="M 386.871536 235.426134 
L 386.871536 20.5 
" clip-path="url(#pd59a3f6268)" style="fill: none; stroke: #dddddd; stroke-width: 0.6; stroke-linecap: round"/>
     </g>
     <g id="text_15">
      <!-- Mamba-962 -->
      <g style="fill: #262626" transform="translate(366.39447 259.683086) rotate(-12) scale(0.085 -0.085)">
       <use xlink:href="#STIXTwoText-4d"/>
       <use xlink:href="#STIXTwoText-61" transform="translate(89.499985 0)"/>
       <use xlink:href="#STIXTwoText-6d" transform="translate(137.499969 0)"/>
       <use xlink:href="#STIXTwoText-62" transform="translate(222.699951 0)"/>
       <use xlink:href="#STIXTwoText-61" transform="translate(274.899948 0)"/>
       <use xlink:href="#STIXTwoText-2d" transform="translate(322.899933 0)"/>
       <use xlink:href="#STIXTwoText-39" transform="translate(354.399918 0)"/>
       <use xlink:href="#STIXTwoText-36" transform="translate(403.899902 0)"/>
       <use xlink:href="#STIXTwoText-32" transform="translate(453.399887 0)"/>
      </g>
     </g>
    </g>
    <g id="xtick_5">
     <g id="line2d_14">
      <path d="M 461.507656 235.426134 
L 461.507656 20.5 
" clip-path="url(#pd59a3f6268)" style="fill: none; stroke: #dddddd; stroke-width: 0.6; stroke-linecap: round"/>
     </g>
     <g id="text_16">
      <!-- LSTM-1082 -->
      <g style="fill: #262626" transform="translate(441.641817 259.423245) rotate(-12) scale(0.085 -0.085)">
       <use xlink:href="#STIXTwoText-4c"/>
       <use xlink:href="#STIXTwoText-53" transform="translate(58.499985 0)"/>
       <use xlink:href="#STIXTwoText-54" transform="translate(108.899979 0)"/>
       <use xlink:href="#STIXTwoText-4d" transform="translate(169.199966 0)"/>
       <use xlink:href="#STIXTwoText-2d" transform="translate(258.699951 0)"/>
       <use xlink:href="#STIXTwoText-31" transform="translate(290.199936 0)"/>
       <use xlink:href="#STIXTwoText-30" transform="translate(339.699921 0)"/>
       <use xlink:href="#STIXTwoText-38" transform="translate(389.199905 0)"/>
       <use xlink:href="#STIXTwoText-32" transform="translate(438.69989 0)"/>
      </g>
     </g>
    </g>
    <g id="xtick_6">
     <g id="line2d_15">
      <path d="M 536.143776 235.426134 
L 536.143776 20.5 
" clip-path="url(#pd59a3f6268)" style="fill: none; stroke: #dddddd; stroke-width: 0.6; stroke-linecap: round"/>
     </g>
     <g id="text_17">
      <!-- Dense-515 -->
      <g style="fill: #262626" transform="translate(518.160986 258.622736) rotate(-12) scale(0.085 -0.085)">
       <use xlink:href="#STIXTwoText-44"/>
       <use xlink:href="#STIXTwoText-65" transform="translate(72.999985 0)"/>
       <use xlink:href="#STIXTwoText-6e" transform="translate(119.399979 0)"/>
       <use xlink:href="#STIXTwoText-73" transform="translate(176.999969 0)"/>
       <use xlink:href="#STIXTwoText-65" transform="translate(216.499954 0)"/>
       <use xlink:href="#STIXTwoText-2d" transform="translate(262.899948 0)"/>
       <use xlink:href="#STIXTwoText-35" transform="translate(294.399933 0)"/>
       <use xlink:href="#STIXTwoText-31" transform="translate(343.899918 0)"/>
       <use xlink:href="#STIXTwoText-35" transform="translate(393.399902 0)"/>
      </g>
     </g>
    </g>
   </g>
   <g id="matplotlib.axis_4">
    <g id="ytick_6">
     <g id="line2d_16">
      <path d="M 337.671406 230.79526 
L 585.343906 230.79526 
" clip-path="url(#pd59a3f6268)" style="fill: none; stroke: #dddddd; stroke-width: 0.6; stroke-linecap: round"/>
     </g>
     <g id="text_18">
      <!-- 120 -->
      <g style="fill: #262626" transform="translate(315.548906 233.795494) scale(0.085 -0.085)">
       <use xlink:href="#STIXTwoText-31"/>
       <use xlink:href="#STIXTwoText-32" transform="translate(49.499985 0)"/>
       <use xlink:href="#STIXTwoText-30" transform="translate(98.999969 0)"/>
      </g>
     </g>
    </g>
    <g id="ytick_7">
     <g id="line2d_17">
      <path d="M 337.671406 199.652863 
L 585.343906 199.652863 
" clip-path="url(#pd59a3f6268)" style="fill: none; stroke: #dddddd; stroke-width: 0.6; stroke-linecap: round"/>
     </g>
     <g id="text_19">
      <!-- 130 -->
      <g style="fill: #262626" transform="translate(315.548906 202.653098) scale(0.085 -0.085)">
       <use xlink:href="#STIXTwoText-31"/>
       <use xlink:href="#STIXTwoText-33" transform="translate(49.499985 0)"/>
       <use xlink:href="#STIXTwoText-30" transform="translate(98.999969 0)"/>
      </g>
     </g>
    </g>
    <g id="ytick_8">
     <g id="line2d_18">
      <path d="M 337.671406 168.510467 
L 585.343906 168.510467 
" clip-path="url(#pd59a3f6268)" style="fill: none; stroke: #dddddd; stroke-width: 0.6; stroke-linecap: round"/>
     </g>
     <g id="text_20">
      <!-- 140 -->
      <g style="fill: #262626" transform="translate(315.548906 171.510702) scale(0.085 -0.085)">
       <use xlink:href="#STIXTwoText-31"/>
       <use xlink:href="#STIXTwoText-34" transform="translate(49.499985 0)"/>
       <use xlink:href="#STIXTwoText-30" transform="translate(98.999969 0)"/>
      </g>
     </g>
    </g>
    <g id="ytick_9">
     <g id="line2d_19">
      <path d="M 337.671406 137.368071 
L 585.343906 137.368071 
" clip-path="url(#pd59a3f6268)" style="fill: none; stroke: #dddddd; stroke-width: 0.6; stroke-linecap: round"/>
     </g>
     <g id="text_21">
      <!-- 150 -->
      <g style="fill: #262626" transform="translate(315.548906 140.368305) scale(0.085 -0.085)">
       <use xlink:href="#STIXTwoText-31"/>
       <use xlink:href="#STIXTwoText-35" transform="translate(49.499985 0)"/>
       <use xlink:href="#STIXTwoText-30" transform="translate(98.999969 0)"/>
      </g>
     </g>
    </g>
    <g id="ytick_10">
     <g id="line2d_20">
      <path d="M 337.671406 106.225674 
L 585.343906 106.225674 
" clip-path="url(#pd59a3f6268)" style="fill: none; stroke: #dddddd; stroke-width: 0.6; stroke-linecap: round"/>
     </g>
     <g id="text_22">
      <!-- 160 -->
      <g style="fill: #262626" transform="translate(315.548906 109.225909) scale(0.085 -0.085)">
       <use xlink:href="#STIXTwoText-31"/>
       <use xlink:href="#STIXTwoText-36" transform="translate(49.499985 0)"/>
       <use xlink:href="#STIXTwoText-30" transform="translate(98.999969 0)"/>
      </g>
     </g>
    </g>
    <g id="ytick_11">
     <g id="line2d_21">
      <path d="M 337.671406 75.083278 
L 585.343906 75.083278 
" clip-path="url(#pd59a3f6268)" style="fill: none; stroke: #dddddd; stroke-width: 0.6; stroke-linecap: round"/>
     </g>
     <g id="text_23">
      <!-- 170 -->
      <g style="fill: #262626" transform="translate(315.548906 78.083512) scale(0.085 -0.085)">
       <defs>
        <path id="STIXTwoText-37" d="M 1472 -51 
L 966 -51 
L 2477 3514 
L 1050 3514 
Q 870 3514 774 3482 
Q 678 3450 617 3347 
Q 557 3245 467 3034 
L 269 3053 
L 525 4032 
L 2970 4032 
L 2970 3834 
L 1472 -51 
z
" transform="scale(0.015625)"/>
       </defs>
       <use xlink:href="#STIXTwoText-31"/>
       <use xlink:href="#STIXTwoText-37" transform="translate(49.499985 0)"/>
       <use xlink:href="#STIXTwoText-30" transform="translate(98.999969 0)"/>
      </g>
     </g>
    </g>
    <g id="ytick_12">
     <g id="line2d_22">
      <path d="M 337.671406 43.940882 
L 585.343906 43.940882 
" clip-path="url(#pd59a3f6268)" style="fill: none; stroke: #dddddd; stroke-width: 0.6; stroke-linecap: round"/>
     </g>
     <g id="text_24">
      <!-- 180 -->
      <g style="fill: #262626" transform="translate(315.548906 46.941116) scale(0.085 -0.085)">
       <use xlink:href="#STIXTwoText-31"/>
       <use xlink:href="#STIXTwoText-38" transform="translate(49.499985 0)"/>
       <use xlink:href="#STIXTwoText-30" transform="translate(98.999969 0)"/>
      </g>
     </g>
    </g>
    <g id="text_25">
     <!-- worst case (m/s) -->
     <g style="fill: #262626" transform="translate(309.458906 160.871661) rotate(-90) scale(0.095 -0.095)">
      <defs>
       <path id="STIXTwoText-77" d="M 3450 -38 
L 3142 -38 
L 2432 1914 
L 2342 2093 
L 2240 2374 
Q 2163 2586 2096 2685 
Q 2029 2784 1939 2813 
Q 1850 2842 1709 2842 
L 1709 3027 
L 3046 3027 
L 3046 2842 
Q 2867 2842 2796 2800 
Q 2726 2758 2726 2682 
Q 2726 2624 2742 2557 
Q 2758 2490 2784 2419 
L 3302 1018 
L 3418 646 
L 3456 646 
L 3584 1018 
L 4090 2451 
Q 4096 2477 4112 2537 
Q 4128 2598 4128 2682 
Q 4128 2771 4038 2806 
Q 3949 2842 3770 2842 
L 3770 3027 
L 4877 3027 
L 4877 2842 
Q 4691 2842 4595 2755 
Q 4499 2669 4403 2419 
L 3450 -38 
z
M 1690 -38 
L 1395 -38 
L 435 2374 
Q 352 2573 281 2672 
Q 211 2771 121 2806 
Q 32 2842 -109 2842 
L -109 3027 
L 1267 3027 
L 1267 2842 
Q 1075 2842 1001 2800 
Q 928 2758 928 2682 
Q 928 2618 950 2560 
Q 973 2502 998 2432 
L 1555 1018 
L 1670 646 
L 1715 646 
L 1850 1018 
L 2336 2246 
L 2547 1824 
L 2438 1824 
L 1690 -38 
z
" transform="scale(0.015625)"/>
      </defs>
      <use xlink:href="#STIXTwoText-77"/>
      <use xlink:href="#STIXTwoText-6f" transform="translate(74.899994 0)"/>
      <use xlink:href="#STIXTwoText-72" transform="translate(126.299988 0)"/>
      <use xlink:href="#STIXTwoText-73" transform="translate(164.299973 0)"/>
      <use xlink:href="#STIXTwoText-74" transform="translate(203.799957 0)"/>
      <use xlink:href="#STIXTwoText-20" transform="translate(235.299942 0)"/>
      <use xlink:href="#STIXTwoText-63" transform="translate(258.799927 0)"/>
      <use xlink:href="#STIXTwoText-61" transform="translate(303.399918 0)"/>
      <use xlink:href="#STIXTwoText-73" transform="translate(351.399902 0)"/>
      <use xlink:href="#STIXTwoText-65" transform="translate(390.899887 0)"/>
      <use xlink:href="#STIXTwoText-20" transform="translate(437.299881 0)"/>
      <use xlink:href="#STIXTwoText-28" transform="translate(460.799866 0)"/>
      <use xlink:href="#STIXTwoText-6d" transform="translate(495.099854 0)"/>
      <use xlink:href="#STIXTwoText-2f" transform="translate(580.299835 0)"/>
      <use xlink:href="#STIXTwoText-73" transform="translate(618.999832 0)"/>
      <use xlink:href="#STIXTwoText-29" transform="translate(658.499817 0)"/>
     </g>
    </g>
   </g>
   <g id="line2d_23">
    <path d="M 337.671406 93.768716 
L 585.343906 93.768716 
" clip-path="url(#pd59a3f6268)" style="fill: none; stroke-dasharray: 2.96,1.28; stroke-dashoffset: 0; stroke: #c44e52; stroke-width: 0.8"/>
   </g>
   <g id="patch_10">
    <path d="M 337.671406 235.426134 
L 337.671406 20.5 
" style="fill: none; stroke: #bbbbbb; stroke-width: 0.8; stroke-linejoin: miter; stroke-linecap: square"/>
   </g>
   <g id="patch_11">
    <path d="M 585.343906 235.426134 
L 585.343906 20.5 
" style="fill: none; stroke: #bbbbbb; stroke-width: 0.8; stroke-linejoin: miter; stroke-linecap: square"/>
   </g>
   <g id="patch_12">
    <path d="M 337.671406 235.426134 
L 585.343906 235.426134 
" style="fill: none; stroke: #bbbbbb; stroke-width: 0.8; stroke-linejoin: miter; stroke-linecap: square"/>
   </g>
   <g id="patch_13">
    <path d="M 337.671406 20.5 
L 585.343906 20.5 
" style="fill: none; stroke: #bbbbbb; stroke-width: 0.8; stroke-linejoin: miter; stroke-linecap: square"/>
   </g>
   <g id="text_26">
    <!-- best classical -->
    <g style="fill: #c44e52" transform="translate(529.050733 79.114856) scale(0.075 -0.075)">
     <use xlink:href="#STIXTwoText-62"/>
     <use xlink:href="#STIXTwoText-65" transform="translate(52.199997 0)"/>
     <use xlink:href="#STIXTwoText-73" transform="translate(98.599991 0)"/>
     <use xlink:href="#STIXTwoText-74" transform="translate(138.099976 0)"/>
     <use xlink:href="#STIXTwoText-20" transform="translate(169.59996 0)"/>
     <use xlink:href="#STIXTwoText-63" transform="translate(193.099945 0)"/>
     <use xlink:href="#STIXTwoText-6c" transform="translate(237.699936 0)"/>
     <use xlink:href="#STIXTwoText-61" transform="translate(265.999924 0)"/>
     <use xlink:href="#STIXTwoText-73" transform="translate(313.999908 0)"/>
     <use xlink:href="#STIXTwoText-73" transform="translate(353.499893 0)"/>
     <use xlink:href="#STIXTwoText-69" transform="translate(392.999878 0)"/>
     <use xlink:href="#STIXTwoText-63" transform="translate(421.499863 0)"/>
     <use xlink:href="#STIXTwoText-61" transform="translate(466.099854 0)"/>
     <use xlink:href="#STIXTwoText-6c" transform="translate(514.099838 0)"/>
    </g>
    <!-- (joint-FTC / FNPAG) -->
    <g style="fill: #c44e52" transform="translate(502.163233 87.334856) scale(0.075 -0.075)">
     <use xlink:href="#STIXTwoText-28"/>
     <use xlink:href="#STIXTwoText-6a" transform="translate(34.299988 0)"/>
     <use xlink:href="#STIXTwoText-6f" transform="translate(60.599976 0)"/>
     <use xlink:href="#STIXTwoText-69" transform="translate(111.999969 0)"/>
     <use xlink:href="#STIXTwoText-6e" transform="translate(140.499954 0)"/>
     <use xlink:href="#STIXTwoText-74" transform="translate(198.099945 0)"/>
     <use xlink:href="#STIXTwoText-2d" transform="translate(229.59993 0)"/>
     <use xlink:href="#STIXTwoText-46" transform="translate(261.099915 0)"/>
     <use xlink:href="#STIXTwoText-54" transform="translate(319.899902 0)"/>
     <use xlink:href="#STIXTwoText-43" transform="translate(380.19989 0)"/>
     <use xlink:href="#STIXTwoText-20" transform="translate(447.199875 0)"/>
     <use xlink:href="#STIXTwoText-2f" transform="translate(470.69986 0)"/>
     <use xlink:href="#STIXTwoText-20" transform="translate(509.399857 0)"/>
     <use xlink:href="#STIXTwoText-46" transform="translate(532.899841 0)"/>
     <use xlink:href="#STIXTwoText-4e" transform="translate(591.699829 0)"/>
     <use xlink:href="#STIXTwoText-50" transform="translate(665.899811 0)"/>
     <use xlink:href="#STIXTwoText-41" transform="translate(722.799805 0)"/>
     <use xlink:href="#STIXTwoText-47" transform="translate(794.599792 0)"/>
     <use xlink:href="#STIXTwoText-29" transform="translate(866.599777 0)"/>
    </g>
   </g>
   <g id="PathCollection_4">
    <g clip-path="url(#pd59a3f6268)">
     <use xlink:href="#m3d345e81d2" x="386.871536" y="217.15489" style="fill: #1f6f3f; fill-opacity: 0.85; stroke: #1f6f3f; stroke-opacity: 0.85"/>
     <use xlink:href="#m3d345e81d2" x="386.871536" y="178.16461" style="fill: #1f6f3f; fill-opacity: 0.85; stroke: #1f6f3f; stroke-opacity: 0.85"/>
     <use xlink:href="#m3d345e81d2" x="386.871536" y="225.656764" style="fill: #1f6f3f; fill-opacity: 0.85; stroke: #1f6f3f; stroke-opacity: 0.85"/>
    </g>
   </g>
   <g id="text_27">
    <!-- 127.6 -->
    <g style="fill: #1f6f3f" transform="translate(406.276928 208.935838) scale(0.08 -0.08)">
     <use xlink:href="#STIXTwoText-31"/>
     <use xlink:href="#STIXTwoText-32" transform="translate(49.499985 0)"/>
     <use xlink:href="#STIXTwoText-37" transform="translate(98.999969 0)"/>
     <use xlink:href="#STIXTwoText-2e" transform="translate(148.499954 0)"/>
     <use xlink:href="#STIXTwoText-36" transform="translate(172.999939 0)"/>
    </g>
   </g>
   <g id="PathCollection_5">
    <g clip-path="url(#pd59a3f6268)">
     <use xlink:href="#m19352491f1" x="461.507656" y="212.016395" style="fill: #6a51a3; fill-opacity: 0.85; stroke: #6a51a3; stroke-opacity: 0.85"/>
     <use xlink:href="#m19352491f1" x="461.507656" y="174.240668" style="fill: #6a51a3; fill-opacity: 0.85; stroke: #6a51a3; stroke-opacity: 0.85"/>
     <use xlink:href="#m19352491f1" x="461.507656" y="190.621569" style="fill: #6a51a3; fill-opacity: 0.85; stroke: #6a51a3; stroke-opacity: 0.85"/>
    </g>
   </g>
   <g id="text_28">
    <!-- 132.4 -->
    <g style="fill: #6a51a3" transform="translate(480.913047 194.236627) scale(0.08 -0.08)">
     <use xlink:href="#STIXTwoText-31"/>
     <use xlink:href="#STIXTwoText-33" transform="translate(49.499985 0)"/>
     <use xlink:href="#STIXTwoText-32" transform="translate(98.999969 0)"/>
     <use xlink:href="#STIXTwoText-2e" transform="translate(148.499954 0)"/>
     <use xlink:href="#STIXTwoText-34" transform="translate(172.999939 0)"/>
    </g>
   </g>
   <g id="PathCollection_6">
    <g clip-path="url(#pd59a3f6268)">
     <use xlink:href="#md1a2f94826" x="536.143776" y="147.738489" style="fill: #4878cf; fill-opacity: 0.85; stroke: #4878cf; stroke-opacity: 0.85"/>
     <use xlink:href="#md1a2f94826" x="536.143776" y="149.669317" style="fill: #4878cf; fill-opacity: 0.85; stroke: #4878cf; stroke-opacity: 0.85"/>
     <use xlink:href="#md1a2f94826" x="536.143776" y="30.26937" style="fill: #4878cf; fill-opacity: 0.85; stroke: #4878cf; stroke-opacity: 0.85"/>
    </g>
   </g>
   <g id="text_29">
    <!-- 159.0 -->
    <g style="fill: #4878cf" transform="translate(555.549167 111.169475) scale(0.08 -0.08)">
     <use xlink:href="#STIXTwoText-31"/>
     <use xlink:href="#STIXTwoText-35" transform="translate(49.499985 0)"/>
     <use xlink:href="#STIXTwoText-39" transform="translate(98.999969 0)"/>
     <use xlink:href="#STIXTwoText-2e" transform="translate(148.499954 0)"/>
     <use xlink:href="#STIXTwoText-30" transform="translate(172.999939 0)"/>
    </g>
   </g>
   <g id="line2d_24">
    <path d="M 370.45159 206.992088 
L 403.291483 206.992088 
" clip-path="url(#pd59a3f6268)" style="fill: none; stroke: #1f6f3f; stroke-width: 2.4; stroke-linecap: round"/>
   </g>
   <g id="line2d_25">
    <path d="M 445.08771 192.292877 
L 477.927603 192.292877 
" clip-path="url(#pd59a3f6268)" style="fill: none; stroke: #6a51a3; stroke-width: 2.4; stroke-linecap: round"/>
   </g>
   <g id="line2d_26">
    <path d="M 519.72383 109.225725 
L 552.563722 109.225725 
" clip-path="url(#pd59a3f6268)" style="fill: none; stroke: #4878cf; stroke-width: 2.4; stroke-linecap: round"/>
   </g>
  </g>
 </g>
 <defs>
  <clipPath id="p431c8ca6cc">
   <rect x="42.118906" y="20.5" width="247.6725" height="214.926134"/>
  </clipPath>
  <clipPath id="pd59a3f6268">
   <rect x="337.671406" y="20.5" width="247.6725" height="214.926134"/>
  </clipPath>
 </defs>
</svg>
