<?xml version="1.0" encoding="utf-8" standalone="no"?>
<!DOCTYPE svg PUBLIC "-//W3C//DTD SVG 1.1//EN"
  "http://www.w3.org/Graphics/SVG/1.1/DTD/svg11.dtd">
<svg xmlns:xlink="http://www.w3.org/1999/xlink" width="520.886049pt" height="276.42pt" viewBox="0 0 520.886049 276.42" xmlns="http://www.w3.org/2000/svg" version="1.1">
 <metadata>
  <rdf:RDF xmlns:dc="http://purl.org/dc/elements/1.1/" xmlns:cc="http://creativecommons.org/ns#" xmlns:rdf="http://www.w3.org/1999/02/22-rdf-syntax-ns#">
   <cc:Work>
    <dc:type rdf:resource="http://purl.org/dc/dcmitype/StillImage"/>
    <dc:date>2026-07-12T00:50:02.970056</dc:date>
    <dc:format>image/svg+xml</dc:format>
    <dc:creator>
     <cc:Agent>
      <dc:title>Matplotlib v3.11.0, https://matplotlib.org/</dc:title>
     </cc:Agent>
    </dc:creator>
   </cc:Work>
  </rdf:RDF>
 </metadata>
 <defs>
  <style type="text/css">*{stroke-linejoin: round; stroke-linecap: butt}</style>
 </defs>
 <g id="figure_1">
  <g id="patch_1">
   <path d="M 0 276.42 
L 520.886049 276.42 
L 520.886049 0 
L 0 0 
z
" style="fill: #ffffff"/>
  </g>
  <g id="axes_1">
   <g id="patch_2">
    <path d="M 46.435 237.72 
L 508.688478 237.72 
L 508.688478 20.82 
L 46.435 20.82 
z
" style="fill: #f5f5f5"/>
   </g>
   <g id="matplotlib.axis_1">
    <g id="xtick_1">
     <g id="line2d_1">
      <path d="M 46.435 237.72 
L 46.435 20.82 
" clip-path="url(#pca8ddfe436)" style="fill: none; stroke: #dddddd; stroke-width: 0.6; stroke-linecap: round"/>
     </g>
     <g id="text_1">
      <!-- 100 -->
      <g style="fill: #262626" transform="translate(40.12375 253.697) scale(0.085 -0.085)">
       <defs>
        <path id="STIXTwoText-787" d="M 2726 0 
L 512 0 
L 512 179 
Q 966 179 1152 275 
Q 1338 371 1338 608 
L 1338 3315 
Q 1338 3482 1293 3555 
Q 1248 3629 1126 3629 
Q 1062 3629 947 3616 
Q 832 3603 704 3580 
Q 576 3558 474 3526 
L 474 3738 
L 1715 4090 
L 1901 4090 
L 1901 608 
Q 1901 371 2093 275 
Q 2285 179 2726 179 
L 2726 0 
z
" transform="scale(0.015625)"/>
        <path id="STIXTwoText-786" d="M 1581 -70 
Q 1197 -70 928 99 
Q 659 269 492 563 
Q 326 858 249 1242 
Q 173 1626 173 2048 
Q 173 2656 336 3120 
Q 499 3584 816 3846 
Q 1133 4109 1594 4109 
Q 2010 4109 2323 3862 
Q 2637 3616 2816 3152 
Q 2995 2688 2995 2029 
Q 2995 1619 2915 1241 
Q 2835 864 2665 569 
Q 2496 275 2227 102 
Q 1958 -70 1581 -70 
z
M 1581 160 
Q 1958 160 2166 614 
Q 2374 1069 2374 1990 
Q 2374 2963 2172 3427 
Q 1971 3891 1574 3891 
Q 1197 3891 992 3430 
Q 787 2970 787 2016 
Q 787 1088 992 624 
Q 1197 160 1581 160 
z
" transform="scale(0.015625)"/>
       </defs>
       <use xlink:href="#STIXTwoText-787"/>
       <use xlink:href="#STIXTwoText-786" transform="translate(49.5 0)"/>
       <use xlink:href="#STIXTwoText-786" transform="translate(99 0)"/>
      </g>
     </g>
    </g>
    <g id="xtick_2">
     <g id="line2d_2">
      <path d="M 123.2583 237.72 
L 123.2583 20.82 
" clip-path="url(#pca8ddfe436)" style="fill: none; stroke: #dddddd; stroke-width: 0.6; stroke-linecap: round"/>
     </g>
     <g id="text_2">
      <!-- 150 -->
      <g style="fill: #262626" transform="translate(116.94705 253.697) scale(0.085 -0.085)">
       <defs>
        <path id="STIXTwoText-78b" d="M 1114 -83 
Q 742 -83 560 6 
Q 378 96 378 275 
Q 378 384 445 467 
Q 512 550 634 550 
Q 730 550 822 502 
Q 915 454 1014 393 
Q 1114 333 1235 285 
Q 1357 237 1510 237 
Q 1741 237 1936 326 
Q 2131 416 2249 614 
Q 2368 813 2368 1146 
Q 2368 1504 2227 1721 
Q 2086 1939 1849 2054 
Q 1613 2170 1315 2214 
Q 1018 2259 698 2266 
L 621 2362 
L 1018 4032 
L 2771 4032 
L 2669 3514 
L 1165 3514 
L 992 2784 
Q 1312 2758 1590 2704 
Q 1869 2650 2096 2554 
Q 2323 2458 2489 2301 
Q 2656 2144 2745 1923 
Q 2835 1702 2835 1402 
Q 2835 1030 2710 752 
Q 2586 474 2355 288 
Q 2125 102 1811 9 
Q 1498 -83 1114 -83 
z
" transform="scale(0.015625)"/>
       </defs>
       <use xlink:href="#STIXTwoText-787"/>
       <use xlink:href="#STIXTwoText-78b" transform="translate(49.5 0)"/>
       <use xlink:href="#STIXTwoText-786" transform="translate(99 0)"/>
      </g>
     </g>
    </g>
    <g id="xtick_3">
     <g id="line2d_3">
      <path d="M 200.0816 237.72 
L 200.0816 20.82 
" clip-path="url(#pca8ddfe436)" style="fill: none; stroke: #dddddd; stroke-width: 0.6; stroke-linecap: round"/>
     </g>
     <g id="text_3">
      <!-- 200 -->
      <g style="fill: #262626" transform="translate(193.77035 253.697) scale(0.085 -0.085)">
       <defs>
        <path id="STIXTwoText-788" d="M 2765 0 
L 243 0 
L 243 218 
L 1216 1190 
Q 1536 1517 1747 1782 
Q 1958 2048 2064 2317 
Q 2170 2586 2170 2918 
Q 2170 3277 1955 3491 
Q 1741 3706 1370 3706 
Q 1056 3706 835 3571 
Q 614 3437 435 3078 
L 282 3142 
Q 429 3610 749 3866 
Q 1069 4122 1536 4122 
Q 1901 4122 2176 3984 
Q 2451 3846 2608 3600 
Q 2765 3354 2765 3014 
Q 2765 2733 2646 2473 
Q 2528 2214 2294 1939 
Q 2061 1664 1722 1318 
L 877 518 
L 877 486 
L 1325 506 
L 2214 506 
Q 2470 506 2572 621 
Q 2675 736 2784 1024 
L 2970 1024 
L 2765 0 
z
" transform="scale(0.015625)"/>
       </defs>
       <use xlink:href="#STIXTwoText-788"/>
       <use xlink:href="#STIXTwoText-786" transform="translate(49.5 0)"/>
       <use xlink:href="#STIXTwoText-786" transform="translate(99 0)"/>
      </g>
     </g>
    </g>
    <g id="xtick_4">
     <g id="line2d_4">
      <path d="M 276.9049 237.72 
L 276.9049 20.82 
" clip-path="url(#pca8ddfe436)" style="fill: none; stroke: #dddddd; stroke-width: 0.6; stroke-linecap: round"/>
     </g>
     <g id="text_4">
      <!-- 250 -->
      <g style="fill: #262626" transform="translate(270.59365 253.697) scale(0.085 -0.085)">
       <use xlink:href="#STIXTwoText-788"/>
       <use xlink:href="#STIXTwoText-78b" transform="translate(49.5 0)"/>
       <use xlink:href="#STIXTwoText-786" transform="translate(99 0)"/>
      </g>
     </g>
    </g>
    <g id="xtick_5">
     <g id="line2d_5">
      <path d="M 353.728199 237.72 
L 353.728199 20.82 
" clip-path="url(#pca8ddfe436)" style="fill: none; stroke: #dddddd; stroke-width: 0.6; stroke-linecap: round"/>
     </g>
     <g id="text_5">
      <!-- 300 -->
      <g style="fill: #262626" transform="translate(347.416949 253.697) scale(0.085 -0.085)">
       <defs>
        <path id="STIXTwoText-789" d="M 1094 -83 
Q 806 -83 652 -28 
Q 499 26 438 106 
Q 378 186 378 269 
Q 378 371 442 460 
Q 506 550 627 550 
Q 723 550 828 502 
Q 934 454 1049 393 
Q 1165 333 1283 285 
Q 1402 237 1523 237 
Q 1728 237 1907 310 
Q 2086 384 2201 560 
Q 2317 736 2317 1050 
Q 2317 1338 2157 1549 
Q 1997 1760 1731 1878 
Q 1466 1997 1158 1997 
L 1030 1997 
L 1030 2240 
L 1152 2240 
Q 1370 2240 1574 2349 
Q 1779 2458 1910 2656 
Q 2042 2854 2042 3110 
Q 2042 3392 1866 3549 
Q 1690 3706 1389 3706 
Q 1101 3706 909 3574 
Q 717 3443 550 3187 
L 403 3270 
Q 582 3686 876 3904 
Q 1171 4122 1562 4122 
Q 2054 4122 2323 3875 
Q 2592 3629 2592 3264 
Q 2592 2931 2397 2726 
Q 2202 2522 1901 2330 
L 1901 2310 
Q 2157 2234 2371 2090 
Q 2586 1946 2714 1738 
Q 2842 1530 2842 1242 
Q 2842 806 2598 508 
Q 2355 211 1958 64 
Q 1562 -83 1094 -83 
z
" transform="scale(0.015625)"/>
       </defs>
       <use xlink:href="#STIXTwoText-789"/>
       <use xlink:href="#STIXTwoText-786" transform="translate(49.5 0)"/>
       <use xlink:href="#STIXTwoText-786" transform="translate(99 0)"/>
      </g>
     </g>
    </g>
    <g id="xtick_6">
     <g id="line2d_6">
      <path d="M 430.551499 237.72 
L 430.551499 20.82 
" clip-path="url(#pca8ddfe436)" style="fill: none; stroke: #dddddd; stroke-width: 0.6; stroke-linecap: round"/>
     </g>
     <g id="text_6">
      <!-- 350 -->
      <g style="fill: #262626" transform="translate(424.240249 253.697) scale(0.085 -0.085)">
       <use xlink:href="#STIXTwoText-789"/>
       <use xlink:href="#STIXTwoText-78b" transform="translate(49.5 0)"/>
       <use xlink:href="#STIXTwoText-786" transform="translate(99 0)"/>
      </g>
     </g>
    </g>
    <g id="xtick_7">
     <g id="line2d_7">
      <path d="M 507.374799 237.72 
L 507.374799 20.82 
" clip-path="url(#pca8ddfe436)" style="fill: none; stroke: #dddddd; stroke-width: 0.6; stroke-linecap: round"/>
     </g>
     <g id="text_7">
      <!-- 400 -->
      <g style="fill: #262626" transform="translate(501.063549 253.697) scale(0.085 -0.085)">
       <defs>
        <path id="STIXTwoText-78a" d="M 2426 0 
L 1856 0 
L 1856 1011 
L 83 1011 
L 83 1414 
L 2035 4128 
L 2426 4128 
L 2426 1453 
L 3078 1453 
L 3078 1011 
L 2426 1011 
L 2426 0 
z
M 435 1478 
L 435 1453 
L 1856 1453 
L 1856 3430 
L 1830 3430 
L 435 1478 
z
" transform="scale(0.015625)"/>
       </defs>
       <use xlink:href="#STIXTwoText-78a"/>
       <use xlink:href="#STIXTwoText-786" transform="translate(49.5 0)"/>
       <use xlink:href="#STIXTwoText-786" transform="translate(99 0)"/>
      </g>
     </g>
    </g>
    <g id="text_8">
     <!-- correction $\Delta v$ (m/s) -->
     <g style="fill: #262626" transform="translate(238.231739 266.959) scale(0.095 -0.095)">
      <defs>
       <path id="STIXTwoText-101" d="M 2611 947 
L 2733 858 
Q 2611 602 2454 390 
Q 2298 179 2067 57 
Q 1837 -64 1491 -64 
Q 1094 -64 806 128 
Q 518 320 364 662 
Q 211 1005 211 1446 
Q 211 1952 380 2323 
Q 550 2694 873 2899 
Q 1197 3104 1658 3104 
Q 2112 3104 2371 2905 
Q 2630 2707 2630 2426 
Q 2630 2285 2563 2211 
Q 2496 2138 2362 2138 
Q 2221 2138 2147 2211 
Q 2074 2285 2029 2393 
Q 1984 2502 1936 2611 
Q 1888 2720 1801 2793 
Q 1715 2867 1549 2867 
Q 1158 2867 937 2582 
Q 717 2298 717 1747 
Q 717 1165 957 790 
Q 1197 416 1690 416 
Q 2003 416 2198 544 
Q 2394 672 2611 947 
z
" transform="scale(0.015625)"/>
       <path id="STIXTwoText-10e" d="M 1651 -64 
Q 979 -64 598 355 
Q 218 774 218 1549 
Q 218 2016 397 2365 
Q 576 2714 899 2909 
Q 1222 3104 1651 3104 
Q 2310 3104 2691 2694 
Q 3072 2285 3072 1574 
Q 3072 1037 2889 672 
Q 2707 307 2387 121 
Q 2067 -64 1651 -64 
z
M 1677 192 
Q 1939 192 2118 313 
Q 2298 435 2390 729 
Q 2483 1024 2483 1542 
Q 2483 2131 2268 2496 
Q 2054 2861 1626 2861 
Q 1261 2861 1037 2553 
Q 813 2246 813 1632 
Q 813 870 1040 528 
Q 1267 186 1677 192 
z
" transform="scale(0.015625)"/>
       <path id="STIXTwoText-111" d="M 1786 0 
L 186 0 
L 186 186 
Q 397 186 496 221 
Q 595 256 624 349 
Q 653 442 653 621 
L 653 2381 
Q 653 2554 624 2640 
Q 595 2726 422 2726 
Q 326 2726 275 2720 
Q 224 2714 224 2714 
L 224 2893 
L 1018 3085 
L 1171 3085 
L 1171 2426 
L 1190 2426 
Q 1357 2662 1485 2816 
Q 1613 2970 1737 3046 
Q 1862 3123 2016 3123 
Q 2202 3123 2294 3027 
Q 2387 2931 2387 2765 
Q 2387 2586 2300 2502 
Q 2214 2419 2106 2419 
Q 2003 2419 1923 2473 
Q 1843 2528 1785 2582 
Q 1728 2637 1690 2637 
Q 1581 2637 1440 2470 
Q 1299 2304 1184 2112 
L 1184 653 
Q 1184 454 1235 352 
Q 1286 250 1417 218 
Q 1549 186 1786 186 
L 1786 0 
z
" transform="scale(0.015625)"/>
       <path id="STIXTwoText-103" d="M 1581 -64 
Q 1197 -64 886 118 
Q 576 301 397 656 
Q 218 1011 218 1523 
Q 218 2061 400 2409 
Q 582 2758 889 2931 
Q 1197 3104 1568 3104 
Q 2093 3104 2413 2739 
Q 2733 2374 2758 1702 
L 678 1702 
L 672 1939 
L 2157 1939 
Q 2150 2176 2073 2384 
Q 1997 2592 1849 2720 
Q 1702 2848 1472 2848 
Q 1101 2848 915 2557 
Q 730 2266 730 1734 
Q 730 1293 870 998 
Q 1011 704 1241 560 
Q 1472 416 1734 416 
Q 1997 416 2160 486 
Q 2323 557 2438 669 
Q 2554 781 2656 915 
L 2778 826 
Q 2694 646 2585 483 
Q 2477 320 2339 198 
Q 2202 77 2016 6 
Q 1830 -64 1581 -64 
z
" transform="scale(0.015625)"/>
       <path id="STIXTwoText-113" d="M 1875 576 
L 1997 474 
Q 1875 301 1769 182 
Q 1664 64 1536 0 
Q 1408 -64 1203 -64 
Q 883 -64 736 125 
Q 589 314 589 742 
L 589 2726 
L 237 2726 
L 237 2874 
Q 461 3014 624 3254 
Q 787 3494 960 3904 
L 1120 3904 
L 1120 2995 
L 1843 2995 
L 1843 2726 
L 1120 2726 
L 1120 922 
Q 1120 582 1181 448 
Q 1242 314 1427 314 
Q 1581 314 1667 378 
Q 1754 442 1875 576 
z
" transform="scale(0.015625)"/>
       <path id="STIXTwoText-107" d="M 1645 0 
L 205 0 
L 205 179 
Q 422 179 515 220 
Q 608 262 630 364 
Q 653 467 653 646 
L 653 2432 
Q 653 2637 582 2685 
Q 512 2733 371 2733 
Q 307 2733 259 2726 
Q 211 2720 211 2720 
L 211 2906 
L 1018 3085 
L 1184 3085 
L 1184 646 
Q 1184 461 1209 358 
Q 1235 256 1334 217 
Q 1434 179 1645 179 
L 1645 0 
z
M 928 3584 
Q 768 3584 665 3693 
Q 563 3802 563 3949 
Q 563 4096 662 4201 
Q 762 4307 928 4307 
Q 1094 4307 1193 4201 
Q 1293 4096 1293 3949 
Q 1293 3802 1193 3693 
Q 1094 3584 928 3584 
z
" transform="scale(0.015625)"/>
       <path id="STIXTwoText-10d" d="M 3552 0 
L 2074 0 
L 2074 179 
Q 2304 179 2403 220 
Q 2502 262 2524 364 
Q 2547 467 2547 646 
L 2547 1805 
Q 2547 2189 2460 2381 
Q 2374 2573 2240 2633 
Q 2106 2694 1958 2694 
Q 1773 2694 1625 2620 
Q 1478 2547 1360 2444 
Q 1242 2342 1139 2253 
L 1094 2566 
L 1190 2566 
Q 1453 2797 1686 2950 
Q 1920 3104 2221 3104 
Q 2656 3104 2867 2809 
Q 3078 2515 3078 1965 
L 3078 646 
Q 3078 467 3107 364 
Q 3136 262 3238 220 
Q 3341 179 3552 179 
L 3552 0 
z
M 1670 0 
L 205 0 
L 205 179 
Q 422 179 515 220 
Q 608 262 630 364 
Q 653 467 653 646 
L 653 2445 
Q 653 2618 582 2672 
Q 512 2726 384 2726 
Q 301 2726 256 2720 
Q 211 2714 211 2714 
L 211 2899 
L 1024 3085 
L 1171 3085 
L 1165 2496 
L 1184 2362 
L 1184 646 
Q 1184 467 1209 364 
Q 1235 262 1337 220 
Q 1440 179 1670 179 
L 1670 0 
z
" transform="scale(0.015625)"/>
       <path id="STIXTwoText-1" transform="scale(0.015625)"/>
       <path id="STIXGeneral-Regular-254" d="M 4320 0 
L 307 0 
L 2221 4314 
L 2349 4314 
L 4320 0 
z
M 3354 589 
L 2118 3405 
L 870 589 
L 3354 589 
z
" transform="scale(0.015625)"/>
       <path id="STIXGeneral-Italic-59" d="M 1325 448 
L 1523 653 
Q 1869 1005 2134 1456 
Q 2400 1907 2400 2131 
Q 2400 2208 2285 2317 
Q 2125 2458 2125 2605 
Q 2125 2701 2195 2761 
Q 2266 2822 2368 2822 
Q 2522 2822 2624 2704 
Q 2726 2586 2726 2445 
Q 2726 2074 2323 1453 
Q 1971 909 1562 474 
Q 1504 416 1421 326 
Q 1338 237 1299 192 
Q 1261 147 1200 86 
Q 1139 26 1110 -3 
Q 1082 -32 1043 -64 
Q 1005 -96 979 -105 
Q 954 -115 928 -115 
Q 870 -115 870 58 
L 870 211 
Q 870 1094 717 1990 
Q 653 2355 579 2470 
Q 506 2586 326 2586 
Q 198 2586 128 2579 
L 128 2662 
Q 480 2720 845 2797 
Q 915 2822 973 2822 
Q 1011 2822 1033 2739 
Q 1056 2656 1165 2093 
Q 1280 1510 1325 448 
z
" transform="scale(0.015625)"/>
       <path id="STIXTwoText-731" d="M 1997 -1011 
L 1894 -1190 
Q 1120 -794 656 -48 
Q 192 698 192 1754 
Q 192 2803 656 3542 
Q 1120 4282 1894 4672 
L 1997 4506 
Q 1299 4038 1008 3372 
Q 717 2707 717 1754 
Q 717 787 1008 118 
Q 1299 -550 1997 -1011 
z
" transform="scale(0.015625)"/>
       <path id="STIXTwoText-10c" d="M 3520 0 
L 2003 0 
L 2003 186 
Q 2234 186 2336 230 
Q 2438 275 2467 396 
Q 2496 518 2496 742 
L 2496 2010 
Q 2496 2419 2352 2556 
Q 2208 2694 1984 2694 
Q 1805 2694 1648 2617 
Q 1491 2541 1363 2438 
Q 1235 2336 1146 2246 
L 1094 2566 
L 1190 2566 
Q 1453 2790 1696 2947 
Q 1939 3104 2266 3104 
Q 2554 3104 2730 2937 
Q 2906 2771 2995 2522 
Q 3008 2502 3014 2480 
Q 3021 2458 3027 2432 
L 3027 742 
Q 3027 525 3056 403 
Q 3085 282 3187 234 
Q 3290 186 3520 186 
L 3520 0 
z
M 1664 0 
L 205 0 
L 205 186 
Q 410 186 502 221 
Q 595 256 624 355 
Q 653 454 653 646 
L 653 2438 
Q 653 2611 585 2668 
Q 518 2726 384 2726 
Q 314 2726 262 2720 
Q 211 2714 211 2714 
L 211 2899 
L 1011 3085 
L 1165 3085 
L 1165 2496 
L 1184 2355 
L 1184 621 
Q 1184 442 1222 349 
Q 1261 256 1363 221 
Q 1466 186 1664 186 
L 1664 0 
z
M 5306 0 
L 3859 0 
L 3859 186 
Q 4077 186 4173 243 
Q 4269 301 4291 425 
Q 4314 550 4314 742 
L 4314 1971 
Q 4314 2266 4240 2419 
Q 4166 2573 4041 2633 
Q 3917 2694 3763 2694 
Q 3552 2694 3347 2544 
Q 3142 2394 2976 2253 
L 2906 2573 
L 3002 2573 
Q 3264 2835 3513 2969 
Q 3763 3104 4019 3104 
Q 4397 3104 4621 2867 
Q 4845 2630 4845 2048 
L 4845 742 
Q 4845 544 4867 419 
Q 4890 294 4989 240 
Q 5088 186 5306 186 
L 5306 0 
z
" transform="scale(0.015625)"/>
       <path id="STIXTwoText-72d" d="M 589 -570 
L 230 -570 
L 1901 4538 
L 2253 4538 
L 589 -570 
z
" transform="scale(0.015625)"/>
       <path id="STIXTwoText-112" d="M 269 -51 
L 250 1050 
L 416 1050 
Q 518 557 716 361 
Q 915 166 1267 166 
Q 1510 166 1664 265 
Q 1818 365 1818 589 
Q 1818 742 1763 844 
Q 1709 947 1555 1052 
Q 1402 1158 1101 1306 
Q 806 1453 620 1590 
Q 435 1728 345 1894 
Q 256 2061 256 2298 
Q 256 2694 541 2899 
Q 826 3104 1235 3104 
Q 1478 3104 1632 3049 
Q 1786 2995 1907 2938 
L 1914 2938 
L 2022 3072 
L 2150 3072 
L 2170 2093 
L 1997 2093 
Q 1894 2547 1708 2716 
Q 1523 2886 1229 2886 
Q 1011 2886 860 2784 
Q 710 2682 710 2464 
Q 710 2278 883 2131 
Q 1056 1984 1459 1779 
Q 1754 1626 1952 1482 
Q 2150 1338 2252 1168 
Q 2355 998 2355 762 
Q 2355 461 2208 278 
Q 2061 96 1814 13 
Q 1568 -70 1280 -70 
Q 1005 -70 841 -12 
Q 678 45 550 96 
L 538 96 
L 403 -51 
L 269 -51 
z
" transform="scale(0.015625)"/>
       <path id="STIXTwoText-732" d="M 301 -1190 
L 198 -1011 
Q 902 -550 1190 118 
Q 1478 787 1478 1754 
Q 1478 2707 1190 3372 
Q 902 4038 198 4506 
L 301 4672 
Q 1075 4282 1539 3542 
Q 2003 2803 2003 1754 
Q 2003 698 1539 -48 
Q 1075 -794 301 -1190 
z
" transform="scale(0.015625)"/>
      </defs>
      <use xlink:href="#STIXTwoText-101"/>
      <use xlink:href="#STIXTwoText-10e" transform="translate(44.59996 0)"/>
      <use xlink:href="#STIXTwoText-111" transform="translate(95.999908 0)"/>
      <use xlink:href="#STIXTwoText-111" transform="translate(133.999878 0)"/>
      <use xlink:href="#STIXTwoText-103" transform="translate(171.999847 0)"/>
      <use xlink:href="#STIXTwoText-101" transform="translate(218.399811 0)"/>
      <use xlink:href="#STIXTwoText-113" transform="translate(262.999771 0)"/>
      <use xlink:href="#STIXTwoText-107" transform="translate(294.499741 0)"/>
      <use xlink:href="#STIXTwoText-10e" transform="translate(322.99971 0)"/>
      <use xlink:href="#STIXTwoText-10d" transform="translate(374.399658 0)"/>
      <use xlink:href="#STIXTwoText-1" transform="translate(431.999603 0)"/>
      <use xlink:href="#STIXGeneral-Regular-254" transform="translate(455.499588 0)"/>
      <use xlink:href="#STIXGeneral-Italic-59" transform="translate(527.699524 0)"/>
      <use xlink:href="#STIXTwoText-1" transform="translate(572.099487 0)"/>
      <use xlink:href="#STIXTwoText-731" transform="translate(595.599472 0)"/>
      <use xlink:href="#STIXTwoText-10c" transform="translate(629.899445 0)"/>
      <use xlink:href="#STIXTwoText-72d" transform="translate(715.099365 0)"/>
      <use xlink:href="#STIXTwoText-112" transform="translate(753.799332 0)"/>
      <use xlink:href="#STIXTwoText-732" transform="translate(793.299301 0)"/>
     </g>
    </g>
   </g>
   <g id="matplotlib.axis_2">
    <g id="ytick_1">
     <g id="line2d_8">
      <path d="M 46.435 217.940293 
L 508.688478 217.940293 
" clip-path="url(#pca8ddfe436)" style="fill: none; stroke: #dddddd; stroke-width: 0.6; stroke-linecap: round"/>
     </g>
     <g id="text_9">
      <!-- $\mathdefault{10^{-3}}$ -->
      <g style="fill: #262626" transform="translate(20.7 221.637793) scale(0.085 -0.085)">
       <defs>
        <path id="STIXTwoText-81c" d="M 4211 1434 
L 397 1434 
L 397 1869 
L 4211 1869 
L 4211 1434 
z
" transform="scale(0.015625)"/>
       </defs>
       <use xlink:href="#STIXTwoText-787" transform="translate(0 0.615625)"/>
       <use xlink:href="#STIXTwoText-786" transform="translate(49.499954 0.615625)"/>
       <use xlink:href="#STIXTwoText-81c" transform="translate(100.574908 41.915625) scale(0.7)"/>
       <use xlink:href="#STIXTwoText-789" transform="translate(150.974866 41.915625) scale(0.7)"/>
      </g>
     </g>
    </g>
    <g id="ytick_2">
     <g id="line2d_9">
      <path d="M 46.435 152.233529 
L 508.688478 152.233529 
" clip-path="url(#pca8ddfe436)" style="fill: none; stroke: #dddddd; stroke-width: 0.6; stroke-linecap: round"/>
     </g>
     <g id="text_10">
      <!-- $\mathdefault{10^{-2}}$ -->
      <g style="fill: #262626" transform="translate(20.7 155.931029) scale(0.085 -0.085)">
       <use xlink:href="#STIXTwoText-787" transform="translate(0 0.615625)"/>
       <use xlink:href="#STIXTwoText-786" transform="translate(49.499954 0.615625)"/>
       <use xlink:href="#STIXTwoText-81c" transform="translate(100.574908 41.915625) scale(0.7)"/>
       <use xlink:href="#STIXTwoText-788" transform="translate(150.974866 41.915625) scale(0.7)"/>
      </g>
     </g>
    </g>
    <g id="ytick_3">
     <g id="line2d_10">
      <path d="M 46.435 86.526764 
L 508.688478 86.526764 
" clip-path="url(#pca8ddfe436)" style="fill: none; stroke: #dddddd; stroke-width: 0.6; stroke-linecap: round"/>
     </g>
     <g id="text_11">
      <!-- $\mathdefault{10^{-1}}$ -->
      <g style="fill: #262626" transform="translate(20.7 90.224264) scale(0.085 -0.085)">
       <use xlink:href="#STIXTwoText-787" transform="translate(0 0.965625)"/>
       <use xlink:href="#STIXTwoText-786" transform="translate(49.499954 0.965625)"/>
       <use xlink:href="#STIXTwoText-81c" transform="translate(100.574908 42.265625) scale(0.7)"/>
       <use xlink:href="#STIXTwoText-787" transform="translate(150.974866 42.265625) scale(0.7)"/>
      </g>
     </g>
    </g>
    <g id="ytick_4">
     <g id="line2d_11">
      <path d="M 46.435 20.82 
L 508.688478 20.82 
" clip-path="url(#pca8ddfe436)" style="fill: none; stroke: #dddddd; stroke-width: 0.6; stroke-linecap: round"/>
     </g>
     <g id="text_12">
      <!-- $\mathdefault{10^{0}}$ -->
      <g style="fill: #262626" transform="translate(25.035 24.5175) scale(0.085 -0.085)">
       <use xlink:href="#STIXTwoText-787" transform="translate(0 0.757812)"/>
       <use xlink:href="#STIXTwoText-786" transform="translate(49.499954 0.757812)"/>
       <use xlink:href="#STIXTwoText-786" transform="translate(100.574908 42.057813) scale(0.7)"/>
      </g>
     </g>
    </g>
    <g id="ytick_5"/>
    <g id="ytick_6"/>
    <g id="ytick_7"/>
    <g id="ytick_8"/>
    <g id="ytick_9"/>
    <g id="ytick_10"/>
    <g id="ytick_11"/>
    <g id="ytick_12"/>
    <g id="ytick_13"/>
    <g id="ytick_14"/>
    <g id="ytick_15"/>
    <g id="ytick_16"/>
    <g id="ytick_17"/>
    <g id="ytick_18"/>
    <g id="ytick_19"/>
    <g id="ytick_20"/>
    <g id="ytick_21"/>
    <g id="ytick_22"/>
    <g id="ytick_23"/>
    <g id="ytick_24"/>
    <g id="ytick_25"/>
    <g id="ytick_26"/>
    <g id="ytick_27"/>
    <g id="ytick_28"/>
    <g id="ytick_29"/>
    <g id="ytick_30"/>
    <g id="ytick_31"/>
    <g id="ytick_32"/>
    <g id="ytick_33"/>
    <g id="text_13">
     <!-- survival  $1 - F(\Delta v)$ -->
     <g style="fill: #262626" transform="translate(14.439 166.605) rotate(-90) scale(0.095 -0.095)">
      <defs>
       <path id="STIXTwoText-114" d="M 1421 -64 
Q 1024 -64 803 195 
Q 582 454 582 1107 
L 582 2406 
Q 582 2579 547 2659 
Q 512 2739 416 2761 
Q 320 2784 147 2784 
L 147 2963 
L 973 3059 
L 1114 3059 
L 1114 1190 
Q 1114 864 1187 681 
Q 1261 499 1392 422 
Q 1523 346 1690 346 
Q 1933 346 2109 454 
Q 2285 563 2477 730 
L 2477 2413 
Q 2477 2586 2432 2662 
Q 2387 2739 2275 2761 
Q 2163 2784 1958 2784 
L 1958 2963 
L 2854 3059 
L 3008 3059 
L 3008 710 
Q 3008 429 3085 358 
Q 3162 288 3392 288 
L 3456 288 
L 3456 115 
L 2643 -32 
L 2502 -32 
L 2502 461 
L 2470 461 
Q 2304 294 2141 176 
Q 1978 58 1802 -3 
Q 1626 -64 1421 -64 
z
" transform="scale(0.015625)"/>
       <path id="STIXTwoText-115" d="M 1696 -38 
L 1389 -38 
L 435 2374 
Q 352 2573 288 2672 
Q 224 2771 141 2806 
Q 58 2842 -83 2842 
L -83 3027 
L 1267 3027 
L 1267 2842 
Q 1082 2842 1008 2800 
Q 934 2758 934 2682 
Q 934 2618 953 2560 
Q 973 2502 998 2432 
L 1542 1005 
L 1664 621 
L 1702 621 
L 1837 1011 
L 2387 2458 
Q 2394 2483 2413 2537 
Q 2432 2592 2432 2669 
Q 2432 2778 2336 2810 
Q 2240 2842 2067 2842 
L 2067 3027 
L 3187 3027 
L 3187 2842 
Q 3002 2842 2902 2755 
Q 2803 2669 2707 2419 
L 1696 -38 
z
" transform="scale(0.015625)"/>
       <path id="STIXTwoText-ff" d="M 1005 -45 
Q 634 -45 438 160 
Q 243 365 243 672 
Q 243 928 361 1104 
Q 480 1280 675 1401 
Q 870 1523 1097 1606 
Q 1325 1690 1542 1747 
Q 1760 1805 1926 1856 
L 1926 2138 
Q 1926 2554 1782 2730 
Q 1638 2906 1350 2906 
Q 1075 2906 998 2790 
Q 922 2675 922 2387 
Q 922 2240 848 2166 
Q 774 2093 640 2093 
Q 544 2093 457 2166 
Q 371 2240 371 2400 
Q 371 2579 508 2739 
Q 646 2899 899 3001 
Q 1152 3104 1498 3104 
Q 2022 3104 2240 2861 
Q 2458 2618 2458 2118 
L 2458 666 
Q 2458 467 2502 409 
Q 2547 352 2650 352 
Q 2739 352 2812 397 
Q 2886 442 2950 512 
L 3046 410 
Q 2886 179 2742 73 
Q 2598 -32 2355 -32 
Q 2131 -32 2064 96 
Q 1997 224 1965 461 
L 1926 538 
L 1926 1645 
Q 1638 1574 1382 1478 
Q 1126 1382 966 1228 
Q 806 1075 806 826 
Q 806 589 934 448 
Q 1062 307 1267 307 
Q 1434 307 1616 390 
Q 1798 474 1971 627 
L 2022 397 
L 1946 397 
Q 1798 269 1660 166 
Q 1523 64 1366 9 
Q 1210 -45 1005 -45 
z
" transform="scale(0.015625)"/>
       <path id="STIXTwoText-10b" d="M 1664 0 
L 192 0 
L 192 186 
Q 403 186 499 227 
Q 595 269 617 368 
Q 640 467 640 646 
L 640 3859 
Q 640 4058 566 4096 
Q 493 4134 371 4134 
Q 288 4134 227 4128 
Q 166 4122 166 4122 
L 166 4294 
L 1011 4518 
L 1171 4518 
L 1171 646 
Q 1171 461 1200 361 
Q 1229 262 1331 224 
Q 1434 186 1664 186 
L 1664 0 
z
" transform="scale(0.015625)"/>
       <path id="STIXGeneral-Regular-14" d="M 2522 0 
L 755 0 
L 755 96 
Q 1107 115 1235 227 
Q 1363 339 1363 608 
L 1363 3482 
Q 1363 3795 1171 3795 
Q 1082 3795 883 3718 
L 710 3654 
L 710 3744 
L 1856 4326 
L 1914 4307 
L 1914 486 
Q 1914 275 2042 185 
Q 2170 96 2522 96 
L 2522 0 
z
" transform="scale(0.015625)"/>
       <path id="STIXGeneral-Regular-425" d="M 3974 1408 
L 410 1408 
L 410 1830 
L 3974 1830 
L 3974 1408 
z
" transform="scale(0.015625)"/>
       <path id="STIXGeneral-Italic-29" d="M 4128 4179 
L 3923 3194 
L 3789 3206 
Q 3808 3347 3808 3418 
Q 3808 3667 3718 3772 
Q 3629 3878 3373 3923 
Q 3117 3968 2534 3968 
Q 2310 3968 2220 3926 
Q 2131 3885 2099 3763 
L 1690 2310 
Q 2003 2317 2147 2317 
Q 2291 2317 2457 2345 
Q 2624 2374 2678 2396 
Q 2733 2419 2822 2505 
Q 2912 2592 2950 2665 
Q 2989 2739 3072 2912 
L 3187 2880 
L 2701 1376 
L 2592 1408 
Q 2643 1670 2643 1798 
Q 2643 1978 2531 2029 
Q 2419 2080 2163 2080 
Q 1984 2080 1632 2099 
L 1254 736 
Q 1165 416 1165 352 
Q 1165 237 1273 179 
Q 1382 122 1658 102 
L 1658 0 
L 51 0 
L 51 102 
Q 314 122 410 224 
Q 506 326 582 602 
L 1370 3430 
Q 1434 3661 1434 3821 
Q 1434 3955 1347 4003 
Q 1261 4051 947 4077 
L 947 4179 
L 4128 4179 
z
" transform="scale(0.015625)"/>
       <path id="STIXGeneral-Regular-b" d="M 1946 -1030 
L 1869 -1133 
Q 1126 -710 716 32 
Q 307 774 307 1613 
Q 307 3386 1888 4326 
L 1946 4224 
Q 1293 3667 1075 3126 
Q 858 2586 858 1632 
Q 858 685 1082 96 
Q 1306 -493 1946 -1030 
z
" transform="scale(0.015625)"/>
       <path id="STIXGeneral-Regular-c" d="M 186 4224 
L 262 4326 
Q 992 3891 1408 3148 
Q 1824 2406 1824 1581 
Q 1824 -166 243 -1133 
L 186 -1030 
Q 845 -486 1059 54 
Q 1274 595 1274 1562 
Q 1274 2534 1059 3120 
Q 845 3706 186 4224 
z
" transform="scale(0.015625)"/>
      </defs>
      <use xlink:href="#STIXTwoText-112" transform="translate(0 0.40625)"/>
      <use xlink:href="#STIXTwoText-114" transform="translate(39.499969 0.40625)"/>
      <use xlink:href="#STIXTwoText-111" transform="translate(96.499908 0.40625)"/>
      <use xlink:href="#STIXTwoText-115" transform="translate(134.499878 0.40625)"/>
      <use xlink:href="#STIXTwoText-107" transform="translate(182.599838 0.40625)"/>
      <use xlink:href="#STIXTwoText-115" transform="translate(211.099808 0.40625)"/>
      <use xlink:href="#STIXTwoText-ff" transform="translate(259.199768 0.40625)"/>
      <use xlink:href="#STIXTwoText-10b" transform="translate(307.199722 0.40625)"/>
      <use xlink:href="#STIXTwoText-1" transform="translate(335.499695 0.40625)"/>
      <use xlink:href="#STIXTwoText-1" transform="translate(358.99968 0.40625)"/>
      <use xlink:href="#STIXGeneral-Regular-14" transform="translate(382.499664 0.40625)"/>
      <use xlink:href="#STIXGeneral-Regular-425" transform="translate(452.499619 0.40625)"/>
      <use xlink:href="#STIXGeneral-Italic-29" transform="translate(540.999557 0.40625)"/>
      <use xlink:href="#STIXGeneral-Regular-b" transform="translate(602.099503 0.40625)"/>
      <use xlink:href="#STIXGeneral-Regular-254" transform="translate(635.399475 0.40625)"/>
      <use xlink:href="#STIXGeneral-Italic-59" transform="translate(707.599411 0.40625)"/>
      <use xlink:href="#STIXGeneral-Regular-c" transform="translate(751.999374 0.40625)"/>
     </g>
    </g>
   </g>
   <g id="line2d_12">
    <path d="M 52.258206 20.821427 
L 54.916292 20.938671 
L 55.592337 21.177504 
L 55.69989 21.246939 
L 55.945725 21.403787 
L 56.053277 21.49422 
L 56.206924 21.634814 
L 56.314476 21.743663 
L 56.437394 21.87957 
L 56.544946 22.016128 
L 56.652499 22.147363 
L 56.760052 22.309254 
L 56.852239 22.438826 
L 56.959792 22.632775 
L 57.05198 22.763828 
L 57.159533 22.987702 
L 57.236356 23.114214 
L 57.343909 23.353336 
L 57.405367 23.47835 
L 57.51292 23.726875 
L 57.574378 23.850367 
L 57.681931 24.137404 
L 57.74339 24.26269 
L 57.850942 24.579958 
L 57.897036 24.700667 
L 58.004589 25.012953 
L 58.050683 25.135511 
L 58.158236 25.469407 
L 58.20433 25.590572 
L 58.311882 25.950354 
L 58.357976 26.073583 
L 58.465529 26.463879 
L 58.511623 26.585858 
L 58.619175 26.9939 
L 58.665269 27.118171 
L 58.772822 27.562852 
L 58.818916 27.686001 
L 58.926469 28.154446 
L 58.957198 28.272769 
L 59.06475 28.713374 
L 59.09548 28.834042 
L 59.203032 29.306511 
L 59.233762 29.425861 
L 59.341314 29.908315 
L 59.372044 30.030213 
L 59.479596 30.535114 
L 59.510326 30.655698 
L 59.617878 31.1883 
L 59.648608 31.30756 
L 59.75616 31.86099 
L 59.78689 31.983101 
L 59.894442 32.554225 
L 59.925171 32.675022 
L 60.032724 33.269136 
L 60.063453 33.393004 
L 60.171006 34.002419 
L 60.201735 34.124969 
L 60.309288 34.755042 
L 60.340017 34.876205 
L 60.44757 35.528055 
L 60.478299 35.652551 
L 60.585852 36.327505 
L 60.616581 36.450611 
L 60.724134 37.149999 
L 60.754863 37.276714 
L 60.862416 37.986488 
L 60.893145 38.11175 
L 61.000698 38.853608 
L 61.031427 38.97735 
L 61.13898 39.720221 
L 61.169709 39.847788 
L 61.277262 40.608269 
L 61.307991 40.734143 
L 61.415543 41.513056 
L 61.446273 41.642994 
L 61.553825 42.429211 
L 61.584555 42.557285 
L 61.692107 43.375758 
L 61.722837 43.508162 
L 61.830389 44.341766 
L 61.861119 44.472202 
L 61.968671 45.321414 
L 61.999401 45.449651 
L 62.106953 46.321941 
L 62.137682 46.454765 
L 62.245235 47.337138 
L 62.275964 47.467523 
L 62.383517 48.374794 
L 62.414246 48.510019 
L 62.521799 49.420497 
L 62.537164 49.54516 
L 62.644716 50.369021 
L 62.675446 50.505981 
L 62.782998 51.425124 
L 62.813728 51.567261 
L 62.92128 52.539159 
L 62.952009 52.678254 
L 63.059562 53.635306 
L 63.090291 53.779861 
L 63.197844 54.765868 
L 63.228573 54.906857 
L 63.336126 55.90402 
L 63.366855 56.050761 
L 63.474408 57.038647 
L 63.505137 57.191355 
L 63.61269 58.230847 
L 63.643419 58.379445 
L 63.750972 59.44188 
L 63.781701 59.596938 
L 63.889254 60.648922 
L 63.919983 60.810698 
L 64.027536 61.873178 
L 64.058265 62.02997 
L 64.165818 63.114607 
L 64.196547 63.278391 
L 64.3041 64.359969 
L 64.334829 64.531081 
L 64.442381 65.620993 
L 64.473111 65.786061 
L 64.580663 66.940329 
L 64.611393 67.113232 
L 64.718945 68.233305 
L 64.749675 68.414247 
L 64.857227 69.556152 
L 64.887957 69.745708 
L 64.995509 70.877279 
L 65.026239 71.059249 
L 65.133791 72.210668 
L 65.164521 72.401372 
L 65.272073 73.573158 
L 65.302802 73.77322 
L 65.410355 74.927856 
L 65.441084 75.137681 
L 65.548637 76.31016 
L 65.579366 76.53044 
L 65.686919 77.720898 
L 65.717648 77.931265 
L 65.825201 79.072861 
L 65.85593 79.293473 
L 65.963483 80.515181 
L 65.994212 80.747277 
L 66.101765 81.912662 
L 66.132494 82.156458 
L 66.240047 83.331051 
L 66.270776 83.587326 
L 66.378329 84.796775 
L 66.409058 85.066622 
L 66.516611 86.256951 
L 66.54734 86.541036 
L 66.654893 87.706531 
L 66.700987 88.035567 
L 66.808539 89.296526 
L 66.839268 89.580941 
L 66.946821 90.78093 
L 66.97755 91.080612 
L 67.085103 92.27691 
L 67.131197 92.628128 
L 67.23875 93.892592 
L 67.284844 94.264403 
L 67.392396 95.566073 
L 67.43849 95.960497 
L 67.546043 97.260586 
L 67.592137 97.679318 
L 67.699689 98.973693 
L 67.745783 99.418536 
L 67.853336 100.702303 
L 67.89943 101.175157 
L 68.006983 102.392752 
L 68.053077 102.894719 
L 68.160629 104.136739 
L 68.222088 104.724582 
L 68.32964 106.107415 
L 68.391099 106.737755 
L 68.498652 107.981226 
L 68.56011 108.654855 
L 68.667663 109.857219 
L 68.744486 110.643567 
L 68.852039 112.004306 
L 68.928862 112.853025 
L 69.036415 114.175397 
L 69.128603 115.170053 
L 69.236155 116.525373 
L 69.343708 117.691974 
L 69.451261 118.997205 
L 69.558813 120.271756 
L 69.681731 121.605906 
L 69.789283 123.005504 
L 69.94293 124.693898 
L 70.050482 126.029163 
L 70.234858 128.157062 
L 70.342411 129.411597 
L 70.649704 132.812771 
L 70.757257 133.992725 
L 71.356478 140.949939 
L 72.539557 154.458246 
L 73.691907 167.049289 
L 74.060659 171.169743 
L 74.721339 178.026389 
L 75.12082 182.60194 
L 75.965876 191.227853 
L 79.346102 226.149613 
L 81.819812 247.898107 
L 83.125808 257.499707 
L 84.831285 272.07667 
L 85.297425 277.42 
L 85.297425 277.42 
" clip-path="url(#pca8ddfe436)" style="fill: none; stroke: #1f6f3f; stroke-width: 1.5; stroke-linecap: round"/>
   </g>
   <g id="line2d_13">
    <path d="M 50.29153 20.821427 
L 53.45665 20.935806 
L 54.301706 21.206415 
L 54.409259 21.264324 
L 54.685822 21.427097 
L 54.793375 21.508833 
L 54.977751 21.655375 
L 55.085304 21.755455 
L 55.23895 21.897345 
L 55.346503 22.019104 
L 55.46942 22.153343 
L 55.576973 22.288216 
L 55.684525 22.420711 
L 55.792078 22.578093 
L 55.884266 22.708895 
L 55.991819 22.880146 
L 56.084006 23.009262 
L 56.191559 23.216449 
L 56.268382 23.343982 
L 56.375935 23.556763 
L 56.452758 23.685829 
L 56.560311 23.92981 
L 56.62177 24.054185 
L 56.729322 24.288457 
L 56.790781 24.414409 
L 56.898333 24.671258 
L 56.959792 24.795634 
L 57.067345 25.089076 
L 57.128803 25.21529 
L 57.236356 25.529925 
L 57.297815 25.654728 
L 57.405367 25.987951 
L 57.451461 26.111343 
L 57.559014 26.418705 
L 57.605108 26.540491 
L 57.71266 26.884282 
L 57.758754 27.008076 
L 57.866307 27.357581 
L 57.912401 27.479846 
L 58.019954 27.849813 
L 58.066048 27.97421 
L 58.1736 28.361834 
L 58.219694 28.484754 
L 58.327247 28.898355 
L 58.373341 29.023613 
L 58.480893 29.456742 
L 58.526987 29.580601 
L 58.63454 30.026273 
L 58.680634 30.152635 
L 58.788187 30.63154 
L 58.818916 30.752533 
L 58.926469 31.184197 
L 58.957198 31.30344 
L 59.06475 31.756139 
L 59.09548 31.877802 
L 59.203032 32.348327 
L 59.233762 32.468254 
L 59.341314 32.9487 
L 59.372044 33.071182 
L 59.479596 33.566436 
L 59.510326 33.687124 
L 59.617878 34.179605 
L 59.648608 34.302921 
L 59.75616 34.810899 
L 59.78689 34.9323 
L 59.894442 35.470777 
L 59.925171 35.595024 
L 60.032724 36.126753 
L 60.063453 36.248994 
L 60.171006 36.803159 
L 60.201735 36.928339 
L 60.309288 37.501107 
L 60.340017 37.624252 
L 60.44757 38.206058 
L 60.478299 38.332289 
L 60.585852 38.918102 
L 60.616581 39.042125 
L 60.724134 39.659412 
L 60.754863 39.786706 
L 60.862416 40.397817 
L 60.893145 40.522763 
L 61.000698 41.161658 
L 61.031427 41.290002 
L 61.13898 41.928565 
L 61.169709 42.054407 
L 61.277262 42.698219 
L 61.307991 42.827509 
L 61.415543 43.489209 
L 61.446273 43.615797 
L 61.553825 44.296254 
L 61.584555 44.426481 
L 61.692107 45.093366 
L 61.722837 45.227291 
L 61.830389 45.913386 
L 61.861119 46.044317 
L 61.968671 46.764752 
L 61.999401 46.899658 
L 62.106953 47.598506 
L 62.137682 47.730093 
L 62.245235 48.44984 
L 62.275964 48.585422 
L 62.383517 49.311862 
L 62.414246 49.451612 
L 62.521799 50.176777 
L 62.552528 50.312816 
L 62.660081 51.05226 
L 62.69081 51.192548 
L 62.798363 51.955456 
L 62.829092 52.091727 
L 62.936645 52.86185 
L 62.967374 53.002531 
L 63.074927 53.761752 
L 63.105656 53.906951 
L 63.213209 54.681608 
L 63.243938 54.82218 
L 63.351491 55.612783 
L 63.38222 55.75803 
L 63.489773 56.575372 
L 63.520502 56.725615 
L 63.628055 57.530219 
L 63.658784 57.675204 
L 63.766336 58.475383 
L 63.797066 58.625263 
L 63.904618 59.452927 
L 63.935348 59.608045 
L 64.0429 60.442263 
L 64.07363 60.602868 
L 64.181182 61.419741 
L 64.211912 61.574054 
L 64.319464 62.431893 
L 64.350194 62.591794 
L 64.457746 63.44312 
L 64.488475 63.608806 
L 64.596028 64.451979 
L 64.626757 64.623645 
L 64.73431 65.470515 
L 64.765039 65.634712 
L 64.872592 66.5126 
L 64.903321 66.682923 
L 65.010874 67.535457 
L 65.041603 67.712015 
L 65.149156 68.565914 
L 65.179885 68.748985 
L 65.287438 69.619197 
L 65.318167 69.809175 
L 65.42572 70.680081 
L 65.456449 70.860794 
L 65.564002 71.764917 
L 65.594731 71.952655 
L 65.702284 72.839588 
L 65.733013 73.034556 
L 65.840566 73.919606 
L 65.871295 74.122121 
L 65.978847 75.003977 
L 66.009577 75.214365 
L 66.117129 76.111371 
L 66.147859 76.330115 
L 66.255411 77.181095 
L 66.286141 77.387505 
L 66.393693 78.313877 
L 66.424423 78.528678 
L 66.531975 79.448923 
L 66.562705 79.672474 
L 66.670257 80.607793 
L 66.716351 80.864037 
L 66.823904 81.864152 
L 66.854633 82.107532 
L 66.962186 83.051781 
L 67.00828 83.331051 
L 67.115832 84.317389 
L 67.161926 84.609389 
L 67.269479 85.614093 
L 67.315573 85.919741 
L 67.423126 86.914625 
L 67.46922 87.234605 
L 67.576772 88.216653 
L 67.622866 88.551659 
L 67.730419 89.48582 
L 67.776513 89.804129 
L 67.884065 90.814073 
L 67.930159 91.147637 
L 68.037712 92.102909 
L 68.083806 92.451979 
L 68.191359 93.416369 
L 68.237453 93.781987 
L 68.345005 94.793214 
L 68.406464 95.215694 
L 68.514016 96.239873 
L 68.56011 96.643788 
L 68.667663 97.595079 
L 68.729122 98.061503 
L 68.836674 99.062109 
L 68.898133 99.553353 
L 69.005685 100.515334 
L 69.067144 101.032477 
L 69.174697 102.095756 
L 69.25152 102.692871 
L 69.359073 103.716697 
L 69.435896 104.349102 
L 69.543449 105.379985 
L 69.635637 106.107415 
L 69.743189 107.146254 
L 69.850742 107.981226 
L 69.958294 109.091959 
L 70.065847 109.986781 
L 70.1734 111.045019 
L 70.280952 112.004306 
L 70.388505 113.069208 
L 70.526787 114.25069 
L 70.634339 115.326201 
L 70.787986 116.607138 
L 70.895539 117.607045 
L 71.049185 118.997205 
L 71.156738 119.993805 
L 71.356478 121.801695 
L 71.464031 122.801309 
L 71.709866 125.132081 
L 71.817418 126.257911 
L 72.232264 130.191675 
L 73.399978 141.142751 
L 73.814824 145.077857 
L 74.22967 148.872462 
L 75.151549 157.379257 
L 75.689313 162.208531 
L 78.577869 187.069809 
L 79.115632 191.227853 
L 80.728921 203.650127 
L 84.093782 226.149613 
L 85.553424 235.000221 
L 88.01177 247.898107 
L 90.101364 257.499707 
L 93.589141 272.07667 
L 95.110642 277.42 
L 95.110642 277.42 
" clip-path="url(#pca8ddfe436)" style="fill: none; stroke: #4878cf; stroke-width: 1.5; stroke-linecap: round"/>
   </g>
   <g id="line2d_14">
    <path d="M 48.094383 20.821413 
L 51.013669 20.937482 
L 51.797266 21.193937 
L 51.904819 21.256978 
L 52.166018 21.418077 
L 52.273571 21.501862 
L 52.457947 21.6469 
L 52.565499 21.754704 
L 52.703781 21.892235 
L 52.811334 22.015698 
L 52.934251 22.151535 
L 53.041804 22.296946 
L 53.149356 22.428154 
L 53.256909 22.602036 
L 53.349097 22.731636 
L 53.45665 22.916503 
L 53.533473 23.044488 
L 53.641026 23.237549 
L 53.717849 23.363897 
L 53.825401 23.584026 
L 53.902225 23.711921 
L 54.009777 23.95998 
L 54.071236 24.08324 
L 54.178789 24.321784 
L 54.240247 24.44662 
L 54.3478 24.714127 
L 54.409259 24.837443 
L 54.516811 25.128363 
L 54.57827 25.253485 
L 54.685822 25.565376 
L 54.747281 25.689083 
L 54.854834 26.022743 
L 54.900928 26.145048 
L 55.00848 26.460008 
L 55.054574 26.580749 
L 55.162127 26.911071 
L 55.208221 27.033739 
L 55.315773 27.376488 
L 55.361867 27.501177 
L 55.46942 27.871314 
L 55.515514 27.994557 
L 55.623067 28.378555 
L 55.669161 28.500315 
L 55.776713 28.894975 
L 55.822807 29.018963 
L 55.93036 29.424733 
L 55.976454 29.547213 
L 56.084006 29.968404 
L 56.1301 30.093246 
L 56.237653 30.530574 
L 56.283747 30.653917 
L 56.3913 31.099991 
L 56.437394 31.225826 
L 56.544946 31.693406 
L 56.575676 31.813584 
L 56.683228 32.244562 
L 56.713958 32.36709 
L 56.82151 32.810875 
L 56.852239 32.931544 
L 56.959792 33.384265 
L 57.005886 33.511796 
L 57.113439 34.023209 
L 57.144168 34.14462 
L 57.251721 34.608004 
L 57.28245 34.731935 
L 57.390003 35.205034 
L 57.420732 35.326894 
L 57.528284 35.814823 
L 57.559014 35.93932 
L 57.666566 36.433045 
L 57.697296 36.55537 
L 57.804848 37.049985 
L 57.835578 37.17499 
L 57.94313 37.700969 
L 57.97386 37.823738 
L 58.081412 38.351481 
L 58.112142 38.477087 
L 58.219694 39.011823 
L 58.250424 39.135008 
L 58.357976 39.676866 
L 58.388705 39.802962 
L 58.496258 40.346576 
L 58.526987 40.475674 
L 58.63454 41.032382 
L 58.665269 41.158864 
L 58.772822 41.735077 
L 58.803551 41.864719 
L 58.911104 42.431404 
L 58.941833 42.558204 
L 59.049386 43.138971 
L 59.080115 43.268962 
L 59.187668 43.870866 
L 59.218397 43.997877 
L 59.32595 44.60902 
L 59.356679 44.739367 
L 59.464232 45.3601 
L 59.494961 45.493931 
L 59.602514 46.124626 
L 59.633243 46.25521 
L 59.740796 46.860903 
L 59.771525 46.994908 
L 59.879077 47.631135 
L 59.909807 47.761553 
L 60.017359 48.415304 
L 60.048089 48.549363 
L 60.155641 49.191075 
L 60.186371 49.328838 
L 60.293923 49.980677 
L 60.324653 50.114427 
L 60.432205 50.776603 
L 60.462935 50.914146 
L 60.570487 51.57876 
L 60.601216 51.720234 
L 60.708769 52.387035 
L 60.739498 52.524001 
L 60.847051 53.210081 
L 60.87778 53.351066 
L 60.985333 54.030422 
L 61.016062 54.175529 
L 61.123615 54.875045 
L 61.154344 55.015157 
L 61.261897 55.726226 
L 61.292626 55.870591 
L 61.400179 56.593681 
L 61.430908 56.742513 
L 61.538461 57.457716 
L 61.56919 57.611136 
L 61.676743 58.317177 
L 61.707472 58.464732 
L 61.815025 59.192487 
L 61.845754 59.344651 
L 61.953307 60.07313 
L 61.984036 60.230076 
L 62.091589 60.981819 
L 62.122318 61.143857 
L 62.22987 61.860823 
L 62.2606 62.015976 
L 62.368152 62.767767 
L 62.398882 62.927944 
L 62.506434 63.69179 
L 62.537164 63.857254 
L 62.644716 64.620504 
L 62.675446 64.791458 
L 62.782998 65.566906 
L 62.813728 65.730009 
L 62.92128 66.517738 
L 62.952009 66.686383 
L 63.059562 67.44339 
L 63.090291 67.617613 
L 63.197844 68.385115 
L 63.228573 68.565202 
L 63.336126 69.343507 
L 63.366855 69.529764 
L 63.474408 70.319194 
L 63.505137 70.495839 
L 63.61269 71.312846 
L 63.643419 71.49577 
L 63.750972 72.307999 
L 63.781701 72.497437 
L 63.889254 73.285776 
L 63.919983 73.48184 
L 64.027536 74.279851 
L 64.058265 74.48289 
L 64.165818 75.271697 
L 64.196547 75.481943 
L 64.3041 76.279527 
L 64.334829 76.497361 
L 64.442381 77.324259 
L 64.473111 77.550248 
L 64.50384 77.757258 
L 64.611393 78.600646 
L 64.657487 78.837016 
L 64.765039 79.757968 
L 64.811133 80.004163 
L 64.918686 80.894561 
L 64.949415 81.127415 
L 65.056968 81.981782 
L 65.103062 82.248024 
L 65.210614 83.187365 
L 65.256708 83.465152 
L 65.364261 84.341272 
L 65.410355 84.63058 
L 65.517908 85.543813 
L 65.564002 85.84564 
L 65.671554 86.742282 
L 65.717648 87.057127 
L 65.825201 87.963574 
L 65.871295 88.292266 
L 65.978847 89.208431 
L 66.024941 89.551867 
L 66.132494 90.445188 
L 66.178588 90.771132 
L 66.286141 91.704093 
L 66.332235 92.044827 
L 66.439787 92.950258 
L 66.485881 93.306296 
L 66.593434 94.216325 
L 66.654893 94.626119 
L 66.762445 95.618778 
L 66.823904 96.049372 
L 66.931456 97.01203 
L 66.992915 97.46434 
L 67.100468 98.433902 
L 67.161926 98.909514 
L 67.269479 99.885202 
L 67.346302 100.4318 
L 67.453855 101.461926 
L 67.530678 102.039892 
L 67.638231 103.029968 
L 67.715054 103.640934 
L 67.822607 104.63587 
L 67.914795 105.33717 
L 68.022347 106.337564 
L 68.099171 107.024524 
L 68.206723 108.026928 
L 68.298911 108.817957 
L 68.406464 109.822632 
L 68.514016 110.731708 
L 68.621569 111.738968 
L 68.744486 112.783088 
L 68.852039 113.79332 
L 69.005685 115.070148 
L 69.113238 116.086609 
L 69.236155 117.306285 
L 69.343708 118.321009 
L 69.528084 119.914134 
L 69.635637 121.027879 
L 69.850742 122.986526 
L 69.958294 124.018685 
L 70.280952 126.891276 
L 70.388505 127.957062 
L 70.849445 132.3861 
L 70.956997 133.536325 
L 74.22967 165.932361 
L 81.727624 241.013345 
L 83.663571 257.786476 
L 85.753165 272.363439 
L 86.243852 277.42 
L 86.243852 277.42 
" clip-path="url(#pca8ddfe436)" style="fill: none; stroke: #6a51a3; stroke-width: 1.5; stroke-linecap: round"/>
   </g>
   <g id="line2d_15">
    <path d="M 66.470517 20.821427 
L 71.003091 20.938671 
L 72.309087 21.171726 
L 72.41664 21.203522 
L 73.200238 21.462098 
L 73.30779 21.508833 
L 73.738001 21.702428 
L 73.845553 21.758404 
L 74.168211 21.932928 
L 74.275764 22.007202 
L 74.536963 22.168297 
L 74.644516 22.249187 
L 74.874986 22.405624 
L 74.982538 22.496267 
L 75.182279 22.647983 
L 75.289831 22.748559 
L 75.474207 22.895486 
L 75.58176 23.0031 
L 75.750771 23.148252 
L 75.858324 23.263041 
L 76.01197 23.4064 
L 76.119523 23.522235 
L 76.257805 23.663752 
L 76.365358 23.783805 
L 76.50364 23.923447 
L 76.611192 24.057382 
L 76.734109 24.19516 
L 76.841662 24.327152 
L 76.964579 24.466243 
L 77.072132 24.612532 
L 77.179685 24.746474 
L 77.287237 24.887628 
L 77.39479 25.02287 
L 77.502342 25.175373 
L 77.609895 25.311989 
L 77.717448 25.469407 
L 77.825 25.604067 
L 77.932553 25.769896 
L 78.024741 25.902575 
L 78.132294 26.066723 
L 78.224481 26.200792 
L 78.332034 26.36667 
L 78.424222 26.498677 
L 78.531775 26.680314 
L 78.623963 26.813784 
L 78.731515 27.000987 
L 78.823703 27.135969 
L 78.931256 27.325305 
L 79.023444 27.458232 
L 79.130996 27.653351 
L 79.223184 27.787818 
L 79.330737 27.996218 
L 79.422925 28.132315 
L 79.530478 28.335828 
L 79.607301 28.466096 
L 79.714853 28.660742 
L 79.791677 28.792505 
L 79.899229 28.989398 
L 79.976053 29.122691 
L 80.083605 29.321883 
L 80.160429 29.45288 
L 80.267981 29.662178 
L 80.344805 29.79475 
L 80.452357 30.010517 
L 80.52918 30.144721 
L 80.636733 30.363161 
L 80.713556 30.495033 
L 80.821109 30.716181 
L 80.897932 30.849698 
L 81.005485 31.077711 
L 81.082308 31.212934 
L 81.189861 31.439739 
L 81.266684 31.572533 
L 81.374237 31.802226 
L 81.45106 31.936721 
L 81.558613 32.177873 
L 81.635436 32.314155 
L 81.742989 32.562837 
L 81.819812 32.696647 
L 81.927365 32.9487 
L 82.004188 33.084336 
L 82.11174 33.339852 
L 82.173199 33.472919 
L 82.280752 33.70953 
L 82.357575 33.844336 
L 82.465128 34.10678 
L 82.541951 34.24348 
L 82.649504 34.509639 
L 82.726327 34.648287 
L 82.833879 34.918266 
L 82.895338 35.04952 
L 83.002891 35.294892 
L 83.064349 35.427894 
L 83.171902 35.676556 
L 83.248725 35.816179 
L 83.356278 36.097492 
L 83.417737 36.2294 
L 83.525289 36.480236 
L 83.586748 36.61393 
L 83.6943 36.873192 
L 83.755759 37.008744 
L 83.863312 37.266556 
L 83.92477 37.398891 
L 84.032323 37.670568 
L 84.093782 37.804795 
L 84.201334 38.05949 
L 84.262793 38.195564 
L 84.370345 38.464376 
L 84.431804 38.602399 
L 84.539357 38.87509 
L 84.600815 39.009719 
L 84.708368 39.291801 
L 84.769827 39.428416 
L 84.877379 39.703624 
L 84.938838 39.842229 
L 85.046391 40.121477 
L 85.107849 40.262132 
L 85.215402 40.54554 
L 85.27686 40.682582 
L 85.384413 40.964436 
L 85.445872 41.10351 
L 85.553424 41.389574 
L 85.614883 41.53074 
L 85.722436 41.815184 
L 85.783894 41.952492 
L 85.891447 42.247239 
L 85.952905 42.386647 
L 86.060458 42.667522 
L 86.121917 42.809003 
L 86.229469 43.106548 
L 86.290928 43.250228 
L 86.398481 43.546104 
L 86.459939 43.685661 
L 86.567492 43.986111 
L 86.62895 44.127841 
L 86.736503 44.426481 
L 86.797962 44.570421 
L 86.905514 44.873754 
L 86.966973 45.019974 
L 87.074526 45.334886 
L 87.135984 45.476722 
L 87.243537 45.783053 
L 87.304996 45.92714 
L 87.412548 46.231417 
L 87.474007 46.377792 
L 87.581559 46.686939 
L 87.643018 46.835675 
L 87.750571 47.157031 
L 87.812029 47.308244 
L 87.919582 47.620395 
L 87.981041 47.766753 
L 88.088593 48.07657 
L 88.150052 48.225293 
L 88.257604 48.540156 
L 88.319063 48.691321 
L 88.426616 48.996075 
L 88.488074 49.149681 
L 88.595627 49.467182 
L 88.657086 49.615523 
L 88.764638 49.938279 
L 88.826097 50.089096 
L 88.933649 50.417285 
L 88.995108 50.570662 
L 89.102661 50.888094 
L 89.164119 51.044029 
L 89.271672 51.366802 
L 89.333131 51.525382 
L 89.440683 51.845212 
L 89.502142 51.997971 
L 89.609695 52.323172 
L 89.671153 52.478518 
L 89.778706 52.80052 
L 89.840164 52.958494 
L 89.947717 53.268191 
L 90.009176 53.428782 
L 90.116728 53.761752 
L 90.178187 53.925152 
L 90.28574 54.24558 
L 90.347198 54.411783 
L 90.454751 54.719027 
L 90.516209 54.878604 
L 90.623762 55.219507 
L 90.685221 55.381915 
L 90.792773 55.719225 
L 90.854232 55.884511 
L 90.961785 56.19826 
L 91.023243 56.366352 
L 91.130796 56.695503 
L 91.192254 56.866559 
L 91.299807 57.191355 
L 91.361266 57.365419 
L 91.468818 57.706368 
L 91.530277 57.873155 
L 91.63783 58.209682 
L 91.699288 58.379445 
L 91.806841 58.722032 
L 91.883664 58.905718 
L 91.991217 59.254721 
L 92.052675 59.430836 
L 92.160228 59.752842 
L 92.221687 59.932069 
L 92.329239 60.259813 
L 92.406063 60.453704 
L 92.513615 60.822289 
L 92.590439 61.008382 
L 92.697991 61.372427 
L 92.774814 61.562155 
L 92.882367 61.93338 
L 92.943826 62.114754 
L 93.051378 62.456435 
L 93.112837 62.641175 
L 93.22039 62.989256 
L 93.297213 63.190083 
L 93.404766 63.570485 
L 93.481589 63.775459 
L 93.589141 64.137745 
L 93.665965 64.346849 
L 93.773517 64.703225 
L 93.850341 64.91653 
L 93.957893 65.307257 
L 94.034717 65.511476 
L 94.142269 65.896639 
L 94.219093 66.105136 
L 94.326645 66.498453 
L 94.403468 66.71141 
L 94.511021 67.084342 
L 94.587844 67.301733 
L 94.695397 67.682513 
L 94.77222 67.904527 
L 94.879773 68.293491 
L 94.956596 68.52033 
L 95.064149 68.887063 
L 95.140972 69.118689 
L 95.248525 69.47754 
L 95.340713 69.729864 
L 95.448265 70.128642 
L 95.525089 70.354416 
L 95.632641 70.712853 
L 95.709465 70.943316 
L 95.817017 71.292538 
L 95.89384 71.52775 
L 96.001393 71.901331 
L 96.093581 72.158878 
L 96.201134 72.558355 
L 96.277957 72.804282 
L 96.38551 73.177192 
L 96.477698 73.446572 
L 96.58525 73.828027 
L 96.677438 74.103651 
L 96.784991 74.512778 
L 96.877179 74.795129 
L 96.984731 75.175997 
L 97.076919 75.465021 
L 97.184472 75.854998 
L 97.27666 76.151018 
L 97.384212 76.53044 
L 97.4764 76.833588 
L 97.583953 77.242861 
L 97.676141 77.532886 
L 97.783694 77.910158 
L 97.875882 78.207081 
L 97.983434 78.615053 
L 98.075622 78.91944 
L 98.183175 79.315628 
L 98.290727 79.65004 
L 98.39828 80.033838 
L 98.505833 80.376824 
L 98.613385 80.770591 
L 98.705573 81.099 
L 98.813126 81.502931 
L 98.936043 81.888397 
L 99.043596 82.303741 
L 99.151148 82.67531 
L 99.258701 83.077056 
L 99.381618 83.48454 
L 99.489171 83.871913 
L 99.612088 84.290992 
L 99.719641 84.689547 
L 99.857923 85.148076 
L 99.965475 85.558871 
L 100.119122 86.059761 
L 100.226675 86.455513 
L 100.395686 87.001537 
L 100.503238 87.410664 
L 100.656885 87.915478 
L 100.764438 88.307629 
L 100.918084 88.82871 
L 101.025637 89.233705 
L 101.194648 89.804129 
L 101.302201 90.223311 
L 101.471212 90.814073 
L 101.578765 91.181209 
L 101.778505 91.861077 
L 101.886058 92.27691 
L 102.101163 93.019527 
L 102.208716 93.416369 
L 102.439186 94.227003 
L 102.546738 94.641122 
L 102.900125 95.802072 
L 103.007678 96.199794 
L 103.330336 97.343842 
L 103.437888 97.763807 
L 103.83737 99.150799 
L 103.944922 99.553353 
L 104.421227 101.270676 
L 104.528779 101.655979 
L 105.266283 104.349102 
L 109.67594 119.265572 
L 110.874384 123.108152 
L 114.22388 133.992725 
L 114.607996 135.223583 
L 117.465823 144.637136 
L 118.080409 146.676295 
L 118.694996 148.619929 
L 126.162221 173.476945 
L 127.068736 176.65089 
L 128.344002 180.993848 
L 129.112235 183.441298 
L 131.017453 190.130176 
L 135.411746 205.434213 
L 135.841956 207.337324 
L 137.670351 213.952034 
L 138.976347 219.404003 
L 139.882862 222.577947 
L 140.727918 226.149613 
L 141.818809 230.233151 
L 146.044091 247.898107 
L 147.85712 257.499707 
L 151.206616 272.07667 
L 152.00272 277.42 
L 152.00272 277.42 
" clip-path="url(#pca8ddfe436)" style="fill: none; stroke: #d1701f; stroke-width: 1.5; stroke-linecap: round"/>
   </g>
   <g id="line2d_16">
    <path d="M 61.33872 20.821413 
L 66.900727 20.937494 
L 68.421828 21.188249 
L 69.312979 21.467228 
L 69.420531 21.513508 
L 69.881471 21.71104 
L 69.989024 21.766479 
L 70.311682 21.939319 
L 70.419234 22.001091 
L 70.695798 22.166476 
L 70.803351 22.237649 
L 71.049185 22.395455 
L 71.156738 22.482173 
L 71.371843 22.635319 
L 71.479396 22.72579 
L 71.679136 22.877216 
L 71.786689 22.980646 
L 71.971065 23.13037 
L 72.078617 23.237799 
L 72.232264 23.379608 
L 72.339817 23.487981 
L 72.493463 23.631043 
L 72.601016 23.746637 
L 72.739298 23.887858 
L 72.84685 24.010818 
L 72.985132 24.150181 
L 73.092685 24.283847 
L 73.230967 24.424553 
L 73.33852 24.569178 
L 73.461437 24.708064 
L 73.56899 24.847629 
L 73.691907 24.98461 
L 73.799459 25.135396 
L 73.922377 25.273769 
L 74.029929 25.432735 
L 74.137482 25.569224 
L 74.245035 25.719784 
L 74.352587 25.854285 
L 74.46014 26.019918 
L 74.567692 26.155845 
L 74.675245 26.330096 
L 74.767433 26.464069 
L 74.874986 26.629826 
L 74.967174 26.761737 
L 75.074726 26.936238 
L 75.166914 27.069576 
L 75.274467 27.249515 
L 75.366655 27.384329 
L 75.474207 27.569849 
L 75.566395 27.702592 
L 75.673948 27.890199 
L 75.766136 28.024444 
L 75.873689 28.22151 
L 75.965876 28.357326 
L 76.073429 28.564124 
L 76.165617 28.697861 
L 76.27317 28.910901 
L 76.365358 29.046277 
L 76.47291 29.265743 
L 76.549734 29.399001 
L 76.657286 29.605826 
L 76.734109 29.736823 
L 76.841662 29.953902 
L 76.918485 30.086511 
L 77.026038 30.306277 
L 77.102861 30.440537 
L 77.210414 30.663057 
L 77.287237 30.795002 
L 77.39479 31.028394 
L 77.471613 31.162044 
L 77.579166 31.406658 
L 77.655989 31.542094 
L 77.763542 31.790002 
L 77.840365 31.923106 
L 77.947918 32.178567 
L 78.024741 32.3135 
L 78.132294 32.572496 
L 78.193752 32.700738 
L 78.301305 32.937357 
L 78.378128 33.071594 
L 78.485681 33.337596 
L 78.547139 33.469331 
L 78.654692 33.712438 
L 78.716151 33.84146 
L 78.823703 34.096768 
L 78.885162 34.227543 
L 78.992714 34.486345 
L 79.054173 34.618922 
L 79.161726 34.885939 
L 79.223184 35.020391 
L 79.330737 35.286518 
L 79.392196 35.418162 
L 79.499748 35.688042 
L 79.561207 35.821555 
L 79.66876 36.100123 
L 79.730218 36.235583 
L 79.837771 36.513344 
L 79.899229 36.645865 
L 80.006782 36.9227 
L 80.068241 37.05714 
L 80.175793 37.358183 
L 80.237252 37.494695 
L 80.344805 37.785051 
L 80.406263 37.918481 
L 80.513816 38.218401 
L 80.575274 38.353878 
L 80.682827 38.653155 
L 80.744286 38.790717 
L 80.851838 39.094636 
L 80.913297 39.228961 
L 81.02085 39.537609 
L 81.082308 39.674041 
L 81.189861 39.982037 
L 81.251319 40.120616 
L 81.358872 40.439114 
L 81.420331 40.57429 
L 81.527883 40.897922 
L 81.589342 41.035294 
L 81.696895 41.370032 
L 81.758353 41.509701 
L 81.865906 41.832378 
L 81.927365 41.974334 
L 82.034917 42.296341 
L 82.096376 42.434604 
L 82.203928 42.77407 
L 82.265387 42.914673 
L 82.37294 43.241331 
L 82.434398 43.38426 
L 82.541951 43.728979 
L 82.60341 43.868041 
L 82.710962 44.205863 
L 82.772421 44.347274 
L 82.879973 44.697375 
L 82.941432 44.841249 
L 83.048985 45.190864 
L 83.110443 45.337254 
L 83.217996 45.67953 
L 83.279455 45.821669 
L 83.387007 46.169841 
L 83.448466 46.31445 
L 83.556018 46.668724 
L 83.617477 46.81589 
L 83.72503 47.183601 
L 83.786488 47.333453 
L 83.894041 47.678957 
L 83.9555 47.82416 
L 84.063052 48.183064 
L 84.124511 48.330862 
L 84.232064 48.681231 
L 84.293522 48.831639 
L 84.401075 49.180616 
L 84.462533 49.333686 
L 84.570086 49.696667 
L 84.631545 49.844725 
L 84.739097 50.198482 
L 84.800556 50.349173 
L 84.908109 50.70928 
L 84.969567 50.8627 
L 85.07712 51.221188 
L 85.138578 51.377393 
L 85.246131 51.734099 
L 85.30759 51.893145 
L 85.415142 52.247897 
L 85.461236 52.392751 
L 85.568789 52.736511 
L 85.630248 52.892565 
L 85.7378 53.260044 
L 85.799259 53.418995 
L 85.906811 53.766457 
L 85.96827 53.928262 
L 86.075823 54.291149 
L 86.137281 54.455965 
L 86.244834 54.816368 
L 86.306293 54.974902 
L 86.413845 55.33249 
L 86.475304 55.493926 
L 86.582857 55.858119 
L 86.644315 56.022565 
L 86.751868 56.383786 
L 86.813326 56.551298 
L 86.920879 56.909309 
L 86.982338 57.079944 
L 87.08989 57.434497 
L 87.151349 57.608311 
L 87.258902 57.959147 
L 87.32036 58.125752 
L 87.427913 58.493625 
L 87.489371 58.663389 
L 87.596924 59.016748 
L 87.658383 59.189662 
L 87.765935 59.538665 
L 87.827394 59.71478 
L 87.934947 60.059128 
L 88.01177 60.249743 
L 88.119323 60.634836 
L 88.196146 60.829349 
L 88.303698 61.21076 
L 88.365157 61.385829 
L 88.47271 61.739221 
L 88.534168 61.917572 
L 88.641721 62.277654 
L 88.718544 62.471571 
L 88.826097 62.851079 
L 88.90292 63.048946 
L 89.010473 63.423687 
L 89.087296 63.625579 
L 89.194849 63.982364 
L 89.271672 64.188263 
L 89.379225 64.565283 
L 89.456048 64.775446 
L 89.563601 65.133644 
L 89.640424 65.334603 
L 89.747976 65.699935 
L 89.8248 65.904936 
L 89.932352 66.277692 
L 90.009176 66.486902 
L 90.116728 66.867388 
L 90.193552 67.080983 
L 90.301104 67.455043 
L 90.377928 67.673099 
L 90.48548 68.025491 
L 90.562303 68.247967 
L 90.669856 68.607576 
L 90.746679 68.834655 
L 90.854232 69.18639 
L 90.94642 69.433658 
L 91.053973 69.792902 
L 91.146161 70.045505 
L 91.253713 70.428653 
L 91.330536 70.654555 
L 91.438089 70.996796 
L 91.514912 71.227259 
L 91.622465 71.576481 
L 91.699288 71.811693 
L 91.806841 72.168187 
L 91.899029 72.425579 
L 92.006581 72.789875 
L 92.098769 73.052963 
L 92.206322 73.389728 
L 92.29851 73.658431 
L 92.406063 73.984251 
L 92.498251 74.258639 
L 92.605803 74.591425 
L 92.713356 74.890529 
L 92.820908 75.249835 
L 92.913096 75.536728 
L 93.020649 75.884851 
L 93.128202 76.1979 
L 93.235754 76.534321 
L 93.343307 76.854617 
L 93.45086 77.198918 
L 93.573777 77.526805 
L 93.681329 77.900237 
L 93.788882 78.215208 
L 93.896435 78.57643 
L 94.019352 78.920631 
L 94.126905 79.269034 
L 94.265186 79.643934 
L 94.372739 80.001338 
L 94.495656 80.363275 
L 94.603209 80.706812 
L 94.726126 81.077867 
L 94.833679 81.406546 
L 94.987326 81.834774 
L 95.094878 82.196606 
L 95.248525 82.636948 
L 95.356077 83.009164 
L 95.509724 83.462327 
L 95.617277 83.81983 
L 95.786288 84.312291 
L 95.89384 84.680673 
L 96.078216 85.215323 
L 96.185769 85.568295 
L 96.35478 86.092161 
L 96.462333 86.456218 
L 96.677438 87.083097 
L 96.877179 87.665189 
L 96.984731 88.02023 
L 97.184472 88.621962 
L 97.292025 88.958404 
L 97.491765 89.580469 
L 97.599318 89.960323 
L 97.875882 90.768307 
L 97.983434 91.131198 
L 98.259998 91.973529 
L 98.367551 92.317548 
L 98.751667 93.447139 
L 98.85922 93.809507 
L 99.304795 95.153508 
L 99.796464 96.644392 
L 99.904017 97.009205 
L 100.549332 99.037789 
L 101.655588 102.527811 
L 116.328838 150.189499 
L 116.881966 152.092609 
L 117.711658 154.742189 
L 118.249421 156.327935 
L 119.017654 158.70732 
L 120.492661 163.313713 
L 121.091883 165.030687 
L 121.952304 167.333233 
L 123.181477 170.904899 
L 124.349191 174.368063 
L 125.73201 178.310332 
L 127.990615 184.590037 
L 129.511716 188.337852 
L 131.908603 193.842568 
L 134.812524 200.669247 
L 136.533366 203.93407 
L 138.377125 207.621267 
L 140.451354 211.856593 
L 146.53576 222.861891 
L 154.632936 235.284164 
L 159.257698 241.01052 
L 165.818408 248.18205 
L 183.165109 257.78365 
L 311.866529 277.42 
L 311.866529 277.42 
" clip-path="url(#pca8ddfe436)" style="fill: none; stroke: #c44e52; stroke-width: 1.5; stroke-linecap: round"/>
   </g>
   <g id="line2d_17">
    <path d="M 46.435 106.306471 
L 508.688478 106.306471 
" clip-path="url(#pca8ddfe436)" style="fill: none; stroke-dasharray: 0.7,1.155; stroke-dashoffset: 0; stroke: #999999; stroke-width: 0.7"/>
   </g>
   <g id="line2d_18">
    <path d="M 46.435 217.940293 
L 508.688478 217.940293 
" clip-path="url(#pca8ddfe436)" style="fill: none; stroke-dasharray: 0.7,1.155; stroke-dashoffset: 0; stroke: #999999; stroke-width: 0.7"/>
   </g>
   <g id="patch_3">
    <path d="M 46.435 237.72 
L 46.435 20.82 
" style="fill: none; stroke: #bbbbbb; stroke-width: 0.8; stroke-linejoin: miter; stroke-linecap: square"/>
   </g>
   <g id="patch_4">
    <path d="M 508.688478 237.72 
L 508.688478 20.82 
" style="fill: none; stroke: #bbbbbb; stroke-width: 0.8; stroke-linejoin: miter; stroke-linecap: square"/>
   </g>
   <g id="patch_5">
    <path d="M 46.435 237.72 
L 508.688478 237.72 
" style="fill: none; stroke: #bbbbbb; stroke-width: 0.8; stroke-linejoin: miter; stroke-linecap: square"/>
   </g>
   <g id="patch_6">
    <path d="M 46.435 20.82 
L 508.688478 20.82 
" style="fill: none; stroke: #bbbbbb; stroke-width: 0.8; stroke-linejoin: miter; stroke-linecap: square"/>
   </g>
   <g id="text_14">
    <!-- CVaR$_{95}$ depth -->
    <g style="fill: #666666" transform="translate(461.97721 104.521471) scale(0.075 -0.075)">
     <defs>
      <path id="STIXTwoText-5" d="M 2330 -70 
Q 1670 -70 1222 211 
Q 774 493 547 985 
Q 320 1478 320 2099 
Q 320 2797 589 3283 
Q 858 3770 1331 4026 
Q 1805 4282 2419 4282 
Q 2758 4282 2963 4224 
Q 3168 4166 3289 4108 
Q 3411 4051 3488 4051 
Q 3565 4051 3606 4118 
Q 3648 4186 3706 4282 
L 3898 4282 
L 3898 2816 
L 3680 2816 
Q 3578 3443 3248 3724 
Q 2918 4006 2426 4006 
Q 1734 4006 1360 3513 
Q 986 3021 986 2163 
Q 986 1523 1181 1120 
Q 1376 717 1721 525 
Q 2067 333 2515 333 
Q 2957 333 3289 496 
Q 3622 659 3891 954 
L 4045 819 
Q 3872 563 3632 361 
Q 3392 160 3072 45 
Q 2752 -70 2330 -70 
z
" transform="scale(0.015625)"/>
      <path id="STIXTwoText-18" d="M 2330 -32 
L 2074 -32 
L 608 3430 
Q 518 3648 428 3773 
Q 339 3898 224 3955 
Q 109 4013 -64 4013 
L -64 4205 
L 1651 4205 
L 1651 4013 
Q 1568 4013 1465 4000 
Q 1363 3987 1289 3939 
Q 1216 3891 1216 3770 
Q 1216 3642 1325 3379 
L 2099 1478 
L 2349 806 
L 2381 806 
L 2605 1446 
L 3411 3482 
Q 3443 3552 3462 3632 
Q 3482 3712 3482 3795 
Q 3482 3923 3379 3968 
Q 3277 4013 3053 4013 
L 3053 4205 
L 4397 4205 
L 4397 4013 
Q 4262 4013 4169 3984 
Q 4077 3955 4003 3868 
Q 3930 3782 3846 3616 
Q 3763 3450 3648 3181 
L 2330 -32 
z
" transform="scale(0.015625)"/>
      <path id="STIXTwoText-14" d="M 2074 0 
L 275 0 
L 275 192 
Q 518 192 640 230 
Q 762 269 803 397 
Q 845 525 845 794 
L 845 3539 
Q 845 3718 809 3820 
Q 774 3923 652 3968 
Q 531 4013 275 4013 
L 275 4205 
L 1850 4205 
Q 2330 4205 2704 4112 
Q 3078 4019 3289 3792 
Q 3501 3565 3501 3155 
Q 3501 2797 3337 2573 
Q 3174 2349 2928 2224 
Q 2682 2099 2419 2035 
L 2419 2010 
Q 2528 1946 2665 1789 
Q 2803 1632 3020 1328 
Q 3238 1024 3590 518 
Q 3744 307 3888 249 
Q 4032 192 4250 192 
L 4250 0 
L 3194 0 
Q 2931 397 2755 662 
Q 2579 928 2457 1110 
Q 2336 1293 2240 1433 
Q 2144 1574 2048 1715 
Q 1952 1862 1872 1894 
Q 1792 1926 1619 1926 
L 1440 1926 
L 1440 794 
Q 1440 531 1485 400 
Q 1530 269 1664 230 
Q 1798 192 2074 192 
L 2074 0 
z
M 1440 2176 
L 1683 2170 
Q 2035 2189 2297 2285 
Q 2560 2381 2707 2585 
Q 2854 2790 2854 3130 
Q 2854 3514 2617 3734 
Q 2381 3955 1862 3955 
Q 1760 3955 1651 3952 
Q 1542 3949 1440 3936 
L 1440 2176 
z
" transform="scale(0.015625)"/>
      <path id="STIXGeneral-Regular-1c" d="M 378 -141 
L 358 -13 
Q 1094 115 1603 608 
Q 2112 1101 2304 1882 
Q 1933 1517 1344 1517 
Q 826 1517 509 1875 
Q 192 2234 192 2816 
Q 192 3462 573 3894 
Q 954 4326 1523 4326 
Q 2131 4326 2528 3840 
Q 2938 3328 2938 2522 
Q 2938 1958 2742 1462 
Q 2547 966 2170 621 
Q 1773 262 1395 105 
Q 1018 -51 378 -141 
z
M 2317 2272 
L 2317 2522 
Q 2317 4147 1472 4147 
Q 1171 4147 1005 3930 
Q 909 3802 845 3546 
Q 781 3290 781 3034 
Q 781 2464 995 2128 
Q 1210 1792 1568 1792 
Q 1824 1792 2070 1917 
Q 2317 2042 2317 2272 
z
" transform="scale(0.015625)"/>
      <path id="STIXGeneral-Regular-18" d="M 2803 4358 
L 2573 3814 
Q 2534 3731 2400 3731 
L 1158 3731 
L 902 3187 
Q 1606 3053 1920 2896 
Q 2234 2739 2502 2368 
Q 2726 2061 2726 1555 
Q 2726 1094 2576 780 
Q 2426 467 2099 224 
Q 1664 -90 1011 -90 
Q 646 -90 422 19 
Q 198 128 198 307 
Q 198 550 486 550 
Q 717 550 960 352 
Q 1210 147 1414 147 
Q 1747 147 2012 480 
Q 2278 813 2278 1229 
Q 2278 1843 1850 2189 
Q 1293 2637 486 2637 
Q 410 2637 410 2688 
L 416 2720 
L 1114 4237 
L 2438 4237 
Q 2547 4237 2608 4269 
Q 2669 4301 2746 4403 
L 2803 4358 
z
" transform="scale(0.015625)"/>
      <path id="STIXTwoText-102" d="M 1306 -51 
Q 947 -51 700 141 
Q 454 333 332 662 
Q 211 992 211 1402 
Q 211 1933 409 2313 
Q 608 2694 944 2899 
Q 1280 3104 1683 3104 
Q 1837 3104 1987 3065 
Q 2138 3027 2278 2950 
L 2304 2950 
L 2304 3789 
Q 2304 4000 2256 4064 
Q 2208 4128 2022 4128 
Q 1978 4128 1917 4121 
Q 1856 4115 1856 4115 
L 1856 4294 
L 2662 4518 
L 2835 4518 
L 2835 685 
Q 2835 435 2905 361 
Q 2976 288 3155 288 
L 3290 288 
L 3290 115 
L 2470 -32 
L 2323 -32 
L 2323 410 
L 2298 410 
Q 2118 250 1872 99 
Q 1626 -51 1306 -51 
z
M 1606 410 
Q 1830 410 1984 470 
Q 2138 531 2304 646 
L 2304 2336 
Q 2266 2534 2118 2691 
Q 1971 2848 1670 2848 
Q 1267 2848 1017 2553 
Q 768 2259 768 1651 
Q 768 992 982 701 
Q 1197 410 1606 410 
z
" transform="scale(0.015625)"/>
      <path id="STIXTwoText-10f" d="M 1760 -1408 
L 141 -1408 
L 141 -1229 
Q 442 -1229 525 -1129 
Q 608 -1030 608 -762 
L 608 2406 
Q 608 2592 566 2662 
Q 525 2733 365 2733 
Q 301 2733 230 2726 
Q 160 2720 160 2720 
L 160 2906 
L 966 3085 
L 1126 3085 
L 1126 2547 
L 1146 2547 
Q 1376 2816 1616 2960 
Q 1856 3104 2138 3104 
Q 2458 3104 2698 2921 
Q 2938 2739 3075 2416 
Q 3213 2093 3213 1670 
Q 3213 1126 3024 739 
Q 2835 352 2515 144 
Q 2195 -64 1811 -64 
Q 1632 -64 1469 -22 
Q 1306 19 1165 115 
L 1139 115 
L 1139 -723 
Q 1139 -928 1190 -1037 
Q 1242 -1146 1376 -1184 
Q 1510 -1222 1760 -1222 
L 1760 -1408 
z
M 1843 186 
Q 2182 186 2406 506 
Q 2630 826 2630 1491 
Q 2630 2099 2432 2384 
Q 2234 2669 1875 2669 
Q 1619 2669 1424 2534 
Q 1229 2400 1139 2278 
L 1139 608 
Q 1203 544 1299 441 
Q 1395 339 1529 262 
Q 1664 186 1843 186 
z
" transform="scale(0.015625)"/>
      <path id="STIXTwoText-106" d="M 3558 0 
L 2086 0 
L 2086 186 
Q 2310 186 2406 230 
Q 2502 275 2528 371 
Q 2554 467 2554 621 
L 2554 1728 
Q 2554 1990 2515 2211 
Q 2477 2432 2352 2563 
Q 2227 2694 1965 2694 
Q 1766 2694 1561 2588 
Q 1357 2483 1094 2227 
L 1101 2579 
L 1190 2579 
Q 1491 2861 1731 2982 
Q 1971 3104 2227 3104 
Q 2502 3104 2672 2995 
Q 2842 2886 2931 2710 
Q 3021 2534 3053 2326 
Q 3085 2118 3085 1920 
L 3085 646 
Q 3085 390 3171 288 
Q 3258 186 3558 186 
L 3558 0 
z
M 1645 0 
L 192 0 
L 192 186 
Q 442 186 541 256 
Q 640 326 640 595 
L 640 3872 
Q 640 4038 547 4083 
Q 454 4128 326 4128 
Q 250 4128 195 4121 
Q 141 4115 141 4115 
L 141 4294 
L 998 4518 
L 1171 4518 
L 1171 621 
Q 1171 454 1196 358 
Q 1222 262 1324 224 
Q 1427 186 1645 186 
L 1645 0 
z
" transform="scale(0.015625)"/>
     </defs>
     <use xlink:href="#STIXTwoText-5" transform="translate(0 0.40625)"/>
     <use xlink:href="#STIXTwoText-18" transform="translate(66.999939 0.40625)"/>
     <use xlink:href="#STIXTwoText-ff" transform="translate(134.999878 0.40625)"/>
     <use xlink:href="#STIXTwoText-14" transform="translate(182.999832 0.40625)"/>
     <use xlink:href="#STIXGeneral-Regular-1c" transform="translate(250.474765 -14.59375) scale(0.7)"/>
     <use xlink:href="#STIXGeneral-Regular-18" transform="translate(285.474733 -14.59375) scale(0.7)"/>
     <use xlink:href="#STIXTwoText-1" transform="translate(324.974701 0.40625)"/>
     <use xlink:href="#STIXTwoText-102" transform="translate(348.474686 0.40625)"/>
     <use xlink:href="#STIXTwoText-103" transform="translate(402.374634 0.40625)"/>
     <use xlink:href="#STIXTwoText-10f" transform="translate(448.774597 0.40625)"/>
     <use xlink:href="#STIXTwoText-113" transform="translate(502.474548 0.40625)"/>
     <use xlink:href="#STIXTwoText-106" transform="translate(533.974518 0.40625)"/>
    </g>
   </g>
   <g id="text_15">
    <!-- CVaR$_{99.9}$ depth -->
    <g style="fill: #666666" transform="translate(458.00221 216.155293) scale(0.075 -0.075)">
     <defs>
      <path id="STIXGeneral-Regular-11" d="M 1158 275 
Q 1158 134 1052 32 
Q 947 -70 800 -70 
Q 653 -70 550 32 
Q 448 134 448 281 
Q 448 429 553 534 
Q 659 640 806 640 
Q 947 640 1052 531 
Q 1158 422 1158 275 
z
" transform="scale(0.015625)"/>
     </defs>
     <use xlink:href="#STIXTwoText-5" transform="translate(0 0.40625)"/>
     <use xlink:href="#STIXTwoText-18" transform="translate(66.999939 0.40625)"/>
     <use xlink:href="#STIXTwoText-ff" transform="translate(134.999878 0.40625)"/>
     <use xlink:href="#STIXTwoText-14" transform="translate(182.999832 0.40625)"/>
     <use xlink:href="#STIXGeneral-Regular-1c" transform="translate(250.474765 -14.59375) scale(0.7)"/>
     <use xlink:href="#STIXGeneral-Regular-1c" transform="translate(285.474733 -14.59375) scale(0.7)"/>
     <use xlink:href="#STIXGeneral-Regular-11" transform="translate(320.474701 -14.59375) scale(0.7)"/>
     <use xlink:href="#STIXGeneral-Regular-1c" transform="translate(337.97468 -14.59375) scale(0.7)"/>
     <use xlink:href="#STIXTwoText-1" transform="translate(377.474648 0.40625)"/>
     <use xlink:href="#STIXTwoText-102" transform="translate(400.974632 0.40625)"/>
     <use xlink:href="#STIXTwoText-103" transform="translate(454.87458 0.40625)"/>
     <use xlink:href="#STIXTwoText-10f" transform="translate(501.274544 0.40625)"/>
     <use xlink:href="#STIXTwoText-113" transform="translate(554.974495 0.40625)"/>
     <use xlink:href="#STIXTwoText-106" transform="translate(586.474464 0.40625)"/>
    </g>
   </g>
   <g id="text_16">
    <!-- Confirmatory pool ($10 \times 100\,000$ scenarios): the gap grows with tail depth -->
    <g style="fill: #262626" transform="translate(46.435 14.82) scale(0.1 -0.1)">
     <defs>
      <path id="STIXTwoText-104" d="M 1837 0 
L 115 0 
L 115 186 
Q 352 186 464 227 
Q 576 269 614 390 
Q 653 512 653 762 
L 653 2797 
Q 653 3162 669 3395 
Q 685 3629 729 3789 
Q 774 3949 858 4096 
Q 986 4320 1181 4441 
Q 1376 4563 1709 4563 
Q 1920 4563 2080 4512 
Q 2240 4461 2333 4361 
Q 2426 4262 2426 4115 
Q 2426 3974 2349 3907 
Q 2272 3840 2163 3840 
Q 2042 3840 1965 3920 
Q 1888 4000 1818 4090 
Q 1754 4179 1680 4252 
Q 1606 4326 1491 4326 
Q 1312 4326 1248 4163 
Q 1184 4000 1184 3597 
L 1184 762 
Q 1184 512 1235 390 
Q 1286 269 1427 227 
Q 1568 186 1837 186 
L 1837 0 
z
M 1965 2726 
L 166 2726 
L 166 2995 
L 1965 2995 
L 1965 2726 
z
" transform="scale(0.015625)"/>
      <path id="STIXTwoText-118" d="M 493 -1504 
Q 294 -1504 166 -1427 
Q 38 -1350 38 -1171 
Q 38 -1024 124 -960 
Q 211 -896 333 -896 
Q 499 -896 630 -966 
Q 762 -1037 826 -1037 
Q 915 -1037 1017 -899 
Q 1120 -762 1219 -570 
Q 1318 -378 1379 -208 
Q 1440 -38 1440 32 
Q 1440 96 1373 262 
Q 1306 429 1248 557 
L 307 2611 
Q 262 2720 179 2781 
Q 96 2842 -77 2842 
L -77 3027 
L 1293 3027 
L 1293 2835 
Q 1075 2835 1001 2793 
Q 928 2752 928 2669 
Q 928 2605 960 2531 
Q 992 2458 1018 2387 
L 1645 979 
L 1728 666 
L 1773 666 
L 2394 2522 
Q 2406 2554 2416 2602 
Q 2426 2650 2426 2682 
Q 2426 2778 2326 2810 
Q 2227 2842 2067 2842 
L 2067 3027 
L 3155 3027 
L 3155 2842 
Q 2963 2842 2873 2755 
Q 2784 2669 2714 2483 
L 1715 -141 
Q 1530 -627 1354 -928 
Q 1178 -1229 973 -1366 
Q 768 -1504 493 -1504 
z
" transform="scale(0.015625)"/>
      <path id="STIXGeneral-Regular-13" d="M 3046 2112 
Q 3046 1683 2963 1302 
Q 2880 922 2717 602 
Q 2554 282 2266 96 
Q 1978 -90 1600 -90 
Q 1210 -90 915 108 
Q 621 307 461 640 
Q 301 973 227 1350 
Q 154 1728 154 2150 
Q 154 2746 301 3222 
Q 448 3699 790 4012 
Q 1133 4326 1626 4326 
Q 2253 4326 2649 3712 
Q 3046 3098 3046 2112 
z
M 2432 2080 
Q 2432 3091 2217 3625 
Q 2003 4160 1587 4160 
Q 1190 4160 979 3622 
Q 768 3085 768 2106 
Q 768 1120 979 598 
Q 1190 77 1600 77 
Q 2003 77 2217 598 
Q 2432 1120 2432 2080 
z
" transform="scale(0.015625)"/>
      <path id="STIXGeneral-Regular-99" d="M 3821 141 
L 3526 -160 
L 2048 1312 
L 570 -160 
L 275 134 
L 1747 1613 
L 275 3091 
L 576 3386 
L 2048 1914 
L 3526 3386 
L 3821 3098 
L 2349 1613 
L 3821 141 
z
" transform="scale(0.015625)"/>
      <path id="STIXTwoText-724" d="M 838 -51 
Q 646 -51 553 57 
Q 461 166 461 326 
Q 461 493 563 611 
Q 666 730 845 730 
Q 1030 730 1132 608 
Q 1235 486 1235 320 
Q 1235 173 1132 61 
Q 1030 -51 838 -51 
z
M 838 2279 
Q 646 2279 553 2387 
Q 461 2496 461 2656 
Q 461 2823 563 2941 
Q 666 3060 845 3060 
Q 1030 3060 1132 2938 
Q 1235 2816 1235 2650 
Q 1235 2503 1132 2391 
Q 1030 2279 838 2279 
z
" transform="scale(0.015625)"/>
      <path id="STIXTwoText-105" d="M 1222 -1504 
Q 806 -1504 566 -1401 
Q 326 -1299 230 -1136 
Q 134 -973 134 -800 
Q 134 -640 265 -464 
Q 397 -288 653 -38 
L 653 32 
L 845 -6 
Q 723 -211 678 -342 
Q 634 -474 634 -582 
Q 634 -858 870 -998 
Q 1107 -1139 1594 -1139 
Q 1971 -1139 2204 -1043 
Q 2438 -947 2544 -806 
Q 2650 -666 2650 -531 
Q 2650 -358 2538 -265 
Q 2426 -173 2253 -134 
Q 2080 -96 1888 -86 
Q 1696 -77 1536 -77 
Q 1248 -70 1101 -70 
Q 954 -70 890 -67 
Q 826 -64 774 -64 
L 710 -32 
Q 614 0 518 70 
Q 422 141 358 240 
Q 294 339 294 448 
Q 294 563 361 688 
Q 429 813 550 937 
Q 672 1062 819 1178 
L 819 1235 
L 986 1114 
Q 954 1082 909 998 
Q 864 915 832 822 
Q 800 730 800 666 
Q 800 570 867 515 
Q 934 461 1097 435 
Q 1261 410 1555 410 
Q 1958 410 2281 371 
Q 2605 333 2790 173 
Q 2976 13 2976 -352 
Q 2976 -672 2819 -893 
Q 2662 -1114 2403 -1248 
Q 2144 -1382 1833 -1443 
Q 1523 -1504 1222 -1504 
z
M 1517 998 
Q 1350 998 1206 1030 
Q 1062 1062 928 1107 
L 858 1171 
Q 691 1261 572 1382 
Q 454 1504 390 1673 
Q 326 1843 326 2061 
Q 326 2381 473 2614 
Q 621 2848 883 2976 
Q 1146 3104 1485 3104 
Q 1677 3104 1846 3069 
Q 2016 3034 2163 2963 
Q 2310 2893 2419 2797 
L 2419 2630 
Q 2490 2534 2570 2374 
Q 2650 2214 2650 1971 
Q 2650 1677 2506 1456 
Q 2362 1235 2109 1116 
Q 1856 998 1517 998 
z
M 1523 1222 
Q 1766 1222 1923 1388 
Q 2080 1555 2080 2010 
Q 2080 2400 1913 2637 
Q 1747 2874 1440 2874 
Q 1190 2874 1040 2682 
Q 890 2490 890 2086 
Q 890 1677 1050 1449 
Q 1210 1222 1523 1222 
z
M 3021 2989 
L 3021 2643 
L 2330 2662 
L 2106 2938 
L 3021 2989 
z
" transform="scale(0.015625)"/>
      <path id="STIXTwoText-116" d="M 3450 -38 
L 3142 -38 
L 2432 1914 
L 2342 2093 
L 2240 2374 
Q 2163 2586 2096 2685 
Q 2029 2784 1939 2813 
Q 1850 2842 1709 2842 
L 1709 3027 
L 3046 3027 
L 3046 2842 
Q 2867 2842 2796 2800 
Q 2726 2758 2726 2682 
Q 2726 2624 2742 2557 
Q 2758 2490 2784 2419 
L 3302 1018 
L 3418 646 
L 3456 646 
L 3584 1018 
L 4090 2451 
Q 4096 2477 4112 2537 
Q 4128 2598 4128 2682 
Q 4128 2771 4038 2806 
Q 3949 2842 3770 2842 
L 3770 3027 
L 4877 3027 
L 4877 2842 
Q 4691 2842 4595 2755 
Q 4499 2669 4403 2419 
L 3450 -38 
z
M 1690 -38 
L 1395 -38 
L 435 2374 
Q 352 2573 281 2672 
Q 211 2771 121 2806 
Q 32 2842 -109 2842 
L -109 3027 
L 1267 3027 
L 1267 2842 
Q 1075 2842 1001 2800 
Q 928 2758 928 2682 
Q 928 2618 950 2560 
Q 973 2502 998 2432 
L 1555 1018 
L 1670 646 
L 1715 646 
L 1850 1018 
L 2336 2246 
L 2547 1824 
L 2438 1824 
L 1690 -38 
z
" transform="scale(0.015625)"/>
     </defs>
     <use xlink:href="#STIXTwoText-5"/>
     <use xlink:href="#STIXTwoText-10e" transform="translate(66.999939 0)"/>
     <use xlink:href="#STIXTwoText-10d" transform="translate(118.399887 0)"/>
     <use xlink:href="#STIXTwoText-104" transform="translate(175.999832 0)"/>
     <use xlink:href="#STIXTwoText-107" transform="translate(206.699799 0)"/>
     <use xlink:href="#STIXTwoText-111" transform="translate(235.199768 0)"/>
     <use xlink:href="#STIXTwoText-10c" transform="translate(273.199738 0)"/>
     <use xlink:href="#STIXTwoText-ff" transform="translate(358.399658 0)"/>
     <use xlink:href="#STIXTwoText-113" transform="translate(406.399612 0)"/>
     <use xlink:href="#STIXTwoText-10e" transform="translate(437.899582 0)"/>
     <use xlink:href="#STIXTwoText-111" transform="translate(489.29953 0)"/>
     <use xlink:href="#STIXTwoText-118" transform="translate(527.2995 0)"/>
     <use xlink:href="#STIXTwoText-1" transform="translate(575.599457 0)"/>
     <use xlink:href="#STIXTwoText-10f" transform="translate(599.099442 0)"/>
     <use xlink:href="#STIXTwoText-10e" transform="translate(652.799393 0)"/>
     <use xlink:href="#STIXTwoText-10e" transform="translate(704.199341 0)"/>
     <use xlink:href="#STIXTwoText-10b" transform="translate(755.599289 0)"/>
     <use xlink:href="#STIXTwoText-1" transform="translate(783.899261 0)"/>
     <use xlink:href="#STIXTwoText-731" transform="translate(807.399246 0)"/>
     <use xlink:href="#STIXGeneral-Regular-14" transform="translate(841.699219 0)"/>
     <use xlink:href="#STIXGeneral-Regular-13" transform="translate(891.699173 0)"/>
     <use xlink:href="#STIXGeneral-Regular-99" transform="translate(961.699127 0)"/>
     <use xlink:href="#STIXGeneral-Regular-14" transform="translate(1045.699066 0)"/>
     <use xlink:href="#STIXGeneral-Regular-13" transform="translate(1095.69902 0)"/>
     <use xlink:href="#STIXGeneral-Regular-13" transform="translate(1145.698975 0)"/>
     <use xlink:href="#STIXGeneral-Regular-13" transform="translate(1212.365929 0)"/>
     <use xlink:href="#STIXGeneral-Regular-13" transform="translate(1262.365883 0)"/>
     <use xlink:href="#STIXGeneral-Regular-13" transform="translate(1312.365837 0)"/>
     <use xlink:href="#STIXTwoText-1" transform="translate(1362.365792 0)"/>
     <use xlink:href="#STIXTwoText-112" transform="translate(1385.865776 0)"/>
     <use xlink:href="#STIXTwoText-101" transform="translate(1425.365746 0)"/>
     <use xlink:href="#STIXTwoText-103" transform="translate(1469.965706 0)"/>
     <use xlink:href="#STIXTwoText-10d" transform="translate(1516.365669 0)"/>
     <use xlink:href="#STIXTwoText-ff" transform="translate(1573.965615 0)"/>
     <use xlink:href="#STIXTwoText-111" transform="translate(1621.965569 0)"/>
     <use xlink:href="#STIXTwoText-107" transform="translate(1659.965538 0)"/>
     <use xlink:href="#STIXTwoText-10e" transform="translate(1688.465508 0)"/>
     <use xlink:href="#STIXTwoText-112" transform="translate(1739.865456 0)"/>
     <use xlink:href="#STIXTwoText-732" transform="translate(1779.365425 0)"/>
     <use xlink:href="#STIXTwoText-724" transform="translate(1813.665398 0)"/>
     <use xlink:href="#STIXTwoText-1" transform="translate(1838.165367 0)"/>
     <use xlink:href="#STIXTwoText-113" transform="translate(1861.665352 0)"/>
     <use xlink:href="#STIXTwoText-106" transform="translate(1893.165322 0)"/>
     <use xlink:href="#STIXTwoText-103" transform="translate(1950.865273 0)"/>
     <use xlink:href="#STIXTwoText-1" transform="translate(1997.265236 0)"/>
     <use xlink:href="#STIXTwoText-105" transform="translate(2020.765221 0)"/>
     <use xlink:href="#STIXTwoText-ff" transform="translate(2069.165169 0)"/>
     <use xlink:href="#STIXTwoText-10f" transform="translate(2117.165123 0)"/>
     <use xlink:href="#STIXTwoText-1" transform="translate(2170.865074 0)"/>
     <use xlink:href="#STIXTwoText-105" transform="translate(2194.365059 0)"/>
     <use xlink:href="#STIXTwoText-111" transform="translate(2242.765007 0)"/>
     <use xlink:href="#STIXTwoText-10e" transform="translate(2280.764977 0)"/>
     <use xlink:href="#STIXTwoText-116" transform="translate(2332.164925 0)"/>
     <use xlink:href="#STIXTwoText-112" transform="translate(2407.064858 0)"/>
     <use xlink:href="#STIXTwoText-1" transform="translate(2446.564827 0)"/>
     <use xlink:href="#STIXTwoText-116" transform="translate(2470.064812 0)"/>
     <use xlink:href="#STIXTwoText-107" transform="translate(2544.964745 0)"/>
     <use xlink:href="#STIXTwoText-113" transform="translate(2573.464714 0)"/>
     <use xlink:href="#STIXTwoText-106" transform="translate(2604.964684 0)"/>
     <use xlink:href="#STIXTwoText-1" transform="translate(2662.664635 0)"/>
     <use xlink:href="#STIXTwoText-113" transform="translate(2686.16462 0)"/>
     <use xlink:href="#STIXTwoText-ff" transform="translate(2717.664589 0)"/>
     <use xlink:href="#STIXTwoText-107" transform="translate(2765.664543 0)"/>
     <use xlink:href="#STIXTwoText-10b" transform="translate(2794.164513 0)"/>
     <use xlink:href="#STIXTwoText-1" transform="translate(2822.464485 0)"/>
     <use xlink:href="#STIXTwoText-102" transform="translate(2845.96447 0)"/>
     <use xlink:href="#STIXTwoText-103" transform="translate(2899.864418 0)"/>
     <use xlink:href="#STIXTwoText-10f" transform="translate(2946.264382 0)"/>
     <use xlink:href="#STIXTwoText-113" transform="translate(2999.964333 0)"/>
     <use xlink:href="#STIXTwoText-106" transform="translate(3031.464302 0)"/>
    </g>
   </g>
   <g id="legend_1">
    <g id="patch_7">
     <path d="M 391.430978 87.22 
L 503.088478 87.22 
Q 504.688478 87.22 504.688478 85.62 
L 504.688478 26.42 
Q 504.688478 24.82 503.088478 24.82 
L 391.430978 24.82 
Q 389.830978 24.82 389.830978 26.42 
L 389.830978 85.62 
Q 389.830978 87.22 391.430978 87.22 
z
" style="fill: #ffffff; opacity: 0.9; stroke: #cccccc; stroke-linejoin: miter"/>
    </g>
    <g id="line2d_19">
     <path d="M 393.030978 31.316 
L 401.030978 31.316 
L 409.030978 31.316 
" style="fill: none; stroke: #1f6f3f; stroke-width: 1.5; stroke-linecap: round"/>
    </g>
    <g id="text_17">
     <!-- NN Mamba (deployed) -->
     <g style="fill: #262626" transform="translate(415.430978 34.116) scale(0.08 -0.08)">
      <defs>
       <path id="STIXTwoText-10" d="M 3994 -51 
L 3782 -51 
L 1133 3373 
L 954 3373 
L 838 3622 
Q 717 3789 624 3872 
Q 531 3955 432 3984 
Q 333 4013 186 4013 
L 186 4205 
L 1274 4205 
L 3642 1114 
L 3674 1114 
L 3674 3187 
Q 3674 3488 3635 3667 
Q 3597 3846 3469 3929 
Q 3341 4013 3066 4013 
L 3066 4205 
L 4576 4205 
L 4576 4013 
Q 4333 4013 4205 3926 
Q 4077 3840 4035 3651 
Q 3994 3462 3994 3155 
L 3994 -51 
z
M 1683 0 
L 186 0 
L 186 192 
Q 442 192 570 246 
Q 698 301 742 467 
Q 787 634 787 954 
L 787 3821 
L 1101 3821 
L 1101 954 
Q 1101 634 1145 470 
Q 1190 307 1318 249 
Q 1446 192 1683 192 
L 1683 0 
z
" transform="scale(0.015625)"/>
       <path id="STIXTwoText-f" d="M 1683 0 
L 179 0 
L 179 192 
Q 442 192 570 240 
Q 698 288 742 448 
Q 787 608 787 934 
L 787 3424 
Q 787 3667 742 3792 
Q 698 3917 573 3965 
Q 448 4013 192 4013 
L 192 4205 
L 1498 4205 
L 2848 986 
L 2874 986 
L 4218 4205 
L 5434 4205 
L 5434 4013 
Q 5210 4013 5088 3965 
Q 4966 3917 4921 3792 
Q 4877 3667 4877 3430 
L 4877 762 
Q 4877 531 4921 406 
Q 4966 282 5088 237 
Q 5210 192 5440 192 
L 5440 0 
L 3738 0 
L 3738 192 
Q 3987 192 4108 237 
Q 4230 282 4268 406 
Q 4307 531 4307 762 
L 4307 3520 
L 4282 3520 
L 2790 0 
L 2637 0 
L 1126 3514 
L 1101 3514 
L 1101 934 
Q 1101 608 1145 448 
Q 1190 288 1315 240 
Q 1440 192 1683 192 
L 1683 0 
z
" transform="scale(0.015625)"/>
       <path id="STIXTwoText-100" d="M 877 4518 
L 1043 4518 
L 1043 2560 
L 1062 2560 
Q 1229 2765 1478 2934 
Q 1728 3104 2048 3104 
Q 2368 3104 2608 2921 
Q 2848 2739 2982 2419 
Q 3117 2099 3117 1683 
Q 3117 1114 2918 723 
Q 2720 333 2374 134 
Q 2029 -64 1581 -64 
Q 1171 -64 899 32 
Q 627 128 512 192 
L 512 3789 
Q 512 4006 464 4067 
Q 416 4128 230 4128 
Q 154 4128 102 4121 
Q 51 4115 51 4115 
L 51 4294 
L 877 4518 
z
M 1043 2278 
L 1043 499 
Q 1133 390 1286 294 
Q 1440 198 1696 198 
Q 2003 198 2185 371 
Q 2368 544 2451 835 
Q 2534 1126 2534 1478 
Q 2534 1786 2470 2058 
Q 2406 2330 2240 2499 
Q 2074 2669 1766 2669 
Q 1523 2669 1328 2531 
Q 1133 2394 1043 2278 
z
" transform="scale(0.015625)"/>
      </defs>
      <use xlink:href="#STIXTwoText-10"/>
      <use xlink:href="#STIXTwoText-10" transform="translate(74.203125 0)"/>
      <use xlink:href="#STIXTwoText-1" transform="translate(148.40625 0)"/>
      <use xlink:href="#STIXTwoText-f" transform="translate(171.90625 0)"/>
      <use xlink:href="#STIXTwoText-ff" transform="translate(261.40625 0)"/>
      <use xlink:href="#STIXTwoText-10c" transform="translate(309.40625 0)"/>
      <use xlink:href="#STIXTwoText-100" transform="translate(394.609375 0)"/>
      <use xlink:href="#STIXTwoText-ff" transform="translate(446.8125 0)"/>
      <use xlink:href="#STIXTwoText-1" transform="translate(494.8125 0)"/>
      <use xlink:href="#STIXTwoText-731" transform="translate(518.3125 0)"/>
      <use xlink:href="#STIXTwoText-102" transform="translate(552.609375 0)"/>
      <use xlink:href="#STIXTwoText-103" transform="translate(606.515625 0)"/>
      <use xlink:href="#STIXTwoText-10f" transform="translate(652.921875 0)"/>
      <use xlink:href="#STIXTwoText-10b" transform="translate(706.625 0)"/>
      <use xlink:href="#STIXTwoText-10e" transform="translate(734.921875 0)"/>
      <use xlink:href="#STIXTwoText-118" transform="translate(786.328125 0)"/>
      <use xlink:href="#STIXTwoText-103" transform="translate(834.125 0)"/>
      <use xlink:href="#STIXTwoText-102" transform="translate(880.53125 0)"/>
      <use xlink:href="#STIXTwoText-732" transform="translate(934.4375 0)"/>
     </g>
    </g>
    <g id="line2d_20">
     <path d="M 393.030978 43.316 
L 401.030978 43.316 
L 409.030978 43.316 
" style="fill: none; stroke: #4878cf; stroke-width: 1.5; stroke-linecap: round"/>
    </g>
    <g id="text_18">
     <!-- NN dense (efficiency ref.) -->
     <g style="fill: #262626" transform="translate(415.430978 46.116) scale(0.08 -0.08)">
      <defs>
       <path id="STIXTwoText-28f" d="M 1779 0 
L 115 0 
L 115 186 
Q 352 186 464 227 
Q 576 269 614 390 
Q 653 512 653 762 
L 653 2726 
L 166 2726 
L 166 2995 
L 653 2995 
Q 653 3238 672 3424 
Q 691 3610 736 3760 
Q 781 3910 864 4058 
Q 992 4282 1197 4410 
Q 1402 4538 1741 4538 
Q 2054 4538 2259 4419 
Q 2464 4301 2464 4090 
Q 2464 3949 2387 3878 
Q 2310 3808 2202 3808 
Q 2074 3808 1994 3881 
Q 1914 3955 1853 4051 
Q 1792 4147 1718 4220 
Q 1645 4294 1523 4294 
Q 1344 4294 1267 4134 
Q 1190 3974 1190 3571 
L 1190 2995 
L 2298 2995 
L 2298 2726 
L 1190 2726 
L 1190 762 
Q 1190 512 1241 390 
Q 1293 269 1421 227 
Q 1549 186 1779 186 
L 1779 0 
z
" transform="scale(0.015625)"/>
       <path id="STIXTwoText-290" d="M 1747 0 
L 115 0 
L 115 179 
Q 352 179 464 220 
Q 576 262 614 387 
Q 653 512 653 762 
L 653 2726 
L 166 2726 
L 166 2995 
L 653 2995 
Q 653 3245 675 3433 
Q 698 3622 749 3782 
Q 800 3942 890 4083 
Q 1018 4288 1306 4438 
Q 1594 4589 2054 4589 
Q 2336 4589 2547 4534 
Q 2758 4480 2876 4365 
Q 2995 4250 2995 4070 
Q 2995 3936 2915 3856 
Q 2835 3776 2688 3776 
Q 2547 3776 2470 3875 
Q 2394 3974 2330 4115 
Q 2272 4256 2166 4307 
Q 2061 4358 1894 4358 
Q 1562 4358 1379 4153 
Q 1197 3949 1197 3418 
L 1197 2995 
L 2470 2995 
L 2470 2726 
L 1197 2726 
L 1197 762 
Q 1197 518 1241 390 
Q 1286 262 1404 220 
Q 1523 179 1747 179 
L 1747 0 
z
" transform="scale(0.015625)"/>
       <path id="STIXTwoText-292" d="M 1670 0 
L 198 0 
L 198 186 
Q 410 186 506 230 
Q 602 275 624 377 
Q 646 480 646 646 
L 646 2387 
Q 646 2586 579 2662 
Q 512 2739 358 2739 
L 179 2739 
L 179 2982 
L 1011 3053 
L 1178 3053 
L 1178 646 
Q 1178 467 1206 364 
Q 1235 262 1337 224 
Q 1440 186 1670 186 
L 1670 0 
z
" transform="scale(0.015625)"/>
       <path id="STIXTwoText-725" d="M 774 -51 
Q 582 -51 489 57 
Q 397 166 397 326 
Q 397 493 499 611 
Q 602 730 781 730 
Q 966 730 1068 608 
Q 1171 486 1171 320 
Q 1171 173 1068 61 
Q 966 -51 774 -51 
z
" transform="scale(0.015625)"/>
      </defs>
      <use xlink:href="#STIXTwoText-10"/>
      <use xlink:href="#STIXTwoText-10" transform="translate(74.203125 0)"/>
      <use xlink:href="#STIXTwoText-1" transform="translate(148.40625 0)"/>
      <use xlink:href="#STIXTwoText-102" transform="translate(171.90625 0)"/>
      <use xlink:href="#STIXTwoText-103" transform="translate(225.8125 0)"/>
      <use xlink:href="#STIXTwoText-10d" transform="translate(272.21875 0)"/>
      <use xlink:href="#STIXTwoText-112" transform="translate(329.8125 0)"/>
      <use xlink:href="#STIXTwoText-103" transform="translate(369.3125 0)"/>
      <use xlink:href="#STIXTwoText-1" transform="translate(415.71875 0)"/>
      <use xlink:href="#STIXTwoText-731" transform="translate(439.21875 0)"/>
      <use xlink:href="#STIXTwoText-103" transform="translate(473.515625 0)"/>
      <use xlink:href="#STIXTwoText-28f" transform="translate(519.921875 0)"/>
      <use xlink:href="#STIXTwoText-290" transform="translate(550.125 0)"/>
      <use xlink:href="#STIXTwoText-292" transform="translate(580.921875 0)"/>
      <use xlink:href="#STIXTwoText-101" transform="translate(609.328125 0)"/>
      <use xlink:href="#STIXTwoText-107" transform="translate(653.921875 0)"/>
      <use xlink:href="#STIXTwoText-103" transform="translate(682.421875 0)"/>
      <use xlink:href="#STIXTwoText-10d" transform="translate(728.828125 0)"/>
      <use xlink:href="#STIXTwoText-101" transform="translate(786.421875 0)"/>
      <use xlink:href="#STIXTwoText-118" transform="translate(831.015625 0)"/>
      <use xlink:href="#STIXTwoText-1" transform="translate(879.3125 0)"/>
      <use xlink:href="#STIXTwoText-111" transform="translate(902.8125 0)"/>
      <use xlink:href="#STIXTwoText-103" transform="translate(939.8125 0)"/>
      <use xlink:href="#STIXTwoText-104" transform="translate(986.21875 0)"/>
      <use xlink:href="#STIXTwoText-725" transform="translate(1016.921875 0)"/>
      <use xlink:href="#STIXTwoText-732" transform="translate(1041.421875 0)"/>
     </g>
    </g>
    <g id="line2d_21">
     <path d="M 393.030978 55.316 
L 401.030978 55.316 
L 409.030978 55.316 
" style="fill: none; stroke: #6a51a3; stroke-width: 1.5; stroke-linecap: round"/>
    </g>
    <g id="text_19">
     <!-- NN LSTM -->
     <g style="fill: #262626" transform="translate(415.430978 58.116) scale(0.08 -0.08)">
      <defs>
       <path id="STIXTwoText-e" d="M 3443 0 
L 269 0 
L 269 192 
Q 525 192 649 237 
Q 774 282 812 410 
Q 851 538 851 787 
L 851 3392 
Q 851 3642 812 3776 
Q 774 3910 649 3961 
Q 525 4013 269 4013 
L 269 4205 
L 2067 4205 
L 2067 4013 
Q 1811 4013 1673 3958 
Q 1536 3904 1488 3769 
Q 1440 3635 1440 3386 
L 1440 608 
Q 1440 397 1542 333 
Q 1645 269 1926 269 
L 2221 269 
Q 2541 269 2739 317 
Q 2938 365 3056 480 
Q 3174 595 3254 784 
Q 3334 973 3430 1248 
L 3635 1248 
L 3443 0 
z
" transform="scale(0.015625)"/>
       <path id="STIXTwoText-15" d="M 480 -96 
L 282 -96 
L 224 1286 
L 422 1286 
Q 538 845 691 611 
Q 845 378 1072 291 
Q 1299 205 1626 205 
Q 1869 205 2041 272 
Q 2214 339 2310 489 
Q 2406 640 2406 883 
Q 2406 1165 2249 1350 
Q 2093 1536 1849 1680 
Q 1606 1824 1344 1971 
Q 1088 2118 851 2284 
Q 614 2451 464 2681 
Q 314 2912 314 3245 
Q 314 3584 480 3811 
Q 646 4038 921 4160 
Q 1197 4282 1530 4282 
Q 1824 4282 1984 4234 
Q 2144 4186 2237 4134 
Q 2330 4083 2406 4083 
Q 2483 4083 2531 4124 
Q 2579 4166 2605 4269 
L 2771 4269 
L 2816 2989 
L 2624 2989 
Q 2490 3520 2266 3776 
Q 2042 4032 1555 4026 
Q 1229 4026 1049 3875 
Q 870 3725 870 3424 
Q 870 3187 1004 3017 
Q 1139 2848 1356 2713 
Q 1574 2579 1811 2438 
Q 2022 2317 2236 2195 
Q 2451 2074 2627 1920 
Q 2803 1766 2908 1561 
Q 3014 1357 3014 1069 
Q 3014 698 2844 442 
Q 2675 186 2380 54 
Q 2086 -77 1715 -77 
Q 1382 -77 1174 -29 
Q 966 19 848 67 
Q 730 115 653 115 
Q 589 115 537 57 
Q 486 0 480 -96 
z
" transform="scale(0.015625)"/>
       <path id="STIXTwoText-16" d="M 2861 0 
L 1005 0 
L 1005 192 
Q 1274 192 1408 233 
Q 1542 275 1587 412 
Q 1632 550 1632 838 
L 1632 3917 
L 1222 3917 
Q 870 3917 694 3846 
Q 518 3776 441 3590 
Q 365 3405 294 3053 
L 96 3053 
L 166 4205 
L 3706 4205 
L 3757 3053 
L 3558 3053 
Q 3488 3405 3411 3590 
Q 3334 3776 3161 3846 
Q 2989 3917 2630 3917 
L 2227 3917 
L 2227 838 
Q 2227 550 2272 412 
Q 2317 275 2451 233 
Q 2586 192 2861 192 
L 2861 0 
z
" transform="scale(0.015625)"/>
      </defs>
      <use xlink:href="#STIXTwoText-10"/>
      <use xlink:href="#STIXTwoText-10" transform="translate(74.203125 0)"/>
      <use xlink:href="#STIXTwoText-1" transform="translate(148.40625 0)"/>
      <use xlink:href="#STIXTwoText-e" transform="translate(171.90625 0)"/>
      <use xlink:href="#STIXTwoText-15" transform="translate(230.40625 0)"/>
      <use xlink:href="#STIXTwoText-16" transform="translate(279.8125 0)"/>
      <use xlink:href="#STIXTwoText-f" transform="translate(340.109375 0)"/>
     </g>
    </g>
    <g id="line2d_22">
     <path d="M 393.030978 67.316 
L 401.030978 67.316 
L 409.030978 67.316 
" style="fill: none; stroke: #d1701f; stroke-width: 1.5; stroke-linecap: round"/>
    </g>
    <g id="text_20">
     <!-- FTC (joint reference) -->
     <g style="fill: #262626" transform="translate(415.430978 70.116) scale(0.08 -0.08)">
      <defs>
       <path id="STIXTwoText-8" d="M 2106 0 
L 230 0 
L 230 192 
Q 493 192 624 230 
Q 755 269 803 387 
Q 851 506 851 742 
L 851 3482 
Q 851 3706 793 3818 
Q 736 3930 598 3971 
Q 461 4013 230 4013 
L 230 4205 
L 3635 4205 
L 3674 3155 
L 3469 3155 
Q 3424 3386 3376 3533 
Q 3328 3680 3232 3763 
Q 3136 3846 2953 3881 
Q 2771 3917 2458 3917 
L 1440 3917 
L 1440 2298 
L 2195 2298 
Q 2470 2298 2617 2349 
Q 2765 2400 2819 2537 
Q 2874 2675 2874 2931 
L 3091 2931 
L 3091 1446 
L 2874 1446 
Q 2874 1709 2819 1837 
Q 2765 1965 2617 2006 
Q 2470 2048 2195 2048 
L 1440 2048 
L 1440 704 
Q 1440 486 1501 377 
Q 1562 269 1709 230 
Q 1856 192 2106 192 
L 2106 0 
z
" transform="scale(0.015625)"/>
       <path id="STIXTwoText-109" d="M 70 -1504 
Q -243 -1504 -425 -1379 
Q -608 -1254 -608 -1043 
Q -608 -922 -531 -848 
Q -454 -774 -326 -774 
Q -211 -774 -137 -841 
Q -64 -909 -6 -998 
Q 51 -1088 121 -1155 
Q 192 -1222 301 -1222 
Q 538 -1222 589 -969 
Q 640 -717 640 -205 
L 640 2387 
Q 640 2598 585 2665 
Q 531 2733 358 2733 
Q 282 2733 224 2723 
Q 166 2714 166 2714 
L 166 2906 
L 998 3085 
L 1171 3085 
L 1171 -13 
Q 1171 -518 1052 -848 
Q 934 -1178 691 -1341 
Q 448 -1504 70 -1504 
z
M 890 3584 
Q 730 3584 624 3693 
Q 518 3802 518 3949 
Q 518 4096 617 4201 
Q 717 4307 890 4307 
Q 1056 4307 1161 4201 
Q 1267 4096 1267 3949 
Q 1267 3802 1161 3693 
Q 1056 3584 890 3584 
z
" transform="scale(0.015625)"/>
      </defs>
      <use xlink:href="#STIXTwoText-8"/>
      <use xlink:href="#STIXTwoText-16" transform="translate(58.796875 0)"/>
      <use xlink:href="#STIXTwoText-5" transform="translate(118.09375 0)"/>
      <use xlink:href="#STIXTwoText-1" transform="translate(185.09375 0)"/>
      <use xlink:href="#STIXTwoText-731" transform="translate(208.59375 0)"/>
      <use xlink:href="#STIXTwoText-109" transform="translate(250.890625 0)"/>
      <use xlink:href="#STIXTwoText-10e" transform="translate(277.1875 0)"/>
      <use xlink:href="#STIXTwoText-107" transform="translate(328.59375 0)"/>
      <use xlink:href="#STIXTwoText-10d" transform="translate(357.09375 0)"/>
      <use xlink:href="#STIXTwoText-113" transform="translate(414.6875 0)"/>
      <use xlink:href="#STIXTwoText-1" transform="translate(446.1875 0)"/>
      <use xlink:href="#STIXTwoText-111" transform="translate(469.6875 0)"/>
      <use xlink:href="#STIXTwoText-103" transform="translate(506.6875 0)"/>
      <use xlink:href="#STIXTwoText-104" transform="translate(553.09375 0)"/>
      <use xlink:href="#STIXTwoText-103" transform="translate(583.796875 0)"/>
      <use xlink:href="#STIXTwoText-111" transform="translate(630.203125 0)"/>
      <use xlink:href="#STIXTwoText-103" transform="translate(667.203125 0)"/>
      <use xlink:href="#STIXTwoText-10d" transform="translate(713.609375 0)"/>
      <use xlink:href="#STIXTwoText-101" transform="translate(771.203125 0)"/>
      <use xlink:href="#STIXTwoText-103" transform="translate(815.796875 0)"/>
      <use xlink:href="#STIXTwoText-732" transform="translate(862.203125 0)"/>
     </g>
    </g>
    <g id="line2d_23">
     <path d="M 393.030978 79.316 
L 401.030978 79.316 
L 409.030978 79.316 
" style="fill: none; stroke: #c44e52; stroke-width: 1.5; stroke-linecap: round"/>
    </g>
    <g id="text_21">
     <!-- FNPAG -->
     <g style="fill: #262626" transform="translate(415.430978 82.116) scale(0.08 -0.08)">
      <defs>
       <path id="STIXTwoText-12" d="M 2086 0 
L 282 0 
L 282 192 
Q 531 192 652 237 
Q 774 282 812 413 
Q 851 544 851 813 
L 851 3565 
Q 851 3846 732 3929 
Q 614 4013 307 4013 
L 307 4205 
L 1901 4205 
Q 2208 4205 2493 4157 
Q 2778 4109 2998 3993 
Q 3219 3878 3350 3670 
Q 3482 3462 3482 3142 
Q 3482 2771 3341 2518 
Q 3200 2266 2960 2112 
Q 2720 1958 2419 1894 
Q 2118 1830 1805 1830 
Q 1709 1830 1600 1843 
Q 1491 1856 1440 1882 
L 1440 787 
Q 1440 525 1494 397 
Q 1549 269 1689 230 
Q 1830 192 2086 192 
L 2086 0 
z
M 1786 2093 
Q 2131 2093 2368 2179 
Q 2605 2266 2726 2474 
Q 2848 2682 2848 3053 
Q 2848 3488 2595 3721 
Q 2342 3955 1824 3955 
Q 1728 3955 1635 3948 
Q 1542 3942 1440 3930 
L 1440 2118 
Q 1491 2112 1590 2102 
Q 1690 2093 1786 2093 
z
" transform="scale(0.015625)"/>
       <path id="STIXTwoText-3" d="M 1363 0 
L 19 0 
L 19 192 
Q 198 192 307 249 
Q 416 307 518 483 
Q 621 659 774 1024 
L 2131 4237 
L 2394 4237 
L 3910 762 
Q 4051 448 4182 320 
Q 4314 192 4570 192 
L 4570 0 
L 2848 0 
L 2848 192 
Q 2944 192 3046 205 
Q 3149 218 3219 269 
Q 3290 320 3290 429 
Q 3290 499 3267 592 
Q 3245 685 3181 826 
L 2906 1466 
L 2861 1594 
L 2131 3450 
L 2112 3450 
L 1363 1594 
L 1318 1466 
L 1005 723 
Q 979 646 956 572 
Q 934 499 934 410 
Q 934 275 1036 233 
Q 1139 192 1363 192 
L 1363 0 
z
M 3002 1402 
L 1222 1402 
L 1318 1658 
L 2906 1658 
L 3002 1402 
z
" transform="scale(0.015625)"/>
       <path id="STIXTwoText-9" d="M 2368 -70 
Q 1350 -70 835 496 
Q 320 1062 320 2086 
Q 320 2797 592 3286 
Q 864 3776 1334 4029 
Q 1805 4282 2406 4282 
Q 2758 4282 2966 4224 
Q 3174 4166 3292 4108 
Q 3411 4051 3488 4051 
Q 3571 4051 3612 4115 
Q 3654 4179 3718 4282 
L 3904 4282 
L 3904 2816 
L 3686 2816 
Q 3578 3456 3251 3731 
Q 2925 4006 2413 4006 
Q 1734 4006 1360 3510 
Q 986 3014 986 2163 
Q 986 1184 1379 701 
Q 1773 218 2458 218 
Q 2758 218 2966 307 
Q 3174 397 3366 538 
L 3366 1229 
Q 3366 1459 3328 1577 
Q 3290 1696 3168 1737 
Q 3046 1779 2803 1779 
L 2803 1984 
L 4384 1984 
L 4384 1779 
Q 4115 1779 4032 1686 
Q 3949 1594 3949 1293 
L 3949 365 
Q 3603 166 3251 48 
Q 2899 -70 2368 -70 
z
" transform="scale(0.015625)"/>
      </defs>
      <use xlink:href="#STIXTwoText-8"/>
      <use xlink:href="#STIXTwoText-10" transform="translate(58.796875 0)"/>
      <use xlink:href="#STIXTwoText-12" transform="translate(133 0)"/>
      <use xlink:href="#STIXTwoText-3" transform="translate(181.40625 0)"/>
      <use xlink:href="#STIXTwoText-9" transform="translate(249.203125 0)"/>
     </g>
    </g>
   </g>
  </g>
 </g>
 <defs>
  <clipPath id="pca8ddfe436">
   <rect x="46.435" y="20.82" width="462.253478" height="216.9"/>
  </clipPath>
 </defs>
</svg>
