<?xml version="1.0" encoding="utf-8" standalone="no"?>
<!DOCTYPE svg PUBLIC "-//W3C//DTD SVG 1.1//EN"
  "http://www.w3.org/Graphics/SVG/1.1/DTD/svg11.dtd">
<svg xmlns:xlink="http://www.w3.org/1999/xlink" width="549.343906pt" height="268.531063pt" viewBox="0 0 549.343906 268.531063" xmlns="http://www.w3.org/2000/svg" version="1.1">
 <metadata>
  <rdf:RDF xmlns:dc="http://purl.org/dc/elements/1.1/" xmlns:cc="http://creativecommons.org/ns#" xmlns:rdf="http://www.w3.org/1999/02/22-rdf-syntax-ns#">
   <cc:Work>
    <dc:type rdf:resource="http://purl.org/dc/dcmitype/StillImage"/>
    <dc:date>2026-07-03T22:50:39.677372</dc:date>
    <dc:format>image/svg+xml</dc:format>
    <dc:creator>
     <cc:Agent>
      <dc:title>Matplotlib v3.10.9, https://matplotlib.org/</dc:title>
     </cc:Agent>
    </dc:creator>
   </cc:Work>
  </rdf:RDF>
 </metadata>
 <defs>
  <style type="text/css">*{stroke-linejoin: round; stroke-linecap: butt}</style>
 </defs>
 <g id="figure_1">
  <g id="patch_1">
   <path d="M 0 268.531063 
L 549.343906 268.531063 
L 549.343906 0 
L 0 0 
z
" style="fill: #ffffff"/>
  </g>
  <g id="axes_1">
   <g id="patch_2">
    <path d="M 42.118906 230.992 
L 274.571406 230.992 
L 274.571406 20.5 
L 42.118906 20.5 
z
" style="fill: #f5f5f5"/>
   </g>
   <g id="matplotlib.axis_1">
    <g id="xtick_1">
     <g id="line2d_1">
      <path d="M 64.614309 230.992 
L 64.614309 20.5 
" clip-path="url(#pb604a25082)" style="fill: none; stroke: #dddddd; stroke-width: 0.6; stroke-linecap: round"/>
     </g>
     <g id="text_1">
      <!-- 2 -->
      <g style="fill: #262626" transform="translate(62.510559 246.492469) scale(0.085 -0.085)">
       <defs>
        <path id="STIXTwoText-32" d="M 2765 0 
L 243 0 
L 243 218 
L 1216 1190 
Q 1536 1517 1747 1782 
Q 1958 2048 2064 2317 
Q 2170 2586 2170 2918 
Q 2170 3277 1955 3491 
Q 1741 3706 1370 3706 
Q 1056 3706 835 3571 
Q 614 3437 435 3078 
L 282 3142 
Q 429 3610 749 3866 
Q 1069 4122 1536 4122 
Q 1901 4122 2176 3984 
Q 2451 3846 2608 3600 
Q 2765 3354 2765 3014 
Q 2765 2733 2646 2473 
Q 2528 2214 2294 1939 
Q 2061 1664 1722 1318 
L 877 518 
L 877 486 
L 1325 506 
L 2214 506 
Q 2470 506 2572 621 
Q 2675 736 2784 1024 
L 2970 1024 
L 2765 0 
z
" transform="scale(0.015625)"/>
       </defs>
       <use xlink:href="#STIXTwoText-32"/>
      </g>
     </g>
    </g>
    <g id="xtick_2">
     <g id="line2d_2">
      <path d="M 121.952348 230.992 
L 121.952348 20.5 
" clip-path="url(#pb604a25082)" style="fill: none; stroke: #dddddd; stroke-width: 0.6; stroke-linecap: round"/>
     </g>
     <g id="text_2">
      <!-- 5 -->
      <g style="fill: #262626" transform="translate(119.848598 246.492469) scale(0.085 -0.085)">
       <defs>
        <path id="STIXTwoText-35" d="M 1114 -83 
Q 742 -83 560 6 
Q 378 96 378 275 
Q 378 384 445 467 
Q 512 550 634 550 
Q 730 550 822 502 
Q 915 454 1014 393 
Q 1114 333 1235 285 
Q 1357 237 1510 237 
Q 1741 237 1936 326 
Q 2131 416 2249 614 
Q 2368 813 2368 1146 
Q 2368 1504 2227 1721 
Q 2086 1939 1849 2054 
Q 1613 2170 1315 2214 
Q 1018 2259 698 2266 
L 621 2362 
L 1018 4032 
L 2771 4032 
L 2669 3514 
L 1165 3514 
L 992 2784 
Q 1312 2758 1590 2704 
Q 1869 2650 2096 2554 
Q 2323 2458 2489 2301 
Q 2656 2144 2745 1923 
Q 2835 1702 2835 1402 
Q 2835 1030 2710 752 
Q 2586 474 2355 288 
Q 2125 102 1811 9 
Q 1498 -83 1114 -83 
z
" transform="scale(0.015625)"/>
       </defs>
       <use xlink:href="#STIXTwoText-35"/>
      </g>
     </g>
    </g>
    <g id="xtick_3">
     <g id="line2d_3">
      <path d="M 165.3269 230.992 
L 165.3269 20.5 
" clip-path="url(#pb604a25082)" style="fill: none; stroke: #dddddd; stroke-width: 0.6; stroke-linecap: round"/>
     </g>
     <g id="text_3">
      <!-- 10 -->
      <g style="fill: #262626" transform="translate(161.1194 246.492469) scale(0.085 -0.085)">
       <defs>
        <path id="STIXTwoText-31" d="M 2726 0 
L 512 0 
L 512 179 
Q 966 179 1152 275 
Q 1338 371 1338 608 
L 1338 3315 
Q 1338 3482 1293 3555 
Q 1248 3629 1126 3629 
Q 1062 3629 947 3616 
Q 832 3603 704 3580 
Q 576 3558 474 3526 
L 474 3738 
L 1715 4090 
L 1901 4090 
L 1901 608 
Q 1901 371 2093 275 
Q 2285 179 2726 179 
L 2726 0 
z
" transform="scale(0.015625)"/>
        <path id="STIXTwoText-30" d="M 1581 -70 
Q 1197 -70 928 99 
Q 659 269 492 563 
Q 326 858 249 1242 
Q 173 1626 173 2048 
Q 173 2656 336 3120 
Q 499 3584 816 3846 
Q 1133 4109 1594 4109 
Q 2010 4109 2323 3862 
Q 2637 3616 2816 3152 
Q 2995 2688 2995 2029 
Q 2995 1619 2915 1241 
Q 2835 864 2665 569 
Q 2496 275 2227 102 
Q 1958 -70 1581 -70 
z
M 1581 160 
Q 1958 160 2166 614 
Q 2374 1069 2374 1990 
Q 2374 2963 2172 3427 
Q 1971 3891 1574 3891 
Q 1197 3891 992 3430 
Q 787 2970 787 2016 
Q 787 1088 992 624 
Q 1197 160 1581 160 
z
" transform="scale(0.015625)"/>
       </defs>
       <use xlink:href="#STIXTwoText-31"/>
       <use xlink:href="#STIXTwoText-30" transform="translate(49.499985 0)"/>
      </g>
     </g>
    </g>
    <g id="xtick_4">
     <g id="line2d_4">
      <path d="M 208.701451 230.992 
L 208.701451 20.5 
" clip-path="url(#pb604a25082)" style="fill: none; stroke: #dddddd; stroke-width: 0.6; stroke-linecap: round"/>
     </g>
     <g id="text_4">
      <!-- 20 -->
      <g style="fill: #262626" transform="translate(204.493951 246.492469) scale(0.085 -0.085)">
       <use xlink:href="#STIXTwoText-32"/>
       <use xlink:href="#STIXTwoText-30" transform="translate(49.499985 0)"/>
      </g>
     </g>
    </g>
    <g id="xtick_5">
     <g id="line2d_5">
      <path d="M 252.076003 230.992 
L 252.076003 20.5 
" clip-path="url(#pb604a25082)" style="fill: none; stroke: #dddddd; stroke-width: 0.6; stroke-linecap: round"/>
     </g>
     <g id="text_5">
      <!-- 40 -->
      <g style="fill: #262626" transform="translate(247.868503 246.492469) scale(0.085 -0.085)">
       <defs>
        <path id="STIXTwoText-34" d="M 2426 0 
L 1856 0 
L 1856 1011 
L 83 1011 
L 83 1414 
L 2035 4128 
L 2426 4128 
L 2426 1453 
L 3078 1453 
L 3078 1011 
L 2426 1011 
L 2426 0 
z
M 435 1478 
L 435 1453 
L 1856 1453 
L 1856 3430 
L 1830 3430 
L 435 1478 
z
" transform="scale(0.015625)"/>
       </defs>
       <use xlink:href="#STIXTwoText-34"/>
       <use xlink:href="#STIXTwoText-30" transform="translate(49.499985 0)"/>
      </g>
     </g>
    </g>
    <g id="xtick_6"/>
    <g id="xtick_7"/>
    <g id="xtick_8"/>
    <g id="xtick_9"/>
    <g id="xtick_10"/>
    <g id="xtick_11"/>
    <g id="xtick_12"/>
    <g id="xtick_13"/>
    <g id="text_6">
     <!-- training sims / individual -->
     <g style="fill: #262626" transform="translate(107.411055 259.098563) scale(0.095 -0.095)">
      <defs>
       <path id="STIXTwoText-74" d="M 1875 576 
L 1997 474 
Q 1875 301 1769 182 
Q 1664 64 1536 0 
Q 1408 -64 1203 -64 
Q 883 -64 736 125 
Q 589 314 589 742 
L 589 2726 
L 237 2726 
L 237 2874 
Q 461 3014 624 3254 
Q 787 3494 960 3904 
L 1120 3904 
L 1120 2995 
L 1843 2995 
L 1843 2726 
L 1120 2726 
L 1120 922 
Q 1120 582 1181 448 
Q 1242 314 1427 314 
Q 1581 314 1667 378 
Q 1754 442 1875 576 
z
" transform="scale(0.015625)"/>
       <path id="STIXTwoText-72" d="M 1786 0 
L 186 0 
L 186 186 
Q 397 186 496 221 
Q 595 256 624 349 
Q 653 442 653 621 
L 653 2381 
Q 653 2554 624 2640 
Q 595 2726 422 2726 
Q 326 2726 275 2720 
Q 224 2714 224 2714 
L 224 2893 
L 1018 3085 
L 1171 3085 
L 1171 2426 
L 1190 2426 
Q 1357 2662 1485 2816 
Q 1613 2970 1737 3046 
Q 1862 3123 2016 3123 
Q 2202 3123 2294 3027 
Q 2387 2931 2387 2765 
Q 2387 2586 2300 2502 
Q 2214 2419 2106 2419 
Q 2003 2419 1923 2473 
Q 1843 2528 1785 2582 
Q 1728 2637 1690 2637 
Q 1581 2637 1440 2470 
Q 1299 2304 1184 2112 
L 1184 653 
Q 1184 454 1235 352 
Q 1286 250 1417 218 
Q 1549 186 1786 186 
L 1786 0 
z
" transform="scale(0.015625)"/>
       <path id="STIXTwoText-61" d="M 1005 -45 
Q 634 -45 438 160 
Q 243 365 243 672 
Q 243 928 361 1104 
Q 480 1280 675 1401 
Q 870 1523 1097 1606 
Q 1325 1690 1542 1747 
Q 1760 1805 1926 1856 
L 1926 2138 
Q 1926 2554 1782 2730 
Q 1638 2906 1350 2906 
Q 1075 2906 998 2790 
Q 922 2675 922 2387 
Q 922 2240 848 2166 
Q 774 2093 640 2093 
Q 544 2093 457 2166 
Q 371 2240 371 2400 
Q 371 2579 508 2739 
Q 646 2899 899 3001 
Q 1152 3104 1498 3104 
Q 2022 3104 2240 2861 
Q 2458 2618 2458 2118 
L 2458 666 
Q 2458 467 2502 409 
Q 2547 352 2650 352 
Q 2739 352 2812 397 
Q 2886 442 2950 512 
L 3046 410 
Q 2886 179 2742 73 
Q 2598 -32 2355 -32 
Q 2131 -32 2064 96 
Q 1997 224 1965 461 
L 1926 538 
L 1926 1645 
Q 1638 1574 1382 1478 
Q 1126 1382 966 1228 
Q 806 1075 806 826 
Q 806 589 934 448 
Q 1062 307 1267 307 
Q 1434 307 1616 390 
Q 1798 474 1971 627 
L 2022 397 
L 1946 397 
Q 1798 269 1660 166 
Q 1523 64 1366 9 
Q 1210 -45 1005 -45 
z
" transform="scale(0.015625)"/>
       <path id="STIXTwoText-69" d="M 1645 0 
L 205 0 
L 205 179 
Q 422 179 515 220 
Q 608 262 630 364 
Q 653 467 653 646 
L 653 2432 
Q 653 2637 582 2685 
Q 512 2733 371 2733 
Q 307 2733 259 2726 
Q 211 2720 211 2720 
L 211 2906 
L 1018 3085 
L 1184 3085 
L 1184 646 
Q 1184 461 1209 358 
Q 1235 256 1334 217 
Q 1434 179 1645 179 
L 1645 0 
z
M 928 3584 
Q 768 3584 665 3693 
Q 563 3802 563 3949 
Q 563 4096 662 4201 
Q 762 4307 928 4307 
Q 1094 4307 1193 4201 
Q 1293 4096 1293 3949 
Q 1293 3802 1193 3693 
Q 1094 3584 928 3584 
z
" transform="scale(0.015625)"/>
       <path id="STIXTwoText-6e" d="M 3552 0 
L 2074 0 
L 2074 179 
Q 2304 179 2403 220 
Q 2502 262 2524 364 
Q 2547 467 2547 646 
L 2547 1805 
Q 2547 2189 2460 2381 
Q 2374 2573 2240 2633 
Q 2106 2694 1958 2694 
Q 1773 2694 1625 2620 
Q 1478 2547 1360 2444 
Q 1242 2342 1139 2253 
L 1094 2566 
L 1190 2566 
Q 1453 2797 1686 2950 
Q 1920 3104 2221 3104 
Q 2656 3104 2867 2809 
Q 3078 2515 3078 1965 
L 3078 646 
Q 3078 467 3107 364 
Q 3136 262 3238 220 
Q 3341 179 3552 179 
L 3552 0 
z
M 1670 0 
L 205 0 
L 205 179 
Q 422 179 515 220 
Q 608 262 630 364 
Q 653 467 653 646 
L 653 2445 
Q 653 2618 582 2672 
Q 512 2726 384 2726 
Q 301 2726 256 2720 
Q 211 2714 211 2714 
L 211 2899 
L 1024 3085 
L 1171 3085 
L 1165 2496 
L 1184 2362 
L 1184 646 
Q 1184 467 1209 364 
Q 1235 262 1337 220 
Q 1440 179 1670 179 
L 1670 0 
z
" transform="scale(0.015625)"/>
       <path id="STIXTwoText-67" d="M 1222 -1504 
Q 806 -1504 566 -1401 
Q 326 -1299 230 -1136 
Q 134 -973 134 -800 
Q 134 -640 265 -464 
Q 397 -288 653 -38 
L 653 32 
L 845 -6 
Q 723 -211 678 -342 
Q 634 -474 634 -582 
Q 634 -858 870 -998 
Q 1107 -1139 1594 -1139 
Q 1971 -1139 2204 -1043 
Q 2438 -947 2544 -806 
Q 2650 -666 2650 -531 
Q 2650 -358 2538 -265 
Q 2426 -173 2253 -134 
Q 2080 -96 1888 -86 
Q 1696 -77 1536 -77 
Q 1248 -70 1101 -70 
Q 954 -70 890 -67 
Q 826 -64 774 -64 
L 710 -32 
Q 614 0 518 70 
Q 422 141 358 240 
Q 294 339 294 448 
Q 294 563 361 688 
Q 429 813 550 937 
Q 672 1062 819 1178 
L 819 1235 
L 986 1114 
Q 954 1082 909 998 
Q 864 915 832 822 
Q 800 730 800 666 
Q 800 570 867 515 
Q 934 461 1097 435 
Q 1261 410 1555 410 
Q 1958 410 2281 371 
Q 2605 333 2790 173 
Q 2976 13 2976 -352 
Q 2976 -672 2819 -893 
Q 2662 -1114 2403 -1248 
Q 2144 -1382 1833 -1443 
Q 1523 -1504 1222 -1504 
z
M 1517 998 
Q 1350 998 1206 1030 
Q 1062 1062 928 1107 
L 858 1171 
Q 691 1261 572 1382 
Q 454 1504 390 1673 
Q 326 1843 326 2061 
Q 326 2381 473 2614 
Q 621 2848 883 2976 
Q 1146 3104 1485 3104 
Q 1677 3104 1846 3069 
Q 2016 3034 2163 2963 
Q 2310 2893 2419 2797 
L 2419 2630 
Q 2490 2534 2570 2374 
Q 2650 2214 2650 1971 
Q 2650 1677 2506 1456 
Q 2362 1235 2109 1116 
Q 1856 998 1517 998 
z
M 1523 1222 
Q 1766 1222 1923 1388 
Q 2080 1555 2080 2010 
Q 2080 2400 1913 2637 
Q 1747 2874 1440 2874 
Q 1190 2874 1040 2682 
Q 890 2490 890 2086 
Q 890 1677 1050 1449 
Q 1210 1222 1523 1222 
z
M 3021 2989 
L 3021 2643 
L 2330 2662 
L 2106 2938 
L 3021 2989 
z
" transform="scale(0.015625)"/>
       <path id="STIXTwoText-20" transform="scale(0.015625)"/>
       <path id="STIXTwoText-73" d="M 269 -51 
L 250 1050 
L 416 1050 
Q 518 557 716 361 
Q 915 166 1267 166 
Q 1510 166 1664 265 
Q 1818 365 1818 589 
Q 1818 742 1763 844 
Q 1709 947 1555 1052 
Q 1402 1158 1101 1306 
Q 806 1453 620 1590 
Q 435 1728 345 1894 
Q 256 2061 256 2298 
Q 256 2694 541 2899 
Q 826 3104 1235 3104 
Q 1478 3104 1632 3049 
Q 1786 2995 1907 2938 
L 1914 2938 
L 2022 3072 
L 2150 3072 
L 2170 2093 
L 1997 2093 
Q 1894 2547 1708 2716 
Q 1523 2886 1229 2886 
Q 1011 2886 860 2784 
Q 710 2682 710 2464 
Q 710 2278 883 2131 
Q 1056 1984 1459 1779 
Q 1754 1626 1952 1482 
Q 2150 1338 2252 1168 
Q 2355 998 2355 762 
Q 2355 461 2208 278 
Q 2061 96 1814 13 
Q 1568 -70 1280 -70 
Q 1005 -70 841 -12 
Q 678 45 550 96 
L 538 96 
L 403 -51 
L 269 -51 
z
" transform="scale(0.015625)"/>
       <path id="STIXTwoText-6d" d="M 3520 0 
L 2003 0 
L 2003 186 
Q 2234 186 2336 230 
Q 2438 275 2467 396 
Q 2496 518 2496 742 
L 2496 2010 
Q 2496 2419 2352 2556 
Q 2208 2694 1984 2694 
Q 1805 2694 1648 2617 
Q 1491 2541 1363 2438 
Q 1235 2336 1146 2246 
L 1094 2566 
L 1190 2566 
Q 1453 2790 1696 2947 
Q 1939 3104 2266 3104 
Q 2554 3104 2730 2937 
Q 2906 2771 2995 2522 
Q 3008 2502 3014 2480 
Q 3021 2458 3027 2432 
L 3027 742 
Q 3027 525 3056 403 
Q 3085 282 3187 234 
Q 3290 186 3520 186 
L 3520 0 
z
M 1664 0 
L 205 0 
L 205 186 
Q 410 186 502 221 
Q 595 256 624 355 
Q 653 454 653 646 
L 653 2438 
Q 653 2611 585 2668 
Q 518 2726 384 2726 
Q 314 2726 262 2720 
Q 211 2714 211 2714 
L 211 2899 
L 1011 3085 
L 1165 3085 
L 1165 2496 
L 1184 2355 
L 1184 621 
Q 1184 442 1222 349 
Q 1261 256 1363 221 
Q 1466 186 1664 186 
L 1664 0 
z
M 5306 0 
L 3859 0 
L 3859 186 
Q 4077 186 4173 243 
Q 4269 301 4291 425 
Q 4314 550 4314 742 
L 4314 1971 
Q 4314 2266 4240 2419 
Q 4166 2573 4041 2633 
Q 3917 2694 3763 2694 
Q 3552 2694 3347 2544 
Q 3142 2394 2976 2253 
L 2906 2573 
L 3002 2573 
Q 3264 2835 3513 2969 
Q 3763 3104 4019 3104 
Q 4397 3104 4621 2867 
Q 4845 2630 4845 2048 
L 4845 742 
Q 4845 544 4867 419 
Q 4890 294 4989 240 
Q 5088 186 5306 186 
L 5306 0 
z
" transform="scale(0.015625)"/>
       <path id="STIXTwoText-2f" d="M 589 -570 
L 230 -570 
L 1901 4538 
L 2253 4538 
L 589 -570 
z
" transform="scale(0.015625)"/>
       <path id="STIXTwoText-64" d="M 1306 -51 
Q 947 -51 700 141 
Q 454 333 332 662 
Q 211 992 211 1402 
Q 211 1933 409 2313 
Q 608 2694 944 2899 
Q 1280 3104 1683 3104 
Q 1837 3104 1987 3065 
Q 2138 3027 2278 2950 
L 2304 2950 
L 2304 3789 
Q 2304 4000 2256 4064 
Q 2208 4128 2022 4128 
Q 1978 4128 1917 4121 
Q 1856 4115 1856 4115 
L 1856 4294 
L 2662 4518 
L 2835 4518 
L 2835 685 
Q 2835 435 2905 361 
Q 2976 288 3155 288 
L 3290 288 
L 3290 115 
L 2470 -32 
L 2323 -32 
L 2323 410 
L 2298 410 
Q 2118 250 1872 99 
Q 1626 -51 1306 -51 
z
M 1606 410 
Q 1830 410 1984 470 
Q 2138 531 2304 646 
L 2304 2336 
Q 2266 2534 2118 2691 
Q 1971 2848 1670 2848 
Q 1267 2848 1017 2553 
Q 768 2259 768 1651 
Q 768 992 982 701 
Q 1197 410 1606 410 
z
" transform="scale(0.015625)"/>
       <path id="STIXTwoText-76" d="M 1696 -38 
L 1389 -38 
L 435 2374 
Q 352 2573 288 2672 
Q 224 2771 141 2806 
Q 58 2842 -83 2842 
L -83 3027 
L 1267 3027 
L 1267 2842 
Q 1082 2842 1008 2800 
Q 934 2758 934 2682 
Q 934 2618 953 2560 
Q 973 2502 998 2432 
L 1542 1005 
L 1664 621 
L 1702 621 
L 1837 1011 
L 2387 2458 
Q 2394 2483 2413 2537 
Q 2432 2592 2432 2669 
Q 2432 2778 2336 2810 
Q 2240 2842 2067 2842 
L 2067 3027 
L 3187 3027 
L 3187 2842 
Q 3002 2842 2902 2755 
Q 2803 2669 2707 2419 
L 1696 -38 
z
" transform="scale(0.015625)"/>
       <path id="STIXTwoText-75" d="M 1421 -64 
Q 1024 -64 803 195 
Q 582 454 582 1107 
L 582 2406 
Q 582 2579 547 2659 
Q 512 2739 416 2761 
Q 320 2784 147 2784 
L 147 2963 
L 973 3059 
L 1114 3059 
L 1114 1190 
Q 1114 864 1187 681 
Q 1261 499 1392 422 
Q 1523 346 1690 346 
Q 1933 346 2109 454 
Q 2285 563 2477 730 
L 2477 2413 
Q 2477 2586 2432 2662 
Q 2387 2739 2275 2761 
Q 2163 2784 1958 2784 
L 1958 2963 
L 2854 3059 
L 3008 3059 
L 3008 710 
Q 3008 429 3085 358 
Q 3162 288 3392 288 
L 3456 288 
L 3456 115 
L 2643 -32 
L 2502 -32 
L 2502 461 
L 2470 461 
Q 2304 294 2141 176 
Q 1978 58 1802 -3 
Q 1626 -64 1421 -64 
z
" transform="scale(0.015625)"/>
       <path id="STIXTwoText-6c" d="M 1664 0 
L 192 0 
L 192 186 
Q 403 186 499 227 
Q 595 269 617 368 
Q 640 467 640 646 
L 640 3859 
Q 640 4058 566 4096 
Q 493 4134 371 4134 
Q 288 4134 227 4128 
Q 166 4122 166 4122 
L 166 4294 
L 1011 4518 
L 1171 4518 
L 1171 646 
Q 1171 461 1200 361 
Q 1229 262 1331 224 
Q 1434 186 1664 186 
L 1664 0 
z
" transform="scale(0.015625)"/>
      </defs>
      <use xlink:href="#STIXTwoText-74"/>
      <use xlink:href="#STIXTwoText-72" transform="translate(31.499985 0)"/>
      <use xlink:href="#STIXTwoText-61" transform="translate(69.499969 0)"/>
      <use xlink:href="#STIXTwoText-69" transform="translate(117.499954 0)"/>
      <use xlink:href="#STIXTwoText-6e" transform="translate(145.999939 0)"/>
      <use xlink:href="#STIXTwoText-69" transform="translate(203.59993 0)"/>
      <use xlink:href="#STIXTwoText-6e" transform="translate(232.099915 0)"/>
      <use xlink:href="#STIXTwoText-67" transform="translate(289.699905 0)"/>
      <use xlink:href="#STIXTwoText-20" transform="translate(338.099899 0)"/>
      <use xlink:href="#STIXTwoText-73" transform="translate(361.599884 0)"/>
      <use xlink:href="#STIXTwoText-69" transform="translate(401.099869 0)"/>
      <use xlink:href="#STIXTwoText-6d" transform="translate(429.599854 0)"/>
      <use xlink:href="#STIXTwoText-73" transform="translate(514.799835 0)"/>
      <use xlink:href="#STIXTwoText-20" transform="translate(554.29982 0)"/>
      <use xlink:href="#STIXTwoText-2f" transform="translate(577.799805 0)"/>
      <use xlink:href="#STIXTwoText-20" transform="translate(616.499802 0)"/>
      <use xlink:href="#STIXTwoText-69" transform="translate(639.999786 0)"/>
      <use xlink:href="#STIXTwoText-6e" transform="translate(668.499771 0)"/>
      <use xlink:href="#STIXTwoText-64" transform="translate(726.099762 0)"/>
      <use xlink:href="#STIXTwoText-69" transform="translate(779.999756 0)"/>
      <use xlink:href="#STIXTwoText-76" transform="translate(808.499741 0)"/>
      <use xlink:href="#STIXTwoText-69" transform="translate(856.599731 0)"/>
      <use xlink:href="#STIXTwoText-64" transform="translate(885.099716 0)"/>
      <use xlink:href="#STIXTwoText-75" transform="translate(938.99971 0)"/>
      <use xlink:href="#STIXTwoText-61" transform="translate(995.999695 0)"/>
      <use xlink:href="#STIXTwoText-6c" transform="translate(1043.99968 0)"/>
     </g>
    </g>
   </g>
   <g id="matplotlib.axis_2">
    <g id="ytick_1">
     <g id="line2d_6">
      <path d="M 42.118906 202.37546 
L 274.571406 202.37546 
" clip-path="url(#pb604a25082)" style="fill: none; stroke: #dddddd; stroke-width: 0.6; stroke-linecap: round"/>
     </g>
     <g id="text_7">
      <!-- 120 -->
      <g style="fill: #262626" transform="translate(19.996406 205.375694) scale(0.085 -0.085)">
       <use xlink:href="#STIXTwoText-31"/>
       <use xlink:href="#STIXTwoText-32" transform="translate(49.499985 0)"/>
       <use xlink:href="#STIXTwoText-30" transform="translate(98.999969 0)"/>
      </g>
     </g>
    </g>
    <g id="ytick_2">
     <g id="line2d_7">
      <path d="M 42.118906 166.161159 
L 274.571406 166.161159 
" clip-path="url(#pb604a25082)" style="fill: none; stroke: #dddddd; stroke-width: 0.6; stroke-linecap: round"/>
     </g>
     <g id="text_8">
      <!-- 125 -->
      <g style="fill: #262626" transform="translate(19.996406 169.161394) scale(0.085 -0.085)">
       <use xlink:href="#STIXTwoText-31"/>
       <use xlink:href="#STIXTwoText-32" transform="translate(49.499985 0)"/>
       <use xlink:href="#STIXTwoText-35" transform="translate(98.999969 0)"/>
      </g>
     </g>
    </g>
    <g id="ytick_3">
     <g id="line2d_8">
      <path d="M 42.118906 129.946859 
L 274.571406 129.946859 
" clip-path="url(#pb604a25082)" style="fill: none; stroke: #dddddd; stroke-width: 0.6; stroke-linecap: round"/>
     </g>
     <g id="text_9">
      <!-- 130 -->
      <g style="fill: #262626" transform="translate(19.996406 132.947093) scale(0.085 -0.085)">
       <defs>
        <path id="STIXTwoText-33" d="M 1094 -83 
Q 806 -83 652 -28 
Q 499 26 438 106 
Q 378 186 378 269 
Q 378 371 442 460 
Q 506 550 627 550 
Q 723 550 828 502 
Q 934 454 1049 393 
Q 1165 333 1283 285 
Q 1402 237 1523 237 
Q 1728 237 1907 310 
Q 2086 384 2201 560 
Q 2317 736 2317 1050 
Q 2317 1338 2157 1549 
Q 1997 1760 1731 1878 
Q 1466 1997 1158 1997 
L 1030 1997 
L 1030 2240 
L 1152 2240 
Q 1370 2240 1574 2349 
Q 1779 2458 1910 2656 
Q 2042 2854 2042 3110 
Q 2042 3392 1866 3549 
Q 1690 3706 1389 3706 
Q 1101 3706 909 3574 
Q 717 3443 550 3187 
L 403 3270 
Q 582 3686 876 3904 
Q 1171 4122 1562 4122 
Q 2054 4122 2323 3875 
Q 2592 3629 2592 3264 
Q 2592 2931 2397 2726 
Q 2202 2522 1901 2330 
L 1901 2310 
Q 2157 2234 2371 2090 
Q 2586 1946 2714 1738 
Q 2842 1530 2842 1242 
Q 2842 806 2598 508 
Q 2355 211 1958 64 
Q 1562 -83 1094 -83 
z
" transform="scale(0.015625)"/>
       </defs>
       <use xlink:href="#STIXTwoText-31"/>
       <use xlink:href="#STIXTwoText-33" transform="translate(49.499985 0)"/>
       <use xlink:href="#STIXTwoText-30" transform="translate(98.999969 0)"/>
      </g>
     </g>
    </g>
    <g id="ytick_4">
     <g id="line2d_9">
      <path d="M 42.118906 93.732558 
L 274.571406 93.732558 
" clip-path="url(#pb604a25082)" style="fill: none; stroke: #dddddd; stroke-width: 0.6; stroke-linecap: round"/>
     </g>
     <g id="text_10">
      <!-- 135 -->
      <g style="fill: #262626" transform="translate(19.996406 96.732793) scale(0.085 -0.085)">
       <use xlink:href="#STIXTwoText-31"/>
       <use xlink:href="#STIXTwoText-33" transform="translate(49.499985 0)"/>
       <use xlink:href="#STIXTwoText-35" transform="translate(98.999969 0)"/>
      </g>
     </g>
    </g>
    <g id="ytick_5">
     <g id="line2d_10">
      <path d="M 42.118906 57.518258 
L 274.571406 57.518258 
" clip-path="url(#pb604a25082)" style="fill: none; stroke: #dddddd; stroke-width: 0.6; stroke-linecap: round"/>
     </g>
     <g id="text_11">
      <!-- 140 -->
      <g style="fill: #262626" transform="translate(19.996406 60.518492) scale(0.085 -0.085)">
       <use xlink:href="#STIXTwoText-31"/>
       <use xlink:href="#STIXTwoText-34" transform="translate(49.499985 0)"/>
       <use xlink:href="#STIXTwoText-30" transform="translate(98.999969 0)"/>
      </g>
     </g>
    </g>
    <g id="ytick_6">
     <g id="line2d_11">
      <path d="M 42.118906 21.303957 
L 274.571406 21.303957 
" clip-path="url(#pb604a25082)" style="fill: none; stroke: #dddddd; stroke-width: 0.6; stroke-linecap: round"/>
     </g>
     <g id="text_12">
      <!-- 145 -->
      <g style="fill: #262626" transform="translate(19.996406 24.304192) scale(0.085 -0.085)">
       <use xlink:href="#STIXTwoText-31"/>
       <use xlink:href="#STIXTwoText-34" transform="translate(49.499985 0)"/>
       <use xlink:href="#STIXTwoText-35" transform="translate(98.999969 0)"/>
      </g>
     </g>
    </g>
    <g id="text_13">
     <!-- correction $\Delta v$ (m/s) -->
     <g style="fill: #262626" transform="translate(13.906406 165.076) rotate(-90) scale(0.095 -0.095)">
      <defs>
       <path id="STIXTwoText-63" d="M 2611 947 
L 2733 858 
Q 2611 602 2454 390 
Q 2298 179 2067 57 
Q 1837 -64 1491 -64 
Q 1094 -64 806 128 
Q 518 320 364 662 
Q 211 1005 211 1446 
Q 211 1952 380 2323 
Q 550 2694 873 2899 
Q 1197 3104 1658 3104 
Q 2112 3104 2371 2905 
Q 2630 2707 2630 2426 
Q 2630 2285 2563 2211 
Q 2496 2138 2362 2138 
Q 2221 2138 2147 2211 
Q 2074 2285 2029 2393 
Q 1984 2502 1936 2611 
Q 1888 2720 1801 2793 
Q 1715 2867 1549 2867 
Q 1158 2867 937 2582 
Q 717 2298 717 1747 
Q 717 1165 957 790 
Q 1197 416 1690 416 
Q 2003 416 2198 544 
Q 2394 672 2611 947 
z
" transform="scale(0.015625)"/>
       <path id="STIXTwoText-6f" d="M 1651 -64 
Q 979 -64 598 355 
Q 218 774 218 1549 
Q 218 2016 397 2365 
Q 576 2714 899 2909 
Q 1222 3104 1651 3104 
Q 2310 3104 2691 2694 
Q 3072 2285 3072 1574 
Q 3072 1037 2889 672 
Q 2707 307 2387 121 
Q 2067 -64 1651 -64 
z
M 1677 192 
Q 1939 192 2118 313 
Q 2298 435 2390 729 
Q 2483 1024 2483 1542 
Q 2483 2131 2268 2496 
Q 2054 2861 1626 2861 
Q 1261 2861 1037 2553 
Q 813 2246 813 1632 
Q 813 870 1040 528 
Q 1267 186 1677 192 
z
" transform="scale(0.015625)"/>
       <path id="STIXTwoText-65" d="M 1581 -64 
Q 1197 -64 886 118 
Q 576 301 397 656 
Q 218 1011 218 1523 
Q 218 2061 400 2409 
Q 582 2758 889 2931 
Q 1197 3104 1568 3104 
Q 2093 3104 2413 2739 
Q 2733 2374 2758 1702 
L 678 1702 
L 672 1939 
L 2157 1939 
Q 2150 2176 2073 2384 
Q 1997 2592 1849 2720 
Q 1702 2848 1472 2848 
Q 1101 2848 915 2557 
Q 730 2266 730 1734 
Q 730 1293 870 998 
Q 1011 704 1241 560 
Q 1472 416 1734 416 
Q 1997 416 2160 486 
Q 2323 557 2438 669 
Q 2554 781 2656 915 
L 2778 826 
Q 2694 646 2585 483 
Q 2477 320 2339 198 
Q 2202 77 2016 6 
Q 1830 -64 1581 -64 
z
" transform="scale(0.015625)"/>
       <path id="STIXGeneral-Regular-394" d="M 4320 0 
L 307 0 
L 2221 4314 
L 2349 4314 
L 4320 0 
z
M 3354 589 
L 2118 3405 
L 870 589 
L 3354 589 
z
" transform="scale(0.015625)"/>
       <path id="STIXGeneral-Italic-76" d="M 1325 448 
L 1523 653 
Q 1869 1005 2134 1456 
Q 2400 1907 2400 2131 
Q 2400 2208 2285 2317 
Q 2125 2458 2125 2605 
Q 2125 2701 2195 2761 
Q 2266 2822 2368 2822 
Q 2522 2822 2624 2704 
Q 2726 2586 2726 2445 
Q 2726 2074 2323 1453 
Q 1971 909 1562 474 
Q 1504 416 1421 326 
Q 1338 237 1299 192 
Q 1261 147 1200 86 
Q 1139 26 1110 -3 
Q 1082 -32 1043 -64 
Q 1005 -96 979 -105 
Q 954 -115 928 -115 
Q 870 -115 870 58 
L 870 211 
Q 870 1094 717 1990 
Q 653 2355 579 2470 
Q 506 2586 326 2586 
Q 198 2586 128 2579 
L 128 2662 
Q 480 2720 845 2797 
Q 915 2822 973 2822 
Q 1011 2822 1033 2739 
Q 1056 2656 1165 2093 
Q 1280 1510 1325 448 
z
" transform="scale(0.015625)"/>
       <path id="STIXTwoText-28" d="M 1997 -1011 
L 1894 -1190 
Q 1120 -794 656 -48 
Q 192 698 192 1754 
Q 192 2803 656 3542 
Q 1120 4282 1894 4672 
L 1997 4506 
Q 1299 4038 1008 3372 
Q 717 2707 717 1754 
Q 717 787 1008 118 
Q 1299 -550 1997 -1011 
z
" transform="scale(0.015625)"/>
       <path id="STIXTwoText-29" d="M 301 -1190 
L 198 -1011 
Q 902 -550 1190 118 
Q 1478 787 1478 1754 
Q 1478 2707 1190 3372 
Q 902 4038 198 4506 
L 301 4672 
Q 1075 4282 1539 3542 
Q 2003 2803 2003 1754 
Q 2003 698 1539 -48 
Q 1075 -794 301 -1190 
z
" transform="scale(0.015625)"/>
      </defs>
      <use xlink:href="#STIXTwoText-63"/>
      <use xlink:href="#STIXTwoText-6f" transform="translate(44.599991 0)"/>
      <use xlink:href="#STIXTwoText-72" transform="translate(95.999985 0)"/>
      <use xlink:href="#STIXTwoText-72" transform="translate(133.999969 0)"/>
      <use xlink:href="#STIXTwoText-65" transform="translate(171.999954 0)"/>
      <use xlink:href="#STIXTwoText-63" transform="translate(218.399948 0)"/>
      <use xlink:href="#STIXTwoText-74" transform="translate(262.999939 0)"/>
      <use xlink:href="#STIXTwoText-69" transform="translate(294.499924 0)"/>
      <use xlink:href="#STIXTwoText-6f" transform="translate(322.999908 0)"/>
      <use xlink:href="#STIXTwoText-6e" transform="translate(374.399902 0)"/>
      <use xlink:href="#STIXTwoText-20" transform="translate(431.999893 0)"/>
      <use xlink:href="#STIXGeneral-Regular-394" transform="translate(455.499878 0)"/>
      <use xlink:href="#STIXGeneral-Italic-76" transform="translate(527.69986 0)"/>
      <use xlink:href="#STIXTwoText-20" transform="translate(572.099854 0)"/>
      <use xlink:href="#STIXTwoText-28" transform="translate(595.599838 0)"/>
      <use xlink:href="#STIXTwoText-6d" transform="translate(629.899826 0)"/>
      <use xlink:href="#STIXTwoText-2f" transform="translate(715.099808 0)"/>
      <use xlink:href="#STIXTwoText-73" transform="translate(753.799805 0)"/>
      <use xlink:href="#STIXTwoText-29" transform="translate(793.299789 0)"/>
     </g>
    </g>
   </g>
   <g id="line2d_12">
    <path d="M 64.614309 189.121026 
L 121.952348 199.116173 
L 165.3269 221.424182 
L 208.701451 214.905608 
L 252.076003 206.648747 
" clip-path="url(#pb604a25082)" style="fill: none; stroke-dasharray: 5.18,2.24; stroke-dashoffset: 0; stroke: #4878cf; stroke-opacity: 0.85; stroke-width: 1.4"/>
    <defs>
     <path id="m4b6546002d" d="M -2.25 2.25 
L 2.25 2.25 
L 2.25 -2.25 
L -2.25 -2.25 
z
" style="stroke: #4878cf; stroke-opacity: 0.85; stroke-linejoin: miter"/>
    </defs>
    <g clip-path="url(#pb604a25082)">
     <use xlink:href="#m4b6546002d" x="64.614309" y="189.121026" style="fill: #4878cf; fill-opacity: 0.85; stroke: #4878cf; stroke-opacity: 0.85; stroke-linejoin: miter"/>
     <use xlink:href="#m4b6546002d" x="121.952348" y="199.116173" style="fill: #4878cf; fill-opacity: 0.85; stroke: #4878cf; stroke-opacity: 0.85; stroke-linejoin: miter"/>
     <use xlink:href="#m4b6546002d" x="165.3269" y="221.424182" style="fill: #4878cf; fill-opacity: 0.85; stroke: #4878cf; stroke-opacity: 0.85; stroke-linejoin: miter"/>
     <use xlink:href="#m4b6546002d" x="208.701451" y="214.905608" style="fill: #4878cf; fill-opacity: 0.85; stroke: #4878cf; stroke-opacity: 0.85; stroke-linejoin: miter"/>
     <use xlink:href="#m4b6546002d" x="252.076003" y="206.648747" style="fill: #4878cf; fill-opacity: 0.85; stroke: #4878cf; stroke-opacity: 0.85; stroke-linejoin: miter"/>
    </g>
   </g>
   <g id="patch_3">
    <path d="M 42.118906 230.992 
L 42.118906 20.5 
" style="fill: none; stroke: #bbbbbb; stroke-width: 0.8; stroke-linejoin: miter; stroke-linecap: square"/>
   </g>
   <g id="patch_4">
    <path d="M 274.571406 230.992 
L 274.571406 20.5 
" style="fill: none; stroke: #bbbbbb; stroke-width: 0.8; stroke-linejoin: miter; stroke-linecap: square"/>
   </g>
   <g id="patch_5">
    <path d="M 42.118906 230.992 
L 274.571406 230.992 
" style="fill: none; stroke: #bbbbbb; stroke-width: 0.8; stroke-linejoin: miter; stroke-linecap: square"/>
   </g>
   <g id="patch_6">
    <path d="M 42.118906 20.5 
L 274.571406 20.5 
" style="fill: none; stroke: #bbbbbb; stroke-width: 0.8; stroke-linejoin: miter; stroke-linecap: square"/>
   </g>
   <g id="line2d_13">
    <path d="M 64.614309 30.067818 
L 121.952348 56.214543 
L 165.3269 104.814134 
L 208.701451 86.41727 
L 252.076003 63.964403 
" clip-path="url(#pb604a25082)" style="fill: none; stroke: #1f6f3f; stroke-width: 2; stroke-linecap: round"/>
    <defs>
     <path id="mc8a53ba2bc" d="M 0 3 
C 0.795609 3 1.55874 2.683901 2.12132 2.12132 
C 2.683901 1.55874 3 0.795609 3 0 
C 3 -0.795609 2.683901 -1.55874 2.12132 -2.12132 
C 1.55874 -2.683901 0.795609 -3 0 -3 
C -0.795609 -3 -1.55874 -2.683901 -2.12132 -2.12132 
C -2.683901 -1.55874 -3 -0.795609 -3 0 
C -3 0.795609 -2.683901 1.55874 -2.12132 2.12132 
C -1.55874 2.683901 -0.795609 3 0 3 
z
" style="stroke: #1f6f3f"/>
    </defs>
    <g clip-path="url(#pb604a25082)">
     <use xlink:href="#mc8a53ba2bc" x="64.614309" y="30.067818" style="fill: #1f6f3f; stroke: #1f6f3f"/>
     <use xlink:href="#mc8a53ba2bc" x="121.952348" y="56.214543" style="fill: #1f6f3f; stroke: #1f6f3f"/>
     <use xlink:href="#mc8a53ba2bc" x="165.3269" y="104.814134" style="fill: #1f6f3f; stroke: #1f6f3f"/>
     <use xlink:href="#mc8a53ba2bc" x="208.701451" y="86.41727" style="fill: #1f6f3f; stroke: #1f6f3f"/>
     <use xlink:href="#mc8a53ba2bc" x="252.076003" y="63.964403" style="fill: #1f6f3f; stroke: #1f6f3f"/>
    </g>
   </g>
   <g id="text_14">
    <!-- sweet spot -->
    <g style="fill: #d1701f" transform="translate(173.3269 86.277134) scale(0.08 -0.08)">
     <defs>
      <path id="STIXTwoText-77" d="M 3450 -38 
L 3142 -38 
L 2432 1914 
L 2342 2093 
L 2240 2374 
Q 2163 2586 2096 2685 
Q 2029 2784 1939 2813 
Q 1850 2842 1709 2842 
L 1709 3027 
L 3046 3027 
L 3046 2842 
Q 2867 2842 2796 2800 
Q 2726 2758 2726 2682 
Q 2726 2624 2742 2557 
Q 2758 2490 2784 2419 
L 3302 1018 
L 3418 646 
L 3456 646 
L 3584 1018 
L 4090 2451 
Q 4096 2477 4112 2537 
Q 4128 2598 4128 2682 
Q 4128 2771 4038 2806 
Q 3949 2842 3770 2842 
L 3770 3027 
L 4877 3027 
L 4877 2842 
Q 4691 2842 4595 2755 
Q 4499 2669 4403 2419 
L 3450 -38 
z
M 1690 -38 
L 1395 -38 
L 435 2374 
Q 352 2573 281 2672 
Q 211 2771 121 2806 
Q 32 2842 -109 2842 
L -109 3027 
L 1267 3027 
L 1267 2842 
Q 1075 2842 1001 2800 
Q 928 2758 928 2682 
Q 928 2618 950 2560 
Q 973 2502 998 2432 
L 1555 1018 
L 1670 646 
L 1715 646 
L 1850 1018 
L 2336 2246 
L 2547 1824 
L 2438 1824 
L 1690 -38 
z
" transform="scale(0.015625)"/>
      <path id="STIXTwoText-70" d="M 1760 -1408 
L 141 -1408 
L 141 -1229 
Q 442 -1229 525 -1129 
Q 608 -1030 608 -762 
L 608 2406 
Q 608 2592 566 2662 
Q 525 2733 365 2733 
Q 301 2733 230 2726 
Q 160 2720 160 2720 
L 160 2906 
L 966 3085 
L 1126 3085 
L 1126 2547 
L 1146 2547 
Q 1376 2816 1616 2960 
Q 1856 3104 2138 3104 
Q 2458 3104 2698 2921 
Q 2938 2739 3075 2416 
Q 3213 2093 3213 1670 
Q 3213 1126 3024 739 
Q 2835 352 2515 144 
Q 2195 -64 1811 -64 
Q 1632 -64 1469 -22 
Q 1306 19 1165 115 
L 1139 115 
L 1139 -723 
Q 1139 -928 1190 -1037 
Q 1242 -1146 1376 -1184 
Q 1510 -1222 1760 -1222 
L 1760 -1408 
z
M 1843 186 
Q 2182 186 2406 506 
Q 2630 826 2630 1491 
Q 2630 2099 2432 2384 
Q 2234 2669 1875 2669 
Q 1619 2669 1424 2534 
Q 1229 2400 1139 2278 
L 1139 608 
Q 1203 544 1299 441 
Q 1395 339 1529 262 
Q 1664 186 1843 186 
z
" transform="scale(0.015625)"/>
     </defs>
     <use xlink:href="#STIXTwoText-73"/>
     <use xlink:href="#STIXTwoText-77" transform="translate(39.499985 0)"/>
     <use xlink:href="#STIXTwoText-65" transform="translate(114.399979 0)"/>
     <use xlink:href="#STIXTwoText-65" transform="translate(160.799973 0)"/>
     <use xlink:href="#STIXTwoText-74" transform="translate(207.199966 0)"/>
     <use xlink:href="#STIXTwoText-20" transform="translate(238.699951 0)"/>
     <use xlink:href="#STIXTwoText-73" transform="translate(262.199936 0)"/>
     <use xlink:href="#STIXTwoText-70" transform="translate(301.699921 0)"/>
     <use xlink:href="#STIXTwoText-6f" transform="translate(355.399918 0)"/>
     <use xlink:href="#STIXTwoText-74" transform="translate(406.799911 0)"/>
    </g>
    <!-- 133.5 m/s -->
    <g style="fill: #d1701f" transform="translate(173.3269 94.814134) scale(0.08 -0.08)">
     <defs>
      <path id="STIXTwoText-2e" d="M 774 -51 
Q 582 -51 489 57 
Q 397 166 397 326 
Q 397 493 499 611 
Q 602 730 781 730 
Q 966 730 1068 608 
Q 1171 486 1171 320 
Q 1171 173 1068 61 
Q 966 -51 774 -51 
z
" transform="scale(0.015625)"/>
     </defs>
     <use xlink:href="#STIXTwoText-31"/>
     <use xlink:href="#STIXTwoText-33" transform="translate(49.499985 0)"/>
     <use xlink:href="#STIXTwoText-33" transform="translate(98.999969 0)"/>
     <use xlink:href="#STIXTwoText-2e" transform="translate(148.499954 0)"/>
     <use xlink:href="#STIXTwoText-35" transform="translate(172.999939 0)"/>
     <use xlink:href="#STIXTwoText-20" transform="translate(222.499924 0)"/>
     <use xlink:href="#STIXTwoText-6d" transform="translate(245.999908 0)"/>
     <use xlink:href="#STIXTwoText-2f" transform="translate(331.19989 0)"/>
     <use xlink:href="#STIXTwoText-73" transform="translate(369.899887 0)"/>
    </g>
   </g>
   <g id="text_15">
    <!-- (A) Rotating noise floor -->
    <g style="fill: #262626" transform="translate(42.118906 14.5) scale(0.1 -0.1)">
     <defs>
      <path id="STIXTwoText-41" d="M 1363 0 
L 19 0 
L 19 192 
Q 198 192 307 249 
Q 416 307 518 483 
Q 621 659 774 1024 
L 2131 4237 
L 2394 4237 
L 3910 762 
Q 4051 448 4182 320 
Q 4314 192 4570 192 
L 4570 0 
L 2848 0 
L 2848 192 
Q 2944 192 3046 205 
Q 3149 218 3219 269 
Q 3290 320 3290 429 
Q 3290 499 3267 592 
Q 3245 685 3181 826 
L 2906 1466 
L 2861 1594 
L 2131 3450 
L 2112 3450 
L 1363 1594 
L 1318 1466 
L 1005 723 
Q 979 646 956 572 
Q 934 499 934 410 
Q 934 275 1036 233 
Q 1139 192 1363 192 
L 1363 0 
z
M 3002 1402 
L 1222 1402 
L 1318 1658 
L 2906 1658 
L 3002 1402 
z
" transform="scale(0.015625)"/>
      <path id="STIXTwoText-52" d="M 2074 0 
L 275 0 
L 275 192 
Q 518 192 640 230 
Q 762 269 803 397 
Q 845 525 845 794 
L 845 3539 
Q 845 3718 809 3820 
Q 774 3923 652 3968 
Q 531 4013 275 4013 
L 275 4205 
L 1850 4205 
Q 2330 4205 2704 4112 
Q 3078 4019 3289 3792 
Q 3501 3565 3501 3155 
Q 3501 2797 3337 2573 
Q 3174 2349 2928 2224 
Q 2682 2099 2419 2035 
L 2419 2010 
Q 2528 1946 2665 1789 
Q 2803 1632 3020 1328 
Q 3238 1024 3590 518 
Q 3744 307 3888 249 
Q 4032 192 4250 192 
L 4250 0 
L 3194 0 
Q 2931 397 2755 662 
Q 2579 928 2457 1110 
Q 2336 1293 2240 1433 
Q 2144 1574 2048 1715 
Q 1952 1862 1872 1894 
Q 1792 1926 1619 1926 
L 1440 1926 
L 1440 794 
Q 1440 531 1485 400 
Q 1530 269 1664 230 
Q 1798 192 2074 192 
L 2074 0 
z
M 1440 2176 
L 1683 2170 
Q 2035 2189 2297 2285 
Q 2560 2381 2707 2585 
Q 2854 2790 2854 3130 
Q 2854 3514 2617 3734 
Q 2381 3955 1862 3955 
Q 1760 3955 1651 3952 
Q 1542 3949 1440 3936 
L 1440 2176 
z
" transform="scale(0.015625)"/>
      <path id="STIXTwoText-66" d="M 1837 0 
L 115 0 
L 115 186 
Q 352 186 464 227 
Q 576 269 614 390 
Q 653 512 653 762 
L 653 2797 
Q 653 3162 669 3395 
Q 685 3629 729 3789 
Q 774 3949 858 4096 
Q 986 4320 1181 4441 
Q 1376 4563 1709 4563 
Q 1920 4563 2080 4512 
Q 2240 4461 2333 4361 
Q 2426 4262 2426 4115 
Q 2426 3974 2349 3907 
Q 2272 3840 2163 3840 
Q 2042 3840 1965 3920 
Q 1888 4000 1818 4090 
Q 1754 4179 1680 4252 
Q 1606 4326 1491 4326 
Q 1312 4326 1248 4163 
Q 1184 4000 1184 3597 
L 1184 762 
Q 1184 512 1235 390 
Q 1286 269 1427 227 
Q 1568 186 1837 186 
L 1837 0 
z
M 1965 2726 
L 166 2726 
L 166 2995 
L 1965 2995 
L 1965 2726 
z
" transform="scale(0.015625)"/>
     </defs>
     <use xlink:href="#STIXTwoText-28"/>
     <use xlink:href="#STIXTwoText-41" transform="translate(34.299988 0)"/>
     <use xlink:href="#STIXTwoText-29" transform="translate(106.099976 0)"/>
     <use xlink:href="#STIXTwoText-20" transform="translate(140.399963 0)"/>
     <use xlink:href="#STIXTwoText-52" transform="translate(163.899948 0)"/>
     <use xlink:href="#STIXTwoText-6f" transform="translate(229.799942 0)"/>
     <use xlink:href="#STIXTwoText-74" transform="translate(281.199936 0)"/>
     <use xlink:href="#STIXTwoText-61" transform="translate(312.699921 0)"/>
     <use xlink:href="#STIXTwoText-74" transform="translate(360.699905 0)"/>
     <use xlink:href="#STIXTwoText-69" transform="translate(392.19989 0)"/>
     <use xlink:href="#STIXTwoText-6e" transform="translate(420.699875 0)"/>
     <use xlink:href="#STIXTwoText-67" transform="translate(478.299866 0)"/>
     <use xlink:href="#STIXTwoText-20" transform="translate(526.69986 0)"/>
     <use xlink:href="#STIXTwoText-6e" transform="translate(550.199844 0)"/>
     <use xlink:href="#STIXTwoText-6f" transform="translate(607.799835 0)"/>
     <use xlink:href="#STIXTwoText-69" transform="translate(659.199829 0)"/>
     <use xlink:href="#STIXTwoText-73" transform="translate(687.699814 0)"/>
     <use xlink:href="#STIXTwoText-65" transform="translate(727.199799 0)"/>
     <use xlink:href="#STIXTwoText-20" transform="translate(773.599792 0)"/>
     <use xlink:href="#STIXTwoText-66" transform="translate(797.099777 0)"/>
     <use xlink:href="#STIXTwoText-6c" transform="translate(827.799774 0)"/>
     <use xlink:href="#STIXTwoText-6f" transform="translate(856.099762 0)"/>
     <use xlink:href="#STIXTwoText-6f" transform="translate(907.499756 0)"/>
     <use xlink:href="#STIXTwoText-72" transform="translate(958.89975 0)"/>
    </g>
   </g>
   <g id="PathCollection_1">
    <path d="M 165.3269 110.515011 
C 166.83879 110.515011 168.288961 109.914331 169.358029 108.845263 
C 170.427096 107.776195 171.027777 106.326025 171.027777 104.814134 
C 171.027777 103.302244 170.427096 101.852073 169.358029 100.783005 
C 168.288961 99.713938 166.83879 99.113257 165.3269 99.113257 
C 163.815009 99.113257 162.364839 99.713938 161.295771 100.783005 
C 160.226703 101.852073 159.626023 103.302244 159.626023 104.814134 
C 159.626023 106.326025 160.226703 107.776195 161.295771 108.845263 
C 162.364839 109.914331 163.815009 110.515011 165.3269 110.515011 
L 165.3269 110.515011 
z
" clip-path="url(#pb604a25082)" style="fill: none; stroke: #d1701f; stroke-width: 2"/>
   </g>
   <g id="legend_1">
    <g id="patch_7">
     <path d="M 132.545156 49.715 
L 184.145156 49.715 
Q 185.745156 49.715 185.745156 48.115 
L 185.745156 26.1 
Q 185.745156 24.5 184.145156 24.5 
L 132.545156 24.5 
Q 130.945156 24.5 130.945156 26.1 
L 130.945156 48.115 
Q 130.945156 49.715 132.545156 49.715 
z
" style="fill: #ffffff; opacity: 0.9; stroke: #cccccc; stroke-linejoin: miter"/>
    </g>
    <g id="line2d_14">
     <path d="M 134.145156 30.5475 
L 142.145156 30.5475 
L 150.145156 30.5475 
" style="fill: none; stroke: #1f6f3f; stroke-width: 2; stroke-linecap: round"/>
     <g>
      <use xlink:href="#mc8a53ba2bc" x="142.145156" y="30.5475" style="fill: #1f6f3f; stroke: #1f6f3f"/>
     </g>
    </g>
    <g id="text_16">
     <!-- CVaR$_{95}$ -->
     <g style="fill: #262626" transform="translate(156.545156 33.3475) scale(0.08 -0.08)">
      <defs>
       <path id="STIXTwoText-43" d="M 2330 -70 
Q 1670 -70 1222 211 
Q 774 493 547 985 
Q 320 1478 320 2099 
Q 320 2797 589 3283 
Q 858 3770 1331 4026 
Q 1805 4282 2419 4282 
Q 2758 4282 2963 4224 
Q 3168 4166 3289 4108 
Q 3411 4051 3488 4051 
Q 3565 4051 3606 4118 
Q 3648 4186 3706 4282 
L 3898 4282 
L 3898 2816 
L 3680 2816 
Q 3578 3443 3248 3724 
Q 2918 4006 2426 4006 
Q 1734 4006 1360 3513 
Q 986 3021 986 2163 
Q 986 1523 1181 1120 
Q 1376 717 1721 525 
Q 2067 333 2515 333 
Q 2957 333 3289 496 
Q 3622 659 3891 954 
L 4045 819 
Q 3872 563 3632 361 
Q 3392 160 3072 45 
Q 2752 -70 2330 -70 
z
" transform="scale(0.015625)"/>
       <path id="STIXTwoText-56" d="M 2330 -32 
L 2074 -32 
L 608 3430 
Q 518 3648 428 3773 
Q 339 3898 224 3955 
Q 109 4013 -64 4013 
L -64 4205 
L 1651 4205 
L 1651 4013 
Q 1568 4013 1465 4000 
Q 1363 3987 1289 3939 
Q 1216 3891 1216 3770 
Q 1216 3642 1325 3379 
L 2099 1478 
L 2349 806 
L 2381 806 
L 2605 1446 
L 3411 3482 
Q 3443 3552 3462 3632 
Q 3482 3712 3482 3795 
Q 3482 3923 3379 3968 
Q 3277 4013 3053 4013 
L 3053 4205 
L 4397 4205 
L 4397 4013 
Q 4262 4013 4169 3984 
Q 4077 3955 4003 3868 
Q 3930 3782 3846 3616 
Q 3763 3450 3648 3181 
L 2330 -32 
z
" transform="scale(0.015625)"/>
       <path id="STIXGeneral-Regular-39" d="M 378 -141 
L 358 -13 
Q 1094 115 1603 608 
Q 2112 1101 2304 1882 
Q 1933 1517 1344 1517 
Q 826 1517 509 1875 
Q 192 2234 192 2816 
Q 192 3462 573 3894 
Q 954 4326 1523 4326 
Q 2131 4326 2528 3840 
Q 2938 3328 2938 2522 
Q 2938 1958 2742 1462 
Q 2547 966 2170 621 
Q 1773 262 1395 105 
Q 1018 -51 378 -141 
z
M 2317 2272 
L 2317 2522 
Q 2317 4147 1472 4147 
Q 1171 4147 1005 3930 
Q 909 3802 845 3546 
Q 781 3290 781 3034 
Q 781 2464 995 2128 
Q 1210 1792 1568 1792 
Q 1824 1792 2070 1917 
Q 2317 2042 2317 2272 
z
" transform="scale(0.015625)"/>
       <path id="STIXGeneral-Regular-35" d="M 2803 4358 
L 2573 3814 
Q 2534 3731 2400 3731 
L 1158 3731 
L 902 3187 
Q 1606 3053 1920 2896 
Q 2234 2739 2502 2368 
Q 2726 2061 2726 1555 
Q 2726 1094 2576 780 
Q 2426 467 2099 224 
Q 1664 -90 1011 -90 
Q 646 -90 422 19 
Q 198 128 198 307 
Q 198 550 486 550 
Q 717 550 960 352 
Q 1210 147 1414 147 
Q 1747 147 2012 480 
Q 2278 813 2278 1229 
Q 2278 1843 1850 2189 
Q 1293 2637 486 2637 
Q 410 2637 410 2688 
L 416 2720 
L 1114 4237 
L 2438 4237 
Q 2547 4237 2608 4269 
Q 2669 4301 2746 4403 
L 2803 4358 
z
" transform="scale(0.015625)"/>
      </defs>
      <use xlink:href="#STIXTwoText-43" transform="translate(0 0.09375)"/>
      <use xlink:href="#STIXTwoText-56" transform="translate(66.999985 0.09375)"/>
      <use xlink:href="#STIXTwoText-61" transform="translate(134.999969 0.09375)"/>
      <use xlink:href="#STIXTwoText-52" transform="translate(182.999954 0.09375)"/>
      <use xlink:href="#STIXGeneral-Regular-39" transform="translate(250.443229 -13.134375) scale(0.7)"/>
      <use xlink:href="#STIXGeneral-Regular-35" transform="translate(285.443219 -13.134375) scale(0.7)"/>
     </g>
    </g>
    <g id="line2d_15">
     <path d="M 134.145156 41.955 
L 142.145156 41.955 
L 150.145156 41.955 
" style="fill: none; stroke-dasharray: 5.18,2.24; stroke-dashoffset: 0; stroke: #4878cf; stroke-opacity: 0.85; stroke-width: 1.4"/>
     <g>
      <use xlink:href="#m4b6546002d" x="142.145156" y="41.955" style="fill: #4878cf; fill-opacity: 0.85; stroke: #4878cf; stroke-opacity: 0.85; stroke-linejoin: miter"/>
     </g>
    </g>
    <g id="text_17">
     <!-- mean -->
     <g style="fill: #262626" transform="translate(156.545156 44.755) scale(0.08 -0.08)">
      <use xlink:href="#STIXTwoText-6d"/>
      <use xlink:href="#STIXTwoText-65" transform="translate(85.199982 0)"/>
      <use xlink:href="#STIXTwoText-61" transform="translate(131.599976 0)"/>
      <use xlink:href="#STIXTwoText-6e" transform="translate(179.59996 0)"/>
     </g>
    </g>
   </g>
  </g>
  <g id="axes_2">
   <g id="patch_8">
    <path d="M 309.691406 230.992 
L 542.143906 230.992 
L 542.143906 20.5 
L 309.691406 20.5 
z
" style="fill: #f5f5f5"/>
   </g>
   <g id="matplotlib.axis_3">
    <g id="xtick_14">
     <g id="line2d_16">
      <path d="M 332.186809 230.992 
L 332.186809 20.5 
" clip-path="url(#p84f3e33ab9)" style="fill: none; stroke: #dddddd; stroke-width: 0.6; stroke-linecap: round"/>
     </g>
     <g id="text_18">
      <!-- 2 -->
      <g style="fill: #262626" transform="translate(330.083059 246.492469) scale(0.085 -0.085)">
       <use xlink:href="#STIXTwoText-32"/>
      </g>
     </g>
    </g>
    <g id="xtick_15">
     <g id="line2d_17">
      <path d="M 376.094888 230.992 
L 376.094888 20.5 
" clip-path="url(#p84f3e33ab9)" style="fill: none; stroke: #dddddd; stroke-width: 0.6; stroke-linecap: round"/>
     </g>
     <g id="text_19">
      <!-- 5 -->
      <g style="fill: #262626" transform="translate(373.991138 246.492469) scale(0.085 -0.085)">
       <use xlink:href="#STIXTwoText-35"/>
      </g>
     </g>
    </g>
    <g id="xtick_16">
     <g id="line2d_18">
      <path d="M 442.525246 230.992 
L 442.525246 20.5 
" clip-path="url(#p84f3e33ab9)" style="fill: none; stroke: #dddddd; stroke-width: 0.6; stroke-linecap: round"/>
     </g>
     <g id="text_20">
      <!-- 20 -->
      <g style="fill: #262626" transform="translate(438.317746 246.492469) scale(0.085 -0.085)">
       <use xlink:href="#STIXTwoText-32"/>
       <use xlink:href="#STIXTwoText-30" transform="translate(49.499985 0)"/>
      </g>
     </g>
    </g>
    <g id="xtick_17">
     <g id="line2d_19">
      <path d="M 519.648503 230.992 
L 519.648503 20.5 
" clip-path="url(#p84f3e33ab9)" style="fill: none; stroke: #dddddd; stroke-width: 0.6; stroke-linecap: round"/>
     </g>
     <g id="text_21">
      <!-- 100 -->
      <g style="fill: #262626" transform="translate(513.337253 246.492469) scale(0.085 -0.085)">
       <use xlink:href="#STIXTwoText-31"/>
       <use xlink:href="#STIXTwoText-30" transform="translate(49.499985 0)"/>
       <use xlink:href="#STIXTwoText-30" transform="translate(98.999969 0)"/>
      </g>
     </g>
    </g>
    <g id="xtick_18"/>
    <g id="xtick_19"/>
    <g id="xtick_20"/>
    <g id="xtick_21"/>
    <g id="xtick_22"/>
    <g id="xtick_23"/>
    <g id="xtick_24"/>
    <g id="xtick_25"/>
    <g id="xtick_26"/>
    <g id="xtick_27"/>
    <g id="xtick_28"/>
    <g id="xtick_29"/>
    <g id="xtick_30"/>
    <g id="text_22">
     <!-- training sims / individual -->
     <g style="fill: #262626" transform="translate(374.983555 259.098563) scale(0.095 -0.095)">
      <use xlink:href="#STIXTwoText-74"/>
      <use xlink:href="#STIXTwoText-72" transform="translate(31.499985 0)"/>
      <use xlink:href="#STIXTwoText-61" transform="translate(69.499969 0)"/>
      <use xlink:href="#STIXTwoText-69" transform="translate(117.499954 0)"/>
      <use xlink:href="#STIXTwoText-6e" transform="translate(145.999939 0)"/>
      <use xlink:href="#STIXTwoText-69" transform="translate(203.59993 0)"/>
      <use xlink:href="#STIXTwoText-6e" transform="translate(232.099915 0)"/>
      <use xlink:href="#STIXTwoText-67" transform="translate(289.699905 0)"/>
      <use xlink:href="#STIXTwoText-20" transform="translate(338.099899 0)"/>
      <use xlink:href="#STIXTwoText-73" transform="translate(361.599884 0)"/>
      <use xlink:href="#STIXTwoText-69" transform="translate(401.099869 0)"/>
      <use xlink:href="#STIXTwoText-6d" transform="translate(429.599854 0)"/>
      <use xlink:href="#STIXTwoText-73" transform="translate(514.799835 0)"/>
      <use xlink:href="#STIXTwoText-20" transform="translate(554.29982 0)"/>
      <use xlink:href="#STIXTwoText-2f" transform="translate(577.799805 0)"/>
      <use xlink:href="#STIXTwoText-20" transform="translate(616.499802 0)"/>
      <use xlink:href="#STIXTwoText-69" transform="translate(639.999786 0)"/>
      <use xlink:href="#STIXTwoText-6e" transform="translate(668.499771 0)"/>
      <use xlink:href="#STIXTwoText-64" transform="translate(726.099762 0)"/>
      <use xlink:href="#STIXTwoText-69" transform="translate(779.999756 0)"/>
      <use xlink:href="#STIXTwoText-76" transform="translate(808.499741 0)"/>
      <use xlink:href="#STIXTwoText-69" transform="translate(856.599731 0)"/>
      <use xlink:href="#STIXTwoText-64" transform="translate(885.099716 0)"/>
      <use xlink:href="#STIXTwoText-75" transform="translate(938.99971 0)"/>
      <use xlink:href="#STIXTwoText-61" transform="translate(995.999695 0)"/>
      <use xlink:href="#STIXTwoText-6c" transform="translate(1043.99968 0)"/>
     </g>
    </g>
   </g>
   <g id="matplotlib.axis_4">
    <g id="ytick_7">
     <g id="line2d_20">
      <path d="M 309.691406 221.07031 
L 542.143906 221.07031 
" clip-path="url(#p84f3e33ab9)" style="fill: none; stroke: #dddddd; stroke-width: 0.6; stroke-linecap: round"/>
     </g>
     <g id="text_23">
      <!-- 110 -->
      <g style="fill: #262626" transform="translate(287.568906 224.070544) scale(0.085 -0.085)">
       <use xlink:href="#STIXTwoText-31"/>
       <use xlink:href="#STIXTwoText-31" transform="translate(49.499985 0)"/>
       <use xlink:href="#STIXTwoText-30" transform="translate(98.999969 0)"/>
      </g>
     </g>
    </g>
    <g id="ytick_8">
     <g id="line2d_21">
      <path d="M 309.691406 176.836291 
L 542.143906 176.836291 
" clip-path="url(#p84f3e33ab9)" style="fill: none; stroke: #dddddd; stroke-width: 0.6; stroke-linecap: round"/>
     </g>
     <g id="text_24">
      <!-- 120 -->
      <g style="fill: #262626" transform="translate(287.568906 179.836526) scale(0.085 -0.085)">
       <use xlink:href="#STIXTwoText-31"/>
       <use xlink:href="#STIXTwoText-32" transform="translate(49.499985 0)"/>
       <use xlink:href="#STIXTwoText-30" transform="translate(98.999969 0)"/>
      </g>
     </g>
    </g>
    <g id="ytick_9">
     <g id="line2d_22">
      <path d="M 309.691406 132.602273 
L 542.143906 132.602273 
" clip-path="url(#p84f3e33ab9)" style="fill: none; stroke: #dddddd; stroke-width: 0.6; stroke-linecap: round"/>
     </g>
     <g id="text_25">
      <!-- 130 -->
      <g style="fill: #262626" transform="translate(287.568906 135.602507) scale(0.085 -0.085)">
       <use xlink:href="#STIXTwoText-31"/>
       <use xlink:href="#STIXTwoText-33" transform="translate(49.499985 0)"/>
       <use xlink:href="#STIXTwoText-30" transform="translate(98.999969 0)"/>
      </g>
     </g>
    </g>
    <g id="ytick_10">
     <g id="line2d_23">
      <path d="M 309.691406 88.368254 
L 542.143906 88.368254 
" clip-path="url(#p84f3e33ab9)" style="fill: none; stroke: #dddddd; stroke-width: 0.6; stroke-linecap: round"/>
     </g>
     <g id="text_26">
      <!-- 140 -->
      <g style="fill: #262626" transform="translate(287.568906 91.368489) scale(0.085 -0.085)">
       <use xlink:href="#STIXTwoText-31"/>
       <use xlink:href="#STIXTwoText-34" transform="translate(49.499985 0)"/>
       <use xlink:href="#STIXTwoText-30" transform="translate(98.999969 0)"/>
      </g>
     </g>
    </g>
    <g id="ytick_11">
     <g id="line2d_24">
      <path d="M 309.691406 44.134236 
L 542.143906 44.134236 
" clip-path="url(#p84f3e33ab9)" style="fill: none; stroke: #dddddd; stroke-width: 0.6; stroke-linecap: round"/>
     </g>
     <g id="text_27">
      <!-- 150 -->
      <g style="fill: #262626" transform="translate(287.568906 47.13447) scale(0.085 -0.085)">
       <use xlink:href="#STIXTwoText-31"/>
       <use xlink:href="#STIXTwoText-35" transform="translate(49.499985 0)"/>
       <use xlink:href="#STIXTwoText-30" transform="translate(98.999969 0)"/>
      </g>
     </g>
    </g>
   </g>
   <g id="line2d_25">
    <path d="M 332.186809 221.424182 
L 376.094888 191.035411 
L 442.525246 181.967437 
L 519.648503 128.223105 
" clip-path="url(#p84f3e33ab9)" style="fill: none; stroke-dasharray: 5.18,2.24; stroke-dashoffset: 0; stroke: #4878cf; stroke-opacity: 0.85; stroke-width: 1.4"/>
    <g clip-path="url(#p84f3e33ab9)">
     <use xlink:href="#m4b6546002d" x="332.186809" y="221.424182" style="fill: #4878cf; fill-opacity: 0.85; stroke: #4878cf; stroke-opacity: 0.85; stroke-linejoin: miter"/>
     <use xlink:href="#m4b6546002d" x="376.094888" y="191.035411" style="fill: #4878cf; fill-opacity: 0.85; stroke: #4878cf; stroke-opacity: 0.85; stroke-linejoin: miter"/>
     <use xlink:href="#m4b6546002d" x="442.525246" y="181.967437" style="fill: #4878cf; fill-opacity: 0.85; stroke: #4878cf; stroke-opacity: 0.85; stroke-linejoin: miter"/>
     <use xlink:href="#m4b6546002d" x="519.648503" y="128.223105" style="fill: #4878cf; fill-opacity: 0.85; stroke: #4878cf; stroke-opacity: 0.85; stroke-linejoin: miter"/>
    </g>
   </g>
   <g id="patch_9">
    <path d="M 309.691406 230.992 
L 309.691406 20.5 
" style="fill: none; stroke: #bbbbbb; stroke-width: 0.8; stroke-linejoin: miter; stroke-linecap: square"/>
   </g>
   <g id="patch_10">
    <path d="M 542.143906 230.992 
L 542.143906 20.5 
" style="fill: none; stroke: #bbbbbb; stroke-width: 0.8; stroke-linejoin: miter; stroke-linecap: square"/>
   </g>
   <g id="patch_11">
    <path d="M 309.691406 230.992 
L 542.143906 230.992 
" style="fill: none; stroke: #bbbbbb; stroke-width: 0.8; stroke-linejoin: miter; stroke-linecap: square"/>
   </g>
   <g id="patch_12">
    <path d="M 309.691406 20.5 
L 542.143906 20.5 
" style="fill: none; stroke: #bbbbbb; stroke-width: 0.8; stroke-linejoin: miter; stroke-linecap: square"/>
   </g>
   <g id="line2d_26">
    <path d="M 332.186809 187.806328 
L 376.094888 133.133081 
L 442.525246 100.222971 
L 519.648503 30.067818 
" clip-path="url(#p84f3e33ab9)" style="fill: none; stroke: #1f6f3f; stroke-width: 2; stroke-linecap: round"/>
    <g clip-path="url(#p84f3e33ab9)">
     <use xlink:href="#mc8a53ba2bc" x="332.186809" y="187.806328" style="fill: #1f6f3f; stroke: #1f6f3f"/>
     <use xlink:href="#mc8a53ba2bc" x="376.094888" y="133.133081" style="fill: #1f6f3f; stroke: #1f6f3f"/>
     <use xlink:href="#mc8a53ba2bc" x="442.525246" y="100.222971" style="fill: #1f6f3f; stroke: #1f6f3f"/>
     <use xlink:href="#mc8a53ba2bc" x="519.648503" y="30.067818" style="fill: #1f6f3f; stroke: #1f6f3f"/>
    </g>
   </g>
   <g id="text_28">
    <!-- dominates -->
    <g style="fill: #d1701f" transform="translate(340.186809 169.269328) scale(0.08 -0.08)">
     <use xlink:href="#STIXTwoText-64"/>
     <use xlink:href="#STIXTwoText-6f" transform="translate(53.899994 0)"/>
     <use xlink:href="#STIXTwoText-6d" transform="translate(105.299988 0)"/>
     <use xlink:href="#STIXTwoText-69" transform="translate(190.499969 0)"/>
     <use xlink:href="#STIXTwoText-6e" transform="translate(218.999954 0)"/>
     <use xlink:href="#STIXTwoText-61" transform="translate(276.599945 0)"/>
     <use xlink:href="#STIXTwoText-74" transform="translate(324.59993 0)"/>
     <use xlink:href="#STIXTwoText-65" transform="translate(356.099915 0)"/>
     <use xlink:href="#STIXTwoText-73" transform="translate(402.499908 0)"/>
    </g>
    <!-- 117.5 m/s -->
    <g style="fill: #d1701f" transform="translate(340.186809 177.806328) scale(0.08 -0.08)">
     <defs>
      <path id="STIXTwoText-37" d="M 1472 -51 
L 966 -51 
L 2477 3514 
L 1050 3514 
Q 870 3514 774 3482 
Q 678 3450 617 3347 
Q 557 3245 467 3034 
L 269 3053 
L 525 4032 
L 2970 4032 
L 2970 3834 
L 1472 -51 
z
" transform="scale(0.015625)"/>
     </defs>
     <use xlink:href="#STIXTwoText-31"/>
     <use xlink:href="#STIXTwoText-31" transform="translate(49.499985 0)"/>
     <use xlink:href="#STIXTwoText-37" transform="translate(98.999969 0)"/>
     <use xlink:href="#STIXTwoText-2e" transform="translate(148.499954 0)"/>
     <use xlink:href="#STIXTwoText-35" transform="translate(172.999939 0)"/>
     <use xlink:href="#STIXTwoText-20" transform="translate(222.499924 0)"/>
     <use xlink:href="#STIXTwoText-6d" transform="translate(245.999908 0)"/>
     <use xlink:href="#STIXTwoText-2f" transform="translate(331.19989 0)"/>
     <use xlink:href="#STIXTwoText-73" transform="translate(369.899887 0)"/>
    </g>
   </g>
   <g id="text_29">
    <!-- (B) Adaptive, $n_{sims}\!\times\!n_{gen}=20000$ -->
    <g style="fill: #262626" transform="translate(309.691406 14.5) scale(0.1 -0.1)">
     <defs>
      <path id="STIXTwoText-42" d="M 2202 0 
L 230 0 
L 230 192 
Q 493 192 624 237 
Q 755 282 803 416 
Q 851 550 851 813 
L 851 3430 
Q 851 3686 803 3811 
Q 755 3936 624 3974 
Q 493 4013 230 4013 
L 230 4205 
L 1958 4205 
Q 2528 4205 2873 4086 
Q 3219 3968 3372 3747 
Q 3526 3526 3526 3206 
Q 3526 2778 3270 2563 
Q 3014 2349 2618 2240 
L 2618 2214 
Q 2893 2170 3145 2048 
Q 3398 1926 3564 1705 
Q 3731 1485 3731 1133 
Q 3731 589 3324 294 
Q 2918 0 2202 0 
z
M 1901 237 
Q 2106 237 2310 262 
Q 2515 288 2684 374 
Q 2854 461 2956 637 
Q 3059 813 3059 1120 
Q 3059 1485 2889 1686 
Q 2720 1888 2454 1968 
Q 2189 2048 1888 2048 
L 1440 2048 
L 1440 256 
Q 1555 250 1670 243 
Q 1786 237 1901 237 
z
M 1440 3936 
L 1440 2317 
L 1875 2317 
Q 2458 2317 2675 2518 
Q 2893 2720 2893 3155 
Q 2893 3533 2653 3744 
Q 2413 3955 1824 3955 
Q 1734 3955 1635 3952 
Q 1536 3949 1440 3936 
z
" transform="scale(0.015625)"/>
      <path id="STIXTwoText-2c" d="M 448 -845 
L 371 -685 
Q 493 -634 614 -554 
Q 736 -474 819 -320 
Q 902 -166 902 90 
Q 800 51 704 51 
Q 518 51 435 153 
Q 352 256 352 397 
Q 352 550 454 662 
Q 557 774 749 774 
Q 909 774 1017 707 
Q 1126 640 1184 515 
Q 1242 390 1242 211 
Q 1242 -58 1155 -243 
Q 1069 -429 941 -544 
Q 813 -659 678 -729 
Q 544 -800 448 -845 
z
" transform="scale(0.015625)"/>
      <path id="STIXGeneral-Italic-6e" d="M 2944 749 
L 3034 666 
Q 2707 218 2534 80 
Q 2362 -58 2138 -58 
Q 2010 -58 1923 28 
Q 1837 115 1837 288 
Q 1837 390 1939 768 
L 2221 1805 
Q 2310 2150 2310 2310 
Q 2310 2496 2157 2496 
Q 1971 2496 1750 2275 
Q 1530 2054 1210 1587 
Q 998 1274 899 1024 
Q 800 774 570 0 
L 90 0 
L 704 2240 
Q 717 2304 717 2349 
Q 717 2445 630 2480 
Q 544 2515 301 2522 
L 301 2624 
Q 550 2675 857 2729 
Q 1165 2784 1338 2822 
L 1363 2810 
L 934 1414 
Q 1408 2170 1753 2496 
Q 2099 2822 2413 2822 
Q 2611 2822 2720 2716 
Q 2829 2611 2829 2432 
Q 2829 2272 2765 2048 
L 2406 749 
Q 2317 429 2317 358 
Q 2317 243 2419 243 
Q 2541 243 2810 582 
Q 2854 634 2944 749 
z
" transform="scale(0.015625)"/>
      <path id="STIXGeneral-Italic-73" d="M 2342 2829 
L 2214 1933 
L 2112 1933 
Q 2022 2675 1542 2675 
Q 1370 2675 1267 2579 
Q 1165 2483 1165 2310 
Q 1165 2067 1510 1658 
Q 1946 1152 1946 787 
Q 1946 397 1686 163 
Q 1427 -70 1024 -70 
Q 838 -70 672 -6 
Q 538 51 390 51 
Q 262 51 205 -83 
L 102 -83 
L 230 934 
L 333 934 
Q 461 64 973 64 
Q 1203 64 1331 192 
Q 1459 320 1459 557 
Q 1459 845 1101 1293 
Q 698 1798 698 2131 
Q 698 2451 909 2636 
Q 1120 2822 1472 2822 
Q 1600 2822 1830 2758 
Q 1971 2714 2061 2714 
Q 2189 2714 2253 2829 
L 2342 2829 
z
" transform="scale(0.015625)"/>
      <path id="STIXGeneral-Italic-69" d="M 1690 3834 
Q 1690 3699 1597 3603 
Q 1504 3507 1376 3507 
Q 1235 3507 1152 3600 
Q 1069 3693 1069 3846 
Q 1069 3994 1155 4090 
Q 1242 4186 1370 4186 
Q 1498 4186 1594 4080 
Q 1690 3974 1690 3834 
z
M 1421 730 
L 1504 659 
Q 1235 243 1049 86 
Q 864 -70 627 -70 
Q 314 -70 314 282 
Q 314 467 454 992 
L 762 2125 
Q 819 2330 819 2406 
Q 819 2502 745 2528 
Q 672 2554 410 2560 
L 410 2662 
Q 704 2688 1434 2822 
L 1459 2803 
L 858 608 
Q 794 390 794 326 
Q 794 230 883 230 
Q 1043 230 1421 730 
z
" transform="scale(0.015625)"/>
      <path id="STIXGeneral-Italic-6d" d="M 4506 672 
L 4474 627 
Q 3981 -58 3552 -58 
Q 3296 -58 3296 237 
Q 3296 333 3379 659 
L 3750 2112 
Q 3795 2291 3795 2355 
Q 3795 2413 3756 2451 
Q 3718 2490 3667 2490 
Q 3366 2490 2829 1741 
Q 2592 1408 2457 1072 
Q 2323 736 2138 0 
L 1658 0 
L 1830 595 
Q 2266 2099 2266 2330 
Q 2266 2490 2125 2490 
Q 1965 2490 1702 2237 
Q 1440 1984 1171 1574 
Q 1011 1325 899 1043 
Q 787 762 557 0 
L 77 0 
L 352 922 
Q 704 2093 704 2381 
Q 704 2522 442 2522 
L 282 2522 
L 282 2624 
L 1318 2822 
L 1338 2810 
L 966 1472 
Q 1798 2822 2374 2822 
Q 2560 2822 2659 2720 
Q 2758 2618 2758 2438 
Q 2758 2195 2502 1466 
Q 2842 2003 3069 2275 
Q 3296 2547 3526 2694 
Q 3731 2822 3930 2822 
Q 4102 2822 4201 2710 
Q 4301 2598 4301 2419 
Q 4301 2336 4282 2240 
L 3846 634 
Q 3782 390 3782 346 
Q 3782 243 3859 243 
Q 4000 243 4275 582 
L 4410 749 
L 4506 672 
z
" transform="scale(0.015625)"/>
      <path id="STIXGeneral-Regular-d7" d="M 3821 141 
L 3526 -160 
L 2048 1312 
L 570 -160 
L 275 134 
L 1747 1613 
L 275 3091 
L 576 3386 
L 2048 1914 
L 3526 3386 
L 3821 3098 
L 2349 1613 
L 3821 141 
z
" transform="scale(0.015625)"/>
      <path id="STIXGeneral-Italic-67" d="M 3014 2342 
L 2701 2342 
Q 2758 2227 2758 2016 
Q 2758 1613 2390 1289 
Q 2022 966 1574 966 
Q 1459 966 1376 986 
Q 1357 992 1331 992 
Q 1248 992 1174 909 
Q 1101 826 1101 730 
Q 1101 576 1555 461 
Q 2464 243 2464 -352 
Q 2464 -781 2105 -1049 
Q 1747 -1318 1120 -1318 
Q 621 -1318 336 -1142 
Q 51 -966 51 -627 
Q 51 -378 195 -202 
Q 339 -26 800 250 
Q 627 352 627 499 
Q 627 806 1120 1037 
Q 614 1216 614 1728 
Q 614 2202 1004 2512 
Q 1395 2822 1901 2822 
Q 2272 2822 2528 2643 
Q 2598 2592 2630 2592 
L 3014 2592 
L 3014 2342 
z
M 2253 2227 
Q 2253 2477 2166 2579 
Q 2080 2682 1894 2682 
Q 1587 2682 1350 2362 
Q 1114 2042 1114 1581 
Q 1114 1357 1216 1229 
Q 1318 1101 1498 1101 
Q 1818 1101 2042 1478 
Q 2253 1837 2253 2227 
z
M 2080 -576 
Q 2080 -352 1878 -201 
Q 1677 -51 1165 109 
Q 1011 154 947 179 
Q 902 179 752 57 
Q 602 -64 531 -154 
Q 403 -314 403 -525 
Q 403 -1178 1216 -1178 
Q 1594 -1178 1837 -1002 
Q 2080 -826 2080 -576 
z
" transform="scale(0.015625)"/>
      <path id="STIXGeneral-Italic-65" d="M 2291 698 
L 2368 621 
Q 1805 -70 1062 -70 
Q 672 -70 435 170 
Q 198 410 198 806 
Q 198 1555 796 2188 
Q 1395 2822 2112 2822 
Q 2362 2822 2499 2707 
Q 2637 2592 2637 2387 
Q 2637 1965 2147 1632 
Q 1658 1299 819 1190 
Q 755 1062 755 800 
Q 755 538 918 378 
Q 1082 218 1350 218 
Q 1562 218 1754 317 
Q 1946 416 2291 698 
z
M 973 1613 
L 864 1331 
Q 1581 1504 1894 1805 
Q 2214 2112 2214 2426 
Q 2214 2675 1990 2675 
Q 1722 2675 1430 2364 
Q 1139 2054 973 1613 
z
" transform="scale(0.015625)"/>
      <path id="STIXGeneral-Regular-3d" d="M 4077 2048 
L 307 2048 
L 307 2470 
L 4077 2470 
L 4077 2048 
z
M 4077 768 
L 307 768 
L 307 1190 
L 4077 1190 
L 4077 768 
z
" transform="scale(0.015625)"/>
      <path id="STIXGeneral-Regular-32" d="M 3034 877 
L 2688 0 
L 186 0 
L 186 77 
L 1325 1286 
Q 1773 1754 1965 2144 
Q 2157 2534 2157 2950 
Q 2157 3379 1920 3616 
Q 1683 3853 1267 3853 
Q 922 3853 720 3673 
Q 518 3494 326 3021 
L 192 3053 
Q 301 3648 630 3987 
Q 960 4326 1523 4326 
Q 2054 4326 2380 4006 
Q 2707 3686 2707 3200 
Q 2707 2477 1888 1613 
L 832 486 
L 2330 486 
Q 2541 486 2665 569 
Q 2790 653 2944 915 
L 3034 877 
z
" transform="scale(0.015625)"/>
      <path id="STIXGeneral-Regular-30" d="M 3046 2112 
Q 3046 1683 2963 1302 
Q 2880 922 2717 602 
Q 2554 282 2266 96 
Q 1978 -90 1600 -90 
Q 1210 -90 915 108 
Q 621 307 461 640 
Q 301 973 227 1350 
Q 154 1728 154 2150 
Q 154 2746 301 3222 
Q 448 3699 790 4012 
Q 1133 4326 1626 4326 
Q 2253 4326 2649 3712 
Q 3046 3098 3046 2112 
z
M 2432 2080 
Q 2432 3091 2217 3625 
Q 2003 4160 1587 4160 
Q 1190 4160 979 3622 
Q 768 3085 768 2106 
Q 768 1120 979 598 
Q 1190 77 1600 77 
Q 2003 77 2217 598 
Q 2432 1120 2432 2080 
z
" transform="scale(0.015625)"/>
     </defs>
     <use xlink:href="#STIXTwoText-28"/>
     <use xlink:href="#STIXTwoText-42" transform="translate(34.299988 0)"/>
     <use xlink:href="#STIXTwoText-29" transform="translate(96.099976 0)"/>
     <use xlink:href="#STIXTwoText-20" transform="translate(130.399963 0)"/>
     <use xlink:href="#STIXTwoText-41" transform="translate(153.899948 0)"/>
     <use xlink:href="#STIXTwoText-64" transform="translate(225.699936 0)"/>
     <use xlink:href="#STIXTwoText-61" transform="translate(279.59993 0)"/>
     <use xlink:href="#STIXTwoText-70" transform="translate(327.599915 0)"/>
     <use xlink:href="#STIXTwoText-74" transform="translate(381.299911 0)"/>
     <use xlink:href="#STIXTwoText-69" transform="translate(412.799896 0)"/>
     <use xlink:href="#STIXTwoText-76" transform="translate(441.299881 0)"/>
     <use xlink:href="#STIXTwoText-65" transform="translate(489.399872 0)"/>
     <use xlink:href="#STIXTwoText-2c" transform="translate(535.799866 0)"/>
     <use xlink:href="#STIXTwoText-20" transform="translate(560.29985 0)"/>
     <use xlink:href="#STIXGeneral-Italic-6e" transform="translate(583.799835 0)"/>
     <use xlink:href="#STIXGeneral-Italic-73" transform="translate(633.79982 -13.228125) scale(0.7)"/>
     <use xlink:href="#STIXGeneral-Italic-69" transform="translate(661.029816 -13.228125) scale(0.7)"/>
     <use xlink:href="#STIXGeneral-Italic-6d" transform="translate(680.489807 -13.228125) scale(0.7)"/>
     <use xlink:href="#STIXGeneral-Italic-73" transform="translate(731.029794 -13.228125) scale(0.7)"/>
     <use xlink:href="#STIXGeneral-Regular-d7" transform="translate(765.07559 0)"/>
     <use xlink:href="#STIXGeneral-Italic-6e" transform="translate(831.482001 0)"/>
     <use xlink:href="#STIXGeneral-Italic-67" transform="translate(881.481985 -13.228125) scale(0.7)"/>
     <use xlink:href="#STIXGeneral-Italic-65" transform="translate(916.481975 -13.228125) scale(0.7)"/>
     <use xlink:href="#STIXGeneral-Italic-6e" transform="translate(947.56197 -13.228125) scale(0.7)"/>
     <use xlink:href="#STIXGeneral-Regular-3d" transform="translate(1001.411331 0)"/>
     <use xlink:href="#STIXGeneral-Regular-32" transform="translate(1084.351312 0)"/>
     <use xlink:href="#STIXGeneral-Regular-30" transform="translate(1134.351297 0)"/>
     <use xlink:href="#STIXGeneral-Regular-30" transform="translate(1184.351282 0)"/>
     <use xlink:href="#STIXGeneral-Regular-30" transform="translate(1234.351266 0)"/>
     <use xlink:href="#STIXGeneral-Regular-30" transform="translate(1284.351251 0)"/>
    </g>
   </g>
   <g id="PathCollection_2">
    <path d="M 332.186809 193.507205 
C 333.6987 193.507205 335.14887 192.906525 336.217938 191.837457 
C 337.287006 190.768389 337.887687 189.318218 337.887687 187.806328 
C 337.887687 186.294438 337.287006 184.844267 336.217938 183.775199 
C 335.14887 182.706131 333.6987 182.105451 332.186809 182.105451 
C 330.674919 182.105451 329.224748 182.706131 328.155681 183.775199 
C 327.086613 184.844267 326.485932 186.294438 326.485932 187.806328 
C 326.485932 189.318218 327.086613 190.768389 328.155681 191.837457 
C 329.224748 192.906525 330.674919 193.507205 332.186809 193.507205 
L 332.186809 193.507205 
z
" clip-path="url(#p84f3e33ab9)" style="fill: none; stroke: #d1701f; stroke-width: 2"/>
   </g>
  </g>
 </g>
 <defs>
  <clipPath id="pb604a25082">
   <rect x="42.118906" y="20.5" width="232.4525" height="210.492"/>
  </clipPath>
  <clipPath id="p84f3e33ab9">
   <rect x="309.691406" y="20.5" width="232.4525" height="210.492"/>
  </clipPath>
 </defs>
</svg>
