<?xml version="1.0" encoding="utf-8" standalone="no"?>
<!DOCTYPE svg PUBLIC "-//W3C//DTD SVG 1.1//EN"
  "http://www.w3.org/Graphics/SVG/1.1/DTD/svg11.dtd">
<svg xmlns:xlink="http://www.w3.org/1999/xlink" width="593.2275pt" height="269.734688pt" viewBox="0 0 593.2275 269.734688" xmlns="http://www.w3.org/2000/svg" version="1.1">
 <metadata>
  <rdf:RDF xmlns:dc="http://purl.org/dc/elements/1.1/" xmlns:cc="http://creativecommons.org/ns#" xmlns:rdf="http://www.w3.org/1999/02/22-rdf-syntax-ns#">
   <cc:Work>
    <dc:type rdf:resource="http://purl.org/dc/dcmitype/StillImage"/>
    <dc:date>2026-07-03T22:50:31.410907</dc:date>
    <dc:format>image/svg+xml</dc:format>
    <dc:creator>
     <cc:Agent>
      <dc:title>Matplotlib v3.10.9, https://matplotlib.org/</dc:title>
     </cc:Agent>
    </dc:creator>
   </cc:Work>
  </rdf:RDF>
 </metadata>
 <defs>
  <style type="text/css">*{stroke-linejoin: round; stroke-linecap: butt}</style>
 </defs>
 <g id="figure_1">
  <g id="patch_1">
   <path d="M 0 269.734688 
L 593.2275 269.734688 
L 593.2275 0 
L 0 0 
z
" style="fill: #ffffff"/>
  </g>
  <g id="axes_1">
   <g id="patch_2">
    <path d="M 48.78 239.08325 
L 290.68875 239.08325 
L 290.68875 20.5 
L 48.78 20.5 
z
" style="fill: #f5f5f5"/>
   </g>
   <g id="matplotlib.axis_1">
    <g id="xtick_1">
     <g id="line2d_1">
      <path d="M 74.942545 239.08325 
L 74.942545 20.5 
" clip-path="url(#pb9c59bc120)" style="fill: none; stroke: #dddddd; stroke-width: 0.6; stroke-linecap: round"/>
     </g>
     <g id="text_1">
      <!-- stacked -->
      <g style="fill: #262626" transform="translate(63.808717 253.524812) scale(0.07 -0.07)">
       <defs>
        <path id="STIXTwoText-73" d="M 269 -51 
L 250 1050 
L 416 1050 
Q 518 557 716 361 
Q 915 166 1267 166 
Q 1510 166 1664 265 
Q 1818 365 1818 589 
Q 1818 742 1763 844 
Q 1709 947 1555 1052 
Q 1402 1158 1101 1306 
Q 806 1453 620 1590 
Q 435 1728 345 1894 
Q 256 2061 256 2298 
Q 256 2694 541 2899 
Q 826 3104 1235 3104 
Q 1478 3104 1632 3049 
Q 1786 2995 1907 2938 
L 1914 2938 
L 2022 3072 
L 2150 3072 
L 2170 2093 
L 1997 2093 
Q 1894 2547 1708 2716 
Q 1523 2886 1229 2886 
Q 1011 2886 860 2784 
Q 710 2682 710 2464 
Q 710 2278 883 2131 
Q 1056 1984 1459 1779 
Q 1754 1626 1952 1482 
Q 2150 1338 2252 1168 
Q 2355 998 2355 762 
Q 2355 461 2208 278 
Q 2061 96 1814 13 
Q 1568 -70 1280 -70 
Q 1005 -70 841 -12 
Q 678 45 550 96 
L 538 96 
L 403 -51 
L 269 -51 
z
" transform="scale(0.015625)"/>
        <path id="STIXTwoText-74" d="M 1875 576 
L 1997 474 
Q 1875 301 1769 182 
Q 1664 64 1536 0 
Q 1408 -64 1203 -64 
Q 883 -64 736 125 
Q 589 314 589 742 
L 589 2726 
L 237 2726 
L 237 2874 
Q 461 3014 624 3254 
Q 787 3494 960 3904 
L 1120 3904 
L 1120 2995 
L 1843 2995 
L 1843 2726 
L 1120 2726 
L 1120 922 
Q 1120 582 1181 448 
Q 1242 314 1427 314 
Q 1581 314 1667 378 
Q 1754 442 1875 576 
z
" transform="scale(0.015625)"/>
        <path id="STIXTwoText-61" d="M 1005 -45 
Q 634 -45 438 160 
Q 243 365 243 672 
Q 243 928 361 1104 
Q 480 1280 675 1401 
Q 870 1523 1097 1606 
Q 1325 1690 1542 1747 
Q 1760 1805 1926 1856 
L 1926 2138 
Q 1926 2554 1782 2730 
Q 1638 2906 1350 2906 
Q 1075 2906 998 2790 
Q 922 2675 922 2387 
Q 922 2240 848 2166 
Q 774 2093 640 2093 
Q 544 2093 457 2166 
Q 371 2240 371 2400 
Q 371 2579 508 2739 
Q 646 2899 899 3001 
Q 1152 3104 1498 3104 
Q 2022 3104 2240 2861 
Q 2458 2618 2458 2118 
L 2458 666 
Q 2458 467 2502 409 
Q 2547 352 2650 352 
Q 2739 352 2812 397 
Q 2886 442 2950 512 
L 3046 410 
Q 2886 179 2742 73 
Q 2598 -32 2355 -32 
Q 2131 -32 2064 96 
Q 1997 224 1965 461 
L 1926 538 
L 1926 1645 
Q 1638 1574 1382 1478 
Q 1126 1382 966 1228 
Q 806 1075 806 826 
Q 806 589 934 448 
Q 1062 307 1267 307 
Q 1434 307 1616 390 
Q 1798 474 1971 627 
L 2022 397 
L 1946 397 
Q 1798 269 1660 166 
Q 1523 64 1366 9 
Q 1210 -45 1005 -45 
z
" transform="scale(0.015625)"/>
        <path id="STIXTwoText-63" d="M 2611 947 
L 2733 858 
Q 2611 602 2454 390 
Q 2298 179 2067 57 
Q 1837 -64 1491 -64 
Q 1094 -64 806 128 
Q 518 320 364 662 
Q 211 1005 211 1446 
Q 211 1952 380 2323 
Q 550 2694 873 2899 
Q 1197 3104 1658 3104 
Q 2112 3104 2371 2905 
Q 2630 2707 2630 2426 
Q 2630 2285 2563 2211 
Q 2496 2138 2362 2138 
Q 2221 2138 2147 2211 
Q 2074 2285 2029 2393 
Q 1984 2502 1936 2611 
Q 1888 2720 1801 2793 
Q 1715 2867 1549 2867 
Q 1158 2867 937 2582 
Q 717 2298 717 1747 
Q 717 1165 957 790 
Q 1197 416 1690 416 
Q 2003 416 2198 544 
Q 2394 672 2611 947 
z
" transform="scale(0.015625)"/>
        <path id="STIXTwoText-6b" d="M 1645 0 
L 192 0 
L 192 186 
Q 480 186 560 266 
Q 640 346 640 608 
L 640 3808 
Q 640 4013 592 4073 
Q 544 4134 384 4134 
Q 320 4134 243 4128 
Q 166 4122 166 4122 
L 166 4294 
L 998 4518 
L 1171 4518 
L 1171 1696 
L 1210 1696 
L 2035 2515 
Q 2054 2534 2102 2588 
Q 2150 2643 2150 2720 
Q 2150 2784 2086 2809 
Q 2022 2835 1837 2835 
L 1837 3027 
L 3219 3027 
L 3219 2835 
Q 3066 2835 2947 2806 
Q 2829 2778 2707 2698 
Q 2586 2618 2410 2470 
Q 2234 2323 1965 2086 
L 1645 1824 
L 2771 557 
Q 2925 384 3024 304 
Q 3123 224 3219 205 
Q 3315 186 3450 186 
L 3450 0 
L 2035 0 
L 2035 186 
Q 2176 186 2230 202 
Q 2285 218 2285 262 
Q 2285 307 2262 348 
Q 2240 390 2214 416 
L 1210 1555 
L 1171 1555 
L 1171 582 
Q 1171 339 1257 262 
Q 1344 186 1645 186 
L 1645 0 
z
" transform="scale(0.015625)"/>
        <path id="STIXTwoText-65" d="M 1581 -64 
Q 1197 -64 886 118 
Q 576 301 397 656 
Q 218 1011 218 1523 
Q 218 2061 400 2409 
Q 582 2758 889 2931 
Q 1197 3104 1568 3104 
Q 2093 3104 2413 2739 
Q 2733 2374 2758 1702 
L 678 1702 
L 672 1939 
L 2157 1939 
Q 2150 2176 2073 2384 
Q 1997 2592 1849 2720 
Q 1702 2848 1472 2848 
Q 1101 2848 915 2557 
Q 730 2266 730 1734 
Q 730 1293 870 998 
Q 1011 704 1241 560 
Q 1472 416 1734 416 
Q 1997 416 2160 486 
Q 2323 557 2438 669 
Q 2554 781 2656 915 
L 2778 826 
Q 2694 646 2585 483 
Q 2477 320 2339 198 
Q 2202 77 2016 6 
Q 1830 -64 1581 -64 
z
" transform="scale(0.015625)"/>
        <path id="STIXTwoText-64" d="M 1306 -51 
Q 947 -51 700 141 
Q 454 333 332 662 
Q 211 992 211 1402 
Q 211 1933 409 2313 
Q 608 2694 944 2899 
Q 1280 3104 1683 3104 
Q 1837 3104 1987 3065 
Q 2138 3027 2278 2950 
L 2304 2950 
L 2304 3789 
Q 2304 4000 2256 4064 
Q 2208 4128 2022 4128 
Q 1978 4128 1917 4121 
Q 1856 4115 1856 4115 
L 1856 4294 
L 2662 4518 
L 2835 4518 
L 2835 685 
Q 2835 435 2905 361 
Q 2976 288 3155 288 
L 3290 288 
L 3290 115 
L 2470 -32 
L 2323 -32 
L 2323 410 
L 2298 410 
Q 2118 250 1872 99 
Q 1626 -51 1306 -51 
z
M 1606 410 
Q 1830 410 1984 470 
Q 2138 531 2304 646 
L 2304 2336 
Q 2266 2534 2118 2691 
Q 1971 2848 1670 2848 
Q 1267 2848 1017 2553 
Q 768 2259 768 1651 
Q 768 992 982 701 
Q 1197 410 1606 410 
z
" transform="scale(0.015625)"/>
       </defs>
       <use xlink:href="#STIXTwoText-73"/>
       <use xlink:href="#STIXTwoText-74" transform="translate(39.499985 0)"/>
       <use xlink:href="#STIXTwoText-61" transform="translate(70.999969 0)"/>
       <use xlink:href="#STIXTwoText-63" transform="translate(118.999954 0)"/>
       <use xlink:href="#STIXTwoText-6b" transform="translate(163.599945 0)"/>
       <use xlink:href="#STIXTwoText-65" transform="translate(217.799942 0)"/>
       <use xlink:href="#STIXTwoText-64" transform="translate(264.199936 0)"/>
      </g>
      <!-- (cubed/max/n=2) -->
      <g style="fill: #262626" transform="translate(48.331608 260.994687) scale(0.07 -0.07)">
       <defs>
        <path id="STIXTwoText-28" d="M 1997 -1011 
L 1894 -1190 
Q 1120 -794 656 -48 
Q 192 698 192 1754 
Q 192 2803 656 3542 
Q 1120 4282 1894 4672 
L 1997 4506 
Q 1299 4038 1008 3372 
Q 717 2707 717 1754 
Q 717 787 1008 118 
Q 1299 -550 1997 -1011 
z
" transform="scale(0.015625)"/>
        <path id="STIXTwoText-75" d="M 1421 -64 
Q 1024 -64 803 195 
Q 582 454 582 1107 
L 582 2406 
Q 582 2579 547 2659 
Q 512 2739 416 2761 
Q 320 2784 147 2784 
L 147 2963 
L 973 3059 
L 1114 3059 
L 1114 1190 
Q 1114 864 1187 681 
Q 1261 499 1392 422 
Q 1523 346 1690 346 
Q 1933 346 2109 454 
Q 2285 563 2477 730 
L 2477 2413 
Q 2477 2586 2432 2662 
Q 2387 2739 2275 2761 
Q 2163 2784 1958 2784 
L 1958 2963 
L 2854 3059 
L 3008 3059 
L 3008 710 
Q 3008 429 3085 358 
Q 3162 288 3392 288 
L 3456 288 
L 3456 115 
L 2643 -32 
L 2502 -32 
L 2502 461 
L 2470 461 
Q 2304 294 2141 176 
Q 1978 58 1802 -3 
Q 1626 -64 1421 -64 
z
" transform="scale(0.015625)"/>
        <path id="STIXTwoText-62" d="M 877 4518 
L 1043 4518 
L 1043 2560 
L 1062 2560 
Q 1229 2765 1478 2934 
Q 1728 3104 2048 3104 
Q 2368 3104 2608 2921 
Q 2848 2739 2982 2419 
Q 3117 2099 3117 1683 
Q 3117 1114 2918 723 
Q 2720 333 2374 134 
Q 2029 -64 1581 -64 
Q 1171 -64 899 32 
Q 627 128 512 192 
L 512 3789 
Q 512 4006 464 4067 
Q 416 4128 230 4128 
Q 154 4128 102 4121 
Q 51 4115 51 4115 
L 51 4294 
L 877 4518 
z
M 1043 2278 
L 1043 499 
Q 1133 390 1286 294 
Q 1440 198 1696 198 
Q 2003 198 2185 371 
Q 2368 544 2451 835 
Q 2534 1126 2534 1478 
Q 2534 1786 2470 2058 
Q 2406 2330 2240 2499 
Q 2074 2669 1766 2669 
Q 1523 2669 1328 2531 
Q 1133 2394 1043 2278 
z
" transform="scale(0.015625)"/>
        <path id="STIXTwoText-2f" d="M 589 -570 
L 230 -570 
L 1901 4538 
L 2253 4538 
L 589 -570 
z
" transform="scale(0.015625)"/>
        <path id="STIXTwoText-6d" d="M 3520 0 
L 2003 0 
L 2003 186 
Q 2234 186 2336 230 
Q 2438 275 2467 396 
Q 2496 518 2496 742 
L 2496 2010 
Q 2496 2419 2352 2556 
Q 2208 2694 1984 2694 
Q 1805 2694 1648 2617 
Q 1491 2541 1363 2438 
Q 1235 2336 1146 2246 
L 1094 2566 
L 1190 2566 
Q 1453 2790 1696 2947 
Q 1939 3104 2266 3104 
Q 2554 3104 2730 2937 
Q 2906 2771 2995 2522 
Q 3008 2502 3014 2480 
Q 3021 2458 3027 2432 
L 3027 742 
Q 3027 525 3056 403 
Q 3085 282 3187 234 
Q 3290 186 3520 186 
L 3520 0 
z
M 1664 0 
L 205 0 
L 205 186 
Q 410 186 502 221 
Q 595 256 624 355 
Q 653 454 653 646 
L 653 2438 
Q 653 2611 585 2668 
Q 518 2726 384 2726 
Q 314 2726 262 2720 
Q 211 2714 211 2714 
L 211 2899 
L 1011 3085 
L 1165 3085 
L 1165 2496 
L 1184 2355 
L 1184 621 
Q 1184 442 1222 349 
Q 1261 256 1363 221 
Q 1466 186 1664 186 
L 1664 0 
z
M 5306 0 
L 3859 0 
L 3859 186 
Q 4077 186 4173 243 
Q 4269 301 4291 425 
Q 4314 550 4314 742 
L 4314 1971 
Q 4314 2266 4240 2419 
Q 4166 2573 4041 2633 
Q 3917 2694 3763 2694 
Q 3552 2694 3347 2544 
Q 3142 2394 2976 2253 
L 2906 2573 
L 3002 2573 
Q 3264 2835 3513 2969 
Q 3763 3104 4019 3104 
Q 4397 3104 4621 2867 
Q 4845 2630 4845 2048 
L 4845 742 
Q 4845 544 4867 419 
Q 4890 294 4989 240 
Q 5088 186 5306 186 
L 5306 0 
z
" transform="scale(0.015625)"/>
        <path id="STIXTwoText-78" d="M 3085 0 
L 1747 0 
L 1747 186 
Q 1914 186 1981 214 
Q 2048 243 2048 326 
Q 2048 390 2003 461 
L 1600 1082 
L 1440 1363 
L 1338 1453 
L 634 2458 
Q 525 2618 448 2701 
Q 371 2784 288 2813 
Q 205 2842 70 2842 
L 70 3027 
L 1446 3027 
L 1446 2848 
Q 1139 2848 1139 2701 
Q 1139 2650 1177 2579 
Q 1216 2509 1289 2397 
Q 1363 2285 1472 2106 
L 1651 1773 
L 1754 1715 
L 2573 557 
Q 2707 365 2806 275 
Q 2906 186 3085 186 
L 3085 0 
z
M 1056 0 
L -13 0 
L -13 186 
Q 154 186 262 253 
Q 371 320 531 506 
L 1338 1555 
L 1536 1306 
L 1446 1306 
L 922 550 
Q 877 474 822 397 
Q 768 320 768 282 
Q 768 230 832 208 
Q 896 186 1056 186 
L 1056 0 
z
M 2464 2541 
L 1754 1626 
L 1568 1824 
L 1651 1824 
L 1952 2259 
Q 2080 2438 2131 2528 
Q 2182 2618 2182 2694 
Q 2182 2765 2128 2806 
Q 2074 2848 1920 2848 
L 1920 3027 
L 2976 3027 
L 2976 2842 
Q 2816 2842 2694 2762 
Q 2573 2682 2464 2541 
z
" transform="scale(0.015625)"/>
        <path id="STIXTwoText-6e" d="M 3552 0 
L 2074 0 
L 2074 179 
Q 2304 179 2403 220 
Q 2502 262 2524 364 
Q 2547 467 2547 646 
L 2547 1805 
Q 2547 2189 2460 2381 
Q 2374 2573 2240 2633 
Q 2106 2694 1958 2694 
Q 1773 2694 1625 2620 
Q 1478 2547 1360 2444 
Q 1242 2342 1139 2253 
L 1094 2566 
L 1190 2566 
Q 1453 2797 1686 2950 
Q 1920 3104 2221 3104 
Q 2656 3104 2867 2809 
Q 3078 2515 3078 1965 
L 3078 646 
Q 3078 467 3107 364 
Q 3136 262 3238 220 
Q 3341 179 3552 179 
L 3552 0 
z
M 1670 0 
L 205 0 
L 205 179 
Q 422 179 515 220 
Q 608 262 630 364 
Q 653 467 653 646 
L 653 2445 
Q 653 2618 582 2672 
Q 512 2726 384 2726 
Q 301 2726 256 2720 
Q 211 2714 211 2714 
L 211 2899 
L 1024 3085 
L 1171 3085 
L 1165 2496 
L 1184 2362 
L 1184 646 
Q 1184 467 1209 364 
Q 1235 262 1337 220 
Q 1440 179 1670 179 
L 1670 0 
z
" transform="scale(0.015625)"/>
        <path id="STIXTwoText-3d" d="M 4211 2189 
L 397 2189 
L 397 2624 
L 4211 2624 
L 4211 2189 
z
M 4211 672 
L 397 672 
L 397 1101 
L 4211 1101 
L 4211 672 
z
" transform="scale(0.015625)"/>
        <path id="STIXTwoText-32" d="M 2765 0 
L 243 0 
L 243 218 
L 1216 1190 
Q 1536 1517 1747 1782 
Q 1958 2048 2064 2317 
Q 2170 2586 2170 2918 
Q 2170 3277 1955 3491 
Q 1741 3706 1370 3706 
Q 1056 3706 835 3571 
Q 614 3437 435 3078 
L 282 3142 
Q 429 3610 749 3866 
Q 1069 4122 1536 4122 
Q 1901 4122 2176 3984 
Q 2451 3846 2608 3600 
Q 2765 3354 2765 3014 
Q 2765 2733 2646 2473 
Q 2528 2214 2294 1939 
Q 2061 1664 1722 1318 
L 877 518 
L 877 486 
L 1325 506 
L 2214 506 
Q 2470 506 2572 621 
Q 2675 736 2784 1024 
L 2970 1024 
L 2765 0 
z
" transform="scale(0.015625)"/>
        <path id="STIXTwoText-29" d="M 301 -1190 
L 198 -1011 
Q 902 -550 1190 118 
Q 1478 787 1478 1754 
Q 1478 2707 1190 3372 
Q 902 4038 198 4506 
L 301 4672 
Q 1075 4282 1539 3542 
Q 2003 2803 2003 1754 
Q 2003 698 1539 -48 
Q 1075 -794 301 -1190 
z
" transform="scale(0.015625)"/>
       </defs>
       <use xlink:href="#STIXTwoText-28"/>
       <use xlink:href="#STIXTwoText-63" transform="translate(34.299988 0)"/>
       <use xlink:href="#STIXTwoText-75" transform="translate(78.899979 0)"/>
       <use xlink:href="#STIXTwoText-62" transform="translate(135.899963 0)"/>
       <use xlink:href="#STIXTwoText-65" transform="translate(188.09996 0)"/>
       <use xlink:href="#STIXTwoText-64" transform="translate(234.499954 0)"/>
       <use xlink:href="#STIXTwoText-2f" transform="translate(288.399948 0)"/>
       <use xlink:href="#STIXTwoText-6d" transform="translate(327.099945 0)"/>
       <use xlink:href="#STIXTwoText-61" transform="translate(412.299927 0)"/>
       <use xlink:href="#STIXTwoText-78" transform="translate(460.299911 0)"/>
       <use xlink:href="#STIXTwoText-2f" transform="translate(508.199905 0)"/>
       <use xlink:href="#STIXTwoText-6e" transform="translate(546.899902 0)"/>
       <use xlink:href="#STIXTwoText-3d" transform="translate(604.499893 0)"/>
       <use xlink:href="#STIXTwoText-32" transform="translate(676.499878 0)"/>
       <use xlink:href="#STIXTwoText-29" transform="translate(725.999863 0)"/>
      </g>
     </g>
    </g>
    <g id="xtick_2">
     <g id="line2d_2">
      <path d="M 112.859277 239.08325 
L 112.859277 20.5 
" clip-path="url(#pb9c59bc120)" style="fill: none; stroke: #dddddd; stroke-width: 0.6; stroke-linecap: round"/>
     </g>
     <g id="text_2">
      <!-- +sims -->
      <g style="fill: #262626" transform="translate(103.594668 253.524812) scale(0.07 -0.07)">
       <defs>
        <path id="STIXTwoText-2b" d="M 2534 -262 
L 2074 -262 
L 2074 1434 
L 397 1434 
L 397 1869 
L 2074 1869 
L 2074 3565 
L 2534 3565 
L 2534 1869 
L 4211 1869 
L 4211 1434 
L 2534 1434 
L 2534 -262 
z
" transform="scale(0.015625)"/>
        <path id="STIXTwoText-69" d="M 1645 0 
L 205 0 
L 205 179 
Q 422 179 515 220 
Q 608 262 630 364 
Q 653 467 653 646 
L 653 2432 
Q 653 2637 582 2685 
Q 512 2733 371 2733 
Q 307 2733 259 2726 
Q 211 2720 211 2720 
L 211 2906 
L 1018 3085 
L 1184 3085 
L 1184 646 
Q 1184 461 1209 358 
Q 1235 256 1334 217 
Q 1434 179 1645 179 
L 1645 0 
z
M 928 3584 
Q 768 3584 665 3693 
Q 563 3802 563 3949 
Q 563 4096 662 4201 
Q 762 4307 928 4307 
Q 1094 4307 1193 4201 
Q 1293 4096 1293 3949 
Q 1293 3802 1193 3693 
Q 1094 3584 928 3584 
z
" transform="scale(0.015625)"/>
       </defs>
       <use xlink:href="#STIXTwoText-2b"/>
       <use xlink:href="#STIXTwoText-73" transform="translate(71.999985 0)"/>
       <use xlink:href="#STIXTwoText-69" transform="translate(111.499969 0)"/>
       <use xlink:href="#STIXTwoText-6d" transform="translate(139.999954 0)"/>
       <use xlink:href="#STIXTwoText-73" transform="translate(225.199936 0)"/>
      </g>
      <!-- (n=16) -->
      <g style="fill: #262626" transform="translate(102.457715 260.994687) scale(0.07 -0.07)">
       <defs>
        <path id="STIXTwoText-31" d="M 2726 0 
L 512 0 
L 512 179 
Q 966 179 1152 275 
Q 1338 371 1338 608 
L 1338 3315 
Q 1338 3482 1293 3555 
Q 1248 3629 1126 3629 
Q 1062 3629 947 3616 
Q 832 3603 704 3580 
Q 576 3558 474 3526 
L 474 3738 
L 1715 4090 
L 1901 4090 
L 1901 608 
Q 1901 371 2093 275 
Q 2285 179 2726 179 
L 2726 0 
z
" transform="scale(0.015625)"/>
        <path id="STIXTwoText-36" d="M 1658 -77 
Q 1184 -77 880 156 
Q 576 390 432 784 
Q 288 1178 288 1645 
Q 288 2221 464 2675 
Q 640 3130 957 3446 
Q 1274 3763 1706 3939 
Q 2138 4115 2656 4134 
L 2669 3949 
Q 2221 3885 1849 3661 
Q 1478 3437 1228 3078 
Q 979 2720 896 2253 
L 941 2246 
Q 1139 2438 1331 2540 
Q 1523 2643 1773 2643 
Q 2298 2643 2611 2284 
Q 2925 1926 2925 1299 
Q 2925 646 2595 284 
Q 2266 -77 1658 -77 
z
M 1683 147 
Q 2003 147 2185 393 
Q 2368 640 2368 1248 
Q 2368 1683 2173 1977 
Q 1978 2272 1581 2272 
Q 1395 2272 1232 2198 
Q 1069 2125 966 1958 
Q 864 1792 864 1510 
Q 864 1114 953 806 
Q 1043 499 1225 323 
Q 1408 147 1683 147 
z
" transform="scale(0.015625)"/>
       </defs>
       <use xlink:href="#STIXTwoText-28"/>
       <use xlink:href="#STIXTwoText-6e" transform="translate(34.299988 0)"/>
       <use xlink:href="#STIXTwoText-3d" transform="translate(91.899979 0)"/>
       <use xlink:href="#STIXTwoText-31" transform="translate(163.899963 0)"/>
       <use xlink:href="#STIXTwoText-36" transform="translate(213.399948 0)"/>
       <use xlink:href="#STIXTwoText-29" transform="translate(262.899933 0)"/>
      </g>
     </g>
    </g>
    <g id="xtick_3">
     <g id="line2d_3">
      <path d="M 150.776009 239.08325 
L 150.776009 20.5 
" clip-path="url(#pb9c59bc120)" style="fill: none; stroke: #dddddd; stroke-width: 0.6; stroke-linecap: round"/>
     </g>
     <g id="text_3">
      <!-- +bucket -->
      <g style="fill: #262626" transform="translate(138.24929 253.524812) scale(0.07 -0.07)">
       <use xlink:href="#STIXTwoText-2b"/>
       <use xlink:href="#STIXTwoText-62" transform="translate(71.999985 0)"/>
       <use xlink:href="#STIXTwoText-75" transform="translate(124.199982 0)"/>
       <use xlink:href="#STIXTwoText-63" transform="translate(181.199966 0)"/>
       <use xlink:href="#STIXTwoText-6b" transform="translate(225.799957 0)"/>
       <use xlink:href="#STIXTwoText-65" transform="translate(279.999954 0)"/>
       <use xlink:href="#STIXTwoText-74" transform="translate(326.399948 0)"/>
      </g>
      <!-- (middle) -->
      <g style="fill: #262626" transform="translate(138.007572 260.994687) scale(0.07 -0.07)">
       <defs>
        <path id="STIXTwoText-6c" d="M 1664 0 
L 192 0 
L 192 186 
Q 403 186 499 227 
Q 595 269 617 368 
Q 640 467 640 646 
L 640 3859 
Q 640 4058 566 4096 
Q 493 4134 371 4134 
Q 288 4134 227 4128 
Q 166 4122 166 4122 
L 166 4294 
L 1011 4518 
L 1171 4518 
L 1171 646 
Q 1171 461 1200 361 
Q 1229 262 1331 224 
Q 1434 186 1664 186 
L 1664 0 
z
" transform="scale(0.015625)"/>
       </defs>
       <use xlink:href="#STIXTwoText-28"/>
       <use xlink:href="#STIXTwoText-6d" transform="translate(34.299988 0)"/>
       <use xlink:href="#STIXTwoText-69" transform="translate(119.499969 0)"/>
       <use xlink:href="#STIXTwoText-64" transform="translate(147.999954 0)"/>
       <use xlink:href="#STIXTwoText-64" transform="translate(201.899948 0)"/>
       <use xlink:href="#STIXTwoText-6c" transform="translate(255.799942 0)"/>
       <use xlink:href="#STIXTwoText-65" transform="translate(284.09993 0)"/>
       <use xlink:href="#STIXTwoText-29" transform="translate(330.499924 0)"/>
      </g>
     </g>
    </g>
    <g id="xtick_4">
     <g id="line2d_4">
      <path d="M 188.692741 239.08325 
L 188.692741 20.5 
" clip-path="url(#pb9c59bc120)" style="fill: none; stroke: #dddddd; stroke-width: 0.6; stroke-linecap: round"/>
     </g>
     <g id="text_4">
      <!-- +transform -->
      <g style="fill: #262626" transform="translate(171.476022 253.524812) scale(0.07 -0.07)">
       <defs>
        <path id="STIXTwoText-72" d="M 1786 0 
L 186 0 
L 186 186 
Q 397 186 496 221 
Q 595 256 624 349 
Q 653 442 653 621 
L 653 2381 
Q 653 2554 624 2640 
Q 595 2726 422 2726 
Q 326 2726 275 2720 
Q 224 2714 224 2714 
L 224 2893 
L 1018 3085 
L 1171 3085 
L 1171 2426 
L 1190 2426 
Q 1357 2662 1485 2816 
Q 1613 2970 1737 3046 
Q 1862 3123 2016 3123 
Q 2202 3123 2294 3027 
Q 2387 2931 2387 2765 
Q 2387 2586 2300 2502 
Q 2214 2419 2106 2419 
Q 2003 2419 1923 2473 
Q 1843 2528 1785 2582 
Q 1728 2637 1690 2637 
Q 1581 2637 1440 2470 
Q 1299 2304 1184 2112 
L 1184 653 
Q 1184 454 1235 352 
Q 1286 250 1417 218 
Q 1549 186 1786 186 
L 1786 0 
z
" transform="scale(0.015625)"/>
        <path id="STIXTwoText-66" d="M 1837 0 
L 115 0 
L 115 186 
Q 352 186 464 227 
Q 576 269 614 390 
Q 653 512 653 762 
L 653 2797 
Q 653 3162 669 3395 
Q 685 3629 729 3789 
Q 774 3949 858 4096 
Q 986 4320 1181 4441 
Q 1376 4563 1709 4563 
Q 1920 4563 2080 4512 
Q 2240 4461 2333 4361 
Q 2426 4262 2426 4115 
Q 2426 3974 2349 3907 
Q 2272 3840 2163 3840 
Q 2042 3840 1965 3920 
Q 1888 4000 1818 4090 
Q 1754 4179 1680 4252 
Q 1606 4326 1491 4326 
Q 1312 4326 1248 4163 
Q 1184 4000 1184 3597 
L 1184 762 
Q 1184 512 1235 390 
Q 1286 269 1427 227 
Q 1568 186 1837 186 
L 1837 0 
z
M 1965 2726 
L 166 2726 
L 166 2995 
L 1965 2995 
L 1965 2726 
z
" transform="scale(0.015625)"/>
        <path id="STIXTwoText-6f" d="M 1651 -64 
Q 979 -64 598 355 
Q 218 774 218 1549 
Q 218 2016 397 2365 
Q 576 2714 899 2909 
Q 1222 3104 1651 3104 
Q 2310 3104 2691 2694 
Q 3072 2285 3072 1574 
Q 3072 1037 2889 672 
Q 2707 307 2387 121 
Q 2067 -64 1651 -64 
z
M 1677 192 
Q 1939 192 2118 313 
Q 2298 435 2390 729 
Q 2483 1024 2483 1542 
Q 2483 2131 2268 2496 
Q 2054 2861 1626 2861 
Q 1261 2861 1037 2553 
Q 813 2246 813 1632 
Q 813 870 1040 528 
Q 1267 186 1677 192 
z
" transform="scale(0.015625)"/>
       </defs>
       <use xlink:href="#STIXTwoText-2b"/>
       <use xlink:href="#STIXTwoText-74" transform="translate(71.999985 0)"/>
       <use xlink:href="#STIXTwoText-72" transform="translate(103.499969 0)"/>
       <use xlink:href="#STIXTwoText-61" transform="translate(141.499954 0)"/>
       <use xlink:href="#STIXTwoText-6e" transform="translate(189.499939 0)"/>
       <use xlink:href="#STIXTwoText-73" transform="translate(247.09993 0)"/>
       <use xlink:href="#STIXTwoText-66" transform="translate(286.599915 0)"/>
       <use xlink:href="#STIXTwoText-6f" transform="translate(317.299911 0)"/>
       <use xlink:href="#STIXTwoText-72" transform="translate(368.699905 0)"/>
       <use xlink:href="#STIXTwoText-6d" transform="translate(406.69989 0)"/>
      </g>
      <!-- (linear) -->
      <g style="fill: #262626" transform="translate(177.654069 260.994687) scale(0.07 -0.07)">
       <use xlink:href="#STIXTwoText-28"/>
       <use xlink:href="#STIXTwoText-6c" transform="translate(34.299988 0)"/>
       <use xlink:href="#STIXTwoText-69" transform="translate(62.599976 0)"/>
       <use xlink:href="#STIXTwoText-6e" transform="translate(91.09996 0)"/>
       <use xlink:href="#STIXTwoText-65" transform="translate(148.699951 0)"/>
       <use xlink:href="#STIXTwoText-61" transform="translate(195.099945 0)"/>
       <use xlink:href="#STIXTwoText-72" transform="translate(243.09993 0)"/>
       <use xlink:href="#STIXTwoText-29" transform="translate(281.099915 0)"/>
      </g>
     </g>
    </g>
    <g id="xtick_5">
     <g id="line2d_5">
      <path d="M 226.609473 239.08325 
L 226.609473 20.5 
" clip-path="url(#pb9c59bc120)" style="fill: none; stroke: #dddddd; stroke-width: 0.6; stroke-linecap: round"/>
     </g>
     <g id="text_5">
      <!-- centered -->
      <g style="fill: #262626" transform="translate(213.841035 253.524812) scale(0.07 -0.07)">
       <use xlink:href="#STIXTwoText-63"/>
       <use xlink:href="#STIXTwoText-65" transform="translate(44.599991 0)"/>
       <use xlink:href="#STIXTwoText-6e" transform="translate(90.999985 0)"/>
       <use xlink:href="#STIXTwoText-74" transform="translate(148.599976 0)"/>
       <use xlink:href="#STIXTwoText-65" transform="translate(180.09996 0)"/>
       <use xlink:href="#STIXTwoText-72" transform="translate(226.499954 0)"/>
       <use xlink:href="#STIXTwoText-65" transform="translate(264.499939 0)"/>
       <use xlink:href="#STIXTwoText-64" transform="translate(310.899933 0)"/>
      </g>
      <!-- (all, dense) -->
      <g style="fill: #262626" transform="translate(210.334473 260.994687) scale(0.07 -0.07)">
       <defs>
        <path id="STIXTwoText-2c" d="M 448 -845 
L 371 -685 
Q 493 -634 614 -554 
Q 736 -474 819 -320 
Q 902 -166 902 90 
Q 800 51 704 51 
Q 518 51 435 153 
Q 352 256 352 397 
Q 352 550 454 662 
Q 557 774 749 774 
Q 909 774 1017 707 
Q 1126 640 1184 515 
Q 1242 390 1242 211 
Q 1242 -58 1155 -243 
Q 1069 -429 941 -544 
Q 813 -659 678 -729 
Q 544 -800 448 -845 
z
" transform="scale(0.015625)"/>
        <path id="STIXTwoText-20" transform="scale(0.015625)"/>
       </defs>
       <use xlink:href="#STIXTwoText-28"/>
       <use xlink:href="#STIXTwoText-61" transform="translate(34.299988 0)"/>
       <use xlink:href="#STIXTwoText-6c" transform="translate(82.299973 0)"/>
       <use xlink:href="#STIXTwoText-6c" transform="translate(110.59996 0)"/>
       <use xlink:href="#STIXTwoText-2c" transform="translate(138.899948 0)"/>
       <use xlink:href="#STIXTwoText-20" transform="translate(163.399933 0)"/>
       <use xlink:href="#STIXTwoText-64" transform="translate(186.899918 0)"/>
       <use xlink:href="#STIXTwoText-65" transform="translate(240.799911 0)"/>
       <use xlink:href="#STIXTwoText-6e" transform="translate(287.199905 0)"/>
       <use xlink:href="#STIXTwoText-73" transform="translate(344.799896 0)"/>
       <use xlink:href="#STIXTwoText-65" transform="translate(384.299881 0)"/>
       <use xlink:href="#STIXTwoText-29" transform="translate(430.699875 0)"/>
      </g>
     </g>
    </g>
    <g id="xtick_6">
     <g id="line2d_6">
      <path d="M 264.526205 239.08325 
L 264.526205 20.5 
" clip-path="url(#pb9c59bc120)" style="fill: none; stroke: #dddddd; stroke-width: 0.6; stroke-linecap: round"/>
     </g>
     <g id="text_6">
      <!-- centered -->
      <g style="fill: #262626" transform="translate(251.757767 253.524812) scale(0.07 -0.07)">
       <use xlink:href="#STIXTwoText-63"/>
       <use xlink:href="#STIXTwoText-65" transform="translate(44.599991 0)"/>
       <use xlink:href="#STIXTwoText-6e" transform="translate(90.999985 0)"/>
       <use xlink:href="#STIXTwoText-74" transform="translate(148.599976 0)"/>
       <use xlink:href="#STIXTwoText-65" transform="translate(180.09996 0)"/>
       <use xlink:href="#STIXTwoText-72" transform="translate(226.499954 0)"/>
       <use xlink:href="#STIXTwoText-65" transform="translate(264.499939 0)"/>
       <use xlink:href="#STIXTwoText-64" transform="translate(310.899933 0)"/>
      </g>
      <!-- (Mamba) -->
      <g style="fill: #262626" transform="translate(250.823705 260.994687) scale(0.07 -0.07)">
       <defs>
        <path id="STIXTwoText-4d" d="M 1683 0 
L 179 0 
L 179 192 
Q 442 192 570 240 
Q 698 288 742 448 
Q 787 608 787 934 
L 787 3424 
Q 787 3667 742 3792 
Q 698 3917 573 3965 
Q 448 4013 192 4013 
L 192 4205 
L 1498 4205 
L 2848 986 
L 2874 986 
L 4218 4205 
L 5434 4205 
L 5434 4013 
Q 5210 4013 5088 3965 
Q 4966 3917 4921 3792 
Q 4877 3667 4877 3430 
L 4877 762 
Q 4877 531 4921 406 
Q 4966 282 5088 237 
Q 5210 192 5440 192 
L 5440 0 
L 3738 0 
L 3738 192 
Q 3987 192 4108 237 
Q 4230 282 4268 406 
Q 4307 531 4307 762 
L 4307 3520 
L 4282 3520 
L 2790 0 
L 2637 0 
L 1126 3514 
L 1101 3514 
L 1101 934 
Q 1101 608 1145 448 
Q 1190 288 1315 240 
Q 1440 192 1683 192 
L 1683 0 
z
" transform="scale(0.015625)"/>
       </defs>
       <use xlink:href="#STIXTwoText-28"/>
       <use xlink:href="#STIXTwoText-4d" transform="translate(34.299988 0)"/>
       <use xlink:href="#STIXTwoText-61" transform="translate(123.799973 0)"/>
       <use xlink:href="#STIXTwoText-6d" transform="translate(171.799957 0)"/>
       <use xlink:href="#STIXTwoText-62" transform="translate(256.999939 0)"/>
       <use xlink:href="#STIXTwoText-61" transform="translate(309.199936 0)"/>
       <use xlink:href="#STIXTwoText-29" transform="translate(357.199921 0)"/>
      </g>
     </g>
    </g>
   </g>
   <g id="matplotlib.axis_2">
    <g id="ytick_1">
     <g id="line2d_7">
      <path d="M 48.78 239.08325 
L 290.68875 239.08325 
" clip-path="url(#pb9c59bc120)" style="fill: none; stroke: #dddddd; stroke-width: 0.6; stroke-linecap: round"/>
     </g>
     <g id="text_7">
      <!-- 80.0 -->
      <g style="fill: #262626" transform="translate(24.575 242.083484) scale(0.085 -0.085)">
       <defs>
        <path id="STIXTwoText-38" d="M 1574 -77 
Q 1203 -77 915 32 
Q 627 141 460 361 
Q 294 582 294 909 
Q 294 1165 390 1341 
Q 486 1517 681 1670 
Q 877 1824 1171 2022 
L 1171 2099 
L 1421 1965 
Q 1222 1805 1081 1664 
Q 941 1523 867 1356 
Q 794 1190 794 960 
Q 794 531 1014 326 
Q 1235 122 1600 122 
Q 1798 122 1964 195 
Q 2131 269 2230 413 
Q 2330 557 2330 774 
Q 2330 986 2243 1158 
Q 2157 1331 1929 1520 
Q 1702 1709 1280 1978 
L 1248 1990 
Q 890 2234 701 2419 
Q 512 2605 445 2787 
Q 378 2970 378 3194 
Q 378 3488 534 3699 
Q 691 3910 966 4025 
Q 1242 4141 1594 4141 
Q 1914 4141 2166 4025 
Q 2419 3910 2566 3712 
Q 2714 3514 2714 3258 
Q 2714 3027 2630 2860 
Q 2547 2694 2368 2556 
Q 2189 2419 1888 2253 
L 1888 2176 
L 1619 2317 
Q 1978 2522 2109 2736 
Q 2240 2950 2240 3270 
Q 2240 3590 2064 3760 
Q 1888 3930 1581 3930 
Q 1254 3930 1065 3766 
Q 877 3603 877 3309 
Q 877 3014 1088 2803 
Q 1299 2592 1766 2310 
L 1811 2278 
Q 2214 2042 2444 1840 
Q 2675 1638 2771 1433 
Q 2867 1229 2867 960 
Q 2867 627 2704 393 
Q 2541 160 2249 41 
Q 1958 -77 1574 -77 
z
" transform="scale(0.015625)"/>
        <path id="STIXTwoText-30" d="M 1581 -70 
Q 1197 -70 928 99 
Q 659 269 492 563 
Q 326 858 249 1242 
Q 173 1626 173 2048 
Q 173 2656 336 3120 
Q 499 3584 816 3846 
Q 1133 4109 1594 4109 
Q 2010 4109 2323 3862 
Q 2637 3616 2816 3152 
Q 2995 2688 2995 2029 
Q 2995 1619 2915 1241 
Q 2835 864 2665 569 
Q 2496 275 2227 102 
Q 1958 -70 1581 -70 
z
M 1581 160 
Q 1958 160 2166 614 
Q 2374 1069 2374 1990 
Q 2374 2963 2172 3427 
Q 1971 3891 1574 3891 
Q 1197 3891 992 3430 
Q 787 2970 787 2016 
Q 787 1088 992 624 
Q 1197 160 1581 160 
z
" transform="scale(0.015625)"/>
        <path id="STIXTwoText-2e" d="M 774 -51 
Q 582 -51 489 57 
Q 397 166 397 326 
Q 397 493 499 611 
Q 602 730 781 730 
Q 966 730 1068 608 
Q 1171 486 1171 320 
Q 1171 173 1068 61 
Q 966 -51 774 -51 
z
" transform="scale(0.015625)"/>
       </defs>
       <use xlink:href="#STIXTwoText-38"/>
       <use xlink:href="#STIXTwoText-30" transform="translate(49.499985 0)"/>
       <use xlink:href="#STIXTwoText-2e" transform="translate(98.999969 0)"/>
       <use xlink:href="#STIXTwoText-30" transform="translate(123.499954 0)"/>
      </g>
     </g>
    </g>
    <g id="ytick_2">
     <g id="line2d_8">
      <path d="M 48.78 211.760344 
L 290.68875 211.760344 
" clip-path="url(#pb9c59bc120)" style="fill: none; stroke: #dddddd; stroke-width: 0.6; stroke-linecap: round"/>
     </g>
     <g id="text_8">
      <!-- 82.5 -->
      <g style="fill: #262626" transform="translate(24.575 214.760578) scale(0.085 -0.085)">
       <defs>
        <path id="STIXTwoText-35" d="M 1114 -83 
Q 742 -83 560 6 
Q 378 96 378 275 
Q 378 384 445 467 
Q 512 550 634 550 
Q 730 550 822 502 
Q 915 454 1014 393 
Q 1114 333 1235 285 
Q 1357 237 1510 237 
Q 1741 237 1936 326 
Q 2131 416 2249 614 
Q 2368 813 2368 1146 
Q 2368 1504 2227 1721 
Q 2086 1939 1849 2054 
Q 1613 2170 1315 2214 
Q 1018 2259 698 2266 
L 621 2362 
L 1018 4032 
L 2771 4032 
L 2669 3514 
L 1165 3514 
L 992 2784 
Q 1312 2758 1590 2704 
Q 1869 2650 2096 2554 
Q 2323 2458 2489 2301 
Q 2656 2144 2745 1923 
Q 2835 1702 2835 1402 
Q 2835 1030 2710 752 
Q 2586 474 2355 288 
Q 2125 102 1811 9 
Q 1498 -83 1114 -83 
z
" transform="scale(0.015625)"/>
       </defs>
       <use xlink:href="#STIXTwoText-38"/>
       <use xlink:href="#STIXTwoText-32" transform="translate(49.499985 0)"/>
       <use xlink:href="#STIXTwoText-2e" transform="translate(98.999969 0)"/>
       <use xlink:href="#STIXTwoText-35" transform="translate(123.499954 0)"/>
      </g>
     </g>
    </g>
    <g id="ytick_3">
     <g id="line2d_9">
      <path d="M 48.78 184.437437 
L 290.68875 184.437437 
" clip-path="url(#pb9c59bc120)" style="fill: none; stroke: #dddddd; stroke-width: 0.6; stroke-linecap: round"/>
     </g>
     <g id="text_9">
      <!-- 85.0 -->
      <g style="fill: #262626" transform="translate(24.575 187.437672) scale(0.085 -0.085)">
       <use xlink:href="#STIXTwoText-38"/>
       <use xlink:href="#STIXTwoText-35" transform="translate(49.499985 0)"/>
       <use xlink:href="#STIXTwoText-2e" transform="translate(98.999969 0)"/>
       <use xlink:href="#STIXTwoText-30" transform="translate(123.499954 0)"/>
      </g>
     </g>
    </g>
    <g id="ytick_4">
     <g id="line2d_10">
      <path d="M 48.78 157.114531 
L 290.68875 157.114531 
" clip-path="url(#pb9c59bc120)" style="fill: none; stroke: #dddddd; stroke-width: 0.6; stroke-linecap: round"/>
     </g>
     <g id="text_10">
      <!-- 87.5 -->
      <g style="fill: #262626" transform="translate(24.575 160.114766) scale(0.085 -0.085)">
       <defs>
        <path id="STIXTwoText-37" d="M 1472 -51 
L 966 -51 
L 2477 3514 
L 1050 3514 
Q 870 3514 774 3482 
Q 678 3450 617 3347 
Q 557 3245 467 3034 
L 269 3053 
L 525 4032 
L 2970 4032 
L 2970 3834 
L 1472 -51 
z
" transform="scale(0.015625)"/>
       </defs>
       <use xlink:href="#STIXTwoText-38"/>
       <use xlink:href="#STIXTwoText-37" transform="translate(49.499985 0)"/>
       <use xlink:href="#STIXTwoText-2e" transform="translate(98.999969 0)"/>
       <use xlink:href="#STIXTwoText-35" transform="translate(123.499954 0)"/>
      </g>
     </g>
    </g>
    <g id="ytick_5">
     <g id="line2d_11">
      <path d="M 48.78 129.791625 
L 290.68875 129.791625 
" clip-path="url(#pb9c59bc120)" style="fill: none; stroke: #dddddd; stroke-width: 0.6; stroke-linecap: round"/>
     </g>
     <g id="text_11">
      <!-- 90.0 -->
      <g style="fill: #262626" transform="translate(24.575 132.791859) scale(0.085 -0.085)">
       <defs>
        <path id="STIXTwoText-39" d="M 544 -83 
L 531 102 
Q 973 154 1344 362 
Q 1715 570 1961 931 
Q 2208 1293 2278 1811 
L 2240 1818 
Q 2022 1619 1833 1520 
Q 1645 1421 1402 1421 
Q 877 1421 563 1776 
Q 250 2131 250 2765 
Q 250 3411 592 3772 
Q 934 4134 1536 4134 
Q 2016 4134 2310 3897 
Q 2605 3661 2742 3264 
Q 2880 2867 2880 2394 
Q 2880 1773 2713 1312 
Q 2547 851 2240 540 
Q 1933 230 1504 76 
Q 1075 -77 544 -83 
z
M 1594 1798 
Q 1875 1798 2089 1968 
Q 2304 2138 2304 2547 
Q 2304 2950 2224 3257 
Q 2144 3565 1968 3741 
Q 1792 3917 1510 3917 
Q 1197 3917 1001 3667 
Q 806 3418 806 2803 
Q 806 2355 1001 2076 
Q 1197 1798 1594 1798 
z
" transform="scale(0.015625)"/>
       </defs>
       <use xlink:href="#STIXTwoText-39"/>
       <use xlink:href="#STIXTwoText-30" transform="translate(49.499985 0)"/>
       <use xlink:href="#STIXTwoText-2e" transform="translate(98.999969 0)"/>
       <use xlink:href="#STIXTwoText-30" transform="translate(123.499954 0)"/>
      </g>
     </g>
    </g>
    <g id="ytick_6">
     <g id="line2d_12">
      <path d="M 48.78 102.468719 
L 290.68875 102.468719 
" clip-path="url(#pb9c59bc120)" style="fill: none; stroke: #dddddd; stroke-width: 0.6; stroke-linecap: round"/>
     </g>
     <g id="text_12">
      <!-- 92.5 -->
      <g style="fill: #262626" transform="translate(24.575 105.468953) scale(0.085 -0.085)">
       <use xlink:href="#STIXTwoText-39"/>
       <use xlink:href="#STIXTwoText-32" transform="translate(49.499985 0)"/>
       <use xlink:href="#STIXTwoText-2e" transform="translate(98.999969 0)"/>
       <use xlink:href="#STIXTwoText-35" transform="translate(123.499954 0)"/>
      </g>
     </g>
    </g>
    <g id="ytick_7">
     <g id="line2d_13">
      <path d="M 48.78 75.145812 
L 290.68875 75.145812 
" clip-path="url(#pb9c59bc120)" style="fill: none; stroke: #dddddd; stroke-width: 0.6; stroke-linecap: round"/>
     </g>
     <g id="text_13">
      <!-- 95.0 -->
      <g style="fill: #262626" transform="translate(24.575 78.146047) scale(0.085 -0.085)">
       <use xlink:href="#STIXTwoText-39"/>
       <use xlink:href="#STIXTwoText-35" transform="translate(49.499985 0)"/>
       <use xlink:href="#STIXTwoText-2e" transform="translate(98.999969 0)"/>
       <use xlink:href="#STIXTwoText-30" transform="translate(123.499954 0)"/>
      </g>
     </g>
    </g>
    <g id="ytick_8">
     <g id="line2d_14">
      <path d="M 48.78 47.822906 
L 290.68875 47.822906 
" clip-path="url(#pb9c59bc120)" style="fill: none; stroke: #dddddd; stroke-width: 0.6; stroke-linecap: round"/>
     </g>
     <g id="text_14">
      <!-- 97.5 -->
      <g style="fill: #262626" transform="translate(24.575 50.823141) scale(0.085 -0.085)">
       <use xlink:href="#STIXTwoText-39"/>
       <use xlink:href="#STIXTwoText-37" transform="translate(49.499985 0)"/>
       <use xlink:href="#STIXTwoText-2e" transform="translate(98.999969 0)"/>
       <use xlink:href="#STIXTwoText-35" transform="translate(123.499954 0)"/>
      </g>
     </g>
    </g>
    <g id="ytick_9">
     <g id="line2d_15">
      <path d="M 48.78 20.5 
L 290.68875 20.5 
" clip-path="url(#pb9c59bc120)" style="fill: none; stroke: #dddddd; stroke-width: 0.6; stroke-linecap: round"/>
     </g>
     <g id="text_15">
      <!-- 100.0 -->
      <g style="fill: #262626" transform="translate(20.3675 23.500234) scale(0.085 -0.085)">
       <use xlink:href="#STIXTwoText-31"/>
       <use xlink:href="#STIXTwoText-30" transform="translate(49.499985 0)"/>
       <use xlink:href="#STIXTwoText-30" transform="translate(98.999969 0)"/>
       <use xlink:href="#STIXTwoText-2e" transform="translate(148.499954 0)"/>
       <use xlink:href="#STIXTwoText-30" transform="translate(172.999939 0)"/>
      </g>
     </g>
    </g>
    <g id="text_16">
     <!-- deployed capture rate (%) -->
     <g style="fill: #262626" transform="translate(14.135 180.794008) rotate(-90) scale(0.095 -0.095)">
      <defs>
       <path id="STIXTwoText-70" d="M 1760 -1408 
L 141 -1408 
L 141 -1229 
Q 442 -1229 525 -1129 
Q 608 -1030 608 -762 
L 608 2406 
Q 608 2592 566 2662 
Q 525 2733 365 2733 
Q 301 2733 230 2726 
Q 160 2720 160 2720 
L 160 2906 
L 966 3085 
L 1126 3085 
L 1126 2547 
L 1146 2547 
Q 1376 2816 1616 2960 
Q 1856 3104 2138 3104 
Q 2458 3104 2698 2921 
Q 2938 2739 3075 2416 
Q 3213 2093 3213 1670 
Q 3213 1126 3024 739 
Q 2835 352 2515 144 
Q 2195 -64 1811 -64 
Q 1632 -64 1469 -22 
Q 1306 19 1165 115 
L 1139 115 
L 1139 -723 
Q 1139 -928 1190 -1037 
Q 1242 -1146 1376 -1184 
Q 1510 -1222 1760 -1222 
L 1760 -1408 
z
M 1843 186 
Q 2182 186 2406 506 
Q 2630 826 2630 1491 
Q 2630 2099 2432 2384 
Q 2234 2669 1875 2669 
Q 1619 2669 1424 2534 
Q 1229 2400 1139 2278 
L 1139 608 
Q 1203 544 1299 441 
Q 1395 339 1529 262 
Q 1664 186 1843 186 
z
" transform="scale(0.015625)"/>
       <path id="STIXTwoText-79" d="M 493 -1504 
Q 294 -1504 166 -1427 
Q 38 -1350 38 -1171 
Q 38 -1024 124 -960 
Q 211 -896 333 -896 
Q 499 -896 630 -966 
Q 762 -1037 826 -1037 
Q 915 -1037 1017 -899 
Q 1120 -762 1219 -570 
Q 1318 -378 1379 -208 
Q 1440 -38 1440 32 
Q 1440 96 1373 262 
Q 1306 429 1248 557 
L 307 2611 
Q 262 2720 179 2781 
Q 96 2842 -77 2842 
L -77 3027 
L 1293 3027 
L 1293 2835 
Q 1075 2835 1001 2793 
Q 928 2752 928 2669 
Q 928 2605 960 2531 
Q 992 2458 1018 2387 
L 1645 979 
L 1728 666 
L 1773 666 
L 2394 2522 
Q 2406 2554 2416 2602 
Q 2426 2650 2426 2682 
Q 2426 2778 2326 2810 
Q 2227 2842 2067 2842 
L 2067 3027 
L 3155 3027 
L 3155 2842 
Q 2963 2842 2873 2755 
Q 2784 2669 2714 2483 
L 1715 -141 
Q 1530 -627 1354 -928 
Q 1178 -1229 973 -1366 
Q 768 -1504 493 -1504 
z
" transform="scale(0.015625)"/>
       <path id="STIXTwoText-25" d="M 1824 3302 
Q 1824 3597 1721 3750 
Q 1619 3904 1427 3904 
Q 1229 3904 1072 3753 
Q 915 3603 822 3344 
Q 730 3085 730 2758 
Q 730 2458 816 2317 
Q 902 2176 1082 2176 
Q 1286 2176 1452 2329 
Q 1619 2483 1721 2742 
Q 1824 3002 1824 3302 
z
M 4141 1165 
Q 4141 806 4003 512 
Q 3866 218 3629 45 
Q 3392 -128 3085 -128 
Q 2758 -128 2572 80 
Q 2387 288 2387 698 
Q 2387 1062 2524 1353 
Q 2662 1645 2905 1814 
Q 3149 1984 3456 1984 
Q 3789 1984 3965 1773 
Q 4141 1562 4141 1165 
z
M 3462 4262 
L 3750 4262 
L 1158 -134 
L 851 -134 
L 3136 3725 
L 3104 3725 
Q 2944 3616 2793 3568 
Q 2643 3520 2445 3520 
Q 2330 3520 2243 3539 
Q 2157 3558 2010 3622 
L 1997 3610 
Q 2016 3539 2029 3449 
Q 2042 3360 2042 3251 
Q 2042 2899 1904 2604 
Q 1766 2310 1526 2137 
Q 1286 1965 979 1965 
Q 653 1965 470 2173 
Q 288 2381 288 2784 
Q 288 3149 429 3440 
Q 570 3731 813 3904 
Q 1056 4077 1350 4077 
Q 1536 4077 1667 4019 
Q 1798 3962 1913 3885 
Q 2029 3808 2173 3750 
Q 2317 3693 2528 3693 
Q 2675 3693 2800 3737 
Q 2925 3782 3078 3907 
Q 3232 4032 3462 4262 
z
M 3923 1210 
Q 3923 1811 3526 1811 
Q 3328 1811 3171 1660 
Q 3014 1510 2921 1251 
Q 2829 992 2829 666 
Q 2829 365 2915 224 
Q 3002 83 3181 83 
Q 3386 83 3552 236 
Q 3718 390 3820 649 
Q 3923 909 3923 1210 
z
" transform="scale(0.015625)"/>
      </defs>
      <use xlink:href="#STIXTwoText-64"/>
      <use xlink:href="#STIXTwoText-65" transform="translate(53.899994 0)"/>
      <use xlink:href="#STIXTwoText-70" transform="translate(100.299988 0)"/>
      <use xlink:href="#STIXTwoText-6c" transform="translate(153.999985 0)"/>
      <use xlink:href="#STIXTwoText-6f" transform="translate(182.299973 0)"/>
      <use xlink:href="#STIXTwoText-79" transform="translate(233.699966 0)"/>
      <use xlink:href="#STIXTwoText-65" transform="translate(281.999954 0)"/>
      <use xlink:href="#STIXTwoText-64" transform="translate(328.399948 0)"/>
      <use xlink:href="#STIXTwoText-20" transform="translate(382.299942 0)"/>
      <use xlink:href="#STIXTwoText-63" transform="translate(405.799927 0)"/>
      <use xlink:href="#STIXTwoText-61" transform="translate(450.399918 0)"/>
      <use xlink:href="#STIXTwoText-70" transform="translate(498.399902 0)"/>
      <use xlink:href="#STIXTwoText-74" transform="translate(552.099899 0)"/>
      <use xlink:href="#STIXTwoText-75" transform="translate(583.599884 0)"/>
      <use xlink:href="#STIXTwoText-72" transform="translate(640.599869 0)"/>
      <use xlink:href="#STIXTwoText-65" transform="translate(678.599854 0)"/>
      <use xlink:href="#STIXTwoText-20" transform="translate(724.999847 0)"/>
      <use xlink:href="#STIXTwoText-72" transform="translate(748.499832 0)"/>
      <use xlink:href="#STIXTwoText-61" transform="translate(786.499817 0)"/>
      <use xlink:href="#STIXTwoText-74" transform="translate(834.499802 0)"/>
      <use xlink:href="#STIXTwoText-65" transform="translate(865.999786 0)"/>
      <use xlink:href="#STIXTwoText-20" transform="translate(912.39978 0)"/>
      <use xlink:href="#STIXTwoText-28" transform="translate(935.899765 0)"/>
      <use xlink:href="#STIXTwoText-25" transform="translate(970.199753 0)"/>
      <use xlink:href="#STIXTwoText-29" transform="translate(1039.399734 0)"/>
     </g>
    </g>
   </g>
   <g id="patch_3">
    <path d="M 59.775852 1113.41625 
L 90.109238 1113.41625 
L 90.109238 75.145812 
L 59.775852 75.145812 
z
" clip-path="url(#pb9c59bc120)" style="fill: #c44e52; stroke: #ffffff; stroke-linejoin: miter"/>
   </g>
   <g id="patch_4">
    <path d="M 97.692584 1113.41625 
L 128.02597 1113.41625 
L 128.02597 75.145812 
L 97.692584 75.145812 
z
" clip-path="url(#pb9c59bc120)" style="fill: #4c72b0; stroke: #ffffff; stroke-linejoin: miter"/>
   </g>
   <g id="patch_5">
    <path d="M 135.609316 1113.41625 
L 165.942702 1113.41625 
L 165.942702 189.902019 
L 135.609316 189.902019 
z
" clip-path="url(#pb9c59bc120)" style="fill: #4c72b0; stroke: #ffffff; stroke-linejoin: miter"/>
   </g>
   <g id="patch_6">
    <path d="M 173.526048 1113.41625 
L 203.859434 1113.41625 
L 203.859434 89.353724 
L 173.526048 89.353724 
z
" clip-path="url(#pb9c59bc120)" style="fill: #4c72b0; stroke: #ffffff; stroke-linejoin: miter"/>
   </g>
   <g id="patch_7">
    <path d="M 211.44278 1113.41625 
L 241.776166 1113.41625 
L 241.776166 75.145812 
L 211.44278 75.145812 
z
" clip-path="url(#pb9c59bc120)" style="fill: #55a868; stroke: #ffffff; stroke-linejoin: miter"/>
   </g>
   <g id="patch_8">
    <path d="M 249.359512 1113.41625 
L 279.692898 1113.41625 
L 279.692898 76.238729 
L 249.359512 76.238729 
z
" clip-path="url(#pb9c59bc120)" style="fill: #55a868; stroke: #ffffff; stroke-linejoin: miter"/>
   </g>
   <g id="line2d_16">
    <path d="M 48.78 75.145812 
L 290.68875 75.145812 
" clip-path="url(#pb9c59bc120)" style="fill: none; stroke-dasharray: 3.7,1.6; stroke-dashoffset: 0; stroke: #666666"/>
   </g>
   <g id="patch_9">
    <path d="M 48.78 239.08325 
L 48.78 20.5 
" style="fill: none; stroke: #bbbbbb; stroke-width: 0.8; stroke-linejoin: miter; stroke-linecap: square"/>
   </g>
   <g id="patch_10">
    <path d="M 290.68875 239.08325 
L 290.68875 20.5 
" style="fill: none; stroke: #bbbbbb; stroke-width: 0.8; stroke-linejoin: miter; stroke-linecap: square"/>
   </g>
   <g id="patch_11">
    <path d="M 48.78 239.08325 
L 290.68875 239.08325 
" style="fill: none; stroke: #bbbbbb; stroke-width: 0.8; stroke-linejoin: miter; stroke-linecap: square"/>
   </g>
   <g id="patch_12">
    <path d="M 48.78 20.5 
L 290.68875 20.5 
" style="fill: none; stroke: #bbbbbb; stroke-width: 0.8; stroke-linejoin: miter; stroke-linecap: square"/>
   </g>
   <g id="text_17">
    <!-- 95.0 -->
    <g style="fill: #262626" transform="translate(68.887545 70.327064) scale(0.07 -0.07)">
     <use xlink:href="#STIXTwoText-39"/>
     <use xlink:href="#STIXTwoText-35" transform="translate(49.499985 0)"/>
     <use xlink:href="#STIXTwoText-2e" transform="translate(98.999969 0)"/>
     <use xlink:href="#STIXTwoText-30" transform="translate(123.499954 0)"/>
    </g>
   </g>
   <g id="text_18">
    <!-- 95.0 -->
    <g style="fill: #262626" transform="translate(106.804277 70.327064) scale(0.07 -0.07)">
     <use xlink:href="#STIXTwoText-39"/>
     <use xlink:href="#STIXTwoText-35" transform="translate(49.499985 0)"/>
     <use xlink:href="#STIXTwoText-2e" transform="translate(98.999969 0)"/>
     <use xlink:href="#STIXTwoText-30" transform="translate(123.499954 0)"/>
    </g>
   </g>
   <g id="text_19">
    <!-- 84.5 -->
    <g style="fill: #262626" transform="translate(144.721009 185.08327) scale(0.07 -0.07)">
     <defs>
      <path id="STIXTwoText-34" d="M 2426 0 
L 1856 0 
L 1856 1011 
L 83 1011 
L 83 1414 
L 2035 4128 
L 2426 4128 
L 2426 1453 
L 3078 1453 
L 3078 1011 
L 2426 1011 
L 2426 0 
z
M 435 1478 
L 435 1453 
L 1856 1453 
L 1856 3430 
L 1830 3430 
L 435 1478 
z
" transform="scale(0.015625)"/>
     </defs>
     <use xlink:href="#STIXTwoText-38"/>
     <use xlink:href="#STIXTwoText-34" transform="translate(49.499985 0)"/>
     <use xlink:href="#STIXTwoText-2e" transform="translate(98.999969 0)"/>
     <use xlink:href="#STIXTwoText-35" transform="translate(123.499954 0)"/>
    </g>
   </g>
   <g id="text_20">
    <!-- 93.7 -->
    <g style="fill: #262626" transform="translate(182.637741 84.534975) scale(0.07 -0.07)">
     <defs>
      <path id="STIXTwoText-33" d="M 1094 -83 
Q 806 -83 652 -28 
Q 499 26 438 106 
Q 378 186 378 269 
Q 378 371 442 460 
Q 506 550 627 550 
Q 723 550 828 502 
Q 934 454 1049 393 
Q 1165 333 1283 285 
Q 1402 237 1523 237 
Q 1728 237 1907 310 
Q 2086 384 2201 560 
Q 2317 736 2317 1050 
Q 2317 1338 2157 1549 
Q 1997 1760 1731 1878 
Q 1466 1997 1158 1997 
L 1030 1997 
L 1030 2240 
L 1152 2240 
Q 1370 2240 1574 2349 
Q 1779 2458 1910 2656 
Q 2042 2854 2042 3110 
Q 2042 3392 1866 3549 
Q 1690 3706 1389 3706 
Q 1101 3706 909 3574 
Q 717 3443 550 3187 
L 403 3270 
Q 582 3686 876 3904 
Q 1171 4122 1562 4122 
Q 2054 4122 2323 3875 
Q 2592 3629 2592 3264 
Q 2592 2931 2397 2726 
Q 2202 2522 1901 2330 
L 1901 2310 
Q 2157 2234 2371 2090 
Q 2586 1946 2714 1738 
Q 2842 1530 2842 1242 
Q 2842 806 2598 508 
Q 2355 211 1958 64 
Q 1562 -83 1094 -83 
z
" transform="scale(0.015625)"/>
     </defs>
     <use xlink:href="#STIXTwoText-39"/>
     <use xlink:href="#STIXTwoText-33" transform="translate(49.499985 0)"/>
     <use xlink:href="#STIXTwoText-2e" transform="translate(98.999969 0)"/>
     <use xlink:href="#STIXTwoText-37" transform="translate(123.499954 0)"/>
    </g>
   </g>
   <g id="text_21">
    <!-- 95.0 -->
    <g style="fill: #262626" transform="translate(220.554473 70.327064) scale(0.07 -0.07)">
     <use xlink:href="#STIXTwoText-39"/>
     <use xlink:href="#STIXTwoText-35" transform="translate(49.499985 0)"/>
     <use xlink:href="#STIXTwoText-2e" transform="translate(98.999969 0)"/>
     <use xlink:href="#STIXTwoText-30" transform="translate(123.499954 0)"/>
    </g>
   </g>
   <g id="text_22">
    <!-- 94.9 -->
    <g style="fill: #262626" transform="translate(258.471205 71.41998) scale(0.07 -0.07)">
     <use xlink:href="#STIXTwoText-39"/>
     <use xlink:href="#STIXTwoText-34" transform="translate(49.499985 0)"/>
     <use xlink:href="#STIXTwoText-2e" transform="translate(98.999969 0)"/>
     <use xlink:href="#STIXTwoText-39" transform="translate(123.499954 0)"/>
    </g>
   </g>
   <g id="text_23">
    <!--  joint-FTC -->
    <g style="fill: #666666" transform="translate(252.937227 73.500812) scale(0.07 -0.07)">
     <defs>
      <path id="STIXTwoText-6a" d="M 70 -1504 
Q -243 -1504 -425 -1379 
Q -608 -1254 -608 -1043 
Q -608 -922 -531 -848 
Q -454 -774 -326 -774 
Q -211 -774 -137 -841 
Q -64 -909 -6 -998 
Q 51 -1088 121 -1155 
Q 192 -1222 301 -1222 
Q 538 -1222 589 -969 
Q 640 -717 640 -205 
L 640 2387 
Q 640 2598 585 2665 
Q 531 2733 358 2733 
Q 282 2733 224 2723 
Q 166 2714 166 2714 
L 166 2906 
L 998 3085 
L 1171 3085 
L 1171 -13 
Q 1171 -518 1052 -848 
Q 934 -1178 691 -1341 
Q 448 -1504 70 -1504 
z
M 890 3584 
Q 730 3584 624 3693 
Q 518 3802 518 3949 
Q 518 4096 617 4201 
Q 717 4307 890 4307 
Q 1056 4307 1161 4201 
Q 1267 4096 1267 3949 
Q 1267 3802 1161 3693 
Q 1056 3584 890 3584 
z
" transform="scale(0.015625)"/>
      <path id="STIXTwoText-2d" d="M 1728 1395 
L 288 1395 
L 288 1811 
L 1728 1811 
L 1728 1395 
z
" transform="scale(0.015625)"/>
      <path id="STIXTwoText-46" d="M 2106 0 
L 230 0 
L 230 192 
Q 493 192 624 230 
Q 755 269 803 387 
Q 851 506 851 742 
L 851 3482 
Q 851 3706 793 3818 
Q 736 3930 598 3971 
Q 461 4013 230 4013 
L 230 4205 
L 3635 4205 
L 3674 3155 
L 3469 3155 
Q 3424 3386 3376 3533 
Q 3328 3680 3232 3763 
Q 3136 3846 2953 3881 
Q 2771 3917 2458 3917 
L 1440 3917 
L 1440 2298 
L 2195 2298 
Q 2470 2298 2617 2349 
Q 2765 2400 2819 2537 
Q 2874 2675 2874 2931 
L 3091 2931 
L 3091 1446 
L 2874 1446 
Q 2874 1709 2819 1837 
Q 2765 1965 2617 2006 
Q 2470 2048 2195 2048 
L 1440 2048 
L 1440 704 
Q 1440 486 1501 377 
Q 1562 269 1709 230 
Q 1856 192 2106 192 
L 2106 0 
z
" transform="scale(0.015625)"/>
      <path id="STIXTwoText-54" d="M 2861 0 
L 1005 0 
L 1005 192 
Q 1274 192 1408 233 
Q 1542 275 1587 412 
Q 1632 550 1632 838 
L 1632 3917 
L 1222 3917 
Q 870 3917 694 3846 
Q 518 3776 441 3590 
Q 365 3405 294 3053 
L 96 3053 
L 166 4205 
L 3706 4205 
L 3757 3053 
L 3558 3053 
Q 3488 3405 3411 3590 
Q 3334 3776 3161 3846 
Q 2989 3917 2630 3917 
L 2227 3917 
L 2227 838 
Q 2227 550 2272 412 
Q 2317 275 2451 233 
Q 2586 192 2861 192 
L 2861 0 
z
" transform="scale(0.015625)"/>
      <path id="STIXTwoText-43" d="M 2330 -70 
Q 1670 -70 1222 211 
Q 774 493 547 985 
Q 320 1478 320 2099 
Q 320 2797 589 3283 
Q 858 3770 1331 4026 
Q 1805 4282 2419 4282 
Q 2758 4282 2963 4224 
Q 3168 4166 3289 4108 
Q 3411 4051 3488 4051 
Q 3565 4051 3606 4118 
Q 3648 4186 3706 4282 
L 3898 4282 
L 3898 2816 
L 3680 2816 
Q 3578 3443 3248 3724 
Q 2918 4006 2426 4006 
Q 1734 4006 1360 3513 
Q 986 3021 986 2163 
Q 986 1523 1181 1120 
Q 1376 717 1721 525 
Q 2067 333 2515 333 
Q 2957 333 3289 496 
Q 3622 659 3891 954 
L 4045 819 
Q 3872 563 3632 361 
Q 3392 160 3072 45 
Q 2752 -70 2330 -70 
z
" transform="scale(0.015625)"/>
     </defs>
     <use xlink:href="#STIXTwoText-20"/>
     <use xlink:href="#STIXTwoText-6a" transform="translate(23.499985 0)"/>
     <use xlink:href="#STIXTwoText-6f" transform="translate(49.799973 0)"/>
     <use xlink:href="#STIXTwoText-69" transform="translate(101.199966 0)"/>
     <use xlink:href="#STIXTwoText-6e" transform="translate(129.699951 0)"/>
     <use xlink:href="#STIXTwoText-74" transform="translate(187.299942 0)"/>
     <use xlink:href="#STIXTwoText-2d" transform="translate(218.799927 0)"/>
     <use xlink:href="#STIXTwoText-46" transform="translate(250.299911 0)"/>
     <use xlink:href="#STIXTwoText-54" transform="translate(309.099899 0)"/>
     <use xlink:href="#STIXTwoText-43" transform="translate(369.399887 0)"/>
    </g>
   </g>
   <g id="text_24">
    <!-- Off-nominal capture (9M stress pool) -->
    <g style="fill: #262626" transform="translate(48.78 14.5) scale(0.1 -0.1)">
     <defs>
      <path id="STIXTwoText-4f" d="M 2362 -77 
Q 1728 -77 1270 185 
Q 813 448 566 937 
Q 320 1427 320 2106 
Q 320 2758 566 3248 
Q 813 3738 1270 4010 
Q 1728 4282 2362 4282 
Q 3002 4282 3456 4016 
Q 3910 3750 4153 3273 
Q 4397 2797 4397 2163 
Q 4397 1491 4150 988 
Q 3904 486 3449 204 
Q 2995 -77 2362 -77 
z
M 2368 192 
Q 3053 192 3389 685 
Q 3725 1178 3725 2144 
Q 3725 2720 3552 3139 
Q 3379 3558 3068 3785 
Q 2758 4013 2342 4013 
Q 1722 4013 1357 3517 
Q 992 3021 992 2144 
Q 992 1242 1334 717 
Q 1677 192 2368 192 
z
" transform="scale(0.015625)"/>
     </defs>
     <use xlink:href="#STIXTwoText-4f"/>
     <use xlink:href="#STIXTwoText-66" transform="translate(73.699982 0)"/>
     <use xlink:href="#STIXTwoText-66" transform="translate(104.399979 0)"/>
     <use xlink:href="#STIXTwoText-2d" transform="translate(135.099976 0)"/>
     <use xlink:href="#STIXTwoText-6e" transform="translate(166.59996 0)"/>
     <use xlink:href="#STIXTwoText-6f" transform="translate(224.199951 0)"/>
     <use xlink:href="#STIXTwoText-6d" transform="translate(275.599945 0)"/>
     <use xlink:href="#STIXTwoText-69" transform="translate(360.799927 0)"/>
     <use xlink:href="#STIXTwoText-6e" transform="translate(389.299911 0)"/>
     <use xlink:href="#STIXTwoText-61" transform="translate(446.899902 0)"/>
     <use xlink:href="#STIXTwoText-6c" transform="translate(494.899887 0)"/>
     <use xlink:href="#STIXTwoText-20" transform="translate(523.199875 0)"/>
     <use xlink:href="#STIXTwoText-63" transform="translate(546.69986 0)"/>
     <use xlink:href="#STIXTwoText-61" transform="translate(591.29985 0)"/>
     <use xlink:href="#STIXTwoText-70" transform="translate(639.299835 0)"/>
     <use xlink:href="#STIXTwoText-74" transform="translate(692.999832 0)"/>
     <use xlink:href="#STIXTwoText-75" transform="translate(724.499817 0)"/>
     <use xlink:href="#STIXTwoText-72" transform="translate(781.499802 0)"/>
     <use xlink:href="#STIXTwoText-65" transform="translate(819.499786 0)"/>
     <use xlink:href="#STIXTwoText-20" transform="translate(865.89978 0)"/>
     <use xlink:href="#STIXTwoText-28" transform="translate(889.399765 0)"/>
     <use xlink:href="#STIXTwoText-39" transform="translate(923.699753 0)"/>
     <use xlink:href="#STIXTwoText-4d" transform="translate(973.199738 0)"/>
     <use xlink:href="#STIXTwoText-20" transform="translate(1062.699722 0)"/>
     <use xlink:href="#STIXTwoText-73" transform="translate(1086.199707 0)"/>
     <use xlink:href="#STIXTwoText-74" transform="translate(1125.699692 0)"/>
     <use xlink:href="#STIXTwoText-72" transform="translate(1157.199677 0)"/>
     <use xlink:href="#STIXTwoText-65" transform="translate(1195.199661 0)"/>
     <use xlink:href="#STIXTwoText-73" transform="translate(1241.599655 0)"/>
     <use xlink:href="#STIXTwoText-73" transform="translate(1281.09964 0)"/>
     <use xlink:href="#STIXTwoText-20" transform="translate(1320.599625 0)"/>
     <use xlink:href="#STIXTwoText-70" transform="translate(1344.099609 0)"/>
     <use xlink:href="#STIXTwoText-6f" transform="translate(1397.799606 0)"/>
     <use xlink:href="#STIXTwoText-6f" transform="translate(1449.1996 0)"/>
     <use xlink:href="#STIXTwoText-6c" transform="translate(1500.599594 0)"/>
     <use xlink:href="#STIXTwoText-29" transform="translate(1528.899582 0)"/>
    </g>
   </g>
  </g>
  <g id="axes_2">
   <g id="patch_13">
    <path d="M 344.11875 239.08325 
L 586.0275 239.08325 
L 586.0275 20.5 
L 344.11875 20.5 
z
" style="fill: #f5f5f5"/>
   </g>
   <g id="matplotlib.axis_3">
    <g id="xtick_7">
     <g id="line2d_17">
      <path d="M 370.281295 239.08325 
L 370.281295 20.5 
" clip-path="url(#pa180e86224)" style="fill: none; stroke: #dddddd; stroke-width: 0.6; stroke-linecap: round"/>
     </g>
     <g id="text_25">
      <!-- stacked -->
      <g style="fill: #262626" transform="translate(359.147467 253.524812) scale(0.07 -0.07)">
       <use xlink:href="#STIXTwoText-73"/>
       <use xlink:href="#STIXTwoText-74" transform="translate(39.499985 0)"/>
       <use xlink:href="#STIXTwoText-61" transform="translate(70.999969 0)"/>
       <use xlink:href="#STIXTwoText-63" transform="translate(118.999954 0)"/>
       <use xlink:href="#STIXTwoText-6b" transform="translate(163.599945 0)"/>
       <use xlink:href="#STIXTwoText-65" transform="translate(217.799942 0)"/>
       <use xlink:href="#STIXTwoText-64" transform="translate(264.199936 0)"/>
      </g>
      <!-- (cubed/max/n=2) -->
      <g style="fill: #262626" transform="translate(343.670358 260.994687) scale(0.07 -0.07)">
       <use xlink:href="#STIXTwoText-28"/>
       <use xlink:href="#STIXTwoText-63" transform="translate(34.299988 0)"/>
       <use xlink:href="#STIXTwoText-75" transform="translate(78.899979 0)"/>
       <use xlink:href="#STIXTwoText-62" transform="translate(135.899963 0)"/>
       <use xlink:href="#STIXTwoText-65" transform="translate(188.09996 0)"/>
       <use xlink:href="#STIXTwoText-64" transform="translate(234.499954 0)"/>
       <use xlink:href="#STIXTwoText-2f" transform="translate(288.399948 0)"/>
       <use xlink:href="#STIXTwoText-6d" transform="translate(327.099945 0)"/>
       <use xlink:href="#STIXTwoText-61" transform="translate(412.299927 0)"/>
       <use xlink:href="#STIXTwoText-78" transform="translate(460.299911 0)"/>
       <use xlink:href="#STIXTwoText-2f" transform="translate(508.199905 0)"/>
       <use xlink:href="#STIXTwoText-6e" transform="translate(546.899902 0)"/>
       <use xlink:href="#STIXTwoText-3d" transform="translate(604.499893 0)"/>
       <use xlink:href="#STIXTwoText-32" transform="translate(676.499878 0)"/>
       <use xlink:href="#STIXTwoText-29" transform="translate(725.999863 0)"/>
      </g>
     </g>
    </g>
    <g id="xtick_8">
     <g id="line2d_18">
      <path d="M 408.198027 239.08325 
L 408.198027 20.5 
" clip-path="url(#pa180e86224)" style="fill: none; stroke: #dddddd; stroke-width: 0.6; stroke-linecap: round"/>
     </g>
     <g id="text_26">
      <!-- +sims -->
      <g style="fill: #262626" transform="translate(398.933418 253.524812) scale(0.07 -0.07)">
       <use xlink:href="#STIXTwoText-2b"/>
       <use xlink:href="#STIXTwoText-73" transform="translate(71.999985 0)"/>
       <use xlink:href="#STIXTwoText-69" transform="translate(111.499969 0)"/>
       <use xlink:href="#STIXTwoText-6d" transform="translate(139.999954 0)"/>
       <use xlink:href="#STIXTwoText-73" transform="translate(225.199936 0)"/>
      </g>
      <!-- (n=16) -->
      <g style="fill: #262626" transform="translate(397.796465 260.994687) scale(0.07 -0.07)">
       <use xlink:href="#STIXTwoText-28"/>
       <use xlink:href="#STIXTwoText-6e" transform="translate(34.299988 0)"/>
       <use xlink:href="#STIXTwoText-3d" transform="translate(91.899979 0)"/>
       <use xlink:href="#STIXTwoText-31" transform="translate(163.899963 0)"/>
       <use xlink:href="#STIXTwoText-36" transform="translate(213.399948 0)"/>
       <use xlink:href="#STIXTwoText-29" transform="translate(262.899933 0)"/>
      </g>
     </g>
    </g>
    <g id="xtick_9">
     <g id="line2d_19">
      <path d="M 446.114759 239.08325 
L 446.114759 20.5 
" clip-path="url(#pa180e86224)" style="fill: none; stroke: #dddddd; stroke-width: 0.6; stroke-linecap: round"/>
     </g>
     <g id="text_27">
      <!-- +bucket -->
      <g style="fill: #262626" transform="translate(433.58804 253.524812) scale(0.07 -0.07)">
       <use xlink:href="#STIXTwoText-2b"/>
       <use xlink:href="#STIXTwoText-62" transform="translate(71.999985 0)"/>
       <use xlink:href="#STIXTwoText-75" transform="translate(124.199982 0)"/>
       <use xlink:href="#STIXTwoText-63" transform="translate(181.199966 0)"/>
       <use xlink:href="#STIXTwoText-6b" transform="translate(225.799957 0)"/>
       <use xlink:href="#STIXTwoText-65" transform="translate(279.999954 0)"/>
       <use xlink:href="#STIXTwoText-74" transform="translate(326.399948 0)"/>
      </g>
      <!-- (middle) -->
      <g style="fill: #262626" transform="translate(433.346322 260.994687) scale(0.07 -0.07)">
       <use xlink:href="#STIXTwoText-28"/>
       <use xlink:href="#STIXTwoText-6d" transform="translate(34.299988 0)"/>
       <use xlink:href="#STIXTwoText-69" transform="translate(119.499969 0)"/>
       <use xlink:href="#STIXTwoText-64" transform="translate(147.999954 0)"/>
       <use xlink:href="#STIXTwoText-64" transform="translate(201.899948 0)"/>
       <use xlink:href="#STIXTwoText-6c" transform="translate(255.799942 0)"/>
       <use xlink:href="#STIXTwoText-65" transform="translate(284.09993 0)"/>
       <use xlink:href="#STIXTwoText-29" transform="translate(330.499924 0)"/>
      </g>
     </g>
    </g>
    <g id="xtick_10">
     <g id="line2d_20">
      <path d="M 484.031491 239.08325 
L 484.031491 20.5 
" clip-path="url(#pa180e86224)" style="fill: none; stroke: #dddddd; stroke-width: 0.6; stroke-linecap: round"/>
     </g>
     <g id="text_28">
      <!-- +transform -->
      <g style="fill: #262626" transform="translate(466.814772 253.524812) scale(0.07 -0.07)">
       <use xlink:href="#STIXTwoText-2b"/>
       <use xlink:href="#STIXTwoText-74" transform="translate(71.999985 0)"/>
       <use xlink:href="#STIXTwoText-72" transform="translate(103.499969 0)"/>
       <use xlink:href="#STIXTwoText-61" transform="translate(141.499954 0)"/>
       <use xlink:href="#STIXTwoText-6e" transform="translate(189.499939 0)"/>
       <use xlink:href="#STIXTwoText-73" transform="translate(247.09993 0)"/>
       <use xlink:href="#STIXTwoText-66" transform="translate(286.599915 0)"/>
       <use xlink:href="#STIXTwoText-6f" transform="translate(317.299911 0)"/>
       <use xlink:href="#STIXTwoText-72" transform="translate(368.699905 0)"/>
       <use xlink:href="#STIXTwoText-6d" transform="translate(406.69989 0)"/>
      </g>
      <!-- (linear) -->
      <g style="fill: #262626" transform="translate(472.992819 260.994687) scale(0.07 -0.07)">
       <use xlink:href="#STIXTwoText-28"/>
       <use xlink:href="#STIXTwoText-6c" transform="translate(34.299988 0)"/>
       <use xlink:href="#STIXTwoText-69" transform="translate(62.599976 0)"/>
       <use xlink:href="#STIXTwoText-6e" transform="translate(91.09996 0)"/>
       <use xlink:href="#STIXTwoText-65" transform="translate(148.699951 0)"/>
       <use xlink:href="#STIXTwoText-61" transform="translate(195.099945 0)"/>
       <use xlink:href="#STIXTwoText-72" transform="translate(243.09993 0)"/>
       <use xlink:href="#STIXTwoText-29" transform="translate(281.099915 0)"/>
      </g>
     </g>
    </g>
    <g id="xtick_11">
     <g id="line2d_21">
      <path d="M 521.948223 239.08325 
L 521.948223 20.5 
" clip-path="url(#pa180e86224)" style="fill: none; stroke: #dddddd; stroke-width: 0.6; stroke-linecap: round"/>
     </g>
     <g id="text_29">
      <!-- centered -->
      <g style="fill: #262626" transform="translate(509.179785 253.524812) scale(0.07 -0.07)">
       <use xlink:href="#STIXTwoText-63"/>
       <use xlink:href="#STIXTwoText-65" transform="translate(44.599991 0)"/>
       <use xlink:href="#STIXTwoText-6e" transform="translate(90.999985 0)"/>
       <use xlink:href="#STIXTwoText-74" transform="translate(148.599976 0)"/>
       <use xlink:href="#STIXTwoText-65" transform="translate(180.09996 0)"/>
       <use xlink:href="#STIXTwoText-72" transform="translate(226.499954 0)"/>
       <use xlink:href="#STIXTwoText-65" transform="translate(264.499939 0)"/>
       <use xlink:href="#STIXTwoText-64" transform="translate(310.899933 0)"/>
      </g>
      <!-- (all, dense) -->
      <g style="fill: #262626" transform="translate(505.673223 260.994687) scale(0.07 -0.07)">
       <use xlink:href="#STIXTwoText-28"/>
       <use xlink:href="#STIXTwoText-61" transform="translate(34.299988 0)"/>
       <use xlink:href="#STIXTwoText-6c" transform="translate(82.299973 0)"/>
       <use xlink:href="#STIXTwoText-6c" transform="translate(110.59996 0)"/>
       <use xlink:href="#STIXTwoText-2c" transform="translate(138.899948 0)"/>
       <use xlink:href="#STIXTwoText-20" transform="translate(163.399933 0)"/>
       <use xlink:href="#STIXTwoText-64" transform="translate(186.899918 0)"/>
       <use xlink:href="#STIXTwoText-65" transform="translate(240.799911 0)"/>
       <use xlink:href="#STIXTwoText-6e" transform="translate(287.199905 0)"/>
       <use xlink:href="#STIXTwoText-73" transform="translate(344.799896 0)"/>
       <use xlink:href="#STIXTwoText-65" transform="translate(384.299881 0)"/>
       <use xlink:href="#STIXTwoText-29" transform="translate(430.699875 0)"/>
      </g>
     </g>
    </g>
    <g id="xtick_12">
     <g id="line2d_22">
      <path d="M 559.864955 239.08325 
L 559.864955 20.5 
" clip-path="url(#pa180e86224)" style="fill: none; stroke: #dddddd; stroke-width: 0.6; stroke-linecap: round"/>
     </g>
     <g id="text_30">
      <!-- centered -->
      <g style="fill: #262626" transform="translate(547.096517 253.524812) scale(0.07 -0.07)">
       <use xlink:href="#STIXTwoText-63"/>
       <use xlink:href="#STIXTwoText-65" transform="translate(44.599991 0)"/>
       <use xlink:href="#STIXTwoText-6e" transform="translate(90.999985 0)"/>
       <use xlink:href="#STIXTwoText-74" transform="translate(148.599976 0)"/>
       <use xlink:href="#STIXTwoText-65" transform="translate(180.09996 0)"/>
       <use xlink:href="#STIXTwoText-72" transform="translate(226.499954 0)"/>
       <use xlink:href="#STIXTwoText-65" transform="translate(264.499939 0)"/>
       <use xlink:href="#STIXTwoText-64" transform="translate(310.899933 0)"/>
      </g>
      <!-- (Mamba) -->
      <g style="fill: #262626" transform="translate(546.162455 260.994687) scale(0.07 -0.07)">
       <use xlink:href="#STIXTwoText-28"/>
       <use xlink:href="#STIXTwoText-4d" transform="translate(34.299988 0)"/>
       <use xlink:href="#STIXTwoText-61" transform="translate(123.799973 0)"/>
       <use xlink:href="#STIXTwoText-6d" transform="translate(171.799957 0)"/>
       <use xlink:href="#STIXTwoText-62" transform="translate(256.999939 0)"/>
       <use xlink:href="#STIXTwoText-61" transform="translate(309.199936 0)"/>
       <use xlink:href="#STIXTwoText-29" transform="translate(357.199921 0)"/>
      </g>
     </g>
    </g>
   </g>
   <g id="matplotlib.axis_4">
    <g id="ytick_10">
     <g id="line2d_23">
      <path d="M 344.11875 239.08325 
L 586.0275 239.08325 
" clip-path="url(#pa180e86224)" style="fill: none; stroke: #dddddd; stroke-width: 0.6; stroke-linecap: round"/>
     </g>
     <g id="text_31">
      <!-- 0 -->
      <g style="fill: #262626" transform="translate(330.41125 242.083484) scale(0.085 -0.085)">
       <use xlink:href="#STIXTwoText-30"/>
      </g>
     </g>
    </g>
    <g id="ytick_11">
     <g id="line2d_24">
      <path d="M 344.11875 198.715881 
L 586.0275 198.715881 
" clip-path="url(#pa180e86224)" style="fill: none; stroke: #dddddd; stroke-width: 0.6; stroke-linecap: round"/>
     </g>
     <g id="text_32">
      <!-- 200 -->
      <g style="fill: #262626" transform="translate(321.99625 201.716115) scale(0.085 -0.085)">
       <use xlink:href="#STIXTwoText-32"/>
       <use xlink:href="#STIXTwoText-30" transform="translate(49.499985 0)"/>
       <use xlink:href="#STIXTwoText-30" transform="translate(98.999969 0)"/>
      </g>
     </g>
    </g>
    <g id="ytick_12">
     <g id="line2d_25">
      <path d="M 344.11875 158.348511 
L 586.0275 158.348511 
" clip-path="url(#pa180e86224)" style="fill: none; stroke: #dddddd; stroke-width: 0.6; stroke-linecap: round"/>
     </g>
     <g id="text_33">
      <!-- 400 -->
      <g style="fill: #262626" transform="translate(321.99625 161.348746) scale(0.085 -0.085)">
       <use xlink:href="#STIXTwoText-34"/>
       <use xlink:href="#STIXTwoText-30" transform="translate(49.499985 0)"/>
       <use xlink:href="#STIXTwoText-30" transform="translate(98.999969 0)"/>
      </g>
     </g>
    </g>
    <g id="ytick_13">
     <g id="line2d_26">
      <path d="M 344.11875 117.981142 
L 586.0275 117.981142 
" clip-path="url(#pa180e86224)" style="fill: none; stroke: #dddddd; stroke-width: 0.6; stroke-linecap: round"/>
     </g>
     <g id="text_34">
      <!-- 600 -->
      <g style="fill: #262626" transform="translate(321.99625 120.981376) scale(0.085 -0.085)">
       <use xlink:href="#STIXTwoText-36"/>
       <use xlink:href="#STIXTwoText-30" transform="translate(49.499985 0)"/>
       <use xlink:href="#STIXTwoText-30" transform="translate(98.999969 0)"/>
      </g>
     </g>
    </g>
    <g id="ytick_14">
     <g id="line2d_27">
      <path d="M 344.11875 77.613773 
L 586.0275 77.613773 
" clip-path="url(#pa180e86224)" style="fill: none; stroke: #dddddd; stroke-width: 0.6; stroke-linecap: round"/>
     </g>
     <g id="text_35">
      <!-- 800 -->
      <g style="fill: #262626" transform="translate(321.99625 80.614007) scale(0.085 -0.085)">
       <use xlink:href="#STIXTwoText-38"/>
       <use xlink:href="#STIXTwoText-30" transform="translate(49.499985 0)"/>
       <use xlink:href="#STIXTwoText-30" transform="translate(98.999969 0)"/>
      </g>
     </g>
    </g>
    <g id="ytick_15">
     <g id="line2d_28">
      <path d="M 344.11875 37.246403 
L 586.0275 37.246403 
" clip-path="url(#pa180e86224)" style="fill: none; stroke: #dddddd; stroke-width: 0.6; stroke-linecap: round"/>
     </g>
     <g id="text_36">
      <!-- 1000 -->
      <g style="fill: #262626" transform="translate(317.78875 40.246638) scale(0.085 -0.085)">
       <use xlink:href="#STIXTwoText-31"/>
       <use xlink:href="#STIXTwoText-30" transform="translate(49.499985 0)"/>
       <use xlink:href="#STIXTwoText-30" transform="translate(98.999969 0)"/>
       <use xlink:href="#STIXTwoText-30" transform="translate(148.499954 0)"/>
      </g>
     </g>
    </g>
    <g id="text_37">
     <!-- deployed CVaR$_{95}$ (m/s, over captures) -->
     <g style="fill: #262626" transform="translate(311.50875 205.839125) rotate(-90) scale(0.095 -0.095)">
      <defs>
       <path id="STIXTwoText-56" d="M 2330 -32 
L 2074 -32 
L 608 3430 
Q 518 3648 428 3773 
Q 339 3898 224 3955 
Q 109 4013 -64 4013 
L -64 4205 
L 1651 4205 
L 1651 4013 
Q 1568 4013 1465 4000 
Q 1363 3987 1289 3939 
Q 1216 3891 1216 3770 
Q 1216 3642 1325 3379 
L 2099 1478 
L 2349 806 
L 2381 806 
L 2605 1446 
L 3411 3482 
Q 3443 3552 3462 3632 
Q 3482 3712 3482 3795 
Q 3482 3923 3379 3968 
Q 3277 4013 3053 4013 
L 3053 4205 
L 4397 4205 
L 4397 4013 
Q 4262 4013 4169 3984 
Q 4077 3955 4003 3868 
Q 3930 3782 3846 3616 
Q 3763 3450 3648 3181 
L 2330 -32 
z
" transform="scale(0.015625)"/>
       <path id="STIXTwoText-52" d="M 2074 0 
L 275 0 
L 275 192 
Q 518 192 640 230 
Q 762 269 803 397 
Q 845 525 845 794 
L 845 3539 
Q 845 3718 809 3820 
Q 774 3923 652 3968 
Q 531 4013 275 4013 
L 275 4205 
L 1850 4205 
Q 2330 4205 2704 4112 
Q 3078 4019 3289 3792 
Q 3501 3565 3501 3155 
Q 3501 2797 3337 2573 
Q 3174 2349 2928 2224 
Q 2682 2099 2419 2035 
L 2419 2010 
Q 2528 1946 2665 1789 
Q 2803 1632 3020 1328 
Q 3238 1024 3590 518 
Q 3744 307 3888 249 
Q 4032 192 4250 192 
L 4250 0 
L 3194 0 
Q 2931 397 2755 662 
Q 2579 928 2457 1110 
Q 2336 1293 2240 1433 
Q 2144 1574 2048 1715 
Q 1952 1862 1872 1894 
Q 1792 1926 1619 1926 
L 1440 1926 
L 1440 794 
Q 1440 531 1485 400 
Q 1530 269 1664 230 
Q 1798 192 2074 192 
L 2074 0 
z
M 1440 2176 
L 1683 2170 
Q 2035 2189 2297 2285 
Q 2560 2381 2707 2585 
Q 2854 2790 2854 3130 
Q 2854 3514 2617 3734 
Q 2381 3955 1862 3955 
Q 1760 3955 1651 3952 
Q 1542 3949 1440 3936 
L 1440 2176 
z
" transform="scale(0.015625)"/>
       <path id="STIXGeneral-Regular-39" d="M 378 -141 
L 358 -13 
Q 1094 115 1603 608 
Q 2112 1101 2304 1882 
Q 1933 1517 1344 1517 
Q 826 1517 509 1875 
Q 192 2234 192 2816 
Q 192 3462 573 3894 
Q 954 4326 1523 4326 
Q 2131 4326 2528 3840 
Q 2938 3328 2938 2522 
Q 2938 1958 2742 1462 
Q 2547 966 2170 621 
Q 1773 262 1395 105 
Q 1018 -51 378 -141 
z
M 2317 2272 
L 2317 2522 
Q 2317 4147 1472 4147 
Q 1171 4147 1005 3930 
Q 909 3802 845 3546 
Q 781 3290 781 3034 
Q 781 2464 995 2128 
Q 1210 1792 1568 1792 
Q 1824 1792 2070 1917 
Q 2317 2042 2317 2272 
z
" transform="scale(0.015625)"/>
       <path id="STIXGeneral-Regular-35" d="M 2803 4358 
L 2573 3814 
Q 2534 3731 2400 3731 
L 1158 3731 
L 902 3187 
Q 1606 3053 1920 2896 
Q 2234 2739 2502 2368 
Q 2726 2061 2726 1555 
Q 2726 1094 2576 780 
Q 2426 467 2099 224 
Q 1664 -90 1011 -90 
Q 646 -90 422 19 
Q 198 128 198 307 
Q 198 550 486 550 
Q 717 550 960 352 
Q 1210 147 1414 147 
Q 1747 147 2012 480 
Q 2278 813 2278 1229 
Q 2278 1843 1850 2189 
Q 1293 2637 486 2637 
Q 410 2637 410 2688 
L 416 2720 
L 1114 4237 
L 2438 4237 
Q 2547 4237 2608 4269 
Q 2669 4301 2746 4403 
L 2803 4358 
z
" transform="scale(0.015625)"/>
       <path id="STIXTwoText-76" d="M 1696 -38 
L 1389 -38 
L 435 2374 
Q 352 2573 288 2672 
Q 224 2771 141 2806 
Q 58 2842 -83 2842 
L -83 3027 
L 1267 3027 
L 1267 2842 
Q 1082 2842 1008 2800 
Q 934 2758 934 2682 
Q 934 2618 953 2560 
Q 973 2502 998 2432 
L 1542 1005 
L 1664 621 
L 1702 621 
L 1837 1011 
L 2387 2458 
Q 2394 2483 2413 2537 
Q 2432 2592 2432 2669 
Q 2432 2778 2336 2810 
Q 2240 2842 2067 2842 
L 2067 3027 
L 3187 3027 
L 3187 2842 
Q 3002 2842 2902 2755 
Q 2803 2669 2707 2419 
L 1696 -38 
z
" transform="scale(0.015625)"/>
      </defs>
      <use xlink:href="#STIXTwoText-64"/>
      <use xlink:href="#STIXTwoText-65" transform="translate(53.899994 0)"/>
      <use xlink:href="#STIXTwoText-70" transform="translate(100.299988 0)"/>
      <use xlink:href="#STIXTwoText-6c" transform="translate(153.999985 0)"/>
      <use xlink:href="#STIXTwoText-6f" transform="translate(182.299973 0)"/>
      <use xlink:href="#STIXTwoText-79" transform="translate(233.699966 0)"/>
      <use xlink:href="#STIXTwoText-65" transform="translate(281.999954 0)"/>
      <use xlink:href="#STIXTwoText-64" transform="translate(328.399948 0)"/>
      <use xlink:href="#STIXTwoText-20" transform="translate(382.299942 0)"/>
      <use xlink:href="#STIXTwoText-43" transform="translate(405.799927 0)"/>
      <use xlink:href="#STIXTwoText-56" transform="translate(472.799911 0)"/>
      <use xlink:href="#STIXTwoText-61" transform="translate(540.799896 0)"/>
      <use xlink:href="#STIXTwoText-52" transform="translate(588.799881 0)"/>
      <use xlink:href="#STIXGeneral-Regular-39" transform="translate(656.243156 -13.228125) scale(0.7)"/>
      <use xlink:href="#STIXGeneral-Regular-35" transform="translate(691.243145 -13.228125) scale(0.7)"/>
      <use xlink:href="#STIXTwoText-20" transform="translate(730.65251 0)"/>
      <use xlink:href="#STIXTwoText-28" transform="translate(754.152495 0)"/>
      <use xlink:href="#STIXTwoText-6d" transform="translate(788.452482 0)"/>
      <use xlink:href="#STIXTwoText-2f" transform="translate(873.652464 0)"/>
      <use xlink:href="#STIXTwoText-73" transform="translate(912.352461 0)"/>
      <use xlink:href="#STIXTwoText-2c" transform="translate(951.852446 0)"/>
      <use xlink:href="#STIXTwoText-20" transform="translate(976.35243 0)"/>
      <use xlink:href="#STIXTwoText-6f" transform="translate(999.852415 0)"/>
      <use xlink:href="#STIXTwoText-76" transform="translate(1051.252409 0)"/>
      <use xlink:href="#STIXTwoText-65" transform="translate(1099.3524 0)"/>
      <use xlink:href="#STIXTwoText-72" transform="translate(1145.752394 0)"/>
      <use xlink:href="#STIXTwoText-20" transform="translate(1183.752379 0)"/>
      <use xlink:href="#STIXTwoText-63" transform="translate(1207.252363 0)"/>
      <use xlink:href="#STIXTwoText-61" transform="translate(1251.852354 0)"/>
      <use xlink:href="#STIXTwoText-70" transform="translate(1299.852339 0)"/>
      <use xlink:href="#STIXTwoText-74" transform="translate(1353.552336 0)"/>
      <use xlink:href="#STIXTwoText-75" transform="translate(1385.052321 0)"/>
      <use xlink:href="#STIXTwoText-72" transform="translate(1442.052305 0)"/>
      <use xlink:href="#STIXTwoText-65" transform="translate(1480.05229 0)"/>
      <use xlink:href="#STIXTwoText-73" transform="translate(1526.452284 0)"/>
      <use xlink:href="#STIXTwoText-29" transform="translate(1565.952269 0)"/>
     </g>
    </g>
   </g>
   <g id="patch_14">
    <path d="M 355.114602 239.08325 
L 385.447988 239.08325 
L 385.447988 30.908726 
L 355.114602 30.908726 
z
" clip-path="url(#pa180e86224)" style="fill: #c44e52; stroke: #ffffff; stroke-linejoin: miter"/>
   </g>
   <g id="patch_15">
    <path d="M 393.031334 239.08325 
L 423.36472 239.08325 
L 423.36472 133.518542 
L 393.031334 133.518542 
z
" clip-path="url(#pa180e86224)" style="fill: #4c72b0; stroke: #ffffff; stroke-linejoin: miter"/>
   </g>
   <g id="patch_16">
    <path d="M 430.948066 239.08325 
L 461.281452 239.08325 
L 461.281452 146.627846 
L 430.948066 146.627846 
z
" clip-path="url(#pa180e86224)" style="fill: #4c72b0; stroke: #ffffff; stroke-linejoin: miter"/>
   </g>
   <g id="patch_17">
    <path d="M 468.864798 239.08325 
L 499.198184 239.08325 
L 499.198184 110.184185 
L 468.864798 110.184185 
z
" clip-path="url(#pa180e86224)" style="fill: #4c72b0; stroke: #ffffff; stroke-linejoin: miter"/>
   </g>
   <g id="patch_18">
    <path d="M 506.78153 239.08325 
L 537.114916 239.08325 
L 537.114916 183.461052 
L 506.78153 183.461052 
z
" clip-path="url(#pa180e86224)" style="fill: #55a868; stroke: #ffffff; stroke-linejoin: miter"/>
   </g>
   <g id="patch_19">
    <path d="M 544.698262 239.08325 
L 575.031648 239.08325 
L 575.031648 184.022158 
L 544.698262 184.022158 
z
" clip-path="url(#pa180e86224)" style="fill: #55a868; stroke: #ffffff; stroke-linejoin: miter"/>
   </g>
   <g id="line2d_29">
    <path d="M 344.11875 153.486262 
L 586.0275 153.486262 
" clip-path="url(#pa180e86224)" style="fill: none; stroke-dasharray: 3.7,1.6; stroke-dashoffset: 0; stroke: #666666"/>
   </g>
   <g id="patch_20">
    <path d="M 344.11875 239.08325 
L 344.11875 20.5 
" style="fill: none; stroke: #bbbbbb; stroke-width: 0.8; stroke-linejoin: miter; stroke-linecap: square"/>
   </g>
   <g id="patch_21">
    <path d="M 586.0275 239.08325 
L 586.0275 20.5 
" style="fill: none; stroke: #bbbbbb; stroke-width: 0.8; stroke-linejoin: miter; stroke-linecap: square"/>
   </g>
   <g id="patch_22">
    <path d="M 344.11875 239.08325 
L 586.0275 239.08325 
" style="fill: none; stroke: #bbbbbb; stroke-width: 0.8; stroke-linejoin: miter; stroke-linecap: square"/>
   </g>
   <g id="patch_23">
    <path d="M 344.11875 20.5 
L 586.0275 20.5 
" style="fill: none; stroke: #bbbbbb; stroke-width: 0.8; stroke-linejoin: miter; stroke-linecap: square"/>
   </g>
   <g id="text_38">
    <!-- 1031 -->
    <g style="fill: #262626" transform="translate(363.351295 27.754031) scale(0.07 -0.07)">
     <use xlink:href="#STIXTwoText-31"/>
     <use xlink:href="#STIXTwoText-30" transform="translate(49.499985 0)"/>
     <use xlink:href="#STIXTwoText-33" transform="translate(98.999969 0)"/>
     <use xlink:href="#STIXTwoText-31" transform="translate(148.499954 0)"/>
    </g>
   </g>
   <g id="text_39">
    <!-- 523 -->
    <g style="fill: #262626" transform="translate(403.000527 130.363848) scale(0.07 -0.07)">
     <use xlink:href="#STIXTwoText-35"/>
     <use xlink:href="#STIXTwoText-32" transform="translate(49.499985 0)"/>
     <use xlink:href="#STIXTwoText-33" transform="translate(98.999969 0)"/>
    </g>
   </g>
   <g id="text_40">
    <!-- 458 -->
    <g style="fill: #262626" transform="translate(440.917259 143.473151) scale(0.07 -0.07)">
     <use xlink:href="#STIXTwoText-34"/>
     <use xlink:href="#STIXTwoText-35" transform="translate(49.499985 0)"/>
     <use xlink:href="#STIXTwoText-38" transform="translate(98.999969 0)"/>
    </g>
   </g>
   <g id="text_41">
    <!-- 639 -->
    <g style="fill: #262626" transform="translate(478.833991 107.02949) scale(0.07 -0.07)">
     <use xlink:href="#STIXTwoText-36"/>
     <use xlink:href="#STIXTwoText-33" transform="translate(49.499985 0)"/>
     <use xlink:href="#STIXTwoText-39" transform="translate(98.999969 0)"/>
    </g>
   </g>
   <g id="text_42">
    <!-- 276 -->
    <g style="fill: #262626" transform="translate(516.750723 180.306357) scale(0.07 -0.07)">
     <use xlink:href="#STIXTwoText-32"/>
     <use xlink:href="#STIXTwoText-37" transform="translate(49.499985 0)"/>
     <use xlink:href="#STIXTwoText-36" transform="translate(98.999969 0)"/>
    </g>
   </g>
   <g id="text_43">
    <!-- 273 -->
    <g style="fill: #262626" transform="translate(554.667455 180.867463) scale(0.07 -0.07)">
     <use xlink:href="#STIXTwoText-32"/>
     <use xlink:href="#STIXTwoText-37" transform="translate(49.499985 0)"/>
     <use xlink:href="#STIXTwoText-33" transform="translate(98.999969 0)"/>
    </g>
   </g>
   <g id="text_44">
    <!--  joint-FTC 424 -->
    <g style="fill: #666666" transform="translate(536.235977 151.841262) scale(0.07 -0.07)">
     <use xlink:href="#STIXTwoText-20"/>
     <use xlink:href="#STIXTwoText-6a" transform="translate(23.499985 0)"/>
     <use xlink:href="#STIXTwoText-6f" transform="translate(49.799973 0)"/>
     <use xlink:href="#STIXTwoText-69" transform="translate(101.199966 0)"/>
     <use xlink:href="#STIXTwoText-6e" transform="translate(129.699951 0)"/>
     <use xlink:href="#STIXTwoText-74" transform="translate(187.299942 0)"/>
     <use xlink:href="#STIXTwoText-2d" transform="translate(218.799927 0)"/>
     <use xlink:href="#STIXTwoText-46" transform="translate(250.299911 0)"/>
     <use xlink:href="#STIXTwoText-54" transform="translate(309.099899 0)"/>
     <use xlink:href="#STIXTwoText-43" transform="translate(369.399887 0)"/>
     <use xlink:href="#STIXTwoText-20" transform="translate(436.399872 0)"/>
     <use xlink:href="#STIXTwoText-34" transform="translate(459.899857 0)"/>
     <use xlink:href="#STIXTwoText-32" transform="translate(509.399841 0)"/>
     <use xlink:href="#STIXTwoText-34" transform="translate(558.899826 0)"/>
    </g>
   </g>
   <g id="text_45">
    <!-- Off-nominal correction-DV tail -->
    <g style="fill: #262626" transform="translate(344.11875 14.5) scale(0.1 -0.1)">
     <defs>
      <path id="STIXTwoText-44" d="M 2054 0 
L 224 0 
L 224 192 
Q 506 192 640 233 
Q 774 275 812 406 
Q 851 538 851 794 
L 851 3475 
Q 851 3712 793 3824 
Q 736 3936 601 3974 
Q 467 4013 224 4013 
L 224 4205 
L 1984 4205 
Q 2483 4205 2915 4099 
Q 3347 3994 3667 3750 
Q 3987 3507 4169 3110 
Q 4352 2714 4352 2125 
Q 4352 1574 4189 1171 
Q 4026 768 3722 509 
Q 3418 250 2995 125 
Q 2573 0 2054 0 
z
M 1818 243 
Q 2400 243 2816 400 
Q 3232 557 3456 953 
Q 3680 1350 3680 2067 
Q 3680 2982 3213 3462 
Q 2746 3942 1754 3942 
Q 1677 3942 1603 3942 
Q 1530 3942 1440 3930 
L 1440 262 
Q 1536 256 1629 249 
Q 1722 243 1818 243 
z
" transform="scale(0.015625)"/>
     </defs>
     <use xlink:href="#STIXTwoText-4f"/>
     <use xlink:href="#STIXTwoText-66" transform="translate(73.699982 0)"/>
     <use xlink:href="#STIXTwoText-66" transform="translate(104.399979 0)"/>
     <use xlink:href="#STIXTwoText-2d" transform="translate(135.099976 0)"/>
     <use xlink:href="#STIXTwoText-6e" transform="translate(166.59996 0)"/>
     <use xlink:href="#STIXTwoText-6f" transform="translate(224.199951 0)"/>
     <use xlink:href="#STIXTwoText-6d" transform="translate(275.599945 0)"/>
     <use xlink:href="#STIXTwoText-69" transform="translate(360.799927 0)"/>
     <use xlink:href="#STIXTwoText-6e" transform="translate(389.299911 0)"/>
     <use xlink:href="#STIXTwoText-61" transform="translate(446.899902 0)"/>
     <use xlink:href="#STIXTwoText-6c" transform="translate(494.899887 0)"/>
     <use xlink:href="#STIXTwoText-20" transform="translate(523.199875 0)"/>
     <use xlink:href="#STIXTwoText-63" transform="translate(546.69986 0)"/>
     <use xlink:href="#STIXTwoText-6f" transform="translate(591.29985 0)"/>
     <use xlink:href="#STIXTwoText-72" transform="translate(642.699844 0)"/>
     <use xlink:href="#STIXTwoText-72" transform="translate(680.699829 0)"/>
     <use xlink:href="#STIXTwoText-65" transform="translate(718.699814 0)"/>
     <use xlink:href="#STIXTwoText-63" transform="translate(765.099808 0)"/>
     <use xlink:href="#STIXTwoText-74" transform="translate(809.699799 0)"/>
     <use xlink:href="#STIXTwoText-69" transform="translate(841.199783 0)"/>
     <use xlink:href="#STIXTwoText-6f" transform="translate(869.699768 0)"/>
     <use xlink:href="#STIXTwoText-6e" transform="translate(921.099762 0)"/>
     <use xlink:href="#STIXTwoText-2d" transform="translate(978.699753 0)"/>
     <use xlink:href="#STIXTwoText-44" transform="translate(1010.199738 0)"/>
     <use xlink:href="#STIXTwoText-56" transform="translate(1083.199722 0)"/>
     <use xlink:href="#STIXTwoText-20" transform="translate(1151.199707 0)"/>
     <use xlink:href="#STIXTwoText-74" transform="translate(1174.699692 0)"/>
     <use xlink:href="#STIXTwoText-61" transform="translate(1206.199677 0)"/>
     <use xlink:href="#STIXTwoText-69" transform="translate(1254.199661 0)"/>
     <use xlink:href="#STIXTwoText-6c" transform="translate(1282.699646 0)"/>
    </g>
   </g>
  </g>
 </g>
 <defs>
  <clipPath id="pb9c59bc120">
   <rect x="48.78" y="20.5" width="241.90875" height="218.58325"/>
  </clipPath>
  <clipPath id="pa180e86224">
   <rect x="344.11875" y="20.5" width="241.90875" height="218.58325"/>
  </clipPath>
 </defs>
</svg>
