<?xml version="1.0" encoding="utf-8" standalone="no"?>
<!DOCTYPE svg PUBLIC "-//W3C//DTD SVG 1.1//EN"
  "http://www.w3.org/Graphics/SVG/1.1/DTD/svg11.dtd">
<svg xmlns:xlink="http://www.w3.org/1999/xlink" width="535.899539pt" height="261.778687pt" viewBox="0 0 535.899539 261.778687" xmlns="http://www.w3.org/2000/svg" version="1.1">
 <metadata>
  <rdf:RDF xmlns:dc="http://purl.org/dc/elements/1.1/" xmlns:cc="http://creativecommons.org/ns#" xmlns:rdf="http://www.w3.org/1999/02/22-rdf-syntax-ns#">
   <cc:Work>
    <dc:type rdf:resource="http://purl.org/dc/dcmitype/StillImage"/>
    <dc:date>2026-06-27T12:41:18.382250</dc:date>
    <dc:format>image/svg+xml</dc:format>
    <dc:creator>
     <cc:Agent>
      <dc:title>Matplotlib v3.10.9, https://matplotlib.org/</dc:title>
     </cc:Agent>
    </dc:creator>
   </cc:Work>
  </rdf:RDF>
 </metadata>
 <defs>
  <style type="text/css">*{stroke-linejoin: round; stroke-linecap: butt}</style>
 </defs>
 <g id="figure_1">
  <g id="patch_1">
   <path d="M 0 261.778687 
L 535.899539 261.778687 
L 535.899539 0 
L 0 0 
z
" style="fill: #ffffff"/>
  </g>
  <g id="axes_1">
   <g id="patch_2">
    <path d="M 48.963539 235.399375 
L 528.699539 235.399375 
L 528.699539 31.344375 
L 48.963539 31.344375 
z
" style="fill: #f5f5f5"/>
   </g>
   <g id="matplotlib.axis_1">
    <g id="xtick_1">
     <g id="line2d_1">
      <path d="M 136.785393 235.399375 
L 136.785393 31.344375 
" clip-path="url(#pe9733cdc9e)" style="fill: none; stroke: #cccccc; stroke-linecap: round"/>
     </g>
     <g id="text_1">
      <!-- FTC -->
      <g style="fill: #262626" transform="translate(126.629299 252.379289) scale(0.1045 -0.1045)">
       <defs>
        <path id="ArialMT-46" d="M 525 0 
L 525 4581 
L 3616 4581 
L 3616 4041 
L 1131 4041 
L 1131 2622 
L 3281 2622 
L 3281 2081 
L 1131 2081 
L 1131 0 
L 525 0 
z
" transform="scale(0.015625)"/>
        <path id="ArialMT-54" d="M 1659 0 
L 1659 4041 
L 150 4041 
L 150 4581 
L 3781 4581 
L 3781 4041 
L 2266 4041 
L 2266 0 
L 1659 0 
z
" transform="scale(0.015625)"/>
        <path id="ArialMT-43" d="M 3763 1606 
L 4369 1453 
Q 4178 706 3683 314 
Q 3188 -78 2472 -78 
Q 1731 -78 1267 223 
Q 803 525 561 1097 
Q 319 1669 319 2325 
Q 319 3041 592 3573 
Q 866 4106 1370 4382 
Q 1875 4659 2481 4659 
Q 3169 4659 3637 4309 
Q 4106 3959 4291 3325 
L 3694 3184 
Q 3534 3684 3231 3912 
Q 2928 4141 2469 4141 
Q 1941 4141 1586 3887 
Q 1231 3634 1087 3207 
Q 944 2781 944 2328 
Q 944 1744 1114 1308 
Q 1284 872 1643 656 
Q 2003 441 2422 441 
Q 2931 441 3284 734 
Q 3638 1028 3763 1606 
z
" transform="scale(0.015625)"/>
       </defs>
       <use xlink:href="#ArialMT-46"/>
       <use xlink:href="#ArialMT-54" transform="translate(61.083984 0)"/>
       <use xlink:href="#ArialMT-43" transform="translate(122.167969 0)"/>
      </g>
     </g>
    </g>
    <g id="xtick_2">
     <g id="line2d_2">
      <path d="M 288.831539 235.399375 
L 288.831539 31.344375 
" clip-path="url(#pe9733cdc9e)" style="fill: none; stroke: #cccccc; stroke-linecap: round"/>
     </g>
     <g id="text_2">
      <!-- Energy ctrl -->
      <g style="fill: #262626" transform="translate(263.860938 252.379289) scale(0.1045 -0.1045)">
       <defs>
        <path id="ArialMT-45" d="M 506 0 
L 506 4581 
L 3819 4581 
L 3819 4041 
L 1113 4041 
L 1113 2638 
L 3647 2638 
L 3647 2100 
L 1113 2100 
L 1113 541 
L 3925 541 
L 3925 0 
L 506 0 
z
" transform="scale(0.015625)"/>
        <path id="ArialMT-6e" d="M 422 0 
L 422 3319 
L 928 3319 
L 928 2847 
Q 1294 3394 1984 3394 
Q 2284 3394 2536 3286 
Q 2788 3178 2913 3003 
Q 3038 2828 3088 2588 
Q 3119 2431 3119 2041 
L 3119 0 
L 2556 0 
L 2556 2019 
Q 2556 2363 2490 2533 
Q 2425 2703 2258 2804 
Q 2091 2906 1866 2906 
Q 1506 2906 1245 2678 
Q 984 2450 984 1813 
L 984 0 
L 422 0 
z
" transform="scale(0.015625)"/>
        <path id="ArialMT-65" d="M 2694 1069 
L 3275 997 
Q 3138 488 2766 206 
Q 2394 -75 1816 -75 
Q 1088 -75 661 373 
Q 234 822 234 1631 
Q 234 2469 665 2931 
Q 1097 3394 1784 3394 
Q 2450 3394 2872 2941 
Q 3294 2488 3294 1666 
Q 3294 1616 3291 1516 
L 816 1516 
Q 847 969 1125 678 
Q 1403 388 1819 388 
Q 2128 388 2347 550 
Q 2566 713 2694 1069 
z
M 847 1978 
L 2700 1978 
Q 2663 2397 2488 2606 
Q 2219 2931 1791 2931 
Q 1403 2931 1139 2672 
Q 875 2413 847 1978 
z
" transform="scale(0.015625)"/>
        <path id="ArialMT-72" d="M 416 0 
L 416 3319 
L 922 3319 
L 922 2816 
Q 1116 3169 1280 3281 
Q 1444 3394 1641 3394 
Q 1925 3394 2219 3213 
L 2025 2691 
Q 1819 2813 1613 2813 
Q 1428 2813 1281 2702 
Q 1134 2591 1072 2394 
Q 978 2094 978 1738 
L 978 0 
L 416 0 
z
" transform="scale(0.015625)"/>
        <path id="ArialMT-67" d="M 319 -275 
L 866 -356 
Q 900 -609 1056 -725 
Q 1266 -881 1628 -881 
Q 2019 -881 2231 -725 
Q 2444 -569 2519 -288 
Q 2563 -116 2559 434 
Q 2191 0 1641 0 
Q 956 0 581 494 
Q 206 988 206 1678 
Q 206 2153 378 2554 
Q 550 2956 876 3175 
Q 1203 3394 1644 3394 
Q 2231 3394 2613 2919 
L 2613 3319 
L 3131 3319 
L 3131 450 
Q 3131 -325 2973 -648 
Q 2816 -972 2473 -1159 
Q 2131 -1347 1631 -1347 
Q 1038 -1347 672 -1080 
Q 306 -813 319 -275 
z
M 784 1719 
Q 784 1066 1043 766 
Q 1303 466 1694 466 
Q 2081 466 2343 764 
Q 2606 1063 2606 1700 
Q 2606 2309 2336 2618 
Q 2066 2928 1684 2928 
Q 1309 2928 1046 2623 
Q 784 2319 784 1719 
z
" transform="scale(0.015625)"/>
        <path id="ArialMT-79" d="M 397 -1278 
L 334 -750 
Q 519 -800 656 -800 
Q 844 -800 956 -737 
Q 1069 -675 1141 -563 
Q 1194 -478 1313 -144 
Q 1328 -97 1363 -6 
L 103 3319 
L 709 3319 
L 1400 1397 
Q 1534 1031 1641 628 
Q 1738 1016 1872 1384 
L 2581 3319 
L 3144 3319 
L 1881 -56 
Q 1678 -603 1566 -809 
Q 1416 -1088 1222 -1217 
Q 1028 -1347 759 -1347 
Q 597 -1347 397 -1278 
z
" transform="scale(0.015625)"/>
        <path id="ArialMT-20" transform="scale(0.015625)"/>
        <path id="ArialMT-63" d="M 2588 1216 
L 3141 1144 
Q 3050 572 2676 248 
Q 2303 -75 1759 -75 
Q 1078 -75 664 370 
Q 250 816 250 1647 
Q 250 2184 428 2587 
Q 606 2991 970 3192 
Q 1334 3394 1763 3394 
Q 2303 3394 2647 3120 
Q 2991 2847 3088 2344 
L 2541 2259 
Q 2463 2594 2264 2762 
Q 2066 2931 1784 2931 
Q 1359 2931 1093 2626 
Q 828 2322 828 1663 
Q 828 994 1084 691 
Q 1341 388 1753 388 
Q 2084 388 2306 591 
Q 2528 794 2588 1216 
z
" transform="scale(0.015625)"/>
        <path id="ArialMT-74" d="M 1650 503 
L 1731 6 
Q 1494 -44 1306 -44 
Q 1000 -44 831 53 
Q 663 150 594 308 
Q 525 466 525 972 
L 525 2881 
L 113 2881 
L 113 3319 
L 525 3319 
L 525 4141 
L 1084 4478 
L 1084 3319 
L 1650 3319 
L 1650 2881 
L 1084 2881 
L 1084 941 
Q 1084 700 1114 631 
Q 1144 563 1211 522 
Q 1278 481 1403 481 
Q 1497 481 1650 503 
z
" transform="scale(0.015625)"/>
        <path id="ArialMT-6c" d="M 409 0 
L 409 4581 
L 972 4581 
L 972 0 
L 409 0 
z
" transform="scale(0.015625)"/>
       </defs>
       <use xlink:href="#ArialMT-45"/>
       <use xlink:href="#ArialMT-6e" transform="translate(66.699219 0)"/>
       <use xlink:href="#ArialMT-65" transform="translate(122.314453 0)"/>
       <use xlink:href="#ArialMT-72" transform="translate(177.929688 0)"/>
       <use xlink:href="#ArialMT-67" transform="translate(211.230469 0)"/>
       <use xlink:href="#ArialMT-79" transform="translate(266.845703 0)"/>
       <use xlink:href="#ArialMT-20" transform="translate(316.845703 0)"/>
       <use xlink:href="#ArialMT-63" transform="translate(344.628906 0)"/>
       <use xlink:href="#ArialMT-74" transform="translate(394.628906 0)"/>
       <use xlink:href="#ArialMT-72" transform="translate(422.412109 0)"/>
       <use xlink:href="#ArialMT-6c" transform="translate(455.712891 0)"/>
      </g>
     </g>
    </g>
    <g id="xtick_3">
     <g id="line2d_3">
      <path d="M 440.877685 235.399375 
L 440.877685 31.344375 
" clip-path="url(#pe9733cdc9e)" style="fill: none; stroke: #cccccc; stroke-linecap: round"/>
     </g>
     <g id="text_3">
      <!-- PredGuid -->
      <g style="fill: #262626" transform="translate(418.805326 252.379289) scale(0.1045 -0.1045)">
       <defs>
        <path id="ArialMT-50" d="M 494 0 
L 494 4581 
L 2222 4581 
Q 2678 4581 2919 4538 
Q 3256 4481 3484 4323 
Q 3713 4166 3852 3881 
Q 3991 3597 3991 3256 
Q 3991 2672 3619 2267 
Q 3247 1863 2275 1863 
L 1100 1863 
L 1100 0 
L 494 0 
z
M 1100 2403 
L 2284 2403 
Q 2872 2403 3119 2622 
Q 3366 2841 3366 3238 
Q 3366 3525 3220 3729 
Q 3075 3934 2838 4000 
Q 2684 4041 2272 4041 
L 1100 4041 
L 1100 2403 
z
" transform="scale(0.015625)"/>
        <path id="ArialMT-64" d="M 2575 0 
L 2575 419 
Q 2259 -75 1647 -75 
Q 1250 -75 917 144 
Q 584 363 401 755 
Q 219 1147 219 1656 
Q 219 2153 384 2558 
Q 550 2963 881 3178 
Q 1213 3394 1622 3394 
Q 1922 3394 2156 3267 
Q 2391 3141 2538 2938 
L 2538 4581 
L 3097 4581 
L 3097 0 
L 2575 0 
z
M 797 1656 
Q 797 1019 1065 703 
Q 1334 388 1700 388 
Q 2069 388 2326 689 
Q 2584 991 2584 1609 
Q 2584 2291 2321 2609 
Q 2059 2928 1675 2928 
Q 1300 2928 1048 2622 
Q 797 2316 797 1656 
z
" transform="scale(0.015625)"/>
        <path id="ArialMT-47" d="M 2638 1797 
L 2638 2334 
L 4578 2338 
L 4578 638 
Q 4131 281 3656 101 
Q 3181 -78 2681 -78 
Q 2006 -78 1454 211 
Q 903 500 622 1047 
Q 341 1594 341 2269 
Q 341 2938 620 3517 
Q 900 4097 1425 4378 
Q 1950 4659 2634 4659 
Q 3131 4659 3532 4498 
Q 3934 4338 4162 4050 
Q 4391 3763 4509 3300 
L 3963 3150 
Q 3859 3500 3706 3700 
Q 3553 3900 3268 4020 
Q 2984 4141 2638 4141 
Q 2222 4141 1919 4014 
Q 1616 3888 1430 3681 
Q 1244 3475 1141 3228 
Q 966 2803 966 2306 
Q 966 1694 1177 1281 
Q 1388 869 1791 669 
Q 2194 469 2647 469 
Q 3041 469 3416 620 
Q 3791 772 3984 944 
L 3984 1797 
L 2638 1797 
z
" transform="scale(0.015625)"/>
        <path id="ArialMT-75" d="M 2597 0 
L 2597 488 
Q 2209 -75 1544 -75 
Q 1250 -75 995 37 
Q 741 150 617 320 
Q 494 491 444 738 
Q 409 903 409 1263 
L 409 3319 
L 972 3319 
L 972 1478 
Q 972 1038 1006 884 
Q 1059 663 1231 536 
Q 1403 409 1656 409 
Q 1909 409 2131 539 
Q 2353 669 2445 892 
Q 2538 1116 2538 1541 
L 2538 3319 
L 3100 3319 
L 3100 0 
L 2597 0 
z
" transform="scale(0.015625)"/>
        <path id="ArialMT-69" d="M 425 3934 
L 425 4581 
L 988 4581 
L 988 3934 
L 425 3934 
z
M 425 0 
L 425 3319 
L 988 3319 
L 988 0 
L 425 0 
z
" transform="scale(0.015625)"/>
       </defs>
       <use xlink:href="#ArialMT-50"/>
       <use xlink:href="#ArialMT-72" transform="translate(66.699219 0)"/>
       <use xlink:href="#ArialMT-65" transform="translate(100 0)"/>
       <use xlink:href="#ArialMT-64" transform="translate(155.615234 0)"/>
       <use xlink:href="#ArialMT-47" transform="translate(211.230469 0)"/>
       <use xlink:href="#ArialMT-75" transform="translate(289.013672 0)"/>
       <use xlink:href="#ArialMT-69" transform="translate(344.628906 0)"/>
       <use xlink:href="#ArialMT-64" transform="translate(366.845703 0)"/>
      </g>
     </g>
    </g>
   </g>
   <g id="matplotlib.axis_2">
    <g id="ytick_1">
     <g id="line2d_4">
      <path d="M 48.963539 235.399375 
L 528.699539 235.399375 
" clip-path="url(#pe9733cdc9e)" style="fill: none; stroke: #cccccc; stroke-linecap: round"/>
     </g>
     <g id="text_4">
      <!-- 0 -->
      <g style="fill: #262626" transform="translate(33.652359 239.139332) scale(0.1045 -0.1045)">
       <defs>
        <path id="ArialMT-30" d="M 266 2259 
Q 266 3072 433 3567 
Q 600 4063 929 4331 
Q 1259 4600 1759 4600 
Q 2128 4600 2406 4451 
Q 2684 4303 2865 4023 
Q 3047 3744 3150 3342 
Q 3253 2941 3253 2259 
Q 3253 1453 3087 958 
Q 2922 463 2592 192 
Q 2263 -78 1759 -78 
Q 1097 -78 719 397 
Q 266 969 266 2259 
z
M 844 2259 
Q 844 1131 1108 757 
Q 1372 384 1759 384 
Q 2147 384 2411 759 
Q 2675 1134 2675 2259 
Q 2675 3391 2411 3762 
Q 2147 4134 1753 4134 
Q 1366 4134 1134 3806 
Q 844 3388 844 2259 
z
" transform="scale(0.015625)"/>
       </defs>
       <use xlink:href="#ArialMT-30"/>
      </g>
     </g>
    </g>
    <g id="ytick_2">
     <g id="line2d_5">
      <path d="M 48.963539 201.374761 
L 528.699539 201.374761 
" clip-path="url(#pe9733cdc9e)" style="fill: none; stroke: #cccccc; stroke-linecap: round"/>
     </g>
     <g id="text_5">
      <!-- 50 -->
      <g style="fill: #262626" transform="translate(27.84118 205.114718) scale(0.1045 -0.1045)">
       <defs>
        <path id="ArialMT-35" d="M 266 1200 
L 856 1250 
Q 922 819 1161 601 
Q 1400 384 1738 384 
Q 2144 384 2425 690 
Q 2706 997 2706 1503 
Q 2706 1984 2436 2262 
Q 2166 2541 1728 2541 
Q 1456 2541 1237 2417 
Q 1019 2294 894 2097 
L 366 2166 
L 809 4519 
L 3088 4519 
L 3088 3981 
L 1259 3981 
L 1013 2750 
Q 1425 3038 1878 3038 
Q 2478 3038 2890 2622 
Q 3303 2206 3303 1553 
Q 3303 931 2941 478 
Q 2500 -78 1738 -78 
Q 1113 -78 717 272 
Q 322 622 266 1200 
z
" transform="scale(0.015625)"/>
       </defs>
       <use xlink:href="#ArialMT-35"/>
       <use xlink:href="#ArialMT-30" transform="translate(55.615234 0)"/>
      </g>
     </g>
    </g>
    <g id="ytick_3">
     <g id="line2d_6">
      <path d="M 48.963539 167.350147 
L 528.699539 167.350147 
" clip-path="url(#pe9733cdc9e)" style="fill: none; stroke: #cccccc; stroke-linecap: round"/>
     </g>
     <g id="text_6">
      <!-- 100 -->
      <g style="fill: #262626" transform="translate(22.03 171.090104) scale(0.1045 -0.1045)">
       <defs>
        <path id="ArialMT-31" d="M 2384 0 
L 1822 0 
L 1822 3584 
Q 1619 3391 1289 3197 
Q 959 3003 697 2906 
L 697 3450 
Q 1169 3672 1522 3987 
Q 1875 4303 2022 4600 
L 2384 4600 
L 2384 0 
z
" transform="scale(0.015625)"/>
       </defs>
       <use xlink:href="#ArialMT-31"/>
       <use xlink:href="#ArialMT-30" transform="translate(55.615234 0)"/>
       <use xlink:href="#ArialMT-30" transform="translate(111.230469 0)"/>
      </g>
     </g>
    </g>
    <g id="ytick_4">
     <g id="line2d_7">
      <path d="M 48.963539 133.325533 
L 528.699539 133.325533 
" clip-path="url(#pe9733cdc9e)" style="fill: none; stroke: #cccccc; stroke-linecap: round"/>
     </g>
     <g id="text_7">
      <!-- 150 -->
      <g style="fill: #262626" transform="translate(22.03 137.065491) scale(0.1045 -0.1045)">
       <use xlink:href="#ArialMT-31"/>
       <use xlink:href="#ArialMT-35" transform="translate(55.615234 0)"/>
       <use xlink:href="#ArialMT-30" transform="translate(111.230469 0)"/>
      </g>
     </g>
    </g>
    <g id="ytick_5">
     <g id="line2d_8">
      <path d="M 48.963539 99.30092 
L 528.699539 99.30092 
" clip-path="url(#pe9733cdc9e)" style="fill: none; stroke: #cccccc; stroke-linecap: round"/>
     </g>
     <g id="text_8">
      <!-- 200 -->
      <g style="fill: #262626" transform="translate(22.03 103.040877) scale(0.1045 -0.1045)">
       <defs>
        <path id="ArialMT-32" d="M 3222 541 
L 3222 0 
L 194 0 
Q 188 203 259 391 
Q 375 700 629 1000 
Q 884 1300 1366 1694 
Q 2113 2306 2375 2664 
Q 2638 3022 2638 3341 
Q 2638 3675 2398 3904 
Q 2159 4134 1775 4134 
Q 1369 4134 1125 3890 
Q 881 3647 878 3216 
L 300 3275 
Q 359 3922 746 4261 
Q 1134 4600 1788 4600 
Q 2447 4600 2831 4234 
Q 3216 3869 3216 3328 
Q 3216 3053 3103 2787 
Q 2991 2522 2730 2228 
Q 2469 1934 1863 1422 
Q 1356 997 1212 845 
Q 1069 694 975 541 
L 3222 541 
z
" transform="scale(0.015625)"/>
       </defs>
       <use xlink:href="#ArialMT-32"/>
       <use xlink:href="#ArialMT-30" transform="translate(55.615234 0)"/>
       <use xlink:href="#ArialMT-30" transform="translate(111.230469 0)"/>
      </g>
     </g>
    </g>
    <g id="ytick_6">
     <g id="line2d_9">
      <path d="M 48.963539 65.276306 
L 528.699539 65.276306 
" clip-path="url(#pe9733cdc9e)" style="fill: none; stroke: #cccccc; stroke-linecap: round"/>
     </g>
     <g id="text_9">
      <!-- 250 -->
      <g style="fill: #262626" transform="translate(22.03 69.016263) scale(0.1045 -0.1045)">
       <use xlink:href="#ArialMT-32"/>
       <use xlink:href="#ArialMT-35" transform="translate(55.615234 0)"/>
       <use xlink:href="#ArialMT-30" transform="translate(111.230469 0)"/>
      </g>
     </g>
    </g>
    <g id="text_10">
     <!-- correction $\Delta v$ (m/s) -->
     <g style="fill: #262626" transform="translate(15.522 181.821875) rotate(-90) scale(0.114 -0.114)">
      <defs>
       <path id="ArialMT-6f" d="M 213 1659 
Q 213 2581 725 3025 
Q 1153 3394 1769 3394 
Q 2453 3394 2887 2945 
Q 3322 2497 3322 1706 
Q 3322 1066 3130 698 
Q 2938 331 2570 128 
Q 2203 -75 1769 -75 
Q 1072 -75 642 372 
Q 213 819 213 1659 
z
M 791 1659 
Q 791 1022 1069 705 
Q 1347 388 1769 388 
Q 2188 388 2466 706 
Q 2744 1025 2744 1678 
Q 2744 2294 2464 2611 
Q 2184 2928 1769 2928 
Q 1347 2928 1069 2612 
Q 791 2297 791 1659 
z
" transform="scale(0.015625)"/>
       <path id="DejaVuSans-394" d="M 2188 4044 
L 906 525 
L 3472 525 
L 2188 4044 
z
M 50 0 
L 1831 4666 
L 2547 4666 
L 4325 0 
L 50 0 
z
" transform="scale(0.015625)"/>
       <path id="DejaVuSans-Oblique-76" d="M 459 3500 
L 1069 3500 
L 1581 525 
L 3256 3500 
L 3866 3500 
L 1875 0 
L 1100 0 
L 459 3500 
z
" transform="scale(0.015625)"/>
       <path id="ArialMT-28" d="M 1497 -1347 
Q 1031 -759 709 28 
Q 388 816 388 1659 
Q 388 2403 628 3084 
Q 909 3875 1497 4659 
L 1900 4659 
Q 1522 4009 1400 3731 
Q 1209 3300 1100 2831 
Q 966 2247 966 1656 
Q 966 153 1900 -1347 
L 1497 -1347 
z
" transform="scale(0.015625)"/>
       <path id="ArialMT-6d" d="M 422 0 
L 422 3319 
L 925 3319 
L 925 2853 
Q 1081 3097 1340 3245 
Q 1600 3394 1931 3394 
Q 2300 3394 2536 3241 
Q 2772 3088 2869 2813 
Q 3263 3394 3894 3394 
Q 4388 3394 4653 3120 
Q 4919 2847 4919 2278 
L 4919 0 
L 4359 0 
L 4359 2091 
Q 4359 2428 4304 2576 
Q 4250 2725 4106 2815 
Q 3963 2906 3769 2906 
Q 3419 2906 3187 2673 
Q 2956 2441 2956 1928 
L 2956 0 
L 2394 0 
L 2394 2156 
Q 2394 2531 2256 2718 
Q 2119 2906 1806 2906 
Q 1569 2906 1367 2781 
Q 1166 2656 1075 2415 
Q 984 2175 984 1722 
L 984 0 
L 422 0 
z
" transform="scale(0.015625)"/>
       <path id="ArialMT-2f" d="M 0 -78 
L 1328 4659 
L 1778 4659 
L 453 -78 
L 0 -78 
z
" transform="scale(0.015625)"/>
       <path id="ArialMT-73" d="M 197 991 
L 753 1078 
Q 800 744 1014 566 
Q 1228 388 1613 388 
Q 2000 388 2187 545 
Q 2375 703 2375 916 
Q 2375 1106 2209 1216 
Q 2094 1291 1634 1406 
Q 1016 1563 777 1677 
Q 538 1791 414 1992 
Q 291 2194 291 2438 
Q 291 2659 392 2848 
Q 494 3038 669 3163 
Q 800 3259 1026 3326 
Q 1253 3394 1513 3394 
Q 1903 3394 2198 3281 
Q 2494 3169 2634 2976 
Q 2775 2784 2828 2463 
L 2278 2388 
Q 2241 2644 2061 2787 
Q 1881 2931 1553 2931 
Q 1166 2931 1000 2803 
Q 834 2675 834 2503 
Q 834 2394 903 2306 
Q 972 2216 1119 2156 
Q 1203 2125 1616 2013 
Q 2213 1853 2448 1751 
Q 2684 1650 2818 1456 
Q 2953 1263 2953 975 
Q 2953 694 2789 445 
Q 2625 197 2315 61 
Q 2006 -75 1616 -75 
Q 969 -75 630 194 
Q 291 463 197 991 
z
" transform="scale(0.015625)"/>
       <path id="ArialMT-29" d="M 791 -1347 
L 388 -1347 
Q 1322 153 1322 1656 
Q 1322 2244 1188 2822 
Q 1081 3291 891 3722 
Q 769 4003 388 4659 
L 791 4659 
Q 1378 3875 1659 3084 
Q 1900 2403 1900 1659 
Q 1900 816 1576 28 
Q 1253 -759 791 -1347 
z
" transform="scale(0.015625)"/>
      </defs>
      <use xlink:href="#ArialMT-63" transform="translate(0 0.09375)"/>
      <use xlink:href="#ArialMT-6f" transform="translate(50 0.09375)"/>
      <use xlink:href="#ArialMT-72" transform="translate(105.615234 0.09375)"/>
      <use xlink:href="#ArialMT-72" transform="translate(138.916016 0.09375)"/>
      <use xlink:href="#ArialMT-65" transform="translate(172.216797 0.09375)"/>
      <use xlink:href="#ArialMT-63" transform="translate(227.832031 0.09375)"/>
      <use xlink:href="#ArialMT-74" transform="translate(277.832031 0.09375)"/>
      <use xlink:href="#ArialMT-69" transform="translate(305.615234 0.09375)"/>
      <use xlink:href="#ArialMT-6f" transform="translate(327.832031 0.09375)"/>
      <use xlink:href="#ArialMT-6e" transform="translate(383.447266 0.09375)"/>
      <use xlink:href="#ArialMT-20" transform="translate(439.0625 0.09375)"/>
      <use xlink:href="#DejaVuSans-394" transform="translate(466.845703 0.09375)"/>
      <use xlink:href="#DejaVuSans-Oblique-76" transform="translate(535.253906 0.09375)"/>
      <use xlink:href="#ArialMT-20" transform="translate(594.433594 0.09375)"/>
      <use xlink:href="#ArialMT-28" transform="translate(622.216797 0.09375)"/>
      <use xlink:href="#ArialMT-6d" transform="translate(655.517578 0.09375)"/>
      <use xlink:href="#ArialMT-2f" transform="translate(738.818359 0.09375)"/>
      <use xlink:href="#ArialMT-73" transform="translate(766.601562 0.09375)"/>
      <use xlink:href="#ArialMT-29" transform="translate(816.601562 0.09375)"/>
     </g>
    </g>
   </g>
   <g id="patch_3">
    <path d="M 48.963539 235.399375 
L 48.963539 31.344375 
" style="fill: none; stroke: #cccccc; stroke-width: 1.25; stroke-linejoin: miter; stroke-linecap: square"/>
   </g>
   <g id="patch_4">
    <path d="M 528.699539 235.399375 
L 528.699539 31.344375 
" style="fill: none; stroke: #cccccc; stroke-width: 1.25; stroke-linejoin: miter; stroke-linecap: square"/>
   </g>
   <g id="patch_5">
    <path d="M 48.963539 235.399375 
L 528.699539 235.399375 
" style="fill: none; stroke: #cccccc; stroke-width: 1.25; stroke-linejoin: miter; stroke-linecap: square"/>
   </g>
   <g id="patch_6">
    <path d="M 48.963539 31.344375 
L 528.699539 31.344375 
" style="fill: none; stroke: #cccccc; stroke-width: 1.25; stroke-linejoin: miter; stroke-linecap: square"/>
   </g>
   <g id="patch_7">
    <path d="M 82.04878 235.399375 
L 136.785393 235.399375 
L 136.785393 69.263991 
L 82.04878 69.263991 
z
" clip-path="url(#pe9733cdc9e)" style="fill: #8c8c8c; stroke: #ffffff; stroke-linejoin: miter"/>
   </g>
   <g id="patch_8">
    <path d="M 234.094926 235.399375 
L 288.831539 235.399375 
L 288.831539 68.141178 
L 234.094926 68.141178 
z
" clip-path="url(#pe9733cdc9e)" style="fill: #8c8c8c; stroke: #ffffff; stroke-linejoin: miter"/>
   </g>
   <g id="patch_9">
    <path d="M 386.141073 235.399375 
L 440.877685 235.399375 
L 440.877685 80.832359 
L 386.141073 80.832359 
z
" clip-path="url(#pe9733cdc9e)" style="fill: #8c8c8c; stroke: #ffffff; stroke-linejoin: miter"/>
   </g>
   <g id="patch_10">
    <path d="M 136.785393 235.399375 
L 191.522006 235.399375 
L 191.522006 138.136614 
L 136.785393 138.136614 
z
" clip-path="url(#pe9733cdc9e)" style="fill: #d1701f; stroke: #ffffff; stroke-linejoin: miter"/>
   </g>
   <g id="patch_11">
    <path d="M 288.831539 235.399375 
L 343.568152 235.399375 
L 343.568152 114.081212 
L 288.831539 114.081212 
z
" clip-path="url(#pe9733cdc9e)" style="fill: #d1701f; stroke: #ffffff; stroke-linejoin: miter"/>
   </g>
   <g id="patch_12">
    <path d="M 440.877685 235.399375 
L 495.614298 235.399375 
L 495.614298 117.817114 
L 440.877685 117.817114 
z
" clip-path="url(#pe9733cdc9e)" style="fill: #d1701f; stroke: #ffffff; stroke-linejoin: miter"/>
   </g>
   <g id="text_11">
    <!-- 244 -->
    <g style="fill: #8c8c8c" transform="translate(102.743962 65.643764) scale(0.08 -0.08)">
     <defs>
      <path id="Arial-BoldMT-32" d="M 3238 816 
L 3238 0 
L 159 0 
Q 209 463 459 877 
Q 709 1291 1447 1975 
Q 2041 2528 2175 2725 
Q 2356 2997 2356 3263 
Q 2356 3556 2198 3714 
Q 2041 3872 1763 3872 
Q 1488 3872 1325 3706 
Q 1163 3541 1138 3156 
L 263 3244 
Q 341 3969 753 4284 
Q 1166 4600 1784 4600 
Q 2463 4600 2850 4234 
Q 3238 3869 3238 3325 
Q 3238 3016 3127 2736 
Q 3016 2456 2775 2150 
Q 2616 1947 2200 1565 
Q 1784 1184 1673 1059 
Q 1563 934 1494 816 
L 3238 816 
z
" transform="scale(0.015625)"/>
      <path id="Arial-BoldMT-34" d="M 1994 0 
L 1994 922 
L 119 922 
L 119 1691 
L 2106 4600 
L 2844 4600 
L 2844 1694 
L 3413 1694 
L 3413 922 
L 2844 922 
L 2844 0 
L 1994 0 
z
M 1994 1694 
L 1994 3259 
L 941 1694 
L 1994 1694 
z
" transform="scale(0.015625)"/>
     </defs>
     <use xlink:href="#Arial-BoldMT-32"/>
     <use xlink:href="#Arial-BoldMT-34" transform="translate(55.615234 0)"/>
     <use xlink:href="#Arial-BoldMT-34" transform="translate(111.230469 0)"/>
    </g>
   </g>
   <g id="text_12">
    <!-- 143 -->
    <g style="fill: #d1701f" transform="translate(157.480574 134.516387) scale(0.08 -0.08)">
     <defs>
      <path id="Arial-BoldMT-31" d="M 2519 0 
L 1641 0 
L 1641 3309 
Q 1159 2859 506 2644 
L 506 3441 
Q 850 3553 1253 3867 
Q 1656 4181 1806 4600 
L 2519 4600 
L 2519 0 
z
" transform="scale(0.015625)"/>
      <path id="Arial-BoldMT-33" d="M 241 1216 
L 1091 1319 
Q 1131 994 1309 822 
Q 1488 650 1741 650 
Q 2013 650 2198 856 
Q 2384 1063 2384 1413 
Q 2384 1744 2206 1937 
Q 2028 2131 1772 2131 
Q 1603 2131 1369 2066 
L 1466 2781 
Q 1822 2772 2009 2936 
Q 2197 3100 2197 3372 
Q 2197 3603 2059 3740 
Q 1922 3878 1694 3878 
Q 1469 3878 1309 3722 
Q 1150 3566 1116 3266 
L 306 3403 
Q 391 3819 561 4067 
Q 731 4316 1036 4458 
Q 1341 4600 1719 4600 
Q 2366 4600 2756 4188 
Q 3078 3850 3078 3425 
Q 3078 2822 2419 2463 
Q 2813 2378 3048 2084 
Q 3284 1791 3284 1375 
Q 3284 772 2843 347 
Q 2403 -78 1747 -78 
Q 1125 -78 715 280 
Q 306 638 241 1216 
z
" transform="scale(0.015625)"/>
     </defs>
     <use xlink:href="#Arial-BoldMT-31"/>
     <use xlink:href="#Arial-BoldMT-34" transform="translate(55.615234 0)"/>
     <use xlink:href="#Arial-BoldMT-33" transform="translate(111.230469 0)"/>
    </g>
   </g>
   <g id="text_13">
    <!-- Δ101 -->
    <g style="fill: #d1701f" transform="translate(126.64051 55.337708) scale(0.085 -0.085)">
     <defs>
      <path id="Arial-BoldMT-394" d="M 4597 0 
L 0 0 
L 1784 4581 
L 2763 4581 
L 4597 0 
z
M 3294 772 
L 2263 3513 
L 1263 772 
L 3294 772 
z
" transform="scale(0.015625)"/>
      <path id="Arial-BoldMT-30" d="M 1756 4600 
Q 2422 4600 2797 4125 
Q 3244 3563 3244 2259 
Q 3244 959 2794 391 
Q 2422 -78 1756 -78 
Q 1088 -78 678 436 
Q 269 950 269 2269 
Q 269 3563 719 4131 
Q 1091 4600 1756 4600 
z
M 1756 3872 
Q 1597 3872 1472 3770 
Q 1347 3669 1278 3406 
Q 1188 3066 1188 2259 
Q 1188 1453 1269 1151 
Q 1350 850 1473 750 
Q 1597 650 1756 650 
Q 1916 650 2041 751 
Q 2166 853 2234 1116 
Q 2325 1453 2325 2259 
Q 2325 3066 2244 3367 
Q 2163 3669 2039 3770 
Q 1916 3872 1756 3872 
z
" transform="scale(0.015625)"/>
     </defs>
     <use xlink:href="#Arial-BoldMT-394"/>
     <use xlink:href="#Arial-BoldMT-31" transform="translate(71.875 0)"/>
     <use xlink:href="#Arial-BoldMT-30" transform="translate(127.490234 0)"/>
     <use xlink:href="#Arial-BoldMT-31" transform="translate(183.105469 0)"/>
    </g>
   </g>
   <g id="text_14">
    <!-- 246 -->
    <g style="fill: #8c8c8c" transform="translate(254.790108 64.520951) scale(0.08 -0.08)">
     <defs>
      <path id="Arial-BoldMT-36" d="M 3247 3459 
L 2397 3366 
Q 2366 3628 2234 3753 
Q 2103 3878 1894 3878 
Q 1616 3878 1423 3628 
Q 1231 3378 1181 2588 
Q 1509 2975 1997 2975 
Q 2547 2975 2939 2556 
Q 3331 2138 3331 1475 
Q 3331 772 2918 347 
Q 2506 -78 1859 -78 
Q 1166 -78 719 461 
Q 272 1000 272 2228 
Q 272 3488 737 4044 
Q 1203 4600 1947 4600 
Q 2469 4600 2811 4308 
Q 3153 4016 3247 3459 
z
M 1256 1544 
Q 1256 1116 1453 883 
Q 1650 650 1903 650 
Q 2147 650 2309 840 
Q 2472 1031 2472 1466 
Q 2472 1913 2297 2120 
Q 2122 2328 1859 2328 
Q 1606 2328 1431 2129 
Q 1256 1931 1256 1544 
z
" transform="scale(0.015625)"/>
     </defs>
     <use xlink:href="#Arial-BoldMT-32"/>
     <use xlink:href="#Arial-BoldMT-34" transform="translate(55.615234 0)"/>
     <use xlink:href="#Arial-BoldMT-36" transform="translate(111.230469 0)"/>
    </g>
   </g>
   <g id="text_15">
    <!-- 178 -->
    <g style="fill: #d1701f" transform="translate(309.52672 110.460985) scale(0.08 -0.08)">
     <defs>
      <path id="Arial-BoldMT-37" d="M 272 3703 
L 272 4519 
L 3275 4519 
L 3275 3881 
Q 2903 3516 2518 2831 
Q 2134 2147 1932 1376 
Q 1731 606 1734 0 
L 888 0 
Q 909 950 1279 1937 
Q 1650 2925 2269 3703 
L 272 3703 
z
" transform="scale(0.015625)"/>
      <path id="Arial-BoldMT-38" d="M 1025 2472 
Q 684 2616 529 2867 
Q 375 3119 375 3419 
Q 375 3931 733 4265 
Q 1091 4600 1750 4600 
Q 2403 4600 2764 4265 
Q 3125 3931 3125 3419 
Q 3125 3100 2959 2851 
Q 2794 2603 2494 2472 
Q 2875 2319 3073 2025 
Q 3272 1731 3272 1347 
Q 3272 713 2867 316 
Q 2463 -81 1791 -81 
Q 1166 -81 750 247 
Q 259 634 259 1309 
Q 259 1681 443 1992 
Q 628 2303 1025 2472 
z
M 1206 3356 
Q 1206 3094 1354 2947 
Q 1503 2800 1750 2800 
Q 2000 2800 2150 2948 
Q 2300 3097 2300 3359 
Q 2300 3606 2151 3754 
Q 2003 3903 1759 3903 
Q 1506 3903 1356 3753 
Q 1206 3603 1206 3356 
z
M 1125 1394 
Q 1125 1031 1311 828 
Q 1497 625 1775 625 
Q 2047 625 2225 820 
Q 2403 1016 2403 1384 
Q 2403 1706 2222 1901 
Q 2041 2097 1763 2097 
Q 1441 2097 1283 1875 
Q 1125 1653 1125 1394 
z
" transform="scale(0.015625)"/>
     </defs>
     <use xlink:href="#Arial-BoldMT-31"/>
     <use xlink:href="#Arial-BoldMT-37" transform="translate(55.615234 0)"/>
     <use xlink:href="#Arial-BoldMT-38" transform="translate(111.230469 0)"/>
    </g>
   </g>
   <g id="text_16">
    <!-- Δ68 -->
    <g style="fill: #d1701f" transform="translate(281.050055 54.214895) scale(0.085 -0.085)">
     <use xlink:href="#Arial-BoldMT-394"/>
     <use xlink:href="#Arial-BoldMT-36" transform="translate(71.875 0)"/>
     <use xlink:href="#Arial-BoldMT-38" transform="translate(127.490234 0)"/>
    </g>
   </g>
   <g id="text_17">
    <!-- 227 -->
    <g style="fill: #8c8c8c" transform="translate(406.836254 77.212132) scale(0.08 -0.08)">
     <use xlink:href="#Arial-BoldMT-32"/>
     <use xlink:href="#Arial-BoldMT-32" transform="translate(55.615234 0)"/>
     <use xlink:href="#Arial-BoldMT-37" transform="translate(111.230469 0)"/>
    </g>
   </g>
   <g id="text_18">
    <!-- 173 -->
    <g style="fill: #d1701f" transform="translate(461.572866 114.196888) scale(0.08 -0.08)">
     <use xlink:href="#Arial-BoldMT-31"/>
     <use xlink:href="#Arial-BoldMT-37" transform="translate(55.615234 0)"/>
     <use xlink:href="#Arial-BoldMT-33" transform="translate(111.230469 0)"/>
    </g>
   </g>
   <g id="text_19">
    <!-- Δ54 -->
    <g style="fill: #d1701f" transform="translate(433.096201 66.906076) scale(0.085 -0.085)">
     <defs>
      <path id="Arial-BoldMT-35" d="M 284 1178 
L 1159 1269 
Q 1197 972 1381 798 
Q 1566 625 1806 625 
Q 2081 625 2272 848 
Q 2463 1072 2463 1522 
Q 2463 1944 2273 2155 
Q 2084 2366 1781 2366 
Q 1403 2366 1103 2031 
L 391 2134 
L 841 4519 
L 3163 4519 
L 3163 3697 
L 1506 3697 
L 1369 2919 
Q 1663 3066 1969 3066 
Q 2553 3066 2959 2641 
Q 3366 2216 3366 1538 
Q 3366 972 3038 528 
Q 2591 -78 1797 -78 
Q 1163 -78 763 262 
Q 363 603 284 1178 
z
" transform="scale(0.015625)"/>
     </defs>
     <use xlink:href="#Arial-BoldMT-394"/>
     <use xlink:href="#Arial-BoldMT-35" transform="translate(71.875 0)"/>
     <use xlink:href="#Arial-BoldMT-34" transform="translate(127.490234 0)"/>
    </g>
   </g>
   <g id="text_20">
    <!-- Joint reference optimization recovers ref-tracking schemes -->
    <g style="fill: #262626" transform="translate(48.963539 14.479687) scale(0.1 -0.1)">
     <defs>
      <path id="ArialMT-4a" d="M 184 1300 
L 731 1375 
Q 753 850 928 656 
Q 1103 463 1413 463 
Q 1641 463 1806 567 
Q 1972 672 2034 851 
Q 2097 1031 2097 1425 
L 2097 4581 
L 2703 4581 
L 2703 1459 
Q 2703 884 2564 568 
Q 2425 253 2123 87 
Q 1822 -78 1416 -78 
Q 813 -78 492 269 
Q 172 616 184 1300 
z
" transform="scale(0.015625)"/>
      <path id="ArialMT-66" d="M 556 0 
L 556 2881 
L 59 2881 
L 59 3319 
L 556 3319 
L 556 3672 
Q 556 4006 616 4169 
Q 697 4388 901 4523 
Q 1106 4659 1475 4659 
Q 1713 4659 2000 4603 
L 1916 4113 
Q 1741 4144 1584 4144 
Q 1328 4144 1222 4034 
Q 1116 3925 1116 3625 
L 1116 3319 
L 1763 3319 
L 1763 2881 
L 1116 2881 
L 1116 0 
L 556 0 
z
" transform="scale(0.015625)"/>
      <path id="ArialMT-70" d="M 422 -1272 
L 422 3319 
L 934 3319 
L 934 2888 
Q 1116 3141 1344 3267 
Q 1572 3394 1897 3394 
Q 2322 3394 2647 3175 
Q 2972 2956 3137 2557 
Q 3303 2159 3303 1684 
Q 3303 1175 3120 767 
Q 2938 359 2589 142 
Q 2241 -75 1856 -75 
Q 1575 -75 1351 44 
Q 1128 163 984 344 
L 984 -1272 
L 422 -1272 
z
M 931 1641 
Q 931 1000 1190 694 
Q 1450 388 1819 388 
Q 2194 388 2461 705 
Q 2728 1022 2728 1688 
Q 2728 2322 2467 2637 
Q 2206 2953 1844 2953 
Q 1484 2953 1207 2617 
Q 931 2281 931 1641 
z
" transform="scale(0.015625)"/>
      <path id="ArialMT-7a" d="M 125 0 
L 125 456 
L 2238 2881 
Q 1878 2863 1603 2863 
L 250 2863 
L 250 3319 
L 2963 3319 
L 2963 2947 
L 1166 841 
L 819 456 
Q 1197 484 1528 484 
L 3063 484 
L 3063 0 
L 125 0 
z
" transform="scale(0.015625)"/>
      <path id="ArialMT-61" d="M 2588 409 
Q 2275 144 1986 34 
Q 1697 -75 1366 -75 
Q 819 -75 525 192 
Q 231 459 231 875 
Q 231 1119 342 1320 
Q 453 1522 633 1644 
Q 813 1766 1038 1828 
Q 1203 1872 1538 1913 
Q 2219 1994 2541 2106 
Q 2544 2222 2544 2253 
Q 2544 2597 2384 2738 
Q 2169 2928 1744 2928 
Q 1347 2928 1158 2789 
Q 969 2650 878 2297 
L 328 2372 
Q 403 2725 575 2942 
Q 747 3159 1072 3276 
Q 1397 3394 1825 3394 
Q 2250 3394 2515 3294 
Q 2781 3194 2906 3042 
Q 3031 2891 3081 2659 
Q 3109 2516 3109 2141 
L 3109 1391 
Q 3109 606 3145 398 
Q 3181 191 3288 0 
L 2700 0 
Q 2613 175 2588 409 
z
M 2541 1666 
Q 2234 1541 1622 1453 
Q 1275 1403 1131 1340 
Q 988 1278 909 1158 
Q 831 1038 831 891 
Q 831 666 1001 516 
Q 1172 366 1500 366 
Q 1825 366 2078 508 
Q 2331 650 2450 897 
Q 2541 1088 2541 1459 
L 2541 1666 
z
" transform="scale(0.015625)"/>
      <path id="ArialMT-76" d="M 1344 0 
L 81 3319 
L 675 3319 
L 1388 1331 
Q 1503 1009 1600 663 
Q 1675 925 1809 1294 
L 2547 3319 
L 3125 3319 
L 1869 0 
L 1344 0 
z
" transform="scale(0.015625)"/>
      <path id="ArialMT-2d" d="M 203 1375 
L 203 1941 
L 1931 1941 
L 1931 1375 
L 203 1375 
z
" transform="scale(0.015625)"/>
      <path id="ArialMT-6b" d="M 425 0 
L 425 4581 
L 988 4581 
L 988 1969 
L 2319 3319 
L 3047 3319 
L 1778 2088 
L 3175 0 
L 2481 0 
L 1384 1697 
L 988 1316 
L 988 0 
L 425 0 
z
" transform="scale(0.015625)"/>
      <path id="ArialMT-68" d="M 422 0 
L 422 4581 
L 984 4581 
L 984 2938 
Q 1378 3394 1978 3394 
Q 2347 3394 2619 3248 
Q 2891 3103 3008 2847 
Q 3125 2591 3125 2103 
L 3125 0 
L 2563 0 
L 2563 2103 
Q 2563 2525 2380 2717 
Q 2197 2909 1863 2909 
Q 1613 2909 1392 2779 
Q 1172 2650 1078 2428 
Q 984 2206 984 1816 
L 984 0 
L 422 0 
z
" transform="scale(0.015625)"/>
     </defs>
     <use xlink:href="#ArialMT-4a"/>
     <use xlink:href="#ArialMT-6f" transform="translate(50 0)"/>
     <use xlink:href="#ArialMT-69" transform="translate(105.615234 0)"/>
     <use xlink:href="#ArialMT-6e" transform="translate(127.832031 0)"/>
     <use xlink:href="#ArialMT-74" transform="translate(183.447266 0)"/>
     <use xlink:href="#ArialMT-20" transform="translate(211.230469 0)"/>
     <use xlink:href="#ArialMT-72" transform="translate(239.013672 0)"/>
     <use xlink:href="#ArialMT-65" transform="translate(272.314453 0)"/>
     <use xlink:href="#ArialMT-66" transform="translate(327.929688 0)"/>
     <use xlink:href="#ArialMT-65" transform="translate(355.712891 0)"/>
     <use xlink:href="#ArialMT-72" transform="translate(411.328125 0)"/>
     <use xlink:href="#ArialMT-65" transform="translate(444.628906 0)"/>
     <use xlink:href="#ArialMT-6e" transform="translate(500.244141 0)"/>
     <use xlink:href="#ArialMT-63" transform="translate(555.859375 0)"/>
     <use xlink:href="#ArialMT-65" transform="translate(605.859375 0)"/>
     <use xlink:href="#ArialMT-20" transform="translate(661.474609 0)"/>
     <use xlink:href="#ArialMT-6f" transform="translate(689.257812 0)"/>
     <use xlink:href="#ArialMT-70" transform="translate(744.873047 0)"/>
     <use xlink:href="#ArialMT-74" transform="translate(800.488281 0)"/>
     <use xlink:href="#ArialMT-69" transform="translate(828.271484 0)"/>
     <use xlink:href="#ArialMT-6d" transform="translate(850.488281 0)"/>
     <use xlink:href="#ArialMT-69" transform="translate(933.789062 0)"/>
     <use xlink:href="#ArialMT-7a" transform="translate(956.005859 0)"/>
     <use xlink:href="#ArialMT-61" transform="translate(1006.005859 0)"/>
     <use xlink:href="#ArialMT-74" transform="translate(1061.621094 0)"/>
     <use xlink:href="#ArialMT-69" transform="translate(1089.404297 0)"/>
     <use xlink:href="#ArialMT-6f" transform="translate(1111.621094 0)"/>
     <use xlink:href="#ArialMT-6e" transform="translate(1167.236328 0)"/>
     <use xlink:href="#ArialMT-20" transform="translate(1222.851562 0)"/>
     <use xlink:href="#ArialMT-72" transform="translate(1250.634766 0)"/>
     <use xlink:href="#ArialMT-65" transform="translate(1283.935547 0)"/>
     <use xlink:href="#ArialMT-63" transform="translate(1339.550781 0)"/>
     <use xlink:href="#ArialMT-6f" transform="translate(1389.550781 0)"/>
     <use xlink:href="#ArialMT-76" transform="translate(1445.166016 0)"/>
     <use xlink:href="#ArialMT-65" transform="translate(1495.166016 0)"/>
     <use xlink:href="#ArialMT-72" transform="translate(1550.78125 0)"/>
     <use xlink:href="#ArialMT-73" transform="translate(1584.082031 0)"/>
     <use xlink:href="#ArialMT-20" transform="translate(1634.082031 0)"/>
     <use xlink:href="#ArialMT-72" transform="translate(1661.865234 0)"/>
     <use xlink:href="#ArialMT-65" transform="translate(1695.166016 0)"/>
     <use xlink:href="#ArialMT-66" transform="translate(1750.78125 0)"/>
     <use xlink:href="#ArialMT-2d" transform="translate(1778.564453 0)"/>
     <use xlink:href="#ArialMT-74" transform="translate(1811.865234 0)"/>
     <use xlink:href="#ArialMT-72" transform="translate(1839.648438 0)"/>
     <use xlink:href="#ArialMT-61" transform="translate(1872.949219 0)"/>
     <use xlink:href="#ArialMT-63" transform="translate(1928.564453 0)"/>
     <use xlink:href="#ArialMT-6b" transform="translate(1978.564453 0)"/>
     <use xlink:href="#ArialMT-69" transform="translate(2028.564453 0)"/>
     <use xlink:href="#ArialMT-6e" transform="translate(2050.78125 0)"/>
     <use xlink:href="#ArialMT-67" transform="translate(2106.396484 0)"/>
     <use xlink:href="#ArialMT-20" transform="translate(2162.011719 0)"/>
     <use xlink:href="#ArialMT-73" transform="translate(2189.794922 0)"/>
     <use xlink:href="#ArialMT-63" transform="translate(2239.794922 0)"/>
     <use xlink:href="#ArialMT-68" transform="translate(2289.794922 0)"/>
     <use xlink:href="#ArialMT-65" transform="translate(2345.410156 0)"/>
     <use xlink:href="#ArialMT-6d" transform="translate(2401.025391 0)"/>
     <use xlink:href="#ArialMT-65" transform="translate(2484.326172 0)"/>
     <use xlink:href="#ArialMT-73" transform="translate(2539.941406 0)"/>
    </g>
    <!-- (CVaR$_{95}$ bars, mean = white hatch overlay) -->
    <g style="fill: #262626" transform="translate(48.963539 25.344375) scale(0.1 -0.1)">
     <defs>
      <path id="ArialMT-56" d="M 1803 0 
L 28 4581 
L 684 4581 
L 1875 1253 
Q 2019 853 2116 503 
Q 2222 878 2363 1253 
L 3600 4581 
L 4219 4581 
L 2425 0 
L 1803 0 
z
" transform="scale(0.015625)"/>
      <path id="ArialMT-52" d="M 503 0 
L 503 4581 
L 2534 4581 
Q 3147 4581 3465 4457 
Q 3784 4334 3975 4021 
Q 4166 3709 4166 3331 
Q 4166 2844 3850 2509 
Q 3534 2175 2875 2084 
Q 3116 1969 3241 1856 
Q 3506 1613 3744 1247 
L 4541 0 
L 3778 0 
L 3172 953 
Q 2906 1366 2734 1584 
Q 2563 1803 2427 1890 
Q 2291 1978 2150 2013 
Q 2047 2034 1813 2034 
L 1109 2034 
L 1109 0 
L 503 0 
z
M 1109 2559 
L 2413 2559 
Q 2828 2559 3062 2645 
Q 3297 2731 3419 2920 
Q 3541 3109 3541 3331 
Q 3541 3656 3305 3865 
Q 3069 4075 2559 4075 
L 1109 4075 
L 1109 2559 
z
" transform="scale(0.015625)"/>
      <path id="DejaVuSans-39" d="M 703 97 
L 703 672 
Q 941 559 1184 500 
Q 1428 441 1663 441 
Q 2288 441 2617 861 
Q 2947 1281 2994 2138 
Q 2813 1869 2534 1725 
Q 2256 1581 1919 1581 
Q 1219 1581 811 2004 
Q 403 2428 403 3163 
Q 403 3881 828 4315 
Q 1253 4750 1959 4750 
Q 2769 4750 3195 4129 
Q 3622 3509 3622 2328 
Q 3622 1225 3098 567 
Q 2575 -91 1691 -91 
Q 1453 -91 1209 -44 
Q 966 3 703 97 
z
M 1959 2075 
Q 2384 2075 2632 2365 
Q 2881 2656 2881 3163 
Q 2881 3666 2632 3958 
Q 2384 4250 1959 4250 
Q 1534 4250 1286 3958 
Q 1038 3666 1038 3163 
Q 1038 2656 1286 2365 
Q 1534 2075 1959 2075 
z
" transform="scale(0.015625)"/>
      <path id="DejaVuSans-35" d="M 691 4666 
L 3169 4666 
L 3169 4134 
L 1269 4134 
L 1269 2991 
Q 1406 3038 1543 3061 
Q 1681 3084 1819 3084 
Q 2600 3084 3056 2656 
Q 3513 2228 3513 1497 
Q 3513 744 3044 326 
Q 2575 -91 1722 -91 
Q 1428 -91 1123 -41 
Q 819 9 494 109 
L 494 744 
Q 775 591 1075 516 
Q 1375 441 1709 441 
Q 2250 441 2565 725 
Q 2881 1009 2881 1497 
Q 2881 1984 2565 2268 
Q 2250 2553 1709 2553 
Q 1456 2553 1204 2497 
Q 953 2441 691 2322 
L 691 4666 
z
" transform="scale(0.015625)"/>
      <path id="ArialMT-62" d="M 941 0 
L 419 0 
L 419 4581 
L 981 4581 
L 981 2947 
Q 1338 3394 1891 3394 
Q 2197 3394 2470 3270 
Q 2744 3147 2920 2923 
Q 3097 2700 3197 2384 
Q 3297 2069 3297 1709 
Q 3297 856 2875 390 
Q 2453 -75 1863 -75 
Q 1275 -75 941 416 
L 941 0 
z
M 934 1684 
Q 934 1088 1097 822 
Q 1363 388 1816 388 
Q 2184 388 2453 708 
Q 2722 1028 2722 1663 
Q 2722 2313 2464 2622 
Q 2206 2931 1841 2931 
Q 1472 2931 1203 2611 
Q 934 2291 934 1684 
z
" transform="scale(0.015625)"/>
      <path id="ArialMT-2c" d="M 569 0 
L 569 641 
L 1209 641 
L 1209 0 
Q 1209 -353 1084 -570 
Q 959 -788 688 -906 
L 531 -666 
Q 709 -588 793 -436 
Q 878 -284 888 0 
L 569 0 
z
" transform="scale(0.015625)"/>
      <path id="ArialMT-3d" d="M 3381 2694 
L 356 2694 
L 356 3219 
L 3381 3219 
L 3381 2694 
z
M 3381 1303 
L 356 1303 
L 356 1828 
L 3381 1828 
L 3381 1303 
z
" transform="scale(0.015625)"/>
      <path id="ArialMT-77" d="M 1034 0 
L 19 3319 
L 600 3319 
L 1128 1403 
L 1325 691 
Q 1338 744 1497 1375 
L 2025 3319 
L 2603 3319 
L 3100 1394 
L 3266 759 
L 3456 1400 
L 4025 3319 
L 4572 3319 
L 3534 0 
L 2950 0 
L 2422 1988 
L 2294 2553 
L 1622 0 
L 1034 0 
z
" transform="scale(0.015625)"/>
     </defs>
     <use xlink:href="#ArialMT-28" transform="translate(0 0.203125)"/>
     <use xlink:href="#ArialMT-43" transform="translate(33.300781 0.203125)"/>
     <use xlink:href="#ArialMT-56" transform="translate(105.517578 0.203125)"/>
     <use xlink:href="#ArialMT-61" transform="translate(172.216797 0.203125)"/>
     <use xlink:href="#ArialMT-52" transform="translate(227.832031 0.203125)"/>
     <use xlink:href="#DejaVuSans-39" transform="translate(301.005859 -16.203125) scale(0.7)"/>
     <use xlink:href="#DejaVuSans-35" transform="translate(345.541992 -16.203125) scale(0.7)"/>
     <use xlink:href="#ArialMT-20" transform="translate(392.8125 0.203125)"/>
     <use xlink:href="#ArialMT-62" transform="translate(420.595703 0.203125)"/>
     <use xlink:href="#ArialMT-61" transform="translate(476.210938 0.203125)"/>
     <use xlink:href="#ArialMT-72" transform="translate(531.826172 0.203125)"/>
     <use xlink:href="#ArialMT-73" transform="translate(565.126953 0.203125)"/>
     <use xlink:href="#ArialMT-2c" transform="translate(615.126953 0.203125)"/>
     <use xlink:href="#ArialMT-20" transform="translate(642.910156 0.203125)"/>
     <use xlink:href="#ArialMT-6d" transform="translate(670.693359 0.203125)"/>
     <use xlink:href="#ArialMT-65" transform="translate(753.994141 0.203125)"/>
     <use xlink:href="#ArialMT-61" transform="translate(809.609375 0.203125)"/>
     <use xlink:href="#ArialMT-6e" transform="translate(865.224609 0.203125)"/>
     <use xlink:href="#ArialMT-20" transform="translate(920.839844 0.203125)"/>
     <use xlink:href="#ArialMT-3d" transform="translate(948.623047 0.203125)"/>
     <use xlink:href="#ArialMT-20" transform="translate(1007.021484 0.203125)"/>
     <use xlink:href="#ArialMT-77" transform="translate(1034.804688 0.203125)"/>
     <use xlink:href="#ArialMT-68" transform="translate(1107.021484 0.203125)"/>
     <use xlink:href="#ArialMT-69" transform="translate(1162.636719 0.203125)"/>
     <use xlink:href="#ArialMT-74" transform="translate(1184.853516 0.203125)"/>
     <use xlink:href="#ArialMT-65" transform="translate(1212.636719 0.203125)"/>
     <use xlink:href="#ArialMT-20" transform="translate(1268.251953 0.203125)"/>
     <use xlink:href="#ArialMT-68" transform="translate(1296.035156 0.203125)"/>
     <use xlink:href="#ArialMT-61" transform="translate(1351.650391 0.203125)"/>
     <use xlink:href="#ArialMT-74" transform="translate(1407.265625 0.203125)"/>
     <use xlink:href="#ArialMT-63" transform="translate(1435.048828 0.203125)"/>
     <use xlink:href="#ArialMT-68" transform="translate(1485.048828 0.203125)"/>
     <use xlink:href="#ArialMT-20" transform="translate(1540.664062 0.203125)"/>
     <use xlink:href="#ArialMT-6f" transform="translate(1568.447266 0.203125)"/>
     <use xlink:href="#ArialMT-76" transform="translate(1624.0625 0.203125)"/>
     <use xlink:href="#ArialMT-65" transform="translate(1674.0625 0.203125)"/>
     <use xlink:href="#ArialMT-72" transform="translate(1729.677734 0.203125)"/>
     <use xlink:href="#ArialMT-6c" transform="translate(1762.978516 0.203125)"/>
     <use xlink:href="#ArialMT-61" transform="translate(1785.195312 0.203125)"/>
     <use xlink:href="#ArialMT-79" transform="translate(1840.810547 0.203125)"/>
     <use xlink:href="#ArialMT-29" transform="translate(1890.810547 0.203125)"/>
    </g>
   </g>
   <g id="patch_13">
    <path d="M 82.04878 235.399375 
L 136.785393 235.399375 
L 136.785393 119.273368 
L 82.04878 119.273368 
z
" clip-path="url(#pe9733cdc9e)" style="fill: url(#h6b7722ec8c)"/>
   </g>
   <g id="patch_14">
    <path d="M 234.094926 235.399375 
L 288.831539 235.399375 
L 288.831539 115.12917 
L 234.094926 115.12917 
z
" clip-path="url(#pe9733cdc9e)" style="fill: url(#h6b7722ec8c)"/>
   </g>
   <g id="patch_15">
    <path d="M 386.141073 235.399375 
L 440.877685 235.399375 
L 440.877685 121.518992 
L 386.141073 121.518992 
z
" clip-path="url(#pe9733cdc9e)" style="fill: url(#h6b7722ec8c)"/>
   </g>
   <g id="patch_16">
    <path d="M 136.785393 235.399375 
L 191.522006 235.399375 
L 191.522006 149.487225 
L 136.785393 149.487225 
z
" clip-path="url(#pe9733cdc9e)" style="fill: url(#h6b7722ec8c)"/>
   </g>
   <g id="patch_17">
    <path d="M 288.831539 235.399375 
L 343.568152 235.399375 
L 343.568152 138.681008 
L 288.831539 138.681008 
z
" clip-path="url(#pe9733cdc9e)" style="fill: url(#h6b7722ec8c)"/>
   </g>
   <g id="patch_18">
    <path d="M 440.877685 235.399375 
L 495.614298 235.399375 
L 495.614298 137.285999 
L 440.877685 137.285999 
z
" clip-path="url(#pe9733cdc9e)" style="fill: url(#h6b7722ec8c)"/>
   </g>
   <g id="legend_1">
    <g id="patch_19">
     <path d="M 432.699539 60.944375 
L 523.099539 60.944375 
Q 524.699539 60.944375 524.699539 59.344375 
L 524.699539 36.944375 
Q 524.699539 35.344375 523.099539 35.344375 
L 432.699539 35.344375 
Q 431.099539 35.344375 431.099539 36.944375 
L 431.099539 59.344375 
Q 431.099539 60.944375 432.699539 60.944375 
z
" style="fill: #f5f5f5; opacity: 0.9; stroke: #cccccc; stroke-linejoin: miter"/>
    </g>
    <g id="patch_20">
     <path d="M 434.299539 44.384375 
L 450.299539 44.384375 
L 450.299539 38.784375 
L 434.299539 38.784375 
z
" style="fill: #8c8c8c; stroke: #ffffff; stroke-linejoin: miter"/>
    </g>
    <g id="text_21">
     <!-- fixed ref (CVaR$_{95}$) -->
     <g style="fill: #262626" transform="translate(456.699539 44.384375) scale(0.08 -0.08)">
      <defs>
       <path id="ArialMT-78" d="M 47 0 
L 1259 1725 
L 138 3319 
L 841 3319 
L 1350 2541 
Q 1494 2319 1581 2169 
Q 1719 2375 1834 2534 
L 2394 3319 
L 3066 3319 
L 1919 1756 
L 3153 0 
L 2463 0 
L 1781 1031 
L 1600 1309 
L 728 0 
L 47 0 
z
" transform="scale(0.015625)"/>
      </defs>
      <use xlink:href="#ArialMT-66" transform="translate(0 0.203125)"/>
      <use xlink:href="#ArialMT-69" transform="translate(27.783203 0.203125)"/>
      <use xlink:href="#ArialMT-78" transform="translate(50 0.203125)"/>
      <use xlink:href="#ArialMT-65" transform="translate(100 0.203125)"/>
      <use xlink:href="#ArialMT-64" transform="translate(155.615234 0.203125)"/>
      <use xlink:href="#ArialMT-20" transform="translate(211.230469 0.203125)"/>
      <use xlink:href="#ArialMT-72" transform="translate(239.013672 0.203125)"/>
      <use xlink:href="#ArialMT-65" transform="translate(272.314453 0.203125)"/>
      <use xlink:href="#ArialMT-66" transform="translate(327.929688 0.203125)"/>
      <use xlink:href="#ArialMT-20" transform="translate(355.712891 0.203125)"/>
      <use xlink:href="#ArialMT-28" transform="translate(383.496094 0.203125)"/>
      <use xlink:href="#ArialMT-43" transform="translate(416.796875 0.203125)"/>
      <use xlink:href="#ArialMT-56" transform="translate(489.013672 0.203125)"/>
      <use xlink:href="#ArialMT-61" transform="translate(555.712891 0.203125)"/>
      <use xlink:href="#ArialMT-52" transform="translate(611.328125 0.203125)"/>
      <use xlink:href="#DejaVuSans-39" transform="translate(684.501953 -16.203125) scale(0.7)"/>
      <use xlink:href="#DejaVuSans-35" transform="translate(729.038086 -16.203125) scale(0.7)"/>
      <use xlink:href="#ArialMT-29" transform="translate(776.308594 0.203125)"/>
     </g>
    </g>
    <g id="patch_21">
     <path d="M 434.299539 55.984375 
L 450.299539 55.984375 
L 450.299539 50.384375 
L 434.299539 50.384375 
z
" style="fill: #d1701f; stroke: #ffffff; stroke-linejoin: miter"/>
    </g>
    <g id="text_22">
     <!-- joint ref (CVaR$_{95}$) -->
     <g style="fill: #262626" transform="translate(456.699539 55.984375) scale(0.08 -0.08)">
      <defs>
       <path id="ArialMT-6a" d="M 419 3928 
L 419 4581 
L 981 4581 
L 981 3928 
L 419 3928 
z
M -294 -1288 
L -188 -809 
Q -19 -853 78 -853 
Q 250 -853 334 -739 
Q 419 -625 419 -169 
L 419 3319 
L 981 3319 
L 981 -181 
Q 981 -794 822 -1034 
Q 619 -1347 147 -1347 
Q -81 -1347 -294 -1288 
z
" transform="scale(0.015625)"/>
      </defs>
      <use xlink:href="#ArialMT-6a" transform="translate(0 0.203125)"/>
      <use xlink:href="#ArialMT-6f" transform="translate(22.216797 0.203125)"/>
      <use xlink:href="#ArialMT-69" transform="translate(77.832031 0.203125)"/>
      <use xlink:href="#ArialMT-6e" transform="translate(100.048828 0.203125)"/>
      <use xlink:href="#ArialMT-74" transform="translate(155.664062 0.203125)"/>
      <use xlink:href="#ArialMT-20" transform="translate(183.447266 0.203125)"/>
      <use xlink:href="#ArialMT-72" transform="translate(211.230469 0.203125)"/>
      <use xlink:href="#ArialMT-65" transform="translate(244.53125 0.203125)"/>
      <use xlink:href="#ArialMT-66" transform="translate(300.146484 0.203125)"/>
      <use xlink:href="#ArialMT-20" transform="translate(327.929688 0.203125)"/>
      <use xlink:href="#ArialMT-28" transform="translate(355.712891 0.203125)"/>
      <use xlink:href="#ArialMT-43" transform="translate(389.013672 0.203125)"/>
      <use xlink:href="#ArialMT-56" transform="translate(461.230469 0.203125)"/>
      <use xlink:href="#ArialMT-61" transform="translate(527.929688 0.203125)"/>
      <use xlink:href="#ArialMT-52" transform="translate(583.544922 0.203125)"/>
      <use xlink:href="#DejaVuSans-39" transform="translate(656.71875 -16.203125) scale(0.7)"/>
      <use xlink:href="#DejaVuSans-35" transform="translate(701.254883 -16.203125) scale(0.7)"/>
      <use xlink:href="#ArialMT-29" transform="translate(748.525391 0.203125)"/>
     </g>
    </g>
   </g>
  </g>
 </g>
 <defs>
  <clipPath id="pe9733cdc9e">
   <rect x="48.963539" y="31.344375" width="479.736" height="204.055"/>
  </clipPath>
 </defs>
 <defs>
  <pattern id="h6b7722ec8c" patternUnits="userSpaceOnUse" x="0" y="0" width="72" height="72">
   <rect x="0" y="0" width="73" height="73" fill="none"/>
   <path d="M -36 36 
L 36 -36 
M -32 40 
L 40 -32 
M -28 44 
L 44 -28 
M -24 48 
L 48 -24 
M -20 52 
L 52 -20 
M -16 56 
L 56 -16 
M -12 60 
L 60 -12 
M -8 64 
L 64 -8 
M -4 68 
L 68 -4 
M 0 72 
L 72 0 
M 4 76 
L 76 4 
M 8 80 
L 80 8 
M 12 84 
L 84 12 
M 16 88 
L 88 16 
M 20 92 
L 92 20 
M 24 96 
L 96 24 
M 28 100 
L 100 28 
M 32 104 
L 104 32 
M 36 108 
L 108 36 
" style="fill: #ffffff; stroke: #ffffff; stroke-width: 1.0; stroke-linecap: butt; stroke-linejoin: miter"/>
  </pattern>
 </defs>
</svg>
