<?xml version="1.0" encoding="utf-8" standalone="no"?>
<!DOCTYPE svg PUBLIC "-//W3C//DTD SVG 1.1//EN"
  "http://www.w3.org/Graphics/SVG/1.1/DTD/svg11.dtd">
<svg xmlns:xlink="http://www.w3.org/1999/xlink" width="593.454539pt" height="263.749816pt" viewBox="0 0 593.454539 263.749816" xmlns="http://www.w3.org/2000/svg" version="1.1">
 <metadata>
  <rdf:RDF xmlns:dc="http://purl.org/dc/elements/1.1/" xmlns:cc="http://creativecommons.org/ns#" xmlns:rdf="http://www.w3.org/1999/02/22-rdf-syntax-ns#">
   <cc:Work>
    <dc:type rdf:resource="http://purl.org/dc/dcmitype/StillImage"/>
    <dc:date>2026-06-27T12:41:16.416474</dc:date>
    <dc:format>image/svg+xml</dc:format>
    <dc:creator>
     <cc:Agent>
      <dc:title>Matplotlib v3.10.9, https://matplotlib.org/</dc:title>
     </cc:Agent>
    </dc:creator>
   </cc:Work>
  </rdf:RDF>
 </metadata>
 <defs>
  <style type="text/css">*{stroke-linejoin: round; stroke-linecap: butt}</style>
 </defs>
 <g id="figure_1">
  <g id="patch_1">
   <path d="M 0 263.749816 
L 593.454539 263.749816 
L 593.454539 0 
L 0 0 
z
" style="fill: #ffffff"/>
  </g>
  <g id="axes_1">
   <g id="patch_2">
    <path d="M 48.963539 217.274212 
L 290.753039 217.274212 
L 290.753039 20.479688 
L 48.963539 20.479688 
z
" style="fill: #f5f5f5"/>
   </g>
   <g id="matplotlib.axis_1">
    <g id="xtick_1">
     <g id="line2d_1">
      <path d="M 70.971731 217.274212 
L 70.971731 20.479688 
" clip-path="url(#p9daae717a9)" style="fill: none; stroke: #cccccc; stroke-linecap: round"/>
     </g>
     <g id="text_1">
      <!-- bucket_max -->
      <g style="fill: #262626" transform="translate(26.932892 246.906456) rotate(-20) scale(0.08 -0.08)">
       <defs>
        <path id="ArialMT-62" d="M 941 0 
L 419 0 
L 419 4581 
L 981 4581 
L 981 2947 
Q 1338 3394 1891 3394 
Q 2197 3394 2470 3270 
Q 2744 3147 2920 2923 
Q 3097 2700 3197 2384 
Q 3297 2069 3297 1709 
Q 3297 856 2875 390 
Q 2453 -75 1863 -75 
Q 1275 -75 941 416 
L 941 0 
z
M 934 1684 
Q 934 1088 1097 822 
Q 1363 388 1816 388 
Q 2184 388 2453 708 
Q 2722 1028 2722 1663 
Q 2722 2313 2464 2622 
Q 2206 2931 1841 2931 
Q 1472 2931 1203 2611 
Q 934 2291 934 1684 
z
" transform="scale(0.015625)"/>
        <path id="ArialMT-75" d="M 2597 0 
L 2597 488 
Q 2209 -75 1544 -75 
Q 1250 -75 995 37 
Q 741 150 617 320 
Q 494 491 444 738 
Q 409 903 409 1263 
L 409 3319 
L 972 3319 
L 972 1478 
Q 972 1038 1006 884 
Q 1059 663 1231 536 
Q 1403 409 1656 409 
Q 1909 409 2131 539 
Q 2353 669 2445 892 
Q 2538 1116 2538 1541 
L 2538 3319 
L 3100 3319 
L 3100 0 
L 2597 0 
z
" transform="scale(0.015625)"/>
        <path id="ArialMT-63" d="M 2588 1216 
L 3141 1144 
Q 3050 572 2676 248 
Q 2303 -75 1759 -75 
Q 1078 -75 664 370 
Q 250 816 250 1647 
Q 250 2184 428 2587 
Q 606 2991 970 3192 
Q 1334 3394 1763 3394 
Q 2303 3394 2647 3120 
Q 2991 2847 3088 2344 
L 2541 2259 
Q 2463 2594 2264 2762 
Q 2066 2931 1784 2931 
Q 1359 2931 1093 2626 
Q 828 2322 828 1663 
Q 828 994 1084 691 
Q 1341 388 1753 388 
Q 2084 388 2306 591 
Q 2528 794 2588 1216 
z
" transform="scale(0.015625)"/>
        <path id="ArialMT-6b" d="M 425 0 
L 425 4581 
L 988 4581 
L 988 1969 
L 2319 3319 
L 3047 3319 
L 1778 2088 
L 3175 0 
L 2481 0 
L 1384 1697 
L 988 1316 
L 988 0 
L 425 0 
z
" transform="scale(0.015625)"/>
        <path id="ArialMT-65" d="M 2694 1069 
L 3275 997 
Q 3138 488 2766 206 
Q 2394 -75 1816 -75 
Q 1088 -75 661 373 
Q 234 822 234 1631 
Q 234 2469 665 2931 
Q 1097 3394 1784 3394 
Q 2450 3394 2872 2941 
Q 3294 2488 3294 1666 
Q 3294 1616 3291 1516 
L 816 1516 
Q 847 969 1125 678 
Q 1403 388 1819 388 
Q 2128 388 2347 550 
Q 2566 713 2694 1069 
z
M 847 1978 
L 2700 1978 
Q 2663 2397 2488 2606 
Q 2219 2931 1791 2931 
Q 1403 2931 1139 2672 
Q 875 2413 847 1978 
z
" transform="scale(0.015625)"/>
        <path id="ArialMT-74" d="M 1650 503 
L 1731 6 
Q 1494 -44 1306 -44 
Q 1000 -44 831 53 
Q 663 150 594 308 
Q 525 466 525 972 
L 525 2881 
L 113 2881 
L 113 3319 
L 525 3319 
L 525 4141 
L 1084 4478 
L 1084 3319 
L 1650 3319 
L 1650 2881 
L 1084 2881 
L 1084 941 
Q 1084 700 1114 631 
Q 1144 563 1211 522 
Q 1278 481 1403 481 
Q 1497 481 1650 503 
z
" transform="scale(0.015625)"/>
        <path id="ArialMT-5f" d="M -97 -1272 
L -97 -866 
L 3631 -866 
L 3631 -1272 
L -97 -1272 
z
" transform="scale(0.015625)"/>
        <path id="ArialMT-6d" d="M 422 0 
L 422 3319 
L 925 3319 
L 925 2853 
Q 1081 3097 1340 3245 
Q 1600 3394 1931 3394 
Q 2300 3394 2536 3241 
Q 2772 3088 2869 2813 
Q 3263 3394 3894 3394 
Q 4388 3394 4653 3120 
Q 4919 2847 4919 2278 
L 4919 0 
L 4359 0 
L 4359 2091 
Q 4359 2428 4304 2576 
Q 4250 2725 4106 2815 
Q 3963 2906 3769 2906 
Q 3419 2906 3187 2673 
Q 2956 2441 2956 1928 
L 2956 0 
L 2394 0 
L 2394 2156 
Q 2394 2531 2256 2718 
Q 2119 2906 1806 2906 
Q 1569 2906 1367 2781 
Q 1166 2656 1075 2415 
Q 984 2175 984 1722 
L 984 0 
L 422 0 
z
" transform="scale(0.015625)"/>
        <path id="ArialMT-61" d="M 2588 409 
Q 2275 144 1986 34 
Q 1697 -75 1366 -75 
Q 819 -75 525 192 
Q 231 459 231 875 
Q 231 1119 342 1320 
Q 453 1522 633 1644 
Q 813 1766 1038 1828 
Q 1203 1872 1538 1913 
Q 2219 1994 2541 2106 
Q 2544 2222 2544 2253 
Q 2544 2597 2384 2738 
Q 2169 2928 1744 2928 
Q 1347 2928 1158 2789 
Q 969 2650 878 2297 
L 328 2372 
Q 403 2725 575 2942 
Q 747 3159 1072 3276 
Q 1397 3394 1825 3394 
Q 2250 3394 2515 3294 
Q 2781 3194 2906 3042 
Q 3031 2891 3081 2659 
Q 3109 2516 3109 2141 
L 3109 1391 
Q 3109 606 3145 398 
Q 3181 191 3288 0 
L 2700 0 
Q 2613 175 2588 409 
z
M 2541 1666 
Q 2234 1541 1622 1453 
Q 1275 1403 1131 1340 
Q 988 1278 909 1158 
Q 831 1038 831 891 
Q 831 666 1001 516 
Q 1172 366 1500 366 
Q 1825 366 2078 508 
Q 2331 650 2450 897 
Q 2541 1088 2541 1459 
L 2541 1666 
z
" transform="scale(0.015625)"/>
        <path id="ArialMT-78" d="M 47 0 
L 1259 1725 
L 138 3319 
L 841 3319 
L 1350 2541 
Q 1494 2319 1581 2169 
Q 1719 2375 1834 2534 
L 2394 3319 
L 3066 3319 
L 1919 1756 
L 3153 0 
L 2463 0 
L 1781 1031 
L 1600 1309 
L 728 0 
L 47 0 
z
" transform="scale(0.015625)"/>
       </defs>
       <use xlink:href="#ArialMT-62"/>
       <use xlink:href="#ArialMT-75" transform="translate(55.615234 0)"/>
       <use xlink:href="#ArialMT-63" transform="translate(111.230469 0)"/>
       <use xlink:href="#ArialMT-6b" transform="translate(161.230469 0)"/>
       <use xlink:href="#ArialMT-65" transform="translate(211.230469 0)"/>
       <use xlink:href="#ArialMT-74" transform="translate(266.845703 0)"/>
       <use xlink:href="#ArialMT-5f" transform="translate(294.628906 0)"/>
       <use xlink:href="#ArialMT-6d" transform="translate(350.244141 0)"/>
       <use xlink:href="#ArialMT-61" transform="translate(433.544922 0)"/>
       <use xlink:href="#ArialMT-78" transform="translate(489.160156 0)"/>
      </g>
      <!-- (deployed) -->
      <g style="fill: #262626" transform="translate(34.877823 253.143787) rotate(-20) scale(0.08 -0.08)">
       <defs>
        <path id="ArialMT-28" d="M 1497 -1347 
Q 1031 -759 709 28 
Q 388 816 388 1659 
Q 388 2403 628 3084 
Q 909 3875 1497 4659 
L 1900 4659 
Q 1522 4009 1400 3731 
Q 1209 3300 1100 2831 
Q 966 2247 966 1656 
Q 966 153 1900 -1347 
L 1497 -1347 
z
" transform="scale(0.015625)"/>
        <path id="ArialMT-64" d="M 2575 0 
L 2575 419 
Q 2259 -75 1647 -75 
Q 1250 -75 917 144 
Q 584 363 401 755 
Q 219 1147 219 1656 
Q 219 2153 384 2558 
Q 550 2963 881 3178 
Q 1213 3394 1622 3394 
Q 1922 3394 2156 3267 
Q 2391 3141 2538 2938 
L 2538 4581 
L 3097 4581 
L 3097 0 
L 2575 0 
z
M 797 1656 
Q 797 1019 1065 703 
Q 1334 388 1700 388 
Q 2069 388 2326 689 
Q 2584 991 2584 1609 
Q 2584 2291 2321 2609 
Q 2059 2928 1675 2928 
Q 1300 2928 1048 2622 
Q 797 2316 797 1656 
z
" transform="scale(0.015625)"/>
        <path id="ArialMT-70" d="M 422 -1272 
L 422 3319 
L 934 3319 
L 934 2888 
Q 1116 3141 1344 3267 
Q 1572 3394 1897 3394 
Q 2322 3394 2647 3175 
Q 2972 2956 3137 2557 
Q 3303 2159 3303 1684 
Q 3303 1175 3120 767 
Q 2938 359 2589 142 
Q 2241 -75 1856 -75 
Q 1575 -75 1351 44 
Q 1128 163 984 344 
L 984 -1272 
L 422 -1272 
z
M 931 1641 
Q 931 1000 1190 694 
Q 1450 388 1819 388 
Q 2194 388 2461 705 
Q 2728 1022 2728 1688 
Q 2728 2322 2467 2637 
Q 2206 2953 1844 2953 
Q 1484 2953 1207 2617 
Q 931 2281 931 1641 
z
" transform="scale(0.015625)"/>
        <path id="ArialMT-6c" d="M 409 0 
L 409 4581 
L 972 4581 
L 972 0 
L 409 0 
z
" transform="scale(0.015625)"/>
        <path id="ArialMT-6f" d="M 213 1659 
Q 213 2581 725 3025 
Q 1153 3394 1769 3394 
Q 2453 3394 2887 2945 
Q 3322 2497 3322 1706 
Q 3322 1066 3130 698 
Q 2938 331 2570 128 
Q 2203 -75 1769 -75 
Q 1072 -75 642 372 
Q 213 819 213 1659 
z
M 791 1659 
Q 791 1022 1069 705 
Q 1347 388 1769 388 
Q 2188 388 2466 706 
Q 2744 1025 2744 1678 
Q 2744 2294 2464 2611 
Q 2184 2928 1769 2928 
Q 1347 2928 1069 2612 
Q 791 2297 791 1659 
z
" transform="scale(0.015625)"/>
        <path id="ArialMT-79" d="M 397 -1278 
L 334 -750 
Q 519 -800 656 -800 
Q 844 -800 956 -737 
Q 1069 -675 1141 -563 
Q 1194 -478 1313 -144 
Q 1328 -97 1363 -6 
L 103 3319 
L 709 3319 
L 1400 1397 
Q 1534 1031 1641 628 
Q 1738 1016 1872 1384 
L 2581 3319 
L 3144 3319 
L 1881 -56 
Q 1678 -603 1566 -809 
Q 1416 -1088 1222 -1217 
Q 1028 -1347 759 -1347 
Q 597 -1347 397 -1278 
z
" transform="scale(0.015625)"/>
        <path id="ArialMT-29" d="M 791 -1347 
L 388 -1347 
Q 1322 153 1322 1656 
Q 1322 2244 1188 2822 
Q 1081 3291 891 3722 
Q 769 4003 388 4659 
L 791 4659 
Q 1378 3875 1659 3084 
Q 1900 2403 1900 1659 
Q 1900 816 1576 28 
Q 1253 -759 791 -1347 
z
" transform="scale(0.015625)"/>
       </defs>
       <use xlink:href="#ArialMT-28"/>
       <use xlink:href="#ArialMT-64" transform="translate(33.300781 0)"/>
       <use xlink:href="#ArialMT-65" transform="translate(88.916016 0)"/>
       <use xlink:href="#ArialMT-70" transform="translate(144.53125 0)"/>
       <use xlink:href="#ArialMT-6c" transform="translate(200.146484 0)"/>
       <use xlink:href="#ArialMT-6f" transform="translate(222.363281 0)"/>
       <use xlink:href="#ArialMT-79" transform="translate(277.978516 0)"/>
       <use xlink:href="#ArialMT-65" transform="translate(327.978516 0)"/>
       <use xlink:href="#ArialMT-64" transform="translate(383.59375 0)"/>
       <use xlink:href="#ArialMT-29" transform="translate(439.208984 0)"/>
      </g>
     </g>
    </g>
    <g id="xtick_2">
     <g id="line2d_2">
      <path d="M 110.526354 217.274212 
L 110.526354 20.479688 
" clip-path="url(#p9daae717a9)" style="fill: none; stroke: #cccccc; stroke-linecap: round"/>
     </g>
     <g id="text_2">
      <!-- bucket_middle -->
      <g style="fill: #262626" transform="translate(61.510848 249.797381) rotate(-20) scale(0.08 -0.08)">
       <defs>
        <path id="ArialMT-69" d="M 425 3934 
L 425 4581 
L 988 4581 
L 988 3934 
L 425 3934 
z
M 425 0 
L 425 3319 
L 988 3319 
L 988 0 
L 425 0 
z
" transform="scale(0.015625)"/>
       </defs>
       <use xlink:href="#ArialMT-62"/>
       <use xlink:href="#ArialMT-75" transform="translate(55.615234 0)"/>
       <use xlink:href="#ArialMT-63" transform="translate(111.230469 0)"/>
       <use xlink:href="#ArialMT-6b" transform="translate(161.230469 0)"/>
       <use xlink:href="#ArialMT-65" transform="translate(211.230469 0)"/>
       <use xlink:href="#ArialMT-74" transform="translate(266.845703 0)"/>
       <use xlink:href="#ArialMT-5f" transform="translate(294.628906 0)"/>
       <use xlink:href="#ArialMT-6d" transform="translate(350.244141 0)"/>
       <use xlink:href="#ArialMT-69" transform="translate(433.544922 0)"/>
       <use xlink:href="#ArialMT-64" transform="translate(455.761719 0)"/>
       <use xlink:href="#ArialMT-64" transform="translate(511.376953 0)"/>
       <use xlink:href="#ArialMT-6c" transform="translate(566.992188 0)"/>
       <use xlink:href="#ArialMT-65" transform="translate(589.208984 0)"/>
      </g>
     </g>
    </g>
    <g id="xtick_3">
     <g id="line2d_3">
      <path d="M 150.080978 217.274212 
L 150.080978 20.479688 
" clip-path="url(#p9daae717a9)" style="fill: none; stroke: #cccccc; stroke-linecap: round"/>
     </g>
     <g id="text_3">
      <!-- bucket_random -->
      <g style="fill: #262626" transform="translate(97.722514 251.014118) rotate(-20) scale(0.08 -0.08)">
       <defs>
        <path id="ArialMT-72" d="M 416 0 
L 416 3319 
L 922 3319 
L 922 2816 
Q 1116 3169 1280 3281 
Q 1444 3394 1641 3394 
Q 1925 3394 2219 3213 
L 2025 2691 
Q 1819 2813 1613 2813 
Q 1428 2813 1281 2702 
Q 1134 2591 1072 2394 
Q 978 2094 978 1738 
L 978 0 
L 416 0 
z
" transform="scale(0.015625)"/>
        <path id="ArialMT-6e" d="M 422 0 
L 422 3319 
L 928 3319 
L 928 2847 
Q 1294 3394 1984 3394 
Q 2284 3394 2536 3286 
Q 2788 3178 2913 3003 
Q 3038 2828 3088 2588 
Q 3119 2431 3119 2041 
L 3119 0 
L 2556 0 
L 2556 2019 
Q 2556 2363 2490 2533 
Q 2425 2703 2258 2804 
Q 2091 2906 1866 2906 
Q 1506 2906 1245 2678 
Q 984 2450 984 1813 
L 984 0 
L 422 0 
z
" transform="scale(0.015625)"/>
       </defs>
       <use xlink:href="#ArialMT-62"/>
       <use xlink:href="#ArialMT-75" transform="translate(55.615234 0)"/>
       <use xlink:href="#ArialMT-63" transform="translate(111.230469 0)"/>
       <use xlink:href="#ArialMT-6b" transform="translate(161.230469 0)"/>
       <use xlink:href="#ArialMT-65" transform="translate(211.230469 0)"/>
       <use xlink:href="#ArialMT-74" transform="translate(266.845703 0)"/>
       <use xlink:href="#ArialMT-5f" transform="translate(294.628906 0)"/>
       <use xlink:href="#ArialMT-72" transform="translate(350.244141 0)"/>
       <use xlink:href="#ArialMT-61" transform="translate(383.544922 0)"/>
       <use xlink:href="#ArialMT-6e" transform="translate(439.160156 0)"/>
       <use xlink:href="#ArialMT-64" transform="translate(494.775391 0)"/>
       <use xlink:href="#ArialMT-6f" transform="translate(550.390625 0)"/>
       <use xlink:href="#ArialMT-6d" transform="translate(606.005859 0)"/>
      </g>
     </g>
    </g>
    <g id="xtick_4">
     <g id="line2d_4">
      <path d="M 189.635601 217.274212 
L 189.635601 20.479688 
" clip-path="url(#p9daae717a9)" style="fill: none; stroke: #cccccc; stroke-linecap: round"/>
     </g>
     <g id="text_4">
      <!-- trim_10 -->
      <g style="fill: #262626" transform="translate(164.026663 241.300405) rotate(-20) scale(0.08 -0.08)">
       <defs>
        <path id="ArialMT-31" d="M 2384 0 
L 1822 0 
L 1822 3584 
Q 1619 3391 1289 3197 
Q 959 3003 697 2906 
L 697 3450 
Q 1169 3672 1522 3987 
Q 1875 4303 2022 4600 
L 2384 4600 
L 2384 0 
z
" transform="scale(0.015625)"/>
        <path id="ArialMT-30" d="M 266 2259 
Q 266 3072 433 3567 
Q 600 4063 929 4331 
Q 1259 4600 1759 4600 
Q 2128 4600 2406 4451 
Q 2684 4303 2865 4023 
Q 3047 3744 3150 3342 
Q 3253 2941 3253 2259 
Q 3253 1453 3087 958 
Q 2922 463 2592 192 
Q 2263 -78 1759 -78 
Q 1097 -78 719 397 
Q 266 969 266 2259 
z
M 844 2259 
Q 844 1131 1108 757 
Q 1372 384 1759 384 
Q 2147 384 2411 759 
Q 2675 1134 2675 2259 
Q 2675 3391 2411 3762 
Q 2147 4134 1753 4134 
Q 1366 4134 1134 3806 
Q 844 3388 844 2259 
z
" transform="scale(0.015625)"/>
       </defs>
       <use xlink:href="#ArialMT-74"/>
       <use xlink:href="#ArialMT-72" transform="translate(27.783203 0)"/>
       <use xlink:href="#ArialMT-69" transform="translate(61.083984 0)"/>
       <use xlink:href="#ArialMT-6d" transform="translate(83.300781 0)"/>
       <use xlink:href="#ArialMT-5f" transform="translate(166.601562 0)"/>
       <use xlink:href="#ArialMT-31" transform="translate(222.216797 0)"/>
       <use xlink:href="#ArialMT-30" transform="translate(277.832031 0)"/>
      </g>
     </g>
    </g>
    <g id="xtick_5">
     <g id="line2d_5">
      <path d="M 229.190224 217.274212 
L 229.190224 20.479688 
" clip-path="url(#p9daae717a9)" style="fill: none; stroke: #cccccc; stroke-linecap: round"/>
     </g>
     <g id="text_5">
      <!-- trim_20 -->
      <g style="fill: #262626" transform="translate(203.581286 241.300405) rotate(-20) scale(0.08 -0.08)">
       <defs>
        <path id="ArialMT-32" d="M 3222 541 
L 3222 0 
L 194 0 
Q 188 203 259 391 
Q 375 700 629 1000 
Q 884 1300 1366 1694 
Q 2113 2306 2375 2664 
Q 2638 3022 2638 3341 
Q 2638 3675 2398 3904 
Q 2159 4134 1775 4134 
Q 1369 4134 1125 3890 
Q 881 3647 878 3216 
L 300 3275 
Q 359 3922 746 4261 
Q 1134 4600 1788 4600 
Q 2447 4600 2831 4234 
Q 3216 3869 3216 3328 
Q 3216 3053 3103 2787 
Q 2991 2522 2730 2228 
Q 2469 1934 1863 1422 
Q 1356 997 1212 845 
Q 1069 694 975 541 
L 3222 541 
z
" transform="scale(0.015625)"/>
       </defs>
       <use xlink:href="#ArialMT-74"/>
       <use xlink:href="#ArialMT-72" transform="translate(27.783203 0)"/>
       <use xlink:href="#ArialMT-69" transform="translate(61.083984 0)"/>
       <use xlink:href="#ArialMT-6d" transform="translate(83.300781 0)"/>
       <use xlink:href="#ArialMT-5f" transform="translate(166.601562 0)"/>
       <use xlink:href="#ArialMT-32" transform="translate(222.216797 0)"/>
       <use xlink:href="#ArialMT-30" transform="translate(277.832031 0)"/>
      </g>
     </g>
    </g>
    <g id="xtick_6">
     <g id="line2d_6">
      <path d="M 268.744847 217.274212 
L 268.744847 20.479688 
" clip-path="url(#p9daae717a9)" style="fill: none; stroke: #cccccc; stroke-linecap: round"/>
     </g>
     <g id="text_6">
      <!-- bucket_min -->
      <g style="fill: #262626" transform="translate(229.760559 246.146316) rotate(-20) scale(0.08 -0.08)">
       <use xlink:href="#ArialMT-62"/>
       <use xlink:href="#ArialMT-75" transform="translate(55.615234 0)"/>
       <use xlink:href="#ArialMT-63" transform="translate(111.230469 0)"/>
       <use xlink:href="#ArialMT-6b" transform="translate(161.230469 0)"/>
       <use xlink:href="#ArialMT-65" transform="translate(211.230469 0)"/>
       <use xlink:href="#ArialMT-74" transform="translate(266.845703 0)"/>
       <use xlink:href="#ArialMT-5f" transform="translate(294.628906 0)"/>
       <use xlink:href="#ArialMT-6d" transform="translate(350.244141 0)"/>
       <use xlink:href="#ArialMT-69" transform="translate(433.544922 0)"/>
       <use xlink:href="#ArialMT-6e" transform="translate(455.761719 0)"/>
      </g>
     </g>
    </g>
   </g>
   <g id="matplotlib.axis_2">
    <g id="ytick_1">
     <g id="line2d_7">
      <path d="M 48.963539 217.274212 
L 290.753039 217.274212 
" clip-path="url(#p9daae717a9)" style="fill: none; stroke: #cccccc; stroke-linecap: round"/>
     </g>
     <g id="text_7">
      <!-- 0 -->
      <g style="fill: #262626" transform="translate(33.652359 221.014169) scale(0.1045 -0.1045)">
       <use xlink:href="#ArialMT-30"/>
      </g>
     </g>
    </g>
    <g id="ytick_2">
     <g id="line2d_8">
      <path d="M 48.963539 193.301309 
L 290.753039 193.301309 
" clip-path="url(#p9daae717a9)" style="fill: none; stroke: #cccccc; stroke-linecap: round"/>
     </g>
     <g id="text_8">
      <!-- 20 -->
      <g style="fill: #262626" transform="translate(27.84118 197.041266) scale(0.1045 -0.1045)">
       <use xlink:href="#ArialMT-32"/>
       <use xlink:href="#ArialMT-30" transform="translate(55.615234 0)"/>
      </g>
     </g>
    </g>
    <g id="ytick_3">
     <g id="line2d_9">
      <path d="M 48.963539 169.328405 
L 290.753039 169.328405 
" clip-path="url(#p9daae717a9)" style="fill: none; stroke: #cccccc; stroke-linecap: round"/>
     </g>
     <g id="text_9">
      <!-- 40 -->
      <g style="fill: #262626" transform="translate(27.84118 173.068362) scale(0.1045 -0.1045)">
       <defs>
        <path id="ArialMT-34" d="M 2069 0 
L 2069 1097 
L 81 1097 
L 81 1613 
L 2172 4581 
L 2631 4581 
L 2631 1613 
L 3250 1613 
L 3250 1097 
L 2631 1097 
L 2631 0 
L 2069 0 
z
M 2069 1613 
L 2069 3678 
L 634 1613 
L 2069 1613 
z
" transform="scale(0.015625)"/>
       </defs>
       <use xlink:href="#ArialMT-34"/>
       <use xlink:href="#ArialMT-30" transform="translate(55.615234 0)"/>
      </g>
     </g>
    </g>
    <g id="ytick_4">
     <g id="line2d_10">
      <path d="M 48.963539 145.355501 
L 290.753039 145.355501 
" clip-path="url(#p9daae717a9)" style="fill: none; stroke: #cccccc; stroke-linecap: round"/>
     </g>
     <g id="text_10">
      <!-- 60 -->
      <g style="fill: #262626" transform="translate(27.84118 149.095458) scale(0.1045 -0.1045)">
       <defs>
        <path id="ArialMT-36" d="M 3184 3459 
L 2625 3416 
Q 2550 3747 2413 3897 
Q 2184 4138 1850 4138 
Q 1581 4138 1378 3988 
Q 1113 3794 959 3422 
Q 806 3050 800 2363 
Q 1003 2672 1297 2822 
Q 1591 2972 1913 2972 
Q 2475 2972 2870 2558 
Q 3266 2144 3266 1488 
Q 3266 1056 3080 686 
Q 2894 316 2569 119 
Q 2244 -78 1831 -78 
Q 1128 -78 684 439 
Q 241 956 241 2144 
Q 241 3472 731 4075 
Q 1159 4600 1884 4600 
Q 2425 4600 2770 4297 
Q 3116 3994 3184 3459 
z
M 888 1484 
Q 888 1194 1011 928 
Q 1134 663 1356 523 
Q 1578 384 1822 384 
Q 2178 384 2434 671 
Q 2691 959 2691 1453 
Q 2691 1928 2437 2201 
Q 2184 2475 1800 2475 
Q 1419 2475 1153 2201 
Q 888 1928 888 1484 
z
" transform="scale(0.015625)"/>
       </defs>
       <use xlink:href="#ArialMT-36"/>
       <use xlink:href="#ArialMT-30" transform="translate(55.615234 0)"/>
      </g>
     </g>
    </g>
    <g id="ytick_5">
     <g id="line2d_11">
      <path d="M 48.963539 121.382598 
L 290.753039 121.382598 
" clip-path="url(#p9daae717a9)" style="fill: none; stroke: #cccccc; stroke-linecap: round"/>
     </g>
     <g id="text_11">
      <!-- 80 -->
      <g style="fill: #262626" transform="translate(27.84118 125.122555) scale(0.1045 -0.1045)">
       <defs>
        <path id="ArialMT-38" d="M 1131 2484 
Q 781 2613 612 2850 
Q 444 3088 444 3419 
Q 444 3919 803 4259 
Q 1163 4600 1759 4600 
Q 2359 4600 2725 4251 
Q 3091 3903 3091 3403 
Q 3091 3084 2923 2848 
Q 2756 2613 2416 2484 
Q 2838 2347 3058 2040 
Q 3278 1734 3278 1309 
Q 3278 722 2862 322 
Q 2447 -78 1769 -78 
Q 1091 -78 675 323 
Q 259 725 259 1325 
Q 259 1772 486 2073 
Q 713 2375 1131 2484 
z
M 1019 3438 
Q 1019 3113 1228 2906 
Q 1438 2700 1772 2700 
Q 2097 2700 2305 2904 
Q 2513 3109 2513 3406 
Q 2513 3716 2298 3927 
Q 2084 4138 1766 4138 
Q 1444 4138 1231 3931 
Q 1019 3725 1019 3438 
z
M 838 1322 
Q 838 1081 952 856 
Q 1066 631 1291 507 
Q 1516 384 1775 384 
Q 2178 384 2440 643 
Q 2703 903 2703 1303 
Q 2703 1709 2433 1975 
Q 2163 2241 1756 2241 
Q 1359 2241 1098 1978 
Q 838 1716 838 1322 
z
" transform="scale(0.015625)"/>
       </defs>
       <use xlink:href="#ArialMT-38"/>
       <use xlink:href="#ArialMT-30" transform="translate(55.615234 0)"/>
      </g>
     </g>
    </g>
    <g id="ytick_6">
     <g id="line2d_12">
      <path d="M 48.963539 97.409694 
L 290.753039 97.409694 
" clip-path="url(#p9daae717a9)" style="fill: none; stroke: #cccccc; stroke-linecap: round"/>
     </g>
     <g id="text_12">
      <!-- 100 -->
      <g style="fill: #262626" transform="translate(22.03 101.149651) scale(0.1045 -0.1045)">
       <use xlink:href="#ArialMT-31"/>
       <use xlink:href="#ArialMT-30" transform="translate(55.615234 0)"/>
       <use xlink:href="#ArialMT-30" transform="translate(111.230469 0)"/>
      </g>
     </g>
    </g>
    <g id="ytick_7">
     <g id="line2d_13">
      <path d="M 48.963539 73.43679 
L 290.753039 73.43679 
" clip-path="url(#p9daae717a9)" style="fill: none; stroke: #cccccc; stroke-linecap: round"/>
     </g>
     <g id="text_13">
      <!-- 120 -->
      <g style="fill: #262626" transform="translate(22.03 77.176748) scale(0.1045 -0.1045)">
       <use xlink:href="#ArialMT-31"/>
       <use xlink:href="#ArialMT-32" transform="translate(55.615234 0)"/>
       <use xlink:href="#ArialMT-30" transform="translate(111.230469 0)"/>
      </g>
     </g>
    </g>
    <g id="ytick_8">
     <g id="line2d_14">
      <path d="M 48.963539 49.463887 
L 290.753039 49.463887 
" clip-path="url(#p9daae717a9)" style="fill: none; stroke: #cccccc; stroke-linecap: round"/>
     </g>
     <g id="text_14">
      <!-- 140 -->
      <g style="fill: #262626" transform="translate(22.03 53.203844) scale(0.1045 -0.1045)">
       <use xlink:href="#ArialMT-31"/>
       <use xlink:href="#ArialMT-34" transform="translate(55.615234 0)"/>
       <use xlink:href="#ArialMT-30" transform="translate(111.230469 0)"/>
      </g>
     </g>
    </g>
    <g id="ytick_9">
     <g id="line2d_15">
      <path d="M 48.963539 25.490983 
L 290.753039 25.490983 
" clip-path="url(#p9daae717a9)" style="fill: none; stroke: #cccccc; stroke-linecap: round"/>
     </g>
     <g id="text_15">
      <!-- 160 -->
      <g style="fill: #262626" transform="translate(22.03 29.23094) scale(0.1045 -0.1045)">
       <use xlink:href="#ArialMT-31"/>
       <use xlink:href="#ArialMT-36" transform="translate(55.615234 0)"/>
       <use xlink:href="#ArialMT-30" transform="translate(111.230469 0)"/>
      </g>
     </g>
    </g>
    <g id="text_16">
     <!-- CVaR$_{95}$ (m/s) -->
     <g style="fill: #262626" transform="translate(15.522 153.93195) rotate(-90) scale(0.114 -0.114)">
      <defs>
       <path id="ArialMT-43" d="M 3763 1606 
L 4369 1453 
Q 4178 706 3683 314 
Q 3188 -78 2472 -78 
Q 1731 -78 1267 223 
Q 803 525 561 1097 
Q 319 1669 319 2325 
Q 319 3041 592 3573 
Q 866 4106 1370 4382 
Q 1875 4659 2481 4659 
Q 3169 4659 3637 4309 
Q 4106 3959 4291 3325 
L 3694 3184 
Q 3534 3684 3231 3912 
Q 2928 4141 2469 4141 
Q 1941 4141 1586 3887 
Q 1231 3634 1087 3207 
Q 944 2781 944 2328 
Q 944 1744 1114 1308 
Q 1284 872 1643 656 
Q 2003 441 2422 441 
Q 2931 441 3284 734 
Q 3638 1028 3763 1606 
z
" transform="scale(0.015625)"/>
       <path id="ArialMT-56" d="M 1803 0 
L 28 4581 
L 684 4581 
L 1875 1253 
Q 2019 853 2116 503 
Q 2222 878 2363 1253 
L 3600 4581 
L 4219 4581 
L 2425 0 
L 1803 0 
z
" transform="scale(0.015625)"/>
       <path id="ArialMT-52" d="M 503 0 
L 503 4581 
L 2534 4581 
Q 3147 4581 3465 4457 
Q 3784 4334 3975 4021 
Q 4166 3709 4166 3331 
Q 4166 2844 3850 2509 
Q 3534 2175 2875 2084 
Q 3116 1969 3241 1856 
Q 3506 1613 3744 1247 
L 4541 0 
L 3778 0 
L 3172 953 
Q 2906 1366 2734 1584 
Q 2563 1803 2427 1890 
Q 2291 1978 2150 2013 
Q 2047 2034 1813 2034 
L 1109 2034 
L 1109 0 
L 503 0 
z
M 1109 2559 
L 2413 2559 
Q 2828 2559 3062 2645 
Q 3297 2731 3419 2920 
Q 3541 3109 3541 3331 
Q 3541 3656 3305 3865 
Q 3069 4075 2559 4075 
L 1109 4075 
L 1109 2559 
z
" transform="scale(0.015625)"/>
       <path id="DejaVuSans-39" d="M 703 97 
L 703 672 
Q 941 559 1184 500 
Q 1428 441 1663 441 
Q 2288 441 2617 861 
Q 2947 1281 2994 2138 
Q 2813 1869 2534 1725 
Q 2256 1581 1919 1581 
Q 1219 1581 811 2004 
Q 403 2428 403 3163 
Q 403 3881 828 4315 
Q 1253 4750 1959 4750 
Q 2769 4750 3195 4129 
Q 3622 3509 3622 2328 
Q 3622 1225 3098 567 
Q 2575 -91 1691 -91 
Q 1453 -91 1209 -44 
Q 966 3 703 97 
z
M 1959 2075 
Q 2384 2075 2632 2365 
Q 2881 2656 2881 3163 
Q 2881 3666 2632 3958 
Q 2384 4250 1959 4250 
Q 1534 4250 1286 3958 
Q 1038 3666 1038 3163 
Q 1038 2656 1286 2365 
Q 1534 2075 1959 2075 
z
" transform="scale(0.015625)"/>
       <path id="DejaVuSans-35" d="M 691 4666 
L 3169 4666 
L 3169 4134 
L 1269 4134 
L 1269 2991 
Q 1406 3038 1543 3061 
Q 1681 3084 1819 3084 
Q 2600 3084 3056 2656 
Q 3513 2228 3513 1497 
Q 3513 744 3044 326 
Q 2575 -91 1722 -91 
Q 1428 -91 1123 -41 
Q 819 9 494 109 
L 494 744 
Q 775 591 1075 516 
Q 1375 441 1709 441 
Q 2250 441 2565 725 
Q 2881 1009 2881 1497 
Q 2881 1984 2565 2268 
Q 2250 2553 1709 2553 
Q 1456 2553 1204 2497 
Q 953 2441 691 2322 
L 691 4666 
z
" transform="scale(0.015625)"/>
       <path id="ArialMT-20" transform="scale(0.015625)"/>
       <path id="ArialMT-2f" d="M 0 -78 
L 1328 4659 
L 1778 4659 
L 453 -78 
L 0 -78 
z
" transform="scale(0.015625)"/>
       <path id="ArialMT-73" d="M 197 991 
L 753 1078 
Q 800 744 1014 566 
Q 1228 388 1613 388 
Q 2000 388 2187 545 
Q 2375 703 2375 916 
Q 2375 1106 2209 1216 
Q 2094 1291 1634 1406 
Q 1016 1563 777 1677 
Q 538 1791 414 1992 
Q 291 2194 291 2438 
Q 291 2659 392 2848 
Q 494 3038 669 3163 
Q 800 3259 1026 3326 
Q 1253 3394 1513 3394 
Q 1903 3394 2198 3281 
Q 2494 3169 2634 2976 
Q 2775 2784 2828 2463 
L 2278 2388 
Q 2241 2644 2061 2787 
Q 1881 2931 1553 2931 
Q 1166 2931 1000 2803 
Q 834 2675 834 2503 
Q 834 2394 903 2306 
Q 972 2216 1119 2156 
Q 1203 2125 1616 2013 
Q 2213 1853 2448 1751 
Q 2684 1650 2818 1456 
Q 2953 1263 2953 975 
Q 2953 694 2789 445 
Q 2625 197 2315 61 
Q 2006 -75 1616 -75 
Q 969 -75 630 194 
Q 291 463 197 991 
z
" transform="scale(0.015625)"/>
      </defs>
      <use xlink:href="#ArialMT-43" transform="translate(0 0.203125)"/>
      <use xlink:href="#ArialMT-56" transform="translate(72.216797 0.203125)"/>
      <use xlink:href="#ArialMT-61" transform="translate(138.916016 0.203125)"/>
      <use xlink:href="#ArialMT-52" transform="translate(194.53125 0.203125)"/>
      <use xlink:href="#DejaVuSans-39" transform="translate(267.705078 -16.203125) scale(0.7)"/>
      <use xlink:href="#DejaVuSans-35" transform="translate(312.241211 -16.203125) scale(0.7)"/>
      <use xlink:href="#ArialMT-20" transform="translate(359.511719 0.203125)"/>
      <use xlink:href="#ArialMT-28" transform="translate(387.294922 0.203125)"/>
      <use xlink:href="#ArialMT-6d" transform="translate(420.595703 0.203125)"/>
      <use xlink:href="#ArialMT-2f" transform="translate(503.896484 0.203125)"/>
      <use xlink:href="#ArialMT-73" transform="translate(531.679688 0.203125)"/>
      <use xlink:href="#ArialMT-29" transform="translate(581.679688 0.203125)"/>
     </g>
    </g>
   </g>
   <g id="line2d_16">
    <path d="M 48.963539 52.316662 
L 290.753039 52.316662 
" clip-path="url(#p9daae717a9)" style="fill: none; stroke-dasharray: 3.33,1.44; stroke-dashoffset: 0; stroke: #d1701f; stroke-width: 0.9"/>
   </g>
   <g id="patch_3">
    <path d="M 48.963539 217.274212 
L 48.963539 20.479688 
" style="fill: none; stroke: #cccccc; stroke-width: 1.25; stroke-linejoin: miter; stroke-linecap: square"/>
   </g>
   <g id="patch_4">
    <path d="M 290.753039 217.274212 
L 290.753039 20.479688 
" style="fill: none; stroke: #cccccc; stroke-width: 1.25; stroke-linejoin: miter; stroke-linecap: square"/>
   </g>
   <g id="patch_5">
    <path d="M 48.963539 217.274212 
L 290.753039 217.274212 
" style="fill: none; stroke: #cccccc; stroke-width: 1.25; stroke-linejoin: miter; stroke-linecap: square"/>
   </g>
   <g id="patch_6">
    <path d="M 48.963539 20.479688 
L 290.753039 20.479688 
" style="fill: none; stroke: #cccccc; stroke-width: 1.25; stroke-linejoin: miter; stroke-linecap: square"/>
   </g>
   <g id="patch_7">
    <path d="M 57.918706 217.274212 
L 84.024757 217.274212 
L 84.024757 52.316662 
L 57.918706 52.316662 
z
" clip-path="url(#p9daae717a9)" style="fill: #d1701f; stroke: #ffffff; stroke-linejoin: miter"/>
   </g>
   <g id="patch_8">
    <path d="M 97.473329 217.274212 
L 123.57938 217.274212 
L 123.57938 51.729326 
L 97.473329 51.729326 
z
" clip-path="url(#p9daae717a9)" style="fill: #4878cf; stroke: #ffffff; stroke-linejoin: miter"/>
   </g>
   <g id="patch_9">
    <path d="M 137.027952 217.274212 
L 163.134003 217.274212 
L 163.134003 45.532331 
L 137.027952 45.532331 
z
" clip-path="url(#p9daae717a9)" style="fill: #4878cf; stroke: #ffffff; stroke-linejoin: miter"/>
   </g>
   <g id="patch_10">
    <path d="M 176.582575 217.274212 
L 202.688626 217.274212 
L 202.688626 47.030637 
L 176.582575 47.030637 
z
" clip-path="url(#p9daae717a9)" style="fill: #4878cf; stroke: #ffffff; stroke-linejoin: miter"/>
   </g>
   <g id="patch_11">
    <path d="M 216.137198 217.274212 
L 242.243249 217.274212 
L 242.243249 43.159013 
L 216.137198 43.159013 
z
" clip-path="url(#p9daae717a9)" style="fill: #4878cf; stroke: #ffffff; stroke-linejoin: miter"/>
   </g>
   <g id="patch_12">
    <path d="M 255.691821 217.274212 
L 281.797872 217.274212 
L 281.797872 41.564815 
L 255.691821 41.564815 
z
" clip-path="url(#p9daae717a9)" style="fill: #4878cf; stroke: #ffffff; stroke-linejoin: miter"/>
   </g>
   <g id="text_17">
    <!-- 137.6 -->
    <g style="fill: #333333" transform="translate(61.588528 50.836584) scale(0.075 -0.075)">
     <defs>
      <path id="Arial-BoldMT-31" d="M 2519 0 
L 1641 0 
L 1641 3309 
Q 1159 2859 506 2644 
L 506 3441 
Q 850 3553 1253 3867 
Q 1656 4181 1806 4600 
L 2519 4600 
L 2519 0 
z
" transform="scale(0.015625)"/>
      <path id="Arial-BoldMT-33" d="M 241 1216 
L 1091 1319 
Q 1131 994 1309 822 
Q 1488 650 1741 650 
Q 2013 650 2198 856 
Q 2384 1063 2384 1413 
Q 2384 1744 2206 1937 
Q 2028 2131 1772 2131 
Q 1603 2131 1369 2066 
L 1466 2781 
Q 1822 2772 2009 2936 
Q 2197 3100 2197 3372 
Q 2197 3603 2059 3740 
Q 1922 3878 1694 3878 
Q 1469 3878 1309 3722 
Q 1150 3566 1116 3266 
L 306 3403 
Q 391 3819 561 4067 
Q 731 4316 1036 4458 
Q 1341 4600 1719 4600 
Q 2366 4600 2756 4188 
Q 3078 3850 3078 3425 
Q 3078 2822 2419 2463 
Q 2813 2378 3048 2084 
Q 3284 1791 3284 1375 
Q 3284 772 2843 347 
Q 2403 -78 1747 -78 
Q 1125 -78 715 280 
Q 306 638 241 1216 
z
" transform="scale(0.015625)"/>
      <path id="Arial-BoldMT-37" d="M 272 3703 
L 272 4519 
L 3275 4519 
L 3275 3881 
Q 2903 3516 2518 2831 
Q 2134 2147 1932 1376 
Q 1731 606 1734 0 
L 888 0 
Q 909 950 1279 1937 
Q 1650 2925 2269 3703 
L 272 3703 
z
" transform="scale(0.015625)"/>
      <path id="Arial-BoldMT-2e" d="M 459 0 
L 459 878 
L 1338 878 
L 1338 0 
L 459 0 
z
" transform="scale(0.015625)"/>
      <path id="Arial-BoldMT-36" d="M 3247 3459 
L 2397 3366 
Q 2366 3628 2234 3753 
Q 2103 3878 1894 3878 
Q 1616 3878 1423 3628 
Q 1231 3378 1181 2588 
Q 1509 2975 1997 2975 
Q 2547 2975 2939 2556 
Q 3331 2138 3331 1475 
Q 3331 772 2918 347 
Q 2506 -78 1859 -78 
Q 1166 -78 719 461 
Q 272 1000 272 2228 
Q 272 3488 737 4044 
Q 1203 4600 1947 4600 
Q 2469 4600 2811 4308 
Q 3153 4016 3247 3459 
z
M 1256 1544 
Q 1256 1116 1453 883 
Q 1650 650 1903 650 
Q 2147 650 2309 840 
Q 2472 1031 2472 1466 
Q 2472 1913 2297 2120 
Q 2122 2328 1859 2328 
Q 1606 2328 1431 2129 
Q 1256 1931 1256 1544 
z
" transform="scale(0.015625)"/>
     </defs>
     <use xlink:href="#Arial-BoldMT-31"/>
     <use xlink:href="#Arial-BoldMT-33" transform="translate(55.615234 0)"/>
     <use xlink:href="#Arial-BoldMT-37" transform="translate(111.230469 0)"/>
     <use xlink:href="#Arial-BoldMT-2e" transform="translate(166.845703 0)"/>
     <use xlink:href="#Arial-BoldMT-36" transform="translate(194.628906 0)"/>
    </g>
   </g>
   <g id="text_18">
    <!-- 138.1 -->
    <g style="fill: #333333" transform="translate(101.143151 50.249248) scale(0.075 -0.075)">
     <defs>
      <path id="Arial-BoldMT-38" d="M 1025 2472 
Q 684 2616 529 2867 
Q 375 3119 375 3419 
Q 375 3931 733 4265 
Q 1091 4600 1750 4600 
Q 2403 4600 2764 4265 
Q 3125 3931 3125 3419 
Q 3125 3100 2959 2851 
Q 2794 2603 2494 2472 
Q 2875 2319 3073 2025 
Q 3272 1731 3272 1347 
Q 3272 713 2867 316 
Q 2463 -81 1791 -81 
Q 1166 -81 750 247 
Q 259 634 259 1309 
Q 259 1681 443 1992 
Q 628 2303 1025 2472 
z
M 1206 3356 
Q 1206 3094 1354 2947 
Q 1503 2800 1750 2800 
Q 2000 2800 2150 2948 
Q 2300 3097 2300 3359 
Q 2300 3606 2151 3754 
Q 2003 3903 1759 3903 
Q 1506 3903 1356 3753 
Q 1206 3603 1206 3356 
z
M 1125 1394 
Q 1125 1031 1311 828 
Q 1497 625 1775 625 
Q 2047 625 2225 820 
Q 2403 1016 2403 1384 
Q 2403 1706 2222 1901 
Q 2041 2097 1763 2097 
Q 1441 2097 1283 1875 
Q 1125 1653 1125 1394 
z
" transform="scale(0.015625)"/>
     </defs>
     <use xlink:href="#Arial-BoldMT-31"/>
     <use xlink:href="#Arial-BoldMT-33" transform="translate(55.615234 0)"/>
     <use xlink:href="#Arial-BoldMT-38" transform="translate(111.230469 0)"/>
     <use xlink:href="#Arial-BoldMT-2e" transform="translate(166.845703 0)"/>
     <use xlink:href="#Arial-BoldMT-31" transform="translate(194.628906 0)"/>
    </g>
   </g>
   <g id="text_19">
    <!-- 143.3 -->
    <g style="fill: #333333" transform="translate(140.697774 44.052253) scale(0.075 -0.075)">
     <defs>
      <path id="Arial-BoldMT-34" d="M 1994 0 
L 1994 922 
L 119 922 
L 119 1691 
L 2106 4600 
L 2844 4600 
L 2844 1694 
L 3413 1694 
L 3413 922 
L 2844 922 
L 2844 0 
L 1994 0 
z
M 1994 1694 
L 1994 3259 
L 941 1694 
L 1994 1694 
z
" transform="scale(0.015625)"/>
     </defs>
     <use xlink:href="#Arial-BoldMT-31"/>
     <use xlink:href="#Arial-BoldMT-34" transform="translate(55.615234 0)"/>
     <use xlink:href="#Arial-BoldMT-33" transform="translate(111.230469 0)"/>
     <use xlink:href="#Arial-BoldMT-2e" transform="translate(166.845703 0)"/>
     <use xlink:href="#Arial-BoldMT-33" transform="translate(194.628906 0)"/>
    </g>
   </g>
   <g id="text_20">
    <!-- 142.0 -->
    <g style="fill: #333333" transform="translate(180.252397 45.550559) scale(0.075 -0.075)">
     <defs>
      <path id="Arial-BoldMT-32" d="M 3238 816 
L 3238 0 
L 159 0 
Q 209 463 459 877 
Q 709 1291 1447 1975 
Q 2041 2528 2175 2725 
Q 2356 2997 2356 3263 
Q 2356 3556 2198 3714 
Q 2041 3872 1763 3872 
Q 1488 3872 1325 3706 
Q 1163 3541 1138 3156 
L 263 3244 
Q 341 3969 753 4284 
Q 1166 4600 1784 4600 
Q 2463 4600 2850 4234 
Q 3238 3869 3238 3325 
Q 3238 3016 3127 2736 
Q 3016 2456 2775 2150 
Q 2616 1947 2200 1565 
Q 1784 1184 1673 1059 
Q 1563 934 1494 816 
L 3238 816 
z
" transform="scale(0.015625)"/>
      <path id="Arial-BoldMT-30" d="M 1756 4600 
Q 2422 4600 2797 4125 
Q 3244 3563 3244 2259 
Q 3244 959 2794 391 
Q 2422 -78 1756 -78 
Q 1088 -78 678 436 
Q 269 950 269 2269 
Q 269 3563 719 4131 
Q 1091 4600 1756 4600 
z
M 1756 3872 
Q 1597 3872 1472 3770 
Q 1347 3669 1278 3406 
Q 1188 3066 1188 2259 
Q 1188 1453 1269 1151 
Q 1350 850 1473 750 
Q 1597 650 1756 650 
Q 1916 650 2041 751 
Q 2166 853 2234 1116 
Q 2325 1453 2325 2259 
Q 2325 3066 2244 3367 
Q 2163 3669 2039 3770 
Q 1916 3872 1756 3872 
z
" transform="scale(0.015625)"/>
     </defs>
     <use xlink:href="#Arial-BoldMT-31"/>
     <use xlink:href="#Arial-BoldMT-34" transform="translate(55.615234 0)"/>
     <use xlink:href="#Arial-BoldMT-32" transform="translate(111.230469 0)"/>
     <use xlink:href="#Arial-BoldMT-2e" transform="translate(166.845703 0)"/>
     <use xlink:href="#Arial-BoldMT-30" transform="translate(194.628906 0)"/>
    </g>
   </g>
   <g id="text_21">
    <!-- 145.3 -->
    <g style="fill: #333333" transform="translate(219.807021 41.678935) scale(0.075 -0.075)">
     <defs>
      <path id="Arial-BoldMT-35" d="M 284 1178 
L 1159 1269 
Q 1197 972 1381 798 
Q 1566 625 1806 625 
Q 2081 625 2272 848 
Q 2463 1072 2463 1522 
Q 2463 1944 2273 2155 
Q 2084 2366 1781 2366 
Q 1403 2366 1103 2031 
L 391 2134 
L 841 4519 
L 3163 4519 
L 3163 3697 
L 1506 3697 
L 1369 2919 
Q 1663 3066 1969 3066 
Q 2553 3066 2959 2641 
Q 3366 2216 3366 1538 
Q 3366 972 3038 528 
Q 2591 -78 1797 -78 
Q 1163 -78 763 262 
Q 363 603 284 1178 
z
" transform="scale(0.015625)"/>
     </defs>
     <use xlink:href="#Arial-BoldMT-31"/>
     <use xlink:href="#Arial-BoldMT-34" transform="translate(55.615234 0)"/>
     <use xlink:href="#Arial-BoldMT-35" transform="translate(111.230469 0)"/>
     <use xlink:href="#Arial-BoldMT-2e" transform="translate(166.845703 0)"/>
     <use xlink:href="#Arial-BoldMT-33" transform="translate(194.628906 0)"/>
    </g>
   </g>
   <g id="text_22">
    <!-- 146.6 -->
    <g style="fill: #333333" transform="translate(259.361644 40.084737) scale(0.075 -0.075)">
     <use xlink:href="#Arial-BoldMT-31"/>
     <use xlink:href="#Arial-BoldMT-34" transform="translate(55.615234 0)"/>
     <use xlink:href="#Arial-BoldMT-36" transform="translate(111.230469 0)"/>
     <use xlink:href="#Arial-BoldMT-2e" transform="translate(166.845703 0)"/>
     <use xlink:href="#Arial-BoldMT-36" transform="translate(194.628906 0)"/>
    </g>
   </g>
   <g id="text_23">
    <!-- Seed-curation bucket + trim ablation (sizing tail) -->
    <g style="fill: #262626" transform="translate(48.963539 14.479688) scale(0.1 -0.1)">
     <defs>
      <path id="ArialMT-53" d="M 288 1472 
L 859 1522 
Q 900 1178 1048 958 
Q 1197 738 1509 602 
Q 1822 466 2213 466 
Q 2559 466 2825 569 
Q 3091 672 3220 851 
Q 3350 1031 3350 1244 
Q 3350 1459 3225 1620 
Q 3100 1781 2813 1891 
Q 2628 1963 1997 2114 
Q 1366 2266 1113 2400 
Q 784 2572 623 2826 
Q 463 3081 463 3397 
Q 463 3744 659 4045 
Q 856 4347 1234 4503 
Q 1613 4659 2075 4659 
Q 2584 4659 2973 4495 
Q 3363 4331 3572 4012 
Q 3781 3694 3797 3291 
L 3216 3247 
Q 3169 3681 2898 3903 
Q 2628 4125 2100 4125 
Q 1550 4125 1298 3923 
Q 1047 3722 1047 3438 
Q 1047 3191 1225 3031 
Q 1400 2872 2139 2705 
Q 2878 2538 3153 2413 
Q 3553 2228 3743 1945 
Q 3934 1663 3934 1294 
Q 3934 928 3725 604 
Q 3516 281 3123 101 
Q 2731 -78 2241 -78 
Q 1619 -78 1198 103 
Q 778 284 539 648 
Q 300 1013 288 1472 
z
" transform="scale(0.015625)"/>
      <path id="ArialMT-2d" d="M 203 1375 
L 203 1941 
L 1931 1941 
L 1931 1375 
L 203 1375 
z
" transform="scale(0.015625)"/>
      <path id="ArialMT-2b" d="M 1603 741 
L 1603 1997 
L 356 1997 
L 356 2522 
L 1603 2522 
L 1603 3769 
L 2134 3769 
L 2134 2522 
L 3381 2522 
L 3381 1997 
L 2134 1997 
L 2134 741 
L 1603 741 
z
" transform="scale(0.015625)"/>
      <path id="ArialMT-7a" d="M 125 0 
L 125 456 
L 2238 2881 
Q 1878 2863 1603 2863 
L 250 2863 
L 250 3319 
L 2963 3319 
L 2963 2947 
L 1166 841 
L 819 456 
Q 1197 484 1528 484 
L 3063 484 
L 3063 0 
L 125 0 
z
" transform="scale(0.015625)"/>
      <path id="ArialMT-67" d="M 319 -275 
L 866 -356 
Q 900 -609 1056 -725 
Q 1266 -881 1628 -881 
Q 2019 -881 2231 -725 
Q 2444 -569 2519 -288 
Q 2563 -116 2559 434 
Q 2191 0 1641 0 
Q 956 0 581 494 
Q 206 988 206 1678 
Q 206 2153 378 2554 
Q 550 2956 876 3175 
Q 1203 3394 1644 3394 
Q 2231 3394 2613 2919 
L 2613 3319 
L 3131 3319 
L 3131 450 
Q 3131 -325 2973 -648 
Q 2816 -972 2473 -1159 
Q 2131 -1347 1631 -1347 
Q 1038 -1347 672 -1080 
Q 306 -813 319 -275 
z
M 784 1719 
Q 784 1066 1043 766 
Q 1303 466 1694 466 
Q 2081 466 2343 764 
Q 2606 1063 2606 1700 
Q 2606 2309 2336 2618 
Q 2066 2928 1684 2928 
Q 1309 2928 1046 2623 
Q 784 2319 784 1719 
z
" transform="scale(0.015625)"/>
     </defs>
     <use xlink:href="#ArialMT-53"/>
     <use xlink:href="#ArialMT-65" transform="translate(66.699219 0)"/>
     <use xlink:href="#ArialMT-65" transform="translate(122.314453 0)"/>
     <use xlink:href="#ArialMT-64" transform="translate(177.929688 0)"/>
     <use xlink:href="#ArialMT-2d" transform="translate(233.544922 0)"/>
     <use xlink:href="#ArialMT-63" transform="translate(266.845703 0)"/>
     <use xlink:href="#ArialMT-75" transform="translate(316.845703 0)"/>
     <use xlink:href="#ArialMT-72" transform="translate(372.460938 0)"/>
     <use xlink:href="#ArialMT-61" transform="translate(405.761719 0)"/>
     <use xlink:href="#ArialMT-74" transform="translate(461.376953 0)"/>
     <use xlink:href="#ArialMT-69" transform="translate(489.160156 0)"/>
     <use xlink:href="#ArialMT-6f" transform="translate(511.376953 0)"/>
     <use xlink:href="#ArialMT-6e" transform="translate(566.992188 0)"/>
     <use xlink:href="#ArialMT-20" transform="translate(622.607422 0)"/>
     <use xlink:href="#ArialMT-62" transform="translate(650.390625 0)"/>
     <use xlink:href="#ArialMT-75" transform="translate(706.005859 0)"/>
     <use xlink:href="#ArialMT-63" transform="translate(761.621094 0)"/>
     <use xlink:href="#ArialMT-6b" transform="translate(811.621094 0)"/>
     <use xlink:href="#ArialMT-65" transform="translate(861.621094 0)"/>
     <use xlink:href="#ArialMT-74" transform="translate(917.236328 0)"/>
     <use xlink:href="#ArialMT-20" transform="translate(945.019531 0)"/>
     <use xlink:href="#ArialMT-2b" transform="translate(972.802734 0)"/>
     <use xlink:href="#ArialMT-20" transform="translate(1031.201172 0)"/>
     <use xlink:href="#ArialMT-74" transform="translate(1058.984375 0)"/>
     <use xlink:href="#ArialMT-72" transform="translate(1086.767578 0)"/>
     <use xlink:href="#ArialMT-69" transform="translate(1120.068359 0)"/>
     <use xlink:href="#ArialMT-6d" transform="translate(1142.285156 0)"/>
     <use xlink:href="#ArialMT-20" transform="translate(1225.585938 0)"/>
     <use xlink:href="#ArialMT-61" transform="translate(1253.369141 0)"/>
     <use xlink:href="#ArialMT-62" transform="translate(1308.984375 0)"/>
     <use xlink:href="#ArialMT-6c" transform="translate(1364.599609 0)"/>
     <use xlink:href="#ArialMT-61" transform="translate(1386.816406 0)"/>
     <use xlink:href="#ArialMT-74" transform="translate(1442.431641 0)"/>
     <use xlink:href="#ArialMT-69" transform="translate(1470.214844 0)"/>
     <use xlink:href="#ArialMT-6f" transform="translate(1492.431641 0)"/>
     <use xlink:href="#ArialMT-6e" transform="translate(1548.046875 0)"/>
     <use xlink:href="#ArialMT-20" transform="translate(1603.662109 0)"/>
     <use xlink:href="#ArialMT-28" transform="translate(1631.445312 0)"/>
     <use xlink:href="#ArialMT-73" transform="translate(1664.746094 0)"/>
     <use xlink:href="#ArialMT-69" transform="translate(1714.746094 0)"/>
     <use xlink:href="#ArialMT-7a" transform="translate(1736.962891 0)"/>
     <use xlink:href="#ArialMT-69" transform="translate(1786.962891 0)"/>
     <use xlink:href="#ArialMT-6e" transform="translate(1809.179688 0)"/>
     <use xlink:href="#ArialMT-67" transform="translate(1864.794922 0)"/>
     <use xlink:href="#ArialMT-20" transform="translate(1920.410156 0)"/>
     <use xlink:href="#ArialMT-74" transform="translate(1948.193359 0)"/>
     <use xlink:href="#ArialMT-61" transform="translate(1975.976562 0)"/>
     <use xlink:href="#ArialMT-69" transform="translate(2031.591797 0)"/>
     <use xlink:href="#ArialMT-6c" transform="translate(2053.808594 0)"/>
     <use xlink:href="#ArialMT-29" transform="translate(2076.025391 0)"/>
    </g>
   </g>
  </g>
  <g id="axes_2">
   <g id="patch_13">
    <path d="M 344.465039 217.274212 
L 586.254539 217.274212 
L 586.254539 20.479688 
L 344.465039 20.479688 
z
" style="fill: #f5f5f5"/>
   </g>
   <g id="matplotlib.axis_3">
    <g id="xtick_7">
     <g id="line2d_17">
      <path d="M 366.473231 217.274212 
L 366.473231 20.479688 
" clip-path="url(#pddde0c1943)" style="fill: none; stroke: #cccccc; stroke-linecap: round"/>
     </g>
     <g id="text_24">
      <!-- bucket_max -->
      <g style="fill: #262626" transform="translate(322.434392 246.906456) rotate(-20) scale(0.08 -0.08)">
       <use xlink:href="#ArialMT-62"/>
       <use xlink:href="#ArialMT-75" transform="translate(55.615234 0)"/>
       <use xlink:href="#ArialMT-63" transform="translate(111.230469 0)"/>
       <use xlink:href="#ArialMT-6b" transform="translate(161.230469 0)"/>
       <use xlink:href="#ArialMT-65" transform="translate(211.230469 0)"/>
       <use xlink:href="#ArialMT-74" transform="translate(266.845703 0)"/>
       <use xlink:href="#ArialMT-5f" transform="translate(294.628906 0)"/>
       <use xlink:href="#ArialMT-6d" transform="translate(350.244141 0)"/>
       <use xlink:href="#ArialMT-61" transform="translate(433.544922 0)"/>
       <use xlink:href="#ArialMT-78" transform="translate(489.160156 0)"/>
      </g>
      <!-- (deployed) -->
      <g style="fill: #262626" transform="translate(330.379323 253.143787) rotate(-20) scale(0.08 -0.08)">
       <use xlink:href="#ArialMT-28"/>
       <use xlink:href="#ArialMT-64" transform="translate(33.300781 0)"/>
       <use xlink:href="#ArialMT-65" transform="translate(88.916016 0)"/>
       <use xlink:href="#ArialMT-70" transform="translate(144.53125 0)"/>
       <use xlink:href="#ArialMT-6c" transform="translate(200.146484 0)"/>
       <use xlink:href="#ArialMT-6f" transform="translate(222.363281 0)"/>
       <use xlink:href="#ArialMT-79" transform="translate(277.978516 0)"/>
       <use xlink:href="#ArialMT-65" transform="translate(327.978516 0)"/>
       <use xlink:href="#ArialMT-64" transform="translate(383.59375 0)"/>
       <use xlink:href="#ArialMT-29" transform="translate(439.208984 0)"/>
      </g>
     </g>
    </g>
    <g id="xtick_8">
     <g id="line2d_18">
      <path d="M 406.027854 217.274212 
L 406.027854 20.479688 
" clip-path="url(#pddde0c1943)" style="fill: none; stroke: #cccccc; stroke-linecap: round"/>
     </g>
     <g id="text_25">
      <!-- bucket_middle -->
      <g style="fill: #262626" transform="translate(357.012348 249.797381) rotate(-20) scale(0.08 -0.08)">
       <use xlink:href="#ArialMT-62"/>
       <use xlink:href="#ArialMT-75" transform="translate(55.615234 0)"/>
       <use xlink:href="#ArialMT-63" transform="translate(111.230469 0)"/>
       <use xlink:href="#ArialMT-6b" transform="translate(161.230469 0)"/>
       <use xlink:href="#ArialMT-65" transform="translate(211.230469 0)"/>
       <use xlink:href="#ArialMT-74" transform="translate(266.845703 0)"/>
       <use xlink:href="#ArialMT-5f" transform="translate(294.628906 0)"/>
       <use xlink:href="#ArialMT-6d" transform="translate(350.244141 0)"/>
       <use xlink:href="#ArialMT-69" transform="translate(433.544922 0)"/>
       <use xlink:href="#ArialMT-64" transform="translate(455.761719 0)"/>
       <use xlink:href="#ArialMT-64" transform="translate(511.376953 0)"/>
       <use xlink:href="#ArialMT-6c" transform="translate(566.992188 0)"/>
       <use xlink:href="#ArialMT-65" transform="translate(589.208984 0)"/>
      </g>
     </g>
    </g>
    <g id="xtick_9">
     <g id="line2d_19">
      <path d="M 445.582478 217.274212 
L 445.582478 20.479688 
" clip-path="url(#pddde0c1943)" style="fill: none; stroke: #cccccc; stroke-linecap: round"/>
     </g>
     <g id="text_26">
      <!-- bucket_random -->
      <g style="fill: #262626" transform="translate(393.224014 251.014118) rotate(-20) scale(0.08 -0.08)">
       <use xlink:href="#ArialMT-62"/>
       <use xlink:href="#ArialMT-75" transform="translate(55.615234 0)"/>
       <use xlink:href="#ArialMT-63" transform="translate(111.230469 0)"/>
       <use xlink:href="#ArialMT-6b" transform="translate(161.230469 0)"/>
       <use xlink:href="#ArialMT-65" transform="translate(211.230469 0)"/>
       <use xlink:href="#ArialMT-74" transform="translate(266.845703 0)"/>
       <use xlink:href="#ArialMT-5f" transform="translate(294.628906 0)"/>
       <use xlink:href="#ArialMT-72" transform="translate(350.244141 0)"/>
       <use xlink:href="#ArialMT-61" transform="translate(383.544922 0)"/>
       <use xlink:href="#ArialMT-6e" transform="translate(439.160156 0)"/>
       <use xlink:href="#ArialMT-64" transform="translate(494.775391 0)"/>
       <use xlink:href="#ArialMT-6f" transform="translate(550.390625 0)"/>
       <use xlink:href="#ArialMT-6d" transform="translate(606.005859 0)"/>
      </g>
     </g>
    </g>
    <g id="xtick_10">
     <g id="line2d_20">
      <path d="M 485.137101 217.274212 
L 485.137101 20.479688 
" clip-path="url(#pddde0c1943)" style="fill: none; stroke: #cccccc; stroke-linecap: round"/>
     </g>
     <g id="text_27">
      <!-- trim_10 -->
      <g style="fill: #262626" transform="translate(459.528163 241.300405) rotate(-20) scale(0.08 -0.08)">
       <use xlink:href="#ArialMT-74"/>
       <use xlink:href="#ArialMT-72" transform="translate(27.783203 0)"/>
       <use xlink:href="#ArialMT-69" transform="translate(61.083984 0)"/>
       <use xlink:href="#ArialMT-6d" transform="translate(83.300781 0)"/>
       <use xlink:href="#ArialMT-5f" transform="translate(166.601562 0)"/>
       <use xlink:href="#ArialMT-31" transform="translate(222.216797 0)"/>
       <use xlink:href="#ArialMT-30" transform="translate(277.832031 0)"/>
      </g>
     </g>
    </g>
    <g id="xtick_11">
     <g id="line2d_21">
      <path d="M 524.691724 217.274212 
L 524.691724 20.479688 
" clip-path="url(#pddde0c1943)" style="fill: none; stroke: #cccccc; stroke-linecap: round"/>
     </g>
     <g id="text_28">
      <!-- trim_20 -->
      <g style="fill: #262626" transform="translate(499.082786 241.300405) rotate(-20) scale(0.08 -0.08)">
       <use xlink:href="#ArialMT-74"/>
       <use xlink:href="#ArialMT-72" transform="translate(27.783203 0)"/>
       <use xlink:href="#ArialMT-69" transform="translate(61.083984 0)"/>
       <use xlink:href="#ArialMT-6d" transform="translate(83.300781 0)"/>
       <use xlink:href="#ArialMT-5f" transform="translate(166.601562 0)"/>
       <use xlink:href="#ArialMT-32" transform="translate(222.216797 0)"/>
       <use xlink:href="#ArialMT-30" transform="translate(277.832031 0)"/>
      </g>
     </g>
    </g>
    <g id="xtick_12">
     <g id="line2d_22">
      <path d="M 564.246347 217.274212 
L 564.246347 20.479688 
" clip-path="url(#pddde0c1943)" style="fill: none; stroke: #cccccc; stroke-linecap: round"/>
     </g>
     <g id="text_29">
      <!-- bucket_min -->
      <g style="fill: #262626" transform="translate(525.262059 246.146316) rotate(-20) scale(0.08 -0.08)">
       <use xlink:href="#ArialMT-62"/>
       <use xlink:href="#ArialMT-75" transform="translate(55.615234 0)"/>
       <use xlink:href="#ArialMT-63" transform="translate(111.230469 0)"/>
       <use xlink:href="#ArialMT-6b" transform="translate(161.230469 0)"/>
       <use xlink:href="#ArialMT-65" transform="translate(211.230469 0)"/>
       <use xlink:href="#ArialMT-74" transform="translate(266.845703 0)"/>
       <use xlink:href="#ArialMT-5f" transform="translate(294.628906 0)"/>
       <use xlink:href="#ArialMT-6d" transform="translate(350.244141 0)"/>
       <use xlink:href="#ArialMT-69" transform="translate(433.544922 0)"/>
       <use xlink:href="#ArialMT-6e" transform="translate(455.761719 0)"/>
      </g>
     </g>
    </g>
   </g>
   <g id="matplotlib.axis_4">
    <g id="ytick_10">
     <g id="line2d_23">
      <path d="M 344.465039 217.274212 
L 586.254539 217.274212 
" clip-path="url(#pddde0c1943)" style="fill: none; stroke: #cccccc; stroke-linecap: round"/>
     </g>
     <g id="text_30">
      <!-- 0 -->
      <g style="fill: #262626" transform="translate(329.153859 221.014169) scale(0.1045 -0.1045)">
       <use xlink:href="#ArialMT-30"/>
      </g>
     </g>
    </g>
    <g id="ytick_11">
     <g id="line2d_24">
      <path d="M 344.465039 188.617375 
L 586.254539 188.617375 
" clip-path="url(#pddde0c1943)" style="fill: none; stroke: #cccccc; stroke-linecap: round"/>
     </g>
     <g id="text_31">
      <!-- 20 -->
      <g style="fill: #262626" transform="translate(323.34268 192.357332) scale(0.1045 -0.1045)">
       <use xlink:href="#ArialMT-32"/>
       <use xlink:href="#ArialMT-30" transform="translate(55.615234 0)"/>
      </g>
     </g>
    </g>
    <g id="ytick_12">
     <g id="line2d_25">
      <path d="M 344.465039 159.960538 
L 586.254539 159.960538 
" clip-path="url(#pddde0c1943)" style="fill: none; stroke: #cccccc; stroke-linecap: round"/>
     </g>
     <g id="text_32">
      <!-- 40 -->
      <g style="fill: #262626" transform="translate(323.34268 163.700495) scale(0.1045 -0.1045)">
       <use xlink:href="#ArialMT-34"/>
       <use xlink:href="#ArialMT-30" transform="translate(55.615234 0)"/>
      </g>
     </g>
    </g>
    <g id="ytick_13">
     <g id="line2d_26">
      <path d="M 344.465039 131.303701 
L 586.254539 131.303701 
" clip-path="url(#pddde0c1943)" style="fill: none; stroke: #cccccc; stroke-linecap: round"/>
     </g>
     <g id="text_33">
      <!-- 60 -->
      <g style="fill: #262626" transform="translate(323.34268 135.043658) scale(0.1045 -0.1045)">
       <use xlink:href="#ArialMT-36"/>
       <use xlink:href="#ArialMT-30" transform="translate(55.615234 0)"/>
      </g>
     </g>
    </g>
    <g id="ytick_14">
     <g id="line2d_27">
      <path d="M 344.465039 102.646864 
L 586.254539 102.646864 
" clip-path="url(#pddde0c1943)" style="fill: none; stroke: #cccccc; stroke-linecap: round"/>
     </g>
     <g id="text_34">
      <!-- 80 -->
      <g style="fill: #262626" transform="translate(323.34268 106.386821) scale(0.1045 -0.1045)">
       <use xlink:href="#ArialMT-38"/>
       <use xlink:href="#ArialMT-30" transform="translate(55.615234 0)"/>
      </g>
     </g>
    </g>
    <g id="ytick_15">
     <g id="line2d_28">
      <path d="M 344.465039 73.990026 
L 586.254539 73.990026 
" clip-path="url(#pddde0c1943)" style="fill: none; stroke: #cccccc; stroke-linecap: round"/>
     </g>
     <g id="text_35">
      <!-- 100 -->
      <g style="fill: #262626" transform="translate(317.5315 77.729983) scale(0.1045 -0.1045)">
       <use xlink:href="#ArialMT-31"/>
       <use xlink:href="#ArialMT-30" transform="translate(55.615234 0)"/>
       <use xlink:href="#ArialMT-30" transform="translate(111.230469 0)"/>
      </g>
     </g>
    </g>
    <g id="ytick_16">
     <g id="line2d_29">
      <path d="M 344.465039 45.333189 
L 586.254539 45.333189 
" clip-path="url(#pddde0c1943)" style="fill: none; stroke: #cccccc; stroke-linecap: round"/>
     </g>
     <g id="text_36">
      <!-- 120 -->
      <g style="fill: #262626" transform="translate(317.5315 49.073146) scale(0.1045 -0.1045)">
       <use xlink:href="#ArialMT-31"/>
       <use xlink:href="#ArialMT-32" transform="translate(55.615234 0)"/>
       <use xlink:href="#ArialMT-30" transform="translate(111.230469 0)"/>
      </g>
     </g>
    </g>
    <g id="text_37">
     <!-- mean (m/s) -->
     <g style="fill: #262626" transform="translate(311.132156 147.694903) rotate(-90) scale(0.114 -0.114)">
      <use xlink:href="#ArialMT-6d"/>
      <use xlink:href="#ArialMT-65" transform="translate(83.300781 0)"/>
      <use xlink:href="#ArialMT-61" transform="translate(138.916016 0)"/>
      <use xlink:href="#ArialMT-6e" transform="translate(194.53125 0)"/>
      <use xlink:href="#ArialMT-20" transform="translate(250.146484 0)"/>
      <use xlink:href="#ArialMT-28" transform="translate(277.929688 0)"/>
      <use xlink:href="#ArialMT-6d" transform="translate(311.230469 0)"/>
      <use xlink:href="#ArialMT-2f" transform="translate(394.53125 0)"/>
      <use xlink:href="#ArialMT-73" transform="translate(422.314453 0)"/>
      <use xlink:href="#ArialMT-29" transform="translate(472.314453 0)"/>
     </g>
    </g>
   </g>
   <g id="line2d_30">
    <path d="M 344.465039 44.68841 
L 586.254539 44.68841 
" clip-path="url(#pddde0c1943)" style="fill: none; stroke-dasharray: 3.33,1.44; stroke-dashoffset: 0; stroke: #d1701f; stroke-width: 0.9"/>
   </g>
   <g id="patch_14">
    <path d="M 344.465039 217.274212 
L 344.465039 20.479688 
" style="fill: none; stroke: #cccccc; stroke-width: 1.25; stroke-linejoin: miter; stroke-linecap: square"/>
   </g>
   <g id="patch_15">
    <path d="M 586.254539 217.274212 
L 586.254539 20.479688 
" style="fill: none; stroke: #cccccc; stroke-width: 1.25; stroke-linejoin: miter; stroke-linecap: square"/>
   </g>
   <g id="patch_16">
    <path d="M 344.465039 217.274212 
L 586.254539 217.274212 
" style="fill: none; stroke: #cccccc; stroke-width: 1.25; stroke-linejoin: miter; stroke-linecap: square"/>
   </g>
   <g id="patch_17">
    <path d="M 344.465039 20.479688 
L 586.254539 20.479688 
" style="fill: none; stroke: #cccccc; stroke-width: 1.25; stroke-linejoin: miter; stroke-linecap: square"/>
   </g>
   <g id="patch_18">
    <path d="M 353.420206 217.274212 
L 379.526257 217.274212 
L 379.526257 44.68841 
L 353.420206 44.68841 
z
" clip-path="url(#pddde0c1943)" style="fill: #d1701f; stroke: #ffffff; stroke-linejoin: miter"/>
   </g>
   <g id="patch_19">
    <path d="M 392.974829 217.274212 
L 419.08088 217.274212 
L 419.08088 44.68841 
L 392.974829 44.68841 
z
" clip-path="url(#pddde0c1943)" style="fill: #4878cf; stroke: #ffffff; stroke-linejoin: miter"/>
   </g>
   <g id="patch_20">
    <path d="M 432.529452 217.274212 
L 458.635503 217.274212 
L 458.635503 41.564815 
L 432.529452 41.564815 
z
" clip-path="url(#pddde0c1943)" style="fill: #4878cf; stroke: #ffffff; stroke-linejoin: miter"/>
   </g>
   <g id="patch_21">
    <path d="M 472.084075 217.274212 
L 498.190126 217.274212 
L 498.190126 44.946322 
L 472.084075 44.946322 
z
" clip-path="url(#pddde0c1943)" style="fill: #4878cf; stroke: #ffffff; stroke-linejoin: miter"/>
   </g>
   <g id="patch_22">
    <path d="M 511.638698 217.274212 
L 537.744749 217.274212 
L 537.744749 44.172587 
L 511.638698 44.172587 
z
" clip-path="url(#pddde0c1943)" style="fill: #4878cf; stroke: #ffffff; stroke-linejoin: miter"/>
   </g>
   <g id="patch_23">
    <path d="M 551.193321 217.274212 
L 577.299372 217.274212 
L 577.299372 48.428128 
L 551.193321 48.428128 
z
" clip-path="url(#pddde0c1943)" style="fill: #4878cf; stroke: #ffffff; stroke-linejoin: miter"/>
   </g>
   <g id="text_38">
    <!-- 120.5 -->
    <g style="fill: #333333" transform="translate(357.090028 43.208332) scale(0.075 -0.075)">
     <use xlink:href="#Arial-BoldMT-31"/>
     <use xlink:href="#Arial-BoldMT-32" transform="translate(55.615234 0)"/>
     <use xlink:href="#Arial-BoldMT-30" transform="translate(111.230469 0)"/>
     <use xlink:href="#Arial-BoldMT-2e" transform="translate(166.845703 0)"/>
     <use xlink:href="#Arial-BoldMT-35" transform="translate(194.628906 0)"/>
    </g>
   </g>
   <g id="text_39">
    <!-- 120.5 -->
    <g style="fill: #333333" transform="translate(396.644651 43.208332) scale(0.075 -0.075)">
     <use xlink:href="#Arial-BoldMT-31"/>
     <use xlink:href="#Arial-BoldMT-32" transform="translate(55.615234 0)"/>
     <use xlink:href="#Arial-BoldMT-30" transform="translate(111.230469 0)"/>
     <use xlink:href="#Arial-BoldMT-2e" transform="translate(166.845703 0)"/>
     <use xlink:href="#Arial-BoldMT-35" transform="translate(194.628906 0)"/>
    </g>
   </g>
   <g id="text_40">
    <!-- 122.6 -->
    <g style="fill: #333333" transform="translate(436.199274 40.084737) scale(0.075 -0.075)">
     <use xlink:href="#Arial-BoldMT-31"/>
     <use xlink:href="#Arial-BoldMT-32" transform="translate(55.615234 0)"/>
     <use xlink:href="#Arial-BoldMT-32" transform="translate(111.230469 0)"/>
     <use xlink:href="#Arial-BoldMT-2e" transform="translate(166.845703 0)"/>
     <use xlink:href="#Arial-BoldMT-36" transform="translate(194.628906 0)"/>
    </g>
   </g>
   <g id="text_41">
    <!-- 120.3 -->
    <g style="fill: #333333" transform="translate(475.753897 43.466244) scale(0.075 -0.075)">
     <use xlink:href="#Arial-BoldMT-31"/>
     <use xlink:href="#Arial-BoldMT-32" transform="translate(55.615234 0)"/>
     <use xlink:href="#Arial-BoldMT-30" transform="translate(111.230469 0)"/>
     <use xlink:href="#Arial-BoldMT-2e" transform="translate(166.845703 0)"/>
     <use xlink:href="#Arial-BoldMT-33" transform="translate(194.628906 0)"/>
    </g>
   </g>
   <g id="text_42">
    <!-- 120.8 -->
    <g style="fill: #333333" transform="translate(515.308521 42.692509) scale(0.075 -0.075)">
     <use xlink:href="#Arial-BoldMT-31"/>
     <use xlink:href="#Arial-BoldMT-32" transform="translate(55.615234 0)"/>
     <use xlink:href="#Arial-BoldMT-30" transform="translate(111.230469 0)"/>
     <use xlink:href="#Arial-BoldMT-2e" transform="translate(166.845703 0)"/>
     <use xlink:href="#Arial-BoldMT-38" transform="translate(194.628906 0)"/>
    </g>
   </g>
   <g id="text_43">
    <!-- 117.8 -->
    <g style="fill: #333333" transform="translate(555.069394 46.94805) scale(0.075 -0.075)">
     <use xlink:href="#Arial-BoldMT-31"/>
     <use xlink:href="#Arial-BoldMT-31" transform="translate(50.115234 0)"/>
     <use xlink:href="#Arial-BoldMT-37" transform="translate(105.730469 0)"/>
     <use xlink:href="#Arial-BoldMT-2e" transform="translate(161.345703 0)"/>
     <use xlink:href="#Arial-BoldMT-38" transform="translate(189.128906 0)"/>
    </g>
   </g>
  </g>
 </g>
 <defs>
  <clipPath id="p9daae717a9">
   <rect x="48.963539" y="20.479688" width="241.7895" height="196.794525"/>
  </clipPath>
  <clipPath id="pddde0c1943">
   <rect x="344.465039" y="20.479688" width="241.7895" height="196.794525"/>
  </clipPath>
 </defs>
</svg>
