<?xml version="1.0" encoding="utf-8" standalone="no"?>
<!DOCTYPE svg PUBLIC "-//W3C//DTD SVG 1.1//EN"
  "http://www.w3.org/Graphics/SVG/1.1/DTD/svg11.dtd">
<svg xmlns:xlink="http://www.w3.org/1999/xlink" width="565.5168pt" height="283.305469pt" viewBox="0 0 565.5168 283.305469" xmlns="http://www.w3.org/2000/svg" version="1.1">
 <metadata>
  <rdf:RDF xmlns:dc="http://purl.org/dc/elements/1.1/" xmlns:cc="http://creativecommons.org/ns#" xmlns:rdf="http://www.w3.org/1999/02/22-rdf-syntax-ns#">
   <cc:Work>
    <dc:type rdf:resource="http://purl.org/dc/dcmitype/StillImage"/>
    <dc:date>2026-07-03T22:50:32.560599</dc:date>
    <dc:format>image/svg+xml</dc:format>
    <dc:creator>
     <cc:Agent>
      <dc:title>Matplotlib v3.10.9, https://matplotlib.org/</dc:title>
     </cc:Agent>
    </dc:creator>
   </cc:Work>
  </rdf:RDF>
 </metadata>
 <defs>
  <style type="text/css">*{stroke-linejoin: round; stroke-linecap: butt}</style>
 </defs>
 <g id="figure_1">
  <g id="patch_1">
   <path d="M 0 283.305469 
L 565.5168 283.305469 
L 565.5168 0 
L 0 0 
z
" style="fill: #ffffff"/>
  </g>
  <g id="axes_1">
   <g id="patch_2">
    <path d="M 64.8 63.7 
L 554.4 63.7 
L 554.4 20.5 
L 64.8 20.5 
z
" style="fill: #f5f5f5"/>
   </g>
   <g id="matplotlib.axis_1">
    <g id="xtick_1">
     <g id="line2d_1">
      <path d="M 150.638961 63.7 
L 150.638961 20.5 
" clip-path="url(#p83fc325caa)" style="fill: none; stroke: #dddddd; stroke-width: 0.6; stroke-linecap: round"/>
     </g>
    </g>
    <g id="xtick_2">
     <g id="line2d_2">
      <path d="M 309.6 63.7 
L 309.6 20.5 
" clip-path="url(#p83fc325caa)" style="fill: none; stroke: #dddddd; stroke-width: 0.6; stroke-linecap: round"/>
     </g>
    </g>
    <g id="xtick_3">
     <g id="line2d_3">
      <path d="M 468.561039 63.7 
L 468.561039 20.5 
" clip-path="url(#p83fc325caa)" style="fill: none; stroke: #dddddd; stroke-width: 0.6; stroke-linecap: round"/>
     </g>
    </g>
   </g>
   <g id="matplotlib.axis_2">
    <g id="ytick_1">
     <g id="line2d_4">
      <path d="M 64.8 45.7 
L 554.4 45.7 
" clip-path="url(#p83fc325caa)" style="fill: none; stroke: #dddddd; stroke-width: 0.6; stroke-linecap: round"/>
     </g>
     <g id="text_1">
      <!-- 205 -->
      <g style="fill: #262626" transform="translate(42.6775 48.700234) scale(0.085 -0.085)">
       <defs>
        <path id="STIXTwoText-32" d="M 2765 0 
L 243 0 
L 243 218 
L 1216 1190 
Q 1536 1517 1747 1782 
Q 1958 2048 2064 2317 
Q 2170 2586 2170 2918 
Q 2170 3277 1955 3491 
Q 1741 3706 1370 3706 
Q 1056 3706 835 3571 
Q 614 3437 435 3078 
L 282 3142 
Q 429 3610 749 3866 
Q 1069 4122 1536 4122 
Q 1901 4122 2176 3984 
Q 2451 3846 2608 3600 
Q 2765 3354 2765 3014 
Q 2765 2733 2646 2473 
Q 2528 2214 2294 1939 
Q 2061 1664 1722 1318 
L 877 518 
L 877 486 
L 1325 506 
L 2214 506 
Q 2470 506 2572 621 
Q 2675 736 2784 1024 
L 2970 1024 
L 2765 0 
z
" transform="scale(0.015625)"/>
        <path id="STIXTwoText-30" d="M 1581 -70 
Q 1197 -70 928 99 
Q 659 269 492 563 
Q 326 858 249 1242 
Q 173 1626 173 2048 
Q 173 2656 336 3120 
Q 499 3584 816 3846 
Q 1133 4109 1594 4109 
Q 2010 4109 2323 3862 
Q 2637 3616 2816 3152 
Q 2995 2688 2995 2029 
Q 2995 1619 2915 1241 
Q 2835 864 2665 569 
Q 2496 275 2227 102 
Q 1958 -70 1581 -70 
z
M 1581 160 
Q 1958 160 2166 614 
Q 2374 1069 2374 1990 
Q 2374 2963 2172 3427 
Q 1971 3891 1574 3891 
Q 1197 3891 992 3430 
Q 787 2970 787 2016 
Q 787 1088 992 624 
Q 1197 160 1581 160 
z
" transform="scale(0.015625)"/>
        <path id="STIXTwoText-35" d="M 1114 -83 
Q 742 -83 560 6 
Q 378 96 378 275 
Q 378 384 445 467 
Q 512 550 634 550 
Q 730 550 822 502 
Q 915 454 1014 393 
Q 1114 333 1235 285 
Q 1357 237 1510 237 
Q 1741 237 1936 326 
Q 2131 416 2249 614 
Q 2368 813 2368 1146 
Q 2368 1504 2227 1721 
Q 2086 1939 1849 2054 
Q 1613 2170 1315 2214 
Q 1018 2259 698 2266 
L 621 2362 
L 1018 4032 
L 2771 4032 
L 2669 3514 
L 1165 3514 
L 992 2784 
Q 1312 2758 1590 2704 
Q 1869 2650 2096 2554 
Q 2323 2458 2489 2301 
Q 2656 2144 2745 1923 
Q 2835 1702 2835 1402 
Q 2835 1030 2710 752 
Q 2586 474 2355 288 
Q 2125 102 1811 9 
Q 1498 -83 1114 -83 
z
" transform="scale(0.015625)"/>
       </defs>
       <use xlink:href="#STIXTwoText-32"/>
       <use xlink:href="#STIXTwoText-30" transform="translate(49.499985 0)"/>
       <use xlink:href="#STIXTwoText-35" transform="translate(98.999969 0)"/>
      </g>
     </g>
    </g>
   </g>
   <g id="line2d_5">
    <path d="M 60.8832 65.0824 
L 68.7168 62.3176 
" style="fill: none; stroke: #666666; stroke-width: 0.9; stroke-linecap: round"/>
   </g>
   <g id="line2d_6">
    <path d="M 550.4832 65.0824 
L 558.3168 62.3176 
" style="fill: none; stroke: #666666; stroke-width: 0.9; stroke-linecap: round"/>
   </g>
   <g id="patch_3">
    <path d="M 64.8 63.7 
L 64.8 20.5 
" style="fill: none; stroke: #bbbbbb; stroke-width: 0.8; stroke-linejoin: miter; stroke-linecap: square"/>
   </g>
   <g id="patch_4">
    <path d="M 554.4 63.7 
L 554.4 20.5 
" style="fill: none; stroke: #bbbbbb; stroke-width: 0.8; stroke-linejoin: miter; stroke-linecap: square"/>
   </g>
   <g id="patch_5">
    <path d="M 64.8 20.5 
L 554.4 20.5 
" style="fill: none; stroke: #bbbbbb; stroke-width: 0.8; stroke-linejoin: miter; stroke-linecap: square"/>
   </g>
   <g id="patch_6">
    <path d="M 87.054545 783.7 
L 108.249351 783.7 
L 108.249351 43.504 
L 87.054545 43.504 
z
" clip-path="url(#p83fc325caa)" style="fill: #1f6f3f; stroke: #ffffff; stroke-width: 0.4; stroke-linejoin: miter"/>
   </g>
   <g id="patch_7">
    <path d="M 246.015584 783.7 
L 267.21039 783.7 
L 267.21039 312.496 
L 246.015584 312.496 
z
" clip-path="url(#p83fc325caa)" style="fill: #1f6f3f; stroke: #ffffff; stroke-width: 0.4; stroke-linejoin: miter"/>
   </g>
   <g id="patch_8">
    <path d="M 404.976623 783.7 
L 426.171429 783.7 
L 426.171429 288.268 
L 404.976623 288.268 
z
" clip-path="url(#p83fc325caa)" style="fill: #1f6f3f; stroke: #ffffff; stroke-width: 0.4; stroke-linejoin: miter"/>
   </g>
   <g id="text_2">
    <!-- 206 -->
    <g style="fill: #1f6f3f" transform="translate(99.109761 42.064) rotate(-90) scale(0.06 -0.06)">
     <defs>
      <path id="STIXTwoText-36" d="M 1658 -77 
Q 1184 -77 880 156 
Q 576 390 432 784 
Q 288 1178 288 1645 
Q 288 2221 464 2675 
Q 640 3130 957 3446 
Q 1274 3763 1706 3939 
Q 2138 4115 2656 4134 
L 2669 3949 
Q 2221 3885 1849 3661 
Q 1478 3437 1228 3078 
Q 979 2720 896 2253 
L 941 2246 
Q 1139 2438 1331 2540 
Q 1523 2643 1773 2643 
Q 2298 2643 2611 2284 
Q 2925 1926 2925 1299 
Q 2925 646 2595 284 
Q 2266 -77 1658 -77 
z
M 1683 147 
Q 2003 147 2185 393 
Q 2368 640 2368 1248 
Q 2368 1683 2173 1977 
Q 1978 2272 1581 2272 
Q 1395 2272 1232 2198 
Q 1069 2125 966 1958 
Q 864 1792 864 1510 
Q 864 1114 953 806 
Q 1043 499 1225 323 
Q 1408 147 1683 147 
z
" transform="scale(0.015625)"/>
     </defs>
     <use xlink:href="#STIXTwoText-32"/>
     <use xlink:href="#STIXTwoText-30" transform="translate(49.499985 0)"/>
     <use xlink:href="#STIXTwoText-36" transform="translate(98.999969 0)"/>
    </g>
   </g>
   <g id="patch_9">
    <path d="M 108.249351 783.7 
L 129.444156 783.7 
L 129.444156 259.504 
L 108.249351 259.504 
z
" clip-path="url(#p83fc325caa)" style="fill: #4878cf; stroke: #ffffff; stroke-width: 0.4; stroke-linejoin: miter"/>
   </g>
   <g id="patch_10">
    <path d="M 267.21039 783.7 
L 288.405195 783.7 
L 288.405195 292.516 
L 267.21039 292.516 
z
" clip-path="url(#p83fc325caa)" style="fill: #4878cf; stroke: #ffffff; stroke-width: 0.4; stroke-linejoin: miter"/>
   </g>
   <g id="patch_11">
    <path d="M 426.171429 783.7 
L 447.366234 783.7 
L 447.366234 262.456 
L 426.171429 262.456 
z
" clip-path="url(#p83fc325caa)" style="fill: #4878cf; stroke: #ffffff; stroke-width: 0.4; stroke-linejoin: miter"/>
   </g>
   <g id="patch_12">
    <path d="M 129.444156 783.7 
L 150.638961 783.7 
L 150.638961 253.312 
L 129.444156 253.312 
z
" clip-path="url(#p83fc325caa)" style="fill: #6a51a3; stroke: #ffffff; stroke-width: 0.4; stroke-linejoin: miter"/>
   </g>
   <g id="patch_13">
    <path d="M 288.405195 783.7 
L 309.6 783.7 
L 309.6 234.916 
L 288.405195 234.916 
z
" clip-path="url(#p83fc325caa)" style="fill: #6a51a3; stroke: #ffffff; stroke-width: 0.4; stroke-linejoin: miter"/>
   </g>
   <g id="patch_14">
    <path d="M 447.366234 783.7 
L 468.561039 783.7 
L 468.561039 248.632 
L 447.366234 248.632 
z
" clip-path="url(#p83fc325caa)" style="fill: #6a51a3; stroke: #ffffff; stroke-width: 0.4; stroke-linejoin: miter"/>
   </g>
   <g id="patch_15">
    <path d="M 150.638961 783.7 
L 171.833766 783.7 
L 171.833766 210.076 
L 150.638961 210.076 
z
" clip-path="url(#p83fc325caa)" style="fill: #d1701f; stroke: #ffffff; stroke-width: 0.4; stroke-linejoin: miter"/>
   </g>
   <g id="patch_16">
    <path d="M 309.6 783.7 
L 330.794805 783.7 
L 330.794805 219.436 
L 309.6 219.436 
z
" clip-path="url(#p83fc325caa)" style="fill: #d1701f; stroke: #ffffff; stroke-width: 0.4; stroke-linejoin: miter"/>
   </g>
   <g id="patch_17">
    <path d="M 468.561039 783.7 
L 489.755844 783.7 
L 489.755844 201.904 
L 468.561039 201.904 
z
" clip-path="url(#p83fc325caa)" style="fill: #d1701f; stroke: #ffffff; stroke-width: 0.4; stroke-linejoin: miter"/>
   </g>
   <g id="patch_18">
    <path d="M 171.833766 783.7 
L 193.028571 783.7 
L 193.028571 183.652 
L 171.833766 183.652 
z
" clip-path="url(#p83fc325caa)" style="fill: #c44e52; stroke: #ffffff; stroke-width: 0.4; stroke-linejoin: miter"/>
   </g>
   <g id="patch_19">
    <path d="M 330.794805 783.7 
L 351.98961 783.7 
L 351.98961 255.328 
L 330.794805 255.328 
z
" clip-path="url(#p83fc325caa)" style="fill: #c44e52; stroke: #ffffff; stroke-width: 0.4; stroke-linejoin: miter"/>
   </g>
   <g id="patch_20">
    <path d="M 489.755844 783.7 
L 510.950649 783.7 
L 510.950649 271.96 
L 489.755844 271.96 
z
" clip-path="url(#p83fc325caa)" style="fill: #c44e52; stroke: #ffffff; stroke-width: 0.4; stroke-linejoin: miter"/>
   </g>
   <g id="patch_21">
    <path d="M 193.028571 783.7 
L 214.223377 783.7 
L 214.223377 265.3 
L 193.028571 265.3 
z
" clip-path="url(#p83fc325caa)" style="fill: #8c8c8c; stroke: #ffffff; stroke-width: 0.4; stroke-linejoin: miter"/>
   </g>
   <g id="patch_22">
    <path d="M 351.98961 783.7 
L 373.184416 783.7 
L 373.184416 248.596 
L 351.98961 248.596 
z
" clip-path="url(#p83fc325caa)" style="fill: #8c8c8c; stroke: #ffffff; stroke-width: 0.4; stroke-linejoin: miter"/>
   </g>
   <g id="patch_23">
    <path d="M 510.950649 783.7 
L 532.145455 783.7 
L 532.145455 226.636 
L 510.950649 226.636 
z
" clip-path="url(#p83fc325caa)" style="fill: #8c8c8c; stroke: #ffffff; stroke-width: 0.4; stroke-linejoin: miter"/>
   </g>
   <g id="patch_24">
    <path d="M 257.41056 33.400831 
Q 178.528283 38.407139 100.761795 43.342632 
" style="fill: none; stroke: #1f6f3f; stroke-linecap: round"/>
    <path d="M 103.850778 44.649606 
L 100.761795 43.342632 
L 103.660764 41.655629 
" style="fill: none; stroke: #1f6f3f; stroke-linecap: round"/>
   </g>
   <g id="text_3">
    <!-- GA@60 collapses -->
    <g style="fill: #1f6f3f" transform="translate(261.911688 29.120547) scale(0.075 -0.075)">
     <defs>
      <path id="STIXTwoText-47" d="M 2368 -70 
Q 1350 -70 835 496 
Q 320 1062 320 2086 
Q 320 2797 592 3286 
Q 864 3776 1334 4029 
Q 1805 4282 2406 4282 
Q 2758 4282 2966 4224 
Q 3174 4166 3292 4108 
Q 3411 4051 3488 4051 
Q 3571 4051 3612 4115 
Q 3654 4179 3718 4282 
L 3904 4282 
L 3904 2816 
L 3686 2816 
Q 3578 3456 3251 3731 
Q 2925 4006 2413 4006 
Q 1734 4006 1360 3510 
Q 986 3014 986 2163 
Q 986 1184 1379 701 
Q 1773 218 2458 218 
Q 2758 218 2966 307 
Q 3174 397 3366 538 
L 3366 1229 
Q 3366 1459 3328 1577 
Q 3290 1696 3168 1737 
Q 3046 1779 2803 1779 
L 2803 1984 
L 4384 1984 
L 4384 1779 
Q 4115 1779 4032 1686 
Q 3949 1594 3949 1293 
L 3949 365 
Q 3603 166 3251 48 
Q 2899 -70 2368 -70 
z
" transform="scale(0.015625)"/>
      <path id="STIXTwoText-41" d="M 1363 0 
L 19 0 
L 19 192 
Q 198 192 307 249 
Q 416 307 518 483 
Q 621 659 774 1024 
L 2131 4237 
L 2394 4237 
L 3910 762 
Q 4051 448 4182 320 
Q 4314 192 4570 192 
L 4570 0 
L 2848 0 
L 2848 192 
Q 2944 192 3046 205 
Q 3149 218 3219 269 
Q 3290 320 3290 429 
Q 3290 499 3267 592 
Q 3245 685 3181 826 
L 2906 1466 
L 2861 1594 
L 2131 3450 
L 2112 3450 
L 1363 1594 
L 1318 1466 
L 1005 723 
Q 979 646 956 572 
Q 934 499 934 410 
Q 934 275 1036 233 
Q 1139 192 1363 192 
L 1363 0 
z
M 3002 1402 
L 1222 1402 
L 1318 1658 
L 2906 1658 
L 3002 1402 
z
" transform="scale(0.015625)"/>
      <path id="STIXTwoText-40" d="M 3021 -1190 
Q 2176 -1190 1587 -870 
Q 998 -550 691 29 
Q 384 608 384 1402 
Q 384 1984 573 2461 
Q 762 2938 1110 3283 
Q 1459 3629 1939 3817 
Q 2419 4006 2995 4006 
Q 3763 4006 4300 3712 
Q 4838 3418 5123 2896 
Q 5408 2374 5408 1702 
Q 5408 1146 5251 755 
Q 5094 365 4812 157 
Q 4531 -51 4141 -51 
Q 3840 -51 3705 80 
Q 3571 211 3533 525 
L 3501 525 
Q 3341 250 3097 86 
Q 2854 -77 2566 -77 
Q 2323 -77 2096 35 
Q 1869 147 1725 432 
Q 1581 717 1581 1222 
Q 1581 1523 1657 1814 
Q 1734 2106 1894 2339 
Q 2054 2573 2297 2710 
Q 2541 2848 2874 2848 
Q 3104 2848 3254 2755 
Q 3405 2662 3507 2534 
L 3552 2534 
L 3718 2810 
L 4013 2810 
L 3987 659 
Q 3987 525 4035 422 
Q 4083 320 4230 320 
Q 4627 320 4806 681 
Q 4986 1043 4986 1702 
Q 4986 2330 4736 2781 
Q 4486 3232 4038 3478 
Q 3590 3725 2995 3725 
Q 2355 3725 1872 3459 
Q 1389 3194 1117 2685 
Q 845 2176 845 1446 
Q 845 717 1110 198 
Q 1376 -320 1875 -595 
Q 2374 -870 3072 -870 
Q 3430 -870 3798 -812 
Q 4166 -755 4570 -563 
L 4653 -749 
Q 4224 -992 3830 -1091 
Q 3437 -1190 3021 -1190 
z
M 2752 320 
Q 3053 320 3232 499 
Q 3411 678 3488 877 
L 3501 2067 
Q 3462 2285 3302 2454 
Q 3142 2624 2886 2624 
Q 2592 2624 2419 2429 
Q 2246 2234 2176 1942 
Q 2106 1651 2106 1357 
Q 2106 941 2198 713 
Q 2291 486 2438 403 
Q 2586 320 2752 320 
z
" transform="scale(0.015625)"/>
      <path id="STIXTwoText-20" transform="scale(0.015625)"/>
      <path id="STIXTwoText-63" d="M 2611 947 
L 2733 858 
Q 2611 602 2454 390 
Q 2298 179 2067 57 
Q 1837 -64 1491 -64 
Q 1094 -64 806 128 
Q 518 320 364 662 
Q 211 1005 211 1446 
Q 211 1952 380 2323 
Q 550 2694 873 2899 
Q 1197 3104 1658 3104 
Q 2112 3104 2371 2905 
Q 2630 2707 2630 2426 
Q 2630 2285 2563 2211 
Q 2496 2138 2362 2138 
Q 2221 2138 2147 2211 
Q 2074 2285 2029 2393 
Q 1984 2502 1936 2611 
Q 1888 2720 1801 2793 
Q 1715 2867 1549 2867 
Q 1158 2867 937 2582 
Q 717 2298 717 1747 
Q 717 1165 957 790 
Q 1197 416 1690 416 
Q 2003 416 2198 544 
Q 2394 672 2611 947 
z
" transform="scale(0.015625)"/>
      <path id="STIXTwoText-6f" d="M 1651 -64 
Q 979 -64 598 355 
Q 218 774 218 1549 
Q 218 2016 397 2365 
Q 576 2714 899 2909 
Q 1222 3104 1651 3104 
Q 2310 3104 2691 2694 
Q 3072 2285 3072 1574 
Q 3072 1037 2889 672 
Q 2707 307 2387 121 
Q 2067 -64 1651 -64 
z
M 1677 192 
Q 1939 192 2118 313 
Q 2298 435 2390 729 
Q 2483 1024 2483 1542 
Q 2483 2131 2268 2496 
Q 2054 2861 1626 2861 
Q 1261 2861 1037 2553 
Q 813 2246 813 1632 
Q 813 870 1040 528 
Q 1267 186 1677 192 
z
" transform="scale(0.015625)"/>
      <path id="STIXTwoText-6c" d="M 1664 0 
L 192 0 
L 192 186 
Q 403 186 499 227 
Q 595 269 617 368 
Q 640 467 640 646 
L 640 3859 
Q 640 4058 566 4096 
Q 493 4134 371 4134 
Q 288 4134 227 4128 
Q 166 4122 166 4122 
L 166 4294 
L 1011 4518 
L 1171 4518 
L 1171 646 
Q 1171 461 1200 361 
Q 1229 262 1331 224 
Q 1434 186 1664 186 
L 1664 0 
z
" transform="scale(0.015625)"/>
      <path id="STIXTwoText-61" d="M 1005 -45 
Q 634 -45 438 160 
Q 243 365 243 672 
Q 243 928 361 1104 
Q 480 1280 675 1401 
Q 870 1523 1097 1606 
Q 1325 1690 1542 1747 
Q 1760 1805 1926 1856 
L 1926 2138 
Q 1926 2554 1782 2730 
Q 1638 2906 1350 2906 
Q 1075 2906 998 2790 
Q 922 2675 922 2387 
Q 922 2240 848 2166 
Q 774 2093 640 2093 
Q 544 2093 457 2166 
Q 371 2240 371 2400 
Q 371 2579 508 2739 
Q 646 2899 899 3001 
Q 1152 3104 1498 3104 
Q 2022 3104 2240 2861 
Q 2458 2618 2458 2118 
L 2458 666 
Q 2458 467 2502 409 
Q 2547 352 2650 352 
Q 2739 352 2812 397 
Q 2886 442 2950 512 
L 3046 410 
Q 2886 179 2742 73 
Q 2598 -32 2355 -32 
Q 2131 -32 2064 96 
Q 1997 224 1965 461 
L 1926 538 
L 1926 1645 
Q 1638 1574 1382 1478 
Q 1126 1382 966 1228 
Q 806 1075 806 826 
Q 806 589 934 448 
Q 1062 307 1267 307 
Q 1434 307 1616 390 
Q 1798 474 1971 627 
L 2022 397 
L 1946 397 
Q 1798 269 1660 166 
Q 1523 64 1366 9 
Q 1210 -45 1005 -45 
z
" transform="scale(0.015625)"/>
      <path id="STIXTwoText-70" d="M 1760 -1408 
L 141 -1408 
L 141 -1229 
Q 442 -1229 525 -1129 
Q 608 -1030 608 -762 
L 608 2406 
Q 608 2592 566 2662 
Q 525 2733 365 2733 
Q 301 2733 230 2726 
Q 160 2720 160 2720 
L 160 2906 
L 966 3085 
L 1126 3085 
L 1126 2547 
L 1146 2547 
Q 1376 2816 1616 2960 
Q 1856 3104 2138 3104 
Q 2458 3104 2698 2921 
Q 2938 2739 3075 2416 
Q 3213 2093 3213 1670 
Q 3213 1126 3024 739 
Q 2835 352 2515 144 
Q 2195 -64 1811 -64 
Q 1632 -64 1469 -22 
Q 1306 19 1165 115 
L 1139 115 
L 1139 -723 
Q 1139 -928 1190 -1037 
Q 1242 -1146 1376 -1184 
Q 1510 -1222 1760 -1222 
L 1760 -1408 
z
M 1843 186 
Q 2182 186 2406 506 
Q 2630 826 2630 1491 
Q 2630 2099 2432 2384 
Q 2234 2669 1875 2669 
Q 1619 2669 1424 2534 
Q 1229 2400 1139 2278 
L 1139 608 
Q 1203 544 1299 441 
Q 1395 339 1529 262 
Q 1664 186 1843 186 
z
" transform="scale(0.015625)"/>
      <path id="STIXTwoText-73" d="M 269 -51 
L 250 1050 
L 416 1050 
Q 518 557 716 361 
Q 915 166 1267 166 
Q 1510 166 1664 265 
Q 1818 365 1818 589 
Q 1818 742 1763 844 
Q 1709 947 1555 1052 
Q 1402 1158 1101 1306 
Q 806 1453 620 1590 
Q 435 1728 345 1894 
Q 256 2061 256 2298 
Q 256 2694 541 2899 
Q 826 3104 1235 3104 
Q 1478 3104 1632 3049 
Q 1786 2995 1907 2938 
L 1914 2938 
L 2022 3072 
L 2150 3072 
L 2170 2093 
L 1997 2093 
Q 1894 2547 1708 2716 
Q 1523 2886 1229 2886 
Q 1011 2886 860 2784 
Q 710 2682 710 2464 
Q 710 2278 883 2131 
Q 1056 1984 1459 1779 
Q 1754 1626 1952 1482 
Q 2150 1338 2252 1168 
Q 2355 998 2355 762 
Q 2355 461 2208 278 
Q 2061 96 1814 13 
Q 1568 -70 1280 -70 
Q 1005 -70 841 -12 
Q 678 45 550 96 
L 538 96 
L 403 -51 
L 269 -51 
z
" transform="scale(0.015625)"/>
      <path id="STIXTwoText-65" d="M 1581 -64 
Q 1197 -64 886 118 
Q 576 301 397 656 
Q 218 1011 218 1523 
Q 218 2061 400 2409 
Q 582 2758 889 2931 
Q 1197 3104 1568 3104 
Q 2093 3104 2413 2739 
Q 2733 2374 2758 1702 
L 678 1702 
L 672 1939 
L 2157 1939 
Q 2150 2176 2073 2384 
Q 1997 2592 1849 2720 
Q 1702 2848 1472 2848 
Q 1101 2848 915 2557 
Q 730 2266 730 1734 
Q 730 1293 870 998 
Q 1011 704 1241 560 
Q 1472 416 1734 416 
Q 1997 416 2160 486 
Q 2323 557 2438 669 
Q 2554 781 2656 915 
L 2778 826 
Q 2694 646 2585 483 
Q 2477 320 2339 198 
Q 2202 77 2016 6 
Q 1830 -64 1581 -64 
z
" transform="scale(0.015625)"/>
     </defs>
     <use xlink:href="#STIXTwoText-47"/>
     <use xlink:href="#STIXTwoText-41" transform="translate(71.999985 0)"/>
     <use xlink:href="#STIXTwoText-40" transform="translate(143.799973 0)"/>
     <use xlink:href="#STIXTwoText-36" transform="translate(234.299957 0)"/>
     <use xlink:href="#STIXTwoText-30" transform="translate(283.799942 0)"/>
     <use xlink:href="#STIXTwoText-20" transform="translate(333.299927 0)"/>
     <use xlink:href="#STIXTwoText-63" transform="translate(356.799911 0)"/>
     <use xlink:href="#STIXTwoText-6f" transform="translate(401.399902 0)"/>
     <use xlink:href="#STIXTwoText-6c" transform="translate(452.799896 0)"/>
     <use xlink:href="#STIXTwoText-6c" transform="translate(481.099884 0)"/>
     <use xlink:href="#STIXTwoText-61" transform="translate(509.399872 0)"/>
     <use xlink:href="#STIXTwoText-70" transform="translate(557.399857 0)"/>
     <use xlink:href="#STIXTwoText-73" transform="translate(611.099854 0)"/>
     <use xlink:href="#STIXTwoText-65" transform="translate(650.599838 0)"/>
     <use xlink:href="#STIXTwoText-73" transform="translate(696.999832 0)"/>
    </g>
    <!-- (206 vs 131 @150) -->
    <g style="fill: #1f6f3f" transform="translate(261.911688 37.123984) scale(0.075 -0.075)">
     <defs>
      <path id="STIXTwoText-28" d="M 1997 -1011 
L 1894 -1190 
Q 1120 -794 656 -48 
Q 192 698 192 1754 
Q 192 2803 656 3542 
Q 1120 4282 1894 4672 
L 1997 4506 
Q 1299 4038 1008 3372 
Q 717 2707 717 1754 
Q 717 787 1008 118 
Q 1299 -550 1997 -1011 
z
" transform="scale(0.015625)"/>
      <path id="STIXTwoText-76" d="M 1696 -38 
L 1389 -38 
L 435 2374 
Q 352 2573 288 2672 
Q 224 2771 141 2806 
Q 58 2842 -83 2842 
L -83 3027 
L 1267 3027 
L 1267 2842 
Q 1082 2842 1008 2800 
Q 934 2758 934 2682 
Q 934 2618 953 2560 
Q 973 2502 998 2432 
L 1542 1005 
L 1664 621 
L 1702 621 
L 1837 1011 
L 2387 2458 
Q 2394 2483 2413 2537 
Q 2432 2592 2432 2669 
Q 2432 2778 2336 2810 
Q 2240 2842 2067 2842 
L 2067 3027 
L 3187 3027 
L 3187 2842 
Q 3002 2842 2902 2755 
Q 2803 2669 2707 2419 
L 1696 -38 
z
" transform="scale(0.015625)"/>
      <path id="STIXTwoText-31" d="M 2726 0 
L 512 0 
L 512 179 
Q 966 179 1152 275 
Q 1338 371 1338 608 
L 1338 3315 
Q 1338 3482 1293 3555 
Q 1248 3629 1126 3629 
Q 1062 3629 947 3616 
Q 832 3603 704 3580 
Q 576 3558 474 3526 
L 474 3738 
L 1715 4090 
L 1901 4090 
L 1901 608 
Q 1901 371 2093 275 
Q 2285 179 2726 179 
L 2726 0 
z
" transform="scale(0.015625)"/>
      <path id="STIXTwoText-33" d="M 1094 -83 
Q 806 -83 652 -28 
Q 499 26 438 106 
Q 378 186 378 269 
Q 378 371 442 460 
Q 506 550 627 550 
Q 723 550 828 502 
Q 934 454 1049 393 
Q 1165 333 1283 285 
Q 1402 237 1523 237 
Q 1728 237 1907 310 
Q 2086 384 2201 560 
Q 2317 736 2317 1050 
Q 2317 1338 2157 1549 
Q 1997 1760 1731 1878 
Q 1466 1997 1158 1997 
L 1030 1997 
L 1030 2240 
L 1152 2240 
Q 1370 2240 1574 2349 
Q 1779 2458 1910 2656 
Q 2042 2854 2042 3110 
Q 2042 3392 1866 3549 
Q 1690 3706 1389 3706 
Q 1101 3706 909 3574 
Q 717 3443 550 3187 
L 403 3270 
Q 582 3686 876 3904 
Q 1171 4122 1562 4122 
Q 2054 4122 2323 3875 
Q 2592 3629 2592 3264 
Q 2592 2931 2397 2726 
Q 2202 2522 1901 2330 
L 1901 2310 
Q 2157 2234 2371 2090 
Q 2586 1946 2714 1738 
Q 2842 1530 2842 1242 
Q 2842 806 2598 508 
Q 2355 211 1958 64 
Q 1562 -83 1094 -83 
z
" transform="scale(0.015625)"/>
      <path id="STIXTwoText-29" d="M 301 -1190 
L 198 -1011 
Q 902 -550 1190 118 
Q 1478 787 1478 1754 
Q 1478 2707 1190 3372 
Q 902 4038 198 4506 
L 301 4672 
Q 1075 4282 1539 3542 
Q 2003 2803 2003 1754 
Q 2003 698 1539 -48 
Q 1075 -794 301 -1190 
z
" transform="scale(0.015625)"/>
     </defs>
     <use xlink:href="#STIXTwoText-28"/>
     <use xlink:href="#STIXTwoText-32" transform="translate(34.299988 0)"/>
     <use xlink:href="#STIXTwoText-30" transform="translate(83.799973 0)"/>
     <use xlink:href="#STIXTwoText-36" transform="translate(133.299957 0)"/>
     <use xlink:href="#STIXTwoText-20" transform="translate(182.799942 0)"/>
     <use xlink:href="#STIXTwoText-76" transform="translate(206.299927 0)"/>
     <use xlink:href="#STIXTwoText-73" transform="translate(254.399918 0)"/>
     <use xlink:href="#STIXTwoText-20" transform="translate(293.899902 0)"/>
     <use xlink:href="#STIXTwoText-31" transform="translate(317.399887 0)"/>
     <use xlink:href="#STIXTwoText-33" transform="translate(366.899872 0)"/>
     <use xlink:href="#STIXTwoText-31" transform="translate(416.399857 0)"/>
     <use xlink:href="#STIXTwoText-20" transform="translate(465.899841 0)"/>
     <use xlink:href="#STIXTwoText-40" transform="translate(489.399826 0)"/>
     <use xlink:href="#STIXTwoText-31" transform="translate(579.899811 0)"/>
     <use xlink:href="#STIXTwoText-35" transform="translate(629.399796 0)"/>
     <use xlink:href="#STIXTwoText-30" transform="translate(678.89978 0)"/>
     <use xlink:href="#STIXTwoText-29" transform="translate(728.399765 0)"/>
    </g>
   </g>
   <g id="text_4">
    <!-- Optimizer $\times$ population at dense-3998 (sizing-tail CVaR$_{95}$) -->
    <g style="fill: #262626" transform="translate(64.8 14.5) scale(0.1 -0.1)">
     <defs>
      <path id="STIXTwoText-4f" d="M 2362 -77 
Q 1728 -77 1270 185 
Q 813 448 566 937 
Q 320 1427 320 2106 
Q 320 2758 566 3248 
Q 813 3738 1270 4010 
Q 1728 4282 2362 4282 
Q 3002 4282 3456 4016 
Q 3910 3750 4153 3273 
Q 4397 2797 4397 2163 
Q 4397 1491 4150 988 
Q 3904 486 3449 204 
Q 2995 -77 2362 -77 
z
M 2368 192 
Q 3053 192 3389 685 
Q 3725 1178 3725 2144 
Q 3725 2720 3552 3139 
Q 3379 3558 3068 3785 
Q 2758 4013 2342 4013 
Q 1722 4013 1357 3517 
Q 992 3021 992 2144 
Q 992 1242 1334 717 
Q 1677 192 2368 192 
z
" transform="scale(0.015625)"/>
      <path id="STIXTwoText-74" d="M 1875 576 
L 1997 474 
Q 1875 301 1769 182 
Q 1664 64 1536 0 
Q 1408 -64 1203 -64 
Q 883 -64 736 125 
Q 589 314 589 742 
L 589 2726 
L 237 2726 
L 237 2874 
Q 461 3014 624 3254 
Q 787 3494 960 3904 
L 1120 3904 
L 1120 2995 
L 1843 2995 
L 1843 2726 
L 1120 2726 
L 1120 922 
Q 1120 582 1181 448 
Q 1242 314 1427 314 
Q 1581 314 1667 378 
Q 1754 442 1875 576 
z
" transform="scale(0.015625)"/>
      <path id="STIXTwoText-69" d="M 1645 0 
L 205 0 
L 205 179 
Q 422 179 515 220 
Q 608 262 630 364 
Q 653 467 653 646 
L 653 2432 
Q 653 2637 582 2685 
Q 512 2733 371 2733 
Q 307 2733 259 2726 
Q 211 2720 211 2720 
L 211 2906 
L 1018 3085 
L 1184 3085 
L 1184 646 
Q 1184 461 1209 358 
Q 1235 256 1334 217 
Q 1434 179 1645 179 
L 1645 0 
z
M 928 3584 
Q 768 3584 665 3693 
Q 563 3802 563 3949 
Q 563 4096 662 4201 
Q 762 4307 928 4307 
Q 1094 4307 1193 4201 
Q 1293 4096 1293 3949 
Q 1293 3802 1193 3693 
Q 1094 3584 928 3584 
z
" transform="scale(0.015625)"/>
      <path id="STIXTwoText-6d" d="M 3520 0 
L 2003 0 
L 2003 186 
Q 2234 186 2336 230 
Q 2438 275 2467 396 
Q 2496 518 2496 742 
L 2496 2010 
Q 2496 2419 2352 2556 
Q 2208 2694 1984 2694 
Q 1805 2694 1648 2617 
Q 1491 2541 1363 2438 
Q 1235 2336 1146 2246 
L 1094 2566 
L 1190 2566 
Q 1453 2790 1696 2947 
Q 1939 3104 2266 3104 
Q 2554 3104 2730 2937 
Q 2906 2771 2995 2522 
Q 3008 2502 3014 2480 
Q 3021 2458 3027 2432 
L 3027 742 
Q 3027 525 3056 403 
Q 3085 282 3187 234 
Q 3290 186 3520 186 
L 3520 0 
z
M 1664 0 
L 205 0 
L 205 186 
Q 410 186 502 221 
Q 595 256 624 355 
Q 653 454 653 646 
L 653 2438 
Q 653 2611 585 2668 
Q 518 2726 384 2726 
Q 314 2726 262 2720 
Q 211 2714 211 2714 
L 211 2899 
L 1011 3085 
L 1165 3085 
L 1165 2496 
L 1184 2355 
L 1184 621 
Q 1184 442 1222 349 
Q 1261 256 1363 221 
Q 1466 186 1664 186 
L 1664 0 
z
M 5306 0 
L 3859 0 
L 3859 186 
Q 4077 186 4173 243 
Q 4269 301 4291 425 
Q 4314 550 4314 742 
L 4314 1971 
Q 4314 2266 4240 2419 
Q 4166 2573 4041 2633 
Q 3917 2694 3763 2694 
Q 3552 2694 3347 2544 
Q 3142 2394 2976 2253 
L 2906 2573 
L 3002 2573 
Q 3264 2835 3513 2969 
Q 3763 3104 4019 3104 
Q 4397 3104 4621 2867 
Q 4845 2630 4845 2048 
L 4845 742 
Q 4845 544 4867 419 
Q 4890 294 4989 240 
Q 5088 186 5306 186 
L 5306 0 
z
" transform="scale(0.015625)"/>
      <path id="STIXTwoText-7a" d="M 2656 0 
L 198 0 
L 198 186 
L 1997 2739 
L 1997 2758 
L 1133 2758 
Q 781 2758 662 2582 
Q 544 2406 499 2086 
L 301 2086 
L 333 3027 
L 2694 3027 
L 2694 2842 
L 896 282 
L 896 262 
L 1696 262 
Q 1971 262 2124 329 
Q 2278 397 2361 563 
Q 2445 730 2509 1024 
L 2720 1024 
L 2656 0 
z
" transform="scale(0.015625)"/>
      <path id="STIXTwoText-72" d="M 1786 0 
L 186 0 
L 186 186 
Q 397 186 496 221 
Q 595 256 624 349 
Q 653 442 653 621 
L 653 2381 
Q 653 2554 624 2640 
Q 595 2726 422 2726 
Q 326 2726 275 2720 
Q 224 2714 224 2714 
L 224 2893 
L 1018 3085 
L 1171 3085 
L 1171 2426 
L 1190 2426 
Q 1357 2662 1485 2816 
Q 1613 2970 1737 3046 
Q 1862 3123 2016 3123 
Q 2202 3123 2294 3027 
Q 2387 2931 2387 2765 
Q 2387 2586 2300 2502 
Q 2214 2419 2106 2419 
Q 2003 2419 1923 2473 
Q 1843 2528 1785 2582 
Q 1728 2637 1690 2637 
Q 1581 2637 1440 2470 
Q 1299 2304 1184 2112 
L 1184 653 
Q 1184 454 1235 352 
Q 1286 250 1417 218 
Q 1549 186 1786 186 
L 1786 0 
z
" transform="scale(0.015625)"/>
      <path id="STIXGeneral-Regular-d7" d="M 3821 141 
L 3526 -160 
L 2048 1312 
L 570 -160 
L 275 134 
L 1747 1613 
L 275 3091 
L 576 3386 
L 2048 1914 
L 3526 3386 
L 3821 3098 
L 2349 1613 
L 3821 141 
z
" transform="scale(0.015625)"/>
      <path id="STIXTwoText-75" d="M 1421 -64 
Q 1024 -64 803 195 
Q 582 454 582 1107 
L 582 2406 
Q 582 2579 547 2659 
Q 512 2739 416 2761 
Q 320 2784 147 2784 
L 147 2963 
L 973 3059 
L 1114 3059 
L 1114 1190 
Q 1114 864 1187 681 
Q 1261 499 1392 422 
Q 1523 346 1690 346 
Q 1933 346 2109 454 
Q 2285 563 2477 730 
L 2477 2413 
Q 2477 2586 2432 2662 
Q 2387 2739 2275 2761 
Q 2163 2784 1958 2784 
L 1958 2963 
L 2854 3059 
L 3008 3059 
L 3008 710 
Q 3008 429 3085 358 
Q 3162 288 3392 288 
L 3456 288 
L 3456 115 
L 2643 -32 
L 2502 -32 
L 2502 461 
L 2470 461 
Q 2304 294 2141 176 
Q 1978 58 1802 -3 
Q 1626 -64 1421 -64 
z
" transform="scale(0.015625)"/>
      <path id="STIXTwoText-6e" d="M 3552 0 
L 2074 0 
L 2074 179 
Q 2304 179 2403 220 
Q 2502 262 2524 364 
Q 2547 467 2547 646 
L 2547 1805 
Q 2547 2189 2460 2381 
Q 2374 2573 2240 2633 
Q 2106 2694 1958 2694 
Q 1773 2694 1625 2620 
Q 1478 2547 1360 2444 
Q 1242 2342 1139 2253 
L 1094 2566 
L 1190 2566 
Q 1453 2797 1686 2950 
Q 1920 3104 2221 3104 
Q 2656 3104 2867 2809 
Q 3078 2515 3078 1965 
L 3078 646 
Q 3078 467 3107 364 
Q 3136 262 3238 220 
Q 3341 179 3552 179 
L 3552 0 
z
M 1670 0 
L 205 0 
L 205 179 
Q 422 179 515 220 
Q 608 262 630 364 
Q 653 467 653 646 
L 653 2445 
Q 653 2618 582 2672 
Q 512 2726 384 2726 
Q 301 2726 256 2720 
Q 211 2714 211 2714 
L 211 2899 
L 1024 3085 
L 1171 3085 
L 1165 2496 
L 1184 2362 
L 1184 646 
Q 1184 467 1209 364 
Q 1235 262 1337 220 
Q 1440 179 1670 179 
L 1670 0 
z
" transform="scale(0.015625)"/>
      <path id="STIXTwoText-64" d="M 1306 -51 
Q 947 -51 700 141 
Q 454 333 332 662 
Q 211 992 211 1402 
Q 211 1933 409 2313 
Q 608 2694 944 2899 
Q 1280 3104 1683 3104 
Q 1837 3104 1987 3065 
Q 2138 3027 2278 2950 
L 2304 2950 
L 2304 3789 
Q 2304 4000 2256 4064 
Q 2208 4128 2022 4128 
Q 1978 4128 1917 4121 
Q 1856 4115 1856 4115 
L 1856 4294 
L 2662 4518 
L 2835 4518 
L 2835 685 
Q 2835 435 2905 361 
Q 2976 288 3155 288 
L 3290 288 
L 3290 115 
L 2470 -32 
L 2323 -32 
L 2323 410 
L 2298 410 
Q 2118 250 1872 99 
Q 1626 -51 1306 -51 
z
M 1606 410 
Q 1830 410 1984 470 
Q 2138 531 2304 646 
L 2304 2336 
Q 2266 2534 2118 2691 
Q 1971 2848 1670 2848 
Q 1267 2848 1017 2553 
Q 768 2259 768 1651 
Q 768 992 982 701 
Q 1197 410 1606 410 
z
" transform="scale(0.015625)"/>
      <path id="STIXTwoText-2d" d="M 1728 1395 
L 288 1395 
L 288 1811 
L 1728 1811 
L 1728 1395 
z
" transform="scale(0.015625)"/>
      <path id="STIXTwoText-39" d="M 544 -83 
L 531 102 
Q 973 154 1344 362 
Q 1715 570 1961 931 
Q 2208 1293 2278 1811 
L 2240 1818 
Q 2022 1619 1833 1520 
Q 1645 1421 1402 1421 
Q 877 1421 563 1776 
Q 250 2131 250 2765 
Q 250 3411 592 3772 
Q 934 4134 1536 4134 
Q 2016 4134 2310 3897 
Q 2605 3661 2742 3264 
Q 2880 2867 2880 2394 
Q 2880 1773 2713 1312 
Q 2547 851 2240 540 
Q 1933 230 1504 76 
Q 1075 -77 544 -83 
z
M 1594 1798 
Q 1875 1798 2089 1968 
Q 2304 2138 2304 2547 
Q 2304 2950 2224 3257 
Q 2144 3565 1968 3741 
Q 1792 3917 1510 3917 
Q 1197 3917 1001 3667 
Q 806 3418 806 2803 
Q 806 2355 1001 2076 
Q 1197 1798 1594 1798 
z
" transform="scale(0.015625)"/>
      <path id="STIXTwoText-38" d="M 1574 -77 
Q 1203 -77 915 32 
Q 627 141 460 361 
Q 294 582 294 909 
Q 294 1165 390 1341 
Q 486 1517 681 1670 
Q 877 1824 1171 2022 
L 1171 2099 
L 1421 1965 
Q 1222 1805 1081 1664 
Q 941 1523 867 1356 
Q 794 1190 794 960 
Q 794 531 1014 326 
Q 1235 122 1600 122 
Q 1798 122 1964 195 
Q 2131 269 2230 413 
Q 2330 557 2330 774 
Q 2330 986 2243 1158 
Q 2157 1331 1929 1520 
Q 1702 1709 1280 1978 
L 1248 1990 
Q 890 2234 701 2419 
Q 512 2605 445 2787 
Q 378 2970 378 3194 
Q 378 3488 534 3699 
Q 691 3910 966 4025 
Q 1242 4141 1594 4141 
Q 1914 4141 2166 4025 
Q 2419 3910 2566 3712 
Q 2714 3514 2714 3258 
Q 2714 3027 2630 2860 
Q 2547 2694 2368 2556 
Q 2189 2419 1888 2253 
L 1888 2176 
L 1619 2317 
Q 1978 2522 2109 2736 
Q 2240 2950 2240 3270 
Q 2240 3590 2064 3760 
Q 1888 3930 1581 3930 
Q 1254 3930 1065 3766 
Q 877 3603 877 3309 
Q 877 3014 1088 2803 
Q 1299 2592 1766 2310 
L 1811 2278 
Q 2214 2042 2444 1840 
Q 2675 1638 2771 1433 
Q 2867 1229 2867 960 
Q 2867 627 2704 393 
Q 2541 160 2249 41 
Q 1958 -77 1574 -77 
z
" transform="scale(0.015625)"/>
      <path id="STIXTwoText-67" d="M 1222 -1504 
Q 806 -1504 566 -1401 
Q 326 -1299 230 -1136 
Q 134 -973 134 -800 
Q 134 -640 265 -464 
Q 397 -288 653 -38 
L 653 32 
L 845 -6 
Q 723 -211 678 -342 
Q 634 -474 634 -582 
Q 634 -858 870 -998 
Q 1107 -1139 1594 -1139 
Q 1971 -1139 2204 -1043 
Q 2438 -947 2544 -806 
Q 2650 -666 2650 -531 
Q 2650 -358 2538 -265 
Q 2426 -173 2253 -134 
Q 2080 -96 1888 -86 
Q 1696 -77 1536 -77 
Q 1248 -70 1101 -70 
Q 954 -70 890 -67 
Q 826 -64 774 -64 
L 710 -32 
Q 614 0 518 70 
Q 422 141 358 240 
Q 294 339 294 448 
Q 294 563 361 688 
Q 429 813 550 937 
Q 672 1062 819 1178 
L 819 1235 
L 986 1114 
Q 954 1082 909 998 
Q 864 915 832 822 
Q 800 730 800 666 
Q 800 570 867 515 
Q 934 461 1097 435 
Q 1261 410 1555 410 
Q 1958 410 2281 371 
Q 2605 333 2790 173 
Q 2976 13 2976 -352 
Q 2976 -672 2819 -893 
Q 2662 -1114 2403 -1248 
Q 2144 -1382 1833 -1443 
Q 1523 -1504 1222 -1504 
z
M 1517 998 
Q 1350 998 1206 1030 
Q 1062 1062 928 1107 
L 858 1171 
Q 691 1261 572 1382 
Q 454 1504 390 1673 
Q 326 1843 326 2061 
Q 326 2381 473 2614 
Q 621 2848 883 2976 
Q 1146 3104 1485 3104 
Q 1677 3104 1846 3069 
Q 2016 3034 2163 2963 
Q 2310 2893 2419 2797 
L 2419 2630 
Q 2490 2534 2570 2374 
Q 2650 2214 2650 1971 
Q 2650 1677 2506 1456 
Q 2362 1235 2109 1116 
Q 1856 998 1517 998 
z
M 1523 1222 
Q 1766 1222 1923 1388 
Q 2080 1555 2080 2010 
Q 2080 2400 1913 2637 
Q 1747 2874 1440 2874 
Q 1190 2874 1040 2682 
Q 890 2490 890 2086 
Q 890 1677 1050 1449 
Q 1210 1222 1523 1222 
z
M 3021 2989 
L 3021 2643 
L 2330 2662 
L 2106 2938 
L 3021 2989 
z
" transform="scale(0.015625)"/>
      <path id="STIXTwoText-43" d="M 2330 -70 
Q 1670 -70 1222 211 
Q 774 493 547 985 
Q 320 1478 320 2099 
Q 320 2797 589 3283 
Q 858 3770 1331 4026 
Q 1805 4282 2419 4282 
Q 2758 4282 2963 4224 
Q 3168 4166 3289 4108 
Q 3411 4051 3488 4051 
Q 3565 4051 3606 4118 
Q 3648 4186 3706 4282 
L 3898 4282 
L 3898 2816 
L 3680 2816 
Q 3578 3443 3248 3724 
Q 2918 4006 2426 4006 
Q 1734 4006 1360 3513 
Q 986 3021 986 2163 
Q 986 1523 1181 1120 
Q 1376 717 1721 525 
Q 2067 333 2515 333 
Q 2957 333 3289 496 
Q 3622 659 3891 954 
L 4045 819 
Q 3872 563 3632 361 
Q 3392 160 3072 45 
Q 2752 -70 2330 -70 
z
" transform="scale(0.015625)"/>
      <path id="STIXTwoText-56" d="M 2330 -32 
L 2074 -32 
L 608 3430 
Q 518 3648 428 3773 
Q 339 3898 224 3955 
Q 109 4013 -64 4013 
L -64 4205 
L 1651 4205 
L 1651 4013 
Q 1568 4013 1465 4000 
Q 1363 3987 1289 3939 
Q 1216 3891 1216 3770 
Q 1216 3642 1325 3379 
L 2099 1478 
L 2349 806 
L 2381 806 
L 2605 1446 
L 3411 3482 
Q 3443 3552 3462 3632 
Q 3482 3712 3482 3795 
Q 3482 3923 3379 3968 
Q 3277 4013 3053 4013 
L 3053 4205 
L 4397 4205 
L 4397 4013 
Q 4262 4013 4169 3984 
Q 4077 3955 4003 3868 
Q 3930 3782 3846 3616 
Q 3763 3450 3648 3181 
L 2330 -32 
z
" transform="scale(0.015625)"/>
      <path id="STIXTwoText-52" d="M 2074 0 
L 275 0 
L 275 192 
Q 518 192 640 230 
Q 762 269 803 397 
Q 845 525 845 794 
L 845 3539 
Q 845 3718 809 3820 
Q 774 3923 652 3968 
Q 531 4013 275 4013 
L 275 4205 
L 1850 4205 
Q 2330 4205 2704 4112 
Q 3078 4019 3289 3792 
Q 3501 3565 3501 3155 
Q 3501 2797 3337 2573 
Q 3174 2349 2928 2224 
Q 2682 2099 2419 2035 
L 2419 2010 
Q 2528 1946 2665 1789 
Q 2803 1632 3020 1328 
Q 3238 1024 3590 518 
Q 3744 307 3888 249 
Q 4032 192 4250 192 
L 4250 0 
L 3194 0 
Q 2931 397 2755 662 
Q 2579 928 2457 1110 
Q 2336 1293 2240 1433 
Q 2144 1574 2048 1715 
Q 1952 1862 1872 1894 
Q 1792 1926 1619 1926 
L 1440 1926 
L 1440 794 
Q 1440 531 1485 400 
Q 1530 269 1664 230 
Q 1798 192 2074 192 
L 2074 0 
z
M 1440 2176 
L 1683 2170 
Q 2035 2189 2297 2285 
Q 2560 2381 2707 2585 
Q 2854 2790 2854 3130 
Q 2854 3514 2617 3734 
Q 2381 3955 1862 3955 
Q 1760 3955 1651 3952 
Q 1542 3949 1440 3936 
L 1440 2176 
z
" transform="scale(0.015625)"/>
      <path id="STIXGeneral-Regular-39" d="M 378 -141 
L 358 -13 
Q 1094 115 1603 608 
Q 2112 1101 2304 1882 
Q 1933 1517 1344 1517 
Q 826 1517 509 1875 
Q 192 2234 192 2816 
Q 192 3462 573 3894 
Q 954 4326 1523 4326 
Q 2131 4326 2528 3840 
Q 2938 3328 2938 2522 
Q 2938 1958 2742 1462 
Q 2547 966 2170 621 
Q 1773 262 1395 105 
Q 1018 -51 378 -141 
z
M 2317 2272 
L 2317 2522 
Q 2317 4147 1472 4147 
Q 1171 4147 1005 3930 
Q 909 3802 845 3546 
Q 781 3290 781 3034 
Q 781 2464 995 2128 
Q 1210 1792 1568 1792 
Q 1824 1792 2070 1917 
Q 2317 2042 2317 2272 
z
" transform="scale(0.015625)"/>
      <path id="STIXGeneral-Regular-35" d="M 2803 4358 
L 2573 3814 
Q 2534 3731 2400 3731 
L 1158 3731 
L 902 3187 
Q 1606 3053 1920 2896 
Q 2234 2739 2502 2368 
Q 2726 2061 2726 1555 
Q 2726 1094 2576 780 
Q 2426 467 2099 224 
Q 1664 -90 1011 -90 
Q 646 -90 422 19 
Q 198 128 198 307 
Q 198 550 486 550 
Q 717 550 960 352 
Q 1210 147 1414 147 
Q 1747 147 2012 480 
Q 2278 813 2278 1229 
Q 2278 1843 1850 2189 
Q 1293 2637 486 2637 
Q 410 2637 410 2688 
L 416 2720 
L 1114 4237 
L 2438 4237 
Q 2547 4237 2608 4269 
Q 2669 4301 2746 4403 
L 2803 4358 
z
" transform="scale(0.015625)"/>
     </defs>
     <use xlink:href="#STIXTwoText-4f"/>
     <use xlink:href="#STIXTwoText-70" transform="translate(73.699982 0)"/>
     <use xlink:href="#STIXTwoText-74" transform="translate(127.399979 0)"/>
     <use xlink:href="#STIXTwoText-69" transform="translate(158.899963 0)"/>
     <use xlink:href="#STIXTwoText-6d" transform="translate(187.399948 0)"/>
     <use xlink:href="#STIXTwoText-69" transform="translate(272.59993 0)"/>
     <use xlink:href="#STIXTwoText-7a" transform="translate(301.099915 0)"/>
     <use xlink:href="#STIXTwoText-65" transform="translate(346.899902 0)"/>
     <use xlink:href="#STIXTwoText-72" transform="translate(393.299896 0)"/>
     <use xlink:href="#STIXTwoText-20" transform="translate(431.299881 0)"/>
     <use xlink:href="#STIXGeneral-Regular-d7" transform="translate(454.799866 0)"/>
     <use xlink:href="#STIXTwoText-20" transform="translate(518.79985 0)"/>
     <use xlink:href="#STIXTwoText-70" transform="translate(542.299835 0)"/>
     <use xlink:href="#STIXTwoText-6f" transform="translate(595.999832 0)"/>
     <use xlink:href="#STIXTwoText-70" transform="translate(647.399826 0)"/>
     <use xlink:href="#STIXTwoText-75" transform="translate(701.099823 0)"/>
     <use xlink:href="#STIXTwoText-6c" transform="translate(758.099808 0)"/>
     <use xlink:href="#STIXTwoText-61" transform="translate(786.399796 0)"/>
     <use xlink:href="#STIXTwoText-74" transform="translate(834.39978 0)"/>
     <use xlink:href="#STIXTwoText-69" transform="translate(865.899765 0)"/>
     <use xlink:href="#STIXTwoText-6f" transform="translate(894.39975 0)"/>
     <use xlink:href="#STIXTwoText-6e" transform="translate(945.799744 0)"/>
     <use xlink:href="#STIXTwoText-20" transform="translate(1003.399734 0)"/>
     <use xlink:href="#STIXTwoText-61" transform="translate(1026.899719 0)"/>
     <use xlink:href="#STIXTwoText-74" transform="translate(1074.899704 0)"/>
     <use xlink:href="#STIXTwoText-20" transform="translate(1106.399689 0)"/>
     <use xlink:href="#STIXTwoText-64" transform="translate(1129.899673 0)"/>
     <use xlink:href="#STIXTwoText-65" transform="translate(1183.799667 0)"/>
     <use xlink:href="#STIXTwoText-6e" transform="translate(1230.199661 0)"/>
     <use xlink:href="#STIXTwoText-73" transform="translate(1287.799652 0)"/>
     <use xlink:href="#STIXTwoText-65" transform="translate(1327.299637 0)"/>
     <use xlink:href="#STIXTwoText-2d" transform="translate(1373.699631 0)"/>
     <use xlink:href="#STIXTwoText-33" transform="translate(1405.199615 0)"/>
     <use xlink:href="#STIXTwoText-39" transform="translate(1454.6996 0)"/>
     <use xlink:href="#STIXTwoText-39" transform="translate(1504.199585 0)"/>
     <use xlink:href="#STIXTwoText-38" transform="translate(1553.69957 0)"/>
     <use xlink:href="#STIXTwoText-20" transform="translate(1603.199554 0)"/>
     <use xlink:href="#STIXTwoText-28" transform="translate(1626.699539 0)"/>
     <use xlink:href="#STIXTwoText-73" transform="translate(1660.999527 0)"/>
     <use xlink:href="#STIXTwoText-69" transform="translate(1700.499512 0)"/>
     <use xlink:href="#STIXTwoText-7a" transform="translate(1728.999496 0)"/>
     <use xlink:href="#STIXTwoText-69" transform="translate(1774.799484 0)"/>
     <use xlink:href="#STIXTwoText-6e" transform="translate(1803.299469 0)"/>
     <use xlink:href="#STIXTwoText-67" transform="translate(1860.89946 0)"/>
     <use xlink:href="#STIXTwoText-2d" transform="translate(1909.299454 0)"/>
     <use xlink:href="#STIXTwoText-74" transform="translate(1940.799438 0)"/>
     <use xlink:href="#STIXTwoText-61" transform="translate(1972.299423 0)"/>
     <use xlink:href="#STIXTwoText-69" transform="translate(2020.299408 0)"/>
     <use xlink:href="#STIXTwoText-6c" transform="translate(2048.799393 0)"/>
     <use xlink:href="#STIXTwoText-20" transform="translate(2077.09938 0)"/>
     <use xlink:href="#STIXTwoText-43" transform="translate(2100.599365 0)"/>
     <use xlink:href="#STIXTwoText-56" transform="translate(2167.59935 0)"/>
     <use xlink:href="#STIXTwoText-61" transform="translate(2235.599335 0)"/>
     <use xlink:href="#STIXTwoText-52" transform="translate(2283.599319 0)"/>
     <use xlink:href="#STIXGeneral-Regular-39" transform="translate(2351.042595 -13.228125) scale(0.7)"/>
     <use xlink:href="#STIXGeneral-Regular-35" transform="translate(2386.042584 -13.228125) scale(0.7)"/>
     <use xlink:href="#STIXTwoText-29" transform="translate(2425.451948 0)"/>
    </g>
   </g>
  </g>
  <g id="axes_2">
   <g id="patch_25">
    <path d="M 64.8 245.14 
L 554.4 245.14 
L 554.4 72.34 
L 64.8 72.34 
z
" style="fill: #f5f5f5"/>
   </g>
   <g id="matplotlib.axis_3">
    <g id="xtick_4">
     <g id="line2d_7">
      <path d="M 150.638961 245.14 
L 150.638961 72.34 
" clip-path="url(#pa2497b691f)" style="fill: none; stroke: #dddddd; stroke-width: 0.6; stroke-linecap: round"/>
     </g>
     <g id="text_5">
      <!-- 60 -->
      <g style="fill: #262626" transform="translate(146.431461 260.640469) scale(0.085 -0.085)">
       <use xlink:href="#STIXTwoText-36"/>
       <use xlink:href="#STIXTwoText-30" transform="translate(49.499985 0)"/>
      </g>
     </g>
    </g>
    <g id="xtick_5">
     <g id="line2d_8">
      <path d="M 309.6 245.14 
L 309.6 72.34 
" clip-path="url(#pa2497b691f)" style="fill: none; stroke: #dddddd; stroke-width: 0.6; stroke-linecap: round"/>
     </g>
     <g id="text_6">
      <!-- 150 -->
      <g style="fill: #262626" transform="translate(303.28875 260.640469) scale(0.085 -0.085)">
       <use xlink:href="#STIXTwoText-31"/>
       <use xlink:href="#STIXTwoText-35" transform="translate(49.499985 0)"/>
       <use xlink:href="#STIXTwoText-30" transform="translate(98.999969 0)"/>
      </g>
     </g>
    </g>
    <g id="xtick_6">
     <g id="line2d_9">
      <path d="M 468.561039 245.14 
L 468.561039 72.34 
" clip-path="url(#pa2497b691f)" style="fill: none; stroke: #dddddd; stroke-width: 0.6; stroke-linecap: round"/>
     </g>
     <g id="text_7">
      <!-- 300 -->
      <g style="fill: #262626" transform="translate(462.249789 260.640469) scale(0.085 -0.085)">
       <use xlink:href="#STIXTwoText-33"/>
       <use xlink:href="#STIXTwoText-30" transform="translate(49.499985 0)"/>
       <use xlink:href="#STIXTwoText-30" transform="translate(98.999969 0)"/>
      </g>
     </g>
    </g>
    <g id="text_8">
     <!-- population size ($n_{pop}$) -->
     <g style="fill: #262626" transform="translate(266.9925 273.445469) scale(0.095 -0.095)">
      <defs>
       <path id="STIXGeneral-Italic-6e" d="M 2944 749 
L 3034 666 
Q 2707 218 2534 80 
Q 2362 -58 2138 -58 
Q 2010 -58 1923 28 
Q 1837 115 1837 288 
Q 1837 390 1939 768 
L 2221 1805 
Q 2310 2150 2310 2310 
Q 2310 2496 2157 2496 
Q 1971 2496 1750 2275 
Q 1530 2054 1210 1587 
Q 998 1274 899 1024 
Q 800 774 570 0 
L 90 0 
L 704 2240 
Q 717 2304 717 2349 
Q 717 2445 630 2480 
Q 544 2515 301 2522 
L 301 2624 
Q 550 2675 857 2729 
Q 1165 2784 1338 2822 
L 1363 2810 
L 934 1414 
Q 1408 2170 1753 2496 
Q 2099 2822 2413 2822 
Q 2611 2822 2720 2716 
Q 2829 2611 2829 2432 
Q 2829 2272 2765 2048 
L 2406 749 
Q 2317 429 2317 358 
Q 2317 243 2419 243 
Q 2541 243 2810 582 
Q 2854 634 2944 749 
z
" transform="scale(0.015625)"/>
       <path id="STIXGeneral-Italic-70" d="M 1376 2739 
L 1190 2099 
Q 1670 2822 2285 2822 
Q 2637 2822 2829 2611 
Q 3021 2400 3021 2022 
Q 3021 1235 2422 582 
Q 1824 -70 1120 -70 
Q 890 -70 678 38 
Q 422 -1018 422 -1024 
Q 422 -1126 508 -1168 
Q 595 -1210 819 -1210 
L 819 -1312 
L -480 -1312 
L -480 -1210 
Q -275 -1203 -188 -1120 
Q -102 -1037 -45 -806 
L 691 1958 
Q 794 2330 794 2413 
Q 794 2586 512 2586 
L 371 2586 
L 358 2682 
L 1357 2822 
Q 1389 2822 1389 2797 
Q 1382 2765 1376 2739 
z
M 2445 2003 
Q 2445 2285 2352 2416 
Q 2259 2547 2048 2547 
Q 1798 2547 1548 2329 
Q 1299 2112 1184 1818 
Q 1043 1453 905 953 
Q 768 454 768 294 
Q 768 186 854 118 
Q 941 51 1075 51 
Q 1574 51 2003 659 
Q 2445 1274 2445 2003 
z
" transform="scale(0.015625)"/>
       <path id="STIXGeneral-Italic-6f" d="M 2995 1926 
Q 2995 1562 2812 1168 
Q 2630 774 2317 461 
Q 1786 -70 1114 -70 
Q 666 -70 419 163 
Q 173 397 173 819 
Q 173 1350 496 1856 
Q 819 2362 1325 2630 
Q 1683 2822 2093 2822 
Q 2490 2822 2742 2582 
Q 2995 2342 2995 1926 
z
M 2458 2086 
Q 2458 2374 2336 2531 
Q 2214 2688 2003 2688 
Q 1574 2688 1184 2106 
Q 710 1382 710 646 
Q 710 365 844 214 
Q 979 64 1210 64 
Q 1600 64 1984 595 
Q 2202 890 2330 1302 
Q 2458 1715 2458 2086 
z
" transform="scale(0.015625)"/>
      </defs>
      <use xlink:href="#STIXTwoText-70"/>
      <use xlink:href="#STIXTwoText-6f" transform="translate(53.699997 0)"/>
      <use xlink:href="#STIXTwoText-70" transform="translate(105.099991 0)"/>
      <use xlink:href="#STIXTwoText-75" transform="translate(158.799988 0)"/>
      <use xlink:href="#STIXTwoText-6c" transform="translate(215.799973 0)"/>
      <use xlink:href="#STIXTwoText-61" transform="translate(244.09996 0)"/>
      <use xlink:href="#STIXTwoText-74" transform="translate(292.099945 0)"/>
      <use xlink:href="#STIXTwoText-69" transform="translate(323.59993 0)"/>
      <use xlink:href="#STIXTwoText-6f" transform="translate(352.099915 0)"/>
      <use xlink:href="#STIXTwoText-6e" transform="translate(403.499908 0)"/>
      <use xlink:href="#STIXTwoText-20" transform="translate(461.099899 0)"/>
      <use xlink:href="#STIXTwoText-73" transform="translate(484.599884 0)"/>
      <use xlink:href="#STIXTwoText-69" transform="translate(524.099869 0)"/>
      <use xlink:href="#STIXTwoText-7a" transform="translate(552.599854 0)"/>
      <use xlink:href="#STIXTwoText-65" transform="translate(598.399841 0)"/>
      <use xlink:href="#STIXTwoText-20" transform="translate(644.799835 0)"/>
      <use xlink:href="#STIXTwoText-28" transform="translate(668.29982 0)"/>
      <use xlink:href="#STIXGeneral-Italic-6e" transform="translate(702.599808 0)"/>
      <use xlink:href="#STIXGeneral-Italic-70" transform="translate(752.599792 -13.228125) scale(0.7)"/>
      <use xlink:href="#STIXGeneral-Italic-6f" transform="translate(787.879788 -13.228125) scale(0.7)"/>
      <use xlink:href="#STIXGeneral-Italic-70" transform="translate(822.879778 -13.228125) scale(0.7)"/>
      <use xlink:href="#STIXTwoText-29" transform="translate(862.569148 0)"/>
     </g>
    </g>
   </g>
   <g id="matplotlib.axis_4">
    <g id="ytick_2">
     <g id="line2d_10">
      <path d="M 64.8 227.86 
L 554.4 227.86 
" clip-path="url(#pa2497b691f)" style="fill: none; stroke: #dddddd; stroke-width: 0.6; stroke-linecap: round"/>
     </g>
     <g id="text_9">
      <!-- 130 -->
      <g style="fill: #262626" transform="translate(42.6775 230.860234) scale(0.085 -0.085)">
       <use xlink:href="#STIXTwoText-31"/>
       <use xlink:href="#STIXTwoText-33" transform="translate(49.499985 0)"/>
       <use xlink:href="#STIXTwoText-30" transform="translate(98.999969 0)"/>
      </g>
     </g>
    </g>
    <g id="ytick_3">
     <g id="line2d_11">
      <path d="M 64.8 193.3 
L 554.4 193.3 
" clip-path="url(#pa2497b691f)" style="fill: none; stroke: #dddddd; stroke-width: 0.6; stroke-linecap: round"/>
     </g>
     <g id="text_10">
      <!-- 140 -->
      <g style="fill: #262626" transform="translate(42.6775 196.300234) scale(0.085 -0.085)">
       <defs>
        <path id="STIXTwoText-34" d="M 2426 0 
L 1856 0 
L 1856 1011 
L 83 1011 
L 83 1414 
L 2035 4128 
L 2426 4128 
L 2426 1453 
L 3078 1453 
L 3078 1011 
L 2426 1011 
L 2426 0 
z
M 435 1478 
L 435 1453 
L 1856 1453 
L 1856 3430 
L 1830 3430 
L 435 1478 
z
" transform="scale(0.015625)"/>
       </defs>
       <use xlink:href="#STIXTwoText-31"/>
       <use xlink:href="#STIXTwoText-34" transform="translate(49.499985 0)"/>
       <use xlink:href="#STIXTwoText-30" transform="translate(98.999969 0)"/>
      </g>
     </g>
    </g>
    <g id="ytick_4">
     <g id="line2d_12">
      <path d="M 64.8 158.74 
L 554.4 158.74 
" clip-path="url(#pa2497b691f)" style="fill: none; stroke: #dddddd; stroke-width: 0.6; stroke-linecap: round"/>
     </g>
     <g id="text_11">
      <!-- 150 -->
      <g style="fill: #262626" transform="translate(42.6775 161.740234) scale(0.085 -0.085)">
       <use xlink:href="#STIXTwoText-31"/>
       <use xlink:href="#STIXTwoText-35" transform="translate(49.499985 0)"/>
       <use xlink:href="#STIXTwoText-30" transform="translate(98.999969 0)"/>
      </g>
     </g>
    </g>
    <g id="ytick_5">
     <g id="line2d_13">
      <path d="M 64.8 124.18 
L 554.4 124.18 
" clip-path="url(#pa2497b691f)" style="fill: none; stroke: #dddddd; stroke-width: 0.6; stroke-linecap: round"/>
     </g>
     <g id="text_12">
      <!-- 160 -->
      <g style="fill: #262626" transform="translate(42.6775 127.180234) scale(0.085 -0.085)">
       <use xlink:href="#STIXTwoText-31"/>
       <use xlink:href="#STIXTwoText-36" transform="translate(49.499985 0)"/>
       <use xlink:href="#STIXTwoText-30" transform="translate(98.999969 0)"/>
      </g>
     </g>
    </g>
    <g id="ytick_6">
     <g id="line2d_14">
      <path d="M 64.8 89.62 
L 554.4 89.62 
" clip-path="url(#pa2497b691f)" style="fill: none; stroke: #dddddd; stroke-width: 0.6; stroke-linecap: round"/>
     </g>
     <g id="text_13">
      <!-- 170 -->
      <g style="fill: #262626" transform="translate(42.6775 92.620234) scale(0.085 -0.085)">
       <defs>
        <path id="STIXTwoText-37" d="M 1472 -51 
L 966 -51 
L 2477 3514 
L 1050 3514 
Q 870 3514 774 3482 
Q 678 3450 617 3347 
Q 557 3245 467 3034 
L 269 3053 
L 525 4032 
L 2970 4032 
L 2970 3834 
L 1472 -51 
z
" transform="scale(0.015625)"/>
       </defs>
       <use xlink:href="#STIXTwoText-31"/>
       <use xlink:href="#STIXTwoText-37" transform="translate(49.499985 0)"/>
       <use xlink:href="#STIXTwoText-30" transform="translate(98.999969 0)"/>
      </g>
     </g>
    </g>
   </g>
   <g id="line2d_15">
    <path d="M 60.8832 73.7224 
L 68.7168 70.9576 
" style="fill: none; stroke: #666666; stroke-width: 0.9; stroke-linecap: round"/>
   </g>
   <g id="line2d_16">
    <path d="M 550.4832 73.7224 
L 558.3168 70.9576 
" style="fill: none; stroke: #666666; stroke-width: 0.9; stroke-linecap: round"/>
   </g>
   <g id="patch_26">
    <path d="M 64.8 245.14 
L 64.8 72.34 
" style="fill: none; stroke: #bbbbbb; stroke-width: 0.8; stroke-linejoin: miter; stroke-linecap: square"/>
   </g>
   <g id="patch_27">
    <path d="M 554.4 245.14 
L 554.4 72.34 
" style="fill: none; stroke: #bbbbbb; stroke-width: 0.8; stroke-linejoin: miter; stroke-linecap: square"/>
   </g>
   <g id="patch_28">
    <path d="M 64.8 245.14 
L 554.4 245.14 
" style="fill: none; stroke: #bbbbbb; stroke-width: 0.8; stroke-linejoin: miter; stroke-linecap: square"/>
   </g>
   <g id="patch_29">
    <path d="M 87.054545 677.14 
L 108.249351 677.14 
L 108.249351 -33.44816 
L 87.054545 -33.44816 
z
" clip-path="url(#pa2497b691f)" style="fill: #1f6f3f; stroke: #ffffff; stroke-width: 0.4; stroke-linejoin: miter"/>
   </g>
   <g id="patch_30">
    <path d="M 246.015584 677.14 
L 267.21039 677.14 
L 267.21039 224.78416 
L 246.015584 224.78416 
z
" clip-path="url(#pa2497b691f)" style="fill: #1f6f3f; stroke: #ffffff; stroke-width: 0.4; stroke-linejoin: miter"/>
   </g>
   <g id="patch_31">
    <path d="M 404.976623 677.14 
L 426.171429 677.14 
L 426.171429 201.52528 
L 404.976623 201.52528 
z
" clip-path="url(#pa2497b691f)" style="fill: #1f6f3f; stroke: #ffffff; stroke-width: 0.4; stroke-linejoin: miter"/>
   </g>
   <g id="text_14">
    <!-- 131 -->
    <g style="fill: #1f6f3f" transform="translate(258.0708 223.40176) rotate(-90) scale(0.06 -0.06)">
     <use xlink:href="#STIXTwoText-31"/>
     <use xlink:href="#STIXTwoText-33" transform="translate(49.499985 0)"/>
     <use xlink:href="#STIXTwoText-31" transform="translate(98.999969 0)"/>
    </g>
   </g>
   <g id="text_15">
    <!-- 138 -->
    <g style="fill: #1f6f3f" transform="translate(417.031838 200.14288) rotate(-90) scale(0.06 -0.06)">
     <use xlink:href="#STIXTwoText-31"/>
     <use xlink:href="#STIXTwoText-33" transform="translate(49.499985 0)"/>
     <use xlink:href="#STIXTwoText-38" transform="translate(98.999969 0)"/>
    </g>
   </g>
   <g id="patch_32">
    <path d="M 108.249351 677.14 
L 129.444156 677.14 
L 129.444156 173.91184 
L 108.249351 173.91184 
z
" clip-path="url(#pa2497b691f)" style="fill: #4878cf; stroke: #ffffff; stroke-width: 0.4; stroke-linejoin: miter"/>
   </g>
   <g id="patch_33">
    <path d="M 267.21039 677.14 
L 288.405195 677.14 
L 288.405195 205.60336 
L 267.21039 205.60336 
z
" clip-path="url(#pa2497b691f)" style="fill: #4878cf; stroke: #ffffff; stroke-width: 0.4; stroke-linejoin: miter"/>
   </g>
   <g id="patch_34">
    <path d="M 426.171429 677.14 
L 447.366234 677.14 
L 447.366234 176.74576 
L 426.171429 176.74576 
z
" clip-path="url(#pa2497b691f)" style="fill: #4878cf; stroke: #ffffff; stroke-width: 0.4; stroke-linejoin: miter"/>
   </g>
   <g id="text_16">
    <!-- 146 -->
    <g style="fill: #4878cf" transform="translate(120.304566 172.52944) rotate(-90) scale(0.06 -0.06)">
     <use xlink:href="#STIXTwoText-31"/>
     <use xlink:href="#STIXTwoText-34" transform="translate(49.499985 0)"/>
     <use xlink:href="#STIXTwoText-36" transform="translate(98.999969 0)"/>
    </g>
   </g>
   <g id="text_17">
    <!-- 136 -->
    <g style="fill: #4878cf" transform="translate(279.265605 204.22096) rotate(-90) scale(0.06 -0.06)">
     <use xlink:href="#STIXTwoText-31"/>
     <use xlink:href="#STIXTwoText-33" transform="translate(49.499985 0)"/>
     <use xlink:href="#STIXTwoText-36" transform="translate(98.999969 0)"/>
    </g>
   </g>
   <g id="text_18">
    <!-- 145 -->
    <g style="fill: #4878cf" transform="translate(438.226644 175.36336) rotate(-90) scale(0.06 -0.06)">
     <use xlink:href="#STIXTwoText-31"/>
     <use xlink:href="#STIXTwoText-34" transform="translate(49.499985 0)"/>
     <use xlink:href="#STIXTwoText-35" transform="translate(98.999969 0)"/>
    </g>
   </g>
   <g id="patch_35">
    <path d="M 129.444156 677.14 
L 150.638961 677.14 
L 150.638961 167.96752 
L 129.444156 167.96752 
z
" clip-path="url(#pa2497b691f)" style="fill: #6a51a3; stroke: #ffffff; stroke-width: 0.4; stroke-linejoin: miter"/>
   </g>
   <g id="patch_36">
    <path d="M 288.405195 677.14 
L 309.6 677.14 
L 309.6 150.30736 
L 288.405195 150.30736 
z
" clip-path="url(#pa2497b691f)" style="fill: #6a51a3; stroke: #ffffff; stroke-width: 0.4; stroke-linejoin: miter"/>
   </g>
   <g id="patch_37">
    <path d="M 447.366234 677.14 
L 468.561039 677.14 
L 468.561039 163.47472 
L 447.366234 163.47472 
z
" clip-path="url(#pa2497b691f)" style="fill: #6a51a3; stroke: #ffffff; stroke-width: 0.4; stroke-linejoin: miter"/>
   </g>
   <g id="text_19">
    <!-- 147 -->
    <g style="fill: #6a51a3" transform="translate(141.499371 166.58512) rotate(-90) scale(0.06 -0.06)">
     <use xlink:href="#STIXTwoText-31"/>
     <use xlink:href="#STIXTwoText-34" transform="translate(49.499985 0)"/>
     <use xlink:href="#STIXTwoText-37" transform="translate(98.999969 0)"/>
    </g>
   </g>
   <g id="text_20">
    <!-- 152 -->
    <g style="fill: #6a51a3" transform="translate(300.46041 148.92496) rotate(-90) scale(0.06 -0.06)">
     <use xlink:href="#STIXTwoText-31"/>
     <use xlink:href="#STIXTwoText-35" transform="translate(49.499985 0)"/>
     <use xlink:href="#STIXTwoText-32" transform="translate(98.999969 0)"/>
    </g>
   </g>
   <g id="text_21">
    <!-- 149 -->
    <g style="fill: #6a51a3" transform="translate(459.421449 162.09232) rotate(-90) scale(0.06 -0.06)">
     <use xlink:href="#STIXTwoText-31"/>
     <use xlink:href="#STIXTwoText-34" transform="translate(49.499985 0)"/>
     <use xlink:href="#STIXTwoText-39" transform="translate(98.999969 0)"/>
    </g>
   </g>
   <g id="patch_38">
    <path d="M 150.638961 677.14 
L 171.833766 677.14 
L 171.833766 126.46096 
L 150.638961 126.46096 
z
" clip-path="url(#pa2497b691f)" style="fill: #d1701f; stroke: #ffffff; stroke-width: 0.4; stroke-linejoin: miter"/>
   </g>
   <g id="patch_39">
    <path d="M 309.6 677.14 
L 330.794805 677.14 
L 330.794805 135.44656 
L 309.6 135.44656 
z
" clip-path="url(#pa2497b691f)" style="fill: #d1701f; stroke: #ffffff; stroke-width: 0.4; stroke-linejoin: miter"/>
   </g>
   <g id="patch_40">
    <path d="M 468.561039 677.14 
L 489.755844 677.14 
L 489.755844 118.61584 
L 468.561039 118.61584 
z
" clip-path="url(#pa2497b691f)" style="fill: #d1701f; stroke: #ffffff; stroke-width: 0.4; stroke-linejoin: miter"/>
   </g>
   <g id="text_22">
    <!-- 159 -->
    <g style="fill: #d1701f" transform="translate(162.694176 125.07856) rotate(-90) scale(0.06 -0.06)">
     <use xlink:href="#STIXTwoText-31"/>
     <use xlink:href="#STIXTwoText-35" transform="translate(49.499985 0)"/>
     <use xlink:href="#STIXTwoText-39" transform="translate(98.999969 0)"/>
    </g>
   </g>
   <g id="text_23">
    <!-- 157 -->
    <g style="fill: #d1701f" transform="translate(321.655215 134.06416) rotate(-90) scale(0.06 -0.06)">
     <use xlink:href="#STIXTwoText-31"/>
     <use xlink:href="#STIXTwoText-35" transform="translate(49.499985 0)"/>
     <use xlink:href="#STIXTwoText-37" transform="translate(98.999969 0)"/>
    </g>
   </g>
   <g id="text_24">
    <!-- 162 -->
    <g style="fill: #d1701f" transform="translate(480.616254 117.23344) rotate(-90) scale(0.06 -0.06)">
     <use xlink:href="#STIXTwoText-31"/>
     <use xlink:href="#STIXTwoText-36" transform="translate(49.499985 0)"/>
     <use xlink:href="#STIXTwoText-32" transform="translate(98.999969 0)"/>
    </g>
   </g>
   <g id="patch_41">
    <path d="M 171.833766 677.14 
L 193.028571 677.14 
L 193.028571 101.09392 
L 171.833766 101.09392 
z
" clip-path="url(#pa2497b691f)" style="fill: #c44e52; stroke: #ffffff; stroke-width: 0.4; stroke-linejoin: miter"/>
   </g>
   <g id="patch_42">
    <path d="M 330.794805 677.14 
L 351.98961 677.14 
L 351.98961 169.90288 
L 330.794805 169.90288 
z
" clip-path="url(#pa2497b691f)" style="fill: #c44e52; stroke: #ffffff; stroke-width: 0.4; stroke-linejoin: miter"/>
   </g>
   <g id="patch_43">
    <path d="M 489.755844 677.14 
L 510.950649 677.14 
L 510.950649 185.8696 
L 489.755844 185.8696 
z
" clip-path="url(#pa2497b691f)" style="fill: #c44e52; stroke: #ffffff; stroke-width: 0.4; stroke-linejoin: miter"/>
   </g>
   <g id="text_25">
    <!-- 167 -->
    <g style="fill: #c44e52" transform="translate(183.888981 99.71152) rotate(-90) scale(0.06 -0.06)">
     <use xlink:href="#STIXTwoText-31"/>
     <use xlink:href="#STIXTwoText-36" transform="translate(49.499985 0)"/>
     <use xlink:href="#STIXTwoText-37" transform="translate(98.999969 0)"/>
    </g>
   </g>
   <g id="text_26">
    <!-- 147 -->
    <g style="fill: #c44e52" transform="translate(342.85002 168.52048) rotate(-90) scale(0.06 -0.06)">
     <use xlink:href="#STIXTwoText-31"/>
     <use xlink:href="#STIXTwoText-34" transform="translate(49.499985 0)"/>
     <use xlink:href="#STIXTwoText-37" transform="translate(98.999969 0)"/>
    </g>
   </g>
   <g id="text_27">
    <!-- 142 -->
    <g style="fill: #c44e52" transform="translate(501.811059 184.4872) rotate(-90) scale(0.06 -0.06)">
     <use xlink:href="#STIXTwoText-31"/>
     <use xlink:href="#STIXTwoText-34" transform="translate(49.499985 0)"/>
     <use xlink:href="#STIXTwoText-32" transform="translate(98.999969 0)"/>
    </g>
   </g>
   <g id="patch_44">
    <path d="M 193.028571 677.14 
L 214.223377 677.14 
L 214.223377 179.476 
L 193.028571 179.476 
z
" clip-path="url(#pa2497b691f)" style="fill: #8c8c8c; stroke: #ffffff; stroke-width: 0.4; stroke-linejoin: miter"/>
   </g>
   <g id="patch_45">
    <path d="M 351.98961 677.14 
L 373.184416 677.14 
L 373.184416 163.44016 
L 351.98961 163.44016 
z
" clip-path="url(#pa2497b691f)" style="fill: #8c8c8c; stroke: #ffffff; stroke-width: 0.4; stroke-linejoin: miter"/>
   </g>
   <g id="patch_46">
    <path d="M 510.950649 677.14 
L 532.145455 677.14 
L 532.145455 142.35856 
L 510.950649 142.35856 
z
" clip-path="url(#pa2497b691f)" style="fill: #8c8c8c; stroke: #ffffff; stroke-width: 0.4; stroke-linejoin: miter"/>
   </g>
   <g id="text_28">
    <!-- 144 -->
    <g style="fill: #8c8c8c" transform="translate(205.083787 178.0936) rotate(-90) scale(0.06 -0.06)">
     <use xlink:href="#STIXTwoText-31"/>
     <use xlink:href="#STIXTwoText-34" transform="translate(49.499985 0)"/>
     <use xlink:href="#STIXTwoText-34" transform="translate(98.999969 0)"/>
    </g>
   </g>
   <g id="text_29">
    <!-- 149 -->
    <g style="fill: #8c8c8c" transform="translate(364.044825 162.05776) rotate(-90) scale(0.06 -0.06)">
     <use xlink:href="#STIXTwoText-31"/>
     <use xlink:href="#STIXTwoText-34" transform="translate(49.499985 0)"/>
     <use xlink:href="#STIXTwoText-39" transform="translate(98.999969 0)"/>
    </g>
   </g>
   <g id="text_30">
    <!-- 155 -->
    <g style="fill: #8c8c8c" transform="translate(523.005864 140.97616) rotate(-90) scale(0.06 -0.06)">
     <use xlink:href="#STIXTwoText-31"/>
     <use xlink:href="#STIXTwoText-35" transform="translate(49.499985 0)"/>
     <use xlink:href="#STIXTwoText-35" transform="translate(98.999969 0)"/>
    </g>
   </g>
   <g id="legend_1">
    <g id="patch_47">
     <path d="M 192.479297 89.034531 
L 426.720703 89.034531 
Q 428.220703 89.034531 428.220703 87.534531 
L 428.220703 77.59 
Q 428.220703 76.09 426.720703 76.09 
L 192.479297 76.09 
Q 190.979297 76.09 190.979297 77.59 
L 190.979297 87.534531 
Q 190.979297 89.034531 192.479297 89.034531 
z
" style="fill: #ffffff; opacity: 0.9; stroke: #cccccc; stroke-linejoin: miter"/>
    </g>
    <g id="patch_48">
     <path d="M 193.979297 84.384531 
L 202.979297 84.384531 
L 202.979297 79.134531 
L 193.979297 79.134531 
z
" style="fill: #1f6f3f; stroke: #ffffff; stroke-width: 0.4; stroke-linejoin: miter"/>
    </g>
    <g id="text_31">
     <!-- GA -->
     <g style="fill: #262626" transform="translate(208.979297 84.384531) scale(0.075 -0.075)">
      <use xlink:href="#STIXTwoText-47"/>
      <use xlink:href="#STIXTwoText-41" transform="translate(71.999985 0)"/>
     </g>
    </g>
    <g id="patch_49">
     <path d="M 227.264062 84.384531 
L 236.264062 84.384531 
L 236.264062 79.134531 
L 227.264062 79.134531 
z
" style="fill: #4878cf; stroke: #ffffff; stroke-width: 0.4; stroke-linejoin: miter"/>
    </g>
    <g id="text_32">
     <!-- islands -->
     <g style="fill: #262626" transform="translate(242.264062 84.384531) scale(0.075 -0.075)">
      <use xlink:href="#STIXTwoText-69"/>
      <use xlink:href="#STIXTwoText-73" transform="translate(28.499985 0)"/>
      <use xlink:href="#STIXTwoText-6c" transform="translate(67.999969 0)"/>
      <use xlink:href="#STIXTwoText-61" transform="translate(96.299957 0)"/>
      <use xlink:href="#STIXTwoText-6e" transform="translate(144.299942 0)"/>
      <use xlink:href="#STIXTwoText-64" transform="translate(201.899933 0)"/>
      <use xlink:href="#STIXTwoText-73" transform="translate(255.799927 0)"/>
     </g>
    </g>
    <g id="patch_50">
     <path d="M 271.911328 84.384531 
L 280.911328 84.384531 
L 280.911328 79.134531 
L 271.911328 79.134531 
z
" style="fill: #6a51a3; stroke: #ffffff; stroke-width: 0.4; stroke-linejoin: miter"/>
    </g>
    <g id="text_33">
     <!-- PSO -->
     <g style="fill: #262626" transform="translate(286.911328 84.384531) scale(0.075 -0.075)">
      <defs>
       <path id="STIXTwoText-50" d="M 2086 0 
L 282 0 
L 282 192 
Q 531 192 652 237 
Q 774 282 812 413 
Q 851 544 851 813 
L 851 3565 
Q 851 3846 732 3929 
Q 614 4013 307 4013 
L 307 4205 
L 1901 4205 
Q 2208 4205 2493 4157 
Q 2778 4109 2998 3993 
Q 3219 3878 3350 3670 
Q 3482 3462 3482 3142 
Q 3482 2771 3341 2518 
Q 3200 2266 2960 2112 
Q 2720 1958 2419 1894 
Q 2118 1830 1805 1830 
Q 1709 1830 1600 1843 
Q 1491 1856 1440 1882 
L 1440 787 
Q 1440 525 1494 397 
Q 1549 269 1689 230 
Q 1830 192 2086 192 
L 2086 0 
z
M 1786 2093 
Q 2131 2093 2368 2179 
Q 2605 2266 2726 2474 
Q 2848 2682 2848 3053 
Q 2848 3488 2595 3721 
Q 2342 3955 1824 3955 
Q 1728 3955 1635 3948 
Q 1542 3942 1440 3930 
L 1440 2118 
Q 1491 2112 1590 2102 
Q 1690 2093 1786 2093 
z
" transform="scale(0.015625)"/>
       <path id="STIXTwoText-53" d="M 480 -96 
L 282 -96 
L 224 1286 
L 422 1286 
Q 538 845 691 611 
Q 845 378 1072 291 
Q 1299 205 1626 205 
Q 1869 205 2041 272 
Q 2214 339 2310 489 
Q 2406 640 2406 883 
Q 2406 1165 2249 1350 
Q 2093 1536 1849 1680 
Q 1606 1824 1344 1971 
Q 1088 2118 851 2284 
Q 614 2451 464 2681 
Q 314 2912 314 3245 
Q 314 3584 480 3811 
Q 646 4038 921 4160 
Q 1197 4282 1530 4282 
Q 1824 4282 1984 4234 
Q 2144 4186 2237 4134 
Q 2330 4083 2406 4083 
Q 2483 4083 2531 4124 
Q 2579 4166 2605 4269 
L 2771 4269 
L 2816 2989 
L 2624 2989 
Q 2490 3520 2266 3776 
Q 2042 4032 1555 4026 
Q 1229 4026 1049 3875 
Q 870 3725 870 3424 
Q 870 3187 1004 3017 
Q 1139 2848 1356 2713 
Q 1574 2579 1811 2438 
Q 2022 2317 2236 2195 
Q 2451 2074 2627 1920 
Q 2803 1766 2908 1561 
Q 3014 1357 3014 1069 
Q 3014 698 2844 442 
Q 2675 186 2380 54 
Q 2086 -77 1715 -77 
Q 1382 -77 1174 -29 
Q 966 19 848 67 
Q 730 115 653 115 
Q 589 115 537 57 
Q 486 0 480 -96 
z
" transform="scale(0.015625)"/>
      </defs>
      <use xlink:href="#STIXTwoText-50"/>
      <use xlink:href="#STIXTwoText-53" transform="translate(56.899994 0)"/>
      <use xlink:href="#STIXTwoText-4f" transform="translate(107.299988 0)"/>
     </g>
    </g>
    <g id="patch_51">
     <path d="M 307.9875 84.384531 
L 316.9875 84.384531 
L 316.9875 79.134531 
L 307.9875 79.134531 
z
" style="fill: #d1701f; stroke: #ffffff; stroke-width: 0.4; stroke-linejoin: miter"/>
    </g>
    <g id="text_34">
     <!-- DE -->
     <g style="fill: #262626" transform="translate(322.9875 84.384531) scale(0.075 -0.075)">
      <defs>
       <path id="STIXTwoText-44" d="M 2054 0 
L 224 0 
L 224 192 
Q 506 192 640 233 
Q 774 275 812 406 
Q 851 538 851 794 
L 851 3475 
Q 851 3712 793 3824 
Q 736 3936 601 3974 
Q 467 4013 224 4013 
L 224 4205 
L 1984 4205 
Q 2483 4205 2915 4099 
Q 3347 3994 3667 3750 
Q 3987 3507 4169 3110 
Q 4352 2714 4352 2125 
Q 4352 1574 4189 1171 
Q 4026 768 3722 509 
Q 3418 250 2995 125 
Q 2573 0 2054 0 
z
M 1818 243 
Q 2400 243 2816 400 
Q 3232 557 3456 953 
Q 3680 1350 3680 2067 
Q 3680 2982 3213 3462 
Q 2746 3942 1754 3942 
Q 1677 3942 1603 3942 
Q 1530 3942 1440 3930 
L 1440 262 
Q 1536 256 1629 249 
Q 1722 243 1818 243 
z
" transform="scale(0.015625)"/>
       <path id="STIXTwoText-45" d="M 3648 0 
L 230 0 
L 230 192 
Q 493 192 624 227 
Q 755 262 803 384 
Q 851 506 851 755 
L 851 3424 
Q 851 3667 803 3795 
Q 755 3923 624 3968 
Q 493 4013 230 4013 
L 230 4205 
L 3590 4205 
L 3629 3155 
L 3424 3155 
Q 3379 3475 3286 3638 
Q 3194 3802 2986 3859 
Q 2778 3917 2381 3917 
L 1440 3917 
L 1440 2291 
L 2189 2291 
Q 2483 2291 2636 2342 
Q 2790 2394 2848 2534 
Q 2906 2675 2906 2931 
L 3110 2931 
L 3110 1446 
L 2906 1446 
Q 2906 1709 2848 1837 
Q 2790 1965 2636 2003 
Q 2483 2042 2189 2042 
L 1440 2042 
L 1440 282 
L 2266 282 
Q 2637 282 2864 317 
Q 3091 352 3222 448 
Q 3354 544 3440 723 
Q 3526 902 3622 1190 
L 3827 1190 
L 3648 0 
z
" transform="scale(0.015625)"/>
      </defs>
      <use xlink:href="#STIXTwoText-44"/>
      <use xlink:href="#STIXTwoText-45" transform="translate(72.999985 0)"/>
     </g>
    </g>
    <g id="patch_52">
     <path d="M 340.657031 84.384531 
L 349.657031 84.384531 
L 349.657031 79.134531 
L 340.657031 79.134531 
z
" style="fill: #c44e52; stroke: #ffffff; stroke-width: 0.4; stroke-linejoin: miter"/>
    </g>
    <g id="text_35">
     <!-- CMA-ES -->
     <g style="fill: #262626" transform="translate(355.657031 84.384531) scale(0.075 -0.075)">
      <defs>
       <path id="STIXTwoText-4d" d="M 1683 0 
L 179 0 
L 179 192 
Q 442 192 570 240 
Q 698 288 742 448 
Q 787 608 787 934 
L 787 3424 
Q 787 3667 742 3792 
Q 698 3917 573 3965 
Q 448 4013 192 4013 
L 192 4205 
L 1498 4205 
L 2848 986 
L 2874 986 
L 4218 4205 
L 5434 4205 
L 5434 4013 
Q 5210 4013 5088 3965 
Q 4966 3917 4921 3792 
Q 4877 3667 4877 3430 
L 4877 762 
Q 4877 531 4921 406 
Q 4966 282 5088 237 
Q 5210 192 5440 192 
L 5440 0 
L 3738 0 
L 3738 192 
Q 3987 192 4108 237 
Q 4230 282 4268 406 
Q 4307 531 4307 762 
L 4307 3520 
L 4282 3520 
L 2790 0 
L 2637 0 
L 1126 3514 
L 1101 3514 
L 1101 934 
Q 1101 608 1145 448 
Q 1190 288 1315 240 
Q 1440 192 1683 192 
L 1683 0 
z
" transform="scale(0.015625)"/>
      </defs>
      <use xlink:href="#STIXTwoText-43"/>
      <use xlink:href="#STIXTwoText-4d" transform="translate(66.999985 0)"/>
      <use xlink:href="#STIXTwoText-41" transform="translate(156.499969 0)"/>
      <use xlink:href="#STIXTwoText-2d" transform="translate(228.299957 0)"/>
      <use xlink:href="#STIXTwoText-45" transform="translate(259.799942 0)"/>
      <use xlink:href="#STIXTwoText-53" transform="translate(322.399933 0)"/>
     </g>
    </g>
    <g id="patch_53">
     <path d="M 391.116797 84.384531 
L 400.116797 84.384531 
L 400.116797 79.134531 
L 391.116797 79.134531 
z
" style="fill: #8c8c8c; stroke: #ffffff; stroke-width: 0.4; stroke-linejoin: miter"/>
    </g>
    <g id="text_36">
     <!-- QPSO -->
     <g style="fill: #262626" transform="translate(406.116797 84.384531) scale(0.075 -0.075)">
      <defs>
       <path id="STIXTwoText-51" d="M 2835 -6 
L 2317 -77 
Q 1702 -58 1254 204 
Q 806 467 563 950 
Q 320 1434 320 2106 
Q 320 2758 566 3248 
Q 813 3738 1270 4010 
Q 1728 4282 2362 4282 
Q 3002 4282 3456 4016 
Q 3910 3750 4153 3273 
Q 4397 2797 4397 2170 
Q 4397 1594 4205 1133 
Q 4013 672 3664 377 
Q 3315 83 2835 -6 
z
M 4570 -1107 
L 4250 -1107 
Q 3718 -1107 3360 -1033 
Q 3002 -960 2765 -790 
Q 2528 -621 2355 -333 
L 2150 19 
L 2938 115 
L 2938 0 
Q 3168 -320 3395 -518 
Q 3622 -717 3904 -806 
Q 4186 -896 4570 -896 
L 4570 -1107 
z
M 2368 192 
Q 3053 192 3389 685 
Q 3725 1178 3725 2144 
Q 3725 2720 3552 3139 
Q 3379 3558 3068 3785 
Q 2758 4013 2342 4013 
Q 1722 4013 1357 3517 
Q 992 3021 992 2144 
Q 992 1242 1334 717 
Q 1677 192 2368 192 
z
" transform="scale(0.015625)"/>
      </defs>
      <use xlink:href="#STIXTwoText-51"/>
      <use xlink:href="#STIXTwoText-50" transform="translate(73.699982 0)"/>
      <use xlink:href="#STIXTwoText-53" transform="translate(130.599976 0)"/>
      <use xlink:href="#STIXTwoText-4f" transform="translate(180.999969 0)"/>
     </g>
    </g>
   </g>
  </g>
  <g id="text_37">
   <!-- sizing tail  CVaR$_{95}$  (m/s) -->
   <g style="fill: #262626" transform="translate(17.712 211.948) rotate(-90) scale(0.144 -0.144)">
    <defs>
     <path id="STIXTwoText-2f" d="M 589 -570 
L 230 -570 
L 1901 4538 
L 2253 4538 
L 589 -570 
z
" transform="scale(0.015625)"/>
    </defs>
    <use xlink:href="#STIXTwoText-73"/>
    <use xlink:href="#STIXTwoText-69" transform="translate(39.499985 0)"/>
    <use xlink:href="#STIXTwoText-7a" transform="translate(67.999969 0)"/>
    <use xlink:href="#STIXTwoText-69" transform="translate(113.799957 0)"/>
    <use xlink:href="#STIXTwoText-6e" transform="translate(142.299942 0)"/>
    <use xlink:href="#STIXTwoText-67" transform="translate(199.899933 0)"/>
    <use xlink:href="#STIXTwoText-20" transform="translate(248.299927 0)"/>
    <use xlink:href="#STIXTwoText-74" transform="translate(271.799911 0)"/>
    <use xlink:href="#STIXTwoText-61" transform="translate(303.299896 0)"/>
    <use xlink:href="#STIXTwoText-69" transform="translate(351.299881 0)"/>
    <use xlink:href="#STIXTwoText-6c" transform="translate(379.799866 0)"/>
    <use xlink:href="#STIXTwoText-20" transform="translate(408.099854 0)"/>
    <use xlink:href="#STIXTwoText-20" transform="translate(431.599838 0)"/>
    <use xlink:href="#STIXTwoText-43" transform="translate(455.099823 0)"/>
    <use xlink:href="#STIXTwoText-56" transform="translate(522.099808 0)"/>
    <use xlink:href="#STIXTwoText-61" transform="translate(590.099792 0)"/>
    <use xlink:href="#STIXTwoText-52" transform="translate(638.099777 0)"/>
    <use xlink:href="#STIXGeneral-Regular-39" transform="translate(705.543052 -13.228125) scale(0.7)"/>
    <use xlink:href="#STIXGeneral-Regular-35" transform="translate(740.543042 -13.228125) scale(0.7)"/>
    <use xlink:href="#STIXTwoText-20" transform="translate(779.952406 0)"/>
    <use xlink:href="#STIXTwoText-20" transform="translate(803.452391 0)"/>
    <use xlink:href="#STIXTwoText-28" transform="translate(826.952375 0)"/>
    <use xlink:href="#STIXTwoText-6d" transform="translate(861.252363 0)"/>
    <use xlink:href="#STIXTwoText-2f" transform="translate(946.452345 0)"/>
    <use xlink:href="#STIXTwoText-73" transform="translate(985.152342 0)"/>
    <use xlink:href="#STIXTwoText-29" transform="translate(1024.652327 0)"/>
   </g>
  </g>
 </g>
 <defs>
  <clipPath id="p83fc325caa">
   <rect x="64.8" y="20.5" width="489.6" height="43.2"/>
  </clipPath>
  <clipPath id="pa2497b691f">
   <rect x="64.8" y="72.34" width="489.6" height="172.8"/>
  </clipPath>
 </defs>
</svg>
