<?xml version="1.0" encoding="utf-8" standalone="no"?>
<!DOCTYPE svg PUBLIC "-//W3C//DTD SVG 1.1//EN"
  "http://www.w3.org/Graphics/SVG/1.1/DTD/svg11.dtd">
<svg xmlns:xlink="http://www.w3.org/1999/xlink" width="521.236094pt" height="276.529219pt" viewBox="0 0 521.236094 276.529219" xmlns="http://www.w3.org/2000/svg" version="1.1">
 <metadata>
  <rdf:RDF xmlns:dc="http://purl.org/dc/elements/1.1/" xmlns:cc="http://creativecommons.org/ns#" xmlns:rdf="http://www.w3.org/1999/02/22-rdf-syntax-ns#">
   <cc:Work>
    <dc:type rdf:resource="http://purl.org/dc/dcmitype/StillImage"/>
    <dc:date>2026-07-03T22:50:22.270783</dc:date>
    <dc:format>image/svg+xml</dc:format>
    <dc:creator>
     <cc:Agent>
      <dc:title>Matplotlib v3.10.9, https://matplotlib.org/</dc:title>
     </cc:Agent>
    </dc:creator>
   </cc:Work>
  </rdf:RDF>
 </metadata>
 <defs>
  <style type="text/css">*{stroke-linejoin: round; stroke-linecap: butt}</style>
 </defs>
 <g id="figure_1">
  <g id="patch_1">
   <path d="M 0 276.529219 
L 521.236094 276.529219 
L 521.236094 0 
L 0 0 
z
" style="fill: #ffffff"/>
  </g>
  <g id="axes_1">
   <g id="patch_2">
    <path d="M 97.596094 238.79125 
L 514.036094 238.79125 
L 514.036094 20.5 
L 97.596094 20.5 
z
" style="fill: #f5f5f5"/>
   </g>
   <g id="matplotlib.axis_1">
    <g id="xtick_1">
     <g id="line2d_1">
      <path d="M 97.596094 238.79125 
L 97.596094 20.5 
" clip-path="url(#pb29b40265a)" style="fill: none; stroke: #dddddd; stroke-width: 0.6; stroke-linecap: round"/>
     </g>
     <g id="text_1">
      <!-- 0.0 -->
      <g style="fill: #262626" transform="translate(92.347344 254.291719) scale(0.085 -0.085)">
       <defs>
        <path id="STIXTwoText-30" d="M 1581 -70 
Q 1197 -70 928 99 
Q 659 269 492 563 
Q 326 858 249 1242 
Q 173 1626 173 2048 
Q 173 2656 336 3120 
Q 499 3584 816 3846 
Q 1133 4109 1594 4109 
Q 2010 4109 2323 3862 
Q 2637 3616 2816 3152 
Q 2995 2688 2995 2029 
Q 2995 1619 2915 1241 
Q 2835 864 2665 569 
Q 2496 275 2227 102 
Q 1958 -70 1581 -70 
z
M 1581 160 
Q 1958 160 2166 614 
Q 2374 1069 2374 1990 
Q 2374 2963 2172 3427 
Q 1971 3891 1574 3891 
Q 1197 3891 992 3430 
Q 787 2970 787 2016 
Q 787 1088 992 624 
Q 1197 160 1581 160 
z
" transform="scale(0.015625)"/>
        <path id="STIXTwoText-2e" d="M 774 -51 
Q 582 -51 489 57 
Q 397 166 397 326 
Q 397 493 499 611 
Q 602 730 781 730 
Q 966 730 1068 608 
Q 1171 486 1171 320 
Q 1171 173 1068 61 
Q 966 -51 774 -51 
z
" transform="scale(0.015625)"/>
       </defs>
       <use xlink:href="#STIXTwoText-30"/>
       <use xlink:href="#STIXTwoText-2e" transform="translate(49.499985 0)"/>
       <use xlink:href="#STIXTwoText-30" transform="translate(73.999969 0)"/>
      </g>
     </g>
    </g>
    <g id="xtick_2">
     <g id="line2d_2">
      <path d="M 146.40775 238.79125 
L 146.40775 20.5 
" clip-path="url(#pb29b40265a)" style="fill: none; stroke: #dddddd; stroke-width: 0.6; stroke-linecap: round"/>
     </g>
     <g id="text_2">
      <!-- 0.5 -->
      <g style="fill: #262626" transform="translate(141.159 254.291719) scale(0.085 -0.085)">
       <defs>
        <path id="STIXTwoText-35" d="M 1114 -83 
Q 742 -83 560 6 
Q 378 96 378 275 
Q 378 384 445 467 
Q 512 550 634 550 
Q 730 550 822 502 
Q 915 454 1014 393 
Q 1114 333 1235 285 
Q 1357 237 1510 237 
Q 1741 237 1936 326 
Q 2131 416 2249 614 
Q 2368 813 2368 1146 
Q 2368 1504 2227 1721 
Q 2086 1939 1849 2054 
Q 1613 2170 1315 2214 
Q 1018 2259 698 2266 
L 621 2362 
L 1018 4032 
L 2771 4032 
L 2669 3514 
L 1165 3514 
L 992 2784 
Q 1312 2758 1590 2704 
Q 1869 2650 2096 2554 
Q 2323 2458 2489 2301 
Q 2656 2144 2745 1923 
Q 2835 1702 2835 1402 
Q 2835 1030 2710 752 
Q 2586 474 2355 288 
Q 2125 102 1811 9 
Q 1498 -83 1114 -83 
z
" transform="scale(0.015625)"/>
       </defs>
       <use xlink:href="#STIXTwoText-30"/>
       <use xlink:href="#STIXTwoText-2e" transform="translate(49.499985 0)"/>
       <use xlink:href="#STIXTwoText-35" transform="translate(73.999969 0)"/>
      </g>
     </g>
    </g>
    <g id="xtick_3">
     <g id="line2d_3">
      <path d="M 195.219407 238.79125 
L 195.219407 20.5 
" clip-path="url(#pb29b40265a)" style="fill: none; stroke: #dddddd; stroke-width: 0.6; stroke-linecap: round"/>
     </g>
     <g id="text_3">
      <!-- 1.0 -->
      <g style="fill: #262626" transform="translate(189.970657 254.291719) scale(0.085 -0.085)">
       <defs>
        <path id="STIXTwoText-31" d="M 2726 0 
L 512 0 
L 512 179 
Q 966 179 1152 275 
Q 1338 371 1338 608 
L 1338 3315 
Q 1338 3482 1293 3555 
Q 1248 3629 1126 3629 
Q 1062 3629 947 3616 
Q 832 3603 704 3580 
Q 576 3558 474 3526 
L 474 3738 
L 1715 4090 
L 1901 4090 
L 1901 608 
Q 1901 371 2093 275 
Q 2285 179 2726 179 
L 2726 0 
z
" transform="scale(0.015625)"/>
       </defs>
       <use xlink:href="#STIXTwoText-31"/>
       <use xlink:href="#STIXTwoText-2e" transform="translate(49.499985 0)"/>
       <use xlink:href="#STIXTwoText-30" transform="translate(73.999969 0)"/>
      </g>
     </g>
    </g>
    <g id="xtick_4">
     <g id="line2d_4">
      <path d="M 244.031063 238.79125 
L 244.031063 20.5 
" clip-path="url(#pb29b40265a)" style="fill: none; stroke: #dddddd; stroke-width: 0.6; stroke-linecap: round"/>
     </g>
     <g id="text_4">
      <!-- 1.5 -->
      <g style="fill: #262626" transform="translate(238.782313 254.291719) scale(0.085 -0.085)">
       <use xlink:href="#STIXTwoText-31"/>
       <use xlink:href="#STIXTwoText-2e" transform="translate(49.499985 0)"/>
       <use xlink:href="#STIXTwoText-35" transform="translate(73.999969 0)"/>
      </g>
     </g>
    </g>
    <g id="xtick_5">
     <g id="line2d_5">
      <path d="M 292.84272 238.79125 
L 292.84272 20.5 
" clip-path="url(#pb29b40265a)" style="fill: none; stroke: #dddddd; stroke-width: 0.6; stroke-linecap: round"/>
     </g>
     <g id="text_5">
      <!-- 2.0 -->
      <g style="fill: #262626" transform="translate(287.59397 254.291719) scale(0.085 -0.085)">
       <defs>
        <path id="STIXTwoText-32" d="M 2765 0 
L 243 0 
L 243 218 
L 1216 1190 
Q 1536 1517 1747 1782 
Q 1958 2048 2064 2317 
Q 2170 2586 2170 2918 
Q 2170 3277 1955 3491 
Q 1741 3706 1370 3706 
Q 1056 3706 835 3571 
Q 614 3437 435 3078 
L 282 3142 
Q 429 3610 749 3866 
Q 1069 4122 1536 4122 
Q 1901 4122 2176 3984 
Q 2451 3846 2608 3600 
Q 2765 3354 2765 3014 
Q 2765 2733 2646 2473 
Q 2528 2214 2294 1939 
Q 2061 1664 1722 1318 
L 877 518 
L 877 486 
L 1325 506 
L 2214 506 
Q 2470 506 2572 621 
Q 2675 736 2784 1024 
L 2970 1024 
L 2765 0 
z
" transform="scale(0.015625)"/>
       </defs>
       <use xlink:href="#STIXTwoText-32"/>
       <use xlink:href="#STIXTwoText-2e" transform="translate(49.499985 0)"/>
       <use xlink:href="#STIXTwoText-30" transform="translate(73.999969 0)"/>
      </g>
     </g>
    </g>
    <g id="xtick_6">
     <g id="line2d_6">
      <path d="M 341.654376 238.79125 
L 341.654376 20.5 
" clip-path="url(#pb29b40265a)" style="fill: none; stroke: #dddddd; stroke-width: 0.6; stroke-linecap: round"/>
     </g>
     <g id="text_6">
      <!-- 2.5 -->
      <g style="fill: #262626" transform="translate(336.405626 254.291719) scale(0.085 -0.085)">
       <use xlink:href="#STIXTwoText-32"/>
       <use xlink:href="#STIXTwoText-2e" transform="translate(49.499985 0)"/>
       <use xlink:href="#STIXTwoText-35" transform="translate(73.999969 0)"/>
      </g>
     </g>
    </g>
    <g id="xtick_7">
     <g id="line2d_7">
      <path d="M 390.466033 238.79125 
L 390.466033 20.5 
" clip-path="url(#pb29b40265a)" style="fill: none; stroke: #dddddd; stroke-width: 0.6; stroke-linecap: round"/>
     </g>
     <g id="text_7">
      <!-- 3.0 -->
      <g style="fill: #262626" transform="translate(385.217283 254.291719) scale(0.085 -0.085)">
       <defs>
        <path id="STIXTwoText-33" d="M 1094 -83 
Q 806 -83 652 -28 
Q 499 26 438 106 
Q 378 186 378 269 
Q 378 371 442 460 
Q 506 550 627 550 
Q 723 550 828 502 
Q 934 454 1049 393 
Q 1165 333 1283 285 
Q 1402 237 1523 237 
Q 1728 237 1907 310 
Q 2086 384 2201 560 
Q 2317 736 2317 1050 
Q 2317 1338 2157 1549 
Q 1997 1760 1731 1878 
Q 1466 1997 1158 1997 
L 1030 1997 
L 1030 2240 
L 1152 2240 
Q 1370 2240 1574 2349 
Q 1779 2458 1910 2656 
Q 2042 2854 2042 3110 
Q 2042 3392 1866 3549 
Q 1690 3706 1389 3706 
Q 1101 3706 909 3574 
Q 717 3443 550 3187 
L 403 3270 
Q 582 3686 876 3904 
Q 1171 4122 1562 4122 
Q 2054 4122 2323 3875 
Q 2592 3629 2592 3264 
Q 2592 2931 2397 2726 
Q 2202 2522 1901 2330 
L 1901 2310 
Q 2157 2234 2371 2090 
Q 2586 1946 2714 1738 
Q 2842 1530 2842 1242 
Q 2842 806 2598 508 
Q 2355 211 1958 64 
Q 1562 -83 1094 -83 
z
" transform="scale(0.015625)"/>
       </defs>
       <use xlink:href="#STIXTwoText-33"/>
       <use xlink:href="#STIXTwoText-2e" transform="translate(49.499985 0)"/>
       <use xlink:href="#STIXTwoText-30" transform="translate(73.999969 0)"/>
      </g>
     </g>
    </g>
    <g id="xtick_8">
     <g id="line2d_8">
      <path d="M 439.27769 238.79125 
L 439.27769 20.5 
" clip-path="url(#pb29b40265a)" style="fill: none; stroke: #dddddd; stroke-width: 0.6; stroke-linecap: round"/>
     </g>
     <g id="text_8">
      <!-- 3.5 -->
      <g style="fill: #262626" transform="translate(434.02894 254.291719) scale(0.085 -0.085)">
       <use xlink:href="#STIXTwoText-33"/>
       <use xlink:href="#STIXTwoText-2e" transform="translate(49.499985 0)"/>
       <use xlink:href="#STIXTwoText-35" transform="translate(73.999969 0)"/>
      </g>
     </g>
    </g>
    <g id="xtick_9">
     <g id="line2d_9">
      <path d="M 488.089346 238.79125 
L 488.089346 20.5 
" clip-path="url(#pb29b40265a)" style="fill: none; stroke: #dddddd; stroke-width: 0.6; stroke-linecap: round"/>
     </g>
     <g id="text_9">
      <!-- 4.0 -->
      <g style="fill: #262626" transform="translate(482.840596 254.291719) scale(0.085 -0.085)">
       <defs>
        <path id="STIXTwoText-34" d="M 2426 0 
L 1856 0 
L 1856 1011 
L 83 1011 
L 83 1414 
L 2035 4128 
L 2426 4128 
L 2426 1453 
L 3078 1453 
L 3078 1011 
L 2426 1011 
L 2426 0 
z
M 435 1478 
L 435 1453 
L 1856 1453 
L 1856 3430 
L 1830 3430 
L 435 1478 
z
" transform="scale(0.015625)"/>
       </defs>
       <use xlink:href="#STIXTwoText-34"/>
       <use xlink:href="#STIXTwoText-2e" transform="translate(49.499985 0)"/>
       <use xlink:href="#STIXTwoText-30" transform="translate(73.999969 0)"/>
      </g>
     </g>
    </g>
    <g id="text_10">
     <!-- cost increase when input zeroed (log-transform units) -->
     <g style="fill: #262626" transform="translate(198.179609 267.096719) scale(0.095 -0.095)">
      <defs>
       <path id="STIXTwoText-63" d="M 2611 947 
L 2733 858 
Q 2611 602 2454 390 
Q 2298 179 2067 57 
Q 1837 -64 1491 -64 
Q 1094 -64 806 128 
Q 518 320 364 662 
Q 211 1005 211 1446 
Q 211 1952 380 2323 
Q 550 2694 873 2899 
Q 1197 3104 1658 3104 
Q 2112 3104 2371 2905 
Q 2630 2707 2630 2426 
Q 2630 2285 2563 2211 
Q 2496 2138 2362 2138 
Q 2221 2138 2147 2211 
Q 2074 2285 2029 2393 
Q 1984 2502 1936 2611 
Q 1888 2720 1801 2793 
Q 1715 2867 1549 2867 
Q 1158 2867 937 2582 
Q 717 2298 717 1747 
Q 717 1165 957 790 
Q 1197 416 1690 416 
Q 2003 416 2198 544 
Q 2394 672 2611 947 
z
" transform="scale(0.015625)"/>
       <path id="STIXTwoText-6f" d="M 1651 -64 
Q 979 -64 598 355 
Q 218 774 218 1549 
Q 218 2016 397 2365 
Q 576 2714 899 2909 
Q 1222 3104 1651 3104 
Q 2310 3104 2691 2694 
Q 3072 2285 3072 1574 
Q 3072 1037 2889 672 
Q 2707 307 2387 121 
Q 2067 -64 1651 -64 
z
M 1677 192 
Q 1939 192 2118 313 
Q 2298 435 2390 729 
Q 2483 1024 2483 1542 
Q 2483 2131 2268 2496 
Q 2054 2861 1626 2861 
Q 1261 2861 1037 2553 
Q 813 2246 813 1632 
Q 813 870 1040 528 
Q 1267 186 1677 192 
z
" transform="scale(0.015625)"/>
       <path id="STIXTwoText-73" d="M 269 -51 
L 250 1050 
L 416 1050 
Q 518 557 716 361 
Q 915 166 1267 166 
Q 1510 166 1664 265 
Q 1818 365 1818 589 
Q 1818 742 1763 844 
Q 1709 947 1555 1052 
Q 1402 1158 1101 1306 
Q 806 1453 620 1590 
Q 435 1728 345 1894 
Q 256 2061 256 2298 
Q 256 2694 541 2899 
Q 826 3104 1235 3104 
Q 1478 3104 1632 3049 
Q 1786 2995 1907 2938 
L 1914 2938 
L 2022 3072 
L 2150 3072 
L 2170 2093 
L 1997 2093 
Q 1894 2547 1708 2716 
Q 1523 2886 1229 2886 
Q 1011 2886 860 2784 
Q 710 2682 710 2464 
Q 710 2278 883 2131 
Q 1056 1984 1459 1779 
Q 1754 1626 1952 1482 
Q 2150 1338 2252 1168 
Q 2355 998 2355 762 
Q 2355 461 2208 278 
Q 2061 96 1814 13 
Q 1568 -70 1280 -70 
Q 1005 -70 841 -12 
Q 678 45 550 96 
L 538 96 
L 403 -51 
L 269 -51 
z
" transform="scale(0.015625)"/>
       <path id="STIXTwoText-74" d="M 1875 576 
L 1997 474 
Q 1875 301 1769 182 
Q 1664 64 1536 0 
Q 1408 -64 1203 -64 
Q 883 -64 736 125 
Q 589 314 589 742 
L 589 2726 
L 237 2726 
L 237 2874 
Q 461 3014 624 3254 
Q 787 3494 960 3904 
L 1120 3904 
L 1120 2995 
L 1843 2995 
L 1843 2726 
L 1120 2726 
L 1120 922 
Q 1120 582 1181 448 
Q 1242 314 1427 314 
Q 1581 314 1667 378 
Q 1754 442 1875 576 
z
" transform="scale(0.015625)"/>
       <path id="STIXTwoText-20" transform="scale(0.015625)"/>
       <path id="STIXTwoText-69" d="M 1645 0 
L 205 0 
L 205 179 
Q 422 179 515 220 
Q 608 262 630 364 
Q 653 467 653 646 
L 653 2432 
Q 653 2637 582 2685 
Q 512 2733 371 2733 
Q 307 2733 259 2726 
Q 211 2720 211 2720 
L 211 2906 
L 1018 3085 
L 1184 3085 
L 1184 646 
Q 1184 461 1209 358 
Q 1235 256 1334 217 
Q 1434 179 1645 179 
L 1645 0 
z
M 928 3584 
Q 768 3584 665 3693 
Q 563 3802 563 3949 
Q 563 4096 662 4201 
Q 762 4307 928 4307 
Q 1094 4307 1193 4201 
Q 1293 4096 1293 3949 
Q 1293 3802 1193 3693 
Q 1094 3584 928 3584 
z
" transform="scale(0.015625)"/>
       <path id="STIXTwoText-6e" d="M 3552 0 
L 2074 0 
L 2074 179 
Q 2304 179 2403 220 
Q 2502 262 2524 364 
Q 2547 467 2547 646 
L 2547 1805 
Q 2547 2189 2460 2381 
Q 2374 2573 2240 2633 
Q 2106 2694 1958 2694 
Q 1773 2694 1625 2620 
Q 1478 2547 1360 2444 
Q 1242 2342 1139 2253 
L 1094 2566 
L 1190 2566 
Q 1453 2797 1686 2950 
Q 1920 3104 2221 3104 
Q 2656 3104 2867 2809 
Q 3078 2515 3078 1965 
L 3078 646 
Q 3078 467 3107 364 
Q 3136 262 3238 220 
Q 3341 179 3552 179 
L 3552 0 
z
M 1670 0 
L 205 0 
L 205 179 
Q 422 179 515 220 
Q 608 262 630 364 
Q 653 467 653 646 
L 653 2445 
Q 653 2618 582 2672 
Q 512 2726 384 2726 
Q 301 2726 256 2720 
Q 211 2714 211 2714 
L 211 2899 
L 1024 3085 
L 1171 3085 
L 1165 2496 
L 1184 2362 
L 1184 646 
Q 1184 467 1209 364 
Q 1235 262 1337 220 
Q 1440 179 1670 179 
L 1670 0 
z
" transform="scale(0.015625)"/>
       <path id="STIXTwoText-72" d="M 1786 0 
L 186 0 
L 186 186 
Q 397 186 496 221 
Q 595 256 624 349 
Q 653 442 653 621 
L 653 2381 
Q 653 2554 624 2640 
Q 595 2726 422 2726 
Q 326 2726 275 2720 
Q 224 2714 224 2714 
L 224 2893 
L 1018 3085 
L 1171 3085 
L 1171 2426 
L 1190 2426 
Q 1357 2662 1485 2816 
Q 1613 2970 1737 3046 
Q 1862 3123 2016 3123 
Q 2202 3123 2294 3027 
Q 2387 2931 2387 2765 
Q 2387 2586 2300 2502 
Q 2214 2419 2106 2419 
Q 2003 2419 1923 2473 
Q 1843 2528 1785 2582 
Q 1728 2637 1690 2637 
Q 1581 2637 1440 2470 
Q 1299 2304 1184 2112 
L 1184 653 
Q 1184 454 1235 352 
Q 1286 250 1417 218 
Q 1549 186 1786 186 
L 1786 0 
z
" transform="scale(0.015625)"/>
       <path id="STIXTwoText-65" d="M 1581 -64 
Q 1197 -64 886 118 
Q 576 301 397 656 
Q 218 1011 218 1523 
Q 218 2061 400 2409 
Q 582 2758 889 2931 
Q 1197 3104 1568 3104 
Q 2093 3104 2413 2739 
Q 2733 2374 2758 1702 
L 678 1702 
L 672 1939 
L 2157 1939 
Q 2150 2176 2073 2384 
Q 1997 2592 1849 2720 
Q 1702 2848 1472 2848 
Q 1101 2848 915 2557 
Q 730 2266 730 1734 
Q 730 1293 870 998 
Q 1011 704 1241 560 
Q 1472 416 1734 416 
Q 1997 416 2160 486 
Q 2323 557 2438 669 
Q 2554 781 2656 915 
L 2778 826 
Q 2694 646 2585 483 
Q 2477 320 2339 198 
Q 2202 77 2016 6 
Q 1830 -64 1581 -64 
z
" transform="scale(0.015625)"/>
       <path id="STIXTwoText-61" d="M 1005 -45 
Q 634 -45 438 160 
Q 243 365 243 672 
Q 243 928 361 1104 
Q 480 1280 675 1401 
Q 870 1523 1097 1606 
Q 1325 1690 1542 1747 
Q 1760 1805 1926 1856 
L 1926 2138 
Q 1926 2554 1782 2730 
Q 1638 2906 1350 2906 
Q 1075 2906 998 2790 
Q 922 2675 922 2387 
Q 922 2240 848 2166 
Q 774 2093 640 2093 
Q 544 2093 457 2166 
Q 371 2240 371 2400 
Q 371 2579 508 2739 
Q 646 2899 899 3001 
Q 1152 3104 1498 3104 
Q 2022 3104 2240 2861 
Q 2458 2618 2458 2118 
L 2458 666 
Q 2458 467 2502 409 
Q 2547 352 2650 352 
Q 2739 352 2812 397 
Q 2886 442 2950 512 
L 3046 410 
Q 2886 179 2742 73 
Q 2598 -32 2355 -32 
Q 2131 -32 2064 96 
Q 1997 224 1965 461 
L 1926 538 
L 1926 1645 
Q 1638 1574 1382 1478 
Q 1126 1382 966 1228 
Q 806 1075 806 826 
Q 806 589 934 448 
Q 1062 307 1267 307 
Q 1434 307 1616 390 
Q 1798 474 1971 627 
L 2022 397 
L 1946 397 
Q 1798 269 1660 166 
Q 1523 64 1366 9 
Q 1210 -45 1005 -45 
z
" transform="scale(0.015625)"/>
       <path id="STIXTwoText-77" d="M 3450 -38 
L 3142 -38 
L 2432 1914 
L 2342 2093 
L 2240 2374 
Q 2163 2586 2096 2685 
Q 2029 2784 1939 2813 
Q 1850 2842 1709 2842 
L 1709 3027 
L 3046 3027 
L 3046 2842 
Q 2867 2842 2796 2800 
Q 2726 2758 2726 2682 
Q 2726 2624 2742 2557 
Q 2758 2490 2784 2419 
L 3302 1018 
L 3418 646 
L 3456 646 
L 3584 1018 
L 4090 2451 
Q 4096 2477 4112 2537 
Q 4128 2598 4128 2682 
Q 4128 2771 4038 2806 
Q 3949 2842 3770 2842 
L 3770 3027 
L 4877 3027 
L 4877 2842 
Q 4691 2842 4595 2755 
Q 4499 2669 4403 2419 
L 3450 -38 
z
M 1690 -38 
L 1395 -38 
L 435 2374 
Q 352 2573 281 2672 
Q 211 2771 121 2806 
Q 32 2842 -109 2842 
L -109 3027 
L 1267 3027 
L 1267 2842 
Q 1075 2842 1001 2800 
Q 928 2758 928 2682 
Q 928 2618 950 2560 
Q 973 2502 998 2432 
L 1555 1018 
L 1670 646 
L 1715 646 
L 1850 1018 
L 2336 2246 
L 2547 1824 
L 2438 1824 
L 1690 -38 
z
" transform="scale(0.015625)"/>
       <path id="STIXTwoText-68" d="M 3558 0 
L 2086 0 
L 2086 186 
Q 2310 186 2406 230 
Q 2502 275 2528 371 
Q 2554 467 2554 621 
L 2554 1728 
Q 2554 1990 2515 2211 
Q 2477 2432 2352 2563 
Q 2227 2694 1965 2694 
Q 1766 2694 1561 2588 
Q 1357 2483 1094 2227 
L 1101 2579 
L 1190 2579 
Q 1491 2861 1731 2982 
Q 1971 3104 2227 3104 
Q 2502 3104 2672 2995 
Q 2842 2886 2931 2710 
Q 3021 2534 3053 2326 
Q 3085 2118 3085 1920 
L 3085 646 
Q 3085 390 3171 288 
Q 3258 186 3558 186 
L 3558 0 
z
M 1645 0 
L 192 0 
L 192 186 
Q 442 186 541 256 
Q 640 326 640 595 
L 640 3872 
Q 640 4038 547 4083 
Q 454 4128 326 4128 
Q 250 4128 195 4121 
Q 141 4115 141 4115 
L 141 4294 
L 998 4518 
L 1171 4518 
L 1171 621 
Q 1171 454 1196 358 
Q 1222 262 1324 224 
Q 1427 186 1645 186 
L 1645 0 
z
" transform="scale(0.015625)"/>
       <path id="STIXTwoText-70" d="M 1760 -1408 
L 141 -1408 
L 141 -1229 
Q 442 -1229 525 -1129 
Q 608 -1030 608 -762 
L 608 2406 
Q 608 2592 566 2662 
Q 525 2733 365 2733 
Q 301 2733 230 2726 
Q 160 2720 160 2720 
L 160 2906 
L 966 3085 
L 1126 3085 
L 1126 2547 
L 1146 2547 
Q 1376 2816 1616 2960 
Q 1856 3104 2138 3104 
Q 2458 3104 2698 2921 
Q 2938 2739 3075 2416 
Q 3213 2093 3213 1670 
Q 3213 1126 3024 739 
Q 2835 352 2515 144 
Q 2195 -64 1811 -64 
Q 1632 -64 1469 -22 
Q 1306 19 1165 115 
L 1139 115 
L 1139 -723 
Q 1139 -928 1190 -1037 
Q 1242 -1146 1376 -1184 
Q 1510 -1222 1760 -1222 
L 1760 -1408 
z
M 1843 186 
Q 2182 186 2406 506 
Q 2630 826 2630 1491 
Q 2630 2099 2432 2384 
Q 2234 2669 1875 2669 
Q 1619 2669 1424 2534 
Q 1229 2400 1139 2278 
L 1139 608 
Q 1203 544 1299 441 
Q 1395 339 1529 262 
Q 1664 186 1843 186 
z
" transform="scale(0.015625)"/>
       <path id="STIXTwoText-75" d="M 1421 -64 
Q 1024 -64 803 195 
Q 582 454 582 1107 
L 582 2406 
Q 582 2579 547 2659 
Q 512 2739 416 2761 
Q 320 2784 147 2784 
L 147 2963 
L 973 3059 
L 1114 3059 
L 1114 1190 
Q 1114 864 1187 681 
Q 1261 499 1392 422 
Q 1523 346 1690 346 
Q 1933 346 2109 454 
Q 2285 563 2477 730 
L 2477 2413 
Q 2477 2586 2432 2662 
Q 2387 2739 2275 2761 
Q 2163 2784 1958 2784 
L 1958 2963 
L 2854 3059 
L 3008 3059 
L 3008 710 
Q 3008 429 3085 358 
Q 3162 288 3392 288 
L 3456 288 
L 3456 115 
L 2643 -32 
L 2502 -32 
L 2502 461 
L 2470 461 
Q 2304 294 2141 176 
Q 1978 58 1802 -3 
Q 1626 -64 1421 -64 
z
" transform="scale(0.015625)"/>
       <path id="STIXTwoText-7a" d="M 2656 0 
L 198 0 
L 198 186 
L 1997 2739 
L 1997 2758 
L 1133 2758 
Q 781 2758 662 2582 
Q 544 2406 499 2086 
L 301 2086 
L 333 3027 
L 2694 3027 
L 2694 2842 
L 896 282 
L 896 262 
L 1696 262 
Q 1971 262 2124 329 
Q 2278 397 2361 563 
Q 2445 730 2509 1024 
L 2720 1024 
L 2656 0 
z
" transform="scale(0.015625)"/>
       <path id="STIXTwoText-64" d="M 1306 -51 
Q 947 -51 700 141 
Q 454 333 332 662 
Q 211 992 211 1402 
Q 211 1933 409 2313 
Q 608 2694 944 2899 
Q 1280 3104 1683 3104 
Q 1837 3104 1987 3065 
Q 2138 3027 2278 2950 
L 2304 2950 
L 2304 3789 
Q 2304 4000 2256 4064 
Q 2208 4128 2022 4128 
Q 1978 4128 1917 4121 
Q 1856 4115 1856 4115 
L 1856 4294 
L 2662 4518 
L 2835 4518 
L 2835 685 
Q 2835 435 2905 361 
Q 2976 288 3155 288 
L 3290 288 
L 3290 115 
L 2470 -32 
L 2323 -32 
L 2323 410 
L 2298 410 
Q 2118 250 1872 99 
Q 1626 -51 1306 -51 
z
M 1606 410 
Q 1830 410 1984 470 
Q 2138 531 2304 646 
L 2304 2336 
Q 2266 2534 2118 2691 
Q 1971 2848 1670 2848 
Q 1267 2848 1017 2553 
Q 768 2259 768 1651 
Q 768 992 982 701 
Q 1197 410 1606 410 
z
" transform="scale(0.015625)"/>
       <path id="STIXTwoText-28" d="M 1997 -1011 
L 1894 -1190 
Q 1120 -794 656 -48 
Q 192 698 192 1754 
Q 192 2803 656 3542 
Q 1120 4282 1894 4672 
L 1997 4506 
Q 1299 4038 1008 3372 
Q 717 2707 717 1754 
Q 717 787 1008 118 
Q 1299 -550 1997 -1011 
z
" transform="scale(0.015625)"/>
       <path id="STIXTwoText-6c" d="M 1664 0 
L 192 0 
L 192 186 
Q 403 186 499 227 
Q 595 269 617 368 
Q 640 467 640 646 
L 640 3859 
Q 640 4058 566 4096 
Q 493 4134 371 4134 
Q 288 4134 227 4128 
Q 166 4122 166 4122 
L 166 4294 
L 1011 4518 
L 1171 4518 
L 1171 646 
Q 1171 461 1200 361 
Q 1229 262 1331 224 
Q 1434 186 1664 186 
L 1664 0 
z
" transform="scale(0.015625)"/>
       <path id="STIXTwoText-67" d="M 1222 -1504 
Q 806 -1504 566 -1401 
Q 326 -1299 230 -1136 
Q 134 -973 134 -800 
Q 134 -640 265 -464 
Q 397 -288 653 -38 
L 653 32 
L 845 -6 
Q 723 -211 678 -342 
Q 634 -474 634 -582 
Q 634 -858 870 -998 
Q 1107 -1139 1594 -1139 
Q 1971 -1139 2204 -1043 
Q 2438 -947 2544 -806 
Q 2650 -666 2650 -531 
Q 2650 -358 2538 -265 
Q 2426 -173 2253 -134 
Q 2080 -96 1888 -86 
Q 1696 -77 1536 -77 
Q 1248 -70 1101 -70 
Q 954 -70 890 -67 
Q 826 -64 774 -64 
L 710 -32 
Q 614 0 518 70 
Q 422 141 358 240 
Q 294 339 294 448 
Q 294 563 361 688 
Q 429 813 550 937 
Q 672 1062 819 1178 
L 819 1235 
L 986 1114 
Q 954 1082 909 998 
Q 864 915 832 822 
Q 800 730 800 666 
Q 800 570 867 515 
Q 934 461 1097 435 
Q 1261 410 1555 410 
Q 1958 410 2281 371 
Q 2605 333 2790 173 
Q 2976 13 2976 -352 
Q 2976 -672 2819 -893 
Q 2662 -1114 2403 -1248 
Q 2144 -1382 1833 -1443 
Q 1523 -1504 1222 -1504 
z
M 1517 998 
Q 1350 998 1206 1030 
Q 1062 1062 928 1107 
L 858 1171 
Q 691 1261 572 1382 
Q 454 1504 390 1673 
Q 326 1843 326 2061 
Q 326 2381 473 2614 
Q 621 2848 883 2976 
Q 1146 3104 1485 3104 
Q 1677 3104 1846 3069 
Q 2016 3034 2163 2963 
Q 2310 2893 2419 2797 
L 2419 2630 
Q 2490 2534 2570 2374 
Q 2650 2214 2650 1971 
Q 2650 1677 2506 1456 
Q 2362 1235 2109 1116 
Q 1856 998 1517 998 
z
M 1523 1222 
Q 1766 1222 1923 1388 
Q 2080 1555 2080 2010 
Q 2080 2400 1913 2637 
Q 1747 2874 1440 2874 
Q 1190 2874 1040 2682 
Q 890 2490 890 2086 
Q 890 1677 1050 1449 
Q 1210 1222 1523 1222 
z
M 3021 2989 
L 3021 2643 
L 2330 2662 
L 2106 2938 
L 3021 2989 
z
" transform="scale(0.015625)"/>
       <path id="STIXTwoText-2d" d="M 1728 1395 
L 288 1395 
L 288 1811 
L 1728 1811 
L 1728 1395 
z
" transform="scale(0.015625)"/>
       <path id="STIXTwoText-66" d="M 1837 0 
L 115 0 
L 115 186 
Q 352 186 464 227 
Q 576 269 614 390 
Q 653 512 653 762 
L 653 2797 
Q 653 3162 669 3395 
Q 685 3629 729 3789 
Q 774 3949 858 4096 
Q 986 4320 1181 4441 
Q 1376 4563 1709 4563 
Q 1920 4563 2080 4512 
Q 2240 4461 2333 4361 
Q 2426 4262 2426 4115 
Q 2426 3974 2349 3907 
Q 2272 3840 2163 3840 
Q 2042 3840 1965 3920 
Q 1888 4000 1818 4090 
Q 1754 4179 1680 4252 
Q 1606 4326 1491 4326 
Q 1312 4326 1248 4163 
Q 1184 4000 1184 3597 
L 1184 762 
Q 1184 512 1235 390 
Q 1286 269 1427 227 
Q 1568 186 1837 186 
L 1837 0 
z
M 1965 2726 
L 166 2726 
L 166 2995 
L 1965 2995 
L 1965 2726 
z
" transform="scale(0.015625)"/>
       <path id="STIXTwoText-6d" d="M 3520 0 
L 2003 0 
L 2003 186 
Q 2234 186 2336 230 
Q 2438 275 2467 396 
Q 2496 518 2496 742 
L 2496 2010 
Q 2496 2419 2352 2556 
Q 2208 2694 1984 2694 
Q 1805 2694 1648 2617 
Q 1491 2541 1363 2438 
Q 1235 2336 1146 2246 
L 1094 2566 
L 1190 2566 
Q 1453 2790 1696 2947 
Q 1939 3104 2266 3104 
Q 2554 3104 2730 2937 
Q 2906 2771 2995 2522 
Q 3008 2502 3014 2480 
Q 3021 2458 3027 2432 
L 3027 742 
Q 3027 525 3056 403 
Q 3085 282 3187 234 
Q 3290 186 3520 186 
L 3520 0 
z
M 1664 0 
L 205 0 
L 205 186 
Q 410 186 502 221 
Q 595 256 624 355 
Q 653 454 653 646 
L 653 2438 
Q 653 2611 585 2668 
Q 518 2726 384 2726 
Q 314 2726 262 2720 
Q 211 2714 211 2714 
L 211 2899 
L 1011 3085 
L 1165 3085 
L 1165 2496 
L 1184 2355 
L 1184 621 
Q 1184 442 1222 349 
Q 1261 256 1363 221 
Q 1466 186 1664 186 
L 1664 0 
z
M 5306 0 
L 3859 0 
L 3859 186 
Q 4077 186 4173 243 
Q 4269 301 4291 425 
Q 4314 550 4314 742 
L 4314 1971 
Q 4314 2266 4240 2419 
Q 4166 2573 4041 2633 
Q 3917 2694 3763 2694 
Q 3552 2694 3347 2544 
Q 3142 2394 2976 2253 
L 2906 2573 
L 3002 2573 
Q 3264 2835 3513 2969 
Q 3763 3104 4019 3104 
Q 4397 3104 4621 2867 
Q 4845 2630 4845 2048 
L 4845 742 
Q 4845 544 4867 419 
Q 4890 294 4989 240 
Q 5088 186 5306 186 
L 5306 0 
z
" transform="scale(0.015625)"/>
       <path id="STIXTwoText-29" d="M 301 -1190 
L 198 -1011 
Q 902 -550 1190 118 
Q 1478 787 1478 1754 
Q 1478 2707 1190 3372 
Q 902 4038 198 4506 
L 301 4672 
Q 1075 4282 1539 3542 
Q 2003 2803 2003 1754 
Q 2003 698 1539 -48 
Q 1075 -794 301 -1190 
z
" transform="scale(0.015625)"/>
      </defs>
      <use xlink:href="#STIXTwoText-63"/>
      <use xlink:href="#STIXTwoText-6f" transform="translate(44.599991 0)"/>
      <use xlink:href="#STIXTwoText-73" transform="translate(95.999985 0)"/>
      <use xlink:href="#STIXTwoText-74" transform="translate(135.499969 0)"/>
      <use xlink:href="#STIXTwoText-20" transform="translate(166.999954 0)"/>
      <use xlink:href="#STIXTwoText-69" transform="translate(190.499939 0)"/>
      <use xlink:href="#STIXTwoText-6e" transform="translate(218.999924 0)"/>
      <use xlink:href="#STIXTwoText-63" transform="translate(276.599915 0)"/>
      <use xlink:href="#STIXTwoText-72" transform="translate(321.199905 0)"/>
      <use xlink:href="#STIXTwoText-65" transform="translate(359.19989 0)"/>
      <use xlink:href="#STIXTwoText-61" transform="translate(405.599884 0)"/>
      <use xlink:href="#STIXTwoText-73" transform="translate(453.599869 0)"/>
      <use xlink:href="#STIXTwoText-65" transform="translate(493.099854 0)"/>
      <use xlink:href="#STIXTwoText-20" transform="translate(539.499847 0)"/>
      <use xlink:href="#STIXTwoText-77" transform="translate(562.999832 0)"/>
      <use xlink:href="#STIXTwoText-68" transform="translate(637.899826 0)"/>
      <use xlink:href="#STIXTwoText-65" transform="translate(695.599823 0)"/>
      <use xlink:href="#STIXTwoText-6e" transform="translate(741.999817 0)"/>
      <use xlink:href="#STIXTwoText-20" transform="translate(799.599808 0)"/>
      <use xlink:href="#STIXTwoText-69" transform="translate(823.099792 0)"/>
      <use xlink:href="#STIXTwoText-6e" transform="translate(851.599777 0)"/>
      <use xlink:href="#STIXTwoText-70" transform="translate(909.199768 0)"/>
      <use xlink:href="#STIXTwoText-75" transform="translate(962.899765 0)"/>
      <use xlink:href="#STIXTwoText-74" transform="translate(1019.89975 0)"/>
      <use xlink:href="#STIXTwoText-20" transform="translate(1051.399734 0)"/>
      <use xlink:href="#STIXTwoText-7a" transform="translate(1074.899719 0)"/>
      <use xlink:href="#STIXTwoText-65" transform="translate(1120.699707 0)"/>
      <use xlink:href="#STIXTwoText-72" transform="translate(1167.099701 0)"/>
      <use xlink:href="#STIXTwoText-6f" transform="translate(1205.099686 0)"/>
      <use xlink:href="#STIXTwoText-65" transform="translate(1256.49968 0)"/>
      <use xlink:href="#STIXTwoText-64" transform="translate(1302.899673 0)"/>
      <use xlink:href="#STIXTwoText-20" transform="translate(1356.799667 0)"/>
      <use xlink:href="#STIXTwoText-28" transform="translate(1380.299652 0)"/>
      <use xlink:href="#STIXTwoText-6c" transform="translate(1414.59964 0)"/>
      <use xlink:href="#STIXTwoText-6f" transform="translate(1442.899628 0)"/>
      <use xlink:href="#STIXTwoText-67" transform="translate(1494.299622 0)"/>
      <use xlink:href="#STIXTwoText-2d" transform="translate(1542.699615 0)"/>
      <use xlink:href="#STIXTwoText-74" transform="translate(1574.1996 0)"/>
      <use xlink:href="#STIXTwoText-72" transform="translate(1605.699585 0)"/>
      <use xlink:href="#STIXTwoText-61" transform="translate(1643.69957 0)"/>
      <use xlink:href="#STIXTwoText-6e" transform="translate(1691.699554 0)"/>
      <use xlink:href="#STIXTwoText-73" transform="translate(1749.299545 0)"/>
      <use xlink:href="#STIXTwoText-66" transform="translate(1788.79953 0)"/>
      <use xlink:href="#STIXTwoText-6f" transform="translate(1819.499527 0)"/>
      <use xlink:href="#STIXTwoText-72" transform="translate(1870.899521 0)"/>
      <use xlink:href="#STIXTwoText-6d" transform="translate(1908.899506 0)"/>
      <use xlink:href="#STIXTwoText-20" transform="translate(1994.099487 0)"/>
      <use xlink:href="#STIXTwoText-75" transform="translate(2017.599472 0)"/>
      <use xlink:href="#STIXTwoText-6e" transform="translate(2074.599457 0)"/>
      <use xlink:href="#STIXTwoText-69" transform="translate(2132.199448 0)"/>
      <use xlink:href="#STIXTwoText-74" transform="translate(2160.699432 0)"/>
      <use xlink:href="#STIXTwoText-73" transform="translate(2192.199417 0)"/>
      <use xlink:href="#STIXTwoText-29" transform="translate(2231.699402 0)"/>
     </g>
    </g>
   </g>
   <g id="matplotlib.axis_2">
    <g id="ytick_1">
     <g id="line2d_10">
      <path d="M 97.596094 222.141917 
L 514.036094 222.141917 
" clip-path="url(#pb29b40265a)" style="fill: none; stroke: #dddddd; stroke-width: 0.6; stroke-linecap: round"/>
     </g>
     <g id="text_11">
      <!-- predicted_dv1 -->
      <g style="fill: #262626" transform="translate(37.127969 225.142152) scale(0.085 -0.085)">
       <defs>
        <path id="STIXTwoText-5f" d="M 3277 -819 
L 0 -819 
L 0 -493 
L 3277 -493 
L 3277 -819 
z
" transform="scale(0.015625)"/>
        <path id="STIXTwoText-76" d="M 1696 -38 
L 1389 -38 
L 435 2374 
Q 352 2573 288 2672 
Q 224 2771 141 2806 
Q 58 2842 -83 2842 
L -83 3027 
L 1267 3027 
L 1267 2842 
Q 1082 2842 1008 2800 
Q 934 2758 934 2682 
Q 934 2618 953 2560 
Q 973 2502 998 2432 
L 1542 1005 
L 1664 621 
L 1702 621 
L 1837 1011 
L 2387 2458 
Q 2394 2483 2413 2537 
Q 2432 2592 2432 2669 
Q 2432 2778 2336 2810 
Q 2240 2842 2067 2842 
L 2067 3027 
L 3187 3027 
L 3187 2842 
Q 3002 2842 2902 2755 
Q 2803 2669 2707 2419 
L 1696 -38 
z
" transform="scale(0.015625)"/>
       </defs>
       <use xlink:href="#STIXTwoText-70"/>
       <use xlink:href="#STIXTwoText-72" transform="translate(53.699997 0)"/>
       <use xlink:href="#STIXTwoText-65" transform="translate(91.699982 0)"/>
       <use xlink:href="#STIXTwoText-64" transform="translate(138.099976 0)"/>
       <use xlink:href="#STIXTwoText-69" transform="translate(191.999969 0)"/>
       <use xlink:href="#STIXTwoText-63" transform="translate(220.499954 0)"/>
       <use xlink:href="#STIXTwoText-74" transform="translate(265.099945 0)"/>
       <use xlink:href="#STIXTwoText-65" transform="translate(296.59993 0)"/>
       <use xlink:href="#STIXTwoText-64" transform="translate(342.999924 0)"/>
       <use xlink:href="#STIXTwoText-5f" transform="translate(396.899918 0)"/>
       <use xlink:href="#STIXTwoText-64" transform="translate(448.099915 0)"/>
       <use xlink:href="#STIXTwoText-76" transform="translate(501.999908 0)"/>
       <use xlink:href="#STIXTwoText-31" transform="translate(550.099899 0)"/>
      </g>
     </g>
    </g>
    <g id="ytick_2">
     <g id="line2d_11">
      <path d="M 97.596094 205.32441 
L 514.036094 205.32441 
" clip-path="url(#pb29b40265a)" style="fill: none; stroke: #dddddd; stroke-width: 0.6; stroke-linecap: round"/>
     </g>
     <g id="text_12">
      <!-- prev_bank_signed_sin -->
      <g style="fill: #262626" transform="translate(7.2 208.324644) scale(0.085 -0.085)">
       <defs>
        <path id="STIXTwoText-62" d="M 877 4518 
L 1043 4518 
L 1043 2560 
L 1062 2560 
Q 1229 2765 1478 2934 
Q 1728 3104 2048 3104 
Q 2368 3104 2608 2921 
Q 2848 2739 2982 2419 
Q 3117 2099 3117 1683 
Q 3117 1114 2918 723 
Q 2720 333 2374 134 
Q 2029 -64 1581 -64 
Q 1171 -64 899 32 
Q 627 128 512 192 
L 512 3789 
Q 512 4006 464 4067 
Q 416 4128 230 4128 
Q 154 4128 102 4121 
Q 51 4115 51 4115 
L 51 4294 
L 877 4518 
z
M 1043 2278 
L 1043 499 
Q 1133 390 1286 294 
Q 1440 198 1696 198 
Q 2003 198 2185 371 
Q 2368 544 2451 835 
Q 2534 1126 2534 1478 
Q 2534 1786 2470 2058 
Q 2406 2330 2240 2499 
Q 2074 2669 1766 2669 
Q 1523 2669 1328 2531 
Q 1133 2394 1043 2278 
z
" transform="scale(0.015625)"/>
        <path id="STIXTwoText-6b" d="M 1645 0 
L 192 0 
L 192 186 
Q 480 186 560 266 
Q 640 346 640 608 
L 640 3808 
Q 640 4013 592 4073 
Q 544 4134 384 4134 
Q 320 4134 243 4128 
Q 166 4122 166 4122 
L 166 4294 
L 998 4518 
L 1171 4518 
L 1171 1696 
L 1210 1696 
L 2035 2515 
Q 2054 2534 2102 2588 
Q 2150 2643 2150 2720 
Q 2150 2784 2086 2809 
Q 2022 2835 1837 2835 
L 1837 3027 
L 3219 3027 
L 3219 2835 
Q 3066 2835 2947 2806 
Q 2829 2778 2707 2698 
Q 2586 2618 2410 2470 
Q 2234 2323 1965 2086 
L 1645 1824 
L 2771 557 
Q 2925 384 3024 304 
Q 3123 224 3219 205 
Q 3315 186 3450 186 
L 3450 0 
L 2035 0 
L 2035 186 
Q 2176 186 2230 202 
Q 2285 218 2285 262 
Q 2285 307 2262 348 
Q 2240 390 2214 416 
L 1210 1555 
L 1171 1555 
L 1171 582 
Q 1171 339 1257 262 
Q 1344 186 1645 186 
L 1645 0 
z
" transform="scale(0.015625)"/>
       </defs>
       <use xlink:href="#STIXTwoText-70"/>
       <use xlink:href="#STIXTwoText-72" transform="translate(53.699997 0)"/>
       <use xlink:href="#STIXTwoText-65" transform="translate(91.699982 0)"/>
       <use xlink:href="#STIXTwoText-76" transform="translate(138.099976 0)"/>
       <use xlink:href="#STIXTwoText-5f" transform="translate(186.199966 0)"/>
       <use xlink:href="#STIXTwoText-62" transform="translate(237.399963 0)"/>
       <use xlink:href="#STIXTwoText-61" transform="translate(289.59996 0)"/>
       <use xlink:href="#STIXTwoText-6e" transform="translate(337.599945 0)"/>
       <use xlink:href="#STIXTwoText-6b" transform="translate(395.199936 0)"/>
       <use xlink:href="#STIXTwoText-5f" transform="translate(449.399933 0)"/>
       <use xlink:href="#STIXTwoText-73" transform="translate(500.59993 0)"/>
       <use xlink:href="#STIXTwoText-69" transform="translate(540.099915 0)"/>
       <use xlink:href="#STIXTwoText-67" transform="translate(568.599899 0)"/>
       <use xlink:href="#STIXTwoText-6e" transform="translate(616.999893 0)"/>
       <use xlink:href="#STIXTwoText-65" transform="translate(674.599884 0)"/>
       <use xlink:href="#STIXTwoText-64" transform="translate(720.999878 0)"/>
       <use xlink:href="#STIXTwoText-5f" transform="translate(774.899872 0)"/>
       <use xlink:href="#STIXTwoText-73" transform="translate(826.099869 0)"/>
       <use xlink:href="#STIXTwoText-69" transform="translate(865.599854 0)"/>
       <use xlink:href="#STIXTwoText-6e" transform="translate(894.099838 0)"/>
      </g>
     </g>
    </g>
    <g id="ytick_3">
     <g id="line2d_12">
      <path d="M 97.596094 188.506902 
L 514.036094 188.506902 
" clip-path="url(#pb29b40265a)" style="fill: none; stroke: #dddddd; stroke-width: 0.6; stroke-linecap: round"/>
     </g>
     <g id="text_13">
      <!-- orbital_energy -->
      <g style="fill: #262626" transform="translate(35.8875 191.507136) scale(0.085 -0.085)">
       <defs>
        <path id="STIXTwoText-79" d="M 493 -1504 
Q 294 -1504 166 -1427 
Q 38 -1350 38 -1171 
Q 38 -1024 124 -960 
Q 211 -896 333 -896 
Q 499 -896 630 -966 
Q 762 -1037 826 -1037 
Q 915 -1037 1017 -899 
Q 1120 -762 1219 -570 
Q 1318 -378 1379 -208 
Q 1440 -38 1440 32 
Q 1440 96 1373 262 
Q 1306 429 1248 557 
L 307 2611 
Q 262 2720 179 2781 
Q 96 2842 -77 2842 
L -77 3027 
L 1293 3027 
L 1293 2835 
Q 1075 2835 1001 2793 
Q 928 2752 928 2669 
Q 928 2605 960 2531 
Q 992 2458 1018 2387 
L 1645 979 
L 1728 666 
L 1773 666 
L 2394 2522 
Q 2406 2554 2416 2602 
Q 2426 2650 2426 2682 
Q 2426 2778 2326 2810 
Q 2227 2842 2067 2842 
L 2067 3027 
L 3155 3027 
L 3155 2842 
Q 2963 2842 2873 2755 
Q 2784 2669 2714 2483 
L 1715 -141 
Q 1530 -627 1354 -928 
Q 1178 -1229 973 -1366 
Q 768 -1504 493 -1504 
z
" transform="scale(0.015625)"/>
       </defs>
       <use xlink:href="#STIXTwoText-6f"/>
       <use xlink:href="#STIXTwoText-72" transform="translate(51.399994 0)"/>
       <use xlink:href="#STIXTwoText-62" transform="translate(89.399979 0)"/>
       <use xlink:href="#STIXTwoText-69" transform="translate(141.599976 0)"/>
       <use xlink:href="#STIXTwoText-74" transform="translate(170.09996 0)"/>
       <use xlink:href="#STIXTwoText-61" transform="translate(201.599945 0)"/>
       <use xlink:href="#STIXTwoText-6c" transform="translate(249.59993 0)"/>
       <use xlink:href="#STIXTwoText-5f" transform="translate(277.899918 0)"/>
       <use xlink:href="#STIXTwoText-65" transform="translate(329.099915 0)"/>
       <use xlink:href="#STIXTwoText-6e" transform="translate(375.499908 0)"/>
       <use xlink:href="#STIXTwoText-65" transform="translate(433.099899 0)"/>
       <use xlink:href="#STIXTwoText-72" transform="translate(479.499893 0)"/>
       <use xlink:href="#STIXTwoText-67" transform="translate(517.499878 0)"/>
       <use xlink:href="#STIXTwoText-79" transform="translate(565.899872 0)"/>
      </g>
     </g>
    </g>
    <g id="ytick_4">
     <g id="line2d_13">
      <path d="M 97.596094 171.689394 
L 514.036094 171.689394 
" clip-path="url(#pb29b40265a)" style="fill: none; stroke: #dddddd; stroke-width: 0.6; stroke-linecap: round"/>
     </g>
     <g id="text_14">
      <!-- prev_realized_sin -->
      <g style="fill: #262626" transform="translate(24.387266 174.689629) scale(0.085 -0.085)">
       <use xlink:href="#STIXTwoText-70"/>
       <use xlink:href="#STIXTwoText-72" transform="translate(53.699997 0)"/>
       <use xlink:href="#STIXTwoText-65" transform="translate(91.699982 0)"/>
       <use xlink:href="#STIXTwoText-76" transform="translate(138.099976 0)"/>
       <use xlink:href="#STIXTwoText-5f" transform="translate(186.199966 0)"/>
       <use xlink:href="#STIXTwoText-72" transform="translate(237.399963 0)"/>
       <use xlink:href="#STIXTwoText-65" transform="translate(275.399948 0)"/>
       <use xlink:href="#STIXTwoText-61" transform="translate(321.799942 0)"/>
       <use xlink:href="#STIXTwoText-6c" transform="translate(369.799927 0)"/>
       <use xlink:href="#STIXTwoText-69" transform="translate(398.099915 0)"/>
       <use xlink:href="#STIXTwoText-7a" transform="translate(426.599899 0)"/>
       <use xlink:href="#STIXTwoText-65" transform="translate(472.399887 0)"/>
       <use xlink:href="#STIXTwoText-64" transform="translate(518.799881 0)"/>
       <use xlink:href="#STIXTwoText-5f" transform="translate(572.699875 0)"/>
       <use xlink:href="#STIXTwoText-73" transform="translate(623.899872 0)"/>
       <use xlink:href="#STIXTwoText-69" transform="translate(663.399857 0)"/>
       <use xlink:href="#STIXTwoText-6e" transform="translate(691.899841 0)"/>
      </g>
     </g>
    </g>
    <g id="ytick_5">
     <g id="line2d_14">
      <path d="M 97.596094 154.871887 
L 514.036094 154.871887 
" clip-path="url(#pb29b40265a)" style="fill: none; stroke: #dddddd; stroke-width: 0.6; stroke-linecap: round"/>
     </g>
     <g id="text_15">
      <!-- accel_magnitude -->
      <g style="fill: #262626" transform="translate(26.929297 157.872121) scale(0.085 -0.085)">
       <use xlink:href="#STIXTwoText-61"/>
       <use xlink:href="#STIXTwoText-63" transform="translate(47.999985 0)"/>
       <use xlink:href="#STIXTwoText-63" transform="translate(92.599976 0)"/>
       <use xlink:href="#STIXTwoText-65" transform="translate(137.199966 0)"/>
       <use xlink:href="#STIXTwoText-6c" transform="translate(183.59996 0)"/>
       <use xlink:href="#STIXTwoText-5f" transform="translate(211.899948 0)"/>
       <use xlink:href="#STIXTwoText-6d" transform="translate(263.099945 0)"/>
       <use xlink:href="#STIXTwoText-61" transform="translate(348.299927 0)"/>
       <use xlink:href="#STIXTwoText-67" transform="translate(396.299911 0)"/>
       <use xlink:href="#STIXTwoText-6e" transform="translate(444.699905 0)"/>
       <use xlink:href="#STIXTwoText-69" transform="translate(502.299896 0)"/>
       <use xlink:href="#STIXTwoText-74" transform="translate(530.799881 0)"/>
       <use xlink:href="#STIXTwoText-75" transform="translate(562.299866 0)"/>
       <use xlink:href="#STIXTwoText-64" transform="translate(619.29985 0)"/>
       <use xlink:href="#STIXTwoText-65" transform="translate(673.199844 0)"/>
      </g>
     </g>
    </g>
    <g id="ytick_6">
     <g id="line2d_15">
      <path d="M 97.596094 138.054379 
L 514.036094 138.054379 
" clip-path="url(#pb29b40265a)" style="fill: none; stroke: #dddddd; stroke-width: 0.6; stroke-linecap: round"/>
     </g>
     <g id="text_16">
      <!-- radial_velocity -->
      <g style="fill: #262626" transform="translate(35.141094 141.054613) scale(0.085 -0.085)">
       <use xlink:href="#STIXTwoText-72"/>
       <use xlink:href="#STIXTwoText-61" transform="translate(37.999985 0)"/>
       <use xlink:href="#STIXTwoText-64" transform="translate(85.999969 0)"/>
       <use xlink:href="#STIXTwoText-69" transform="translate(139.899963 0)"/>
       <use xlink:href="#STIXTwoText-61" transform="translate(168.399948 0)"/>
       <use xlink:href="#STIXTwoText-6c" transform="translate(216.399933 0)"/>
       <use xlink:href="#STIXTwoText-5f" transform="translate(244.699921 0)"/>
       <use xlink:href="#STIXTwoText-76" transform="translate(295.899918 0)"/>
       <use xlink:href="#STIXTwoText-65" transform="translate(343.999908 0)"/>
       <use xlink:href="#STIXTwoText-6c" transform="translate(390.399902 0)"/>
       <use xlink:href="#STIXTwoText-6f" transform="translate(418.69989 0)"/>
       <use xlink:href="#STIXTwoText-63" transform="translate(470.099884 0)"/>
       <use xlink:href="#STIXTwoText-69" transform="translate(514.699875 0)"/>
       <use xlink:href="#STIXTwoText-74" transform="translate(543.19986 0)"/>
       <use xlink:href="#STIXTwoText-79" transform="translate(574.699844 0)"/>
      </g>
     </g>
    </g>
    <g id="ytick_7">
     <g id="line2d_16">
      <path d="M 97.596094 121.236871 
L 514.036094 121.236871 
" clip-path="url(#pb29b40265a)" style="fill: none; stroke: #dddddd; stroke-width: 0.6; stroke-linecap: round"/>
     </g>
     <g id="text_17">
      <!-- lift_accel -->
      <g style="fill: #262626" transform="translate(55.618125 124.237106) scale(0.085 -0.085)">
       <use xlink:href="#STIXTwoText-6c"/>
       <use xlink:href="#STIXTwoText-69" transform="translate(28.299988 0)"/>
       <use xlink:href="#STIXTwoText-66" transform="translate(56.799973 0)"/>
       <use xlink:href="#STIXTwoText-74" transform="translate(87.499969 0)"/>
       <use xlink:href="#STIXTwoText-5f" transform="translate(118.999954 0)"/>
       <use xlink:href="#STIXTwoText-61" transform="translate(170.199951 0)"/>
       <use xlink:href="#STIXTwoText-63" transform="translate(218.199936 0)"/>
       <use xlink:href="#STIXTwoText-63" transform="translate(262.799927 0)"/>
       <use xlink:href="#STIXTwoText-65" transform="translate(307.399918 0)"/>
       <use xlink:href="#STIXTwoText-6c" transform="translate(353.799911 0)"/>
      </g>
     </g>
    </g>
    <g id="ytick_8">
     <g id="line2d_17">
      <path d="M 97.596094 104.419363 
L 514.036094 104.419363 
" clip-path="url(#pb29b40265a)" style="fill: none; stroke: #dddddd; stroke-width: 0.6; stroke-linecap: round"/>
     </g>
     <g id="text_18">
      <!-- predicted_dv3 -->
      <g style="fill: #262626" transform="translate(37.127969 107.419598) scale(0.085 -0.085)">
       <use xlink:href="#STIXTwoText-70"/>
       <use xlink:href="#STIXTwoText-72" transform="translate(53.699997 0)"/>
       <use xlink:href="#STIXTwoText-65" transform="translate(91.699982 0)"/>
       <use xlink:href="#STIXTwoText-64" transform="translate(138.099976 0)"/>
       <use xlink:href="#STIXTwoText-69" transform="translate(191.999969 0)"/>
       <use xlink:href="#STIXTwoText-63" transform="translate(220.499954 0)"/>
       <use xlink:href="#STIXTwoText-74" transform="translate(265.099945 0)"/>
       <use xlink:href="#STIXTwoText-65" transform="translate(296.59993 0)"/>
       <use xlink:href="#STIXTwoText-64" transform="translate(342.999924 0)"/>
       <use xlink:href="#STIXTwoText-5f" transform="translate(396.899918 0)"/>
       <use xlink:href="#STIXTwoText-64" transform="translate(448.099915 0)"/>
       <use xlink:href="#STIXTwoText-76" transform="translate(501.999908 0)"/>
       <use xlink:href="#STIXTwoText-33" transform="translate(550.099899 0)"/>
      </g>
     </g>
    </g>
    <g id="ytick_9">
     <g id="line2d_18">
      <path d="M 97.596094 87.601856 
L 514.036094 87.601856 
" clip-path="url(#pb29b40265a)" style="fill: none; stroke: #dddddd; stroke-width: 0.6; stroke-linecap: round"/>
     </g>
     <g id="text_19">
      <!-- predicted_dv2 -->
      <g style="fill: #262626" transform="translate(37.127969 90.60209) scale(0.085 -0.085)">
       <use xlink:href="#STIXTwoText-70"/>
       <use xlink:href="#STIXTwoText-72" transform="translate(53.699997 0)"/>
       <use xlink:href="#STIXTwoText-65" transform="translate(91.699982 0)"/>
       <use xlink:href="#STIXTwoText-64" transform="translate(138.099976 0)"/>
       <use xlink:href="#STIXTwoText-69" transform="translate(191.999969 0)"/>
       <use xlink:href="#STIXTwoText-63" transform="translate(220.499954 0)"/>
       <use xlink:href="#STIXTwoText-74" transform="translate(265.099945 0)"/>
       <use xlink:href="#STIXTwoText-65" transform="translate(296.59993 0)"/>
       <use xlink:href="#STIXTwoText-64" transform="translate(342.999924 0)"/>
       <use xlink:href="#STIXTwoText-5f" transform="translate(396.899918 0)"/>
       <use xlink:href="#STIXTwoText-64" transform="translate(448.099915 0)"/>
       <use xlink:href="#STIXTwoText-76" transform="translate(501.999908 0)"/>
       <use xlink:href="#STIXTwoText-32" transform="translate(550.099899 0)"/>
      </g>
     </g>
    </g>
    <g id="ytick_10">
     <g id="line2d_19">
      <path d="M 97.596094 70.784348 
L 514.036094 70.784348 
" clip-path="url(#pb29b40265a)" style="fill: none; stroke: #dddddd; stroke-width: 0.6; stroke-linecap: round"/>
     </g>
     <g id="text_20">
      <!-- pdyn_error -->
      <g style="fill: #262626" transform="translate(47.592266 73.784582) scale(0.085 -0.085)">
       <use xlink:href="#STIXTwoText-70"/>
       <use xlink:href="#STIXTwoText-64" transform="translate(53.699997 0)"/>
       <use xlink:href="#STIXTwoText-79" transform="translate(107.599991 0)"/>
       <use xlink:href="#STIXTwoText-6e" transform="translate(155.899979 0)"/>
       <use xlink:href="#STIXTwoText-5f" transform="translate(213.499969 0)"/>
       <use xlink:href="#STIXTwoText-65" transform="translate(264.699966 0)"/>
       <use xlink:href="#STIXTwoText-72" transform="translate(311.09996 0)"/>
       <use xlink:href="#STIXTwoText-72" transform="translate(349.099945 0)"/>
       <use xlink:href="#STIXTwoText-6f" transform="translate(387.09993 0)"/>
       <use xlink:href="#STIXTwoText-72" transform="translate(438.499924 0)"/>
      </g>
     </g>
    </g>
    <g id="ytick_11">
     <g id="line2d_20">
      <path d="M 97.596094 53.96684 
L 514.036094 53.96684 
" clip-path="url(#pb29b40265a)" style="fill: none; stroke: #dddddd; stroke-width: 0.6; stroke-linecap: round"/>
     </g>
     <g id="text_21">
      <!-- hdot_nominal -->
      <g style="fill: #262626" transform="translate(36.899531 56.967075) scale(0.085 -0.085)">
       <use xlink:href="#STIXTwoText-68"/>
       <use xlink:href="#STIXTwoText-64" transform="translate(57.699997 0)"/>
       <use xlink:href="#STIXTwoText-6f" transform="translate(111.599991 0)"/>
       <use xlink:href="#STIXTwoText-74" transform="translate(162.999985 0)"/>
       <use xlink:href="#STIXTwoText-5f" transform="translate(194.499969 0)"/>
       <use xlink:href="#STIXTwoText-6e" transform="translate(245.699966 0)"/>
       <use xlink:href="#STIXTwoText-6f" transform="translate(303.299957 0)"/>
       <use xlink:href="#STIXTwoText-6d" transform="translate(354.699951 0)"/>
       <use xlink:href="#STIXTwoText-69" transform="translate(439.899933 0)"/>
       <use xlink:href="#STIXTwoText-6e" transform="translate(468.399918 0)"/>
       <use xlink:href="#STIXTwoText-61" transform="translate(525.999908 0)"/>
       <use xlink:href="#STIXTwoText-6c" transform="translate(573.999893 0)"/>
      </g>
     </g>
    </g>
    <g id="ytick_12">
     <g id="line2d_21">
      <path d="M 97.596094 37.149333 
L 514.036094 37.149333 
" clip-path="url(#pb29b40265a)" style="fill: none; stroke: #dddddd; stroke-width: 0.6; stroke-linecap: round"/>
     </g>
     <g id="text_22">
      <!-- eccentricity_excess -->
      <g style="fill: #262626" transform="translate(19.586094 40.085817) scale(0.085 -0.085)">
       <defs>
        <path id="STIXTwoText-78" d="M 3085 0 
L 1747 0 
L 1747 186 
Q 1914 186 1981 214 
Q 2048 243 2048 326 
Q 2048 390 2003 461 
L 1600 1082 
L 1440 1363 
L 1338 1453 
L 634 2458 
Q 525 2618 448 2701 
Q 371 2784 288 2813 
Q 205 2842 70 2842 
L 70 3027 
L 1446 3027 
L 1446 2848 
Q 1139 2848 1139 2701 
Q 1139 2650 1177 2579 
Q 1216 2509 1289 2397 
Q 1363 2285 1472 2106 
L 1651 1773 
L 1754 1715 
L 2573 557 
Q 2707 365 2806 275 
Q 2906 186 3085 186 
L 3085 0 
z
M 1056 0 
L -13 0 
L -13 186 
Q 154 186 262 253 
Q 371 320 531 506 
L 1338 1555 
L 1536 1306 
L 1446 1306 
L 922 550 
Q 877 474 822 397 
Q 768 320 768 282 
Q 768 230 832 208 
Q 896 186 1056 186 
L 1056 0 
z
M 2464 2541 
L 1754 1626 
L 1568 1824 
L 1651 1824 
L 1952 2259 
Q 2080 2438 2131 2528 
Q 2182 2618 2182 2694 
Q 2182 2765 2128 2806 
Q 2074 2848 1920 2848 
L 1920 3027 
L 2976 3027 
L 2976 2842 
Q 2816 2842 2694 2762 
Q 2573 2682 2464 2541 
z
" transform="scale(0.015625)"/>
       </defs>
       <use xlink:href="#STIXTwoText-65"/>
       <use xlink:href="#STIXTwoText-63" transform="translate(46.399994 0)"/>
       <use xlink:href="#STIXTwoText-63" transform="translate(90.999985 0)"/>
       <use xlink:href="#STIXTwoText-65" transform="translate(135.599976 0)"/>
       <use xlink:href="#STIXTwoText-6e" transform="translate(181.999969 0)"/>
       <use xlink:href="#STIXTwoText-74" transform="translate(239.59996 0)"/>
       <use xlink:href="#STIXTwoText-72" transform="translate(271.099945 0)"/>
       <use xlink:href="#STIXTwoText-69" transform="translate(309.09993 0)"/>
       <use xlink:href="#STIXTwoText-63" transform="translate(337.599915 0)"/>
       <use xlink:href="#STIXTwoText-69" transform="translate(382.199905 0)"/>
       <use xlink:href="#STIXTwoText-74" transform="translate(410.69989 0)"/>
       <use xlink:href="#STIXTwoText-79" transform="translate(442.199875 0)"/>
       <use xlink:href="#STIXTwoText-5f" transform="translate(490.499863 0)"/>
       <use xlink:href="#STIXTwoText-65" transform="translate(541.69986 0)"/>
       <use xlink:href="#STIXTwoText-78" transform="translate(588.099854 0)"/>
       <use xlink:href="#STIXTwoText-63" transform="translate(635.999847 0)"/>
       <use xlink:href="#STIXTwoText-65" transform="translate(680.599838 0)"/>
       <use xlink:href="#STIXTwoText-73" transform="translate(726.999832 0)"/>
       <use xlink:href="#STIXTwoText-73" transform="translate(766.499817 0)"/>
      </g>
     </g>
    </g>
   </g>
   <g id="patch_3">
    <path d="M 97.596094 228.86892 
L 140.02571 228.86892 
L 140.02571 215.414914 
L 97.596094 215.414914 
z
" clip-path="url(#pb29b40265a)" style="fill: #1f6f3f; opacity: 0.85; stroke: #ffffff; stroke-linejoin: miter"/>
   </g>
   <g id="patch_4">
    <path d="M 97.596094 212.051413 
L 142.812526 212.051413 
L 142.812526 198.597407 
L 97.596094 198.597407 
z
" clip-path="url(#pb29b40265a)" style="fill: #1f6f3f; opacity: 0.85; stroke: #ffffff; stroke-linejoin: miter"/>
   </g>
   <g id="patch_5">
    <path d="M 97.596094 195.233905 
L 144.181738 195.233905 
L 144.181738 181.779899 
L 97.596094 181.779899 
z
" clip-path="url(#pb29b40265a)" style="fill: #1f6f3f; opacity: 0.85; stroke: #ffffff; stroke-linejoin: miter"/>
   </g>
   <g id="patch_6">
    <path d="M 97.596094 178.416397 
L 145.52687 178.416397 
L 145.52687 164.962391 
L 97.596094 164.962391 
z
" clip-path="url(#pb29b40265a)" style="fill: #1f6f3f; opacity: 0.85; stroke: #ffffff; stroke-linejoin: miter"/>
   </g>
   <g id="patch_7">
    <path d="M 97.596094 161.59889 
L 153.592831 161.59889 
L 153.592831 148.144883 
L 97.596094 148.144883 
z
" clip-path="url(#pb29b40265a)" style="fill: #1f6f3f; opacity: 0.85; stroke: #ffffff; stroke-linejoin: miter"/>
   </g>
   <g id="patch_8">
    <path d="M 97.596094 144.781382 
L 182.609246 144.781382 
L 182.609246 131.327376 
L 97.596094 131.327376 
z
" clip-path="url(#pb29b40265a)" style="fill: #1f6f3f; opacity: 0.85; stroke: #ffffff; stroke-linejoin: miter"/>
   </g>
   <g id="patch_9">
    <path d="M 97.596094 127.963874 
L 216.735672 127.963874 
L 216.735672 114.509868 
L 97.596094 114.509868 
z
" clip-path="url(#pb29b40265a)" style="fill: #1f6f3f; opacity: 0.85; stroke: #ffffff; stroke-linejoin: miter"/>
   </g>
   <g id="patch_10">
    <path d="M 97.596094 111.146367 
L 240.01458 111.146367 
L 240.01458 97.69236 
L 97.596094 97.69236 
z
" clip-path="url(#pb29b40265a)" style="fill: #1f6f3f; opacity: 0.85; stroke: #ffffff; stroke-linejoin: miter"/>
   </g>
   <g id="patch_11">
    <path d="M 97.596094 94.328859 
L 320.258429 94.328859 
L 320.258429 80.874853 
L 97.596094 80.874853 
z
" clip-path="url(#pb29b40265a)" style="fill: #1f6f3f; opacity: 0.85; stroke: #ffffff; stroke-linejoin: miter"/>
   </g>
   <g id="patch_12">
    <path d="M 97.596094 77.511351 
L 386.789233 77.511351 
L 386.789233 64.057345 
L 97.596094 64.057345 
z
" clip-path="url(#pb29b40265a)" style="fill: #1f6f3f; opacity: 0.85; stroke: #ffffff; stroke-linejoin: miter"/>
   </g>
   <g id="patch_13">
    <path d="M 97.596094 60.693843 
L 447.243823 60.693843 
L 447.243823 47.239837 
L 97.596094 47.239837 
z
" clip-path="url(#pb29b40265a)" style="fill: #1f6f3f; opacity: 0.85; stroke: #ffffff; stroke-linejoin: miter"/>
   </g>
   <g id="patch_14">
    <path d="M 97.596094 43.876336 
L 469.417522 43.876336 
L 469.417522 30.42233 
L 97.596094 30.42233 
z
" clip-path="url(#pb29b40265a)" style="fill: #1f6f3f; opacity: 0.85; stroke: #ffffff; stroke-linejoin: miter"/>
   </g>
   <g id="patch_15">
    <path d="M 97.596094 238.79125 
L 97.596094 20.5 
" style="fill: none; stroke: #bbbbbb; stroke-width: 0.8; stroke-linejoin: miter; stroke-linecap: square"/>
   </g>
   <g id="patch_16">
    <path d="M 514.036094 238.79125 
L 514.036094 20.5 
" style="fill: none; stroke: #bbbbbb; stroke-width: 0.8; stroke-linejoin: miter; stroke-linecap: square"/>
   </g>
   <g id="patch_17">
    <path d="M 97.596094 238.79125 
L 514.036094 238.79125 
" style="fill: none; stroke: #bbbbbb; stroke-width: 0.8; stroke-linejoin: miter; stroke-linecap: square"/>
   </g>
   <g id="patch_18">
    <path d="M 97.596094 20.5 
L 514.036094 20.5 
" style="fill: none; stroke: #bbbbbb; stroke-width: 0.8; stroke-linejoin: miter; stroke-linecap: square"/>
   </g>
   <g id="text_23">
    <!-- 0.43 -->
    <g style="fill: #262626" transform="translate(143.02571 223.964183) scale(0.075 -0.075)">
     <use xlink:href="#STIXTwoText-30"/>
     <use xlink:href="#STIXTwoText-2e" transform="translate(49.499985 0)"/>
     <use xlink:href="#STIXTwoText-34" transform="translate(73.999969 0)"/>
     <use xlink:href="#STIXTwoText-33" transform="translate(123.499954 0)"/>
    </g>
   </g>
   <g id="text_24">
    <!-- 0.46 -->
    <g style="fill: #262626" transform="translate(145.812526 207.146675) scale(0.075 -0.075)">
     <defs>
      <path id="STIXTwoText-36" d="M 1658 -77 
Q 1184 -77 880 156 
Q 576 390 432 784 
Q 288 1178 288 1645 
Q 288 2221 464 2675 
Q 640 3130 957 3446 
Q 1274 3763 1706 3939 
Q 2138 4115 2656 4134 
L 2669 3949 
Q 2221 3885 1849 3661 
Q 1478 3437 1228 3078 
Q 979 2720 896 2253 
L 941 2246 
Q 1139 2438 1331 2540 
Q 1523 2643 1773 2643 
Q 2298 2643 2611 2284 
Q 2925 1926 2925 1299 
Q 2925 646 2595 284 
Q 2266 -77 1658 -77 
z
M 1683 147 
Q 2003 147 2185 393 
Q 2368 640 2368 1248 
Q 2368 1683 2173 1977 
Q 1978 2272 1581 2272 
Q 1395 2272 1232 2198 
Q 1069 2125 966 1958 
Q 864 1792 864 1510 
Q 864 1114 953 806 
Q 1043 499 1225 323 
Q 1408 147 1683 147 
z
" transform="scale(0.015625)"/>
     </defs>
     <use xlink:href="#STIXTwoText-30"/>
     <use xlink:href="#STIXTwoText-2e" transform="translate(49.499985 0)"/>
     <use xlink:href="#STIXTwoText-34" transform="translate(73.999969 0)"/>
     <use xlink:href="#STIXTwoText-36" transform="translate(123.499954 0)"/>
    </g>
   </g>
   <g id="text_25">
    <!-- 0.48 -->
    <g style="fill: #262626" transform="translate(147.181738 190.329168) scale(0.075 -0.075)">
     <defs>
      <path id="STIXTwoText-38" d="M 1574 -77 
Q 1203 -77 915 32 
Q 627 141 460 361 
Q 294 582 294 909 
Q 294 1165 390 1341 
Q 486 1517 681 1670 
Q 877 1824 1171 2022 
L 1171 2099 
L 1421 1965 
Q 1222 1805 1081 1664 
Q 941 1523 867 1356 
Q 794 1190 794 960 
Q 794 531 1014 326 
Q 1235 122 1600 122 
Q 1798 122 1964 195 
Q 2131 269 2230 413 
Q 2330 557 2330 774 
Q 2330 986 2243 1158 
Q 2157 1331 1929 1520 
Q 1702 1709 1280 1978 
L 1248 1990 
Q 890 2234 701 2419 
Q 512 2605 445 2787 
Q 378 2970 378 3194 
Q 378 3488 534 3699 
Q 691 3910 966 4025 
Q 1242 4141 1594 4141 
Q 1914 4141 2166 4025 
Q 2419 3910 2566 3712 
Q 2714 3514 2714 3258 
Q 2714 3027 2630 2860 
Q 2547 2694 2368 2556 
Q 2189 2419 1888 2253 
L 1888 2176 
L 1619 2317 
Q 1978 2522 2109 2736 
Q 2240 2950 2240 3270 
Q 2240 3590 2064 3760 
Q 1888 3930 1581 3930 
Q 1254 3930 1065 3766 
Q 877 3603 877 3309 
Q 877 3014 1088 2803 
Q 1299 2592 1766 2310 
L 1811 2278 
Q 2214 2042 2444 1840 
Q 2675 1638 2771 1433 
Q 2867 1229 2867 960 
Q 2867 627 2704 393 
Q 2541 160 2249 41 
Q 1958 -77 1574 -77 
z
" transform="scale(0.015625)"/>
     </defs>
     <use xlink:href="#STIXTwoText-30"/>
     <use xlink:href="#STIXTwoText-2e" transform="translate(49.499985 0)"/>
     <use xlink:href="#STIXTwoText-34" transform="translate(73.999969 0)"/>
     <use xlink:href="#STIXTwoText-38" transform="translate(123.499954 0)"/>
    </g>
   </g>
   <g id="text_26">
    <!-- 0.49 -->
    <g style="fill: #262626" transform="translate(148.52687 173.51166) scale(0.075 -0.075)">
     <defs>
      <path id="STIXTwoText-39" d="M 544 -83 
L 531 102 
Q 973 154 1344 362 
Q 1715 570 1961 931 
Q 2208 1293 2278 1811 
L 2240 1818 
Q 2022 1619 1833 1520 
Q 1645 1421 1402 1421 
Q 877 1421 563 1776 
Q 250 2131 250 2765 
Q 250 3411 592 3772 
Q 934 4134 1536 4134 
Q 2016 4134 2310 3897 
Q 2605 3661 2742 3264 
Q 2880 2867 2880 2394 
Q 2880 1773 2713 1312 
Q 2547 851 2240 540 
Q 1933 230 1504 76 
Q 1075 -77 544 -83 
z
M 1594 1798 
Q 1875 1798 2089 1968 
Q 2304 2138 2304 2547 
Q 2304 2950 2224 3257 
Q 2144 3565 1968 3741 
Q 1792 3917 1510 3917 
Q 1197 3917 1001 3667 
Q 806 3418 806 2803 
Q 806 2355 1001 2076 
Q 1197 1798 1594 1798 
z
" transform="scale(0.015625)"/>
     </defs>
     <use xlink:href="#STIXTwoText-30"/>
     <use xlink:href="#STIXTwoText-2e" transform="translate(49.499985 0)"/>
     <use xlink:href="#STIXTwoText-34" transform="translate(73.999969 0)"/>
     <use xlink:href="#STIXTwoText-39" transform="translate(123.499954 0)"/>
    </g>
   </g>
   <g id="text_27">
    <!-- 0.57 -->
    <g style="fill: #262626" transform="translate(156.592831 156.694152) scale(0.075 -0.075)">
     <defs>
      <path id="STIXTwoText-37" d="M 1472 -51 
L 966 -51 
L 2477 3514 
L 1050 3514 
Q 870 3514 774 3482 
Q 678 3450 617 3347 
Q 557 3245 467 3034 
L 269 3053 
L 525 4032 
L 2970 4032 
L 2970 3834 
L 1472 -51 
z
" transform="scale(0.015625)"/>
     </defs>
     <use xlink:href="#STIXTwoText-30"/>
     <use xlink:href="#STIXTwoText-2e" transform="translate(49.499985 0)"/>
     <use xlink:href="#STIXTwoText-35" transform="translate(73.999969 0)"/>
     <use xlink:href="#STIXTwoText-37" transform="translate(123.499954 0)"/>
    </g>
   </g>
   <g id="text_28">
    <!-- 0.87 -->
    <g style="fill: #262626" transform="translate(185.609246 139.876644) scale(0.075 -0.075)">
     <use xlink:href="#STIXTwoText-30"/>
     <use xlink:href="#STIXTwoText-2e" transform="translate(49.499985 0)"/>
     <use xlink:href="#STIXTwoText-38" transform="translate(73.999969 0)"/>
     <use xlink:href="#STIXTwoText-37" transform="translate(123.499954 0)"/>
    </g>
   </g>
   <g id="text_29">
    <!-- 1.22 -->
    <g style="fill: #262626" transform="translate(219.735672 123.059137) scale(0.075 -0.075)">
     <use xlink:href="#STIXTwoText-31"/>
     <use xlink:href="#STIXTwoText-2e" transform="translate(49.499985 0)"/>
     <use xlink:href="#STIXTwoText-32" transform="translate(73.999969 0)"/>
     <use xlink:href="#STIXTwoText-32" transform="translate(123.499954 0)"/>
    </g>
   </g>
   <g id="text_30">
    <!-- 1.46 -->
    <g style="fill: #262626" transform="translate(243.01458 106.241629) scale(0.075 -0.075)">
     <use xlink:href="#STIXTwoText-31"/>
     <use xlink:href="#STIXTwoText-2e" transform="translate(49.499985 0)"/>
     <use xlink:href="#STIXTwoText-34" transform="translate(73.999969 0)"/>
     <use xlink:href="#STIXTwoText-36" transform="translate(123.499954 0)"/>
    </g>
   </g>
   <g id="text_31">
    <!-- 2.28 -->
    <g style="fill: #262626" transform="translate(323.258429 89.424121) scale(0.075 -0.075)">
     <use xlink:href="#STIXTwoText-32"/>
     <use xlink:href="#STIXTwoText-2e" transform="translate(49.499985 0)"/>
     <use xlink:href="#STIXTwoText-32" transform="translate(73.999969 0)"/>
     <use xlink:href="#STIXTwoText-38" transform="translate(123.499954 0)"/>
    </g>
   </g>
   <g id="text_32">
    <!-- 2.96 -->
    <g style="fill: #262626" transform="translate(389.789233 72.606614) scale(0.075 -0.075)">
     <use xlink:href="#STIXTwoText-32"/>
     <use xlink:href="#STIXTwoText-2e" transform="translate(49.499985 0)"/>
     <use xlink:href="#STIXTwoText-39" transform="translate(73.999969 0)"/>
     <use xlink:href="#STIXTwoText-36" transform="translate(123.499954 0)"/>
    </g>
   </g>
   <g id="text_33">
    <!-- 3.58 -->
    <g style="fill: #262626" transform="translate(450.243823 55.789106) scale(0.075 -0.075)">
     <use xlink:href="#STIXTwoText-33"/>
     <use xlink:href="#STIXTwoText-2e" transform="translate(49.499985 0)"/>
     <use xlink:href="#STIXTwoText-35" transform="translate(73.999969 0)"/>
     <use xlink:href="#STIXTwoText-38" transform="translate(123.499954 0)"/>
    </g>
   </g>
   <g id="text_34">
    <!-- 3.81 -->
    <g style="fill: #262626" transform="translate(472.417522 38.971598) scale(0.075 -0.075)">
     <use xlink:href="#STIXTwoText-33"/>
     <use xlink:href="#STIXTwoText-2e" transform="translate(49.499985 0)"/>
     <use xlink:href="#STIXTwoText-38" transform="translate(73.999969 0)"/>
     <use xlink:href="#STIXTwoText-31" transform="translate(123.499954 0)"/>
    </g>
   </g>
   <g id="text_35">
    <!-- Mamba-962 input importance (top 12) -->
    <g style="fill: #262626" transform="translate(97.596094 14.5) scale(0.1 -0.1)">
     <defs>
      <path id="STIXTwoText-4d" d="M 1683 0 
L 179 0 
L 179 192 
Q 442 192 570 240 
Q 698 288 742 448 
Q 787 608 787 934 
L 787 3424 
Q 787 3667 742 3792 
Q 698 3917 573 3965 
Q 448 4013 192 4013 
L 192 4205 
L 1498 4205 
L 2848 986 
L 2874 986 
L 4218 4205 
L 5434 4205 
L 5434 4013 
Q 5210 4013 5088 3965 
Q 4966 3917 4921 3792 
Q 4877 3667 4877 3430 
L 4877 762 
Q 4877 531 4921 406 
Q 4966 282 5088 237 
Q 5210 192 5440 192 
L 5440 0 
L 3738 0 
L 3738 192 
Q 3987 192 4108 237 
Q 4230 282 4268 406 
Q 4307 531 4307 762 
L 4307 3520 
L 4282 3520 
L 2790 0 
L 2637 0 
L 1126 3514 
L 1101 3514 
L 1101 934 
Q 1101 608 1145 448 
Q 1190 288 1315 240 
Q 1440 192 1683 192 
L 1683 0 
z
" transform="scale(0.015625)"/>
     </defs>
     <use xlink:href="#STIXTwoText-4d"/>
     <use xlink:href="#STIXTwoText-61" transform="translate(89.499985 0)"/>
     <use xlink:href="#STIXTwoText-6d" transform="translate(137.499969 0)"/>
     <use xlink:href="#STIXTwoText-62" transform="translate(222.699951 0)"/>
     <use xlink:href="#STIXTwoText-61" transform="translate(274.899948 0)"/>
     <use xlink:href="#STIXTwoText-2d" transform="translate(322.899933 0)"/>
     <use xlink:href="#STIXTwoText-39" transform="translate(354.399918 0)"/>
     <use xlink:href="#STIXTwoText-36" transform="translate(403.899902 0)"/>
     <use xlink:href="#STIXTwoText-32" transform="translate(453.399887 0)"/>
     <use xlink:href="#STIXTwoText-20" transform="translate(502.899872 0)"/>
     <use xlink:href="#STIXTwoText-69" transform="translate(526.399857 0)"/>
     <use xlink:href="#STIXTwoText-6e" transform="translate(554.899841 0)"/>
     <use xlink:href="#STIXTwoText-70" transform="translate(612.499832 0)"/>
     <use xlink:href="#STIXTwoText-75" transform="translate(666.199829 0)"/>
     <use xlink:href="#STIXTwoText-74" transform="translate(723.199814 0)"/>
     <use xlink:href="#STIXTwoText-20" transform="translate(754.699799 0)"/>
     <use xlink:href="#STIXTwoText-69" transform="translate(778.199783 0)"/>
     <use xlink:href="#STIXTwoText-6d" transform="translate(806.699768 0)"/>
     <use xlink:href="#STIXTwoText-70" transform="translate(891.89975 0)"/>
     <use xlink:href="#STIXTwoText-6f" transform="translate(945.599747 0)"/>
     <use xlink:href="#STIXTwoText-72" transform="translate(996.999741 0)"/>
     <use xlink:href="#STIXTwoText-74" transform="translate(1034.999725 0)"/>
     <use xlink:href="#STIXTwoText-61" transform="translate(1066.49971 0)"/>
     <use xlink:href="#STIXTwoText-6e" transform="translate(1114.499695 0)"/>
     <use xlink:href="#STIXTwoText-63" transform="translate(1172.099686 0)"/>
     <use xlink:href="#STIXTwoText-65" transform="translate(1216.699677 0)"/>
     <use xlink:href="#STIXTwoText-20" transform="translate(1263.09967 0)"/>
     <use xlink:href="#STIXTwoText-28" transform="translate(1286.599655 0)"/>
     <use xlink:href="#STIXTwoText-74" transform="translate(1320.899643 0)"/>
     <use xlink:href="#STIXTwoText-6f" transform="translate(1352.399628 0)"/>
     <use xlink:href="#STIXTwoText-70" transform="translate(1403.799622 0)"/>
     <use xlink:href="#STIXTwoText-20" transform="translate(1457.499619 0)"/>
     <use xlink:href="#STIXTwoText-31" transform="translate(1480.999603 0)"/>
     <use xlink:href="#STIXTwoText-32" transform="translate(1530.499588 0)"/>
     <use xlink:href="#STIXTwoText-29" transform="translate(1579.999573 0)"/>
    </g>
   </g>
  </g>
 </g>
 <defs>
  <clipPath id="pb29b40265a">
   <rect x="97.596094" y="20.5" width="416.44" height="218.29125"/>
  </clipPath>
 </defs>
</svg>
