<?xml version="1.0" encoding="utf-8" standalone="no"?>
<!DOCTYPE svg PUBLIC "-//W3C//DTD SVG 1.1//EN"
  "http://www.w3.org/Graphics/SVG/1.1/DTD/svg11.dtd">
<svg xmlns:xlink="http://www.w3.org/1999/xlink" width="545.649864pt" height="248.321908pt" viewBox="0 0 545.649864 248.321908" xmlns="http://www.w3.org/2000/svg" version="1.1">
 <metadata>
  <rdf:RDF xmlns:dc="http://purl.org/dc/elements/1.1/" xmlns:cc="http://creativecommons.org/ns#" xmlns:rdf="http://www.w3.org/1999/02/22-rdf-syntax-ns#">
   <cc:Work>
    <dc:type rdf:resource="http://purl.org/dc/dcmitype/StillImage"/>
    <dc:date>2026-06-27T12:41:28.118791</dc:date>
    <dc:format>image/svg+xml</dc:format>
    <dc:creator>
     <cc:Agent>
      <dc:title>Matplotlib v3.10.9, https://matplotlib.org/</dc:title>
     </cc:Agent>
    </dc:creator>
   </cc:Work>
  </rdf:RDF>
 </metadata>
 <defs>
  <style type="text/css">*{stroke-linejoin: round; stroke-linecap: butt}</style>
 </defs>
 <g id="figure_1">
  <g id="patch_1">
   <path d="M 0 248.321908 
L 545.649864 248.321908 
L 545.649864 0 
L 0 0 
z
" style="fill: #ffffff"/>
  </g>
  <g id="axes_1">
   <g id="patch_2">
    <path d="M 48.963539 185.089088 
L 531.916188 185.089088 
L 531.916188 20.479688 
L 48.963539 20.479688 
z
" style="fill: #f5f5f5"/>
   </g>
   <g id="matplotlib.axis_1">
    <g id="xtick_1">
     <g id="line2d_1">
      <path d="M 105.965972 185.089088 
L 105.965972 20.479688 
" clip-path="url(#p93e4f3b56c)" style="fill: none; stroke: #cccccc; stroke-linecap: round"/>
     </g>
     <g id="text_1">
      <!-- linear -->
      <g style="fill: #262626" transform="translate(93.187581 202.069002) scale(0.1045 -0.1045)">
       <defs>
        <path id="ArialMT-6c" d="M 409 0 
L 409 4581 
L 972 4581 
L 972 0 
L 409 0 
z
" transform="scale(0.015625)"/>
        <path id="ArialMT-69" d="M 425 3934 
L 425 4581 
L 988 4581 
L 988 3934 
L 425 3934 
z
M 425 0 
L 425 3319 
L 988 3319 
L 988 0 
L 425 0 
z
" transform="scale(0.015625)"/>
        <path id="ArialMT-6e" d="M 422 0 
L 422 3319 
L 928 3319 
L 928 2847 
Q 1294 3394 1984 3394 
Q 2284 3394 2536 3286 
Q 2788 3178 2913 3003 
Q 3038 2828 3088 2588 
Q 3119 2431 3119 2041 
L 3119 0 
L 2556 0 
L 2556 2019 
Q 2556 2363 2490 2533 
Q 2425 2703 2258 2804 
Q 2091 2906 1866 2906 
Q 1506 2906 1245 2678 
Q 984 2450 984 1813 
L 984 0 
L 422 0 
z
" transform="scale(0.015625)"/>
        <path id="ArialMT-65" d="M 2694 1069 
L 3275 997 
Q 3138 488 2766 206 
Q 2394 -75 1816 -75 
Q 1088 -75 661 373 
Q 234 822 234 1631 
Q 234 2469 665 2931 
Q 1097 3394 1784 3394 
Q 2450 3394 2872 2941 
Q 3294 2488 3294 1666 
Q 3294 1616 3291 1516 
L 816 1516 
Q 847 969 1125 678 
Q 1403 388 1819 388 
Q 2128 388 2347 550 
Q 2566 713 2694 1069 
z
M 847 1978 
L 2700 1978 
Q 2663 2397 2488 2606 
Q 2219 2931 1791 2931 
Q 1403 2931 1139 2672 
Q 875 2413 847 1978 
z
" transform="scale(0.015625)"/>
        <path id="ArialMT-61" d="M 2588 409 
Q 2275 144 1986 34 
Q 1697 -75 1366 -75 
Q 819 -75 525 192 
Q 231 459 231 875 
Q 231 1119 342 1320 
Q 453 1522 633 1644 
Q 813 1766 1038 1828 
Q 1203 1872 1538 1913 
Q 2219 1994 2541 2106 
Q 2544 2222 2544 2253 
Q 2544 2597 2384 2738 
Q 2169 2928 1744 2928 
Q 1347 2928 1158 2789 
Q 969 2650 878 2297 
L 328 2372 
Q 403 2725 575 2942 
Q 747 3159 1072 3276 
Q 1397 3394 1825 3394 
Q 2250 3394 2515 3294 
Q 2781 3194 2906 3042 
Q 3031 2891 3081 2659 
Q 3109 2516 3109 2141 
L 3109 1391 
Q 3109 606 3145 398 
Q 3181 191 3288 0 
L 2700 0 
Q 2613 175 2588 409 
z
M 2541 1666 
Q 2234 1541 1622 1453 
Q 1275 1403 1131 1340 
Q 988 1278 909 1158 
Q 831 1038 831 891 
Q 831 666 1001 516 
Q 1172 366 1500 366 
Q 1825 366 2078 508 
Q 2331 650 2450 897 
Q 2541 1088 2541 1459 
L 2541 1666 
z
" transform="scale(0.015625)"/>
        <path id="ArialMT-72" d="M 416 0 
L 416 3319 
L 922 3319 
L 922 2816 
Q 1116 3169 1280 3281 
Q 1444 3394 1641 3394 
Q 1925 3394 2219 3213 
L 2025 2691 
Q 1819 2813 1613 2813 
Q 1428 2813 1281 2702 
Q 1134 2591 1072 2394 
Q 978 2094 978 1738 
L 978 0 
L 416 0 
z
" transform="scale(0.015625)"/>
       </defs>
       <use xlink:href="#ArialMT-6c"/>
       <use xlink:href="#ArialMT-69" transform="translate(22.216797 0)"/>
       <use xlink:href="#ArialMT-6e" transform="translate(44.433594 0)"/>
       <use xlink:href="#ArialMT-65" transform="translate(100.048828 0)"/>
       <use xlink:href="#ArialMT-61" transform="translate(155.664062 0)"/>
       <use xlink:href="#ArialMT-72" transform="translate(211.279297 0)"/>
      </g>
     </g>
    </g>
    <g id="xtick_2">
     <g id="line2d_2">
      <path d="M 198.202918 185.089088 
L 198.202918 20.479688 
" clip-path="url(#p93e4f3b56c)" style="fill: none; stroke: #cccccc; stroke-linecap: round"/>
     </g>
     <g id="text_2">
      <!-- sqrt -->
      <g style="fill: #262626" transform="translate(189.493496 202.069002) scale(0.1045 -0.1045)">
       <defs>
        <path id="ArialMT-73" d="M 197 991 
L 753 1078 
Q 800 744 1014 566 
Q 1228 388 1613 388 
Q 2000 388 2187 545 
Q 2375 703 2375 916 
Q 2375 1106 2209 1216 
Q 2094 1291 1634 1406 
Q 1016 1563 777 1677 
Q 538 1791 414 1992 
Q 291 2194 291 2438 
Q 291 2659 392 2848 
Q 494 3038 669 3163 
Q 800 3259 1026 3326 
Q 1253 3394 1513 3394 
Q 1903 3394 2198 3281 
Q 2494 3169 2634 2976 
Q 2775 2784 2828 2463 
L 2278 2388 
Q 2241 2644 2061 2787 
Q 1881 2931 1553 2931 
Q 1166 2931 1000 2803 
Q 834 2675 834 2503 
Q 834 2394 903 2306 
Q 972 2216 1119 2156 
Q 1203 2125 1616 2013 
Q 2213 1853 2448 1751 
Q 2684 1650 2818 1456 
Q 2953 1263 2953 975 
Q 2953 694 2789 445 
Q 2625 197 2315 61 
Q 2006 -75 1616 -75 
Q 969 -75 630 194 
Q 291 463 197 991 
z
" transform="scale(0.015625)"/>
        <path id="ArialMT-71" d="M 2538 -1272 
L 2538 353 
Q 2406 169 2170 47 
Q 1934 -75 1669 -75 
Q 1078 -75 651 397 
Q 225 869 225 1691 
Q 225 2191 398 2587 
Q 572 2984 901 3189 
Q 1231 3394 1625 3394 
Q 2241 3394 2594 2875 
L 2594 3319 
L 3100 3319 
L 3100 -1272 
L 2538 -1272 
z
M 803 1669 
Q 803 1028 1072 708 
Q 1341 388 1716 388 
Q 2075 388 2334 692 
Q 2594 997 2594 1619 
Q 2594 2281 2320 2615 
Q 2047 2950 1678 2950 
Q 1313 2950 1058 2639 
Q 803 2328 803 1669 
z
" transform="scale(0.015625)"/>
        <path id="ArialMT-74" d="M 1650 503 
L 1731 6 
Q 1494 -44 1306 -44 
Q 1000 -44 831 53 
Q 663 150 594 308 
Q 525 466 525 972 
L 525 2881 
L 113 2881 
L 113 3319 
L 525 3319 
L 525 4141 
L 1084 4478 
L 1084 3319 
L 1650 3319 
L 1650 2881 
L 1084 2881 
L 1084 941 
Q 1084 700 1114 631 
Q 1144 563 1211 522 
Q 1278 481 1403 481 
Q 1497 481 1650 503 
z
" transform="scale(0.015625)"/>
       </defs>
       <use xlink:href="#ArialMT-73"/>
       <use xlink:href="#ArialMT-71" transform="translate(50 0)"/>
       <use xlink:href="#ArialMT-72" transform="translate(105.615234 0)"/>
       <use xlink:href="#ArialMT-74" transform="translate(138.916016 0)"/>
      </g>
     </g>
    </g>
    <g id="xtick_3">
     <g id="line2d_3">
      <path d="M 290.439864 185.089088 
L 290.439864 20.479688 
" clip-path="url(#p93e4f3b56c)" style="fill: none; stroke: #cccccc; stroke-linecap: round"/>
     </g>
     <g id="text_3">
      <!-- log -->
      <g style="fill: #262626" transform="translate(283.467754 202.069002) scale(0.1045 -0.1045)">
       <defs>
        <path id="ArialMT-6f" d="M 213 1659 
Q 213 2581 725 3025 
Q 1153 3394 1769 3394 
Q 2453 3394 2887 2945 
Q 3322 2497 3322 1706 
Q 3322 1066 3130 698 
Q 2938 331 2570 128 
Q 2203 -75 1769 -75 
Q 1072 -75 642 372 
Q 213 819 213 1659 
z
M 791 1659 
Q 791 1022 1069 705 
Q 1347 388 1769 388 
Q 2188 388 2466 706 
Q 2744 1025 2744 1678 
Q 2744 2294 2464 2611 
Q 2184 2928 1769 2928 
Q 1347 2928 1069 2612 
Q 791 2297 791 1659 
z
" transform="scale(0.015625)"/>
        <path id="ArialMT-67" d="M 319 -275 
L 866 -356 
Q 900 -609 1056 -725 
Q 1266 -881 1628 -881 
Q 2019 -881 2231 -725 
Q 2444 -569 2519 -288 
Q 2563 -116 2559 434 
Q 2191 0 1641 0 
Q 956 0 581 494 
Q 206 988 206 1678 
Q 206 2153 378 2554 
Q 550 2956 876 3175 
Q 1203 3394 1644 3394 
Q 2231 3394 2613 2919 
L 2613 3319 
L 3131 3319 
L 3131 450 
Q 3131 -325 2973 -648 
Q 2816 -972 2473 -1159 
Q 2131 -1347 1631 -1347 
Q 1038 -1347 672 -1080 
Q 306 -813 319 -275 
z
M 784 1719 
Q 784 1066 1043 766 
Q 1303 466 1694 466 
Q 2081 466 2343 764 
Q 2606 1063 2606 1700 
Q 2606 2309 2336 2618 
Q 2066 2928 1684 2928 
Q 1309 2928 1046 2623 
Q 784 2319 784 1719 
z
" transform="scale(0.015625)"/>
       </defs>
       <use xlink:href="#ArialMT-6c"/>
       <use xlink:href="#ArialMT-6f" transform="translate(22.216797 0)"/>
       <use xlink:href="#ArialMT-67" transform="translate(77.832031 0)"/>
      </g>
     </g>
    </g>
    <g id="xtick_4">
     <g id="line2d_4">
      <path d="M 382.67681 185.089088 
L 382.67681 20.479688 
" clip-path="url(#p93e4f3b56c)" style="fill: none; stroke: #cccccc; stroke-linecap: round"/>
     </g>
     <g id="text_4">
      <!-- squared -->
      <g style="fill: #262626" transform="translate(363.796599 202.069002) scale(0.1045 -0.1045)">
       <defs>
        <path id="ArialMT-75" d="M 2597 0 
L 2597 488 
Q 2209 -75 1544 -75 
Q 1250 -75 995 37 
Q 741 150 617 320 
Q 494 491 444 738 
Q 409 903 409 1263 
L 409 3319 
L 972 3319 
L 972 1478 
Q 972 1038 1006 884 
Q 1059 663 1231 536 
Q 1403 409 1656 409 
Q 1909 409 2131 539 
Q 2353 669 2445 892 
Q 2538 1116 2538 1541 
L 2538 3319 
L 3100 3319 
L 3100 0 
L 2597 0 
z
" transform="scale(0.015625)"/>
        <path id="ArialMT-64" d="M 2575 0 
L 2575 419 
Q 2259 -75 1647 -75 
Q 1250 -75 917 144 
Q 584 363 401 755 
Q 219 1147 219 1656 
Q 219 2153 384 2558 
Q 550 2963 881 3178 
Q 1213 3394 1622 3394 
Q 1922 3394 2156 3267 
Q 2391 3141 2538 2938 
L 2538 4581 
L 3097 4581 
L 3097 0 
L 2575 0 
z
M 797 1656 
Q 797 1019 1065 703 
Q 1334 388 1700 388 
Q 2069 388 2326 689 
Q 2584 991 2584 1609 
Q 2584 2291 2321 2609 
Q 2059 2928 1675 2928 
Q 1300 2928 1048 2622 
Q 797 2316 797 1656 
z
" transform="scale(0.015625)"/>
       </defs>
       <use xlink:href="#ArialMT-73"/>
       <use xlink:href="#ArialMT-71" transform="translate(50 0)"/>
       <use xlink:href="#ArialMT-75" transform="translate(105.615234 0)"/>
       <use xlink:href="#ArialMT-61" transform="translate(161.230469 0)"/>
       <use xlink:href="#ArialMT-72" transform="translate(216.845703 0)"/>
       <use xlink:href="#ArialMT-65" transform="translate(250.146484 0)"/>
       <use xlink:href="#ArialMT-64" transform="translate(305.761719 0)"/>
      </g>
     </g>
    </g>
    <g id="xtick_5">
     <g id="line2d_5">
      <path d="M 474.913756 185.089088 
L 474.913756 20.479688 
" clip-path="url(#p93e4f3b56c)" style="fill: none; stroke: #cccccc; stroke-linecap: round"/>
     </g>
     <g id="text_5">
      <!-- cubed -->
      <g style="fill: #262626" transform="translate(460.678896 202.069002) scale(0.1045 -0.1045)">
       <defs>
        <path id="ArialMT-63" d="M 2588 1216 
L 3141 1144 
Q 3050 572 2676 248 
Q 2303 -75 1759 -75 
Q 1078 -75 664 370 
Q 250 816 250 1647 
Q 250 2184 428 2587 
Q 606 2991 970 3192 
Q 1334 3394 1763 3394 
Q 2303 3394 2647 3120 
Q 2991 2847 3088 2344 
L 2541 2259 
Q 2463 2594 2264 2762 
Q 2066 2931 1784 2931 
Q 1359 2931 1093 2626 
Q 828 2322 828 1663 
Q 828 994 1084 691 
Q 1341 388 1753 388 
Q 2084 388 2306 591 
Q 2528 794 2588 1216 
z
" transform="scale(0.015625)"/>
        <path id="ArialMT-62" d="M 941 0 
L 419 0 
L 419 4581 
L 981 4581 
L 981 2947 
Q 1338 3394 1891 3394 
Q 2197 3394 2470 3270 
Q 2744 3147 2920 2923 
Q 3097 2700 3197 2384 
Q 3297 2069 3297 1709 
Q 3297 856 2875 390 
Q 2453 -75 1863 -75 
Q 1275 -75 941 416 
L 941 0 
z
M 934 1684 
Q 934 1088 1097 822 
Q 1363 388 1816 388 
Q 2184 388 2453 708 
Q 2722 1028 2722 1663 
Q 2722 2313 2464 2622 
Q 2206 2931 1841 2931 
Q 1472 2931 1203 2611 
Q 934 2291 934 1684 
z
" transform="scale(0.015625)"/>
       </defs>
       <use xlink:href="#ArialMT-63"/>
       <use xlink:href="#ArialMT-75" transform="translate(50 0)"/>
       <use xlink:href="#ArialMT-62" transform="translate(105.615234 0)"/>
       <use xlink:href="#ArialMT-65" transform="translate(161.230469 0)"/>
       <use xlink:href="#ArialMT-64" transform="translate(216.845703 0)"/>
      </g>
     </g>
    </g>
    <g id="text_6">
     <!-- cost transform (increasing tail-weight →) -->
     <g style="fill: #262626" transform="translate(188.44727 216.567244) scale(0.114 -0.114)">
      <defs>
       <path id="ArialMT-20" transform="scale(0.015625)"/>
       <path id="ArialMT-66" d="M 556 0 
L 556 2881 
L 59 2881 
L 59 3319 
L 556 3319 
L 556 3672 
Q 556 4006 616 4169 
Q 697 4388 901 4523 
Q 1106 4659 1475 4659 
Q 1713 4659 2000 4603 
L 1916 4113 
Q 1741 4144 1584 4144 
Q 1328 4144 1222 4034 
Q 1116 3925 1116 3625 
L 1116 3319 
L 1763 3319 
L 1763 2881 
L 1116 2881 
L 1116 0 
L 556 0 
z
" transform="scale(0.015625)"/>
       <path id="ArialMT-6d" d="M 422 0 
L 422 3319 
L 925 3319 
L 925 2853 
Q 1081 3097 1340 3245 
Q 1600 3394 1931 3394 
Q 2300 3394 2536 3241 
Q 2772 3088 2869 2813 
Q 3263 3394 3894 3394 
Q 4388 3394 4653 3120 
Q 4919 2847 4919 2278 
L 4919 0 
L 4359 0 
L 4359 2091 
Q 4359 2428 4304 2576 
Q 4250 2725 4106 2815 
Q 3963 2906 3769 2906 
Q 3419 2906 3187 2673 
Q 2956 2441 2956 1928 
L 2956 0 
L 2394 0 
L 2394 2156 
Q 2394 2531 2256 2718 
Q 2119 2906 1806 2906 
Q 1569 2906 1367 2781 
Q 1166 2656 1075 2415 
Q 984 2175 984 1722 
L 984 0 
L 422 0 
z
" transform="scale(0.015625)"/>
       <path id="ArialMT-28" d="M 1497 -1347 
Q 1031 -759 709 28 
Q 388 816 388 1659 
Q 388 2403 628 3084 
Q 909 3875 1497 4659 
L 1900 4659 
Q 1522 4009 1400 3731 
Q 1209 3300 1100 2831 
Q 966 2247 966 1656 
Q 966 153 1900 -1347 
L 1497 -1347 
z
" transform="scale(0.015625)"/>
       <path id="ArialMT-2d" d="M 203 1375 
L 203 1941 
L 1931 1941 
L 1931 1375 
L 203 1375 
z
" transform="scale(0.015625)"/>
       <path id="ArialMT-77" d="M 1034 0 
L 19 3319 
L 600 3319 
L 1128 1403 
L 1325 691 
Q 1338 744 1497 1375 
L 2025 3319 
L 2603 3319 
L 3100 1394 
L 3266 759 
L 3456 1400 
L 4025 3319 
L 4572 3319 
L 3534 0 
L 2950 0 
L 2422 1988 
L 2294 2553 
L 1622 0 
L 1034 0 
z
" transform="scale(0.015625)"/>
       <path id="ArialMT-68" d="M 422 0 
L 422 4581 
L 984 4581 
L 984 2938 
Q 1378 3394 1978 3394 
Q 2347 3394 2619 3248 
Q 2891 3103 3008 2847 
Q 3125 2591 3125 2103 
L 3125 0 
L 2563 0 
L 2563 2103 
Q 2563 2525 2380 2717 
Q 2197 2909 1863 2909 
Q 1613 2909 1392 2779 
Q 1172 2650 1078 2428 
Q 984 2206 984 1816 
L 984 0 
L 422 0 
z
" transform="scale(0.015625)"/>
       <path id="ArialMT-2192" d="M 4859 2738 
Q 5275 2284 5578 2048 
Q 5881 1813 6150 1697 
L 6150 1556 
Q 5841 1406 5550 1173 
Q 5259 941 4856 491 
L 4616 491 
Q 4909 1119 5231 1456 
L 247 1456 
L 247 1772 
L 5231 1772 
Q 4994 2075 4900 2222 
Q 4806 2369 4622 2738 
L 4859 2738 
z
" transform="scale(0.015625)"/>
       <path id="ArialMT-29" d="M 791 -1347 
L 388 -1347 
Q 1322 153 1322 1656 
Q 1322 2244 1188 2822 
Q 1081 3291 891 3722 
Q 769 4003 388 4659 
L 791 4659 
Q 1378 3875 1659 3084 
Q 1900 2403 1900 1659 
Q 1900 816 1576 28 
Q 1253 -759 791 -1347 
z
" transform="scale(0.015625)"/>
      </defs>
      <use xlink:href="#ArialMT-63"/>
      <use xlink:href="#ArialMT-6f" transform="translate(50 0)"/>
      <use xlink:href="#ArialMT-73" transform="translate(105.615234 0)"/>
      <use xlink:href="#ArialMT-74" transform="translate(155.615234 0)"/>
      <use xlink:href="#ArialMT-20" transform="translate(183.398438 0)"/>
      <use xlink:href="#ArialMT-74" transform="translate(211.181641 0)"/>
      <use xlink:href="#ArialMT-72" transform="translate(238.964844 0)"/>
      <use xlink:href="#ArialMT-61" transform="translate(272.265625 0)"/>
      <use xlink:href="#ArialMT-6e" transform="translate(327.880859 0)"/>
      <use xlink:href="#ArialMT-73" transform="translate(383.496094 0)"/>
      <use xlink:href="#ArialMT-66" transform="translate(433.496094 0)"/>
      <use xlink:href="#ArialMT-6f" transform="translate(461.279297 0)"/>
      <use xlink:href="#ArialMT-72" transform="translate(516.894531 0)"/>
      <use xlink:href="#ArialMT-6d" transform="translate(550.195312 0)"/>
      <use xlink:href="#ArialMT-20" transform="translate(633.496094 0)"/>
      <use xlink:href="#ArialMT-28" transform="translate(661.279297 0)"/>
      <use xlink:href="#ArialMT-69" transform="translate(694.580078 0)"/>
      <use xlink:href="#ArialMT-6e" transform="translate(716.796875 0)"/>
      <use xlink:href="#ArialMT-63" transform="translate(772.412109 0)"/>
      <use xlink:href="#ArialMT-72" transform="translate(822.412109 0)"/>
      <use xlink:href="#ArialMT-65" transform="translate(855.712891 0)"/>
      <use xlink:href="#ArialMT-61" transform="translate(911.328125 0)"/>
      <use xlink:href="#ArialMT-73" transform="translate(966.943359 0)"/>
      <use xlink:href="#ArialMT-69" transform="translate(1016.943359 0)"/>
      <use xlink:href="#ArialMT-6e" transform="translate(1039.160156 0)"/>
      <use xlink:href="#ArialMT-67" transform="translate(1094.775391 0)"/>
      <use xlink:href="#ArialMT-20" transform="translate(1150.390625 0)"/>
      <use xlink:href="#ArialMT-74" transform="translate(1178.173828 0)"/>
      <use xlink:href="#ArialMT-61" transform="translate(1205.957031 0)"/>
      <use xlink:href="#ArialMT-69" transform="translate(1261.572266 0)"/>
      <use xlink:href="#ArialMT-6c" transform="translate(1283.789062 0)"/>
      <use xlink:href="#ArialMT-2d" transform="translate(1306.005859 0)"/>
      <use xlink:href="#ArialMT-77" transform="translate(1339.306641 0)"/>
      <use xlink:href="#ArialMT-65" transform="translate(1411.523438 0)"/>
      <use xlink:href="#ArialMT-69" transform="translate(1467.138672 0)"/>
      <use xlink:href="#ArialMT-67" transform="translate(1489.355469 0)"/>
      <use xlink:href="#ArialMT-68" transform="translate(1544.970703 0)"/>
      <use xlink:href="#ArialMT-74" transform="translate(1600.585938 0)"/>
      <use xlink:href="#ArialMT-20" transform="translate(1628.369141 0)"/>
      <use xlink:href="#ArialMT-2192" transform="translate(1656.152344 0)"/>
      <use xlink:href="#ArialMT-29" transform="translate(1756.152344 0)"/>
     </g>
    </g>
   </g>
   <g id="matplotlib.axis_2">
    <g id="ytick_1">
     <g id="line2d_6">
      <path d="M 48.963539 185.089088 
L 531.916188 185.089088 
" clip-path="url(#p93e4f3b56c)" style="fill: none; stroke: #cccccc; stroke-linecap: round"/>
     </g>
     <g id="text_7">
      <!-- 0 -->
      <g style="fill: #262626" transform="translate(33.652359 188.829045) scale(0.1045 -0.1045)">
       <defs>
        <path id="ArialMT-30" d="M 266 2259 
Q 266 3072 433 3567 
Q 600 4063 929 4331 
Q 1259 4600 1759 4600 
Q 2128 4600 2406 4451 
Q 2684 4303 2865 4023 
Q 3047 3744 3150 3342 
Q 3253 2941 3253 2259 
Q 3253 1453 3087 958 
Q 2922 463 2592 192 
Q 2263 -78 1759 -78 
Q 1097 -78 719 397 
Q 266 969 266 2259 
z
M 844 2259 
Q 844 1131 1108 757 
Q 1372 384 1759 384 
Q 2147 384 2411 759 
Q 2675 1134 2675 2259 
Q 2675 3391 2411 3762 
Q 2147 4134 1753 4134 
Q 1366 4134 1134 3806 
Q 844 3388 844 2259 
z
" transform="scale(0.015625)"/>
       </defs>
       <use xlink:href="#ArialMT-30"/>
      </g>
     </g>
    </g>
    <g id="ytick_2">
     <g id="line2d_7">
      <path d="M 48.963539 159.189188 
L 531.916188 159.189188 
" clip-path="url(#p93e4f3b56c)" style="fill: none; stroke: #cccccc; stroke-linecap: round"/>
     </g>
     <g id="text_8">
      <!-- 25 -->
      <g style="fill: #262626" transform="translate(27.84118 162.929145) scale(0.1045 -0.1045)">
       <defs>
        <path id="ArialMT-32" d="M 3222 541 
L 3222 0 
L 194 0 
Q 188 203 259 391 
Q 375 700 629 1000 
Q 884 1300 1366 1694 
Q 2113 2306 2375 2664 
Q 2638 3022 2638 3341 
Q 2638 3675 2398 3904 
Q 2159 4134 1775 4134 
Q 1369 4134 1125 3890 
Q 881 3647 878 3216 
L 300 3275 
Q 359 3922 746 4261 
Q 1134 4600 1788 4600 
Q 2447 4600 2831 4234 
Q 3216 3869 3216 3328 
Q 3216 3053 3103 2787 
Q 2991 2522 2730 2228 
Q 2469 1934 1863 1422 
Q 1356 997 1212 845 
Q 1069 694 975 541 
L 3222 541 
z
" transform="scale(0.015625)"/>
        <path id="ArialMT-35" d="M 266 1200 
L 856 1250 
Q 922 819 1161 601 
Q 1400 384 1738 384 
Q 2144 384 2425 690 
Q 2706 997 2706 1503 
Q 2706 1984 2436 2262 
Q 2166 2541 1728 2541 
Q 1456 2541 1237 2417 
Q 1019 2294 894 2097 
L 366 2166 
L 809 4519 
L 3088 4519 
L 3088 3981 
L 1259 3981 
L 1013 2750 
Q 1425 3038 1878 3038 
Q 2478 3038 2890 2622 
Q 3303 2206 3303 1553 
Q 3303 931 2941 478 
Q 2500 -78 1738 -78 
Q 1113 -78 717 272 
Q 322 622 266 1200 
z
" transform="scale(0.015625)"/>
       </defs>
       <use xlink:href="#ArialMT-32"/>
       <use xlink:href="#ArialMT-35" transform="translate(55.615234 0)"/>
      </g>
     </g>
    </g>
    <g id="ytick_3">
     <g id="line2d_8">
      <path d="M 48.963539 133.289289 
L 531.916188 133.289289 
" clip-path="url(#p93e4f3b56c)" style="fill: none; stroke: #cccccc; stroke-linecap: round"/>
     </g>
     <g id="text_9">
      <!-- 50 -->
      <g style="fill: #262626" transform="translate(27.84118 137.029246) scale(0.1045 -0.1045)">
       <use xlink:href="#ArialMT-35"/>
       <use xlink:href="#ArialMT-30" transform="translate(55.615234 0)"/>
      </g>
     </g>
    </g>
    <g id="ytick_4">
     <g id="line2d_9">
      <path d="M 48.963539 107.38939 
L 531.916188 107.38939 
" clip-path="url(#p93e4f3b56c)" style="fill: none; stroke: #cccccc; stroke-linecap: round"/>
     </g>
     <g id="text_10">
      <!-- 75 -->
      <g style="fill: #262626" transform="translate(27.84118 111.129347) scale(0.1045 -0.1045)">
       <defs>
        <path id="ArialMT-37" d="M 303 3981 
L 303 4522 
L 3269 4522 
L 3269 4084 
Q 2831 3619 2401 2847 
Q 1972 2075 1738 1259 
Q 1569 684 1522 0 
L 944 0 
Q 953 541 1156 1306 
Q 1359 2072 1739 2783 
Q 2119 3494 2547 3981 
L 303 3981 
z
" transform="scale(0.015625)"/>
       </defs>
       <use xlink:href="#ArialMT-37"/>
       <use xlink:href="#ArialMT-35" transform="translate(55.615234 0)"/>
      </g>
     </g>
    </g>
    <g id="ytick_5">
     <g id="line2d_10">
      <path d="M 48.963539 81.48949 
L 531.916188 81.48949 
" clip-path="url(#p93e4f3b56c)" style="fill: none; stroke: #cccccc; stroke-linecap: round"/>
     </g>
     <g id="text_11">
      <!-- 100 -->
      <g style="fill: #262626" transform="translate(22.03 85.229447) scale(0.1045 -0.1045)">
       <defs>
        <path id="ArialMT-31" d="M 2384 0 
L 1822 0 
L 1822 3584 
Q 1619 3391 1289 3197 
Q 959 3003 697 2906 
L 697 3450 
Q 1169 3672 1522 3987 
Q 1875 4303 2022 4600 
L 2384 4600 
L 2384 0 
z
" transform="scale(0.015625)"/>
       </defs>
       <use xlink:href="#ArialMT-31"/>
       <use xlink:href="#ArialMT-30" transform="translate(55.615234 0)"/>
       <use xlink:href="#ArialMT-30" transform="translate(111.230469 0)"/>
      </g>
     </g>
    </g>
    <g id="ytick_6">
     <g id="line2d_11">
      <path d="M 48.963539 55.589591 
L 531.916188 55.589591 
" clip-path="url(#p93e4f3b56c)" style="fill: none; stroke: #cccccc; stroke-linecap: round"/>
     </g>
     <g id="text_12">
      <!-- 125 -->
      <g style="fill: #262626" transform="translate(22.03 59.329548) scale(0.1045 -0.1045)">
       <use xlink:href="#ArialMT-31"/>
       <use xlink:href="#ArialMT-32" transform="translate(55.615234 0)"/>
       <use xlink:href="#ArialMT-35" transform="translate(111.230469 0)"/>
      </g>
     </g>
    </g>
    <g id="ytick_7">
     <g id="line2d_12">
      <path d="M 48.963539 29.689692 
L 531.916188 29.689692 
" clip-path="url(#p93e4f3b56c)" style="fill: none; stroke: #cccccc; stroke-linecap: round"/>
     </g>
     <g id="text_13">
      <!-- 150 -->
      <g style="fill: #262626" transform="translate(22.03 33.429649) scale(0.1045 -0.1045)">
       <use xlink:href="#ArialMT-31"/>
       <use xlink:href="#ArialMT-35" transform="translate(55.615234 0)"/>
       <use xlink:href="#ArialMT-30" transform="translate(111.230469 0)"/>
      </g>
     </g>
    </g>
    <g id="text_14">
     <!-- correction $\Delta v$ (m/s) -->
     <g style="fill: #262626" transform="translate(15.522 151.234388) rotate(-90) scale(0.114 -0.114)">
      <defs>
       <path id="DejaVuSans-394" d="M 2188 4044 
L 906 525 
L 3472 525 
L 2188 4044 
z
M 50 0 
L 1831 4666 
L 2547 4666 
L 4325 0 
L 50 0 
z
" transform="scale(0.015625)"/>
       <path id="DejaVuSans-Oblique-76" d="M 459 3500 
L 1069 3500 
L 1581 525 
L 3256 3500 
L 3866 3500 
L 1875 0 
L 1100 0 
L 459 3500 
z
" transform="scale(0.015625)"/>
       <path id="ArialMT-2f" d="M 0 -78 
L 1328 4659 
L 1778 4659 
L 453 -78 
L 0 -78 
z
" transform="scale(0.015625)"/>
      </defs>
      <use xlink:href="#ArialMT-63" transform="translate(0 0.09375)"/>
      <use xlink:href="#ArialMT-6f" transform="translate(50 0.09375)"/>
      <use xlink:href="#ArialMT-72" transform="translate(105.615234 0.09375)"/>
      <use xlink:href="#ArialMT-72" transform="translate(138.916016 0.09375)"/>
      <use xlink:href="#ArialMT-65" transform="translate(172.216797 0.09375)"/>
      <use xlink:href="#ArialMT-63" transform="translate(227.832031 0.09375)"/>
      <use xlink:href="#ArialMT-74" transform="translate(277.832031 0.09375)"/>
      <use xlink:href="#ArialMT-69" transform="translate(305.615234 0.09375)"/>
      <use xlink:href="#ArialMT-6f" transform="translate(327.832031 0.09375)"/>
      <use xlink:href="#ArialMT-6e" transform="translate(383.447266 0.09375)"/>
      <use xlink:href="#ArialMT-20" transform="translate(439.0625 0.09375)"/>
      <use xlink:href="#DejaVuSans-394" transform="translate(466.845703 0.09375)"/>
      <use xlink:href="#DejaVuSans-Oblique-76" transform="translate(535.253906 0.09375)"/>
      <use xlink:href="#ArialMT-20" transform="translate(594.433594 0.09375)"/>
      <use xlink:href="#ArialMT-28" transform="translate(622.216797 0.09375)"/>
      <use xlink:href="#ArialMT-6d" transform="translate(655.517578 0.09375)"/>
      <use xlink:href="#ArialMT-2f" transform="translate(738.818359 0.09375)"/>
      <use xlink:href="#ArialMT-73" transform="translate(766.601562 0.09375)"/>
      <use xlink:href="#ArialMT-29" transform="translate(816.601562 0.09375)"/>
     </g>
    </g>
   </g>
   <g id="patch_3">
    <path d="M 48.963539 185.089088 
L 48.963539 20.479688 
" style="fill: none; stroke: #cccccc; stroke-width: 1.25; stroke-linejoin: miter; stroke-linecap: square"/>
   </g>
   <g id="patch_4">
    <path d="M 531.916188 185.089088 
L 531.916188 20.479688 
" style="fill: none; stroke: #cccccc; stroke-width: 1.25; stroke-linejoin: miter; stroke-linecap: square"/>
   </g>
   <g id="patch_5">
    <path d="M 48.963539 185.089088 
L 531.916188 185.089088 
" style="fill: none; stroke: #cccccc; stroke-width: 1.25; stroke-linejoin: miter; stroke-linecap: square"/>
   </g>
   <g id="patch_6">
    <path d="M 48.963539 20.479688 
L 531.916188 20.479688 
" style="fill: none; stroke: #cccccc; stroke-width: 1.25; stroke-linejoin: miter; stroke-linecap: square"/>
   </g>
   <g id="patch_7">
    <path d="M 70.915932 185.089088 
L 105.965972 185.089088 
L 105.965972 44.566594 
L 70.915932 44.566594 
z
" clip-path="url(#p93e4f3b56c)" style="fill: #4878cf; stroke: #ffffff; stroke-linejoin: miter"/>
   </g>
   <g id="patch_8">
    <path d="M 163.152878 185.089088 
L 198.202918 185.089088 
L 198.202918 46.193108 
L 163.152878 46.193108 
z
" clip-path="url(#p93e4f3b56c)" style="fill: #4878cf; stroke: #ffffff; stroke-linejoin: miter"/>
   </g>
   <g id="patch_9">
    <path d="M 255.389824 185.089088 
L 290.439864 185.089088 
L 290.439864 37.90514 
L 255.389824 37.90514 
z
" clip-path="url(#p93e4f3b56c)" style="fill: #4878cf; stroke: #ffffff; stroke-linejoin: miter"/>
   </g>
   <g id="patch_10">
    <path d="M 347.62677 185.089088 
L 382.67681 185.089088 
L 382.67681 44.773793 
L 347.62677 44.773793 
z
" clip-path="url(#p93e4f3b56c)" style="fill: #4878cf; stroke: #ffffff; stroke-linejoin: miter"/>
   </g>
   <g id="patch_11">
    <path d="M 439.863716 185.089088 
L 474.913756 185.089088 
L 474.913756 42.515322 
L 439.863716 42.515322 
z
" clip-path="url(#p93e4f3b56c)" style="fill: #1f6f3f; stroke: #ffffff; stroke-linejoin: miter"/>
   </g>
   <g id="patch_12">
    <path d="M 105.965972 185.089088 
L 141.016011 185.089088 
L 141.016011 41.386086 
L 105.965972 41.386086 
z
" clip-path="url(#p93e4f3b56c)" style="fill: #999999; opacity: 0.65; stroke: #ffffff; stroke-linejoin: miter"/>
   </g>
   <g id="patch_13">
    <path d="M 198.202918 185.089088 
L 233.252957 185.089088 
L 233.252957 43.944996 
L 198.202918 43.944996 
z
" clip-path="url(#p93e4f3b56c)" style="fill: #999999; opacity: 0.65; stroke: #ffffff; stroke-linejoin: miter"/>
   </g>
   <g id="patch_14">
    <path d="M 290.439864 185.089088 
L 325.489903 185.089088 
L 325.489903 32.911639 
L 290.439864 32.911639 
z
" clip-path="url(#p93e4f3b56c)" style="fill: #999999; opacity: 0.65; stroke: #ffffff; stroke-linejoin: miter"/>
   </g>
   <g id="patch_15">
    <path d="M 382.67681 185.089088 
L 417.726849 185.089088 
L 417.726849 42.318483 
L 382.67681 42.318483 
z
" clip-path="url(#p93e4f3b56c)" style="fill: #999999; opacity: 0.65; stroke: #ffffff; stroke-linejoin: miter"/>
   </g>
   <g id="patch_16">
    <path d="M 474.913756 185.089088 
L 509.963795 185.089088 
L 509.963795 39.490214 
L 474.913756 39.490214 
z
" clip-path="url(#p93e4f3b56c)" style="fill: #2e8b57; opacity: 0.65; stroke: #ffffff; stroke-linejoin: miter"/>
   </g>
   <g id="text_15">
    <!-- 135.6 -->
    <g style="fill: #262626" transform="translate(79.057749 43.086516) scale(0.075 -0.075)">
     <defs>
      <path id="Arial-BoldMT-31" d="M 2519 0 
L 1641 0 
L 1641 3309 
Q 1159 2859 506 2644 
L 506 3441 
Q 850 3553 1253 3867 
Q 1656 4181 1806 4600 
L 2519 4600 
L 2519 0 
z
" transform="scale(0.015625)"/>
      <path id="Arial-BoldMT-33" d="M 241 1216 
L 1091 1319 
Q 1131 994 1309 822 
Q 1488 650 1741 650 
Q 2013 650 2198 856 
Q 2384 1063 2384 1413 
Q 2384 1744 2206 1937 
Q 2028 2131 1772 2131 
Q 1603 2131 1369 2066 
L 1466 2781 
Q 1822 2772 2009 2936 
Q 2197 3100 2197 3372 
Q 2197 3603 2059 3740 
Q 1922 3878 1694 3878 
Q 1469 3878 1309 3722 
Q 1150 3566 1116 3266 
L 306 3403 
Q 391 3819 561 4067 
Q 731 4316 1036 4458 
Q 1341 4600 1719 4600 
Q 2366 4600 2756 4188 
Q 3078 3850 3078 3425 
Q 3078 2822 2419 2463 
Q 2813 2378 3048 2084 
Q 3284 1791 3284 1375 
Q 3284 772 2843 347 
Q 2403 -78 1747 -78 
Q 1125 -78 715 280 
Q 306 638 241 1216 
z
" transform="scale(0.015625)"/>
      <path id="Arial-BoldMT-35" d="M 284 1178 
L 1159 1269 
Q 1197 972 1381 798 
Q 1566 625 1806 625 
Q 2081 625 2272 848 
Q 2463 1072 2463 1522 
Q 2463 1944 2273 2155 
Q 2084 2366 1781 2366 
Q 1403 2366 1103 2031 
L 391 2134 
L 841 4519 
L 3163 4519 
L 3163 3697 
L 1506 3697 
L 1369 2919 
Q 1663 3066 1969 3066 
Q 2553 3066 2959 2641 
Q 3366 2216 3366 1538 
Q 3366 972 3038 528 
Q 2591 -78 1797 -78 
Q 1163 -78 763 262 
Q 363 603 284 1178 
z
" transform="scale(0.015625)"/>
      <path id="Arial-BoldMT-2e" d="M 459 0 
L 459 878 
L 1338 878 
L 1338 0 
L 459 0 
z
" transform="scale(0.015625)"/>
      <path id="Arial-BoldMT-36" d="M 3247 3459 
L 2397 3366 
Q 2366 3628 2234 3753 
Q 2103 3878 1894 3878 
Q 1616 3878 1423 3628 
Q 1231 3378 1181 2588 
Q 1509 2975 1997 2975 
Q 2547 2975 2939 2556 
Q 3331 2138 3331 1475 
Q 3331 772 2918 347 
Q 2506 -78 1859 -78 
Q 1166 -78 719 461 
Q 272 1000 272 2228 
Q 272 3488 737 4044 
Q 1203 4600 1947 4600 
Q 2469 4600 2811 4308 
Q 3153 4016 3247 3459 
z
M 1256 1544 
Q 1256 1116 1453 883 
Q 1650 650 1903 650 
Q 2147 650 2309 840 
Q 2472 1031 2472 1466 
Q 2472 1913 2297 2120 
Q 2122 2328 1859 2328 
Q 1606 2328 1431 2129 
Q 1256 1931 1256 1544 
z
" transform="scale(0.015625)"/>
     </defs>
     <use xlink:href="#Arial-BoldMT-31"/>
     <use xlink:href="#Arial-BoldMT-33" transform="translate(55.615234 0)"/>
     <use xlink:href="#Arial-BoldMT-35" transform="translate(111.230469 0)"/>
     <use xlink:href="#Arial-BoldMT-2e" transform="translate(166.845703 0)"/>
     <use xlink:href="#Arial-BoldMT-36" transform="translate(194.628906 0)"/>
    </g>
   </g>
   <g id="text_16">
    <!-- 134.1 -->
    <g style="fill: #262626" transform="translate(171.294695 44.713029) scale(0.075 -0.075)">
     <defs>
      <path id="Arial-BoldMT-34" d="M 1994 0 
L 1994 922 
L 119 922 
L 119 1691 
L 2106 4600 
L 2844 4600 
L 2844 1694 
L 3413 1694 
L 3413 922 
L 2844 922 
L 2844 0 
L 1994 0 
z
M 1994 1694 
L 1994 3259 
L 941 1694 
L 1994 1694 
z
" transform="scale(0.015625)"/>
     </defs>
     <use xlink:href="#Arial-BoldMT-31"/>
     <use xlink:href="#Arial-BoldMT-33" transform="translate(55.615234 0)"/>
     <use xlink:href="#Arial-BoldMT-34" transform="translate(111.230469 0)"/>
     <use xlink:href="#Arial-BoldMT-2e" transform="translate(166.845703 0)"/>
     <use xlink:href="#Arial-BoldMT-31" transform="translate(194.628906 0)"/>
    </g>
   </g>
   <g id="text_17">
    <!-- 142.1 -->
    <g style="fill: #262626" transform="translate(263.531641 36.425062) scale(0.075 -0.075)">
     <defs>
      <path id="Arial-BoldMT-32" d="M 3238 816 
L 3238 0 
L 159 0 
Q 209 463 459 877 
Q 709 1291 1447 1975 
Q 2041 2528 2175 2725 
Q 2356 2997 2356 3263 
Q 2356 3556 2198 3714 
Q 2041 3872 1763 3872 
Q 1488 3872 1325 3706 
Q 1163 3541 1138 3156 
L 263 3244 
Q 341 3969 753 4284 
Q 1166 4600 1784 4600 
Q 2463 4600 2850 4234 
Q 3238 3869 3238 3325 
Q 3238 3016 3127 2736 
Q 3016 2456 2775 2150 
Q 2616 1947 2200 1565 
Q 1784 1184 1673 1059 
Q 1563 934 1494 816 
L 3238 816 
z
" transform="scale(0.015625)"/>
     </defs>
     <use xlink:href="#Arial-BoldMT-31"/>
     <use xlink:href="#Arial-BoldMT-34" transform="translate(55.615234 0)"/>
     <use xlink:href="#Arial-BoldMT-32" transform="translate(111.230469 0)"/>
     <use xlink:href="#Arial-BoldMT-2e" transform="translate(166.845703 0)"/>
     <use xlink:href="#Arial-BoldMT-31" transform="translate(194.628906 0)"/>
    </g>
   </g>
   <g id="text_18">
    <!-- 135.4 -->
    <g style="fill: #262626" transform="translate(355.768587 43.293715) scale(0.075 -0.075)">
     <use xlink:href="#Arial-BoldMT-31"/>
     <use xlink:href="#Arial-BoldMT-33" transform="translate(55.615234 0)"/>
     <use xlink:href="#Arial-BoldMT-35" transform="translate(111.230469 0)"/>
     <use xlink:href="#Arial-BoldMT-2e" transform="translate(166.845703 0)"/>
     <use xlink:href="#Arial-BoldMT-34" transform="translate(194.628906 0)"/>
    </g>
   </g>
   <g id="text_19">
    <!-- 137.6 -->
    <g style="fill: #262626" transform="translate(448.005533 41.035244) scale(0.075 -0.075)">
     <defs>
      <path id="Arial-BoldMT-37" d="M 272 3703 
L 272 4519 
L 3275 4519 
L 3275 3881 
Q 2903 3516 2518 2831 
Q 2134 2147 1932 1376 
Q 1731 606 1734 0 
L 888 0 
Q 909 950 1279 1937 
Q 1650 2925 2269 3703 
L 272 3703 
z
" transform="scale(0.015625)"/>
     </defs>
     <use xlink:href="#Arial-BoldMT-31"/>
     <use xlink:href="#Arial-BoldMT-33" transform="translate(55.615234 0)"/>
     <use xlink:href="#Arial-BoldMT-37" transform="translate(111.230469 0)"/>
     <use xlink:href="#Arial-BoldMT-2e" transform="translate(166.845703 0)"/>
     <use xlink:href="#Arial-BoldMT-36" transform="translate(194.628906 0)"/>
    </g>
   </g>
   <g id="text_20">
    <!-- 138.7 -->
    <g style="fill: #555555" transform="translate(114.107788 39.895461) scale(0.075 -0.075)">
     <defs>
      <path id="ArialMT-33" d="M 269 1209 
L 831 1284 
Q 928 806 1161 595 
Q 1394 384 1728 384 
Q 2125 384 2398 659 
Q 2672 934 2672 1341 
Q 2672 1728 2419 1979 
Q 2166 2231 1775 2231 
Q 1616 2231 1378 2169 
L 1441 2663 
Q 1497 2656 1531 2656 
Q 1891 2656 2178 2843 
Q 2466 3031 2466 3422 
Q 2466 3731 2256 3934 
Q 2047 4138 1716 4138 
Q 1388 4138 1169 3931 
Q 950 3725 888 3313 
L 325 3413 
Q 428 3978 793 4289 
Q 1159 4600 1703 4600 
Q 2078 4600 2393 4439 
Q 2709 4278 2876 4000 
Q 3044 3722 3044 3409 
Q 3044 3113 2884 2869 
Q 2725 2625 2413 2481 
Q 2819 2388 3044 2092 
Q 3269 1797 3269 1353 
Q 3269 753 2831 336 
Q 2394 -81 1725 -81 
Q 1122 -81 723 278 
Q 325 638 269 1209 
z
" transform="scale(0.015625)"/>
      <path id="ArialMT-38" d="M 1131 2484 
Q 781 2613 612 2850 
Q 444 3088 444 3419 
Q 444 3919 803 4259 
Q 1163 4600 1759 4600 
Q 2359 4600 2725 4251 
Q 3091 3903 3091 3403 
Q 3091 3084 2923 2848 
Q 2756 2613 2416 2484 
Q 2838 2347 3058 2040 
Q 3278 1734 3278 1309 
Q 3278 722 2862 322 
Q 2447 -78 1769 -78 
Q 1091 -78 675 323 
Q 259 725 259 1325 
Q 259 1772 486 2073 
Q 713 2375 1131 2484 
z
M 1019 3438 
Q 1019 3113 1228 2906 
Q 1438 2700 1772 2700 
Q 2097 2700 2305 2904 
Q 2513 3109 2513 3406 
Q 2513 3716 2298 3927 
Q 2084 4138 1766 4138 
Q 1444 4138 1231 3931 
Q 1019 3725 1019 3438 
z
M 838 1322 
Q 838 1081 952 856 
Q 1066 631 1291 507 
Q 1516 384 1775 384 
Q 2178 384 2440 643 
Q 2703 903 2703 1303 
Q 2703 1709 2433 1975 
Q 2163 2241 1756 2241 
Q 1359 2241 1098 1978 
Q 838 1716 838 1322 
z
" transform="scale(0.015625)"/>
      <path id="ArialMT-2e" d="M 581 0 
L 581 641 
L 1222 641 
L 1222 0 
L 581 0 
z
" transform="scale(0.015625)"/>
     </defs>
     <use xlink:href="#ArialMT-31"/>
     <use xlink:href="#ArialMT-33" transform="translate(55.615234 0)"/>
     <use xlink:href="#ArialMT-38" transform="translate(111.230469 0)"/>
     <use xlink:href="#ArialMT-2e" transform="translate(166.845703 0)"/>
     <use xlink:href="#ArialMT-37" transform="translate(194.628906 0)"/>
    </g>
   </g>
   <g id="text_21">
    <!-- 136.2 -->
    <g style="fill: #555555" transform="translate(206.344734 42.454371) scale(0.075 -0.075)">
     <defs>
      <path id="ArialMT-36" d="M 3184 3459 
L 2625 3416 
Q 2550 3747 2413 3897 
Q 2184 4138 1850 4138 
Q 1581 4138 1378 3988 
Q 1113 3794 959 3422 
Q 806 3050 800 2363 
Q 1003 2672 1297 2822 
Q 1591 2972 1913 2972 
Q 2475 2972 2870 2558 
Q 3266 2144 3266 1488 
Q 3266 1056 3080 686 
Q 2894 316 2569 119 
Q 2244 -78 1831 -78 
Q 1128 -78 684 439 
Q 241 956 241 2144 
Q 241 3472 731 4075 
Q 1159 4600 1884 4600 
Q 2425 4600 2770 4297 
Q 3116 3994 3184 3459 
z
M 888 1484 
Q 888 1194 1011 928 
Q 1134 663 1356 523 
Q 1578 384 1822 384 
Q 2178 384 2434 671 
Q 2691 959 2691 1453 
Q 2691 1928 2437 2201 
Q 2184 2475 1800 2475 
Q 1419 2475 1153 2201 
Q 888 1928 888 1484 
z
" transform="scale(0.015625)"/>
     </defs>
     <use xlink:href="#ArialMT-31"/>
     <use xlink:href="#ArialMT-33" transform="translate(55.615234 0)"/>
     <use xlink:href="#ArialMT-36" transform="translate(111.230469 0)"/>
     <use xlink:href="#ArialMT-2e" transform="translate(166.845703 0)"/>
     <use xlink:href="#ArialMT-32" transform="translate(194.628906 0)"/>
    </g>
   </g>
   <g id="text_22">
    <!-- 146.9 -->
    <g style="fill: #555555" transform="translate(298.58168 31.421014) scale(0.075 -0.075)">
     <defs>
      <path id="ArialMT-34" d="M 2069 0 
L 2069 1097 
L 81 1097 
L 81 1613 
L 2172 4581 
L 2631 4581 
L 2631 1613 
L 3250 1613 
L 3250 1097 
L 2631 1097 
L 2631 0 
L 2069 0 
z
M 2069 1613 
L 2069 3678 
L 634 1613 
L 2069 1613 
z
" transform="scale(0.015625)"/>
      <path id="ArialMT-39" d="M 350 1059 
L 891 1109 
Q 959 728 1153 556 
Q 1347 384 1650 384 
Q 1909 384 2104 503 
Q 2300 622 2425 820 
Q 2550 1019 2634 1356 
Q 2719 1694 2719 2044 
Q 2719 2081 2716 2156 
Q 2547 1888 2255 1720 
Q 1963 1553 1622 1553 
Q 1053 1553 659 1965 
Q 266 2378 266 3053 
Q 266 3750 677 4175 
Q 1088 4600 1706 4600 
Q 2153 4600 2523 4359 
Q 2894 4119 3086 3673 
Q 3278 3228 3278 2384 
Q 3278 1506 3087 986 
Q 2897 466 2520 194 
Q 2144 -78 1638 -78 
Q 1100 -78 759 220 
Q 419 519 350 1059 
z
M 2653 3081 
Q 2653 3566 2395 3850 
Q 2138 4134 1775 4134 
Q 1400 4134 1122 3828 
Q 844 3522 844 3034 
Q 844 2597 1108 2323 
Q 1372 2050 1759 2050 
Q 2150 2050 2401 2323 
Q 2653 2597 2653 3081 
z
" transform="scale(0.015625)"/>
     </defs>
     <use xlink:href="#ArialMT-31"/>
     <use xlink:href="#ArialMT-34" transform="translate(55.615234 0)"/>
     <use xlink:href="#ArialMT-36" transform="translate(111.230469 0)"/>
     <use xlink:href="#ArialMT-2e" transform="translate(166.845703 0)"/>
     <use xlink:href="#ArialMT-39" transform="translate(194.628906 0)"/>
    </g>
   </g>
   <g id="text_23">
    <!-- 137.8 -->
    <g style="fill: #555555" transform="translate(390.818626 40.827858) scale(0.075 -0.075)">
     <use xlink:href="#ArialMT-31"/>
     <use xlink:href="#ArialMT-33" transform="translate(55.615234 0)"/>
     <use xlink:href="#ArialMT-37" transform="translate(111.230469 0)"/>
     <use xlink:href="#ArialMT-2e" transform="translate(166.845703 0)"/>
     <use xlink:href="#ArialMT-38" transform="translate(194.628906 0)"/>
    </g>
   </g>
   <g id="text_24">
    <!-- 140.5 -->
    <g style="fill: #555555" transform="translate(483.055572 37.999589) scale(0.075 -0.075)">
     <use xlink:href="#ArialMT-31"/>
     <use xlink:href="#ArialMT-34" transform="translate(55.615234 0)"/>
     <use xlink:href="#ArialMT-30" transform="translate(111.230469 0)"/>
     <use xlink:href="#ArialMT-2e" transform="translate(166.845703 0)"/>
     <use xlink:href="#ArialMT-35" transform="translate(194.628906 0)"/>
    </g>
   </g>
   <g id="text_25">
    <!-- deployed -->
    <g style="fill: #1f6f3f" transform="translate(457.356881 34.491276) scale(0.08 -0.08)">
     <defs>
      <path id="Arial-BoldMT-64" d="M 3503 0 
L 2688 0 
L 2688 488 
Q 2484 203 2207 64 
Q 1931 -75 1650 -75 
Q 1078 -75 670 386 
Q 263 847 263 1672 
Q 263 2516 659 2955 
Q 1056 3394 1663 3394 
Q 2219 3394 2625 2931 
L 2625 4581 
L 3503 4581 
L 3503 0 
z
M 1159 1731 
Q 1159 1200 1306 963 
Q 1519 619 1900 619 
Q 2203 619 2415 876 
Q 2628 1134 2628 1647 
Q 2628 2219 2422 2470 
Q 2216 2722 1894 2722 
Q 1581 2722 1370 2473 
Q 1159 2225 1159 1731 
z
" transform="scale(0.015625)"/>
      <path id="Arial-BoldMT-65" d="M 2381 1056 
L 3256 909 
Q 3088 428 2723 176 
Q 2359 -75 1813 -75 
Q 947 -75 531 491 
Q 203 944 203 1634 
Q 203 2459 634 2926 
Q 1066 3394 1725 3394 
Q 2466 3394 2894 2905 
Q 3322 2416 3303 1406 
L 1103 1406 
Q 1113 1016 1316 798 
Q 1519 581 1822 581 
Q 2028 581 2168 693 
Q 2309 806 2381 1056 
z
M 2431 1944 
Q 2422 2325 2234 2523 
Q 2047 2722 1778 2722 
Q 1491 2722 1303 2513 
Q 1116 2303 1119 1944 
L 2431 1944 
z
" transform="scale(0.015625)"/>
      <path id="Arial-BoldMT-70" d="M 434 3319 
L 1253 3319 
L 1253 2831 
Q 1413 3081 1684 3237 
Q 1956 3394 2288 3394 
Q 2866 3394 3269 2941 
Q 3672 2488 3672 1678 
Q 3672 847 3265 386 
Q 2859 -75 2281 -75 
Q 2006 -75 1782 34 
Q 1559 144 1313 409 
L 1313 -1263 
L 434 -1263 
L 434 3319 
z
M 1303 1716 
Q 1303 1156 1525 889 
Q 1747 622 2066 622 
Q 2372 622 2575 867 
Q 2778 1113 2778 1672 
Q 2778 2194 2568 2447 
Q 2359 2700 2050 2700 
Q 1728 2700 1515 2451 
Q 1303 2203 1303 1716 
z
" transform="scale(0.015625)"/>
      <path id="Arial-BoldMT-6c" d="M 459 0 
L 459 4581 
L 1338 4581 
L 1338 0 
L 459 0 
z
" transform="scale(0.015625)"/>
      <path id="Arial-BoldMT-6f" d="M 256 1706 
Q 256 2144 472 2553 
Q 688 2963 1083 3178 
Q 1478 3394 1966 3394 
Q 2719 3394 3200 2905 
Q 3681 2416 3681 1669 
Q 3681 916 3195 420 
Q 2709 -75 1972 -75 
Q 1516 -75 1102 131 
Q 688 338 472 736 
Q 256 1134 256 1706 
z
M 1156 1659 
Q 1156 1166 1390 903 
Q 1625 641 1969 641 
Q 2313 641 2545 903 
Q 2778 1166 2778 1666 
Q 2778 2153 2545 2415 
Q 2313 2678 1969 2678 
Q 1625 2678 1390 2415 
Q 1156 2153 1156 1659 
z
" transform="scale(0.015625)"/>
      <path id="Arial-BoldMT-79" d="M 44 3319 
L 978 3319 
L 1772 963 
L 2547 3319 
L 3456 3319 
L 2284 125 
L 2075 -453 
Q 1959 -744 1854 -897 
Q 1750 -1050 1614 -1145 
Q 1478 -1241 1279 -1294 
Q 1081 -1347 831 -1347 
Q 578 -1347 334 -1294 
L 256 -606 
Q 463 -647 628 -647 
Q 934 -647 1081 -467 
Q 1228 -288 1306 -9 
L 44 3319 
z
" transform="scale(0.015625)"/>
     </defs>
     <use xlink:href="#Arial-BoldMT-64"/>
     <use xlink:href="#Arial-BoldMT-65" transform="translate(61.083984 0)"/>
     <use xlink:href="#Arial-BoldMT-70" transform="translate(116.699219 0)"/>
     <use xlink:href="#Arial-BoldMT-6c" transform="translate(177.783203 0)"/>
     <use xlink:href="#Arial-BoldMT-6f" transform="translate(205.566406 0)"/>
     <use xlink:href="#Arial-BoldMT-79" transform="translate(266.650391 0)"/>
     <use xlink:href="#Arial-BoldMT-65" transform="translate(322.265625 0)"/>
     <use xlink:href="#Arial-BoldMT-64" transform="translate(377.880859 0)"/>
    </g>
   </g>
   <g id="text_26">
    <!-- argmin is transform-invariant; tail-weight shifts capture separation under rank-free PSO/GA. cubed wins the FAR tail (n=10000 CVaR$_{99.9}$), not visible at CVaR$_{95}$. -->
    <g style="fill: #444444" transform="translate(42.429864 239.581908) scale(0.07 -0.07)">
     <defs>
      <path id="ArialMT-76" d="M 1344 0 
L 81 3319 
L 675 3319 
L 1388 1331 
Q 1503 1009 1600 663 
Q 1675 925 1809 1294 
L 2547 3319 
L 3125 3319 
L 1869 0 
L 1344 0 
z
" transform="scale(0.015625)"/>
      <path id="ArialMT-3b" d="M 569 2678 
L 569 3319 
L 1209 3319 
L 1209 2678 
L 569 2678 
z
M 569 0 
L 569 641 
L 1209 641 
L 1209 0 
Q 1209 -353 1084 -570 
Q 959 -788 688 -906 
L 531 -666 
Q 709 -588 793 -436 
Q 878 -284 888 0 
L 569 0 
z
" transform="scale(0.015625)"/>
      <path id="ArialMT-70" d="M 422 -1272 
L 422 3319 
L 934 3319 
L 934 2888 
Q 1116 3141 1344 3267 
Q 1572 3394 1897 3394 
Q 2322 3394 2647 3175 
Q 2972 2956 3137 2557 
Q 3303 2159 3303 1684 
Q 3303 1175 3120 767 
Q 2938 359 2589 142 
Q 2241 -75 1856 -75 
Q 1575 -75 1351 44 
Q 1128 163 984 344 
L 984 -1272 
L 422 -1272 
z
M 931 1641 
Q 931 1000 1190 694 
Q 1450 388 1819 388 
Q 2194 388 2461 705 
Q 2728 1022 2728 1688 
Q 2728 2322 2467 2637 
Q 2206 2953 1844 2953 
Q 1484 2953 1207 2617 
Q 931 2281 931 1641 
z
" transform="scale(0.015625)"/>
      <path id="ArialMT-6b" d="M 425 0 
L 425 4581 
L 988 4581 
L 988 1969 
L 2319 3319 
L 3047 3319 
L 1778 2088 
L 3175 0 
L 2481 0 
L 1384 1697 
L 988 1316 
L 988 0 
L 425 0 
z
" transform="scale(0.015625)"/>
      <path id="ArialMT-50" d="M 494 0 
L 494 4581 
L 2222 4581 
Q 2678 4581 2919 4538 
Q 3256 4481 3484 4323 
Q 3713 4166 3852 3881 
Q 3991 3597 3991 3256 
Q 3991 2672 3619 2267 
Q 3247 1863 2275 1863 
L 1100 1863 
L 1100 0 
L 494 0 
z
M 1100 2403 
L 2284 2403 
Q 2872 2403 3119 2622 
Q 3366 2841 3366 3238 
Q 3366 3525 3220 3729 
Q 3075 3934 2838 4000 
Q 2684 4041 2272 4041 
L 1100 4041 
L 1100 2403 
z
" transform="scale(0.015625)"/>
      <path id="ArialMT-53" d="M 288 1472 
L 859 1522 
Q 900 1178 1048 958 
Q 1197 738 1509 602 
Q 1822 466 2213 466 
Q 2559 466 2825 569 
Q 3091 672 3220 851 
Q 3350 1031 3350 1244 
Q 3350 1459 3225 1620 
Q 3100 1781 2813 1891 
Q 2628 1963 1997 2114 
Q 1366 2266 1113 2400 
Q 784 2572 623 2826 
Q 463 3081 463 3397 
Q 463 3744 659 4045 
Q 856 4347 1234 4503 
Q 1613 4659 2075 4659 
Q 2584 4659 2973 4495 
Q 3363 4331 3572 4012 
Q 3781 3694 3797 3291 
L 3216 3247 
Q 3169 3681 2898 3903 
Q 2628 4125 2100 4125 
Q 1550 4125 1298 3923 
Q 1047 3722 1047 3438 
Q 1047 3191 1225 3031 
Q 1400 2872 2139 2705 
Q 2878 2538 3153 2413 
Q 3553 2228 3743 1945 
Q 3934 1663 3934 1294 
Q 3934 928 3725 604 
Q 3516 281 3123 101 
Q 2731 -78 2241 -78 
Q 1619 -78 1198 103 
Q 778 284 539 648 
Q 300 1013 288 1472 
z
" transform="scale(0.015625)"/>
      <path id="ArialMT-4f" d="M 309 2231 
Q 309 3372 921 4017 
Q 1534 4663 2503 4663 
Q 3138 4663 3647 4359 
Q 4156 4056 4423 3514 
Q 4691 2972 4691 2284 
Q 4691 1588 4409 1038 
Q 4128 488 3612 205 
Q 3097 -78 2500 -78 
Q 1853 -78 1343 234 
Q 834 547 571 1087 
Q 309 1628 309 2231 
z
M 934 2222 
Q 934 1394 1379 917 
Q 1825 441 2497 441 
Q 3181 441 3623 922 
Q 4066 1403 4066 2288 
Q 4066 2847 3877 3264 
Q 3688 3681 3323 3911 
Q 2959 4141 2506 4141 
Q 1863 4141 1398 3698 
Q 934 3256 934 2222 
z
" transform="scale(0.015625)"/>
      <path id="ArialMT-47" d="M 2638 1797 
L 2638 2334 
L 4578 2338 
L 4578 638 
Q 4131 281 3656 101 
Q 3181 -78 2681 -78 
Q 2006 -78 1454 211 
Q 903 500 622 1047 
Q 341 1594 341 2269 
Q 341 2938 620 3517 
Q 900 4097 1425 4378 
Q 1950 4659 2634 4659 
Q 3131 4659 3532 4498 
Q 3934 4338 4162 4050 
Q 4391 3763 4509 3300 
L 3963 3150 
Q 3859 3500 3706 3700 
Q 3553 3900 3268 4020 
Q 2984 4141 2638 4141 
Q 2222 4141 1919 4014 
Q 1616 3888 1430 3681 
Q 1244 3475 1141 3228 
Q 966 2803 966 2306 
Q 966 1694 1177 1281 
Q 1388 869 1791 669 
Q 2194 469 2647 469 
Q 3041 469 3416 620 
Q 3791 772 3984 944 
L 3984 1797 
L 2638 1797 
z
" transform="scale(0.015625)"/>
      <path id="ArialMT-41" d="M -9 0 
L 1750 4581 
L 2403 4581 
L 4278 0 
L 3588 0 
L 3053 1388 
L 1138 1388 
L 634 0 
L -9 0 
z
M 1313 1881 
L 2866 1881 
L 2388 3150 
Q 2169 3728 2063 4100 
Q 1975 3659 1816 3225 
L 1313 1881 
z
" transform="scale(0.015625)"/>
      <path id="ArialMT-46" d="M 525 0 
L 525 4581 
L 3616 4581 
L 3616 4041 
L 1131 4041 
L 1131 2622 
L 3281 2622 
L 3281 2081 
L 1131 2081 
L 1131 0 
L 525 0 
z
" transform="scale(0.015625)"/>
      <path id="ArialMT-52" d="M 503 0 
L 503 4581 
L 2534 4581 
Q 3147 4581 3465 4457 
Q 3784 4334 3975 4021 
Q 4166 3709 4166 3331 
Q 4166 2844 3850 2509 
Q 3534 2175 2875 2084 
Q 3116 1969 3241 1856 
Q 3506 1613 3744 1247 
L 4541 0 
L 3778 0 
L 3172 953 
Q 2906 1366 2734 1584 
Q 2563 1803 2427 1890 
Q 2291 1978 2150 2013 
Q 2047 2034 1813 2034 
L 1109 2034 
L 1109 0 
L 503 0 
z
M 1109 2559 
L 2413 2559 
Q 2828 2559 3062 2645 
Q 3297 2731 3419 2920 
Q 3541 3109 3541 3331 
Q 3541 3656 3305 3865 
Q 3069 4075 2559 4075 
L 1109 4075 
L 1109 2559 
z
" transform="scale(0.015625)"/>
      <path id="ArialMT-3d" d="M 3381 2694 
L 356 2694 
L 356 3219 
L 3381 3219 
L 3381 2694 
z
M 3381 1303 
L 356 1303 
L 356 1828 
L 3381 1828 
L 3381 1303 
z
" transform="scale(0.015625)"/>
      <path id="ArialMT-43" d="M 3763 1606 
L 4369 1453 
Q 4178 706 3683 314 
Q 3188 -78 2472 -78 
Q 1731 -78 1267 223 
Q 803 525 561 1097 
Q 319 1669 319 2325 
Q 319 3041 592 3573 
Q 866 4106 1370 4382 
Q 1875 4659 2481 4659 
Q 3169 4659 3637 4309 
Q 4106 3959 4291 3325 
L 3694 3184 
Q 3534 3684 3231 3912 
Q 2928 4141 2469 4141 
Q 1941 4141 1586 3887 
Q 1231 3634 1087 3207 
Q 944 2781 944 2328 
Q 944 1744 1114 1308 
Q 1284 872 1643 656 
Q 2003 441 2422 441 
Q 2931 441 3284 734 
Q 3638 1028 3763 1606 
z
" transform="scale(0.015625)"/>
      <path id="ArialMT-56" d="M 1803 0 
L 28 4581 
L 684 4581 
L 1875 1253 
Q 2019 853 2116 503 
Q 2222 878 2363 1253 
L 3600 4581 
L 4219 4581 
L 2425 0 
L 1803 0 
z
" transform="scale(0.015625)"/>
      <path id="DejaVuSans-39" d="M 703 97 
L 703 672 
Q 941 559 1184 500 
Q 1428 441 1663 441 
Q 2288 441 2617 861 
Q 2947 1281 2994 2138 
Q 2813 1869 2534 1725 
Q 2256 1581 1919 1581 
Q 1219 1581 811 2004 
Q 403 2428 403 3163 
Q 403 3881 828 4315 
Q 1253 4750 1959 4750 
Q 2769 4750 3195 4129 
Q 3622 3509 3622 2328 
Q 3622 1225 3098 567 
Q 2575 -91 1691 -91 
Q 1453 -91 1209 -44 
Q 966 3 703 97 
z
M 1959 2075 
Q 2384 2075 2632 2365 
Q 2881 2656 2881 3163 
Q 2881 3666 2632 3958 
Q 2384 4250 1959 4250 
Q 1534 4250 1286 3958 
Q 1038 3666 1038 3163 
Q 1038 2656 1286 2365 
Q 1534 2075 1959 2075 
z
" transform="scale(0.015625)"/>
      <path id="DejaVuSans-2e" d="M 684 794 
L 1344 794 
L 1344 0 
L 684 0 
L 684 794 
z
" transform="scale(0.015625)"/>
      <path id="ArialMT-2c" d="M 569 0 
L 569 641 
L 1209 641 
L 1209 0 
Q 1209 -353 1084 -570 
Q 959 -788 688 -906 
L 531 -666 
Q 709 -588 793 -436 
Q 878 -284 888 0 
L 569 0 
z
" transform="scale(0.015625)"/>
      <path id="DejaVuSans-35" d="M 691 4666 
L 3169 4666 
L 3169 4134 
L 1269 4134 
L 1269 2991 
Q 1406 3038 1543 3061 
Q 1681 3084 1819 3084 
Q 2600 3084 3056 2656 
Q 3513 2228 3513 1497 
Q 3513 744 3044 326 
Q 2575 -91 1722 -91 
Q 1428 -91 1123 -41 
Q 819 9 494 109 
L 494 744 
Q 775 591 1075 516 
Q 1375 441 1709 441 
Q 2250 441 2565 725 
Q 2881 1009 2881 1497 
Q 2881 1984 2565 2268 
Q 2250 2553 1709 2553 
Q 1456 2553 1204 2497 
Q 953 2441 691 2322 
L 691 4666 
z
" transform="scale(0.015625)"/>
     </defs>
     <use xlink:href="#ArialMT-61" transform="translate(0 0.140625)"/>
     <use xlink:href="#ArialMT-72" transform="translate(55.615234 0.140625)"/>
     <use xlink:href="#ArialMT-67" transform="translate(88.916016 0.140625)"/>
     <use xlink:href="#ArialMT-6d" transform="translate(144.53125 0.140625)"/>
     <use xlink:href="#ArialMT-69" transform="translate(227.832031 0.140625)"/>
     <use xlink:href="#ArialMT-6e" transform="translate(250.048828 0.140625)"/>
     <use xlink:href="#ArialMT-20" transform="translate(305.664062 0.140625)"/>
     <use xlink:href="#ArialMT-69" transform="translate(333.447266 0.140625)"/>
     <use xlink:href="#ArialMT-73" transform="translate(355.664062 0.140625)"/>
     <use xlink:href="#ArialMT-20" transform="translate(405.664062 0.140625)"/>
     <use xlink:href="#ArialMT-74" transform="translate(433.447266 0.140625)"/>
     <use xlink:href="#ArialMT-72" transform="translate(461.230469 0.140625)"/>
     <use xlink:href="#ArialMT-61" transform="translate(494.53125 0.140625)"/>
     <use xlink:href="#ArialMT-6e" transform="translate(550.146484 0.140625)"/>
     <use xlink:href="#ArialMT-73" transform="translate(605.761719 0.140625)"/>
     <use xlink:href="#ArialMT-66" transform="translate(655.761719 0.140625)"/>
     <use xlink:href="#ArialMT-6f" transform="translate(683.544922 0.140625)"/>
     <use xlink:href="#ArialMT-72" transform="translate(739.160156 0.140625)"/>
     <use xlink:href="#ArialMT-6d" transform="translate(772.460938 0.140625)"/>
     <use xlink:href="#ArialMT-2d" transform="translate(855.761719 0.140625)"/>
     <use xlink:href="#ArialMT-69" transform="translate(889.0625 0.140625)"/>
     <use xlink:href="#ArialMT-6e" transform="translate(911.279297 0.140625)"/>
     <use xlink:href="#ArialMT-76" transform="translate(966.894531 0.140625)"/>
     <use xlink:href="#ArialMT-61" transform="translate(1016.894531 0.140625)"/>
     <use xlink:href="#ArialMT-72" transform="translate(1072.509766 0.140625)"/>
     <use xlink:href="#ArialMT-69" transform="translate(1105.810547 0.140625)"/>
     <use xlink:href="#ArialMT-61" transform="translate(1128.027344 0.140625)"/>
     <use xlink:href="#ArialMT-6e" transform="translate(1183.642578 0.140625)"/>
     <use xlink:href="#ArialMT-74" transform="translate(1239.257812 0.140625)"/>
     <use xlink:href="#ArialMT-3b" transform="translate(1267.041016 0.140625)"/>
     <use xlink:href="#ArialMT-20" transform="translate(1294.824219 0.140625)"/>
     <use xlink:href="#ArialMT-74" transform="translate(1322.607422 0.140625)"/>
     <use xlink:href="#ArialMT-61" transform="translate(1350.390625 0.140625)"/>
     <use xlink:href="#ArialMT-69" transform="translate(1406.005859 0.140625)"/>
     <use xlink:href="#ArialMT-6c" transform="translate(1428.222656 0.140625)"/>
     <use xlink:href="#ArialMT-2d" transform="translate(1450.439453 0.140625)"/>
     <use xlink:href="#ArialMT-77" transform="translate(1483.740234 0.140625)"/>
     <use xlink:href="#ArialMT-65" transform="translate(1555.957031 0.140625)"/>
     <use xlink:href="#ArialMT-69" transform="translate(1611.572266 0.140625)"/>
     <use xlink:href="#ArialMT-67" transform="translate(1633.789062 0.140625)"/>
     <use xlink:href="#ArialMT-68" transform="translate(1689.404297 0.140625)"/>
     <use xlink:href="#ArialMT-74" transform="translate(1745.019531 0.140625)"/>
     <use xlink:href="#ArialMT-20" transform="translate(1772.802734 0.140625)"/>
     <use xlink:href="#ArialMT-73" transform="translate(1800.585938 0.140625)"/>
     <use xlink:href="#ArialMT-68" transform="translate(1850.585938 0.140625)"/>
     <use xlink:href="#ArialMT-69" transform="translate(1906.201172 0.140625)"/>
     <use xlink:href="#ArialMT-66" transform="translate(1928.417969 0.140625)"/>
     <use xlink:href="#ArialMT-74" transform="translate(1956.201172 0.140625)"/>
     <use xlink:href="#ArialMT-73" transform="translate(1983.984375 0.140625)"/>
     <use xlink:href="#ArialMT-20" transform="translate(2033.984375 0.140625)"/>
     <use xlink:href="#ArialMT-63" transform="translate(2061.767578 0.140625)"/>
     <use xlink:href="#ArialMT-61" transform="translate(2111.767578 0.140625)"/>
     <use xlink:href="#ArialMT-70" transform="translate(2167.382812 0.140625)"/>
     <use xlink:href="#ArialMT-74" transform="translate(2222.998047 0.140625)"/>
     <use xlink:href="#ArialMT-75" transform="translate(2250.78125 0.140625)"/>
     <use xlink:href="#ArialMT-72" transform="translate(2306.396484 0.140625)"/>
     <use xlink:href="#ArialMT-65" transform="translate(2339.697266 0.140625)"/>
     <use xlink:href="#ArialMT-20" transform="translate(2395.3125 0.140625)"/>
     <use xlink:href="#ArialMT-73" transform="translate(2423.095703 0.140625)"/>
     <use xlink:href="#ArialMT-65" transform="translate(2473.095703 0.140625)"/>
     <use xlink:href="#ArialMT-70" transform="translate(2528.710938 0.140625)"/>
     <use xlink:href="#ArialMT-61" transform="translate(2584.326172 0.140625)"/>
     <use xlink:href="#ArialMT-72" transform="translate(2639.941406 0.140625)"/>
     <use xlink:href="#ArialMT-61" transform="translate(2673.242188 0.140625)"/>
     <use xlink:href="#ArialMT-74" transform="translate(2728.857422 0.140625)"/>
     <use xlink:href="#ArialMT-69" transform="translate(2756.640625 0.140625)"/>
     <use xlink:href="#ArialMT-6f" transform="translate(2778.857422 0.140625)"/>
     <use xlink:href="#ArialMT-6e" transform="translate(2834.472656 0.140625)"/>
     <use xlink:href="#ArialMT-20" transform="translate(2890.087891 0.140625)"/>
     <use xlink:href="#ArialMT-75" transform="translate(2917.871094 0.140625)"/>
     <use xlink:href="#ArialMT-6e" transform="translate(2973.486328 0.140625)"/>
     <use xlink:href="#ArialMT-64" transform="translate(3029.101562 0.140625)"/>
     <use xlink:href="#ArialMT-65" transform="translate(3084.716797 0.140625)"/>
     <use xlink:href="#ArialMT-72" transform="translate(3140.332031 0.140625)"/>
     <use xlink:href="#ArialMT-20" transform="translate(3173.632812 0.140625)"/>
     <use xlink:href="#ArialMT-72" transform="translate(3201.416016 0.140625)"/>
     <use xlink:href="#ArialMT-61" transform="translate(3234.716797 0.140625)"/>
     <use xlink:href="#ArialMT-6e" transform="translate(3290.332031 0.140625)"/>
     <use xlink:href="#ArialMT-6b" transform="translate(3345.947266 0.140625)"/>
     <use xlink:href="#ArialMT-2d" transform="translate(3395.947266 0.140625)"/>
     <use xlink:href="#ArialMT-66" transform="translate(3429.248047 0.140625)"/>
     <use xlink:href="#ArialMT-72" transform="translate(3457.03125 0.140625)"/>
     <use xlink:href="#ArialMT-65" transform="translate(3490.332031 0.140625)"/>
     <use xlink:href="#ArialMT-65" transform="translate(3545.947266 0.140625)"/>
     <use xlink:href="#ArialMT-20" transform="translate(3601.5625 0.140625)"/>
     <use xlink:href="#ArialMT-50" transform="translate(3629.345703 0.140625)"/>
     <use xlink:href="#ArialMT-53" transform="translate(3696.044922 0.140625)"/>
     <use xlink:href="#ArialMT-4f" transform="translate(3762.744141 0.140625)"/>
     <use xlink:href="#ArialMT-2f" transform="translate(3840.527344 0.140625)"/>
     <use xlink:href="#ArialMT-47" transform="translate(3868.310547 0.140625)"/>
     <use xlink:href="#ArialMT-41" transform="translate(3946.09375 0.140625)"/>
     <use xlink:href="#ArialMT-2e" transform="translate(4012.792969 0.140625)"/>
     <use xlink:href="#ArialMT-20" transform="translate(4040.576172 0.140625)"/>
     <use xlink:href="#ArialMT-63" transform="translate(4068.359375 0.140625)"/>
     <use xlink:href="#ArialMT-75" transform="translate(4118.359375 0.140625)"/>
     <use xlink:href="#ArialMT-62" transform="translate(4173.974609 0.140625)"/>
     <use xlink:href="#ArialMT-65" transform="translate(4229.589844 0.140625)"/>
     <use xlink:href="#ArialMT-64" transform="translate(4285.205078 0.140625)"/>
     <use xlink:href="#ArialMT-20" transform="translate(4340.820312 0.140625)"/>
     <use xlink:href="#ArialMT-77" transform="translate(4368.603516 0.140625)"/>
     <use xlink:href="#ArialMT-69" transform="translate(4440.820312 0.140625)"/>
     <use xlink:href="#ArialMT-6e" transform="translate(4463.037109 0.140625)"/>
     <use xlink:href="#ArialMT-73" transform="translate(4518.652344 0.140625)"/>
     <use xlink:href="#ArialMT-20" transform="translate(4568.652344 0.140625)"/>
     <use xlink:href="#ArialMT-74" transform="translate(4596.435547 0.140625)"/>
     <use xlink:href="#ArialMT-68" transform="translate(4624.21875 0.140625)"/>
     <use xlink:href="#ArialMT-65" transform="translate(4679.833984 0.140625)"/>
     <use xlink:href="#ArialMT-20" transform="translate(4735.449219 0.140625)"/>
     <use xlink:href="#ArialMT-46" transform="translate(4763.232422 0.140625)"/>
     <use xlink:href="#ArialMT-41" transform="translate(4824.316406 0.140625)"/>
     <use xlink:href="#ArialMT-52" transform="translate(4891.015625 0.140625)"/>
     <use xlink:href="#ArialMT-20" transform="translate(4963.232422 0.140625)"/>
     <use xlink:href="#ArialMT-74" transform="translate(4991.015625 0.140625)"/>
     <use xlink:href="#ArialMT-61" transform="translate(5018.798828 0.140625)"/>
     <use xlink:href="#ArialMT-69" transform="translate(5074.414062 0.140625)"/>
     <use xlink:href="#ArialMT-6c" transform="translate(5096.630859 0.140625)"/>
     <use xlink:href="#ArialMT-20" transform="translate(5118.847656 0.140625)"/>
     <use xlink:href="#ArialMT-28" transform="translate(5146.630859 0.140625)"/>
     <use xlink:href="#ArialMT-6e" transform="translate(5179.931641 0.140625)"/>
     <use xlink:href="#ArialMT-3d" transform="translate(5235.546875 0.140625)"/>
     <use xlink:href="#ArialMT-31" transform="translate(5293.945312 0.140625)"/>
     <use xlink:href="#ArialMT-30" transform="translate(5349.560547 0.140625)"/>
     <use xlink:href="#ArialMT-30" transform="translate(5405.175781 0.140625)"/>
     <use xlink:href="#ArialMT-30" transform="translate(5460.791016 0.140625)"/>
     <use xlink:href="#ArialMT-30" transform="translate(5516.40625 0.140625)"/>
     <use xlink:href="#ArialMT-20" transform="translate(5572.021484 0.140625)"/>
     <use xlink:href="#ArialMT-43" transform="translate(5599.804688 0.140625)"/>
     <use xlink:href="#ArialMT-56" transform="translate(5672.021484 0.140625)"/>
     <use xlink:href="#ArialMT-61" transform="translate(5738.720703 0.140625)"/>
     <use xlink:href="#ArialMT-52" transform="translate(5794.335938 0.140625)"/>
     <use xlink:href="#DejaVuSans-39" transform="translate(5867.509766 -16.265625) scale(0.7)"/>
     <use xlink:href="#DejaVuSans-39" transform="translate(5912.045898 -16.265625) scale(0.7)"/>
     <use xlink:href="#DejaVuSans-2e" transform="translate(5956.582031 -16.265625) scale(0.7)"/>
     <use xlink:href="#DejaVuSans-39" transform="translate(5978.833008 -16.265625) scale(0.7)"/>
     <use xlink:href="#ArialMT-29" transform="translate(6026.103516 0.140625)"/>
     <use xlink:href="#ArialMT-2c" transform="translate(6059.404297 0.140625)"/>
     <use xlink:href="#ArialMT-20" transform="translate(6087.1875 0.140625)"/>
     <use xlink:href="#ArialMT-6e" transform="translate(6114.970703 0.140625)"/>
     <use xlink:href="#ArialMT-6f" transform="translate(6170.585938 0.140625)"/>
     <use xlink:href="#ArialMT-74" transform="translate(6226.201172 0.140625)"/>
     <use xlink:href="#ArialMT-20" transform="translate(6253.984375 0.140625)"/>
     <use xlink:href="#ArialMT-76" transform="translate(6281.767578 0.140625)"/>
     <use xlink:href="#ArialMT-69" transform="translate(6331.767578 0.140625)"/>
     <use xlink:href="#ArialMT-73" transform="translate(6353.984375 0.140625)"/>
     <use xlink:href="#ArialMT-69" transform="translate(6403.984375 0.140625)"/>
     <use xlink:href="#ArialMT-62" transform="translate(6426.201172 0.140625)"/>
     <use xlink:href="#ArialMT-6c" transform="translate(6481.816406 0.140625)"/>
     <use xlink:href="#ArialMT-65" transform="translate(6504.033203 0.140625)"/>
     <use xlink:href="#ArialMT-20" transform="translate(6559.648438 0.140625)"/>
     <use xlink:href="#ArialMT-61" transform="translate(6587.431641 0.140625)"/>
     <use xlink:href="#ArialMT-74" transform="translate(6643.046875 0.140625)"/>
     <use xlink:href="#ArialMT-20" transform="translate(6670.830078 0.140625)"/>
     <use xlink:href="#ArialMT-43" transform="translate(6698.613281 0.140625)"/>
     <use xlink:href="#ArialMT-56" transform="translate(6770.830078 0.140625)"/>
     <use xlink:href="#ArialMT-61" transform="translate(6837.529297 0.140625)"/>
     <use xlink:href="#ArialMT-52" transform="translate(6893.144531 0.140625)"/>
     <use xlink:href="#DejaVuSans-39" transform="translate(6966.318359 -16.265625) scale(0.7)"/>
     <use xlink:href="#DejaVuSans-35" transform="translate(7010.854492 -16.265625) scale(0.7)"/>
     <use xlink:href="#ArialMT-2e" transform="translate(7058.125 0.140625)"/>
    </g>
   </g>
   <g id="text_27">
    <!-- Sizing tail vs cost transform (NN weights, n=1000) -->
    <g style="fill: #262626" transform="translate(48.963539 14.479688) scale(0.1 -0.1)">
     <defs>
      <path id="ArialMT-7a" d="M 125 0 
L 125 456 
L 2238 2881 
Q 1878 2863 1603 2863 
L 250 2863 
L 250 3319 
L 2963 3319 
L 2963 2947 
L 1166 841 
L 819 456 
Q 1197 484 1528 484 
L 3063 484 
L 3063 0 
L 125 0 
z
" transform="scale(0.015625)"/>
      <path id="ArialMT-4e" d="M 488 0 
L 488 4581 
L 1109 4581 
L 3516 984 
L 3516 4581 
L 4097 4581 
L 4097 0 
L 3475 0 
L 1069 3600 
L 1069 0 
L 488 0 
z
" transform="scale(0.015625)"/>
     </defs>
     <use xlink:href="#ArialMT-53"/>
     <use xlink:href="#ArialMT-69" transform="translate(66.699219 0)"/>
     <use xlink:href="#ArialMT-7a" transform="translate(88.916016 0)"/>
     <use xlink:href="#ArialMT-69" transform="translate(138.916016 0)"/>
     <use xlink:href="#ArialMT-6e" transform="translate(161.132812 0)"/>
     <use xlink:href="#ArialMT-67" transform="translate(216.748047 0)"/>
     <use xlink:href="#ArialMT-20" transform="translate(272.363281 0)"/>
     <use xlink:href="#ArialMT-74" transform="translate(300.146484 0)"/>
     <use xlink:href="#ArialMT-61" transform="translate(327.929688 0)"/>
     <use xlink:href="#ArialMT-69" transform="translate(383.544922 0)"/>
     <use xlink:href="#ArialMT-6c" transform="translate(405.761719 0)"/>
     <use xlink:href="#ArialMT-20" transform="translate(427.978516 0)"/>
     <use xlink:href="#ArialMT-76" transform="translate(455.761719 0)"/>
     <use xlink:href="#ArialMT-73" transform="translate(505.761719 0)"/>
     <use xlink:href="#ArialMT-20" transform="translate(555.761719 0)"/>
     <use xlink:href="#ArialMT-63" transform="translate(583.544922 0)"/>
     <use xlink:href="#ArialMT-6f" transform="translate(633.544922 0)"/>
     <use xlink:href="#ArialMT-73" transform="translate(689.160156 0)"/>
     <use xlink:href="#ArialMT-74" transform="translate(739.160156 0)"/>
     <use xlink:href="#ArialMT-20" transform="translate(766.943359 0)"/>
     <use xlink:href="#ArialMT-74" transform="translate(794.726562 0)"/>
     <use xlink:href="#ArialMT-72" transform="translate(822.509766 0)"/>
     <use xlink:href="#ArialMT-61" transform="translate(855.810547 0)"/>
     <use xlink:href="#ArialMT-6e" transform="translate(911.425781 0)"/>
     <use xlink:href="#ArialMT-73" transform="translate(967.041016 0)"/>
     <use xlink:href="#ArialMT-66" transform="translate(1017.041016 0)"/>
     <use xlink:href="#ArialMT-6f" transform="translate(1044.824219 0)"/>
     <use xlink:href="#ArialMT-72" transform="translate(1100.439453 0)"/>
     <use xlink:href="#ArialMT-6d" transform="translate(1133.740234 0)"/>
     <use xlink:href="#ArialMT-20" transform="translate(1217.041016 0)"/>
     <use xlink:href="#ArialMT-28" transform="translate(1244.824219 0)"/>
     <use xlink:href="#ArialMT-4e" transform="translate(1278.125 0)"/>
     <use xlink:href="#ArialMT-4e" transform="translate(1350.341797 0)"/>
     <use xlink:href="#ArialMT-20" transform="translate(1422.558594 0)"/>
     <use xlink:href="#ArialMT-77" transform="translate(1450.341797 0)"/>
     <use xlink:href="#ArialMT-65" transform="translate(1522.558594 0)"/>
     <use xlink:href="#ArialMT-69" transform="translate(1578.173828 0)"/>
     <use xlink:href="#ArialMT-67" transform="translate(1600.390625 0)"/>
     <use xlink:href="#ArialMT-68" transform="translate(1656.005859 0)"/>
     <use xlink:href="#ArialMT-74" transform="translate(1711.621094 0)"/>
     <use xlink:href="#ArialMT-73" transform="translate(1739.404297 0)"/>
     <use xlink:href="#ArialMT-2c" transform="translate(1789.404297 0)"/>
     <use xlink:href="#ArialMT-20" transform="translate(1817.1875 0)"/>
     <use xlink:href="#ArialMT-6e" transform="translate(1844.970703 0)"/>
     <use xlink:href="#ArialMT-3d" transform="translate(1900.585938 0)"/>
     <use xlink:href="#ArialMT-31" transform="translate(1958.984375 0)"/>
     <use xlink:href="#ArialMT-30" transform="translate(2014.599609 0)"/>
     <use xlink:href="#ArialMT-30" transform="translate(2070.214844 0)"/>
     <use xlink:href="#ArialMT-30" transform="translate(2125.830078 0)"/>
     <use xlink:href="#ArialMT-29" transform="translate(2181.445312 0)"/>
    </g>
   </g>
   <g id="legend_1">
    <g id="patch_17">
     <path d="M 54.913539 51.351953 
L 112.713539 51.351953 
Q 114.413539 51.351953 114.413539 49.651953 
L 114.413539 26.429688 
Q 114.413539 24.729688 112.713539 24.729688 
L 54.913539 24.729688 
Q 53.213539 24.729688 53.213539 26.429688 
L 53.213539 49.651953 
Q 53.213539 51.351953 54.913539 51.351953 
z
" style="fill: #f5f5f5; opacity: 0.8; stroke: #cccccc; stroke-linejoin: miter"/>
    </g>
    <g id="patch_18">
     <path d="M 56.613539 34.213828 
L 73.613539 34.213828 
L 73.613539 28.263828 
L 56.613539 28.263828 
z
" style="fill: #4878cf; stroke: #ffffff; stroke-linejoin: miter"/>
    </g>
    <g id="text_28">
     <!-- CVaR$_{95}$ -->
     <g style="fill: #262626" transform="translate(80.413539 34.213828) scale(0.085 -0.085)">
      <use xlink:href="#ArialMT-43" transform="translate(0 0.203125)"/>
      <use xlink:href="#ArialMT-56" transform="translate(72.216797 0.203125)"/>
      <use xlink:href="#ArialMT-61" transform="translate(138.916016 0.203125)"/>
      <use xlink:href="#ArialMT-52" transform="translate(194.53125 0.203125)"/>
      <use xlink:href="#DejaVuSans-39" transform="translate(267.705078 -16.203125) scale(0.7)"/>
      <use xlink:href="#DejaVuSans-35" transform="translate(312.241211 -16.203125) scale(0.7)"/>
     </g>
    </g>
    <g id="patch_19">
     <path d="M 56.613539 46.262578 
L 73.613539 46.262578 
L 73.613539 40.312578 
L 56.613539 40.312578 
z
" style="fill: #999999; opacity: 0.65; stroke: #ffffff; stroke-linejoin: miter"/>
    </g>
    <g id="text_29">
     <!-- p99 -->
     <g style="fill: #262626" transform="translate(80.413539 46.262578) scale(0.085 -0.085)">
      <use xlink:href="#ArialMT-70"/>
      <use xlink:href="#ArialMT-39" transform="translate(55.615234 0)"/>
      <use xlink:href="#ArialMT-39" transform="translate(111.230469 0)"/>
     </g>
    </g>
   </g>
  </g>
 </g>
 <defs>
  <clipPath id="p93e4f3b56c">
   <rect x="48.963539" y="20.479688" width="482.952649" height="164.6094"/>
  </clipPath>
 </defs>
</svg>
