<?xml version="1.0" encoding="utf-8" standalone="no"?>
<!DOCTYPE svg PUBLIC "-//W3C//DTD SVG 1.1//EN"
  "http://www.w3.org/Graphics/SVG/1.1/DTD/svg11.dtd">
<svg xmlns:xlink="http://www.w3.org/1999/xlink" width="593.499539pt" height="262.403039pt" viewBox="0 0 593.499539 262.403039" xmlns="http://www.w3.org/2000/svg" version="1.1">
 <metadata>
  <rdf:RDF xmlns:dc="http://purl.org/dc/elements/1.1/" xmlns:cc="http://creativecommons.org/ns#" xmlns:rdf="http://www.w3.org/1999/02/22-rdf-syntax-ns#">
   <cc:Work>
    <dc:type rdf:resource="http://purl.org/dc/dcmitype/StillImage"/>
    <dc:date>2026-06-27T12:41:06.290486</dc:date>
    <dc:format>image/svg+xml</dc:format>
    <dc:creator>
     <cc:Agent>
      <dc:title>Matplotlib v3.10.9, https://matplotlib.org/</dc:title>
     </cc:Agent>
    </dc:creator>
   </cc:Work>
  </rdf:RDF>
 </metadata>
 <defs>
  <style type="text/css">*{stroke-linejoin: round; stroke-linecap: butt}</style>
 </defs>
 <g id="figure_1">
  <g id="patch_1">
   <path d="M 0 262.403039 
L 593.499539 262.403039 
L 593.499539 0 
L 0 0 
z
" style="fill: #ffffff"/>
  </g>
  <g id="axes_1">
   <g id="patch_2">
    <path d="M 48.963539 221.448 
L 297.995539 221.448 
L 297.995539 20.7 
L 48.963539 20.7 
z
" style="fill: #f5f5f5"/>
   </g>
   <g id="matplotlib.axis_1">
    <g id="xtick_1">
     <g id="line2d_1">
      <path d="M 73.06341 221.448 
L 73.06341 20.7 
" clip-path="url(#pa70a7996a9)" style="fill: none; stroke: #cccccc; stroke-linecap: round"/>
     </g>
     <g id="text_1">
      <!-- 2 -->
      <g style="fill: #262626" transform="translate(70.15782 238.427914) scale(0.1045 -0.1045)">
       <defs>
        <path id="ArialMT-32" d="M 3222 541 
L 3222 0 
L 194 0 
Q 188 203 259 391 
Q 375 700 629 1000 
Q 884 1300 1366 1694 
Q 2113 2306 2375 2664 
Q 2638 3022 2638 3341 
Q 2638 3675 2398 3904 
Q 2159 4134 1775 4134 
Q 1369 4134 1125 3890 
Q 881 3647 878 3216 
L 300 3275 
Q 359 3922 746 4261 
Q 1134 4600 1788 4600 
Q 2447 4600 2831 4234 
Q 3216 3869 3216 3328 
Q 3216 3053 3103 2787 
Q 2991 2522 2730 2228 
Q 2469 1934 1863 1422 
Q 1356 997 1212 845 
Q 1069 694 975 541 
L 3222 541 
z
" transform="scale(0.015625)"/>
       </defs>
       <use xlink:href="#ArialMT-32"/>
      </g>
     </g>
    </g>
    <g id="xtick_2">
     <g id="line2d_2">
      <path d="M 134.491041 221.448 
L 134.491041 20.7 
" clip-path="url(#pa70a7996a9)" style="fill: none; stroke: #cccccc; stroke-linecap: round"/>
     </g>
     <g id="text_2">
      <!-- 5 -->
      <g style="fill: #262626" transform="translate(131.585451 238.427914) scale(0.1045 -0.1045)">
       <defs>
        <path id="ArialMT-35" d="M 266 1200 
L 856 1250 
Q 922 819 1161 601 
Q 1400 384 1738 384 
Q 2144 384 2425 690 
Q 2706 997 2706 1503 
Q 2706 1984 2436 2262 
Q 2166 2541 1728 2541 
Q 1456 2541 1237 2417 
Q 1019 2294 894 2097 
L 366 2166 
L 809 4519 
L 3088 4519 
L 3088 3981 
L 1259 3981 
L 1013 2750 
Q 1425 3038 1878 3038 
Q 2478 3038 2890 2622 
Q 3303 2206 3303 1553 
Q 3303 931 2941 478 
Q 2500 -78 1738 -78 
Q 1113 -78 717 272 
Q 322 622 266 1200 
z
" transform="scale(0.015625)"/>
       </defs>
       <use xlink:href="#ArialMT-35"/>
      </g>
     </g>
    </g>
    <g id="xtick_3">
     <g id="line2d_3">
      <path d="M 180.95925 221.448 
L 180.95925 20.7 
" clip-path="url(#pa70a7996a9)" style="fill: none; stroke: #cccccc; stroke-linecap: round"/>
     </g>
     <g id="text_3">
      <!-- 10 -->
      <g style="fill: #262626" transform="translate(175.14807 238.427914) scale(0.1045 -0.1045)">
       <defs>
        <path id="ArialMT-31" d="M 2384 0 
L 1822 0 
L 1822 3584 
Q 1619 3391 1289 3197 
Q 959 3003 697 2906 
L 697 3450 
Q 1169 3672 1522 3987 
Q 1875 4303 2022 4600 
L 2384 4600 
L 2384 0 
z
" transform="scale(0.015625)"/>
        <path id="ArialMT-30" d="M 266 2259 
Q 266 3072 433 3567 
Q 600 4063 929 4331 
Q 1259 4600 1759 4600 
Q 2128 4600 2406 4451 
Q 2684 4303 2865 4023 
Q 3047 3744 3150 3342 
Q 3253 2941 3253 2259 
Q 3253 1453 3087 958 
Q 2922 463 2592 192 
Q 2263 -78 1759 -78 
Q 1097 -78 719 397 
Q 266 969 266 2259 
z
M 844 2259 
Q 844 1131 1108 757 
Q 1372 384 1759 384 
Q 2147 384 2411 759 
Q 2675 1134 2675 2259 
Q 2675 3391 2411 3762 
Q 2147 4134 1753 4134 
Q 1366 4134 1134 3806 
Q 844 3388 844 2259 
z
" transform="scale(0.015625)"/>
       </defs>
       <use xlink:href="#ArialMT-31"/>
       <use xlink:href="#ArialMT-30" transform="translate(55.615234 0)"/>
      </g>
     </g>
    </g>
    <g id="xtick_4">
     <g id="line2d_4">
      <path d="M 227.427459 221.448 
L 227.427459 20.7 
" clip-path="url(#pa70a7996a9)" style="fill: none; stroke: #cccccc; stroke-linecap: round"/>
     </g>
     <g id="text_4">
      <!-- 20 -->
      <g style="fill: #262626" transform="translate(221.616279 238.427914) scale(0.1045 -0.1045)">
       <use xlink:href="#ArialMT-32"/>
       <use xlink:href="#ArialMT-30" transform="translate(55.615234 0)"/>
      </g>
     </g>
    </g>
    <g id="xtick_5">
     <g id="line2d_5">
      <path d="M 273.895668 221.448 
L 273.895668 20.7 
" clip-path="url(#pa70a7996a9)" style="fill: none; stroke: #cccccc; stroke-linecap: round"/>
     </g>
     <g id="text_5">
      <!-- 40 -->
      <g style="fill: #262626" transform="translate(268.084488 238.427914) scale(0.1045 -0.1045)">
       <defs>
        <path id="ArialMT-34" d="M 2069 0 
L 2069 1097 
L 81 1097 
L 81 1613 
L 2172 4581 
L 2631 4581 
L 2631 1613 
L 3250 1613 
L 3250 1097 
L 2631 1097 
L 2631 0 
L 2069 0 
z
M 2069 1613 
L 2069 3678 
L 634 1613 
L 2069 1613 
z
" transform="scale(0.015625)"/>
       </defs>
       <use xlink:href="#ArialMT-34"/>
       <use xlink:href="#ArialMT-30" transform="translate(55.615234 0)"/>
      </g>
     </g>
    </g>
    <g id="xtick_6"/>
    <g id="xtick_7"/>
    <g id="xtick_8"/>
    <g id="xtick_9"/>
    <g id="xtick_10"/>
    <g id="xtick_11"/>
    <g id="xtick_12"/>
    <g id="xtick_13"/>
    <g id="text_6">
     <!-- training sims / individual -->
     <g style="fill: #262626" transform="translate(112.973148 252.803695) scale(0.114 -0.114)">
      <defs>
       <path id="ArialMT-74" d="M 1650 503 
L 1731 6 
Q 1494 -44 1306 -44 
Q 1000 -44 831 53 
Q 663 150 594 308 
Q 525 466 525 972 
L 525 2881 
L 113 2881 
L 113 3319 
L 525 3319 
L 525 4141 
L 1084 4478 
L 1084 3319 
L 1650 3319 
L 1650 2881 
L 1084 2881 
L 1084 941 
Q 1084 700 1114 631 
Q 1144 563 1211 522 
Q 1278 481 1403 481 
Q 1497 481 1650 503 
z
" transform="scale(0.015625)"/>
       <path id="ArialMT-72" d="M 416 0 
L 416 3319 
L 922 3319 
L 922 2816 
Q 1116 3169 1280 3281 
Q 1444 3394 1641 3394 
Q 1925 3394 2219 3213 
L 2025 2691 
Q 1819 2813 1613 2813 
Q 1428 2813 1281 2702 
Q 1134 2591 1072 2394 
Q 978 2094 978 1738 
L 978 0 
L 416 0 
z
" transform="scale(0.015625)"/>
       <path id="ArialMT-61" d="M 2588 409 
Q 2275 144 1986 34 
Q 1697 -75 1366 -75 
Q 819 -75 525 192 
Q 231 459 231 875 
Q 231 1119 342 1320 
Q 453 1522 633 1644 
Q 813 1766 1038 1828 
Q 1203 1872 1538 1913 
Q 2219 1994 2541 2106 
Q 2544 2222 2544 2253 
Q 2544 2597 2384 2738 
Q 2169 2928 1744 2928 
Q 1347 2928 1158 2789 
Q 969 2650 878 2297 
L 328 2372 
Q 403 2725 575 2942 
Q 747 3159 1072 3276 
Q 1397 3394 1825 3394 
Q 2250 3394 2515 3294 
Q 2781 3194 2906 3042 
Q 3031 2891 3081 2659 
Q 3109 2516 3109 2141 
L 3109 1391 
Q 3109 606 3145 398 
Q 3181 191 3288 0 
L 2700 0 
Q 2613 175 2588 409 
z
M 2541 1666 
Q 2234 1541 1622 1453 
Q 1275 1403 1131 1340 
Q 988 1278 909 1158 
Q 831 1038 831 891 
Q 831 666 1001 516 
Q 1172 366 1500 366 
Q 1825 366 2078 508 
Q 2331 650 2450 897 
Q 2541 1088 2541 1459 
L 2541 1666 
z
" transform="scale(0.015625)"/>
       <path id="ArialMT-69" d="M 425 3934 
L 425 4581 
L 988 4581 
L 988 3934 
L 425 3934 
z
M 425 0 
L 425 3319 
L 988 3319 
L 988 0 
L 425 0 
z
" transform="scale(0.015625)"/>
       <path id="ArialMT-6e" d="M 422 0 
L 422 3319 
L 928 3319 
L 928 2847 
Q 1294 3394 1984 3394 
Q 2284 3394 2536 3286 
Q 2788 3178 2913 3003 
Q 3038 2828 3088 2588 
Q 3119 2431 3119 2041 
L 3119 0 
L 2556 0 
L 2556 2019 
Q 2556 2363 2490 2533 
Q 2425 2703 2258 2804 
Q 2091 2906 1866 2906 
Q 1506 2906 1245 2678 
Q 984 2450 984 1813 
L 984 0 
L 422 0 
z
" transform="scale(0.015625)"/>
       <path id="ArialMT-67" d="M 319 -275 
L 866 -356 
Q 900 -609 1056 -725 
Q 1266 -881 1628 -881 
Q 2019 -881 2231 -725 
Q 2444 -569 2519 -288 
Q 2563 -116 2559 434 
Q 2191 0 1641 0 
Q 956 0 581 494 
Q 206 988 206 1678 
Q 206 2153 378 2554 
Q 550 2956 876 3175 
Q 1203 3394 1644 3394 
Q 2231 3394 2613 2919 
L 2613 3319 
L 3131 3319 
L 3131 450 
Q 3131 -325 2973 -648 
Q 2816 -972 2473 -1159 
Q 2131 -1347 1631 -1347 
Q 1038 -1347 672 -1080 
Q 306 -813 319 -275 
z
M 784 1719 
Q 784 1066 1043 766 
Q 1303 466 1694 466 
Q 2081 466 2343 764 
Q 2606 1063 2606 1700 
Q 2606 2309 2336 2618 
Q 2066 2928 1684 2928 
Q 1309 2928 1046 2623 
Q 784 2319 784 1719 
z
" transform="scale(0.015625)"/>
       <path id="ArialMT-20" transform="scale(0.015625)"/>
       <path id="ArialMT-73" d="M 197 991 
L 753 1078 
Q 800 744 1014 566 
Q 1228 388 1613 388 
Q 2000 388 2187 545 
Q 2375 703 2375 916 
Q 2375 1106 2209 1216 
Q 2094 1291 1634 1406 
Q 1016 1563 777 1677 
Q 538 1791 414 1992 
Q 291 2194 291 2438 
Q 291 2659 392 2848 
Q 494 3038 669 3163 
Q 800 3259 1026 3326 
Q 1253 3394 1513 3394 
Q 1903 3394 2198 3281 
Q 2494 3169 2634 2976 
Q 2775 2784 2828 2463 
L 2278 2388 
Q 2241 2644 2061 2787 
Q 1881 2931 1553 2931 
Q 1166 2931 1000 2803 
Q 834 2675 834 2503 
Q 834 2394 903 2306 
Q 972 2216 1119 2156 
Q 1203 2125 1616 2013 
Q 2213 1853 2448 1751 
Q 2684 1650 2818 1456 
Q 2953 1263 2953 975 
Q 2953 694 2789 445 
Q 2625 197 2315 61 
Q 2006 -75 1616 -75 
Q 969 -75 630 194 
Q 291 463 197 991 
z
" transform="scale(0.015625)"/>
       <path id="ArialMT-6d" d="M 422 0 
L 422 3319 
L 925 3319 
L 925 2853 
Q 1081 3097 1340 3245 
Q 1600 3394 1931 3394 
Q 2300 3394 2536 3241 
Q 2772 3088 2869 2813 
Q 3263 3394 3894 3394 
Q 4388 3394 4653 3120 
Q 4919 2847 4919 2278 
L 4919 0 
L 4359 0 
L 4359 2091 
Q 4359 2428 4304 2576 
Q 4250 2725 4106 2815 
Q 3963 2906 3769 2906 
Q 3419 2906 3187 2673 
Q 2956 2441 2956 1928 
L 2956 0 
L 2394 0 
L 2394 2156 
Q 2394 2531 2256 2718 
Q 2119 2906 1806 2906 
Q 1569 2906 1367 2781 
Q 1166 2656 1075 2415 
Q 984 2175 984 1722 
L 984 0 
L 422 0 
z
" transform="scale(0.015625)"/>
       <path id="ArialMT-2f" d="M 0 -78 
L 1328 4659 
L 1778 4659 
L 453 -78 
L 0 -78 
z
" transform="scale(0.015625)"/>
       <path id="ArialMT-64" d="M 2575 0 
L 2575 419 
Q 2259 -75 1647 -75 
Q 1250 -75 917 144 
Q 584 363 401 755 
Q 219 1147 219 1656 
Q 219 2153 384 2558 
Q 550 2963 881 3178 
Q 1213 3394 1622 3394 
Q 1922 3394 2156 3267 
Q 2391 3141 2538 2938 
L 2538 4581 
L 3097 4581 
L 3097 0 
L 2575 0 
z
M 797 1656 
Q 797 1019 1065 703 
Q 1334 388 1700 388 
Q 2069 388 2326 689 
Q 2584 991 2584 1609 
Q 2584 2291 2321 2609 
Q 2059 2928 1675 2928 
Q 1300 2928 1048 2622 
Q 797 2316 797 1656 
z
" transform="scale(0.015625)"/>
       <path id="ArialMT-76" d="M 1344 0 
L 81 3319 
L 675 3319 
L 1388 1331 
Q 1503 1009 1600 663 
Q 1675 925 1809 1294 
L 2547 3319 
L 3125 3319 
L 1869 0 
L 1344 0 
z
" transform="scale(0.015625)"/>
       <path id="ArialMT-75" d="M 2597 0 
L 2597 488 
Q 2209 -75 1544 -75 
Q 1250 -75 995 37 
Q 741 150 617 320 
Q 494 491 444 738 
Q 409 903 409 1263 
L 409 3319 
L 972 3319 
L 972 1478 
Q 972 1038 1006 884 
Q 1059 663 1231 536 
Q 1403 409 1656 409 
Q 1909 409 2131 539 
Q 2353 669 2445 892 
Q 2538 1116 2538 1541 
L 2538 3319 
L 3100 3319 
L 3100 0 
L 2597 0 
z
" transform="scale(0.015625)"/>
       <path id="ArialMT-6c" d="M 409 0 
L 409 4581 
L 972 4581 
L 972 0 
L 409 0 
z
" transform="scale(0.015625)"/>
      </defs>
      <use xlink:href="#ArialMT-74"/>
      <use xlink:href="#ArialMT-72" transform="translate(27.783203 0)"/>
      <use xlink:href="#ArialMT-61" transform="translate(61.083984 0)"/>
      <use xlink:href="#ArialMT-69" transform="translate(116.699219 0)"/>
      <use xlink:href="#ArialMT-6e" transform="translate(138.916016 0)"/>
      <use xlink:href="#ArialMT-69" transform="translate(194.53125 0)"/>
      <use xlink:href="#ArialMT-6e" transform="translate(216.748047 0)"/>
      <use xlink:href="#ArialMT-67" transform="translate(272.363281 0)"/>
      <use xlink:href="#ArialMT-20" transform="translate(327.978516 0)"/>
      <use xlink:href="#ArialMT-73" transform="translate(355.761719 0)"/>
      <use xlink:href="#ArialMT-69" transform="translate(405.761719 0)"/>
      <use xlink:href="#ArialMT-6d" transform="translate(427.978516 0)"/>
      <use xlink:href="#ArialMT-73" transform="translate(511.279297 0)"/>
      <use xlink:href="#ArialMT-20" transform="translate(561.279297 0)"/>
      <use xlink:href="#ArialMT-2f" transform="translate(589.0625 0)"/>
      <use xlink:href="#ArialMT-20" transform="translate(616.845703 0)"/>
      <use xlink:href="#ArialMT-69" transform="translate(644.628906 0)"/>
      <use xlink:href="#ArialMT-6e" transform="translate(666.845703 0)"/>
      <use xlink:href="#ArialMT-64" transform="translate(722.460938 0)"/>
      <use xlink:href="#ArialMT-69" transform="translate(778.076172 0)"/>
      <use xlink:href="#ArialMT-76" transform="translate(800.292969 0)"/>
      <use xlink:href="#ArialMT-69" transform="translate(850.292969 0)"/>
      <use xlink:href="#ArialMT-64" transform="translate(872.509766 0)"/>
      <use xlink:href="#ArialMT-75" transform="translate(928.125 0)"/>
      <use xlink:href="#ArialMT-61" transform="translate(983.740234 0)"/>
      <use xlink:href="#ArialMT-6c" transform="translate(1039.355469 0)"/>
     </g>
    </g>
   </g>
   <g id="matplotlib.axis_2">
    <g id="ytick_1">
     <g id="line2d_6">
      <path d="M 48.963539 194.156164 
L 297.995539 194.156164 
" clip-path="url(#pa70a7996a9)" style="fill: none; stroke: #cccccc; stroke-linecap: round"/>
     </g>
     <g id="text_7">
      <!-- 120 -->
      <g style="fill: #262626" transform="translate(22.03 197.896121) scale(0.1045 -0.1045)">
       <use xlink:href="#ArialMT-31"/>
       <use xlink:href="#ArialMT-32" transform="translate(55.615234 0)"/>
       <use xlink:href="#ArialMT-30" transform="translate(111.230469 0)"/>
      </g>
     </g>
    </g>
    <g id="ytick_2">
     <g id="line2d_7">
      <path d="M 48.963539 159.618279 
L 297.995539 159.618279 
" clip-path="url(#pa70a7996a9)" style="fill: none; stroke: #cccccc; stroke-linecap: round"/>
     </g>
     <g id="text_8">
      <!-- 125 -->
      <g style="fill: #262626" transform="translate(22.03 163.358236) scale(0.1045 -0.1045)">
       <use xlink:href="#ArialMT-31"/>
       <use xlink:href="#ArialMT-32" transform="translate(55.615234 0)"/>
       <use xlink:href="#ArialMT-35" transform="translate(111.230469 0)"/>
      </g>
     </g>
    </g>
    <g id="ytick_3">
     <g id="line2d_8">
      <path d="M 48.963539 125.080395 
L 297.995539 125.080395 
" clip-path="url(#pa70a7996a9)" style="fill: none; stroke: #cccccc; stroke-linecap: round"/>
     </g>
     <g id="text_9">
      <!-- 130 -->
      <g style="fill: #262626" transform="translate(22.03 128.820352) scale(0.1045 -0.1045)">
       <defs>
        <path id="ArialMT-33" d="M 269 1209 
L 831 1284 
Q 928 806 1161 595 
Q 1394 384 1728 384 
Q 2125 384 2398 659 
Q 2672 934 2672 1341 
Q 2672 1728 2419 1979 
Q 2166 2231 1775 2231 
Q 1616 2231 1378 2169 
L 1441 2663 
Q 1497 2656 1531 2656 
Q 1891 2656 2178 2843 
Q 2466 3031 2466 3422 
Q 2466 3731 2256 3934 
Q 2047 4138 1716 4138 
Q 1388 4138 1169 3931 
Q 950 3725 888 3313 
L 325 3413 
Q 428 3978 793 4289 
Q 1159 4600 1703 4600 
Q 2078 4600 2393 4439 
Q 2709 4278 2876 4000 
Q 3044 3722 3044 3409 
Q 3044 3113 2884 2869 
Q 2725 2625 2413 2481 
Q 2819 2388 3044 2092 
Q 3269 1797 3269 1353 
Q 3269 753 2831 336 
Q 2394 -81 1725 -81 
Q 1122 -81 723 278 
Q 325 638 269 1209 
z
" transform="scale(0.015625)"/>
       </defs>
       <use xlink:href="#ArialMT-31"/>
       <use xlink:href="#ArialMT-33" transform="translate(55.615234 0)"/>
       <use xlink:href="#ArialMT-30" transform="translate(111.230469 0)"/>
      </g>
     </g>
    </g>
    <g id="ytick_4">
     <g id="line2d_9">
      <path d="M 48.963539 90.54251 
L 297.995539 90.54251 
" clip-path="url(#pa70a7996a9)" style="fill: none; stroke: #cccccc; stroke-linecap: round"/>
     </g>
     <g id="text_10">
      <!-- 135 -->
      <g style="fill: #262626" transform="translate(22.03 94.282467) scale(0.1045 -0.1045)">
       <use xlink:href="#ArialMT-31"/>
       <use xlink:href="#ArialMT-33" transform="translate(55.615234 0)"/>
       <use xlink:href="#ArialMT-35" transform="translate(111.230469 0)"/>
      </g>
     </g>
    </g>
    <g id="ytick_5">
     <g id="line2d_10">
      <path d="M 48.963539 56.004626 
L 297.995539 56.004626 
" clip-path="url(#pa70a7996a9)" style="fill: none; stroke: #cccccc; stroke-linecap: round"/>
     </g>
     <g id="text_11">
      <!-- 140 -->
      <g style="fill: #262626" transform="translate(22.03 59.744583) scale(0.1045 -0.1045)">
       <use xlink:href="#ArialMT-31"/>
       <use xlink:href="#ArialMT-34" transform="translate(55.615234 0)"/>
       <use xlink:href="#ArialMT-30" transform="translate(111.230469 0)"/>
      </g>
     </g>
    </g>
    <g id="ytick_6">
     <g id="line2d_11">
      <path d="M 48.963539 21.466741 
L 297.995539 21.466741 
" clip-path="url(#pa70a7996a9)" style="fill: none; stroke: #cccccc; stroke-linecap: round"/>
     </g>
     <g id="text_12">
      <!-- 145 -->
      <g style="fill: #262626" transform="translate(22.03 25.206698) scale(0.1045 -0.1045)">
       <use xlink:href="#ArialMT-31"/>
       <use xlink:href="#ArialMT-34" transform="translate(55.615234 0)"/>
       <use xlink:href="#ArialMT-35" transform="translate(111.230469 0)"/>
      </g>
     </g>
    </g>
    <g id="text_13">
     <!-- correction $\Delta v$ (m/s) -->
     <g style="fill: #262626" transform="translate(15.522 169.524) rotate(-90) scale(0.114 -0.114)">
      <defs>
       <path id="ArialMT-63" d="M 2588 1216 
L 3141 1144 
Q 3050 572 2676 248 
Q 2303 -75 1759 -75 
Q 1078 -75 664 370 
Q 250 816 250 1647 
Q 250 2184 428 2587 
Q 606 2991 970 3192 
Q 1334 3394 1763 3394 
Q 2303 3394 2647 3120 
Q 2991 2847 3088 2344 
L 2541 2259 
Q 2463 2594 2264 2762 
Q 2066 2931 1784 2931 
Q 1359 2931 1093 2626 
Q 828 2322 828 1663 
Q 828 994 1084 691 
Q 1341 388 1753 388 
Q 2084 388 2306 591 
Q 2528 794 2588 1216 
z
" transform="scale(0.015625)"/>
       <path id="ArialMT-6f" d="M 213 1659 
Q 213 2581 725 3025 
Q 1153 3394 1769 3394 
Q 2453 3394 2887 2945 
Q 3322 2497 3322 1706 
Q 3322 1066 3130 698 
Q 2938 331 2570 128 
Q 2203 -75 1769 -75 
Q 1072 -75 642 372 
Q 213 819 213 1659 
z
M 791 1659 
Q 791 1022 1069 705 
Q 1347 388 1769 388 
Q 2188 388 2466 706 
Q 2744 1025 2744 1678 
Q 2744 2294 2464 2611 
Q 2184 2928 1769 2928 
Q 1347 2928 1069 2612 
Q 791 2297 791 1659 
z
" transform="scale(0.015625)"/>
       <path id="ArialMT-65" d="M 2694 1069 
L 3275 997 
Q 3138 488 2766 206 
Q 2394 -75 1816 -75 
Q 1088 -75 661 373 
Q 234 822 234 1631 
Q 234 2469 665 2931 
Q 1097 3394 1784 3394 
Q 2450 3394 2872 2941 
Q 3294 2488 3294 1666 
Q 3294 1616 3291 1516 
L 816 1516 
Q 847 969 1125 678 
Q 1403 388 1819 388 
Q 2128 388 2347 550 
Q 2566 713 2694 1069 
z
M 847 1978 
L 2700 1978 
Q 2663 2397 2488 2606 
Q 2219 2931 1791 2931 
Q 1403 2931 1139 2672 
Q 875 2413 847 1978 
z
" transform="scale(0.015625)"/>
       <path id="DejaVuSans-394" d="M 2188 4044 
L 906 525 
L 3472 525 
L 2188 4044 
z
M 50 0 
L 1831 4666 
L 2547 4666 
L 4325 0 
L 50 0 
z
" transform="scale(0.015625)"/>
       <path id="DejaVuSans-Oblique-76" d="M 459 3500 
L 1069 3500 
L 1581 525 
L 3256 3500 
L 3866 3500 
L 1875 0 
L 1100 0 
L 459 3500 
z
" transform="scale(0.015625)"/>
       <path id="ArialMT-28" d="M 1497 -1347 
Q 1031 -759 709 28 
Q 388 816 388 1659 
Q 388 2403 628 3084 
Q 909 3875 1497 4659 
L 1900 4659 
Q 1522 4009 1400 3731 
Q 1209 3300 1100 2831 
Q 966 2247 966 1656 
Q 966 153 1900 -1347 
L 1497 -1347 
z
" transform="scale(0.015625)"/>
       <path id="ArialMT-29" d="M 791 -1347 
L 388 -1347 
Q 1322 153 1322 1656 
Q 1322 2244 1188 2822 
Q 1081 3291 891 3722 
Q 769 4003 388 4659 
L 791 4659 
Q 1378 3875 1659 3084 
Q 1900 2403 1900 1659 
Q 1900 816 1576 28 
Q 1253 -759 791 -1347 
z
" transform="scale(0.015625)"/>
      </defs>
      <use xlink:href="#ArialMT-63" transform="translate(0 0.09375)"/>
      <use xlink:href="#ArialMT-6f" transform="translate(50 0.09375)"/>
      <use xlink:href="#ArialMT-72" transform="translate(105.615234 0.09375)"/>
      <use xlink:href="#ArialMT-72" transform="translate(138.916016 0.09375)"/>
      <use xlink:href="#ArialMT-65" transform="translate(172.216797 0.09375)"/>
      <use xlink:href="#ArialMT-63" transform="translate(227.832031 0.09375)"/>
      <use xlink:href="#ArialMT-74" transform="translate(277.832031 0.09375)"/>
      <use xlink:href="#ArialMT-69" transform="translate(305.615234 0.09375)"/>
      <use xlink:href="#ArialMT-6f" transform="translate(327.832031 0.09375)"/>
      <use xlink:href="#ArialMT-6e" transform="translate(383.447266 0.09375)"/>
      <use xlink:href="#ArialMT-20" transform="translate(439.0625 0.09375)"/>
      <use xlink:href="#DejaVuSans-394" transform="translate(466.845703 0.09375)"/>
      <use xlink:href="#DejaVuSans-Oblique-76" transform="translate(535.253906 0.09375)"/>
      <use xlink:href="#ArialMT-20" transform="translate(594.433594 0.09375)"/>
      <use xlink:href="#ArialMT-28" transform="translate(622.216797 0.09375)"/>
      <use xlink:href="#ArialMT-6d" transform="translate(655.517578 0.09375)"/>
      <use xlink:href="#ArialMT-2f" transform="translate(738.818359 0.09375)"/>
      <use xlink:href="#ArialMT-73" transform="translate(766.601562 0.09375)"/>
      <use xlink:href="#ArialMT-29" transform="translate(816.601562 0.09375)"/>
     </g>
    </g>
   </g>
   <g id="line2d_12">
    <path d="M 73.06341 181.515298 
L 134.491041 191.047754 
L 180.95925 212.323091 
L 227.427459 206.106272 
L 273.895668 198.231634 
" clip-path="url(#pa70a7996a9)" style="fill: none; stroke-dasharray: 5.18,2.24; stroke-dashoffset: 0; stroke: #4878cf; stroke-opacity: 0.85; stroke-width: 1.4"/>
    <defs>
     <path id="m22cc832652" d="M -2.25 2.25 
L 2.25 2.25 
L 2.25 -2.25 
L -2.25 -2.25 
z
" style="stroke: #4878cf; stroke-opacity: 0.85; stroke-linejoin: miter"/>
    </defs>
    <g clip-path="url(#pa70a7996a9)">
     <use xlink:href="#m22cc832652" x="73.06341" y="181.515298" style="fill: #4878cf; fill-opacity: 0.85; stroke: #4878cf; stroke-opacity: 0.85; stroke-linejoin: miter"/>
     <use xlink:href="#m22cc832652" x="134.491041" y="191.047754" style="fill: #4878cf; fill-opacity: 0.85; stroke: #4878cf; stroke-opacity: 0.85; stroke-linejoin: miter"/>
     <use xlink:href="#m22cc832652" x="180.95925" y="212.323091" style="fill: #4878cf; fill-opacity: 0.85; stroke: #4878cf; stroke-opacity: 0.85; stroke-linejoin: miter"/>
     <use xlink:href="#m22cc832652" x="227.427459" y="206.106272" style="fill: #4878cf; fill-opacity: 0.85; stroke: #4878cf; stroke-opacity: 0.85; stroke-linejoin: miter"/>
     <use xlink:href="#m22cc832652" x="273.895668" y="198.231634" style="fill: #4878cf; fill-opacity: 0.85; stroke: #4878cf; stroke-opacity: 0.85; stroke-linejoin: miter"/>
    </g>
   </g>
   <g id="patch_3">
    <path d="M 48.963539 221.448 
L 48.963539 20.7 
" style="fill: none; stroke: #cccccc; stroke-width: 1.25; stroke-linejoin: miter; stroke-linecap: square"/>
   </g>
   <g id="patch_4">
    <path d="M 297.995539 221.448 
L 297.995539 20.7 
" style="fill: none; stroke: #cccccc; stroke-width: 1.25; stroke-linejoin: miter; stroke-linecap: square"/>
   </g>
   <g id="patch_5">
    <path d="M 48.963539 221.448 
L 297.995539 221.448 
" style="fill: none; stroke: #cccccc; stroke-width: 1.25; stroke-linejoin: miter; stroke-linecap: square"/>
   </g>
   <g id="patch_6">
    <path d="M 48.963539 20.7 
L 297.995539 20.7 
" style="fill: none; stroke: #cccccc; stroke-width: 1.25; stroke-linejoin: miter; stroke-linecap: square"/>
   </g>
   <g id="line2d_13">
    <path d="M 73.06341 29.824909 
L 134.491041 54.761262 
L 180.95925 101.111103 
L 227.427459 83.565857 
L 273.895668 62.152369 
" clip-path="url(#pa70a7996a9)" style="fill: none; stroke: #1f6f3f; stroke-width: 2; stroke-linecap: round"/>
    <defs>
     <path id="mcfba597a52" d="M 0 3 
C 0.795609 3 1.55874 2.683901 2.12132 2.12132 
C 2.683901 1.55874 3 0.795609 3 0 
C 3 -0.795609 2.683901 -1.55874 2.12132 -2.12132 
C 1.55874 -2.683901 0.795609 -3 0 -3 
C -0.795609 -3 -1.55874 -2.683901 -2.12132 -2.12132 
C -2.683901 -1.55874 -3 -0.795609 -3 0 
C -3 0.795609 -2.683901 1.55874 -2.12132 2.12132 
C -1.55874 2.683901 -0.795609 3 0 3 
z
" style="stroke: #1f6f3f"/>
    </defs>
    <g clip-path="url(#pa70a7996a9)">
     <use xlink:href="#mcfba597a52" x="73.06341" y="29.824909" style="fill: #1f6f3f; stroke: #1f6f3f"/>
     <use xlink:href="#mcfba597a52" x="134.491041" y="54.761262" style="fill: #1f6f3f; stroke: #1f6f3f"/>
     <use xlink:href="#mcfba597a52" x="180.95925" y="101.111103" style="fill: #1f6f3f; stroke: #1f6f3f"/>
     <use xlink:href="#mcfba597a52" x="227.427459" y="83.565857" style="fill: #1f6f3f; stroke: #1f6f3f"/>
     <use xlink:href="#mcfba597a52" x="273.895668" y="62.152369" style="fill: #1f6f3f; stroke: #1f6f3f"/>
    </g>
   </g>
   <g id="text_14">
    <!-- sweet spot -->
    <g style="fill: #d1701f" transform="translate(188.95925 82.660853) scale(0.08 -0.08)">
     <defs>
      <path id="Arial-BoldMT-73" d="M 150 947 
L 1031 1081 
Q 1088 825 1259 692 
Q 1431 559 1741 559 
Q 2081 559 2253 684 
Q 2369 772 2369 919 
Q 2369 1019 2306 1084 
Q 2241 1147 2013 1200 
Q 950 1434 666 1628 
Q 272 1897 272 2375 
Q 272 2806 612 3100 
Q 953 3394 1669 3394 
Q 2350 3394 2681 3172 
Q 3013 2950 3138 2516 
L 2309 2363 
Q 2256 2556 2107 2659 
Q 1959 2763 1684 2763 
Q 1338 2763 1188 2666 
Q 1088 2597 1088 2488 
Q 1088 2394 1175 2328 
Q 1294 2241 1995 2081 
Q 2697 1922 2975 1691 
Q 3250 1456 3250 1038 
Q 3250 581 2869 253 
Q 2488 -75 1741 -75 
Q 1063 -75 667 200 
Q 272 475 150 947 
z
" transform="scale(0.015625)"/>
      <path id="Arial-BoldMT-77" d="M 1078 0 
L 28 3319 
L 881 3319 
L 1503 1144 
L 2075 3319 
L 2922 3319 
L 3475 1144 
L 4109 3319 
L 4975 3319 
L 3909 0 
L 3066 0 
L 2494 2134 
L 1931 0 
L 1078 0 
z
" transform="scale(0.015625)"/>
      <path id="Arial-BoldMT-65" d="M 2381 1056 
L 3256 909 
Q 3088 428 2723 176 
Q 2359 -75 1813 -75 
Q 947 -75 531 491 
Q 203 944 203 1634 
Q 203 2459 634 2926 
Q 1066 3394 1725 3394 
Q 2466 3394 2894 2905 
Q 3322 2416 3303 1406 
L 1103 1406 
Q 1113 1016 1316 798 
Q 1519 581 1822 581 
Q 2028 581 2168 693 
Q 2309 806 2381 1056 
z
M 2431 1944 
Q 2422 2325 2234 2523 
Q 2047 2722 1778 2722 
Q 1491 2722 1303 2513 
Q 1116 2303 1119 1944 
L 2431 1944 
z
" transform="scale(0.015625)"/>
      <path id="Arial-BoldMT-74" d="M 1981 3319 
L 1981 2619 
L 1381 2619 
L 1381 1281 
Q 1381 875 1398 808 
Q 1416 741 1477 697 
Q 1538 653 1625 653 
Q 1747 653 1978 738 
L 2053 56 
Q 1747 -75 1359 -75 
Q 1122 -75 931 4 
Q 741 84 652 211 
Q 563 338 528 553 
Q 500 706 500 1172 
L 500 2619 
L 97 2619 
L 97 3319 
L 500 3319 
L 500 3978 
L 1381 4491 
L 1381 3319 
L 1981 3319 
z
" transform="scale(0.015625)"/>
      <path id="Arial-BoldMT-20" transform="scale(0.015625)"/>
      <path id="Arial-BoldMT-70" d="M 434 3319 
L 1253 3319 
L 1253 2831 
Q 1413 3081 1684 3237 
Q 1956 3394 2288 3394 
Q 2866 3394 3269 2941 
Q 3672 2488 3672 1678 
Q 3672 847 3265 386 
Q 2859 -75 2281 -75 
Q 2006 -75 1782 34 
Q 1559 144 1313 409 
L 1313 -1263 
L 434 -1263 
L 434 3319 
z
M 1303 1716 
Q 1303 1156 1525 889 
Q 1747 622 2066 622 
Q 2372 622 2575 867 
Q 2778 1113 2778 1672 
Q 2778 2194 2568 2447 
Q 2359 2700 2050 2700 
Q 1728 2700 1515 2451 
Q 1303 2203 1303 1716 
z
" transform="scale(0.015625)"/>
      <path id="Arial-BoldMT-6f" d="M 256 1706 
Q 256 2144 472 2553 
Q 688 2963 1083 3178 
Q 1478 3394 1966 3394 
Q 2719 3394 3200 2905 
Q 3681 2416 3681 1669 
Q 3681 916 3195 420 
Q 2709 -75 1972 -75 
Q 1516 -75 1102 131 
Q 688 338 472 736 
Q 256 1134 256 1706 
z
M 1156 1659 
Q 1156 1166 1390 903 
Q 1625 641 1969 641 
Q 2313 641 2545 903 
Q 2778 1166 2778 1666 
Q 2778 2153 2545 2415 
Q 2313 2678 1969 2678 
Q 1625 2678 1390 2415 
Q 1156 2153 1156 1659 
z
" transform="scale(0.015625)"/>
     </defs>
     <use xlink:href="#Arial-BoldMT-73"/>
     <use xlink:href="#Arial-BoldMT-77" transform="translate(55.615234 0)"/>
     <use xlink:href="#Arial-BoldMT-65" transform="translate(133.398438 0)"/>
     <use xlink:href="#Arial-BoldMT-65" transform="translate(189.013672 0)"/>
     <use xlink:href="#Arial-BoldMT-74" transform="translate(244.628906 0)"/>
     <use xlink:href="#Arial-BoldMT-20" transform="translate(277.929688 0)"/>
     <use xlink:href="#Arial-BoldMT-73" transform="translate(305.712891 0)"/>
     <use xlink:href="#Arial-BoldMT-70" transform="translate(361.328125 0)"/>
     <use xlink:href="#Arial-BoldMT-6f" transform="translate(422.412109 0)"/>
     <use xlink:href="#Arial-BoldMT-74" transform="translate(483.496094 0)"/>
    </g>
    <!-- 133.5 m/s -->
    <g style="fill: #d1701f" transform="translate(188.95925 91.111103) scale(0.08 -0.08)">
     <defs>
      <path id="Arial-BoldMT-31" d="M 2519 0 
L 1641 0 
L 1641 3309 
Q 1159 2859 506 2644 
L 506 3441 
Q 850 3553 1253 3867 
Q 1656 4181 1806 4600 
L 2519 4600 
L 2519 0 
z
" transform="scale(0.015625)"/>
      <path id="Arial-BoldMT-33" d="M 241 1216 
L 1091 1319 
Q 1131 994 1309 822 
Q 1488 650 1741 650 
Q 2013 650 2198 856 
Q 2384 1063 2384 1413 
Q 2384 1744 2206 1937 
Q 2028 2131 1772 2131 
Q 1603 2131 1369 2066 
L 1466 2781 
Q 1822 2772 2009 2936 
Q 2197 3100 2197 3372 
Q 2197 3603 2059 3740 
Q 1922 3878 1694 3878 
Q 1469 3878 1309 3722 
Q 1150 3566 1116 3266 
L 306 3403 
Q 391 3819 561 4067 
Q 731 4316 1036 4458 
Q 1341 4600 1719 4600 
Q 2366 4600 2756 4188 
Q 3078 3850 3078 3425 
Q 3078 2822 2419 2463 
Q 2813 2378 3048 2084 
Q 3284 1791 3284 1375 
Q 3284 772 2843 347 
Q 2403 -78 1747 -78 
Q 1125 -78 715 280 
Q 306 638 241 1216 
z
" transform="scale(0.015625)"/>
      <path id="Arial-BoldMT-2e" d="M 459 0 
L 459 878 
L 1338 878 
L 1338 0 
L 459 0 
z
" transform="scale(0.015625)"/>
      <path id="Arial-BoldMT-35" d="M 284 1178 
L 1159 1269 
Q 1197 972 1381 798 
Q 1566 625 1806 625 
Q 2081 625 2272 848 
Q 2463 1072 2463 1522 
Q 2463 1944 2273 2155 
Q 2084 2366 1781 2366 
Q 1403 2366 1103 2031 
L 391 2134 
L 841 4519 
L 3163 4519 
L 3163 3697 
L 1506 3697 
L 1369 2919 
Q 1663 3066 1969 3066 
Q 2553 3066 2959 2641 
Q 3366 2216 3366 1538 
Q 3366 972 3038 528 
Q 2591 -78 1797 -78 
Q 1163 -78 763 262 
Q 363 603 284 1178 
z
" transform="scale(0.015625)"/>
      <path id="Arial-BoldMT-6d" d="M 394 3319 
L 1203 3319 
L 1203 2866 
Q 1638 3394 2238 3394 
Q 2556 3394 2790 3262 
Q 3025 3131 3175 2866 
Q 3394 3131 3647 3262 
Q 3900 3394 4188 3394 
Q 4553 3394 4806 3245 
Q 5059 3097 5184 2809 
Q 5275 2597 5275 2122 
L 5275 0 
L 4397 0 
L 4397 1897 
Q 4397 2391 4306 2534 
Q 4184 2722 3931 2722 
Q 3747 2722 3584 2609 
Q 3422 2497 3350 2280 
Q 3278 2063 3278 1594 
L 3278 0 
L 2400 0 
L 2400 1819 
Q 2400 2303 2353 2443 
Q 2306 2584 2207 2653 
Q 2109 2722 1941 2722 
Q 1738 2722 1575 2612 
Q 1413 2503 1342 2297 
Q 1272 2091 1272 1613 
L 1272 0 
L 394 0 
L 394 3319 
z
" transform="scale(0.015625)"/>
      <path id="Arial-BoldMT-2f" d="M -9 -78 
L 1125 4659 
L 1784 4659 
L 638 -78 
L -9 -78 
z
" transform="scale(0.015625)"/>
     </defs>
     <use xlink:href="#Arial-BoldMT-31"/>
     <use xlink:href="#Arial-BoldMT-33" transform="translate(55.615234 0)"/>
     <use xlink:href="#Arial-BoldMT-33" transform="translate(111.230469 0)"/>
     <use xlink:href="#Arial-BoldMT-2e" transform="translate(166.845703 0)"/>
     <use xlink:href="#Arial-BoldMT-35" transform="translate(194.628906 0)"/>
     <use xlink:href="#Arial-BoldMT-20" transform="translate(250.244141 0)"/>
     <use xlink:href="#Arial-BoldMT-6d" transform="translate(278.027344 0)"/>
     <use xlink:href="#Arial-BoldMT-2f" transform="translate(366.943359 0)"/>
     <use xlink:href="#Arial-BoldMT-73" transform="translate(394.726562 0)"/>
    </g>
   </g>
   <g id="text_15">
    <!-- (A) Rotating noise floor -->
    <g style="fill: #262626" transform="translate(48.963539 14.7) scale(0.1 -0.1)">
     <defs>
      <path id="ArialMT-41" d="M -9 0 
L 1750 4581 
L 2403 4581 
L 4278 0 
L 3588 0 
L 3053 1388 
L 1138 1388 
L 634 0 
L -9 0 
z
M 1313 1881 
L 2866 1881 
L 2388 3150 
Q 2169 3728 2063 4100 
Q 1975 3659 1816 3225 
L 1313 1881 
z
" transform="scale(0.015625)"/>
      <path id="ArialMT-52" d="M 503 0 
L 503 4581 
L 2534 4581 
Q 3147 4581 3465 4457 
Q 3784 4334 3975 4021 
Q 4166 3709 4166 3331 
Q 4166 2844 3850 2509 
Q 3534 2175 2875 2084 
Q 3116 1969 3241 1856 
Q 3506 1613 3744 1247 
L 4541 0 
L 3778 0 
L 3172 953 
Q 2906 1366 2734 1584 
Q 2563 1803 2427 1890 
Q 2291 1978 2150 2013 
Q 2047 2034 1813 2034 
L 1109 2034 
L 1109 0 
L 503 0 
z
M 1109 2559 
L 2413 2559 
Q 2828 2559 3062 2645 
Q 3297 2731 3419 2920 
Q 3541 3109 3541 3331 
Q 3541 3656 3305 3865 
Q 3069 4075 2559 4075 
L 1109 4075 
L 1109 2559 
z
" transform="scale(0.015625)"/>
      <path id="ArialMT-66" d="M 556 0 
L 556 2881 
L 59 2881 
L 59 3319 
L 556 3319 
L 556 3672 
Q 556 4006 616 4169 
Q 697 4388 901 4523 
Q 1106 4659 1475 4659 
Q 1713 4659 2000 4603 
L 1916 4113 
Q 1741 4144 1584 4144 
Q 1328 4144 1222 4034 
Q 1116 3925 1116 3625 
L 1116 3319 
L 1763 3319 
L 1763 2881 
L 1116 2881 
L 1116 0 
L 556 0 
z
" transform="scale(0.015625)"/>
     </defs>
     <use xlink:href="#ArialMT-28"/>
     <use xlink:href="#ArialMT-41" transform="translate(33.300781 0)"/>
     <use xlink:href="#ArialMT-29" transform="translate(100 0)"/>
     <use xlink:href="#ArialMT-20" transform="translate(133.300781 0)"/>
     <use xlink:href="#ArialMT-52" transform="translate(161.083984 0)"/>
     <use xlink:href="#ArialMT-6f" transform="translate(233.300781 0)"/>
     <use xlink:href="#ArialMT-74" transform="translate(288.916016 0)"/>
     <use xlink:href="#ArialMT-61" transform="translate(316.699219 0)"/>
     <use xlink:href="#ArialMT-74" transform="translate(372.314453 0)"/>
     <use xlink:href="#ArialMT-69" transform="translate(400.097656 0)"/>
     <use xlink:href="#ArialMT-6e" transform="translate(422.314453 0)"/>
     <use xlink:href="#ArialMT-67" transform="translate(477.929688 0)"/>
     <use xlink:href="#ArialMT-20" transform="translate(533.544922 0)"/>
     <use xlink:href="#ArialMT-6e" transform="translate(561.328125 0)"/>
     <use xlink:href="#ArialMT-6f" transform="translate(616.943359 0)"/>
     <use xlink:href="#ArialMT-69" transform="translate(672.558594 0)"/>
     <use xlink:href="#ArialMT-73" transform="translate(694.775391 0)"/>
     <use xlink:href="#ArialMT-65" transform="translate(744.775391 0)"/>
     <use xlink:href="#ArialMT-20" transform="translate(800.390625 0)"/>
     <use xlink:href="#ArialMT-66" transform="translate(828.173828 0)"/>
     <use xlink:href="#ArialMT-6c" transform="translate(855.957031 0)"/>
     <use xlink:href="#ArialMT-6f" transform="translate(878.173828 0)"/>
     <use xlink:href="#ArialMT-6f" transform="translate(933.789062 0)"/>
     <use xlink:href="#ArialMT-72" transform="translate(989.404297 0)"/>
    </g>
   </g>
   <g id="PathCollection_1">
    <path d="M 180.95925 106.81198 
C 182.47114 106.81198 183.921311 106.211299 184.990379 105.142232 
C 186.059447 104.073164 186.660127 102.622993 186.660127 101.111103 
C 186.660127 99.599212 186.059447 98.149042 184.990379 97.079974 
C 183.921311 96.010906 182.47114 95.410226 180.95925 95.410226 
C 179.44736 95.410226 177.997189 96.010906 176.928121 97.079974 
C 175.859053 98.149042 175.258373 99.599212 175.258373 101.111103 
C 175.258373 102.622993 175.859053 104.073164 176.928121 105.142232 
C 177.997189 106.211299 179.44736 106.81198 180.95925 106.81198 
L 180.95925 106.81198 
z
" clip-path="url(#pa70a7996a9)" style="fill: none; stroke: #d1701f; stroke-width: 2"/>
   </g>
   <g id="legend_1">
    <g id="patch_7">
     <path d="M 146.279539 49.7325 
L 200.679539 49.7325 
Q 202.279539 49.7325 202.279539 48.1325 
L 202.279539 26.3 
Q 202.279539 24.7 200.679539 24.7 
L 146.279539 24.7 
Q 144.679539 24.7 144.679539 26.3 
L 144.679539 48.1325 
Q 144.679539 49.7325 146.279539 49.7325 
z
" style="fill: #f5f5f5; opacity: 0.8; stroke: #cccccc; stroke-linejoin: miter"/>
    </g>
    <g id="line2d_14">
     <path d="M 147.879539 30.82625 
L 155.879539 30.82625 
L 163.879539 30.82625 
" style="fill: none; stroke: #1f6f3f; stroke-width: 2; stroke-linecap: round"/>
     <g>
      <use xlink:href="#mcfba597a52" x="155.879539" y="30.82625" style="fill: #1f6f3f; stroke: #1f6f3f"/>
     </g>
    </g>
    <g id="text_16">
     <!-- CVaR$_{95}$ -->
     <g style="fill: #262626" transform="translate(170.279539 33.62625) scale(0.08 -0.08)">
      <defs>
       <path id="ArialMT-43" d="M 3763 1606 
L 4369 1453 
Q 4178 706 3683 314 
Q 3188 -78 2472 -78 
Q 1731 -78 1267 223 
Q 803 525 561 1097 
Q 319 1669 319 2325 
Q 319 3041 592 3573 
Q 866 4106 1370 4382 
Q 1875 4659 2481 4659 
Q 3169 4659 3637 4309 
Q 4106 3959 4291 3325 
L 3694 3184 
Q 3534 3684 3231 3912 
Q 2928 4141 2469 4141 
Q 1941 4141 1586 3887 
Q 1231 3634 1087 3207 
Q 944 2781 944 2328 
Q 944 1744 1114 1308 
Q 1284 872 1643 656 
Q 2003 441 2422 441 
Q 2931 441 3284 734 
Q 3638 1028 3763 1606 
z
" transform="scale(0.015625)"/>
       <path id="ArialMT-56" d="M 1803 0 
L 28 4581 
L 684 4581 
L 1875 1253 
Q 2019 853 2116 503 
Q 2222 878 2363 1253 
L 3600 4581 
L 4219 4581 
L 2425 0 
L 1803 0 
z
" transform="scale(0.015625)"/>
       <path id="DejaVuSans-39" d="M 703 97 
L 703 672 
Q 941 559 1184 500 
Q 1428 441 1663 441 
Q 2288 441 2617 861 
Q 2947 1281 2994 2138 
Q 2813 1869 2534 1725 
Q 2256 1581 1919 1581 
Q 1219 1581 811 2004 
Q 403 2428 403 3163 
Q 403 3881 828 4315 
Q 1253 4750 1959 4750 
Q 2769 4750 3195 4129 
Q 3622 3509 3622 2328 
Q 3622 1225 3098 567 
Q 2575 -91 1691 -91 
Q 1453 -91 1209 -44 
Q 966 3 703 97 
z
M 1959 2075 
Q 2384 2075 2632 2365 
Q 2881 2656 2881 3163 
Q 2881 3666 2632 3958 
Q 2384 4250 1959 4250 
Q 1534 4250 1286 3958 
Q 1038 3666 1038 3163 
Q 1038 2656 1286 2365 
Q 1534 2075 1959 2075 
z
" transform="scale(0.015625)"/>
       <path id="DejaVuSans-35" d="M 691 4666 
L 3169 4666 
L 3169 4134 
L 1269 4134 
L 1269 2991 
Q 1406 3038 1543 3061 
Q 1681 3084 1819 3084 
Q 2600 3084 3056 2656 
Q 3513 2228 3513 1497 
Q 3513 744 3044 326 
Q 2575 -91 1722 -91 
Q 1428 -91 1123 -41 
Q 819 9 494 109 
L 494 744 
Q 775 591 1075 516 
Q 1375 441 1709 441 
Q 2250 441 2565 725 
Q 2881 1009 2881 1497 
Q 2881 1984 2565 2268 
Q 2250 2553 1709 2553 
Q 1456 2553 1204 2497 
Q 953 2441 691 2322 
L 691 4666 
z
" transform="scale(0.015625)"/>
      </defs>
      <use xlink:href="#ArialMT-43" transform="translate(0 0.203125)"/>
      <use xlink:href="#ArialMT-56" transform="translate(72.216797 0.203125)"/>
      <use xlink:href="#ArialMT-61" transform="translate(138.916016 0.203125)"/>
      <use xlink:href="#ArialMT-52" transform="translate(194.53125 0.203125)"/>
      <use xlink:href="#DejaVuSans-39" transform="translate(267.705078 -16.203125) scale(0.7)"/>
      <use xlink:href="#DejaVuSans-35" transform="translate(312.241211 -16.203125) scale(0.7)"/>
     </g>
    </g>
    <g id="line2d_15">
     <path d="M 147.879539 42.1425 
L 155.879539 42.1425 
L 163.879539 42.1425 
" style="fill: none; stroke-dasharray: 5.18,2.24; stroke-dashoffset: 0; stroke: #4878cf; stroke-opacity: 0.85; stroke-width: 1.4"/>
     <g>
      <use xlink:href="#m22cc832652" x="155.879539" y="42.1425" style="fill: #4878cf; fill-opacity: 0.85; stroke: #4878cf; stroke-opacity: 0.85; stroke-linejoin: miter"/>
     </g>
    </g>
    <g id="text_17">
     <!-- mean -->
     <g style="fill: #262626" transform="translate(170.279539 44.9425) scale(0.08 -0.08)">
      <use xlink:href="#ArialMT-6d"/>
      <use xlink:href="#ArialMT-65" transform="translate(83.300781 0)"/>
      <use xlink:href="#ArialMT-61" transform="translate(138.916016 0)"/>
      <use xlink:href="#ArialMT-6e" transform="translate(194.53125 0)"/>
     </g>
    </g>
   </g>
  </g>
  <g id="axes_2">
   <g id="patch_8">
    <path d="M 337.267539 221.448 
L 586.299539 221.448 
L 586.299539 20.7 
L 337.267539 20.7 
z
" style="fill: #f5f5f5"/>
   </g>
   <g id="matplotlib.axis_3">
    <g id="xtick_14">
     <g id="line2d_16">
      <path d="M 361.36741 221.448 
L 361.36741 20.7 
" clip-path="url(#p50e14e0772)" style="fill: none; stroke: #cccccc; stroke-linecap: round"/>
     </g>
     <g id="text_18">
      <!-- 2 -->
      <g style="fill: #262626" transform="translate(358.46182 238.427914) scale(0.1045 -0.1045)">
       <use xlink:href="#ArialMT-32"/>
      </g>
     </g>
    </g>
    <g id="xtick_15">
     <g id="line2d_17">
      <path d="M 408.407199 221.448 
L 408.407199 20.7 
" clip-path="url(#p50e14e0772)" style="fill: none; stroke: #cccccc; stroke-linecap: round"/>
     </g>
     <g id="text_19">
      <!-- 5 -->
      <g style="fill: #262626" transform="translate(405.501609 238.427914) scale(0.1045 -0.1045)">
       <use xlink:href="#ArialMT-35"/>
      </g>
     </g>
    </g>
    <g id="xtick_16">
     <g id="line2d_18">
      <path d="M 479.575652 221.448 
L 479.575652 20.7 
" clip-path="url(#p50e14e0772)" style="fill: none; stroke: #cccccc; stroke-linecap: round"/>
     </g>
     <g id="text_20">
      <!-- 20 -->
      <g style="fill: #262626" transform="translate(473.764473 238.427914) scale(0.1045 -0.1045)">
       <use xlink:href="#ArialMT-32"/>
       <use xlink:href="#ArialMT-30" transform="translate(55.615234 0)"/>
      </g>
     </g>
    </g>
    <g id="xtick_17">
     <g id="line2d_19">
      <path d="M 562.199668 221.448 
L 562.199668 20.7 
" clip-path="url(#p50e14e0772)" style="fill: none; stroke: #cccccc; stroke-linecap: round"/>
     </g>
     <g id="text_21">
      <!-- 100 -->
      <g style="fill: #262626" transform="translate(553.482899 238.427914) scale(0.1045 -0.1045)">
       <use xlink:href="#ArialMT-31"/>
       <use xlink:href="#ArialMT-30" transform="translate(55.615234 0)"/>
       <use xlink:href="#ArialMT-30" transform="translate(111.230469 0)"/>
      </g>
     </g>
    </g>
    <g id="xtick_18"/>
    <g id="xtick_19"/>
    <g id="xtick_20"/>
    <g id="xtick_21"/>
    <g id="xtick_22"/>
    <g id="xtick_23"/>
    <g id="xtick_24"/>
    <g id="xtick_25"/>
    <g id="xtick_26"/>
    <g id="xtick_27"/>
    <g id="xtick_28"/>
    <g id="xtick_29"/>
    <g id="xtick_30"/>
    <g id="text_22">
     <!-- training sims / individual -->
     <g style="fill: #262626" transform="translate(401.277148 252.803695) scale(0.114 -0.114)">
      <use xlink:href="#ArialMT-74"/>
      <use xlink:href="#ArialMT-72" transform="translate(27.783203 0)"/>
      <use xlink:href="#ArialMT-61" transform="translate(61.083984 0)"/>
      <use xlink:href="#ArialMT-69" transform="translate(116.699219 0)"/>
      <use xlink:href="#ArialMT-6e" transform="translate(138.916016 0)"/>
      <use xlink:href="#ArialMT-69" transform="translate(194.53125 0)"/>
      <use xlink:href="#ArialMT-6e" transform="translate(216.748047 0)"/>
      <use xlink:href="#ArialMT-67" transform="translate(272.363281 0)"/>
      <use xlink:href="#ArialMT-20" transform="translate(327.978516 0)"/>
      <use xlink:href="#ArialMT-73" transform="translate(355.761719 0)"/>
      <use xlink:href="#ArialMT-69" transform="translate(405.761719 0)"/>
      <use xlink:href="#ArialMT-6d" transform="translate(427.978516 0)"/>
      <use xlink:href="#ArialMT-73" transform="translate(511.279297 0)"/>
      <use xlink:href="#ArialMT-20" transform="translate(561.279297 0)"/>
      <use xlink:href="#ArialMT-2f" transform="translate(589.0625 0)"/>
      <use xlink:href="#ArialMT-20" transform="translate(616.845703 0)"/>
      <use xlink:href="#ArialMT-69" transform="translate(644.628906 0)"/>
      <use xlink:href="#ArialMT-6e" transform="translate(666.845703 0)"/>
      <use xlink:href="#ArialMT-64" transform="translate(722.460938 0)"/>
      <use xlink:href="#ArialMT-69" transform="translate(778.076172 0)"/>
      <use xlink:href="#ArialMT-76" transform="translate(800.292969 0)"/>
      <use xlink:href="#ArialMT-69" transform="translate(850.292969 0)"/>
      <use xlink:href="#ArialMT-64" transform="translate(872.509766 0)"/>
      <use xlink:href="#ArialMT-75" transform="translate(928.125 0)"/>
      <use xlink:href="#ArialMT-61" transform="translate(983.740234 0)"/>
      <use xlink:href="#ArialMT-6c" transform="translate(1039.355469 0)"/>
     </g>
    </g>
   </g>
   <g id="matplotlib.axis_4">
    <g id="ytick_7">
     <g id="line2d_20">
      <path d="M 337.267539 211.9856 
L 586.299539 211.9856 
" clip-path="url(#p50e14e0772)" style="fill: none; stroke: #cccccc; stroke-linecap: round"/>
     </g>
     <g id="text_23">
      <!-- 110 -->
      <g style="fill: #262626" transform="translate(311.104688 215.725557) scale(0.1045 -0.1045)">
       <use xlink:href="#ArialMT-31"/>
       <use xlink:href="#ArialMT-31" transform="translate(48.240234 0)"/>
       <use xlink:href="#ArialMT-30" transform="translate(103.855469 0)"/>
      </g>
     </g>
    </g>
    <g id="ytick_8">
     <g id="line2d_21">
      <path d="M 337.267539 169.799243 
L 586.299539 169.799243 
" clip-path="url(#p50e14e0772)" style="fill: none; stroke: #cccccc; stroke-linecap: round"/>
     </g>
     <g id="text_24">
      <!-- 120 -->
      <g style="fill: #262626" transform="translate(310.334 173.5392) scale(0.1045 -0.1045)">
       <use xlink:href="#ArialMT-31"/>
       <use xlink:href="#ArialMT-32" transform="translate(55.615234 0)"/>
       <use xlink:href="#ArialMT-30" transform="translate(111.230469 0)"/>
      </g>
     </g>
    </g>
    <g id="ytick_9">
     <g id="line2d_22">
      <path d="M 337.267539 127.612885 
L 586.299539 127.612885 
" clip-path="url(#p50e14e0772)" style="fill: none; stroke: #cccccc; stroke-linecap: round"/>
     </g>
     <g id="text_25">
      <!-- 130 -->
      <g style="fill: #262626" transform="translate(310.334 131.352842) scale(0.1045 -0.1045)">
       <use xlink:href="#ArialMT-31"/>
       <use xlink:href="#ArialMT-33" transform="translate(55.615234 0)"/>
       <use xlink:href="#ArialMT-30" transform="translate(111.230469 0)"/>
      </g>
     </g>
    </g>
    <g id="ytick_10">
     <g id="line2d_23">
      <path d="M 337.267539 85.426528 
L 586.299539 85.426528 
" clip-path="url(#p50e14e0772)" style="fill: none; stroke: #cccccc; stroke-linecap: round"/>
     </g>
     <g id="text_26">
      <!-- 140 -->
      <g style="fill: #262626" transform="translate(310.334 89.166485) scale(0.1045 -0.1045)">
       <use xlink:href="#ArialMT-31"/>
       <use xlink:href="#ArialMT-34" transform="translate(55.615234 0)"/>
       <use xlink:href="#ArialMT-30" transform="translate(111.230469 0)"/>
      </g>
     </g>
    </g>
    <g id="ytick_11">
     <g id="line2d_24">
      <path d="M 337.267539 43.240171 
L 586.299539 43.240171 
" clip-path="url(#p50e14e0772)" style="fill: none; stroke: #cccccc; stroke-linecap: round"/>
     </g>
     <g id="text_27">
      <!-- 150 -->
      <g style="fill: #262626" transform="translate(310.334 46.980128) scale(0.1045 -0.1045)">
       <use xlink:href="#ArialMT-31"/>
       <use xlink:href="#ArialMT-35" transform="translate(55.615234 0)"/>
       <use xlink:href="#ArialMT-30" transform="translate(111.230469 0)"/>
      </g>
     </g>
    </g>
   </g>
   <g id="line2d_25">
    <path d="M 361.36741 212.323091 
L 408.407199 183.341063 
L 479.575652 174.69286 
L 562.199668 123.436436 
" clip-path="url(#p50e14e0772)" style="fill: none; stroke-dasharray: 5.18,2.24; stroke-dashoffset: 0; stroke: #4878cf; stroke-opacity: 0.85; stroke-width: 1.4"/>
    <g clip-path="url(#p50e14e0772)">
     <use xlink:href="#m22cc832652" x="361.36741" y="212.323091" style="fill: #4878cf; fill-opacity: 0.85; stroke: #4878cf; stroke-opacity: 0.85; stroke-linejoin: miter"/>
     <use xlink:href="#m22cc832652" x="408.407199" y="183.341063" style="fill: #4878cf; fill-opacity: 0.85; stroke: #4878cf; stroke-opacity: 0.85; stroke-linejoin: miter"/>
     <use xlink:href="#m22cc832652" x="479.575652" y="174.69286" style="fill: #4878cf; fill-opacity: 0.85; stroke: #4878cf; stroke-opacity: 0.85; stroke-linejoin: miter"/>
     <use xlink:href="#m22cc832652" x="562.199668" y="123.436436" style="fill: #4878cf; fill-opacity: 0.85; stroke: #4878cf; stroke-opacity: 0.85; stroke-linejoin: miter"/>
    </g>
   </g>
   <g id="patch_9">
    <path d="M 337.267539 221.448 
L 337.267539 20.7 
" style="fill: none; stroke: #cccccc; stroke-width: 1.25; stroke-linejoin: miter; stroke-linecap: square"/>
   </g>
   <g id="patch_10">
    <path d="M 586.299539 221.448 
L 586.299539 20.7 
" style="fill: none; stroke: #cccccc; stroke-width: 1.25; stroke-linejoin: miter; stroke-linecap: square"/>
   </g>
   <g id="patch_11">
    <path d="M 337.267539 221.448 
L 586.299539 221.448 
" style="fill: none; stroke: #cccccc; stroke-width: 1.25; stroke-linejoin: miter; stroke-linecap: square"/>
   </g>
   <g id="patch_12">
    <path d="M 337.267539 20.7 
L 586.299539 20.7 
" style="fill: none; stroke: #cccccc; stroke-width: 1.25; stroke-linejoin: miter; stroke-linecap: square"/>
   </g>
   <g id="line2d_26">
    <path d="M 361.36741 180.261459 
L 408.407199 128.119122 
L 479.575652 96.732472 
L 562.199668 29.824909 
" clip-path="url(#p50e14e0772)" style="fill: none; stroke: #1f6f3f; stroke-width: 2; stroke-linecap: round"/>
    <g clip-path="url(#p50e14e0772)">
     <use xlink:href="#mcfba597a52" x="361.36741" y="180.261459" style="fill: #1f6f3f; stroke: #1f6f3f"/>
     <use xlink:href="#mcfba597a52" x="408.407199" y="128.119122" style="fill: #1f6f3f; stroke: #1f6f3f"/>
     <use xlink:href="#mcfba597a52" x="479.575652" y="96.732472" style="fill: #1f6f3f; stroke: #1f6f3f"/>
     <use xlink:href="#mcfba597a52" x="562.199668" y="29.824909" style="fill: #1f6f3f; stroke: #1f6f3f"/>
    </g>
   </g>
   <g id="text_28">
    <!-- dominates -->
    <g style="fill: #d1701f" transform="translate(369.36741 161.811209) scale(0.08 -0.08)">
     <defs>
      <path id="Arial-BoldMT-64" d="M 3503 0 
L 2688 0 
L 2688 488 
Q 2484 203 2207 64 
Q 1931 -75 1650 -75 
Q 1078 -75 670 386 
Q 263 847 263 1672 
Q 263 2516 659 2955 
Q 1056 3394 1663 3394 
Q 2219 3394 2625 2931 
L 2625 4581 
L 3503 4581 
L 3503 0 
z
M 1159 1731 
Q 1159 1200 1306 963 
Q 1519 619 1900 619 
Q 2203 619 2415 876 
Q 2628 1134 2628 1647 
Q 2628 2219 2422 2470 
Q 2216 2722 1894 2722 
Q 1581 2722 1370 2473 
Q 1159 2225 1159 1731 
z
" transform="scale(0.015625)"/>
      <path id="Arial-BoldMT-69" d="M 459 3769 
L 459 4581 
L 1338 4581 
L 1338 3769 
L 459 3769 
z
M 459 0 
L 459 3319 
L 1338 3319 
L 1338 0 
L 459 0 
z
" transform="scale(0.015625)"/>
      <path id="Arial-BoldMT-6e" d="M 3478 0 
L 2600 0 
L 2600 1694 
Q 2600 2231 2544 2389 
Q 2488 2547 2361 2634 
Q 2234 2722 2056 2722 
Q 1828 2722 1647 2597 
Q 1466 2472 1398 2265 
Q 1331 2059 1331 1503 
L 1331 0 
L 453 0 
L 453 3319 
L 1269 3319 
L 1269 2831 
Q 1703 3394 2363 3394 
Q 2653 3394 2893 3289 
Q 3134 3184 3257 3021 
Q 3381 2859 3429 2653 
Q 3478 2447 3478 2063 
L 3478 0 
z
" transform="scale(0.015625)"/>
      <path id="Arial-BoldMT-61" d="M 1116 2306 
L 319 2450 
Q 453 2931 781 3162 
Q 1109 3394 1756 3394 
Q 2344 3394 2631 3255 
Q 2919 3116 3036 2902 
Q 3153 2688 3153 2116 
L 3144 1091 
Q 3144 653 3186 445 
Q 3228 238 3344 0 
L 2475 0 
Q 2441 88 2391 259 
Q 2369 338 2359 363 
Q 2134 144 1878 34 
Q 1622 -75 1331 -75 
Q 819 -75 523 203 
Q 228 481 228 906 
Q 228 1188 362 1408 
Q 497 1628 739 1745 
Q 981 1863 1438 1950 
Q 2053 2066 2291 2166 
L 2291 2253 
Q 2291 2506 2166 2614 
Q 2041 2722 1694 2722 
Q 1459 2722 1328 2630 
Q 1197 2538 1116 2306 
z
M 2291 1594 
Q 2122 1538 1756 1459 
Q 1391 1381 1278 1306 
Q 1106 1184 1106 997 
Q 1106 813 1243 678 
Q 1381 544 1594 544 
Q 1831 544 2047 700 
Q 2206 819 2256 991 
Q 2291 1103 2291 1419 
L 2291 1594 
z
" transform="scale(0.015625)"/>
     </defs>
     <use xlink:href="#Arial-BoldMT-64"/>
     <use xlink:href="#Arial-BoldMT-6f" transform="translate(61.083984 0)"/>
     <use xlink:href="#Arial-BoldMT-6d" transform="translate(122.167969 0)"/>
     <use xlink:href="#Arial-BoldMT-69" transform="translate(211.083984 0)"/>
     <use xlink:href="#Arial-BoldMT-6e" transform="translate(238.867188 0)"/>
     <use xlink:href="#Arial-BoldMT-61" transform="translate(299.951172 0)"/>
     <use xlink:href="#Arial-BoldMT-74" transform="translate(355.566406 0)"/>
     <use xlink:href="#Arial-BoldMT-65" transform="translate(388.867188 0)"/>
     <use xlink:href="#Arial-BoldMT-73" transform="translate(444.482422 0)"/>
    </g>
    <!-- 117.5 m/s -->
    <g style="fill: #d1701f" transform="translate(369.36741 170.261459) scale(0.08 -0.08)">
     <defs>
      <path id="Arial-BoldMT-37" d="M 272 3703 
L 272 4519 
L 3275 4519 
L 3275 3881 
Q 2903 3516 2518 2831 
Q 2134 2147 1932 1376 
Q 1731 606 1734 0 
L 888 0 
Q 909 950 1279 1937 
Q 1650 2925 2269 3703 
L 272 3703 
z
" transform="scale(0.015625)"/>
     </defs>
     <use xlink:href="#Arial-BoldMT-31"/>
     <use xlink:href="#Arial-BoldMT-31" transform="translate(50.115234 0)"/>
     <use xlink:href="#Arial-BoldMT-37" transform="translate(105.730469 0)"/>
     <use xlink:href="#Arial-BoldMT-2e" transform="translate(161.345703 0)"/>
     <use xlink:href="#Arial-BoldMT-35" transform="translate(189.128906 0)"/>
     <use xlink:href="#Arial-BoldMT-20" transform="translate(244.744141 0)"/>
     <use xlink:href="#Arial-BoldMT-6d" transform="translate(272.527344 0)"/>
     <use xlink:href="#Arial-BoldMT-2f" transform="translate(361.443359 0)"/>
     <use xlink:href="#Arial-BoldMT-73" transform="translate(389.226562 0)"/>
    </g>
   </g>
   <g id="text_29">
    <!-- (B) Adaptive, $n_{sims}\!\times\!n_{gen}=20000$ -->
    <g style="fill: #262626" transform="translate(337.267539 14.7) scale(0.1 -0.1)">
     <defs>
      <path id="ArialMT-42" d="M 469 0 
L 469 4581 
L 2188 4581 
Q 2713 4581 3030 4442 
Q 3347 4303 3526 4014 
Q 3706 3725 3706 3409 
Q 3706 3116 3547 2856 
Q 3388 2597 3066 2438 
Q 3481 2316 3704 2022 
Q 3928 1728 3928 1328 
Q 3928 1006 3792 729 
Q 3656 453 3456 303 
Q 3256 153 2954 76 
Q 2653 0 2216 0 
L 469 0 
z
M 1075 2656 
L 2066 2656 
Q 2469 2656 2644 2709 
Q 2875 2778 2992 2937 
Q 3109 3097 3109 3338 
Q 3109 3566 3000 3739 
Q 2891 3913 2687 3977 
Q 2484 4041 1991 4041 
L 1075 4041 
L 1075 2656 
z
M 1075 541 
L 2216 541 
Q 2509 541 2628 563 
Q 2838 600 2978 687 
Q 3119 775 3209 942 
Q 3300 1109 3300 1328 
Q 3300 1584 3169 1773 
Q 3038 1963 2805 2039 
Q 2572 2116 2134 2116 
L 1075 2116 
L 1075 541 
z
" transform="scale(0.015625)"/>
      <path id="ArialMT-70" d="M 422 -1272 
L 422 3319 
L 934 3319 
L 934 2888 
Q 1116 3141 1344 3267 
Q 1572 3394 1897 3394 
Q 2322 3394 2647 3175 
Q 2972 2956 3137 2557 
Q 3303 2159 3303 1684 
Q 3303 1175 3120 767 
Q 2938 359 2589 142 
Q 2241 -75 1856 -75 
Q 1575 -75 1351 44 
Q 1128 163 984 344 
L 984 -1272 
L 422 -1272 
z
M 931 1641 
Q 931 1000 1190 694 
Q 1450 388 1819 388 
Q 2194 388 2461 705 
Q 2728 1022 2728 1688 
Q 2728 2322 2467 2637 
Q 2206 2953 1844 2953 
Q 1484 2953 1207 2617 
Q 931 2281 931 1641 
z
" transform="scale(0.015625)"/>
      <path id="ArialMT-2c" d="M 569 0 
L 569 641 
L 1209 641 
L 1209 0 
Q 1209 -353 1084 -570 
Q 959 -788 688 -906 
L 531 -666 
Q 709 -588 793 -436 
Q 878 -284 888 0 
L 569 0 
z
" transform="scale(0.015625)"/>
      <path id="DejaVuSans-Oblique-6e" d="M 3566 2113 
L 3156 0 
L 2578 0 
L 2988 2091 
Q 3016 2238 3031 2350 
Q 3047 2463 3047 2528 
Q 3047 2791 2881 2937 
Q 2716 3084 2419 3084 
Q 1956 3084 1622 2776 
Q 1288 2469 1184 1941 
L 800 0 
L 225 0 
L 903 3500 
L 1478 3500 
L 1363 2950 
Q 1603 3253 1940 3418 
Q 2278 3584 2650 3584 
Q 3113 3584 3367 3334 
Q 3622 3084 3622 2631 
Q 3622 2519 3608 2391 
Q 3594 2263 3566 2113 
z
" transform="scale(0.015625)"/>
      <path id="DejaVuSans-Oblique-73" d="M 3200 3397 
L 3091 2853 
Q 2863 2978 2609 3040 
Q 2356 3103 2088 3103 
Q 1634 3103 1373 2948 
Q 1113 2794 1113 2528 
Q 1113 2219 1719 2053 
Q 1766 2041 1788 2034 
L 1972 1978 
Q 2547 1819 2739 1644 
Q 2931 1469 2931 1166 
Q 2931 609 2489 259 
Q 2047 -91 1331 -91 
Q 1053 -91 747 -37 
Q 441 16 72 128 
L 184 722 
Q 500 559 806 475 
Q 1113 391 1394 391 
Q 1816 391 2080 572 
Q 2344 753 2344 1031 
Q 2344 1331 1650 1516 
L 1591 1531 
L 1394 1581 
Q 956 1697 753 1886 
Q 550 2075 550 2369 
Q 550 2928 970 3256 
Q 1391 3584 2113 3584 
Q 2397 3584 2667 3537 
Q 2938 3491 3200 3397 
z
" transform="scale(0.015625)"/>
      <path id="DejaVuSans-Oblique-69" d="M 1172 4863 
L 1747 4863 
L 1606 4134 
L 1031 4134 
L 1172 4863 
z
M 909 3500 
L 1484 3500 
L 800 0 
L 225 0 
L 909 3500 
z
" transform="scale(0.015625)"/>
      <path id="DejaVuSans-Oblique-6d" d="M 5747 2113 
L 5338 0 
L 4763 0 
L 5166 2094 
Q 5191 2228 5203 2325 
Q 5216 2422 5216 2491 
Q 5216 2772 5059 2928 
Q 4903 3084 4622 3084 
Q 4203 3084 3875 2770 
Q 3547 2456 3450 1953 
L 3066 0 
L 2491 0 
L 2900 2094 
Q 2925 2209 2937 2307 
Q 2950 2406 2950 2484 
Q 2950 2769 2794 2926 
Q 2638 3084 2363 3084 
Q 1938 3084 1609 2770 
Q 1281 2456 1184 1953 
L 800 0 
L 225 0 
L 909 3500 
L 1484 3500 
L 1375 2956 
Q 1609 3263 1923 3423 
Q 2238 3584 2597 3584 
Q 2978 3584 3223 3384 
Q 3469 3184 3519 2828 
Q 3781 3197 4126 3390 
Q 4472 3584 4856 3584 
Q 5306 3584 5551 3325 
Q 5797 3066 5797 2591 
Q 5797 2488 5784 2364 
Q 5772 2241 5747 2113 
z
" transform="scale(0.015625)"/>
      <path id="DejaVuSans-d7" d="M 4488 3438 
L 3059 2003 
L 4488 575 
L 4116 197 
L 2681 1631 
L 1247 197 
L 878 575 
L 2303 2003 
L 878 3438 
L 1247 3816 
L 2681 2381 
L 4116 3816 
L 4488 3438 
z
" transform="scale(0.015625)"/>
      <path id="DejaVuSans-Oblique-67" d="M 3816 3500 
L 3219 434 
Q 3047 -456 2561 -893 
Q 2075 -1331 1253 -1331 
Q 950 -1331 690 -1286 
Q 431 -1241 206 -1147 
L 313 -588 
Q 525 -725 762 -790 
Q 1000 -856 1269 -856 
Q 1816 -856 2167 -557 
Q 2519 -259 2631 300 
L 2681 563 
Q 2441 288 2122 144 
Q 1803 0 1434 0 
Q 903 0 598 351 
Q 294 703 294 1319 
Q 294 1803 478 2267 
Q 663 2731 997 3091 
Q 1219 3328 1514 3456 
Q 1809 3584 2131 3584 
Q 2484 3584 2746 3420 
Q 3009 3256 3138 2956 
L 3238 3500 
L 3816 3500 
z
M 2950 2216 
Q 2950 2641 2750 2872 
Q 2550 3103 2181 3103 
Q 1953 3103 1747 3012 
Q 1541 2922 1394 2759 
Q 1156 2491 1023 2127 
Q 891 1763 891 1375 
Q 891 944 1092 712 
Q 1294 481 1672 481 
Q 2219 481 2584 976 
Q 2950 1472 2950 2216 
z
" transform="scale(0.015625)"/>
      <path id="DejaVuSans-Oblique-65" d="M 3078 2063 
Q 3088 2113 3092 2166 
Q 3097 2219 3097 2272 
Q 3097 2653 2873 2875 
Q 2650 3097 2266 3097 
Q 1838 3097 1509 2826 
Q 1181 2556 1013 2059 
L 3078 2063 
z
M 3578 1613 
L 903 1613 
Q 884 1494 878 1425 
Q 872 1356 872 1306 
Q 872 872 1139 634 
Q 1406 397 1894 397 
Q 2269 397 2603 481 
Q 2938 566 3225 728 
L 3116 159 
Q 2806 34 2476 -28 
Q 2147 -91 1806 -91 
Q 1078 -91 686 257 
Q 294 606 294 1247 
Q 294 1794 489 2264 
Q 684 2734 1063 3103 
Q 1306 3334 1642 3459 
Q 1978 3584 2356 3584 
Q 2950 3584 3301 3228 
Q 3653 2872 3653 2272 
Q 3653 2128 3634 1964 
Q 3616 1800 3578 1613 
z
" transform="scale(0.015625)"/>
      <path id="DejaVuSans-3d" d="M 678 2906 
L 4684 2906 
L 4684 2381 
L 678 2381 
L 678 2906 
z
M 678 1631 
L 4684 1631 
L 4684 1100 
L 678 1100 
L 678 1631 
z
" transform="scale(0.015625)"/>
      <path id="DejaVuSans-32" d="M 1228 531 
L 3431 531 
L 3431 0 
L 469 0 
L 469 531 
Q 828 903 1448 1529 
Q 2069 2156 2228 2338 
Q 2531 2678 2651 2914 
Q 2772 3150 2772 3378 
Q 2772 3750 2511 3984 
Q 2250 4219 1831 4219 
Q 1534 4219 1204 4116 
Q 875 4013 500 3803 
L 500 4441 
Q 881 4594 1212 4672 
Q 1544 4750 1819 4750 
Q 2544 4750 2975 4387 
Q 3406 4025 3406 3419 
Q 3406 3131 3298 2873 
Q 3191 2616 2906 2266 
Q 2828 2175 2409 1742 
Q 1991 1309 1228 531 
z
" transform="scale(0.015625)"/>
      <path id="DejaVuSans-30" d="M 2034 4250 
Q 1547 4250 1301 3770 
Q 1056 3291 1056 2328 
Q 1056 1369 1301 889 
Q 1547 409 2034 409 
Q 2525 409 2770 889 
Q 3016 1369 3016 2328 
Q 3016 3291 2770 3770 
Q 2525 4250 2034 4250 
z
M 2034 4750 
Q 2819 4750 3233 4129 
Q 3647 3509 3647 2328 
Q 3647 1150 3233 529 
Q 2819 -91 2034 -91 
Q 1250 -91 836 529 
Q 422 1150 422 2328 
Q 422 3509 836 4129 
Q 1250 4750 2034 4750 
z
" transform="scale(0.015625)"/>
     </defs>
     <use xlink:href="#ArialMT-28" transform="translate(0 0.78125)"/>
     <use xlink:href="#ArialMT-42" transform="translate(33.300781 0.78125)"/>
     <use xlink:href="#ArialMT-29" transform="translate(100 0.78125)"/>
     <use xlink:href="#ArialMT-20" transform="translate(133.300781 0.78125)"/>
     <use xlink:href="#ArialMT-41" transform="translate(161.083984 0.78125)"/>
     <use xlink:href="#ArialMT-64" transform="translate(227.783203 0.78125)"/>
     <use xlink:href="#ArialMT-61" transform="translate(283.398438 0.78125)"/>
     <use xlink:href="#ArialMT-70" transform="translate(339.013672 0.78125)"/>
     <use xlink:href="#ArialMT-74" transform="translate(394.628906 0.78125)"/>
     <use xlink:href="#ArialMT-69" transform="translate(422.412109 0.78125)"/>
     <use xlink:href="#ArialMT-76" transform="translate(444.628906 0.78125)"/>
     <use xlink:href="#ArialMT-65" transform="translate(494.628906 0.78125)"/>
     <use xlink:href="#ArialMT-2c" transform="translate(550.244141 0.78125)"/>
     <use xlink:href="#ArialMT-20" transform="translate(578.027344 0.78125)"/>
     <use xlink:href="#DejaVuSans-Oblique-6e" transform="translate(605.810547 0.78125)"/>
     <use xlink:href="#DejaVuSans-Oblique-73" transform="translate(669.189453 -15.625) scale(0.7)"/>
     <use xlink:href="#DejaVuSans-Oblique-69" transform="translate(705.65918 -15.625) scale(0.7)"/>
     <use xlink:href="#DejaVuSans-Oblique-6d" transform="translate(725.107422 -15.625) scale(0.7)"/>
     <use xlink:href="#DejaVuSans-Oblique-73" transform="translate(793.295898 -15.625) scale(0.7)"/>
     <use xlink:href="#DejaVuSans-d7" transform="translate(835.746746 0.78125)"/>
     <use xlink:href="#DejaVuSans-Oblique-6e" transform="translate(922.782554 0.78125)"/>
     <use xlink:href="#DejaVuSans-Oblique-67" transform="translate(986.16146 -15.625) scale(0.7)"/>
     <use xlink:href="#DejaVuSans-Oblique-65" transform="translate(1030.595054 -15.625) scale(0.7)"/>
     <use xlink:href="#DejaVuSans-Oblique-6e" transform="translate(1073.66146 -15.625) scale(0.7)"/>
     <use xlink:href="#DejaVuSans-3d" transform="translate(1140.243491 0.78125)"/>
     <use xlink:href="#DejaVuSans-32" transform="translate(1243.514976 0.78125)"/>
     <use xlink:href="#DejaVuSans-30" transform="translate(1307.138022 0.78125)"/>
     <use xlink:href="#DejaVuSans-30" transform="translate(1370.761069 0.78125)"/>
     <use xlink:href="#DejaVuSans-30" transform="translate(1434.384116 0.78125)"/>
     <use xlink:href="#DejaVuSans-30" transform="translate(1498.007163 0.78125)"/>
    </g>
   </g>
   <g id="PathCollection_2">
    <path d="M 361.36741 185.962336 
C 362.8793 185.962336 364.329471 185.361656 365.398539 184.292588 
C 366.467607 183.22352 367.068287 181.77335 367.068287 180.261459 
C 367.068287 178.749569 366.467607 177.299398 365.398539 176.23033 
C 364.329471 175.161263 362.8793 174.560582 361.36741 174.560582 
C 359.85552 174.560582 358.405349 175.161263 357.336281 176.23033 
C 356.267213 177.299398 355.666533 178.749569 355.666533 180.261459 
C 355.666533 181.77335 356.267213 183.22352 357.336281 184.292588 
C 358.405349 185.361656 359.85552 185.962336 361.36741 185.962336 
L 361.36741 185.962336 
z
" clip-path="url(#p50e14e0772)" style="fill: none; stroke: #d1701f; stroke-width: 2"/>
   </g>
  </g>
 </g>
 <defs>
  <clipPath id="pa70a7996a9">
   <rect x="48.963539" y="20.7" width="249.032" height="200.748"/>
  </clipPath>
  <clipPath id="p50e14e0772">
   <rect x="337.267539" y="20.7" width="249.032" height="200.748"/>
  </clipPath>
 </defs>
</svg>
