<?xml version="1.0" encoding="utf-8" standalone="no"?>
<!DOCTYPE svg PUBLIC "-//W3C//DTD SVG 1.1//EN"
  "http://www.w3.org/Graphics/SVG/1.1/DTD/svg11.dtd">
<svg xmlns:xlink="http://www.w3.org/1999/xlink" width="592.543906pt" height="269.589621pt" viewBox="0 0 592.543906 269.589621" xmlns="http://www.w3.org/2000/svg" version="1.1">
 <metadata>
  <rdf:RDF xmlns:dc="http://purl.org/dc/elements/1.1/" xmlns:cc="http://creativecommons.org/ns#" xmlns:rdf="http://www.w3.org/1999/02/22-rdf-syntax-ns#">
   <cc:Work>
    <dc:type rdf:resource="http://purl.org/dc/dcmitype/StillImage"/>
    <dc:date>2026-07-03T22:50:28.008870</dc:date>
    <dc:format>image/svg+xml</dc:format>
    <dc:creator>
     <cc:Agent>
      <dc:title>Matplotlib v3.10.9, https://matplotlib.org/</dc:title>
     </cc:Agent>
    </dc:creator>
   </cc:Work>
  </rdf:RDF>
 </metadata>
 <defs>
  <style type="text/css">*{stroke-linejoin: round; stroke-linecap: butt}</style>
 </defs>
 <g id="figure_1">
  <g id="patch_1">
   <path d="M 0 269.589621 
L 592.543906 269.589621 
L 592.543906 0 
L 0 0 
z
" style="fill: #ffffff"/>
  </g>
  <g id="axes_1">
   <g id="patch_2">
    <path d="M 42.118906 223.39756 
L 289.791406 223.39756 
L 289.791406 20.5 
L 42.118906 20.5 
z
" style="fill: #f5f5f5"/>
   </g>
   <g id="matplotlib.axis_1">
    <g id="xtick_1">
     <g id="line2d_1">
      <path d="M 64.662582 223.39756 
L 64.662582 20.5 
" clip-path="url(#p6b0aa34e91)" style="fill: none; stroke: #dddddd; stroke-width: 0.6; stroke-linecap: round"/>
     </g>
     <g id="text_1">
      <!-- bucket_max -->
      <g style="fill: #262626" transform="translate(22.063444 252.383774) rotate(-20) scale(0.08 -0.08)">
       <defs>
        <path id="STIXTwoText-62" d="M 877 4518 
L 1043 4518 
L 1043 2560 
L 1062 2560 
Q 1229 2765 1478 2934 
Q 1728 3104 2048 3104 
Q 2368 3104 2608 2921 
Q 2848 2739 2982 2419 
Q 3117 2099 3117 1683 
Q 3117 1114 2918 723 
Q 2720 333 2374 134 
Q 2029 -64 1581 -64 
Q 1171 -64 899 32 
Q 627 128 512 192 
L 512 3789 
Q 512 4006 464 4067 
Q 416 4128 230 4128 
Q 154 4128 102 4121 
Q 51 4115 51 4115 
L 51 4294 
L 877 4518 
z
M 1043 2278 
L 1043 499 
Q 1133 390 1286 294 
Q 1440 198 1696 198 
Q 2003 198 2185 371 
Q 2368 544 2451 835 
Q 2534 1126 2534 1478 
Q 2534 1786 2470 2058 
Q 2406 2330 2240 2499 
Q 2074 2669 1766 2669 
Q 1523 2669 1328 2531 
Q 1133 2394 1043 2278 
z
" transform="scale(0.015625)"/>
        <path id="STIXTwoText-75" d="M 1421 -64 
Q 1024 -64 803 195 
Q 582 454 582 1107 
L 582 2406 
Q 582 2579 547 2659 
Q 512 2739 416 2761 
Q 320 2784 147 2784 
L 147 2963 
L 973 3059 
L 1114 3059 
L 1114 1190 
Q 1114 864 1187 681 
Q 1261 499 1392 422 
Q 1523 346 1690 346 
Q 1933 346 2109 454 
Q 2285 563 2477 730 
L 2477 2413 
Q 2477 2586 2432 2662 
Q 2387 2739 2275 2761 
Q 2163 2784 1958 2784 
L 1958 2963 
L 2854 3059 
L 3008 3059 
L 3008 710 
Q 3008 429 3085 358 
Q 3162 288 3392 288 
L 3456 288 
L 3456 115 
L 2643 -32 
L 2502 -32 
L 2502 461 
L 2470 461 
Q 2304 294 2141 176 
Q 1978 58 1802 -3 
Q 1626 -64 1421 -64 
z
" transform="scale(0.015625)"/>
        <path id="STIXTwoText-63" d="M 2611 947 
L 2733 858 
Q 2611 602 2454 390 
Q 2298 179 2067 57 
Q 1837 -64 1491 -64 
Q 1094 -64 806 128 
Q 518 320 364 662 
Q 211 1005 211 1446 
Q 211 1952 380 2323 
Q 550 2694 873 2899 
Q 1197 3104 1658 3104 
Q 2112 3104 2371 2905 
Q 2630 2707 2630 2426 
Q 2630 2285 2563 2211 
Q 2496 2138 2362 2138 
Q 2221 2138 2147 2211 
Q 2074 2285 2029 2393 
Q 1984 2502 1936 2611 
Q 1888 2720 1801 2793 
Q 1715 2867 1549 2867 
Q 1158 2867 937 2582 
Q 717 2298 717 1747 
Q 717 1165 957 790 
Q 1197 416 1690 416 
Q 2003 416 2198 544 
Q 2394 672 2611 947 
z
" transform="scale(0.015625)"/>
        <path id="STIXTwoText-6b" d="M 1645 0 
L 192 0 
L 192 186 
Q 480 186 560 266 
Q 640 346 640 608 
L 640 3808 
Q 640 4013 592 4073 
Q 544 4134 384 4134 
Q 320 4134 243 4128 
Q 166 4122 166 4122 
L 166 4294 
L 998 4518 
L 1171 4518 
L 1171 1696 
L 1210 1696 
L 2035 2515 
Q 2054 2534 2102 2588 
Q 2150 2643 2150 2720 
Q 2150 2784 2086 2809 
Q 2022 2835 1837 2835 
L 1837 3027 
L 3219 3027 
L 3219 2835 
Q 3066 2835 2947 2806 
Q 2829 2778 2707 2698 
Q 2586 2618 2410 2470 
Q 2234 2323 1965 2086 
L 1645 1824 
L 2771 557 
Q 2925 384 3024 304 
Q 3123 224 3219 205 
Q 3315 186 3450 186 
L 3450 0 
L 2035 0 
L 2035 186 
Q 2176 186 2230 202 
Q 2285 218 2285 262 
Q 2285 307 2262 348 
Q 2240 390 2214 416 
L 1210 1555 
L 1171 1555 
L 1171 582 
Q 1171 339 1257 262 
Q 1344 186 1645 186 
L 1645 0 
z
" transform="scale(0.015625)"/>
        <path id="STIXTwoText-65" d="M 1581 -64 
Q 1197 -64 886 118 
Q 576 301 397 656 
Q 218 1011 218 1523 
Q 218 2061 400 2409 
Q 582 2758 889 2931 
Q 1197 3104 1568 3104 
Q 2093 3104 2413 2739 
Q 2733 2374 2758 1702 
L 678 1702 
L 672 1939 
L 2157 1939 
Q 2150 2176 2073 2384 
Q 1997 2592 1849 2720 
Q 1702 2848 1472 2848 
Q 1101 2848 915 2557 
Q 730 2266 730 1734 
Q 730 1293 870 998 
Q 1011 704 1241 560 
Q 1472 416 1734 416 
Q 1997 416 2160 486 
Q 2323 557 2438 669 
Q 2554 781 2656 915 
L 2778 826 
Q 2694 646 2585 483 
Q 2477 320 2339 198 
Q 2202 77 2016 6 
Q 1830 -64 1581 -64 
z
" transform="scale(0.015625)"/>
        <path id="STIXTwoText-74" d="M 1875 576 
L 1997 474 
Q 1875 301 1769 182 
Q 1664 64 1536 0 
Q 1408 -64 1203 -64 
Q 883 -64 736 125 
Q 589 314 589 742 
L 589 2726 
L 237 2726 
L 237 2874 
Q 461 3014 624 3254 
Q 787 3494 960 3904 
L 1120 3904 
L 1120 2995 
L 1843 2995 
L 1843 2726 
L 1120 2726 
L 1120 922 
Q 1120 582 1181 448 
Q 1242 314 1427 314 
Q 1581 314 1667 378 
Q 1754 442 1875 576 
z
" transform="scale(0.015625)"/>
        <path id="STIXTwoText-5f" d="M 3277 -819 
L 0 -819 
L 0 -493 
L 3277 -493 
L 3277 -819 
z
" transform="scale(0.015625)"/>
        <path id="STIXTwoText-6d" d="M 3520 0 
L 2003 0 
L 2003 186 
Q 2234 186 2336 230 
Q 2438 275 2467 396 
Q 2496 518 2496 742 
L 2496 2010 
Q 2496 2419 2352 2556 
Q 2208 2694 1984 2694 
Q 1805 2694 1648 2617 
Q 1491 2541 1363 2438 
Q 1235 2336 1146 2246 
L 1094 2566 
L 1190 2566 
Q 1453 2790 1696 2947 
Q 1939 3104 2266 3104 
Q 2554 3104 2730 2937 
Q 2906 2771 2995 2522 
Q 3008 2502 3014 2480 
Q 3021 2458 3027 2432 
L 3027 742 
Q 3027 525 3056 403 
Q 3085 282 3187 234 
Q 3290 186 3520 186 
L 3520 0 
z
M 1664 0 
L 205 0 
L 205 186 
Q 410 186 502 221 
Q 595 256 624 355 
Q 653 454 653 646 
L 653 2438 
Q 653 2611 585 2668 
Q 518 2726 384 2726 
Q 314 2726 262 2720 
Q 211 2714 211 2714 
L 211 2899 
L 1011 3085 
L 1165 3085 
L 1165 2496 
L 1184 2355 
L 1184 621 
Q 1184 442 1222 349 
Q 1261 256 1363 221 
Q 1466 186 1664 186 
L 1664 0 
z
M 5306 0 
L 3859 0 
L 3859 186 
Q 4077 186 4173 243 
Q 4269 301 4291 425 
Q 4314 550 4314 742 
L 4314 1971 
Q 4314 2266 4240 2419 
Q 4166 2573 4041 2633 
Q 3917 2694 3763 2694 
Q 3552 2694 3347 2544 
Q 3142 2394 2976 2253 
L 2906 2573 
L 3002 2573 
Q 3264 2835 3513 2969 
Q 3763 3104 4019 3104 
Q 4397 3104 4621 2867 
Q 4845 2630 4845 2048 
L 4845 742 
Q 4845 544 4867 419 
Q 4890 294 4989 240 
Q 5088 186 5306 186 
L 5306 0 
z
" transform="scale(0.015625)"/>
        <path id="STIXTwoText-61" d="M 1005 -45 
Q 634 -45 438 160 
Q 243 365 243 672 
Q 243 928 361 1104 
Q 480 1280 675 1401 
Q 870 1523 1097 1606 
Q 1325 1690 1542 1747 
Q 1760 1805 1926 1856 
L 1926 2138 
Q 1926 2554 1782 2730 
Q 1638 2906 1350 2906 
Q 1075 2906 998 2790 
Q 922 2675 922 2387 
Q 922 2240 848 2166 
Q 774 2093 640 2093 
Q 544 2093 457 2166 
Q 371 2240 371 2400 
Q 371 2579 508 2739 
Q 646 2899 899 3001 
Q 1152 3104 1498 3104 
Q 2022 3104 2240 2861 
Q 2458 2618 2458 2118 
L 2458 666 
Q 2458 467 2502 409 
Q 2547 352 2650 352 
Q 2739 352 2812 397 
Q 2886 442 2950 512 
L 3046 410 
Q 2886 179 2742 73 
Q 2598 -32 2355 -32 
Q 2131 -32 2064 96 
Q 1997 224 1965 461 
L 1926 538 
L 1926 1645 
Q 1638 1574 1382 1478 
Q 1126 1382 966 1228 
Q 806 1075 806 826 
Q 806 589 934 448 
Q 1062 307 1267 307 
Q 1434 307 1616 390 
Q 1798 474 1971 627 
L 2022 397 
L 1946 397 
Q 1798 269 1660 166 
Q 1523 64 1366 9 
Q 1210 -45 1005 -45 
z
" transform="scale(0.015625)"/>
        <path id="STIXTwoText-78" d="M 3085 0 
L 1747 0 
L 1747 186 
Q 1914 186 1981 214 
Q 2048 243 2048 326 
Q 2048 390 2003 461 
L 1600 1082 
L 1440 1363 
L 1338 1453 
L 634 2458 
Q 525 2618 448 2701 
Q 371 2784 288 2813 
Q 205 2842 70 2842 
L 70 3027 
L 1446 3027 
L 1446 2848 
Q 1139 2848 1139 2701 
Q 1139 2650 1177 2579 
Q 1216 2509 1289 2397 
Q 1363 2285 1472 2106 
L 1651 1773 
L 1754 1715 
L 2573 557 
Q 2707 365 2806 275 
Q 2906 186 3085 186 
L 3085 0 
z
M 1056 0 
L -13 0 
L -13 186 
Q 154 186 262 253 
Q 371 320 531 506 
L 1338 1555 
L 1536 1306 
L 1446 1306 
L 922 550 
Q 877 474 822 397 
Q 768 320 768 282 
Q 768 230 832 208 
Q 896 186 1056 186 
L 1056 0 
z
M 2464 2541 
L 1754 1626 
L 1568 1824 
L 1651 1824 
L 1952 2259 
Q 2080 2438 2131 2528 
Q 2182 2618 2182 2694 
Q 2182 2765 2128 2806 
Q 2074 2848 1920 2848 
L 1920 3027 
L 2976 3027 
L 2976 2842 
Q 2816 2842 2694 2762 
Q 2573 2682 2464 2541 
z
" transform="scale(0.015625)"/>
       </defs>
       <use xlink:href="#STIXTwoText-62"/>
       <use xlink:href="#STIXTwoText-75" transform="translate(52.199997 0)"/>
       <use xlink:href="#STIXTwoText-63" transform="translate(109.199982 0)"/>
       <use xlink:href="#STIXTwoText-6b" transform="translate(153.799973 0)"/>
       <use xlink:href="#STIXTwoText-65" transform="translate(207.999969 0)"/>
       <use xlink:href="#STIXTwoText-74" transform="translate(254.399963 0)"/>
       <use xlink:href="#STIXTwoText-5f" transform="translate(285.899948 0)"/>
       <use xlink:href="#STIXTwoText-6d" transform="translate(337.099945 0)"/>
       <use xlink:href="#STIXTwoText-61" transform="translate(422.299927 0)"/>
       <use xlink:href="#STIXTwoText-78" transform="translate(470.299911 0)"/>
      </g>
      <!-- (deployed) -->
      <g style="fill: #262626" transform="translate(30.121347 258.781648) rotate(-20) scale(0.08 -0.08)">
       <defs>
        <path id="STIXTwoText-28" d="M 1997 -1011 
L 1894 -1190 
Q 1120 -794 656 -48 
Q 192 698 192 1754 
Q 192 2803 656 3542 
Q 1120 4282 1894 4672 
L 1997 4506 
Q 1299 4038 1008 3372 
Q 717 2707 717 1754 
Q 717 787 1008 118 
Q 1299 -550 1997 -1011 
z
" transform="scale(0.015625)"/>
        <path id="STIXTwoText-64" d="M 1306 -51 
Q 947 -51 700 141 
Q 454 333 332 662 
Q 211 992 211 1402 
Q 211 1933 409 2313 
Q 608 2694 944 2899 
Q 1280 3104 1683 3104 
Q 1837 3104 1987 3065 
Q 2138 3027 2278 2950 
L 2304 2950 
L 2304 3789 
Q 2304 4000 2256 4064 
Q 2208 4128 2022 4128 
Q 1978 4128 1917 4121 
Q 1856 4115 1856 4115 
L 1856 4294 
L 2662 4518 
L 2835 4518 
L 2835 685 
Q 2835 435 2905 361 
Q 2976 288 3155 288 
L 3290 288 
L 3290 115 
L 2470 -32 
L 2323 -32 
L 2323 410 
L 2298 410 
Q 2118 250 1872 99 
Q 1626 -51 1306 -51 
z
M 1606 410 
Q 1830 410 1984 470 
Q 2138 531 2304 646 
L 2304 2336 
Q 2266 2534 2118 2691 
Q 1971 2848 1670 2848 
Q 1267 2848 1017 2553 
Q 768 2259 768 1651 
Q 768 992 982 701 
Q 1197 410 1606 410 
z
" transform="scale(0.015625)"/>
        <path id="STIXTwoText-70" d="M 1760 -1408 
L 141 -1408 
L 141 -1229 
Q 442 -1229 525 -1129 
Q 608 -1030 608 -762 
L 608 2406 
Q 608 2592 566 2662 
Q 525 2733 365 2733 
Q 301 2733 230 2726 
Q 160 2720 160 2720 
L 160 2906 
L 966 3085 
L 1126 3085 
L 1126 2547 
L 1146 2547 
Q 1376 2816 1616 2960 
Q 1856 3104 2138 3104 
Q 2458 3104 2698 2921 
Q 2938 2739 3075 2416 
Q 3213 2093 3213 1670 
Q 3213 1126 3024 739 
Q 2835 352 2515 144 
Q 2195 -64 1811 -64 
Q 1632 -64 1469 -22 
Q 1306 19 1165 115 
L 1139 115 
L 1139 -723 
Q 1139 -928 1190 -1037 
Q 1242 -1146 1376 -1184 
Q 1510 -1222 1760 -1222 
L 1760 -1408 
z
M 1843 186 
Q 2182 186 2406 506 
Q 2630 826 2630 1491 
Q 2630 2099 2432 2384 
Q 2234 2669 1875 2669 
Q 1619 2669 1424 2534 
Q 1229 2400 1139 2278 
L 1139 608 
Q 1203 544 1299 441 
Q 1395 339 1529 262 
Q 1664 186 1843 186 
z
" transform="scale(0.015625)"/>
        <path id="STIXTwoText-6c" d="M 1664 0 
L 192 0 
L 192 186 
Q 403 186 499 227 
Q 595 269 617 368 
Q 640 467 640 646 
L 640 3859 
Q 640 4058 566 4096 
Q 493 4134 371 4134 
Q 288 4134 227 4128 
Q 166 4122 166 4122 
L 166 4294 
L 1011 4518 
L 1171 4518 
L 1171 646 
Q 1171 461 1200 361 
Q 1229 262 1331 224 
Q 1434 186 1664 186 
L 1664 0 
z
" transform="scale(0.015625)"/>
        <path id="STIXTwoText-6f" d="M 1651 -64 
Q 979 -64 598 355 
Q 218 774 218 1549 
Q 218 2016 397 2365 
Q 576 2714 899 2909 
Q 1222 3104 1651 3104 
Q 2310 3104 2691 2694 
Q 3072 2285 3072 1574 
Q 3072 1037 2889 672 
Q 2707 307 2387 121 
Q 2067 -64 1651 -64 
z
M 1677 192 
Q 1939 192 2118 313 
Q 2298 435 2390 729 
Q 2483 1024 2483 1542 
Q 2483 2131 2268 2496 
Q 2054 2861 1626 2861 
Q 1261 2861 1037 2553 
Q 813 2246 813 1632 
Q 813 870 1040 528 
Q 1267 186 1677 192 
z
" transform="scale(0.015625)"/>
        <path id="STIXTwoText-79" d="M 493 -1504 
Q 294 -1504 166 -1427 
Q 38 -1350 38 -1171 
Q 38 -1024 124 -960 
Q 211 -896 333 -896 
Q 499 -896 630 -966 
Q 762 -1037 826 -1037 
Q 915 -1037 1017 -899 
Q 1120 -762 1219 -570 
Q 1318 -378 1379 -208 
Q 1440 -38 1440 32 
Q 1440 96 1373 262 
Q 1306 429 1248 557 
L 307 2611 
Q 262 2720 179 2781 
Q 96 2842 -77 2842 
L -77 3027 
L 1293 3027 
L 1293 2835 
Q 1075 2835 1001 2793 
Q 928 2752 928 2669 
Q 928 2605 960 2531 
Q 992 2458 1018 2387 
L 1645 979 
L 1728 666 
L 1773 666 
L 2394 2522 
Q 2406 2554 2416 2602 
Q 2426 2650 2426 2682 
Q 2426 2778 2326 2810 
Q 2227 2842 2067 2842 
L 2067 3027 
L 3155 3027 
L 3155 2842 
Q 2963 2842 2873 2755 
Q 2784 2669 2714 2483 
L 1715 -141 
Q 1530 -627 1354 -928 
Q 1178 -1229 973 -1366 
Q 768 -1504 493 -1504 
z
" transform="scale(0.015625)"/>
        <path id="STIXTwoText-29" d="M 301 -1190 
L 198 -1011 
Q 902 -550 1190 118 
Q 1478 787 1478 1754 
Q 1478 2707 1190 3372 
Q 902 4038 198 4506 
L 301 4672 
Q 1075 4282 1539 3542 
Q 2003 2803 2003 1754 
Q 2003 698 1539 -48 
Q 1075 -794 301 -1190 
z
" transform="scale(0.015625)"/>
       </defs>
       <use xlink:href="#STIXTwoText-28"/>
       <use xlink:href="#STIXTwoText-64" transform="translate(34.299988 0)"/>
       <use xlink:href="#STIXTwoText-65" transform="translate(88.199982 0)"/>
       <use xlink:href="#STIXTwoText-70" transform="translate(134.599976 0)"/>
       <use xlink:href="#STIXTwoText-6c" transform="translate(188.299973 0)"/>
       <use xlink:href="#STIXTwoText-6f" transform="translate(216.59996 0)"/>
       <use xlink:href="#STIXTwoText-79" transform="translate(267.999954 0)"/>
       <use xlink:href="#STIXTwoText-65" transform="translate(316.299942 0)"/>
       <use xlink:href="#STIXTwoText-64" transform="translate(362.699936 0)"/>
       <use xlink:href="#STIXTwoText-29" transform="translate(416.59993 0)"/>
      </g>
     </g>
    </g>
    <g id="xtick_2">
     <g id="line2d_2">
      <path d="M 105.179611 223.39756 
L 105.179611 20.5 
" clip-path="url(#p6b0aa34e91)" style="fill: none; stroke: #dddddd; stroke-width: 0.6; stroke-linecap: round"/>
     </g>
     <g id="text_2">
      <!-- bucket_middle -->
      <g style="fill: #262626" transform="translate(56.966955 255.533352) rotate(-20) scale(0.08 -0.08)">
       <defs>
        <path id="STIXTwoText-69" d="M 1645 0 
L 205 0 
L 205 179 
Q 422 179 515 220 
Q 608 262 630 364 
Q 653 467 653 646 
L 653 2432 
Q 653 2637 582 2685 
Q 512 2733 371 2733 
Q 307 2733 259 2726 
Q 211 2720 211 2720 
L 211 2906 
L 1018 3085 
L 1184 3085 
L 1184 646 
Q 1184 461 1209 358 
Q 1235 256 1334 217 
Q 1434 179 1645 179 
L 1645 0 
z
M 928 3584 
Q 768 3584 665 3693 
Q 563 3802 563 3949 
Q 563 4096 662 4201 
Q 762 4307 928 4307 
Q 1094 4307 1193 4201 
Q 1293 4096 1293 3949 
Q 1293 3802 1193 3693 
Q 1094 3584 928 3584 
z
" transform="scale(0.015625)"/>
       </defs>
       <use xlink:href="#STIXTwoText-62"/>
       <use xlink:href="#STIXTwoText-75" transform="translate(52.199997 0)"/>
       <use xlink:href="#STIXTwoText-63" transform="translate(109.199982 0)"/>
       <use xlink:href="#STIXTwoText-6b" transform="translate(153.799973 0)"/>
       <use xlink:href="#STIXTwoText-65" transform="translate(207.999969 0)"/>
       <use xlink:href="#STIXTwoText-74" transform="translate(254.399963 0)"/>
       <use xlink:href="#STIXTwoText-5f" transform="translate(285.899948 0)"/>
       <use xlink:href="#STIXTwoText-6d" transform="translate(337.099945 0)"/>
       <use xlink:href="#STIXTwoText-69" transform="translate(422.299927 0)"/>
       <use xlink:href="#STIXTwoText-64" transform="translate(450.799911 0)"/>
       <use xlink:href="#STIXTwoText-64" transform="translate(504.699905 0)"/>
       <use xlink:href="#STIXTwoText-6c" transform="translate(558.599899 0)"/>
       <use xlink:href="#STIXTwoText-65" transform="translate(586.899887 0)"/>
      </g>
     </g>
    </g>
    <g id="xtick_3">
     <g id="line2d_3">
      <path d="M 145.696641 223.39756 
L 145.696641 20.5 
" clip-path="url(#p6b0aa34e91)" style="fill: none; stroke: #dddddd; stroke-width: 0.6; stroke-linecap: round"/>
     </g>
     <g id="text_3">
      <!-- bucket_random -->
      <g style="fill: #262626" transform="translate(94.635541 256.570101) rotate(-20) scale(0.08 -0.08)">
       <defs>
        <path id="STIXTwoText-72" d="M 1786 0 
L 186 0 
L 186 186 
Q 397 186 496 221 
Q 595 256 624 349 
Q 653 442 653 621 
L 653 2381 
Q 653 2554 624 2640 
Q 595 2726 422 2726 
Q 326 2726 275 2720 
Q 224 2714 224 2714 
L 224 2893 
L 1018 3085 
L 1171 3085 
L 1171 2426 
L 1190 2426 
Q 1357 2662 1485 2816 
Q 1613 2970 1737 3046 
Q 1862 3123 2016 3123 
Q 2202 3123 2294 3027 
Q 2387 2931 2387 2765 
Q 2387 2586 2300 2502 
Q 2214 2419 2106 2419 
Q 2003 2419 1923 2473 
Q 1843 2528 1785 2582 
Q 1728 2637 1690 2637 
Q 1581 2637 1440 2470 
Q 1299 2304 1184 2112 
L 1184 653 
Q 1184 454 1235 352 
Q 1286 250 1417 218 
Q 1549 186 1786 186 
L 1786 0 
z
" transform="scale(0.015625)"/>
        <path id="STIXTwoText-6e" d="M 3552 0 
L 2074 0 
L 2074 179 
Q 2304 179 2403 220 
Q 2502 262 2524 364 
Q 2547 467 2547 646 
L 2547 1805 
Q 2547 2189 2460 2381 
Q 2374 2573 2240 2633 
Q 2106 2694 1958 2694 
Q 1773 2694 1625 2620 
Q 1478 2547 1360 2444 
Q 1242 2342 1139 2253 
L 1094 2566 
L 1190 2566 
Q 1453 2797 1686 2950 
Q 1920 3104 2221 3104 
Q 2656 3104 2867 2809 
Q 3078 2515 3078 1965 
L 3078 646 
Q 3078 467 3107 364 
Q 3136 262 3238 220 
Q 3341 179 3552 179 
L 3552 0 
z
M 1670 0 
L 205 0 
L 205 179 
Q 422 179 515 220 
Q 608 262 630 364 
Q 653 467 653 646 
L 653 2445 
Q 653 2618 582 2672 
Q 512 2726 384 2726 
Q 301 2726 256 2720 
Q 211 2714 211 2714 
L 211 2899 
L 1024 3085 
L 1171 3085 
L 1165 2496 
L 1184 2362 
L 1184 646 
Q 1184 467 1209 364 
Q 1235 262 1337 220 
Q 1440 179 1670 179 
L 1670 0 
z
" transform="scale(0.015625)"/>
       </defs>
       <use xlink:href="#STIXTwoText-62"/>
       <use xlink:href="#STIXTwoText-75" transform="translate(52.199997 0)"/>
       <use xlink:href="#STIXTwoText-63" transform="translate(109.199982 0)"/>
       <use xlink:href="#STIXTwoText-6b" transform="translate(153.799973 0)"/>
       <use xlink:href="#STIXTwoText-65" transform="translate(207.999969 0)"/>
       <use xlink:href="#STIXTwoText-74" transform="translate(254.399963 0)"/>
       <use xlink:href="#STIXTwoText-5f" transform="translate(285.899948 0)"/>
       <use xlink:href="#STIXTwoText-72" transform="translate(337.099945 0)"/>
       <use xlink:href="#STIXTwoText-61" transform="translate(375.09993 0)"/>
       <use xlink:href="#STIXTwoText-6e" transform="translate(423.099915 0)"/>
       <use xlink:href="#STIXTwoText-64" transform="translate(480.699905 0)"/>
       <use xlink:href="#STIXTwoText-6f" transform="translate(534.599899 0)"/>
       <use xlink:href="#STIXTwoText-6d" transform="translate(585.999893 0)"/>
      </g>
     </g>
    </g>
    <g id="xtick_4">
     <g id="line2d_4">
      <path d="M 186.213671 223.39756 
L 186.213671 20.5 
" clip-path="url(#p6b0aa34e91)" style="fill: none; stroke: #dddddd; stroke-width: 0.6; stroke-linecap: round"/>
     </g>
     <g id="text_4">
      <!-- trim_10 -->
      <g style="fill: #262626" transform="translate(160.547764 247.327007) rotate(-20) scale(0.08 -0.08)">
       <defs>
        <path id="STIXTwoText-31" d="M 2726 0 
L 512 0 
L 512 179 
Q 966 179 1152 275 
Q 1338 371 1338 608 
L 1338 3315 
Q 1338 3482 1293 3555 
Q 1248 3629 1126 3629 
Q 1062 3629 947 3616 
Q 832 3603 704 3580 
Q 576 3558 474 3526 
L 474 3738 
L 1715 4090 
L 1901 4090 
L 1901 608 
Q 1901 371 2093 275 
Q 2285 179 2726 179 
L 2726 0 
z
" transform="scale(0.015625)"/>
        <path id="STIXTwoText-30" d="M 1581 -70 
Q 1197 -70 928 99 
Q 659 269 492 563 
Q 326 858 249 1242 
Q 173 1626 173 2048 
Q 173 2656 336 3120 
Q 499 3584 816 3846 
Q 1133 4109 1594 4109 
Q 2010 4109 2323 3862 
Q 2637 3616 2816 3152 
Q 2995 2688 2995 2029 
Q 2995 1619 2915 1241 
Q 2835 864 2665 569 
Q 2496 275 2227 102 
Q 1958 -70 1581 -70 
z
M 1581 160 
Q 1958 160 2166 614 
Q 2374 1069 2374 1990 
Q 2374 2963 2172 3427 
Q 1971 3891 1574 3891 
Q 1197 3891 992 3430 
Q 787 2970 787 2016 
Q 787 1088 992 624 
Q 1197 160 1581 160 
z
" transform="scale(0.015625)"/>
       </defs>
       <use xlink:href="#STIXTwoText-74"/>
       <use xlink:href="#STIXTwoText-72" transform="translate(31.499985 0)"/>
       <use xlink:href="#STIXTwoText-69" transform="translate(69.499969 0)"/>
       <use xlink:href="#STIXTwoText-6d" transform="translate(97.999954 0)"/>
       <use xlink:href="#STIXTwoText-5f" transform="translate(183.199936 0)"/>
       <use xlink:href="#STIXTwoText-31" transform="translate(234.399933 0)"/>
       <use xlink:href="#STIXTwoText-30" transform="translate(283.899918 0)"/>
      </g>
     </g>
    </g>
    <g id="xtick_5">
     <g id="line2d_5">
      <path d="M 226.730701 223.39756 
L 226.730701 20.5 
" clip-path="url(#p6b0aa34e91)" style="fill: none; stroke: #dddddd; stroke-width: 0.6; stroke-linecap: round"/>
     </g>
     <g id="text_5">
      <!-- trim_20 -->
      <g style="fill: #262626" transform="translate(201.064794 247.327007) rotate(-20) scale(0.08 -0.08)">
       <defs>
        <path id="STIXTwoText-32" d="M 2765 0 
L 243 0 
L 243 218 
L 1216 1190 
Q 1536 1517 1747 1782 
Q 1958 2048 2064 2317 
Q 2170 2586 2170 2918 
Q 2170 3277 1955 3491 
Q 1741 3706 1370 3706 
Q 1056 3706 835 3571 
Q 614 3437 435 3078 
L 282 3142 
Q 429 3610 749 3866 
Q 1069 4122 1536 4122 
Q 1901 4122 2176 3984 
Q 2451 3846 2608 3600 
Q 2765 3354 2765 3014 
Q 2765 2733 2646 2473 
Q 2528 2214 2294 1939 
Q 2061 1664 1722 1318 
L 877 518 
L 877 486 
L 1325 506 
L 2214 506 
Q 2470 506 2572 621 
Q 2675 736 2784 1024 
L 2970 1024 
L 2765 0 
z
" transform="scale(0.015625)"/>
       </defs>
       <use xlink:href="#STIXTwoText-74"/>
       <use xlink:href="#STIXTwoText-72" transform="translate(31.499985 0)"/>
       <use xlink:href="#STIXTwoText-69" transform="translate(69.499969 0)"/>
       <use xlink:href="#STIXTwoText-6d" transform="translate(97.999954 0)"/>
       <use xlink:href="#STIXTwoText-5f" transform="translate(183.199936 0)"/>
       <use xlink:href="#STIXTwoText-32" transform="translate(234.399933 0)"/>
       <use xlink:href="#STIXTwoText-30" transform="translate(283.899918 0)"/>
      </g>
     </g>
    </g>
    <g id="xtick_6">
     <g id="line2d_6">
      <path d="M 267.247731 223.39756 
L 267.247731 20.5 
" clip-path="url(#p6b0aa34e91)" style="fill: none; stroke: #dddddd; stroke-width: 0.6; stroke-linecap: round"/>
     </g>
     <g id="text_6">
      <!-- bucket_min -->
      <g style="fill: #262626" transform="translate(228.426127 252.115289) rotate(-20) scale(0.08 -0.08)">
       <use xlink:href="#STIXTwoText-62"/>
       <use xlink:href="#STIXTwoText-75" transform="translate(52.199997 0)"/>
       <use xlink:href="#STIXTwoText-63" transform="translate(109.199982 0)"/>
       <use xlink:href="#STIXTwoText-6b" transform="translate(153.799973 0)"/>
       <use xlink:href="#STIXTwoText-65" transform="translate(207.999969 0)"/>
       <use xlink:href="#STIXTwoText-74" transform="translate(254.399963 0)"/>
       <use xlink:href="#STIXTwoText-5f" transform="translate(285.899948 0)"/>
       <use xlink:href="#STIXTwoText-6d" transform="translate(337.099945 0)"/>
       <use xlink:href="#STIXTwoText-69" transform="translate(422.299927 0)"/>
       <use xlink:href="#STIXTwoText-6e" transform="translate(450.799911 0)"/>
      </g>
     </g>
    </g>
   </g>
   <g id="matplotlib.axis_2">
    <g id="ytick_1">
     <g id="line2d_7">
      <path d="M 42.118906 223.39756 
L 289.791406 223.39756 
" clip-path="url(#p6b0aa34e91)" style="fill: none; stroke: #dddddd; stroke-width: 0.6; stroke-linecap: round"/>
     </g>
     <g id="text_7">
      <!-- 0 -->
      <g style="fill: #262626" transform="translate(28.411406 226.397795) scale(0.085 -0.085)">
       <use xlink:href="#STIXTwoText-30"/>
      </g>
     </g>
    </g>
    <g id="ytick_2">
     <g id="line2d_8">
      <path d="M 42.118906 198.681204 
L 289.791406 198.681204 
" clip-path="url(#p6b0aa34e91)" style="fill: none; stroke: #dddddd; stroke-width: 0.6; stroke-linecap: round"/>
     </g>
     <g id="text_8">
      <!-- 20 -->
      <g style="fill: #262626" transform="translate(24.203906 201.681438) scale(0.085 -0.085)">
       <use xlink:href="#STIXTwoText-32"/>
       <use xlink:href="#STIXTwoText-30" transform="translate(49.499985 0)"/>
      </g>
     </g>
    </g>
    <g id="ytick_3">
     <g id="line2d_9">
      <path d="M 42.118906 173.964847 
L 289.791406 173.964847 
" clip-path="url(#p6b0aa34e91)" style="fill: none; stroke: #dddddd; stroke-width: 0.6; stroke-linecap: round"/>
     </g>
     <g id="text_9">
      <!-- 40 -->
      <g style="fill: #262626" transform="translate(24.203906 176.965081) scale(0.085 -0.085)">
       <defs>
        <path id="STIXTwoText-34" d="M 2426 0 
L 1856 0 
L 1856 1011 
L 83 1011 
L 83 1414 
L 2035 4128 
L 2426 4128 
L 2426 1453 
L 3078 1453 
L 3078 1011 
L 2426 1011 
L 2426 0 
z
M 435 1478 
L 435 1453 
L 1856 1453 
L 1856 3430 
L 1830 3430 
L 435 1478 
z
" transform="scale(0.015625)"/>
       </defs>
       <use xlink:href="#STIXTwoText-34"/>
       <use xlink:href="#STIXTwoText-30" transform="translate(49.499985 0)"/>
      </g>
     </g>
    </g>
    <g id="ytick_4">
     <g id="line2d_10">
      <path d="M 42.118906 149.24849 
L 289.791406 149.24849 
" clip-path="url(#p6b0aa34e91)" style="fill: none; stroke: #dddddd; stroke-width: 0.6; stroke-linecap: round"/>
     </g>
     <g id="text_10">
      <!-- 60 -->
      <g style="fill: #262626" transform="translate(24.203906 152.248725) scale(0.085 -0.085)">
       <defs>
        <path id="STIXTwoText-36" d="M 1658 -77 
Q 1184 -77 880 156 
Q 576 390 432 784 
Q 288 1178 288 1645 
Q 288 2221 464 2675 
Q 640 3130 957 3446 
Q 1274 3763 1706 3939 
Q 2138 4115 2656 4134 
L 2669 3949 
Q 2221 3885 1849 3661 
Q 1478 3437 1228 3078 
Q 979 2720 896 2253 
L 941 2246 
Q 1139 2438 1331 2540 
Q 1523 2643 1773 2643 
Q 2298 2643 2611 2284 
Q 2925 1926 2925 1299 
Q 2925 646 2595 284 
Q 2266 -77 1658 -77 
z
M 1683 147 
Q 2003 147 2185 393 
Q 2368 640 2368 1248 
Q 2368 1683 2173 1977 
Q 1978 2272 1581 2272 
Q 1395 2272 1232 2198 
Q 1069 2125 966 1958 
Q 864 1792 864 1510 
Q 864 1114 953 806 
Q 1043 499 1225 323 
Q 1408 147 1683 147 
z
" transform="scale(0.015625)"/>
       </defs>
       <use xlink:href="#STIXTwoText-36"/>
       <use xlink:href="#STIXTwoText-30" transform="translate(49.499985 0)"/>
      </g>
     </g>
    </g>
    <g id="ytick_5">
     <g id="line2d_11">
      <path d="M 42.118906 124.532134 
L 289.791406 124.532134 
" clip-path="url(#p6b0aa34e91)" style="fill: none; stroke: #dddddd; stroke-width: 0.6; stroke-linecap: round"/>
     </g>
     <g id="text_11">
      <!-- 80 -->
      <g style="fill: #262626" transform="translate(24.203906 127.532368) scale(0.085 -0.085)">
       <defs>
        <path id="STIXTwoText-38" d="M 1574 -77 
Q 1203 -77 915 32 
Q 627 141 460 361 
Q 294 582 294 909 
Q 294 1165 390 1341 
Q 486 1517 681 1670 
Q 877 1824 1171 2022 
L 1171 2099 
L 1421 1965 
Q 1222 1805 1081 1664 
Q 941 1523 867 1356 
Q 794 1190 794 960 
Q 794 531 1014 326 
Q 1235 122 1600 122 
Q 1798 122 1964 195 
Q 2131 269 2230 413 
Q 2330 557 2330 774 
Q 2330 986 2243 1158 
Q 2157 1331 1929 1520 
Q 1702 1709 1280 1978 
L 1248 1990 
Q 890 2234 701 2419 
Q 512 2605 445 2787 
Q 378 2970 378 3194 
Q 378 3488 534 3699 
Q 691 3910 966 4025 
Q 1242 4141 1594 4141 
Q 1914 4141 2166 4025 
Q 2419 3910 2566 3712 
Q 2714 3514 2714 3258 
Q 2714 3027 2630 2860 
Q 2547 2694 2368 2556 
Q 2189 2419 1888 2253 
L 1888 2176 
L 1619 2317 
Q 1978 2522 2109 2736 
Q 2240 2950 2240 3270 
Q 2240 3590 2064 3760 
Q 1888 3930 1581 3930 
Q 1254 3930 1065 3766 
Q 877 3603 877 3309 
Q 877 3014 1088 2803 
Q 1299 2592 1766 2310 
L 1811 2278 
Q 2214 2042 2444 1840 
Q 2675 1638 2771 1433 
Q 2867 1229 2867 960 
Q 2867 627 2704 393 
Q 2541 160 2249 41 
Q 1958 -77 1574 -77 
z
" transform="scale(0.015625)"/>
       </defs>
       <use xlink:href="#STIXTwoText-38"/>
       <use xlink:href="#STIXTwoText-30" transform="translate(49.499985 0)"/>
      </g>
     </g>
    </g>
    <g id="ytick_6">
     <g id="line2d_12">
      <path d="M 42.118906 99.815777 
L 289.791406 99.815777 
" clip-path="url(#p6b0aa34e91)" style="fill: none; stroke: #dddddd; stroke-width: 0.6; stroke-linecap: round"/>
     </g>
     <g id="text_12">
      <!-- 100 -->
      <g style="fill: #262626" transform="translate(19.996406 102.816011) scale(0.085 -0.085)">
       <use xlink:href="#STIXTwoText-31"/>
       <use xlink:href="#STIXTwoText-30" transform="translate(49.499985 0)"/>
       <use xlink:href="#STIXTwoText-30" transform="translate(98.999969 0)"/>
      </g>
     </g>
    </g>
    <g id="ytick_7">
     <g id="line2d_13">
      <path d="M 42.118906 75.09942 
L 289.791406 75.09942 
" clip-path="url(#p6b0aa34e91)" style="fill: none; stroke: #dddddd; stroke-width: 0.6; stroke-linecap: round"/>
     </g>
     <g id="text_13">
      <!-- 120 -->
      <g style="fill: #262626" transform="translate(19.996406 78.099655) scale(0.085 -0.085)">
       <use xlink:href="#STIXTwoText-31"/>
       <use xlink:href="#STIXTwoText-32" transform="translate(49.499985 0)"/>
       <use xlink:href="#STIXTwoText-30" transform="translate(98.999969 0)"/>
      </g>
     </g>
    </g>
    <g id="ytick_8">
     <g id="line2d_14">
      <path d="M 42.118906 50.383064 
L 289.791406 50.383064 
" clip-path="url(#p6b0aa34e91)" style="fill: none; stroke: #dddddd; stroke-width: 0.6; stroke-linecap: round"/>
     </g>
     <g id="text_14">
      <!-- 140 -->
      <g style="fill: #262626" transform="translate(19.996406 53.383298) scale(0.085 -0.085)">
       <use xlink:href="#STIXTwoText-31"/>
       <use xlink:href="#STIXTwoText-34" transform="translate(49.499985 0)"/>
       <use xlink:href="#STIXTwoText-30" transform="translate(98.999969 0)"/>
      </g>
     </g>
    </g>
    <g id="ytick_9">
     <g id="line2d_15">
      <path d="M 42.118906 25.666707 
L 289.791406 25.666707 
" clip-path="url(#p6b0aa34e91)" style="fill: none; stroke: #dddddd; stroke-width: 0.6; stroke-linecap: round"/>
     </g>
     <g id="text_15">
      <!-- 160 -->
      <g style="fill: #262626" transform="translate(19.996406 28.666942) scale(0.085 -0.085)">
       <use xlink:href="#STIXTwoText-31"/>
       <use xlink:href="#STIXTwoText-36" transform="translate(49.499985 0)"/>
       <use xlink:href="#STIXTwoText-30" transform="translate(98.999969 0)"/>
      </g>
     </g>
    </g>
    <g id="text_16">
     <!-- CVaR$_{95}$ (m/s) -->
     <g style="fill: #262626" transform="translate(13.906406 149.54628) rotate(-90) scale(0.095 -0.095)">
      <defs>
       <path id="STIXTwoText-43" d="M 2330 -70 
Q 1670 -70 1222 211 
Q 774 493 547 985 
Q 320 1478 320 2099 
Q 320 2797 589 3283 
Q 858 3770 1331 4026 
Q 1805 4282 2419 4282 
Q 2758 4282 2963 4224 
Q 3168 4166 3289 4108 
Q 3411 4051 3488 4051 
Q 3565 4051 3606 4118 
Q 3648 4186 3706 4282 
L 3898 4282 
L 3898 2816 
L 3680 2816 
Q 3578 3443 3248 3724 
Q 2918 4006 2426 4006 
Q 1734 4006 1360 3513 
Q 986 3021 986 2163 
Q 986 1523 1181 1120 
Q 1376 717 1721 525 
Q 2067 333 2515 333 
Q 2957 333 3289 496 
Q 3622 659 3891 954 
L 4045 819 
Q 3872 563 3632 361 
Q 3392 160 3072 45 
Q 2752 -70 2330 -70 
z
" transform="scale(0.015625)"/>
       <path id="STIXTwoText-56" d="M 2330 -32 
L 2074 -32 
L 608 3430 
Q 518 3648 428 3773 
Q 339 3898 224 3955 
Q 109 4013 -64 4013 
L -64 4205 
L 1651 4205 
L 1651 4013 
Q 1568 4013 1465 4000 
Q 1363 3987 1289 3939 
Q 1216 3891 1216 3770 
Q 1216 3642 1325 3379 
L 2099 1478 
L 2349 806 
L 2381 806 
L 2605 1446 
L 3411 3482 
Q 3443 3552 3462 3632 
Q 3482 3712 3482 3795 
Q 3482 3923 3379 3968 
Q 3277 4013 3053 4013 
L 3053 4205 
L 4397 4205 
L 4397 4013 
Q 4262 4013 4169 3984 
Q 4077 3955 4003 3868 
Q 3930 3782 3846 3616 
Q 3763 3450 3648 3181 
L 2330 -32 
z
" transform="scale(0.015625)"/>
       <path id="STIXTwoText-52" d="M 2074 0 
L 275 0 
L 275 192 
Q 518 192 640 230 
Q 762 269 803 397 
Q 845 525 845 794 
L 845 3539 
Q 845 3718 809 3820 
Q 774 3923 652 3968 
Q 531 4013 275 4013 
L 275 4205 
L 1850 4205 
Q 2330 4205 2704 4112 
Q 3078 4019 3289 3792 
Q 3501 3565 3501 3155 
Q 3501 2797 3337 2573 
Q 3174 2349 2928 2224 
Q 2682 2099 2419 2035 
L 2419 2010 
Q 2528 1946 2665 1789 
Q 2803 1632 3020 1328 
Q 3238 1024 3590 518 
Q 3744 307 3888 249 
Q 4032 192 4250 192 
L 4250 0 
L 3194 0 
Q 2931 397 2755 662 
Q 2579 928 2457 1110 
Q 2336 1293 2240 1433 
Q 2144 1574 2048 1715 
Q 1952 1862 1872 1894 
Q 1792 1926 1619 1926 
L 1440 1926 
L 1440 794 
Q 1440 531 1485 400 
Q 1530 269 1664 230 
Q 1798 192 2074 192 
L 2074 0 
z
M 1440 2176 
L 1683 2170 
Q 2035 2189 2297 2285 
Q 2560 2381 2707 2585 
Q 2854 2790 2854 3130 
Q 2854 3514 2617 3734 
Q 2381 3955 1862 3955 
Q 1760 3955 1651 3952 
Q 1542 3949 1440 3936 
L 1440 2176 
z
" transform="scale(0.015625)"/>
       <path id="STIXGeneral-Regular-39" d="M 378 -141 
L 358 -13 
Q 1094 115 1603 608 
Q 2112 1101 2304 1882 
Q 1933 1517 1344 1517 
Q 826 1517 509 1875 
Q 192 2234 192 2816 
Q 192 3462 573 3894 
Q 954 4326 1523 4326 
Q 2131 4326 2528 3840 
Q 2938 3328 2938 2522 
Q 2938 1958 2742 1462 
Q 2547 966 2170 621 
Q 1773 262 1395 105 
Q 1018 -51 378 -141 
z
M 2317 2272 
L 2317 2522 
Q 2317 4147 1472 4147 
Q 1171 4147 1005 3930 
Q 909 3802 845 3546 
Q 781 3290 781 3034 
Q 781 2464 995 2128 
Q 1210 1792 1568 1792 
Q 1824 1792 2070 1917 
Q 2317 2042 2317 2272 
z
" transform="scale(0.015625)"/>
       <path id="STIXGeneral-Regular-35" d="M 2803 4358 
L 2573 3814 
Q 2534 3731 2400 3731 
L 1158 3731 
L 902 3187 
Q 1606 3053 1920 2896 
Q 2234 2739 2502 2368 
Q 2726 2061 2726 1555 
Q 2726 1094 2576 780 
Q 2426 467 2099 224 
Q 1664 -90 1011 -90 
Q 646 -90 422 19 
Q 198 128 198 307 
Q 198 550 486 550 
Q 717 550 960 352 
Q 1210 147 1414 147 
Q 1747 147 2012 480 
Q 2278 813 2278 1229 
Q 2278 1843 1850 2189 
Q 1293 2637 486 2637 
Q 410 2637 410 2688 
L 416 2720 
L 1114 4237 
L 2438 4237 
Q 2547 4237 2608 4269 
Q 2669 4301 2746 4403 
L 2803 4358 
z
" transform="scale(0.015625)"/>
       <path id="STIXTwoText-20" transform="scale(0.015625)"/>
       <path id="STIXTwoText-2f" d="M 589 -570 
L 230 -570 
L 1901 4538 
L 2253 4538 
L 589 -570 
z
" transform="scale(0.015625)"/>
       <path id="STIXTwoText-73" d="M 269 -51 
L 250 1050 
L 416 1050 
Q 518 557 716 361 
Q 915 166 1267 166 
Q 1510 166 1664 265 
Q 1818 365 1818 589 
Q 1818 742 1763 844 
Q 1709 947 1555 1052 
Q 1402 1158 1101 1306 
Q 806 1453 620 1590 
Q 435 1728 345 1894 
Q 256 2061 256 2298 
Q 256 2694 541 2899 
Q 826 3104 1235 3104 
Q 1478 3104 1632 3049 
Q 1786 2995 1907 2938 
L 1914 2938 
L 2022 3072 
L 2150 3072 
L 2170 2093 
L 1997 2093 
Q 1894 2547 1708 2716 
Q 1523 2886 1229 2886 
Q 1011 2886 860 2784 
Q 710 2682 710 2464 
Q 710 2278 883 2131 
Q 1056 1984 1459 1779 
Q 1754 1626 1952 1482 
Q 2150 1338 2252 1168 
Q 2355 998 2355 762 
Q 2355 461 2208 278 
Q 2061 96 1814 13 
Q 1568 -70 1280 -70 
Q 1005 -70 841 -12 
Q 678 45 550 96 
L 538 96 
L 403 -51 
L 269 -51 
z
" transform="scale(0.015625)"/>
      </defs>
      <use xlink:href="#STIXTwoText-43"/>
      <use xlink:href="#STIXTwoText-56" transform="translate(66.999985 0)"/>
      <use xlink:href="#STIXTwoText-61" transform="translate(134.999969 0)"/>
      <use xlink:href="#STIXTwoText-52" transform="translate(182.999954 0)"/>
      <use xlink:href="#STIXGeneral-Regular-39" transform="translate(250.443229 -13.228125) scale(0.7)"/>
      <use xlink:href="#STIXGeneral-Regular-35" transform="translate(285.443219 -13.228125) scale(0.7)"/>
      <use xlink:href="#STIXTwoText-20" transform="translate(324.852583 0)"/>
      <use xlink:href="#STIXTwoText-28" transform="translate(348.352568 0)"/>
      <use xlink:href="#STIXTwoText-6d" transform="translate(382.652556 0)"/>
      <use xlink:href="#STIXTwoText-2f" transform="translate(467.852537 0)"/>
      <use xlink:href="#STIXTwoText-73" transform="translate(506.552534 0)"/>
      <use xlink:href="#STIXTwoText-29" transform="translate(546.052519 0)"/>
     </g>
    </g>
   </g>
   <g id="line2d_16">
    <path d="M 42.118906 53.32431 
L 289.791406 53.32431 
" clip-path="url(#p6b0aa34e91)" style="fill: none; stroke-dasharray: 3.33,1.44; stroke-dashoffset: 0; stroke: #d1701f; stroke-width: 0.9"/>
   </g>
   <g id="patch_3">
    <path d="M 42.118906 223.39756 
L 42.118906 20.5 
" style="fill: none; stroke: #bbbbbb; stroke-width: 0.8; stroke-linejoin: miter; stroke-linecap: square"/>
   </g>
   <g id="patch_4">
    <path d="M 289.791406 223.39756 
L 289.791406 20.5 
" style="fill: none; stroke: #bbbbbb; stroke-width: 0.8; stroke-linejoin: miter; stroke-linecap: square"/>
   </g>
   <g id="patch_5">
    <path d="M 42.118906 223.39756 
L 289.791406 223.39756 
" style="fill: none; stroke: #bbbbbb; stroke-width: 0.8; stroke-linejoin: miter; stroke-linecap: square"/>
   </g>
   <g id="patch_6">
    <path d="M 42.118906 20.5 
L 289.791406 20.5 
" style="fill: none; stroke: #bbbbbb; stroke-width: 0.8; stroke-linejoin: miter; stroke-linecap: square"/>
   </g>
   <g id="patch_7">
    <path d="M 51.291962 223.39756 
L 78.033201 223.39756 
L 78.033201 53.32431 
L 51.291962 53.32431 
z
" clip-path="url(#p6b0aa34e91)" style="fill: #d1701f; stroke: #ffffff; stroke-linejoin: miter"/>
   </g>
   <g id="patch_8">
    <path d="M 91.808992 223.39756 
L 118.550231 223.39756 
L 118.550231 52.71876 
L 91.808992 52.71876 
z
" clip-path="url(#p6b0aa34e91)" style="fill: #4878cf; stroke: #ffffff; stroke-linejoin: miter"/>
   </g>
   <g id="patch_9">
    <path d="M 132.326021 223.39756 
L 159.067261 223.39756 
L 159.067261 46.329581 
L 132.326021 46.329581 
z
" clip-path="url(#p6b0aa34e91)" style="fill: #4878cf; stroke: #ffffff; stroke-linejoin: miter"/>
   </g>
   <g id="patch_10">
    <path d="M 172.843051 223.39756 
L 199.584291 223.39756 
L 199.584291 47.874354 
L 172.843051 47.874354 
z
" clip-path="url(#p6b0aa34e91)" style="fill: #4878cf; stroke: #ffffff; stroke-linejoin: miter"/>
   </g>
   <g id="patch_11">
    <path d="M 213.360081 223.39756 
L 240.101321 223.39756 
L 240.101321 43.882662 
L 213.360081 43.882662 
z
" clip-path="url(#p6b0aa34e91)" style="fill: #4878cf; stroke: #ffffff; stroke-linejoin: miter"/>
   </g>
   <g id="patch_12">
    <path d="M 253.877111 223.39756 
L 280.618351 223.39756 
L 280.618351 42.239024 
L 253.877111 42.239024 
z
" clip-path="url(#p6b0aa34e91)" style="fill: #4878cf; stroke: #ffffff; stroke-linejoin: miter"/>
   </g>
   <g id="text_17">
    <!-- 137.6 -->
    <g style="fill: #333333" transform="translate(56.318832 51.67431) scale(0.075 -0.075)">
     <defs>
      <path id="STIXTwoText-33" d="M 1094 -83 
Q 806 -83 652 -28 
Q 499 26 438 106 
Q 378 186 378 269 
Q 378 371 442 460 
Q 506 550 627 550 
Q 723 550 828 502 
Q 934 454 1049 393 
Q 1165 333 1283 285 
Q 1402 237 1523 237 
Q 1728 237 1907 310 
Q 2086 384 2201 560 
Q 2317 736 2317 1050 
Q 2317 1338 2157 1549 
Q 1997 1760 1731 1878 
Q 1466 1997 1158 1997 
L 1030 1997 
L 1030 2240 
L 1152 2240 
Q 1370 2240 1574 2349 
Q 1779 2458 1910 2656 
Q 2042 2854 2042 3110 
Q 2042 3392 1866 3549 
Q 1690 3706 1389 3706 
Q 1101 3706 909 3574 
Q 717 3443 550 3187 
L 403 3270 
Q 582 3686 876 3904 
Q 1171 4122 1562 4122 
Q 2054 4122 2323 3875 
Q 2592 3629 2592 3264 
Q 2592 2931 2397 2726 
Q 2202 2522 1901 2330 
L 1901 2310 
Q 2157 2234 2371 2090 
Q 2586 1946 2714 1738 
Q 2842 1530 2842 1242 
Q 2842 806 2598 508 
Q 2355 211 1958 64 
Q 1562 -83 1094 -83 
z
" transform="scale(0.015625)"/>
      <path id="STIXTwoText-37" d="M 1472 -51 
L 966 -51 
L 2477 3514 
L 1050 3514 
Q 870 3514 774 3482 
Q 678 3450 617 3347 
Q 557 3245 467 3034 
L 269 3053 
L 525 4032 
L 2970 4032 
L 2970 3834 
L 1472 -51 
z
" transform="scale(0.015625)"/>
      <path id="STIXTwoText-2e" d="M 774 -51 
Q 582 -51 489 57 
Q 397 166 397 326 
Q 397 493 499 611 
Q 602 730 781 730 
Q 966 730 1068 608 
Q 1171 486 1171 320 
Q 1171 173 1068 61 
Q 966 -51 774 -51 
z
" transform="scale(0.015625)"/>
     </defs>
     <use xlink:href="#STIXTwoText-31"/>
     <use xlink:href="#STIXTwoText-33" transform="translate(49.499985 0)"/>
     <use xlink:href="#STIXTwoText-37" transform="translate(98.999969 0)"/>
     <use xlink:href="#STIXTwoText-2e" transform="translate(148.499954 0)"/>
     <use xlink:href="#STIXTwoText-36" transform="translate(172.999939 0)"/>
    </g>
   </g>
   <g id="text_18">
    <!-- 138.1 -->
    <g style="fill: #333333" transform="translate(96.835861 51.06876) scale(0.075 -0.075)">
     <use xlink:href="#STIXTwoText-31"/>
     <use xlink:href="#STIXTwoText-33" transform="translate(49.499985 0)"/>
     <use xlink:href="#STIXTwoText-38" transform="translate(98.999969 0)"/>
     <use xlink:href="#STIXTwoText-2e" transform="translate(148.499954 0)"/>
     <use xlink:href="#STIXTwoText-31" transform="translate(172.999939 0)"/>
    </g>
   </g>
   <g id="text_19">
    <!-- 143.3 -->
    <g style="fill: #333333" transform="translate(137.352891 44.679581) scale(0.075 -0.075)">
     <use xlink:href="#STIXTwoText-31"/>
     <use xlink:href="#STIXTwoText-34" transform="translate(49.499985 0)"/>
     <use xlink:href="#STIXTwoText-33" transform="translate(98.999969 0)"/>
     <use xlink:href="#STIXTwoText-2e" transform="translate(148.499954 0)"/>
     <use xlink:href="#STIXTwoText-33" transform="translate(172.999939 0)"/>
    </g>
   </g>
   <g id="text_20">
    <!-- 142.0 -->
    <g style="fill: #333333" transform="translate(177.869921 46.224354) scale(0.075 -0.075)">
     <use xlink:href="#STIXTwoText-31"/>
     <use xlink:href="#STIXTwoText-34" transform="translate(49.499985 0)"/>
     <use xlink:href="#STIXTwoText-32" transform="translate(98.999969 0)"/>
     <use xlink:href="#STIXTwoText-2e" transform="translate(148.499954 0)"/>
     <use xlink:href="#STIXTwoText-30" transform="translate(172.999939 0)"/>
    </g>
   </g>
   <g id="text_21">
    <!-- 145.3 -->
    <g style="fill: #333333" transform="translate(218.386951 42.232662) scale(0.075 -0.075)">
     <defs>
      <path id="STIXTwoText-35" d="M 1114 -83 
Q 742 -83 560 6 
Q 378 96 378 275 
Q 378 384 445 467 
Q 512 550 634 550 
Q 730 550 822 502 
Q 915 454 1014 393 
Q 1114 333 1235 285 
Q 1357 237 1510 237 
Q 1741 237 1936 326 
Q 2131 416 2249 614 
Q 2368 813 2368 1146 
Q 2368 1504 2227 1721 
Q 2086 1939 1849 2054 
Q 1613 2170 1315 2214 
Q 1018 2259 698 2266 
L 621 2362 
L 1018 4032 
L 2771 4032 
L 2669 3514 
L 1165 3514 
L 992 2784 
Q 1312 2758 1590 2704 
Q 1869 2650 2096 2554 
Q 2323 2458 2489 2301 
Q 2656 2144 2745 1923 
Q 2835 1702 2835 1402 
Q 2835 1030 2710 752 
Q 2586 474 2355 288 
Q 2125 102 1811 9 
Q 1498 -83 1114 -83 
z
" transform="scale(0.015625)"/>
     </defs>
     <use xlink:href="#STIXTwoText-31"/>
     <use xlink:href="#STIXTwoText-34" transform="translate(49.499985 0)"/>
     <use xlink:href="#STIXTwoText-35" transform="translate(98.999969 0)"/>
     <use xlink:href="#STIXTwoText-2e" transform="translate(148.499954 0)"/>
     <use xlink:href="#STIXTwoText-33" transform="translate(172.999939 0)"/>
    </g>
   </g>
   <g id="text_22">
    <!-- 146.6 -->
    <g style="fill: #333333" transform="translate(258.903981 40.589024) scale(0.075 -0.075)">
     <use xlink:href="#STIXTwoText-31"/>
     <use xlink:href="#STIXTwoText-34" transform="translate(49.499985 0)"/>
     <use xlink:href="#STIXTwoText-36" transform="translate(98.999969 0)"/>
     <use xlink:href="#STIXTwoText-2e" transform="translate(148.499954 0)"/>
     <use xlink:href="#STIXTwoText-36" transform="translate(172.999939 0)"/>
    </g>
   </g>
   <g id="text_23">
    <!-- Seed-curation bucket + trim ablation (sizing tail) -->
    <g style="fill: #262626" transform="translate(42.118906 14.5) scale(0.1 -0.1)">
     <defs>
      <path id="STIXTwoText-53" d="M 480 -96 
L 282 -96 
L 224 1286 
L 422 1286 
Q 538 845 691 611 
Q 845 378 1072 291 
Q 1299 205 1626 205 
Q 1869 205 2041 272 
Q 2214 339 2310 489 
Q 2406 640 2406 883 
Q 2406 1165 2249 1350 
Q 2093 1536 1849 1680 
Q 1606 1824 1344 1971 
Q 1088 2118 851 2284 
Q 614 2451 464 2681 
Q 314 2912 314 3245 
Q 314 3584 480 3811 
Q 646 4038 921 4160 
Q 1197 4282 1530 4282 
Q 1824 4282 1984 4234 
Q 2144 4186 2237 4134 
Q 2330 4083 2406 4083 
Q 2483 4083 2531 4124 
Q 2579 4166 2605 4269 
L 2771 4269 
L 2816 2989 
L 2624 2989 
Q 2490 3520 2266 3776 
Q 2042 4032 1555 4026 
Q 1229 4026 1049 3875 
Q 870 3725 870 3424 
Q 870 3187 1004 3017 
Q 1139 2848 1356 2713 
Q 1574 2579 1811 2438 
Q 2022 2317 2236 2195 
Q 2451 2074 2627 1920 
Q 2803 1766 2908 1561 
Q 3014 1357 3014 1069 
Q 3014 698 2844 442 
Q 2675 186 2380 54 
Q 2086 -77 1715 -77 
Q 1382 -77 1174 -29 
Q 966 19 848 67 
Q 730 115 653 115 
Q 589 115 537 57 
Q 486 0 480 -96 
z
" transform="scale(0.015625)"/>
      <path id="STIXTwoText-2d" d="M 1728 1395 
L 288 1395 
L 288 1811 
L 1728 1811 
L 1728 1395 
z
" transform="scale(0.015625)"/>
      <path id="STIXTwoText-2b" d="M 2534 -262 
L 2074 -262 
L 2074 1434 
L 397 1434 
L 397 1869 
L 2074 1869 
L 2074 3565 
L 2534 3565 
L 2534 1869 
L 4211 1869 
L 4211 1434 
L 2534 1434 
L 2534 -262 
z
" transform="scale(0.015625)"/>
      <path id="STIXTwoText-7a" d="M 2656 0 
L 198 0 
L 198 186 
L 1997 2739 
L 1997 2758 
L 1133 2758 
Q 781 2758 662 2582 
Q 544 2406 499 2086 
L 301 2086 
L 333 3027 
L 2694 3027 
L 2694 2842 
L 896 282 
L 896 262 
L 1696 262 
Q 1971 262 2124 329 
Q 2278 397 2361 563 
Q 2445 730 2509 1024 
L 2720 1024 
L 2656 0 
z
" transform="scale(0.015625)"/>
      <path id="STIXTwoText-67" d="M 1222 -1504 
Q 806 -1504 566 -1401 
Q 326 -1299 230 -1136 
Q 134 -973 134 -800 
Q 134 -640 265 -464 
Q 397 -288 653 -38 
L 653 32 
L 845 -6 
Q 723 -211 678 -342 
Q 634 -474 634 -582 
Q 634 -858 870 -998 
Q 1107 -1139 1594 -1139 
Q 1971 -1139 2204 -1043 
Q 2438 -947 2544 -806 
Q 2650 -666 2650 -531 
Q 2650 -358 2538 -265 
Q 2426 -173 2253 -134 
Q 2080 -96 1888 -86 
Q 1696 -77 1536 -77 
Q 1248 -70 1101 -70 
Q 954 -70 890 -67 
Q 826 -64 774 -64 
L 710 -32 
Q 614 0 518 70 
Q 422 141 358 240 
Q 294 339 294 448 
Q 294 563 361 688 
Q 429 813 550 937 
Q 672 1062 819 1178 
L 819 1235 
L 986 1114 
Q 954 1082 909 998 
Q 864 915 832 822 
Q 800 730 800 666 
Q 800 570 867 515 
Q 934 461 1097 435 
Q 1261 410 1555 410 
Q 1958 410 2281 371 
Q 2605 333 2790 173 
Q 2976 13 2976 -352 
Q 2976 -672 2819 -893 
Q 2662 -1114 2403 -1248 
Q 2144 -1382 1833 -1443 
Q 1523 -1504 1222 -1504 
z
M 1517 998 
Q 1350 998 1206 1030 
Q 1062 1062 928 1107 
L 858 1171 
Q 691 1261 572 1382 
Q 454 1504 390 1673 
Q 326 1843 326 2061 
Q 326 2381 473 2614 
Q 621 2848 883 2976 
Q 1146 3104 1485 3104 
Q 1677 3104 1846 3069 
Q 2016 3034 2163 2963 
Q 2310 2893 2419 2797 
L 2419 2630 
Q 2490 2534 2570 2374 
Q 2650 2214 2650 1971 
Q 2650 1677 2506 1456 
Q 2362 1235 2109 1116 
Q 1856 998 1517 998 
z
M 1523 1222 
Q 1766 1222 1923 1388 
Q 2080 1555 2080 2010 
Q 2080 2400 1913 2637 
Q 1747 2874 1440 2874 
Q 1190 2874 1040 2682 
Q 890 2490 890 2086 
Q 890 1677 1050 1449 
Q 1210 1222 1523 1222 
z
M 3021 2989 
L 3021 2643 
L 2330 2662 
L 2106 2938 
L 3021 2989 
z
" transform="scale(0.015625)"/>
     </defs>
     <use xlink:href="#STIXTwoText-53"/>
     <use xlink:href="#STIXTwoText-65" transform="translate(50.399994 0)"/>
     <use xlink:href="#STIXTwoText-65" transform="translate(96.799988 0)"/>
     <use xlink:href="#STIXTwoText-64" transform="translate(143.199982 0)"/>
     <use xlink:href="#STIXTwoText-2d" transform="translate(197.099976 0)"/>
     <use xlink:href="#STIXTwoText-63" transform="translate(228.59996 0)"/>
     <use xlink:href="#STIXTwoText-75" transform="translate(273.199951 0)"/>
     <use xlink:href="#STIXTwoText-72" transform="translate(330.199936 0)"/>
     <use xlink:href="#STIXTwoText-61" transform="translate(368.199921 0)"/>
     <use xlink:href="#STIXTwoText-74" transform="translate(416.199905 0)"/>
     <use xlink:href="#STIXTwoText-69" transform="translate(447.69989 0)"/>
     <use xlink:href="#STIXTwoText-6f" transform="translate(476.199875 0)"/>
     <use xlink:href="#STIXTwoText-6e" transform="translate(527.599869 0)"/>
     <use xlink:href="#STIXTwoText-20" transform="translate(585.19986 0)"/>
     <use xlink:href="#STIXTwoText-62" transform="translate(608.699844 0)"/>
     <use xlink:href="#STIXTwoText-75" transform="translate(660.899841 0)"/>
     <use xlink:href="#STIXTwoText-63" transform="translate(717.899826 0)"/>
     <use xlink:href="#STIXTwoText-6b" transform="translate(762.499817 0)"/>
     <use xlink:href="#STIXTwoText-65" transform="translate(816.699814 0)"/>
     <use xlink:href="#STIXTwoText-74" transform="translate(863.099808 0)"/>
     <use xlink:href="#STIXTwoText-20" transform="translate(894.599792 0)"/>
     <use xlink:href="#STIXTwoText-2b" transform="translate(918.099777 0)"/>
     <use xlink:href="#STIXTwoText-20" transform="translate(990.099762 0)"/>
     <use xlink:href="#STIXTwoText-74" transform="translate(1013.599747 0)"/>
     <use xlink:href="#STIXTwoText-72" transform="translate(1045.099731 0)"/>
     <use xlink:href="#STIXTwoText-69" transform="translate(1083.099716 0)"/>
     <use xlink:href="#STIXTwoText-6d" transform="translate(1111.599701 0)"/>
     <use xlink:href="#STIXTwoText-20" transform="translate(1196.799683 0)"/>
     <use xlink:href="#STIXTwoText-61" transform="translate(1220.299667 0)"/>
     <use xlink:href="#STIXTwoText-62" transform="translate(1268.299652 0)"/>
     <use xlink:href="#STIXTwoText-6c" transform="translate(1320.499649 0)"/>
     <use xlink:href="#STIXTwoText-61" transform="translate(1348.799637 0)"/>
     <use xlink:href="#STIXTwoText-74" transform="translate(1396.799622 0)"/>
     <use xlink:href="#STIXTwoText-69" transform="translate(1428.299606 0)"/>
     <use xlink:href="#STIXTwoText-6f" transform="translate(1456.799591 0)"/>
     <use xlink:href="#STIXTwoText-6e" transform="translate(1508.199585 0)"/>
     <use xlink:href="#STIXTwoText-20" transform="translate(1565.799576 0)"/>
     <use xlink:href="#STIXTwoText-28" transform="translate(1589.299561 0)"/>
     <use xlink:href="#STIXTwoText-73" transform="translate(1623.599548 0)"/>
     <use xlink:href="#STIXTwoText-69" transform="translate(1663.099533 0)"/>
     <use xlink:href="#STIXTwoText-7a" transform="translate(1691.599518 0)"/>
     <use xlink:href="#STIXTwoText-69" transform="translate(1737.399506 0)"/>
     <use xlink:href="#STIXTwoText-6e" transform="translate(1765.89949 0)"/>
     <use xlink:href="#STIXTwoText-67" transform="translate(1823.499481 0)"/>
     <use xlink:href="#STIXTwoText-20" transform="translate(1871.899475 0)"/>
     <use xlink:href="#STIXTwoText-74" transform="translate(1895.39946 0)"/>
     <use xlink:href="#STIXTwoText-61" transform="translate(1926.899445 0)"/>
     <use xlink:href="#STIXTwoText-69" transform="translate(1974.899429 0)"/>
     <use xlink:href="#STIXTwoText-6c" transform="translate(2003.399414 0)"/>
     <use xlink:href="#STIXTwoText-29" transform="translate(2031.699402 0)"/>
    </g>
   </g>
  </g>
  <g id="axes_2">
   <g id="patch_13">
    <path d="M 337.671406 223.39756 
L 585.343906 223.39756 
L 585.343906 20.5 
L 337.671406 20.5 
z
" style="fill: #f5f5f5"/>
   </g>
   <g id="matplotlib.axis_3">
    <g id="xtick_7">
     <g id="line2d_17">
      <path d="M 360.215082 223.39756 
L 360.215082 20.5 
" clip-path="url(#p040a003241)" style="fill: none; stroke: #dddddd; stroke-width: 0.6; stroke-linecap: round"/>
     </g>
     <g id="text_24">
      <!-- bucket_max -->
      <g style="fill: #262626" transform="translate(317.615944 252.383774) rotate(-20) scale(0.08 -0.08)">
       <use xlink:href="#STIXTwoText-62"/>
       <use xlink:href="#STIXTwoText-75" transform="translate(52.199997 0)"/>
       <use xlink:href="#STIXTwoText-63" transform="translate(109.199982 0)"/>
       <use xlink:href="#STIXTwoText-6b" transform="translate(153.799973 0)"/>
       <use xlink:href="#STIXTwoText-65" transform="translate(207.999969 0)"/>
       <use xlink:href="#STIXTwoText-74" transform="translate(254.399963 0)"/>
       <use xlink:href="#STIXTwoText-5f" transform="translate(285.899948 0)"/>
       <use xlink:href="#STIXTwoText-6d" transform="translate(337.099945 0)"/>
       <use xlink:href="#STIXTwoText-61" transform="translate(422.299927 0)"/>
       <use xlink:href="#STIXTwoText-78" transform="translate(470.299911 0)"/>
      </g>
      <!-- (deployed) -->
      <g style="fill: #262626" transform="translate(325.673847 258.781648) rotate(-20) scale(0.08 -0.08)">
       <use xlink:href="#STIXTwoText-28"/>
       <use xlink:href="#STIXTwoText-64" transform="translate(34.299988 0)"/>
       <use xlink:href="#STIXTwoText-65" transform="translate(88.199982 0)"/>
       <use xlink:href="#STIXTwoText-70" transform="translate(134.599976 0)"/>
       <use xlink:href="#STIXTwoText-6c" transform="translate(188.299973 0)"/>
       <use xlink:href="#STIXTwoText-6f" transform="translate(216.59996 0)"/>
       <use xlink:href="#STIXTwoText-79" transform="translate(267.999954 0)"/>
       <use xlink:href="#STIXTwoText-65" transform="translate(316.299942 0)"/>
       <use xlink:href="#STIXTwoText-64" transform="translate(362.699936 0)"/>
       <use xlink:href="#STIXTwoText-29" transform="translate(416.59993 0)"/>
      </g>
     </g>
    </g>
    <g id="xtick_8">
     <g id="line2d_18">
      <path d="M 400.732111 223.39756 
L 400.732111 20.5 
" clip-path="url(#p040a003241)" style="fill: none; stroke: #dddddd; stroke-width: 0.6; stroke-linecap: round"/>
     </g>
     <g id="text_25">
      <!-- bucket_middle -->
      <g style="fill: #262626" transform="translate(352.519455 255.533352) rotate(-20) scale(0.08 -0.08)">
       <use xlink:href="#STIXTwoText-62"/>
       <use xlink:href="#STIXTwoText-75" transform="translate(52.199997 0)"/>
       <use xlink:href="#STIXTwoText-63" transform="translate(109.199982 0)"/>
       <use xlink:href="#STIXTwoText-6b" transform="translate(153.799973 0)"/>
       <use xlink:href="#STIXTwoText-65" transform="translate(207.999969 0)"/>
       <use xlink:href="#STIXTwoText-74" transform="translate(254.399963 0)"/>
       <use xlink:href="#STIXTwoText-5f" transform="translate(285.899948 0)"/>
       <use xlink:href="#STIXTwoText-6d" transform="translate(337.099945 0)"/>
       <use xlink:href="#STIXTwoText-69" transform="translate(422.299927 0)"/>
       <use xlink:href="#STIXTwoText-64" transform="translate(450.799911 0)"/>
       <use xlink:href="#STIXTwoText-64" transform="translate(504.699905 0)"/>
       <use xlink:href="#STIXTwoText-6c" transform="translate(558.599899 0)"/>
       <use xlink:href="#STIXTwoText-65" transform="translate(586.899887 0)"/>
      </g>
     </g>
    </g>
    <g id="xtick_9">
     <g id="line2d_19">
      <path d="M 441.249141 223.39756 
L 441.249141 20.5 
" clip-path="url(#p040a003241)" style="fill: none; stroke: #dddddd; stroke-width: 0.6; stroke-linecap: round"/>
     </g>
     <g id="text_26">
      <!-- bucket_random -->
      <g style="fill: #262626" transform="translate(390.188041 256.570101) rotate(-20) scale(0.08 -0.08)">
       <use xlink:href="#STIXTwoText-62"/>
       <use xlink:href="#STIXTwoText-75" transform="translate(52.199997 0)"/>
       <use xlink:href="#STIXTwoText-63" transform="translate(109.199982 0)"/>
       <use xlink:href="#STIXTwoText-6b" transform="translate(153.799973 0)"/>
       <use xlink:href="#STIXTwoText-65" transform="translate(207.999969 0)"/>
       <use xlink:href="#STIXTwoText-74" transform="translate(254.399963 0)"/>
       <use xlink:href="#STIXTwoText-5f" transform="translate(285.899948 0)"/>
       <use xlink:href="#STIXTwoText-72" transform="translate(337.099945 0)"/>
       <use xlink:href="#STIXTwoText-61" transform="translate(375.09993 0)"/>
       <use xlink:href="#STIXTwoText-6e" transform="translate(423.099915 0)"/>
       <use xlink:href="#STIXTwoText-64" transform="translate(480.699905 0)"/>
       <use xlink:href="#STIXTwoText-6f" transform="translate(534.599899 0)"/>
       <use xlink:href="#STIXTwoText-6d" transform="translate(585.999893 0)"/>
      </g>
     </g>
    </g>
    <g id="xtick_10">
     <g id="line2d_20">
      <path d="M 481.766171 223.39756 
L 481.766171 20.5 
" clip-path="url(#p040a003241)" style="fill: none; stroke: #dddddd; stroke-width: 0.6; stroke-linecap: round"/>
     </g>
     <g id="text_27">
      <!-- trim_10 -->
      <g style="fill: #262626" transform="translate(456.100264 247.327007) rotate(-20) scale(0.08 -0.08)">
       <use xlink:href="#STIXTwoText-74"/>
       <use xlink:href="#STIXTwoText-72" transform="translate(31.499985 0)"/>
       <use xlink:href="#STIXTwoText-69" transform="translate(69.499969 0)"/>
       <use xlink:href="#STIXTwoText-6d" transform="translate(97.999954 0)"/>
       <use xlink:href="#STIXTwoText-5f" transform="translate(183.199936 0)"/>
       <use xlink:href="#STIXTwoText-31" transform="translate(234.399933 0)"/>
       <use xlink:href="#STIXTwoText-30" transform="translate(283.899918 0)"/>
      </g>
     </g>
    </g>
    <g id="xtick_11">
     <g id="line2d_21">
      <path d="M 522.283201 223.39756 
L 522.283201 20.5 
" clip-path="url(#p040a003241)" style="fill: none; stroke: #dddddd; stroke-width: 0.6; stroke-linecap: round"/>
     </g>
     <g id="text_28">
      <!-- trim_20 -->
      <g style="fill: #262626" transform="translate(496.617294 247.327007) rotate(-20) scale(0.08 -0.08)">
       <use xlink:href="#STIXTwoText-74"/>
       <use xlink:href="#STIXTwoText-72" transform="translate(31.499985 0)"/>
       <use xlink:href="#STIXTwoText-69" transform="translate(69.499969 0)"/>
       <use xlink:href="#STIXTwoText-6d" transform="translate(97.999954 0)"/>
       <use xlink:href="#STIXTwoText-5f" transform="translate(183.199936 0)"/>
       <use xlink:href="#STIXTwoText-32" transform="translate(234.399933 0)"/>
       <use xlink:href="#STIXTwoText-30" transform="translate(283.899918 0)"/>
      </g>
     </g>
    </g>
    <g id="xtick_12">
     <g id="line2d_22">
      <path d="M 562.800231 223.39756 
L 562.800231 20.5 
" clip-path="url(#p040a003241)" style="fill: none; stroke: #dddddd; stroke-width: 0.6; stroke-linecap: round"/>
     </g>
     <g id="text_29">
      <!-- bucket_min -->
      <g style="fill: #262626" transform="translate(523.978627 252.115289) rotate(-20) scale(0.08 -0.08)">
       <use xlink:href="#STIXTwoText-62"/>
       <use xlink:href="#STIXTwoText-75" transform="translate(52.199997 0)"/>
       <use xlink:href="#STIXTwoText-63" transform="translate(109.199982 0)"/>
       <use xlink:href="#STIXTwoText-6b" transform="translate(153.799973 0)"/>
       <use xlink:href="#STIXTwoText-65" transform="translate(207.999969 0)"/>
       <use xlink:href="#STIXTwoText-74" transform="translate(254.399963 0)"/>
       <use xlink:href="#STIXTwoText-5f" transform="translate(285.899948 0)"/>
       <use xlink:href="#STIXTwoText-6d" transform="translate(337.099945 0)"/>
       <use xlink:href="#STIXTwoText-69" transform="translate(422.299927 0)"/>
       <use xlink:href="#STIXTwoText-6e" transform="translate(450.799911 0)"/>
      </g>
     </g>
    </g>
   </g>
   <g id="matplotlib.axis_4">
    <g id="ytick_10">
     <g id="line2d_23">
      <path d="M 337.671406 223.39756 
L 585.343906 223.39756 
" clip-path="url(#p040a003241)" style="fill: none; stroke: #dddddd; stroke-width: 0.6; stroke-linecap: round"/>
     </g>
     <g id="text_30">
      <!-- 0 -->
      <g style="fill: #262626" transform="translate(323.963906 226.397795) scale(0.085 -0.085)">
       <use xlink:href="#STIXTwoText-30"/>
      </g>
     </g>
    </g>
    <g id="ytick_11">
     <g id="line2d_24">
      <path d="M 337.671406 193.852011 
L 585.343906 193.852011 
" clip-path="url(#p040a003241)" style="fill: none; stroke: #dddddd; stroke-width: 0.6; stroke-linecap: round"/>
     </g>
     <g id="text_31">
      <!-- 20 -->
      <g style="fill: #262626" transform="translate(319.756406 196.852245) scale(0.085 -0.085)">
       <use xlink:href="#STIXTwoText-32"/>
       <use xlink:href="#STIXTwoText-30" transform="translate(49.499985 0)"/>
      </g>
     </g>
    </g>
    <g id="ytick_12">
     <g id="line2d_25">
      <path d="M 337.671406 164.306462 
L 585.343906 164.306462 
" clip-path="url(#p040a003241)" style="fill: none; stroke: #dddddd; stroke-width: 0.6; stroke-linecap: round"/>
     </g>
     <g id="text_32">
      <!-- 40 -->
      <g style="fill: #262626" transform="translate(319.756406 167.306696) scale(0.085 -0.085)">
       <use xlink:href="#STIXTwoText-34"/>
       <use xlink:href="#STIXTwoText-30" transform="translate(49.499985 0)"/>
      </g>
     </g>
    </g>
    <g id="ytick_13">
     <g id="line2d_26">
      <path d="M 337.671406 134.760912 
L 585.343906 134.760912 
" clip-path="url(#p040a003241)" style="fill: none; stroke: #dddddd; stroke-width: 0.6; stroke-linecap: round"/>
     </g>
     <g id="text_33">
      <!-- 60 -->
      <g style="fill: #262626" transform="translate(319.756406 137.761147) scale(0.085 -0.085)">
       <use xlink:href="#STIXTwoText-36"/>
       <use xlink:href="#STIXTwoText-30" transform="translate(49.499985 0)"/>
      </g>
     </g>
    </g>
    <g id="ytick_14">
     <g id="line2d_27">
      <path d="M 337.671406 105.215363 
L 585.343906 105.215363 
" clip-path="url(#p040a003241)" style="fill: none; stroke: #dddddd; stroke-width: 0.6; stroke-linecap: round"/>
     </g>
     <g id="text_34">
      <!-- 80 -->
      <g style="fill: #262626" transform="translate(319.756406 108.215597) scale(0.085 -0.085)">
       <use xlink:href="#STIXTwoText-38"/>
       <use xlink:href="#STIXTwoText-30" transform="translate(49.499985 0)"/>
      </g>
     </g>
    </g>
    <g id="ytick_15">
     <g id="line2d_28">
      <path d="M 337.671406 75.669813 
L 585.343906 75.669813 
" clip-path="url(#p040a003241)" style="fill: none; stroke: #dddddd; stroke-width: 0.6; stroke-linecap: round"/>
     </g>
     <g id="text_35">
      <!-- 100 -->
      <g style="fill: #262626" transform="translate(315.548906 78.670048) scale(0.085 -0.085)">
       <use xlink:href="#STIXTwoText-31"/>
       <use xlink:href="#STIXTwoText-30" transform="translate(49.499985 0)"/>
       <use xlink:href="#STIXTwoText-30" transform="translate(98.999969 0)"/>
      </g>
     </g>
    </g>
    <g id="ytick_16">
     <g id="line2d_29">
      <path d="M 337.671406 46.124264 
L 585.343906 46.124264 
" clip-path="url(#p040a003241)" style="fill: none; stroke: #dddddd; stroke-width: 0.6; stroke-linecap: round"/>
     </g>
     <g id="text_36">
      <!-- 120 -->
      <g style="fill: #262626" transform="translate(315.548906 49.124498) scale(0.085 -0.085)">
       <use xlink:href="#STIXTwoText-31"/>
       <use xlink:href="#STIXTwoText-32" transform="translate(49.499985 0)"/>
       <use xlink:href="#STIXTwoText-30" transform="translate(98.999969 0)"/>
      </g>
     </g>
    </g>
    <g id="text_37">
     <!-- mean (m/s) -->
     <g style="fill: #262626" transform="translate(309.458906 145.352179) rotate(-90) scale(0.095 -0.095)">
      <use xlink:href="#STIXTwoText-6d"/>
      <use xlink:href="#STIXTwoText-65" transform="translate(85.199982 0)"/>
      <use xlink:href="#STIXTwoText-61" transform="translate(131.599976 0)"/>
      <use xlink:href="#STIXTwoText-6e" transform="translate(179.59996 0)"/>
      <use xlink:href="#STIXTwoText-20" transform="translate(237.199951 0)"/>
      <use xlink:href="#STIXTwoText-28" transform="translate(260.699936 0)"/>
      <use xlink:href="#STIXTwoText-6d" transform="translate(294.999924 0)"/>
      <use xlink:href="#STIXTwoText-2f" transform="translate(380.199905 0)"/>
      <use xlink:href="#STIXTwoText-73" transform="translate(418.899902 0)"/>
      <use xlink:href="#STIXTwoText-29" transform="translate(458.399887 0)"/>
     </g>
    </g>
   </g>
   <g id="line2d_30">
    <path d="M 337.671406 45.459489 
L 585.343906 45.459489 
" clip-path="url(#p040a003241)" style="fill: none; stroke-dasharray: 3.33,1.44; stroke-dashoffset: 0; stroke: #d1701f; stroke-width: 0.9"/>
   </g>
   <g id="patch_14">
    <path d="M 337.671406 223.39756 
L 337.671406 20.5 
" style="fill: none; stroke: #bbbbbb; stroke-width: 0.8; stroke-linejoin: miter; stroke-linecap: square"/>
   </g>
   <g id="patch_15">
    <path d="M 585.343906 223.39756 
L 585.343906 20.5 
" style="fill: none; stroke: #bbbbbb; stroke-width: 0.8; stroke-linejoin: miter; stroke-linecap: square"/>
   </g>
   <g id="patch_16">
    <path d="M 337.671406 223.39756 
L 585.343906 223.39756 
" style="fill: none; stroke: #bbbbbb; stroke-width: 0.8; stroke-linejoin: miter; stroke-linecap: square"/>
   </g>
   <g id="patch_17">
    <path d="M 337.671406 20.5 
L 585.343906 20.5 
" style="fill: none; stroke: #bbbbbb; stroke-width: 0.8; stroke-linejoin: miter; stroke-linecap: square"/>
   </g>
   <g id="patch_18">
    <path d="M 346.844462 223.39756 
L 373.585701 223.39756 
L 373.585701 45.459489 
L 346.844462 45.459489 
z
" clip-path="url(#p040a003241)" style="fill: #d1701f; stroke: #ffffff; stroke-linejoin: miter"/>
   </g>
   <g id="patch_19">
    <path d="M 387.361492 223.39756 
L 414.102731 223.39756 
L 414.102731 45.459489 
L 387.361492 45.459489 
z
" clip-path="url(#p040a003241)" style="fill: #4878cf; stroke: #ffffff; stroke-linejoin: miter"/>
   </g>
   <g id="patch_20">
    <path d="M 427.878521 223.39756 
L 454.619761 223.39756 
L 454.619761 42.239024 
L 427.878521 42.239024 
z
" clip-path="url(#p040a003241)" style="fill: #4878cf; stroke: #ffffff; stroke-linejoin: miter"/>
   </g>
   <g id="patch_21">
    <path d="M 468.395551 223.39756 
L 495.136791 223.39756 
L 495.136791 45.725399 
L 468.395551 45.725399 
z
" clip-path="url(#p040a003241)" style="fill: #4878cf; stroke: #ffffff; stroke-linejoin: miter"/>
   </g>
   <g id="patch_22">
    <path d="M 508.912581 223.39756 
L 535.653821 223.39756 
L 535.653821 44.927669 
L 508.912581 44.927669 
z
" clip-path="url(#p040a003241)" style="fill: #4878cf; stroke: #ffffff; stroke-linejoin: miter"/>
   </g>
   <g id="patch_23">
    <path d="M 549.429611 223.39756 
L 576.170851 223.39756 
L 576.170851 49.315183 
L 549.429611 49.315183 
z
" clip-path="url(#p040a003241)" style="fill: #4878cf; stroke: #ffffff; stroke-linejoin: miter"/>
   </g>
   <g id="text_38">
    <!-- 120.5 -->
    <g style="fill: #333333" transform="translate(351.871332 43.809489) scale(0.075 -0.075)">
     <use xlink:href="#STIXTwoText-31"/>
     <use xlink:href="#STIXTwoText-32" transform="translate(49.499985 0)"/>
     <use xlink:href="#STIXTwoText-30" transform="translate(98.999969 0)"/>
     <use xlink:href="#STIXTwoText-2e" transform="translate(148.499954 0)"/>
     <use xlink:href="#STIXTwoText-35" transform="translate(172.999939 0)"/>
    </g>
   </g>
   <g id="text_39">
    <!-- 120.5 -->
    <g style="fill: #333333" transform="translate(392.388361 43.809489) scale(0.075 -0.075)">
     <use xlink:href="#STIXTwoText-31"/>
     <use xlink:href="#STIXTwoText-32" transform="translate(49.499985 0)"/>
     <use xlink:href="#STIXTwoText-30" transform="translate(98.999969 0)"/>
     <use xlink:href="#STIXTwoText-2e" transform="translate(148.499954 0)"/>
     <use xlink:href="#STIXTwoText-35" transform="translate(172.999939 0)"/>
    </g>
   </g>
   <g id="text_40">
    <!-- 122.6 -->
    <g style="fill: #333333" transform="translate(432.905391 40.589024) scale(0.075 -0.075)">
     <use xlink:href="#STIXTwoText-31"/>
     <use xlink:href="#STIXTwoText-32" transform="translate(49.499985 0)"/>
     <use xlink:href="#STIXTwoText-32" transform="translate(98.999969 0)"/>
     <use xlink:href="#STIXTwoText-2e" transform="translate(148.499954 0)"/>
     <use xlink:href="#STIXTwoText-36" transform="translate(172.999939 0)"/>
    </g>
   </g>
   <g id="text_41">
    <!-- 120.3 -->
    <g style="fill: #333333" transform="translate(473.422421 44.075399) scale(0.075 -0.075)">
     <use xlink:href="#STIXTwoText-31"/>
     <use xlink:href="#STIXTwoText-32" transform="translate(49.499985 0)"/>
     <use xlink:href="#STIXTwoText-30" transform="translate(98.999969 0)"/>
     <use xlink:href="#STIXTwoText-2e" transform="translate(148.499954 0)"/>
     <use xlink:href="#STIXTwoText-33" transform="translate(172.999939 0)"/>
    </g>
   </g>
   <g id="text_42">
    <!-- 120.8 -->
    <g style="fill: #333333" transform="translate(513.939451 43.277669) scale(0.075 -0.075)">
     <use xlink:href="#STIXTwoText-31"/>
     <use xlink:href="#STIXTwoText-32" transform="translate(49.499985 0)"/>
     <use xlink:href="#STIXTwoText-30" transform="translate(98.999969 0)"/>
     <use xlink:href="#STIXTwoText-2e" transform="translate(148.499954 0)"/>
     <use xlink:href="#STIXTwoText-38" transform="translate(172.999939 0)"/>
    </g>
   </g>
   <g id="text_43">
    <!-- 117.8 -->
    <g style="fill: #333333" transform="translate(554.456481 47.665183) scale(0.075 -0.075)">
     <use xlink:href="#STIXTwoText-31"/>
     <use xlink:href="#STIXTwoText-31" transform="translate(49.499985 0)"/>
     <use xlink:href="#STIXTwoText-37" transform="translate(98.999969 0)"/>
     <use xlink:href="#STIXTwoText-2e" transform="translate(148.499954 0)"/>
     <use xlink:href="#STIXTwoText-38" transform="translate(172.999939 0)"/>
    </g>
   </g>
  </g>
 </g>
 <defs>
  <clipPath id="p6b0aa34e91">
   <rect x="42.118906" y="20.5" width="247.6725" height="202.89756"/>
  </clipPath>
  <clipPath id="p040a003241">
   <rect x="337.671406" y="20.5" width="247.6725" height="202.89756"/>
  </clipPath>
 </defs>
</svg>
