<?xml version="1.0" encoding="utf-8" standalone="no"?>
<!DOCTYPE svg PUBLIC "-//W3C//DTD SVG 1.1//EN"
  "http://www.w3.org/Graphics/SVG/1.1/DTD/svg11.dtd">
<svg xmlns:xlink="http://www.w3.org/1999/xlink" width="254.5425pt" height="233.216pt" viewBox="0 0 254.5425 233.216" xmlns="http://www.w3.org/2000/svg" version="1.1">
 <metadata>
  <rdf:RDF xmlns:dc="http://purl.org/dc/elements/1.1/" xmlns:cc="http://creativecommons.org/ns#" xmlns:rdf="http://www.w3.org/1999/02/22-rdf-syntax-ns#">
   <cc:Work>
    <dc:type rdf:resource="http://purl.org/dc/dcmitype/StillImage"/>
    <dc:date>2026-07-12T15:27:55.096982</dc:date>
    <dc:format>image/svg+xml</dc:format>
    <dc:creator>
     <cc:Agent>
      <dc:title>Matplotlib v3.11.0, https://matplotlib.org/</dc:title>
     </cc:Agent>
    </dc:creator>
   </cc:Work>
  </rdf:RDF>
 </metadata>
 <defs>
  <style type="text/css">*{stroke-linejoin: round; stroke-linecap: butt}</style>
 </defs>
 <g id="figure_1">
  <g id="patch_1">
   <path d="M 0 233.216 
L 254.5425 233.216 
L 254.5425 0 
L 0 0 
z
" style="fill: #ffffff"/>
  </g>
  <g id="axes_1">
   <g id="patch_2">
    <path d="M 42.8225 193.598 
L 247.3425 193.598 
L 247.3425 20.82 
L 42.8225 20.82 
z
" style="fill: #f5f5f5"/>
   </g>
   <g id="matplotlib.axis_1">
    <g id="xtick_1">
     <g id="line2d_1">
      <path d="M 51.43605 193.598 
L 51.43605 20.82 
" clip-path="url(#pe4d3669f83)" style="fill: none; stroke: #dddddd; stroke-width: 0.6; stroke-linecap: round"/>
     </g>
     <g id="text_1">
      <!-- $\mathdefault{10^{0}}$ -->
      <g style="fill: #262626" transform="translate(45.48605 210.493) scale(0.085 -0.085)">
       <defs>
        <path id="STIXTwoText-787" d="M 2726 0 
L 512 0 
L 512 179 
Q 966 179 1152 275 
Q 1338 371 1338 608 
L 1338 3315 
Q 1338 3482 1293 3555 
Q 1248 3629 1126 3629 
Q 1062 3629 947 3616 
Q 832 3603 704 3580 
Q 576 3558 474 3526 
L 474 3738 
L 1715 4090 
L 1901 4090 
L 1901 608 
Q 1901 371 2093 275 
Q 2285 179 2726 179 
L 2726 0 
z
" transform="scale(0.015625)"/>
        <path id="STIXTwoText-786" d="M 1581 -70 
Q 1197 -70 928 99 
Q 659 269 492 563 
Q 326 858 249 1242 
Q 173 1626 173 2048 
Q 173 2656 336 3120 
Q 499 3584 816 3846 
Q 1133 4109 1594 4109 
Q 2010 4109 2323 3862 
Q 2637 3616 2816 3152 
Q 2995 2688 2995 2029 
Q 2995 1619 2915 1241 
Q 2835 864 2665 569 
Q 2496 275 2227 102 
Q 1958 -70 1581 -70 
z
M 1581 160 
Q 1958 160 2166 614 
Q 2374 1069 2374 1990 
Q 2374 2963 2172 3427 
Q 1971 3891 1574 3891 
Q 1197 3891 992 3430 
Q 787 2970 787 2016 
Q 787 1088 992 624 
Q 1197 160 1581 160 
z
" transform="scale(0.015625)"/>
       </defs>
       <use xlink:href="#STIXTwoText-787" transform="translate(0 0.757812)"/>
       <use xlink:href="#STIXTwoText-786" transform="translate(49.499954 0.757812)"/>
       <use xlink:href="#STIXTwoText-786" transform="translate(100.574908 42.057813) scale(0.7)"/>
      </g>
     </g>
    </g>
    <g id="xtick_2">
     <g id="line2d_2">
      <path d="M 140.317985 193.598 
L 140.317985 20.82 
" clip-path="url(#pe4d3669f83)" style="fill: none; stroke: #dddddd; stroke-width: 0.6; stroke-linecap: round"/>
     </g>
     <g id="text_2">
      <!-- $\mathdefault{10^{1}}$ -->
      <g style="fill: #262626" transform="translate(134.367985 210.493) scale(0.085 -0.085)">
       <use xlink:href="#STIXTwoText-787" transform="translate(0 0.965625)"/>
       <use xlink:href="#STIXTwoText-786" transform="translate(49.499954 0.965625)"/>
       <use xlink:href="#STIXTwoText-787" transform="translate(100.574908 42.265625) scale(0.7)"/>
      </g>
     </g>
    </g>
    <g id="xtick_3">
     <g id="line2d_3">
      <path d="M 229.199921 193.598 
L 229.199921 20.82 
" clip-path="url(#pe4d3669f83)" style="fill: none; stroke: #dddddd; stroke-width: 0.6; stroke-linecap: round"/>
     </g>
     <g id="text_3">
      <!-- $\mathdefault{10^{2}}$ -->
      <g style="fill: #262626" transform="translate(223.249921 210.493) scale(0.085 -0.085)">
       <defs>
        <path id="STIXTwoText-788" d="M 2765 0 
L 243 0 
L 243 218 
L 1216 1190 
Q 1536 1517 1747 1782 
Q 1958 2048 2064 2317 
Q 2170 2586 2170 2918 
Q 2170 3277 1955 3491 
Q 1741 3706 1370 3706 
Q 1056 3706 835 3571 
Q 614 3437 435 3078 
L 282 3142 
Q 429 3610 749 3866 
Q 1069 4122 1536 4122 
Q 1901 4122 2176 3984 
Q 2451 3846 2608 3600 
Q 2765 3354 2765 3014 
Q 2765 2733 2646 2473 
Q 2528 2214 2294 1939 
Q 2061 1664 1722 1318 
L 877 518 
L 877 486 
L 1325 506 
L 2214 506 
Q 2470 506 2572 621 
Q 2675 736 2784 1024 
L 2970 1024 
L 2765 0 
z
" transform="scale(0.015625)"/>
       </defs>
       <use xlink:href="#STIXTwoText-787" transform="translate(0 0.615625)"/>
       <use xlink:href="#STIXTwoText-786" transform="translate(49.499954 0.615625)"/>
       <use xlink:href="#STIXTwoText-788" transform="translate(100.574908 41.915625) scale(0.7)"/>
      </g>
     </g>
    </g>
    <g id="xtick_4"/>
    <g id="xtick_5"/>
    <g id="xtick_6"/>
    <g id="xtick_7"/>
    <g id="xtick_8"/>
    <g id="xtick_9"/>
    <g id="xtick_10"/>
    <g id="xtick_11"/>
    <g id="xtick_12"/>
    <g id="xtick_13"/>
    <g id="xtick_14"/>
    <g id="xtick_15"/>
    <g id="xtick_16"/>
    <g id="xtick_17"/>
    <g id="xtick_18"/>
    <g id="xtick_19"/>
    <g id="xtick_20"/>
    <g id="xtick_21"/>
    <g id="text_4">
     <!-- compute cost (ms / sim, log scale) -->
     <g style="fill: #262626" transform="translate(77.541211 223.755) scale(0.095 -0.095)">
      <defs>
       <path id="STIXTwoText-101" d="M 2611 947 
L 2733 858 
Q 2611 602 2454 390 
Q 2298 179 2067 57 
Q 1837 -64 1491 -64 
Q 1094 -64 806 128 
Q 518 320 364 662 
Q 211 1005 211 1446 
Q 211 1952 380 2323 
Q 550 2694 873 2899 
Q 1197 3104 1658 3104 
Q 2112 3104 2371 2905 
Q 2630 2707 2630 2426 
Q 2630 2285 2563 2211 
Q 2496 2138 2362 2138 
Q 2221 2138 2147 2211 
Q 2074 2285 2029 2393 
Q 1984 2502 1936 2611 
Q 1888 2720 1801 2793 
Q 1715 2867 1549 2867 
Q 1158 2867 937 2582 
Q 717 2298 717 1747 
Q 717 1165 957 790 
Q 1197 416 1690 416 
Q 2003 416 2198 544 
Q 2394 672 2611 947 
z
" transform="scale(0.015625)"/>
       <path id="STIXTwoText-10e" d="M 1651 -64 
Q 979 -64 598 355 
Q 218 774 218 1549 
Q 218 2016 397 2365 
Q 576 2714 899 2909 
Q 1222 3104 1651 3104 
Q 2310 3104 2691 2694 
Q 3072 2285 3072 1574 
Q 3072 1037 2889 672 
Q 2707 307 2387 121 
Q 2067 -64 1651 -64 
z
M 1677 192 
Q 1939 192 2118 313 
Q 2298 435 2390 729 
Q 2483 1024 2483 1542 
Q 2483 2131 2268 2496 
Q 2054 2861 1626 2861 
Q 1261 2861 1037 2553 
Q 813 2246 813 1632 
Q 813 870 1040 528 
Q 1267 186 1677 192 
z
" transform="scale(0.015625)"/>
       <path id="STIXTwoText-10c" d="M 3520 0 
L 2003 0 
L 2003 186 
Q 2234 186 2336 230 
Q 2438 275 2467 396 
Q 2496 518 2496 742 
L 2496 2010 
Q 2496 2419 2352 2556 
Q 2208 2694 1984 2694 
Q 1805 2694 1648 2617 
Q 1491 2541 1363 2438 
Q 1235 2336 1146 2246 
L 1094 2566 
L 1190 2566 
Q 1453 2790 1696 2947 
Q 1939 3104 2266 3104 
Q 2554 3104 2730 2937 
Q 2906 2771 2995 2522 
Q 3008 2502 3014 2480 
Q 3021 2458 3027 2432 
L 3027 742 
Q 3027 525 3056 403 
Q 3085 282 3187 234 
Q 3290 186 3520 186 
L 3520 0 
z
M 1664 0 
L 205 0 
L 205 186 
Q 410 186 502 221 
Q 595 256 624 355 
Q 653 454 653 646 
L 653 2438 
Q 653 2611 585 2668 
Q 518 2726 384 2726 
Q 314 2726 262 2720 
Q 211 2714 211 2714 
L 211 2899 
L 1011 3085 
L 1165 3085 
L 1165 2496 
L 1184 2355 
L 1184 621 
Q 1184 442 1222 349 
Q 1261 256 1363 221 
Q 1466 186 1664 186 
L 1664 0 
z
M 5306 0 
L 3859 0 
L 3859 186 
Q 4077 186 4173 243 
Q 4269 301 4291 425 
Q 4314 550 4314 742 
L 4314 1971 
Q 4314 2266 4240 2419 
Q 4166 2573 4041 2633 
Q 3917 2694 3763 2694 
Q 3552 2694 3347 2544 
Q 3142 2394 2976 2253 
L 2906 2573 
L 3002 2573 
Q 3264 2835 3513 2969 
Q 3763 3104 4019 3104 
Q 4397 3104 4621 2867 
Q 4845 2630 4845 2048 
L 4845 742 
Q 4845 544 4867 419 
Q 4890 294 4989 240 
Q 5088 186 5306 186 
L 5306 0 
z
" transform="scale(0.015625)"/>
       <path id="STIXTwoText-10f" d="M 1760 -1408 
L 141 -1408 
L 141 -1229 
Q 442 -1229 525 -1129 
Q 608 -1030 608 -762 
L 608 2406 
Q 608 2592 566 2662 
Q 525 2733 365 2733 
Q 301 2733 230 2726 
Q 160 2720 160 2720 
L 160 2906 
L 966 3085 
L 1126 3085 
L 1126 2547 
L 1146 2547 
Q 1376 2816 1616 2960 
Q 1856 3104 2138 3104 
Q 2458 3104 2698 2921 
Q 2938 2739 3075 2416 
Q 3213 2093 3213 1670 
Q 3213 1126 3024 739 
Q 2835 352 2515 144 
Q 2195 -64 1811 -64 
Q 1632 -64 1469 -22 
Q 1306 19 1165 115 
L 1139 115 
L 1139 -723 
Q 1139 -928 1190 -1037 
Q 1242 -1146 1376 -1184 
Q 1510 -1222 1760 -1222 
L 1760 -1408 
z
M 1843 186 
Q 2182 186 2406 506 
Q 2630 826 2630 1491 
Q 2630 2099 2432 2384 
Q 2234 2669 1875 2669 
Q 1619 2669 1424 2534 
Q 1229 2400 1139 2278 
L 1139 608 
Q 1203 544 1299 441 
Q 1395 339 1529 262 
Q 1664 186 1843 186 
z
" transform="scale(0.015625)"/>
       <path id="STIXTwoText-114" d="M 1421 -64 
Q 1024 -64 803 195 
Q 582 454 582 1107 
L 582 2406 
Q 582 2579 547 2659 
Q 512 2739 416 2761 
Q 320 2784 147 2784 
L 147 2963 
L 973 3059 
L 1114 3059 
L 1114 1190 
Q 1114 864 1187 681 
Q 1261 499 1392 422 
Q 1523 346 1690 346 
Q 1933 346 2109 454 
Q 2285 563 2477 730 
L 2477 2413 
Q 2477 2586 2432 2662 
Q 2387 2739 2275 2761 
Q 2163 2784 1958 2784 
L 1958 2963 
L 2854 3059 
L 3008 3059 
L 3008 710 
Q 3008 429 3085 358 
Q 3162 288 3392 288 
L 3456 288 
L 3456 115 
L 2643 -32 
L 2502 -32 
L 2502 461 
L 2470 461 
Q 2304 294 2141 176 
Q 1978 58 1802 -3 
Q 1626 -64 1421 -64 
z
" transform="scale(0.015625)"/>
       <path id="STIXTwoText-113" d="M 1875 576 
L 1997 474 
Q 1875 301 1769 182 
Q 1664 64 1536 0 
Q 1408 -64 1203 -64 
Q 883 -64 736 125 
Q 589 314 589 742 
L 589 2726 
L 237 2726 
L 237 2874 
Q 461 3014 624 3254 
Q 787 3494 960 3904 
L 1120 3904 
L 1120 2995 
L 1843 2995 
L 1843 2726 
L 1120 2726 
L 1120 922 
Q 1120 582 1181 448 
Q 1242 314 1427 314 
Q 1581 314 1667 378 
Q 1754 442 1875 576 
z
" transform="scale(0.015625)"/>
       <path id="STIXTwoText-103" d="M 1581 -64 
Q 1197 -64 886 118 
Q 576 301 397 656 
Q 218 1011 218 1523 
Q 218 2061 400 2409 
Q 582 2758 889 2931 
Q 1197 3104 1568 3104 
Q 2093 3104 2413 2739 
Q 2733 2374 2758 1702 
L 678 1702 
L 672 1939 
L 2157 1939 
Q 2150 2176 2073 2384 
Q 1997 2592 1849 2720 
Q 1702 2848 1472 2848 
Q 1101 2848 915 2557 
Q 730 2266 730 1734 
Q 730 1293 870 998 
Q 1011 704 1241 560 
Q 1472 416 1734 416 
Q 1997 416 2160 486 
Q 2323 557 2438 669 
Q 2554 781 2656 915 
L 2778 826 
Q 2694 646 2585 483 
Q 2477 320 2339 198 
Q 2202 77 2016 6 
Q 1830 -64 1581 -64 
z
" transform="scale(0.015625)"/>
       <path id="STIXTwoText-1" transform="scale(0.015625)"/>
       <path id="STIXTwoText-112" d="M 269 -51 
L 250 1050 
L 416 1050 
Q 518 557 716 361 
Q 915 166 1267 166 
Q 1510 166 1664 265 
Q 1818 365 1818 589 
Q 1818 742 1763 844 
Q 1709 947 1555 1052 
Q 1402 1158 1101 1306 
Q 806 1453 620 1590 
Q 435 1728 345 1894 
Q 256 2061 256 2298 
Q 256 2694 541 2899 
Q 826 3104 1235 3104 
Q 1478 3104 1632 3049 
Q 1786 2995 1907 2938 
L 1914 2938 
L 2022 3072 
L 2150 3072 
L 2170 2093 
L 1997 2093 
Q 1894 2547 1708 2716 
Q 1523 2886 1229 2886 
Q 1011 2886 860 2784 
Q 710 2682 710 2464 
Q 710 2278 883 2131 
Q 1056 1984 1459 1779 
Q 1754 1626 1952 1482 
Q 2150 1338 2252 1168 
Q 2355 998 2355 762 
Q 2355 461 2208 278 
Q 2061 96 1814 13 
Q 1568 -70 1280 -70 
Q 1005 -70 841 -12 
Q 678 45 550 96 
L 538 96 
L 403 -51 
L 269 -51 
z
" transform="scale(0.015625)"/>
       <path id="STIXTwoText-731" d="M 1997 -1011 
L 1894 -1190 
Q 1120 -794 656 -48 
Q 192 698 192 1754 
Q 192 2803 656 3542 
Q 1120 4282 1894 4672 
L 1997 4506 
Q 1299 4038 1008 3372 
Q 717 2707 717 1754 
Q 717 787 1008 118 
Q 1299 -550 1997 -1011 
z
" transform="scale(0.015625)"/>
       <path id="STIXTwoText-72d" d="M 589 -570 
L 230 -570 
L 1901 4538 
L 2253 4538 
L 589 -570 
z
" transform="scale(0.015625)"/>
       <path id="STIXTwoText-107" d="M 1645 0 
L 205 0 
L 205 179 
Q 422 179 515 220 
Q 608 262 630 364 
Q 653 467 653 646 
L 653 2432 
Q 653 2637 582 2685 
Q 512 2733 371 2733 
Q 307 2733 259 2726 
Q 211 2720 211 2720 
L 211 2906 
L 1018 3085 
L 1184 3085 
L 1184 646 
Q 1184 461 1209 358 
Q 1235 256 1334 217 
Q 1434 179 1645 179 
L 1645 0 
z
M 928 3584 
Q 768 3584 665 3693 
Q 563 3802 563 3949 
Q 563 4096 662 4201 
Q 762 4307 928 4307 
Q 1094 4307 1193 4201 
Q 1293 4096 1293 3949 
Q 1293 3802 1193 3693 
Q 1094 3584 928 3584 
z
" transform="scale(0.015625)"/>
       <path id="STIXTwoText-721" d="M 448 -845 
L 371 -685 
Q 493 -634 614 -554 
Q 736 -474 819 -320 
Q 902 -166 902 90 
Q 800 51 704 51 
Q 518 51 435 153 
Q 352 256 352 397 
Q 352 550 454 662 
Q 557 774 749 774 
Q 909 774 1017 707 
Q 1126 640 1184 515 
Q 1242 390 1242 211 
Q 1242 -58 1155 -243 
Q 1069 -429 941 -544 
Q 813 -659 678 -729 
Q 544 -800 448 -845 
z
" transform="scale(0.015625)"/>
       <path id="STIXTwoText-10b" d="M 1664 0 
L 192 0 
L 192 186 
Q 403 186 499 227 
Q 595 269 617 368 
Q 640 467 640 646 
L 640 3859 
Q 640 4058 566 4096 
Q 493 4134 371 4134 
Q 288 4134 227 4128 
Q 166 4122 166 4122 
L 166 4294 
L 1011 4518 
L 1171 4518 
L 1171 646 
Q 1171 461 1200 361 
Q 1229 262 1331 224 
Q 1434 186 1664 186 
L 1664 0 
z
" transform="scale(0.015625)"/>
       <path id="STIXTwoText-105" d="M 1222 -1504 
Q 806 -1504 566 -1401 
Q 326 -1299 230 -1136 
Q 134 -973 134 -800 
Q 134 -640 265 -464 
Q 397 -288 653 -38 
L 653 32 
L 845 -6 
Q 723 -211 678 -342 
Q 634 -474 634 -582 
Q 634 -858 870 -998 
Q 1107 -1139 1594 -1139 
Q 1971 -1139 2204 -1043 
Q 2438 -947 2544 -806 
Q 2650 -666 2650 -531 
Q 2650 -358 2538 -265 
Q 2426 -173 2253 -134 
Q 2080 -96 1888 -86 
Q 1696 -77 1536 -77 
Q 1248 -70 1101 -70 
Q 954 -70 890 -67 
Q 826 -64 774 -64 
L 710 -32 
Q 614 0 518 70 
Q 422 141 358 240 
Q 294 339 294 448 
Q 294 563 361 688 
Q 429 813 550 937 
Q 672 1062 819 1178 
L 819 1235 
L 986 1114 
Q 954 1082 909 998 
Q 864 915 832 822 
Q 800 730 800 666 
Q 800 570 867 515 
Q 934 461 1097 435 
Q 1261 410 1555 410 
Q 1958 410 2281 371 
Q 2605 333 2790 173 
Q 2976 13 2976 -352 
Q 2976 -672 2819 -893 
Q 2662 -1114 2403 -1248 
Q 2144 -1382 1833 -1443 
Q 1523 -1504 1222 -1504 
z
M 1517 998 
Q 1350 998 1206 1030 
Q 1062 1062 928 1107 
L 858 1171 
Q 691 1261 572 1382 
Q 454 1504 390 1673 
Q 326 1843 326 2061 
Q 326 2381 473 2614 
Q 621 2848 883 2976 
Q 1146 3104 1485 3104 
Q 1677 3104 1846 3069 
Q 2016 3034 2163 2963 
Q 2310 2893 2419 2797 
L 2419 2630 
Q 2490 2534 2570 2374 
Q 2650 2214 2650 1971 
Q 2650 1677 2506 1456 
Q 2362 1235 2109 1116 
Q 1856 998 1517 998 
z
M 1523 1222 
Q 1766 1222 1923 1388 
Q 2080 1555 2080 2010 
Q 2080 2400 1913 2637 
Q 1747 2874 1440 2874 
Q 1190 2874 1040 2682 
Q 890 2490 890 2086 
Q 890 1677 1050 1449 
Q 1210 1222 1523 1222 
z
M 3021 2989 
L 3021 2643 
L 2330 2662 
L 2106 2938 
L 3021 2989 
z
" transform="scale(0.015625)"/>
       <path id="STIXTwoText-ff" d="M 1005 -45 
Q 634 -45 438 160 
Q 243 365 243 672 
Q 243 928 361 1104 
Q 480 1280 675 1401 
Q 870 1523 1097 1606 
Q 1325 1690 1542 1747 
Q 1760 1805 1926 1856 
L 1926 2138 
Q 1926 2554 1782 2730 
Q 1638 2906 1350 2906 
Q 1075 2906 998 2790 
Q 922 2675 922 2387 
Q 922 2240 848 2166 
Q 774 2093 640 2093 
Q 544 2093 457 2166 
Q 371 2240 371 2400 
Q 371 2579 508 2739 
Q 646 2899 899 3001 
Q 1152 3104 1498 3104 
Q 2022 3104 2240 2861 
Q 2458 2618 2458 2118 
L 2458 666 
Q 2458 467 2502 409 
Q 2547 352 2650 352 
Q 2739 352 2812 397 
Q 2886 442 2950 512 
L 3046 410 
Q 2886 179 2742 73 
Q 2598 -32 2355 -32 
Q 2131 -32 2064 96 
Q 1997 224 1965 461 
L 1926 538 
L 1926 1645 
Q 1638 1574 1382 1478 
Q 1126 1382 966 1228 
Q 806 1075 806 826 
Q 806 589 934 448 
Q 1062 307 1267 307 
Q 1434 307 1616 390 
Q 1798 474 1971 627 
L 2022 397 
L 1946 397 
Q 1798 269 1660 166 
Q 1523 64 1366 9 
Q 1210 -45 1005 -45 
z
" transform="scale(0.015625)"/>
       <path id="STIXTwoText-732" d="M 301 -1190 
L 198 -1011 
Q 902 -550 1190 118 
Q 1478 787 1478 1754 
Q 1478 2707 1190 3372 
Q 902 4038 198 4506 
L 301 4672 
Q 1075 4282 1539 3542 
Q 2003 2803 2003 1754 
Q 2003 698 1539 -48 
Q 1075 -794 301 -1190 
z
" transform="scale(0.015625)"/>
      </defs>
      <use xlink:href="#STIXTwoText-101"/>
      <use xlink:href="#STIXTwoText-10e" transform="translate(44.59375 0)"/>
      <use xlink:href="#STIXTwoText-10c" transform="translate(96 0)"/>
      <use xlink:href="#STIXTwoText-10f" transform="translate(181.203125 0)"/>
      <use xlink:href="#STIXTwoText-114" transform="translate(234.90625 0)"/>
      <use xlink:href="#STIXTwoText-113" transform="translate(291.90625 0)"/>
      <use xlink:href="#STIXTwoText-103" transform="translate(322.90625 0)"/>
      <use xlink:href="#STIXTwoText-1" transform="translate(369.3125 0)"/>
      <use xlink:href="#STIXTwoText-101" transform="translate(392.8125 0)"/>
      <use xlink:href="#STIXTwoText-10e" transform="translate(437.40625 0)"/>
      <use xlink:href="#STIXTwoText-112" transform="translate(488.8125 0)"/>
      <use xlink:href="#STIXTwoText-113" transform="translate(528.3125 0)"/>
      <use xlink:href="#STIXTwoText-1" transform="translate(559.8125 0)"/>
      <use xlink:href="#STIXTwoText-731" transform="translate(583.3125 0)"/>
      <use xlink:href="#STIXTwoText-10c" transform="translate(617.609375 0)"/>
      <use xlink:href="#STIXTwoText-112" transform="translate(702.8125 0)"/>
      <use xlink:href="#STIXTwoText-1" transform="translate(742.3125 0)"/>
      <use xlink:href="#STIXTwoText-72d" transform="translate(765.8125 0)"/>
      <use xlink:href="#STIXTwoText-1" transform="translate(804.515625 0)"/>
      <use xlink:href="#STIXTwoText-112" transform="translate(828.015625 0)"/>
      <use xlink:href="#STIXTwoText-107" transform="translate(867.515625 0)"/>
      <use xlink:href="#STIXTwoText-10c" transform="translate(896.015625 0)"/>
      <use xlink:href="#STIXTwoText-721" transform="translate(981.21875 0)"/>
      <use xlink:href="#STIXTwoText-1" transform="translate(1005.71875 0)"/>
      <use xlink:href="#STIXTwoText-10b" transform="translate(1029.21875 0)"/>
      <use xlink:href="#STIXTwoText-10e" transform="translate(1057.515625 0)"/>
      <use xlink:href="#STIXTwoText-105" transform="translate(1108.921875 0)"/>
      <use xlink:href="#STIXTwoText-1" transform="translate(1157.328125 0)"/>
      <use xlink:href="#STIXTwoText-112" transform="translate(1180.828125 0)"/>
      <use xlink:href="#STIXTwoText-101" transform="translate(1220.328125 0)"/>
      <use xlink:href="#STIXTwoText-ff" transform="translate(1264.921875 0)"/>
      <use xlink:href="#STIXTwoText-10b" transform="translate(1312.921875 0)"/>
      <use xlink:href="#STIXTwoText-103" transform="translate(1341.21875 0)"/>
      <use xlink:href="#STIXTwoText-732" transform="translate(1387.625 0)"/>
     </g>
    </g>
   </g>
   <g id="matplotlib.axis_2">
    <g id="ytick_1">
     <g id="line2d_4">
      <path d="M 42.8225 179.88546 
L 247.3425 179.88546 
" clip-path="url(#pe4d3669f83)" style="fill: none; stroke: #dddddd; stroke-width: 0.6; stroke-linecap: round"/>
     </g>
     <g id="text_5">
      <!-- 120 -->
      <g style="fill: #262626" transform="translate(20.7 183.12396) scale(0.085 -0.085)">
       <use xlink:href="#STIXTwoText-787"/>
       <use xlink:href="#STIXTwoText-788" transform="translate(49.5 0)"/>
       <use xlink:href="#STIXTwoText-786" transform="translate(99 0)"/>
      </g>
     </g>
    </g>
    <g id="ytick_2">
     <g id="line2d_5">
      <path d="M 42.8225 152.460381 
L 247.3425 152.460381 
" clip-path="url(#pe4d3669f83)" style="fill: none; stroke: #dddddd; stroke-width: 0.6; stroke-linecap: round"/>
     </g>
     <g id="text_6">
      <!-- 130 -->
      <g style="fill: #262626" transform="translate(20.7 155.698881) scale(0.085 -0.085)">
       <defs>
        <path id="STIXTwoText-789" d="M 1094 -83 
Q 806 -83 652 -28 
Q 499 26 438 106 
Q 378 186 378 269 
Q 378 371 442 460 
Q 506 550 627 550 
Q 723 550 828 502 
Q 934 454 1049 393 
Q 1165 333 1283 285 
Q 1402 237 1523 237 
Q 1728 237 1907 310 
Q 2086 384 2201 560 
Q 2317 736 2317 1050 
Q 2317 1338 2157 1549 
Q 1997 1760 1731 1878 
Q 1466 1997 1158 1997 
L 1030 1997 
L 1030 2240 
L 1152 2240 
Q 1370 2240 1574 2349 
Q 1779 2458 1910 2656 
Q 2042 2854 2042 3110 
Q 2042 3392 1866 3549 
Q 1690 3706 1389 3706 
Q 1101 3706 909 3574 
Q 717 3443 550 3187 
L 403 3270 
Q 582 3686 876 3904 
Q 1171 4122 1562 4122 
Q 2054 4122 2323 3875 
Q 2592 3629 2592 3264 
Q 2592 2931 2397 2726 
Q 2202 2522 1901 2330 
L 1901 2310 
Q 2157 2234 2371 2090 
Q 2586 1946 2714 1738 
Q 2842 1530 2842 1242 
Q 2842 806 2598 508 
Q 2355 211 1958 64 
Q 1562 -83 1094 -83 
z
" transform="scale(0.015625)"/>
       </defs>
       <use xlink:href="#STIXTwoText-787"/>
       <use xlink:href="#STIXTwoText-789" transform="translate(49.5 0)"/>
       <use xlink:href="#STIXTwoText-786" transform="translate(99 0)"/>
      </g>
     </g>
    </g>
    <g id="ytick_3">
     <g id="line2d_6">
      <path d="M 42.8225 125.035302 
L 247.3425 125.035302 
" clip-path="url(#pe4d3669f83)" style="fill: none; stroke: #dddddd; stroke-width: 0.6; stroke-linecap: round"/>
     </g>
     <g id="text_7">
      <!-- 140 -->
      <g style="fill: #262626" transform="translate(20.7 128.273802) scale(0.085 -0.085)">
       <defs>
        <path id="STIXTwoText-78a" d="M 2426 0 
L 1856 0 
L 1856 1011 
L 83 1011 
L 83 1414 
L 2035 4128 
L 2426 4128 
L 2426 1453 
L 3078 1453 
L 3078 1011 
L 2426 1011 
L 2426 0 
z
M 435 1478 
L 435 1453 
L 1856 1453 
L 1856 3430 
L 1830 3430 
L 435 1478 
z
" transform="scale(0.015625)"/>
       </defs>
       <use xlink:href="#STIXTwoText-787"/>
       <use xlink:href="#STIXTwoText-78a" transform="translate(49.5 0)"/>
       <use xlink:href="#STIXTwoText-786" transform="translate(99 0)"/>
      </g>
     </g>
    </g>
    <g id="ytick_4">
     <g id="line2d_7">
      <path d="M 42.8225 97.610222 
L 247.3425 97.610222 
" clip-path="url(#pe4d3669f83)" style="fill: none; stroke: #dddddd; stroke-width: 0.6; stroke-linecap: round"/>
     </g>
     <g id="text_8">
      <!-- 150 -->
      <g style="fill: #262626" transform="translate(20.7 100.848722) scale(0.085 -0.085)">
       <defs>
        <path id="STIXTwoText-78b" d="M 1114 -83 
Q 742 -83 560 6 
Q 378 96 378 275 
Q 378 384 445 467 
Q 512 550 634 550 
Q 730 550 822 502 
Q 915 454 1014 393 
Q 1114 333 1235 285 
Q 1357 237 1510 237 
Q 1741 237 1936 326 
Q 2131 416 2249 614 
Q 2368 813 2368 1146 
Q 2368 1504 2227 1721 
Q 2086 1939 1849 2054 
Q 1613 2170 1315 2214 
Q 1018 2259 698 2266 
L 621 2362 
L 1018 4032 
L 2771 4032 
L 2669 3514 
L 1165 3514 
L 992 2784 
Q 1312 2758 1590 2704 
Q 1869 2650 2096 2554 
Q 2323 2458 2489 2301 
Q 2656 2144 2745 1923 
Q 2835 1702 2835 1402 
Q 2835 1030 2710 752 
Q 2586 474 2355 288 
Q 2125 102 1811 9 
Q 1498 -83 1114 -83 
z
" transform="scale(0.015625)"/>
       </defs>
       <use xlink:href="#STIXTwoText-787"/>
       <use xlink:href="#STIXTwoText-78b" transform="translate(49.5 0)"/>
       <use xlink:href="#STIXTwoText-786" transform="translate(99 0)"/>
      </g>
     </g>
    </g>
    <g id="ytick_5">
     <g id="line2d_8">
      <path d="M 42.8225 70.185143 
L 247.3425 70.185143 
" clip-path="url(#pe4d3669f83)" style="fill: none; stroke: #dddddd; stroke-width: 0.6; stroke-linecap: round"/>
     </g>
     <g id="text_9">
      <!-- 160 -->
      <g style="fill: #262626" transform="translate(20.7 73.423643) scale(0.085 -0.085)">
       <defs>
        <path id="STIXTwoText-78c" d="M 1658 -77 
Q 1184 -77 880 156 
Q 576 390 432 784 
Q 288 1178 288 1645 
Q 288 2221 464 2675 
Q 640 3130 957 3446 
Q 1274 3763 1706 3939 
Q 2138 4115 2656 4134 
L 2669 3949 
Q 2221 3885 1849 3661 
Q 1478 3437 1228 3078 
Q 979 2720 896 2253 
L 941 2246 
Q 1139 2438 1331 2540 
Q 1523 2643 1773 2643 
Q 2298 2643 2611 2284 
Q 2925 1926 2925 1299 
Q 2925 646 2595 284 
Q 2266 -77 1658 -77 
z
M 1683 147 
Q 2003 147 2185 393 
Q 2368 640 2368 1248 
Q 2368 1683 2173 1977 
Q 1978 2272 1581 2272 
Q 1395 2272 1232 2198 
Q 1069 2125 966 1958 
Q 864 1792 864 1510 
Q 864 1114 953 806 
Q 1043 499 1225 323 
Q 1408 147 1683 147 
z
" transform="scale(0.015625)"/>
       </defs>
       <use xlink:href="#STIXTwoText-787"/>
       <use xlink:href="#STIXTwoText-78c" transform="translate(49.5 0)"/>
       <use xlink:href="#STIXTwoText-786" transform="translate(99 0)"/>
      </g>
     </g>
    </g>
    <g id="ytick_6">
     <g id="line2d_9">
      <path d="M 42.8225 42.760063 
L 247.3425 42.760063 
" clip-path="url(#pe4d3669f83)" style="fill: none; stroke: #dddddd; stroke-width: 0.6; stroke-linecap: round"/>
     </g>
     <g id="text_10">
      <!-- 170 -->
      <g style="fill: #262626" transform="translate(20.7 45.998563) scale(0.085 -0.085)">
       <defs>
        <path id="STIXTwoText-78d" d="M 1472 -51 
L 966 -51 
L 2477 3514 
L 1050 3514 
Q 870 3514 774 3482 
Q 678 3450 617 3347 
Q 557 3245 467 3034 
L 269 3053 
L 525 4032 
L 2970 4032 
L 2970 3834 
L 1472 -51 
z
" transform="scale(0.015625)"/>
       </defs>
       <use xlink:href="#STIXTwoText-787"/>
       <use xlink:href="#STIXTwoText-78d" transform="translate(49.5 0)"/>
       <use xlink:href="#STIXTwoText-786" transform="translate(99 0)"/>
      </g>
     </g>
    </g>
    <g id="text_11">
     <!-- far-tail CVaR$_{99.9}$ (m/s) -->
     <g style="fill: #262626" transform="translate(14.439 151.9065) rotate(-90) scale(0.095 -0.095)">
      <defs>
       <path id="STIXTwoText-104" d="M 1837 0 
L 115 0 
L 115 186 
Q 352 186 464 227 
Q 576 269 614 390 
Q 653 512 653 762 
L 653 2797 
Q 653 3162 669 3395 
Q 685 3629 729 3789 
Q 774 3949 858 4096 
Q 986 4320 1181 4441 
Q 1376 4563 1709 4563 
Q 1920 4563 2080 4512 
Q 2240 4461 2333 4361 
Q 2426 4262 2426 4115 
Q 2426 3974 2349 3907 
Q 2272 3840 2163 3840 
Q 2042 3840 1965 3920 
Q 1888 4000 1818 4090 
Q 1754 4179 1680 4252 
Q 1606 4326 1491 4326 
Q 1312 4326 1248 4163 
Q 1184 4000 1184 3597 
L 1184 762 
Q 1184 512 1235 390 
Q 1286 269 1427 227 
Q 1568 186 1837 186 
L 1837 0 
z
M 1965 2726 
L 166 2726 
L 166 2995 
L 1965 2995 
L 1965 2726 
z
" transform="scale(0.015625)"/>
       <path id="STIXTwoText-111" d="M 1786 0 
L 186 0 
L 186 186 
Q 397 186 496 221 
Q 595 256 624 349 
Q 653 442 653 621 
L 653 2381 
Q 653 2554 624 2640 
Q 595 2726 422 2726 
Q 326 2726 275 2720 
Q 224 2714 224 2714 
L 224 2893 
L 1018 3085 
L 1171 3085 
L 1171 2426 
L 1190 2426 
Q 1357 2662 1485 2816 
Q 1613 2970 1737 3046 
Q 1862 3123 2016 3123 
Q 2202 3123 2294 3027 
Q 2387 2931 2387 2765 
Q 2387 2586 2300 2502 
Q 2214 2419 2106 2419 
Q 2003 2419 1923 2473 
Q 1843 2528 1785 2582 
Q 1728 2637 1690 2637 
Q 1581 2637 1440 2470 
Q 1299 2304 1184 2112 
L 1184 653 
Q 1184 454 1235 352 
Q 1286 250 1417 218 
Q 1549 186 1786 186 
L 1786 0 
z
" transform="scale(0.015625)"/>
       <path id="STIXTwoText-73c" d="M 1728 1395 
L 288 1395 
L 288 1811 
L 1728 1811 
L 1728 1395 
z
" transform="scale(0.015625)"/>
       <path id="STIXTwoText-5" d="M 2330 -70 
Q 1670 -70 1222 211 
Q 774 493 547 985 
Q 320 1478 320 2099 
Q 320 2797 589 3283 
Q 858 3770 1331 4026 
Q 1805 4282 2419 4282 
Q 2758 4282 2963 4224 
Q 3168 4166 3289 4108 
Q 3411 4051 3488 4051 
Q 3565 4051 3606 4118 
Q 3648 4186 3706 4282 
L 3898 4282 
L 3898 2816 
L 3680 2816 
Q 3578 3443 3248 3724 
Q 2918 4006 2426 4006 
Q 1734 4006 1360 3513 
Q 986 3021 986 2163 
Q 986 1523 1181 1120 
Q 1376 717 1721 525 
Q 2067 333 2515 333 
Q 2957 333 3289 496 
Q 3622 659 3891 954 
L 4045 819 
Q 3872 563 3632 361 
Q 3392 160 3072 45 
Q 2752 -70 2330 -70 
z
" transform="scale(0.015625)"/>
       <path id="STIXTwoText-18" d="M 2330 -32 
L 2074 -32 
L 608 3430 
Q 518 3648 428 3773 
Q 339 3898 224 3955 
Q 109 4013 -64 4013 
L -64 4205 
L 1651 4205 
L 1651 4013 
Q 1568 4013 1465 4000 
Q 1363 3987 1289 3939 
Q 1216 3891 1216 3770 
Q 1216 3642 1325 3379 
L 2099 1478 
L 2349 806 
L 2381 806 
L 2605 1446 
L 3411 3482 
Q 3443 3552 3462 3632 
Q 3482 3712 3482 3795 
Q 3482 3923 3379 3968 
Q 3277 4013 3053 4013 
L 3053 4205 
L 4397 4205 
L 4397 4013 
Q 4262 4013 4169 3984 
Q 4077 3955 4003 3868 
Q 3930 3782 3846 3616 
Q 3763 3450 3648 3181 
L 2330 -32 
z
" transform="scale(0.015625)"/>
       <path id="STIXTwoText-14" d="M 2074 0 
L 275 0 
L 275 192 
Q 518 192 640 230 
Q 762 269 803 397 
Q 845 525 845 794 
L 845 3539 
Q 845 3718 809 3820 
Q 774 3923 652 3968 
Q 531 4013 275 4013 
L 275 4205 
L 1850 4205 
Q 2330 4205 2704 4112 
Q 3078 4019 3289 3792 
Q 3501 3565 3501 3155 
Q 3501 2797 3337 2573 
Q 3174 2349 2928 2224 
Q 2682 2099 2419 2035 
L 2419 2010 
Q 2528 1946 2665 1789 
Q 2803 1632 3020 1328 
Q 3238 1024 3590 518 
Q 3744 307 3888 249 
Q 4032 192 4250 192 
L 4250 0 
L 3194 0 
Q 2931 397 2755 662 
Q 2579 928 2457 1110 
Q 2336 1293 2240 1433 
Q 2144 1574 2048 1715 
Q 1952 1862 1872 1894 
Q 1792 1926 1619 1926 
L 1440 1926 
L 1440 794 
Q 1440 531 1485 400 
Q 1530 269 1664 230 
Q 1798 192 2074 192 
L 2074 0 
z
M 1440 2176 
L 1683 2170 
Q 2035 2189 2297 2285 
Q 2560 2381 2707 2585 
Q 2854 2790 2854 3130 
Q 2854 3514 2617 3734 
Q 2381 3955 1862 3955 
Q 1760 3955 1651 3952 
Q 1542 3949 1440 3936 
L 1440 2176 
z
" transform="scale(0.015625)"/>
       <path id="STIXGeneral-Regular-1c" d="M 378 -141 
L 358 -13 
Q 1094 115 1603 608 
Q 2112 1101 2304 1882 
Q 1933 1517 1344 1517 
Q 826 1517 509 1875 
Q 192 2234 192 2816 
Q 192 3462 573 3894 
Q 954 4326 1523 4326 
Q 2131 4326 2528 3840 
Q 2938 3328 2938 2522 
Q 2938 1958 2742 1462 
Q 2547 966 2170 621 
Q 1773 262 1395 105 
Q 1018 -51 378 -141 
z
M 2317 2272 
L 2317 2522 
Q 2317 4147 1472 4147 
Q 1171 4147 1005 3930 
Q 909 3802 845 3546 
Q 781 3290 781 3034 
Q 781 2464 995 2128 
Q 1210 1792 1568 1792 
Q 1824 1792 2070 1917 
Q 2317 2042 2317 2272 
z
" transform="scale(0.015625)"/>
       <path id="STIXGeneral-Regular-11" d="M 1158 275 
Q 1158 134 1052 32 
Q 947 -70 800 -70 
Q 653 -70 550 32 
Q 448 134 448 281 
Q 448 429 553 534 
Q 659 640 806 640 
Q 947 640 1052 531 
Q 1158 422 1158 275 
z
" transform="scale(0.015625)"/>
      </defs>
      <use xlink:href="#STIXTwoText-104"/>
      <use xlink:href="#STIXTwoText-ff" transform="translate(30.699966 0)"/>
      <use xlink:href="#STIXTwoText-111" transform="translate(78.699921 0)"/>
      <use xlink:href="#STIXTwoText-73c" transform="translate(116.69989 0)"/>
      <use xlink:href="#STIXTwoText-113" transform="translate(148.19986 0)"/>
      <use xlink:href="#STIXTwoText-ff" transform="translate(179.699829 0)"/>
      <use xlink:href="#STIXTwoText-107" transform="translate(227.699783 0)"/>
      <use xlink:href="#STIXTwoText-10b" transform="translate(256.199753 0)"/>
      <use xlink:href="#STIXTwoText-1" transform="translate(284.499725 0)"/>
      <use xlink:href="#STIXTwoText-5" transform="translate(307.99971 0)"/>
      <use xlink:href="#STIXTwoText-18" transform="translate(374.999649 0)"/>
      <use xlink:href="#STIXTwoText-ff" transform="translate(442.999588 0)"/>
      <use xlink:href="#STIXTwoText-14" transform="translate(490.999542 0)"/>
      <use xlink:href="#STIXGeneral-Regular-1c" transform="translate(558.474475 -15) scale(0.7)"/>
      <use xlink:href="#STIXGeneral-Regular-1c" transform="translate(593.474443 -15) scale(0.7)"/>
      <use xlink:href="#STIXGeneral-Regular-11" transform="translate(628.474411 -15) scale(0.7)"/>
      <use xlink:href="#STIXGeneral-Regular-1c" transform="translate(645.97439 -15) scale(0.7)"/>
      <use xlink:href="#STIXTwoText-1" transform="translate(685.474358 0)"/>
      <use xlink:href="#STIXTwoText-731" transform="translate(708.974342 0)"/>
      <use xlink:href="#STIXTwoText-10c" transform="translate(743.274315 0)"/>
      <use xlink:href="#STIXTwoText-72d" transform="translate(828.474236 0)"/>
      <use xlink:href="#STIXTwoText-112" transform="translate(867.174202 0)"/>
      <use xlink:href="#STIXTwoText-732" transform="translate(906.674171 0)"/>
     </g>
    </g>
   </g>
   <g id="patch_3">
    <path d="M 42.8225 193.598 
L 42.8225 20.82 
" style="fill: none; stroke: #bbbbbb; stroke-width: 0.8; stroke-linejoin: miter; stroke-linecap: square"/>
   </g>
   <g id="patch_4">
    <path d="M 247.3425 193.598 
L 247.3425 20.82 
" style="fill: none; stroke: #bbbbbb; stroke-width: 0.8; stroke-linejoin: miter; stroke-linecap: square"/>
   </g>
   <g id="patch_5">
    <path d="M 42.8225 193.598 
L 247.3425 193.598 
" style="fill: none; stroke: #bbbbbb; stroke-width: 0.8; stroke-linejoin: miter; stroke-linecap: square"/>
   </g>
   <g id="patch_6">
    <path d="M 42.8225 20.82 
L 247.3425 20.82 
" style="fill: none; stroke: #bbbbbb; stroke-width: 0.8; stroke-linejoin: miter; stroke-linecap: square"/>
   </g>
   <g id="text_12">
    <!-- Mamba-962 -->
    <g style="fill: #1f6f3f" transform="translate(102.567221 147.943375) scale(0.08 -0.08)">
     <defs>
      <path id="STIXTwoText-f" d="M 1683 0 
L 179 0 
L 179 192 
Q 442 192 570 240 
Q 698 288 742 448 
Q 787 608 787 934 
L 787 3424 
Q 787 3667 742 3792 
Q 698 3917 573 3965 
Q 448 4013 192 4013 
L 192 4205 
L 1498 4205 
L 2848 986 
L 2874 986 
L 4218 4205 
L 5434 4205 
L 5434 4013 
Q 5210 4013 5088 3965 
Q 4966 3917 4921 3792 
Q 4877 3667 4877 3430 
L 4877 762 
Q 4877 531 4921 406 
Q 4966 282 5088 237 
Q 5210 192 5440 192 
L 5440 0 
L 3738 0 
L 3738 192 
Q 3987 192 4108 237 
Q 4230 282 4268 406 
Q 4307 531 4307 762 
L 4307 3520 
L 4282 3520 
L 2790 0 
L 2637 0 
L 1126 3514 
L 1101 3514 
L 1101 934 
Q 1101 608 1145 448 
Q 1190 288 1315 240 
Q 1440 192 1683 192 
L 1683 0 
z
" transform="scale(0.015625)"/>
      <path id="STIXTwoText-100" d="M 877 4518 
L 1043 4518 
L 1043 2560 
L 1062 2560 
Q 1229 2765 1478 2934 
Q 1728 3104 2048 3104 
Q 2368 3104 2608 2921 
Q 2848 2739 2982 2419 
Q 3117 2099 3117 1683 
Q 3117 1114 2918 723 
Q 2720 333 2374 134 
Q 2029 -64 1581 -64 
Q 1171 -64 899 32 
Q 627 128 512 192 
L 512 3789 
Q 512 4006 464 4067 
Q 416 4128 230 4128 
Q 154 4128 102 4121 
Q 51 4115 51 4115 
L 51 4294 
L 877 4518 
z
M 1043 2278 
L 1043 499 
Q 1133 390 1286 294 
Q 1440 198 1696 198 
Q 2003 198 2185 371 
Q 2368 544 2451 835 
Q 2534 1126 2534 1478 
Q 2534 1786 2470 2058 
Q 2406 2330 2240 2499 
Q 2074 2669 1766 2669 
Q 1523 2669 1328 2531 
Q 1133 2394 1043 2278 
z
" transform="scale(0.015625)"/>
      <path id="STIXTwoText-78f" d="M 544 -83 
L 531 102 
Q 973 154 1344 362 
Q 1715 570 1961 931 
Q 2208 1293 2278 1811 
L 2240 1818 
Q 2022 1619 1833 1520 
Q 1645 1421 1402 1421 
Q 877 1421 563 1776 
Q 250 2131 250 2765 
Q 250 3411 592 3772 
Q 934 4134 1536 4134 
Q 2016 4134 2310 3897 
Q 2605 3661 2742 3264 
Q 2880 2867 2880 2394 
Q 2880 1773 2713 1312 
Q 2547 851 2240 540 
Q 1933 230 1504 76 
Q 1075 -77 544 -83 
z
M 1594 1798 
Q 1875 1798 2089 1968 
Q 2304 2138 2304 2547 
Q 2304 2950 2224 3257 
Q 2144 3565 1968 3741 
Q 1792 3917 1510 3917 
Q 1197 3917 1001 3667 
Q 806 3418 806 2803 
Q 806 2355 1001 2076 
Q 1197 1798 1594 1798 
z
" transform="scale(0.015625)"/>
     </defs>
     <use xlink:href="#STIXTwoText-f"/>
     <use xlink:href="#STIXTwoText-ff" transform="translate(89.5 0)"/>
     <use xlink:href="#STIXTwoText-10c" transform="translate(137.5 0)"/>
     <use xlink:href="#STIXTwoText-100" transform="translate(222.703125 0)"/>
     <use xlink:href="#STIXTwoText-ff" transform="translate(274.90625 0)"/>
     <use xlink:href="#STIXTwoText-73c" transform="translate(322.90625 0)"/>
     <use xlink:href="#STIXTwoText-78f" transform="translate(354.40625 0)"/>
     <use xlink:href="#STIXTwoText-78c" transform="translate(403.90625 0)"/>
     <use xlink:href="#STIXTwoText-788" transform="translate(453.40625 0)"/>
    </g>
    <!-- 125 m/s -->
    <g style="fill: #1f6f3f" transform="translate(102.567221 157.943375) scale(0.08 -0.08)">
     <use xlink:href="#STIXTwoText-787"/>
     <use xlink:href="#STIXTwoText-788" transform="translate(49.5 0)"/>
     <use xlink:href="#STIXTwoText-78b" transform="translate(99 0)"/>
     <use xlink:href="#STIXTwoText-1" transform="translate(148.5 0)"/>
     <use xlink:href="#STIXTwoText-10c" transform="translate(172 0)"/>
     <use xlink:href="#STIXTwoText-72d" transform="translate(257.203125 0)"/>
     <use xlink:href="#STIXTwoText-112" transform="translate(295.90625 0)"/>
    </g>
   </g>
   <g id="text_13">
    <!-- Dense-515 -->
    <g style="fill: #4878cf" transform="translate(82.832465 134.632064) scale(0.08 -0.08)">
     <defs>
      <path id="STIXTwoText-6" d="M 2054 0 
L 224 0 
L 224 192 
Q 506 192 640 233 
Q 774 275 812 406 
Q 851 538 851 794 
L 851 3475 
Q 851 3712 793 3824 
Q 736 3936 601 3974 
Q 467 4013 224 4013 
L 224 4205 
L 1984 4205 
Q 2483 4205 2915 4099 
Q 3347 3994 3667 3750 
Q 3987 3507 4169 3110 
Q 4352 2714 4352 2125 
Q 4352 1574 4189 1171 
Q 4026 768 3722 509 
Q 3418 250 2995 125 
Q 2573 0 2054 0 
z
M 1818 243 
Q 2400 243 2816 400 
Q 3232 557 3456 953 
Q 3680 1350 3680 2067 
Q 3680 2982 3213 3462 
Q 2746 3942 1754 3942 
Q 1677 3942 1603 3942 
Q 1530 3942 1440 3930 
L 1440 262 
Q 1536 256 1629 249 
Q 1722 243 1818 243 
z
" transform="scale(0.015625)"/>
      <path id="STIXTwoText-10d" d="M 3552 0 
L 2074 0 
L 2074 179 
Q 2304 179 2403 220 
Q 2502 262 2524 364 
Q 2547 467 2547 646 
L 2547 1805 
Q 2547 2189 2460 2381 
Q 2374 2573 2240 2633 
Q 2106 2694 1958 2694 
Q 1773 2694 1625 2620 
Q 1478 2547 1360 2444 
Q 1242 2342 1139 2253 
L 1094 2566 
L 1190 2566 
Q 1453 2797 1686 2950 
Q 1920 3104 2221 3104 
Q 2656 3104 2867 2809 
Q 3078 2515 3078 1965 
L 3078 646 
Q 3078 467 3107 364 
Q 3136 262 3238 220 
Q 3341 179 3552 179 
L 3552 0 
z
M 1670 0 
L 205 0 
L 205 179 
Q 422 179 515 220 
Q 608 262 630 364 
Q 653 467 653 646 
L 653 2445 
Q 653 2618 582 2672 
Q 512 2726 384 2726 
Q 301 2726 256 2720 
Q 211 2714 211 2714 
L 211 2899 
L 1024 3085 
L 1171 3085 
L 1165 2496 
L 1184 2362 
L 1184 646 
Q 1184 467 1209 364 
Q 1235 262 1337 220 
Q 1440 179 1670 179 
L 1670 0 
z
" transform="scale(0.015625)"/>
     </defs>
     <use xlink:href="#STIXTwoText-6"/>
     <use xlink:href="#STIXTwoText-103" transform="translate(73 0)"/>
     <use xlink:href="#STIXTwoText-10d" transform="translate(119.40625 0)"/>
     <use xlink:href="#STIXTwoText-112" transform="translate(177 0)"/>
     <use xlink:href="#STIXTwoText-103" transform="translate(216.5 0)"/>
     <use xlink:href="#STIXTwoText-73c" transform="translate(264.40625 0)"/>
     <use xlink:href="#STIXTwoText-78b" transform="translate(295.90625 0)"/>
     <use xlink:href="#STIXTwoText-787" transform="translate(345.40625 0)"/>
     <use xlink:href="#STIXTwoText-78b" transform="translate(394.90625 0)"/>
    </g>
    <!-- 141 m/s -->
    <g style="fill: #4878cf" transform="translate(82.832465 144.632064) scale(0.08 -0.08)">
     <use xlink:href="#STIXTwoText-787"/>
     <use xlink:href="#STIXTwoText-78a" transform="translate(49.5 0)"/>
     <use xlink:href="#STIXTwoText-787" transform="translate(99 0)"/>
     <use xlink:href="#STIXTwoText-1" transform="translate(148.5 0)"/>
     <use xlink:href="#STIXTwoText-10c" transform="translate(172 0)"/>
     <use xlink:href="#STIXTwoText-72d" transform="translate(257.203125 0)"/>
     <use xlink:href="#STIXTwoText-112" transform="translate(295.90625 0)"/>
    </g>
   </g>
   <g id="text_14">
    <!-- joint-FTC -->
    <g style="fill: #d1701f" transform="translate(54.497491 37.321777) scale(0.08 -0.08)">
     <defs>
      <path id="STIXTwoText-109" d="M 70 -1504 
Q -243 -1504 -425 -1379 
Q -608 -1254 -608 -1043 
Q -608 -922 -531 -848 
Q -454 -774 -326 -774 
Q -211 -774 -137 -841 
Q -64 -909 -6 -998 
Q 51 -1088 121 -1155 
Q 192 -1222 301 -1222 
Q 538 -1222 589 -969 
Q 640 -717 640 -205 
L 640 2387 
Q 640 2598 585 2665 
Q 531 2733 358 2733 
Q 282 2733 224 2723 
Q 166 2714 166 2714 
L 166 2906 
L 998 3085 
L 1171 3085 
L 1171 -13 
Q 1171 -518 1052 -848 
Q 934 -1178 691 -1341 
Q 448 -1504 70 -1504 
z
M 890 3584 
Q 730 3584 624 3693 
Q 518 3802 518 3949 
Q 518 4096 617 4201 
Q 717 4307 890 4307 
Q 1056 4307 1161 4201 
Q 1267 4096 1267 3949 
Q 1267 3802 1161 3693 
Q 1056 3584 890 3584 
z
" transform="scale(0.015625)"/>
      <path id="STIXTwoText-8" d="M 2106 0 
L 230 0 
L 230 192 
Q 493 192 624 230 
Q 755 269 803 387 
Q 851 506 851 742 
L 851 3482 
Q 851 3706 793 3818 
Q 736 3930 598 3971 
Q 461 4013 230 4013 
L 230 4205 
L 3635 4205 
L 3674 3155 
L 3469 3155 
Q 3424 3386 3376 3533 
Q 3328 3680 3232 3763 
Q 3136 3846 2953 3881 
Q 2771 3917 2458 3917 
L 1440 3917 
L 1440 2298 
L 2195 2298 
Q 2470 2298 2617 2349 
Q 2765 2400 2819 2537 
Q 2874 2675 2874 2931 
L 3091 2931 
L 3091 1446 
L 2874 1446 
Q 2874 1709 2819 1837 
Q 2765 1965 2617 2006 
Q 2470 2048 2195 2048 
L 1440 2048 
L 1440 704 
Q 1440 486 1501 377 
Q 1562 269 1709 230 
Q 1856 192 2106 192 
L 2106 0 
z
" transform="scale(0.015625)"/>
      <path id="STIXTwoText-16" d="M 2861 0 
L 1005 0 
L 1005 192 
Q 1274 192 1408 233 
Q 1542 275 1587 412 
Q 1632 550 1632 838 
L 1632 3917 
L 1222 3917 
Q 870 3917 694 3846 
Q 518 3776 441 3590 
Q 365 3405 294 3053 
L 96 3053 
L 166 4205 
L 3706 4205 
L 3757 3053 
L 3558 3053 
Q 3488 3405 3411 3590 
Q 3334 3776 3161 3846 
Q 2989 3917 2630 3917 
L 2227 3917 
L 2227 838 
Q 2227 550 2272 412 
Q 2317 275 2451 233 
Q 2586 192 2861 192 
L 2861 0 
z
" transform="scale(0.015625)"/>
     </defs>
     <use xlink:href="#STIXTwoText-109"/>
     <use xlink:href="#STIXTwoText-10e" transform="translate(26.296875 0)"/>
     <use xlink:href="#STIXTwoText-107" transform="translate(77.703125 0)"/>
     <use xlink:href="#STIXTwoText-10d" transform="translate(106.203125 0)"/>
     <use xlink:href="#STIXTwoText-113" transform="translate(163.796875 0)"/>
     <use xlink:href="#STIXTwoText-73c" transform="translate(192.796875 0)"/>
     <use xlink:href="#STIXTwoText-8" transform="translate(224.296875 0)"/>
     <use xlink:href="#STIXTwoText-16" transform="translate(283.09375 0)"/>
     <use xlink:href="#STIXTwoText-5" transform="translate(342.390625 0)"/>
    </g>
    <!-- 165 m/s -->
    <g style="fill: #d1701f" transform="translate(54.497491 47.321777) scale(0.08 -0.08)">
     <use xlink:href="#STIXTwoText-787"/>
     <use xlink:href="#STIXTwoText-78c" transform="translate(49.5 0)"/>
     <use xlink:href="#STIXTwoText-78b" transform="translate(99 0)"/>
     <use xlink:href="#STIXTwoText-1" transform="translate(148.5 0)"/>
     <use xlink:href="#STIXTwoText-10c" transform="translate(172 0)"/>
     <use xlink:href="#STIXTwoText-72d" transform="translate(257.203125 0)"/>
     <use xlink:href="#STIXTwoText-112" transform="translate(295.90625 0)"/>
    </g>
   </g>
   <g id="text_15">
    <!-- better -->
    <g style="fill: #555555" transform="translate(51.0033 172.0551) scale(0.08 -0.08)">
     <defs>
      <path id="STIXTwoText-Italic-100" d="M 1242 -77 
Q 698 -77 230 160 
L 986 3878 
Q 992 3898 1001 3971 
Q 1011 4045 1011 4102 
Q 1011 4211 944 4249 
Q 877 4288 781 4288 
Q 730 4288 659 4281 
Q 589 4275 589 4275 
L 589 4442 
L 1472 4512 
L 1613 4512 
L 1203 2573 
L 1235 2573 
Q 1370 2726 1504 2838 
Q 1638 2950 1785 3008 
Q 1933 3066 2093 3066 
Q 2458 3066 2710 2794 
Q 2963 2522 2963 1946 
Q 2963 1555 2848 1190 
Q 2733 826 2515 541 
Q 2298 256 1978 89 
Q 1658 -77 1242 -77 
z
M 1325 192 
Q 1690 192 1930 422 
Q 2170 653 2285 1043 
Q 2400 1434 2400 1920 
Q 2400 2355 2253 2531 
Q 2106 2707 1901 2707 
Q 1709 2707 1552 2598 
Q 1395 2490 1286 2333 
Q 1178 2176 1114 2022 
L 800 422 
Q 864 365 998 278 
Q 1133 192 1325 192 
z
" transform="scale(0.015625)"/>
      <path id="STIXTwoText-Italic-103" d="M 1146 -77 
Q 794 -77 589 86 
Q 384 250 294 506 
Q 205 762 205 1043 
Q 205 1389 320 1744 
Q 435 2099 652 2400 
Q 870 2701 1180 2883 
Q 1491 3066 1882 3066 
Q 2022 3066 2179 3027 
Q 2336 2989 2451 2864 
Q 2566 2739 2566 2490 
Q 2566 2182 2384 1961 
Q 2202 1741 1914 1600 
Q 1626 1459 1302 1385 
Q 979 1312 698 1293 
L 698 1478 
Q 1069 1491 1366 1619 
Q 1664 1747 1840 1974 
Q 2016 2202 2016 2515 
Q 2016 2688 1955 2777 
Q 1894 2867 1747 2867 
Q 1536 2867 1353 2697 
Q 1171 2528 1033 2269 
Q 896 2010 819 1725 
Q 742 1440 742 1210 
Q 742 723 912 544 
Q 1082 365 1402 365 
Q 1645 365 1862 457 
Q 2080 550 2266 781 
L 2381 685 
Q 2093 256 1773 89 
Q 1453 -77 1146 -77 
z
" transform="scale(0.015625)"/>
      <path id="STIXTwoText-Italic-113" d="M 736 -58 
Q 538 -58 442 38 
Q 346 134 346 282 
Q 346 365 365 483 
Q 384 602 390 646 
L 826 2739 
L 461 2739 
L 486 2874 
Q 691 2982 828 3084 
Q 966 3187 1091 3353 
Q 1216 3520 1376 3795 
L 1568 3795 
L 960 832 
Q 960 832 937 713 
Q 915 595 915 512 
Q 915 461 937 419 
Q 960 378 1024 378 
Q 1165 378 1283 461 
Q 1402 544 1568 762 
L 1696 666 
Q 1606 544 1478 371 
Q 1350 198 1171 70 
Q 992 -58 736 -58 
z
M 1984 2739 
L 1274 2739 
L 1325 2989 
L 2035 2989 
L 1984 2739 
z
" transform="scale(0.015625)"/>
      <path id="STIXTwoText-Italic-111" d="M 922 576 
L 1171 1594 
Q 1229 1709 1312 1891 
Q 1395 2074 1500 2275 
Q 1606 2477 1731 2659 
Q 1856 2842 2003 2954 
Q 2150 3066 2310 3066 
Q 2458 3066 2560 2973 
Q 2662 2880 2662 2694 
Q 2662 2483 2556 2387 
Q 2451 2291 2323 2291 
Q 2221 2291 2160 2352 
Q 2099 2413 2073 2470 
Q 2048 2528 2035 2528 
Q 1939 2528 1811 2371 
Q 1683 2214 1548 1968 
Q 1414 1722 1289 1450 
Q 1165 1178 1069 941 
Q 973 704 922 576 
z
M 858 0 
L 314 0 
L 787 2227 
Q 806 2317 825 2429 
Q 845 2541 845 2624 
Q 845 2714 806 2765 
Q 768 2816 634 2816 
Q 582 2816 508 2809 
Q 435 2803 435 2803 
L 435 2976 
L 1325 3046 
L 1466 3046 
L 1139 1658 
L 1216 1658 
L 858 0 
z
" transform="scale(0.015625)"/>
     </defs>
     <use xlink:href="#STIXTwoText-Italic-100"/>
     <use xlink:href="#STIXTwoText-Italic-103" transform="translate(49.5 0)"/>
     <use xlink:href="#STIXTwoText-Italic-113" transform="translate(90.703125 0)"/>
     <use xlink:href="#STIXTwoText-Italic-113" transform="translate(119 0)"/>
     <use xlink:href="#STIXTwoText-Italic-103" transform="translate(148.796875 0)"/>
     <use xlink:href="#STIXTwoText-Italic-111" transform="translate(190 0)"/>
    </g>
    <!-- (cheap + tight tail) -->
    <g style="fill: #555555" transform="translate(51.0033 182.0551) scale(0.08 -0.08)">
     <defs>
      <path id="STIXTwoText-Italic-73c" d="M 1478 -1011 
L 1370 -1158 
Q 1011 -947 739 -620 
Q 467 -294 320 134 
Q 173 563 173 1082 
Q 173 1702 349 2249 
Q 525 2797 851 3254 
Q 1178 3712 1619 4070 
Q 2061 4429 2586 4672 
L 2669 4512 
Q 2266 4282 1907 3958 
Q 1549 3635 1267 3209 
Q 986 2784 826 2227 
Q 666 1670 666 966 
Q 666 531 752 163 
Q 838 -205 1017 -499 
Q 1197 -794 1478 -1011 
z
" transform="scale(0.015625)"/>
      <path id="STIXTwoText-Italic-101" d="M 1171 -83 
Q 858 -83 646 61 
Q 435 205 326 461 
Q 218 717 218 1069 
Q 218 1478 349 1840 
Q 480 2202 707 2477 
Q 934 2752 1235 2909 
Q 1536 3066 1869 3066 
Q 2170 3066 2381 2925 
Q 2592 2784 2592 2470 
Q 2592 2278 2502 2144 
Q 2413 2010 2234 2010 
Q 2118 2010 2054 2070 
Q 1990 2131 1990 2234 
Q 1990 2362 2051 2483 
Q 2112 2605 2112 2682 
Q 2112 2752 2032 2803 
Q 1952 2854 1805 2854 
Q 1549 2854 1353 2700 
Q 1158 2547 1024 2294 
Q 890 2042 819 1747 
Q 749 1453 749 1171 
Q 749 890 822 710 
Q 896 531 1049 448 
Q 1203 365 1440 365 
Q 1754 365 1955 486 
Q 2157 608 2298 787 
L 2406 691 
Q 2278 493 2099 317 
Q 1920 141 1689 29 
Q 1459 -83 1171 -83 
z
" transform="scale(0.015625)"/>
      <path id="STIXTwoText-Italic-106" d="M 2458 -64 
Q 2298 -64 2208 -9 
Q 2118 45 2080 131 
Q 2042 218 2042 314 
Q 2042 390 2054 464 
Q 2067 538 2074 563 
L 2451 2042 
Q 2451 2042 2473 2147 
Q 2496 2253 2496 2349 
Q 2496 2458 2457 2531 
Q 2419 2605 2310 2605 
Q 2170 2605 2000 2473 
Q 1830 2342 1657 2137 
Q 1485 1933 1334 1702 
Q 1184 1472 1072 1270 
Q 960 1069 915 954 
L 1024 1594 
Q 1114 1766 1267 2012 
Q 1421 2259 1629 2499 
Q 1837 2739 2089 2902 
Q 2342 3066 2630 3066 
Q 2790 3066 2880 3002 
Q 2970 2938 3008 2832 
Q 3046 2726 3046 2611 
Q 3046 2490 3024 2349 
Q 3002 2208 2989 2138 
L 2630 659 
Q 2630 659 2617 611 
Q 2605 563 2605 506 
Q 2605 384 2726 384 
Q 2899 384 3017 505 
Q 3136 627 3206 717 
L 3341 621 
Q 3258 506 3139 342 
Q 3021 179 2854 57 
Q 2688 -64 2458 -64 
z
M 723 0 
L 198 0 
L 998 3904 
Q 998 3904 1008 3977 
Q 1018 4051 1018 4122 
Q 1018 4192 963 4240 
Q 909 4288 813 4288 
Q 749 4288 672 4281 
Q 595 4275 595 4275 
L 595 4442 
L 1472 4512 
L 1619 4512 
L 1165 2413 
L 1005 1658 
L 1082 1658 
L 723 0 
z
" transform="scale(0.015625)"/>
      <path id="STIXTwoText-Italic-ff" d="M 979 -77 
Q 762 -77 586 35 
Q 410 147 304 384 
Q 198 621 198 998 
Q 198 1427 332 1801 
Q 467 2176 694 2461 
Q 922 2746 1210 2906 
Q 1498 3066 1805 3066 
Q 2048 3066 2195 2970 
Q 2342 2874 2445 2726 
L 2470 2726 
L 2694 3021 
L 3021 3021 
L 2547 755 
Q 2547 755 2531 672 
Q 2515 589 2515 518 
Q 2515 454 2540 419 
Q 2566 384 2637 384 
Q 2739 384 2828 445 
Q 2918 506 2992 586 
Q 3066 666 3104 717 
L 3232 621 
Q 3110 435 2976 278 
Q 2842 122 2682 29 
Q 2522 -64 2323 -64 
Q 2157 -64 2067 9 
Q 1978 83 1978 237 
Q 1978 307 1994 387 
Q 2010 467 2016 544 
L 1978 544 
Q 1741 237 1491 80 
Q 1242 -77 979 -77 
z
M 1210 346 
Q 1408 346 1587 451 
Q 1766 557 1904 739 
Q 2042 922 2099 1152 
Q 2131 1280 2179 1488 
Q 2227 1696 2262 1904 
Q 2298 2112 2298 2234 
Q 2298 2451 2163 2636 
Q 2029 2822 1766 2822 
Q 1549 2822 1363 2675 
Q 1178 2528 1043 2278 
Q 909 2029 835 1718 
Q 762 1408 762 1082 
Q 762 653 886 499 
Q 1011 346 1210 346 
z
" transform="scale(0.015625)"/>
      <path id="STIXTwoText-Italic-10f" d="M 1440 -70 
Q 1274 -70 1085 -3 
Q 896 64 819 128 
L 902 448 
Q 979 371 1123 288 
Q 1267 205 1485 205 
Q 1811 205 2054 409 
Q 2298 614 2429 1008 
Q 2560 1402 2560 1965 
Q 2560 2272 2477 2432 
Q 2394 2592 2278 2649 
Q 2163 2707 2074 2707 
Q 1862 2707 1702 2588 
Q 1542 2470 1427 2284 
Q 1312 2099 1222 1888 
L 1293 2438 
Q 1459 2643 1612 2784 
Q 1766 2925 1926 2995 
Q 2086 3066 2259 3066 
Q 2502 3066 2697 2944 
Q 2893 2822 3008 2579 
Q 3123 2336 3123 1965 
Q 3123 1363 2902 905 
Q 2682 448 2304 189 
Q 1926 -70 1440 -70 
z
M 1286 -1408 
L 32 -1408 
L 832 2483 
Q 838 2515 841 2544 
Q 845 2573 845 2605 
Q 845 2701 790 2745 
Q 736 2790 608 2790 
Q 538 2790 470 2784 
Q 403 2778 403 2778 
L 403 2938 
L 1318 3034 
L 1440 3034 
L 1350 2541 
L 1376 2541 
L 710 -646 
Q 704 -691 694 -768 
Q 685 -845 685 -915 
Q 685 -1024 816 -1129 
Q 947 -1235 1331 -1235 
L 1286 -1408 
z
" transform="scale(0.015625)"/>
      <path id="STIXTwoText-Italic-1" transform="scale(0.015625)"/>
      <path id="STIXTwoText-Italic-826" d="M 2534 -262 
L 2074 -262 
L 2074 1434 
L 397 1434 
L 397 1869 
L 2074 1869 
L 2074 3565 
L 2534 3565 
L 2534 1869 
L 4211 1869 
L 4211 1434 
L 2534 1434 
L 2534 -262 
z
" transform="scale(0.015625)"/>
      <path id="STIXTwoText-Italic-107" d="M 736 -58 
Q 544 -58 438 28 
Q 333 115 333 282 
Q 333 365 355 496 
Q 378 627 442 909 
L 768 2432 
Q 768 2432 777 2489 
Q 787 2547 787 2630 
Q 787 2694 748 2755 
Q 710 2816 582 2816 
Q 499 2816 432 2809 
Q 365 2803 365 2803 
L 365 2976 
L 1261 3046 
L 1402 3046 
L 922 768 
Q 922 768 906 669 
Q 890 570 890 499 
Q 890 378 1005 378 
Q 1171 378 1299 502 
Q 1427 627 1504 710 
L 1632 614 
Q 1523 461 1395 304 
Q 1267 147 1107 44 
Q 947 -58 736 -58 
z
M 1203 3558 
Q 1062 3558 966 3648 
Q 870 3738 870 3904 
Q 870 4070 966 4163 
Q 1062 4256 1222 4256 
Q 1382 4256 1468 4160 
Q 1555 4064 1555 3904 
Q 1555 3744 1452 3651 
Q 1350 3558 1203 3558 
z
" transform="scale(0.015625)"/>
      <path id="STIXTwoText-Italic-105" d="M 1133 -1440 
Q 659 -1440 368 -1341 
Q 77 -1242 -51 -1059 
Q -179 -877 -179 -640 
Q -179 -442 -60 -294 
Q 58 -147 243 -48 
Q 429 51 627 102 
L 768 38 
Q 608 -58 464 -192 
Q 320 -326 320 -595 
Q 320 -768 413 -909 
Q 506 -1050 694 -1133 
Q 883 -1216 1178 -1216 
Q 1645 -1216 1862 -1081 
Q 2080 -947 2080 -717 
Q 2080 -544 1939 -419 
Q 1798 -294 1571 -208 
Q 1344 -122 1085 -58 
Q 826 6 589 51 
L 589 115 
Q 506 166 435 259 
Q 365 352 365 493 
Q 365 704 515 845 
Q 666 986 858 1062 
L 858 1101 
Q 730 1158 598 1260 
Q 467 1363 384 1532 
Q 301 1702 301 1965 
Q 301 2285 461 2534 
Q 621 2784 896 2925 
Q 1171 3066 1517 3066 
Q 1741 3066 1875 3040 
Q 2010 3014 2112 2976 
Q 2214 2938 2336 2893 
L 2336 2707 
Q 2413 2618 2489 2442 
Q 2566 2266 2566 2042 
Q 2566 1766 2419 1536 
Q 2272 1306 1984 1162 
Q 1696 1018 1280 998 
Q 1069 992 969 883 
Q 870 774 870 659 
Q 870 563 992 505 
Q 1114 448 1302 403 
Q 1491 358 1705 304 
Q 1920 250 2109 157 
Q 2298 64 2419 -86 
Q 2541 -237 2541 -474 
Q 2541 -890 2185 -1165 
Q 1830 -1440 1133 -1440 
z
M 1350 1197 
Q 1574 1197 1715 1321 
Q 1856 1446 1926 1657 
Q 1997 1869 1997 2138 
Q 1997 2445 1875 2659 
Q 1754 2874 1504 2874 
Q 1229 2874 1049 2643 
Q 870 2413 870 2016 
Q 870 1626 976 1411 
Q 1082 1197 1350 1197 
z
M 2931 2989 
L 2893 2662 
L 2246 2739 
L 1984 2989 
L 2931 2989 
z
" transform="scale(0.015625)"/>
      <path id="STIXTwoText-Italic-10b" d="M 698 -58 
Q 506 -58 400 28 
Q 294 115 294 282 
Q 294 410 326 605 
Q 358 800 384 922 
L 1005 3891 
Q 1005 3891 1014 3955 
Q 1024 4019 1024 4096 
Q 1024 4160 989 4224 
Q 954 4288 826 4288 
Q 742 4288 675 4281 
Q 608 4275 608 4275 
L 608 4442 
L 1491 4512 
L 1632 4512 
L 890 768 
Q 877 691 867 611 
Q 858 531 858 499 
Q 858 435 890 406 
Q 922 378 979 378 
Q 1146 378 1267 502 
Q 1389 627 1466 710 
L 1594 614 
Q 1485 461 1357 304 
Q 1229 147 1069 44 
Q 909 -58 698 -58 
z
" transform="scale(0.015625)"/>
      <path id="STIXTwoText-Italic-73d" d="M -339 -1158 
L -422 -998 
Q -19 -768 339 -445 
Q 698 -122 979 304 
Q 1261 730 1421 1286 
Q 1581 1843 1581 2547 
Q 1581 2982 1494 3350 
Q 1408 3718 1229 4012 
Q 1050 4307 768 4525 
L 877 4672 
Q 1242 4461 1510 4134 
Q 1779 3808 1926 3379 
Q 2074 2950 2074 2432 
Q 2074 1811 1898 1264 
Q 1722 717 1395 259 
Q 1069 -198 630 -556 
Q 192 -915 -339 -1158 
z
" transform="scale(0.015625)"/>
     </defs>
     <use xlink:href="#STIXTwoText-Italic-73c"/>
     <use xlink:href="#STIXTwoText-Italic-101" transform="translate(34 0)"/>
     <use xlink:href="#STIXTwoText-Italic-106" transform="translate(74.796875 0)"/>
     <use xlink:href="#STIXTwoText-Italic-103" transform="translate(129.703125 0)"/>
     <use xlink:href="#STIXTwoText-Italic-ff" transform="translate(170.90625 0)"/>
     <use xlink:href="#STIXTwoText-Italic-10f" transform="translate(224.3125 0)"/>
     <use xlink:href="#STIXTwoText-Italic-1" transform="translate(276.40625 0)"/>
     <use xlink:href="#STIXTwoText-Italic-826" transform="translate(298.90625 0)"/>
     <use xlink:href="#STIXTwoText-Italic-1" transform="translate(370.90625 0)"/>
     <use xlink:href="#STIXTwoText-Italic-113" transform="translate(393.40625 0)"/>
     <use xlink:href="#STIXTwoText-Italic-107" transform="translate(423.203125 0)"/>
     <use xlink:href="#STIXTwoText-Italic-105" transform="translate(451.109375 0)"/>
     <use xlink:href="#STIXTwoText-Italic-106" transform="translate(496.203125 0)"/>
     <use xlink:href="#STIXTwoText-Italic-113" transform="translate(551.109375 0)"/>
     <use xlink:href="#STIXTwoText-Italic-1" transform="translate(580.90625 0)"/>
     <use xlink:href="#STIXTwoText-Italic-113" transform="translate(603.40625 0)"/>
     <use xlink:href="#STIXTwoText-Italic-ff" transform="translate(633.203125 0)"/>
     <use xlink:href="#STIXTwoText-Italic-107" transform="translate(686.609375 0)"/>
     <use xlink:href="#STIXTwoText-Italic-10b" transform="translate(714.515625 0)"/>
     <use xlink:href="#STIXTwoText-Italic-73d" transform="translate(741.8125 0)"/>
    </g>
   </g>
   <g id="text_16">
    <!-- Deployability: tail vs compute -->
    <g style="fill: #262626" transform="translate(42.8225 14.82) scale(0.1 -0.1)">
     <defs>
      <path id="STIXTwoText-118" d="M 493 -1504 
Q 294 -1504 166 -1427 
Q 38 -1350 38 -1171 
Q 38 -1024 124 -960 
Q 211 -896 333 -896 
Q 499 -896 630 -966 
Q 762 -1037 826 -1037 
Q 915 -1037 1017 -899 
Q 1120 -762 1219 -570 
Q 1318 -378 1379 -208 
Q 1440 -38 1440 32 
Q 1440 96 1373 262 
Q 1306 429 1248 557 
L 307 2611 
Q 262 2720 179 2781 
Q 96 2842 -77 2842 
L -77 3027 
L 1293 3027 
L 1293 2835 
Q 1075 2835 1001 2793 
Q 928 2752 928 2669 
Q 928 2605 960 2531 
Q 992 2458 1018 2387 
L 1645 979 
L 1728 666 
L 1773 666 
L 2394 2522 
Q 2406 2554 2416 2602 
Q 2426 2650 2426 2682 
Q 2426 2778 2326 2810 
Q 2227 2842 2067 2842 
L 2067 3027 
L 3155 3027 
L 3155 2842 
Q 2963 2842 2873 2755 
Q 2784 2669 2714 2483 
L 1715 -141 
Q 1530 -627 1354 -928 
Q 1178 -1229 973 -1366 
Q 768 -1504 493 -1504 
z
" transform="scale(0.015625)"/>
      <path id="STIXTwoText-724" d="M 838 -51 
Q 646 -51 553 57 
Q 461 166 461 326 
Q 461 493 563 611 
Q 666 730 845 730 
Q 1030 730 1132 608 
Q 1235 486 1235 320 
Q 1235 173 1132 61 
Q 1030 -51 838 -51 
z
M 838 2279 
Q 646 2279 553 2387 
Q 461 2496 461 2656 
Q 461 2823 563 2941 
Q 666 3060 845 3060 
Q 1030 3060 1132 2938 
Q 1235 2816 1235 2650 
Q 1235 2503 1132 2391 
Q 1030 2279 838 2279 
z
" transform="scale(0.015625)"/>
      <path id="STIXTwoText-115" d="M 1696 -38 
L 1389 -38 
L 435 2374 
Q 352 2573 288 2672 
Q 224 2771 141 2806 
Q 58 2842 -83 2842 
L -83 3027 
L 1267 3027 
L 1267 2842 
Q 1082 2842 1008 2800 
Q 934 2758 934 2682 
Q 934 2618 953 2560 
Q 973 2502 998 2432 
L 1542 1005 
L 1664 621 
L 1702 621 
L 1837 1011 
L 2387 2458 
Q 2394 2483 2413 2537 
Q 2432 2592 2432 2669 
Q 2432 2778 2336 2810 
Q 2240 2842 2067 2842 
L 2067 3027 
L 3187 3027 
L 3187 2842 
Q 3002 2842 2902 2755 
Q 2803 2669 2707 2419 
L 1696 -38 
z
" transform="scale(0.015625)"/>
     </defs>
     <use xlink:href="#STIXTwoText-6"/>
     <use xlink:href="#STIXTwoText-103" transform="translate(73 0)"/>
     <use xlink:href="#STIXTwoText-10f" transform="translate(119.40625 0)"/>
     <use xlink:href="#STIXTwoText-10b" transform="translate(173.109375 0)"/>
     <use xlink:href="#STIXTwoText-10e" transform="translate(201.40625 0)"/>
     <use xlink:href="#STIXTwoText-118" transform="translate(252.8125 0)"/>
     <use xlink:href="#STIXTwoText-ff" transform="translate(299.609375 0)"/>
     <use xlink:href="#STIXTwoText-100" transform="translate(347.609375 0)"/>
     <use xlink:href="#STIXTwoText-107" transform="translate(399.8125 0)"/>
     <use xlink:href="#STIXTwoText-10b" transform="translate(428.3125 0)"/>
     <use xlink:href="#STIXTwoText-107" transform="translate(456.609375 0)"/>
     <use xlink:href="#STIXTwoText-113" transform="translate(485.109375 0)"/>
     <use xlink:href="#STIXTwoText-118" transform="translate(516.609375 0)"/>
     <use xlink:href="#STIXTwoText-724" transform="translate(564.90625 0)"/>
     <use xlink:href="#STIXTwoText-1" transform="translate(589.40625 0)"/>
     <use xlink:href="#STIXTwoText-113" transform="translate(612.90625 0)"/>
     <use xlink:href="#STIXTwoText-ff" transform="translate(644.40625 0)"/>
     <use xlink:href="#STIXTwoText-107" transform="translate(692.40625 0)"/>
     <use xlink:href="#STIXTwoText-10b" transform="translate(720.90625 0)"/>
     <use xlink:href="#STIXTwoText-1" transform="translate(749.203125 0)"/>
     <use xlink:href="#STIXTwoText-115" transform="translate(772.703125 0)"/>
     <use xlink:href="#STIXTwoText-112" transform="translate(820.796875 0)"/>
     <use xlink:href="#STIXTwoText-1" transform="translate(860.296875 0)"/>
     <use xlink:href="#STIXTwoText-101" transform="translate(883.796875 0)"/>
     <use xlink:href="#STIXTwoText-10e" transform="translate(928.390625 0)"/>
     <use xlink:href="#STIXTwoText-10c" transform="translate(979.796875 0)"/>
     <use xlink:href="#STIXTwoText-10f" transform="translate(1065 0)"/>
     <use xlink:href="#STIXTwoText-114" transform="translate(1118.703125 0)"/>
     <use xlink:href="#STIXTwoText-113" transform="translate(1175.703125 0)"/>
     <use xlink:href="#STIXTwoText-103" transform="translate(1206.703125 0)"/>
    </g>
   </g>
   <g id="PathCollection_1">
    <defs>
     <path id="m7205789534" d="M 0 4.743416 
C 1.257969 4.743416 2.464584 4.24362 3.354102 3.354102 
C 4.24362 2.464584 4.743416 1.257969 4.743416 0 
C 4.743416 -1.257969 4.24362 -2.464584 3.354102 -3.354102 
C 2.464584 -4.24362 1.257969 -4.743416 0 -4.743416 
C -1.257969 -4.743416 -2.464584 -4.24362 -3.354102 -3.354102 
C -4.24362 -2.464584 -4.743416 -1.257969 -4.743416 0 
C -4.743416 1.257969 -4.24362 2.464584 -3.354102 3.354102 
C -2.464584 4.24362 -1.257969 4.743416 0 4.743416 
z
" style="stroke: #ffffff"/>
    </defs>
    <g clip-path="url(#pe4d3669f83)">
     <use xlink:href="#m7205789534" x="95.567221" y="164.847375" style="fill: #1f6f3f; stroke: #ffffff"/>
    </g>
   </g>
   <g id="PathCollection_2">
    <defs>
     <path id="m106820b41b" d="M 0 4.743416 
C 1.257969 4.743416 2.464584 4.24362 3.354102 3.354102 
C 4.24362 2.464584 4.743416 1.257969 4.743416 0 
C 4.743416 -1.257969 4.24362 -2.464584 3.354102 -3.354102 
C 2.464584 -4.24362 1.257969 -4.743416 0 -4.743416 
C -1.257969 -4.743416 -2.464584 -4.24362 -3.354102 -3.354102 
C -4.24362 -2.464584 -4.743416 -1.257969 -4.743416 0 
C -4.743416 1.257969 -4.24362 2.464584 -3.354102 3.354102 
C -2.464584 4.24362 -1.257969 4.743416 0 4.743416 
z
" style="stroke: #ffffff"/>
    </defs>
    <g clip-path="url(#pe4d3669f83)">
     <use xlink:href="#m106820b41b" x="75.832465" y="123.536064" style="fill: #4878cf; stroke: #ffffff"/>
    </g>
   </g>
   <g id="PathCollection_3">
    <defs>
     <path id="mec6b40cfc2" d="M 0 4.743416 
C 1.257969 4.743416 2.464584 4.24362 3.354102 3.354102 
C 4.24362 2.464584 4.743416 1.257969 4.743416 0 
C 4.743416 -1.257969 4.24362 -2.464584 3.354102 -3.354102 
C 2.464584 -4.24362 1.257969 -4.743416 0 -4.743416 
C -1.257969 -4.743416 -2.464584 -4.24362 -3.354102 -3.354102 
C -4.24362 -2.464584 -4.743416 -1.257969 -4.743416 0 
C -4.743416 1.257969 -4.24362 2.464584 -3.354102 3.354102 
C -2.464584 4.24362 -1.257969 4.743416 0 4.743416 
z
" style="stroke: #ffffff"/>
    </defs>
    <g clip-path="url(#pe4d3669f83)">
     <use xlink:href="#mec6b40cfc2" x="47.497491" y="56.225777" style="fill: #d1701f; stroke: #ffffff"/>
    </g>
   </g>
   <g id="PathCollection_4">
    <defs>
     <path id="m80cddb6e12" d="M 0 4.743416 
C 1.257969 4.743416 2.464584 4.24362 3.354102 3.354102 
C 4.24362 2.464584 4.743416 1.257969 4.743416 0 
C 4.743416 -1.257969 4.24362 -2.464584 3.354102 -3.354102 
C 2.464584 -4.24362 1.257969 -4.743416 0 -4.743416 
C -1.257969 -4.743416 -2.464584 -4.24362 -3.354102 -3.354102 
C -4.24362 -2.464584 -4.743416 -1.257969 -4.743416 0 
C -4.743416 1.257969 -4.24362 2.464584 -3.354102 3.354102 
C -2.464584 4.24362 -1.257969 4.743416 0 4.743416 
z
" style="stroke: #ffffff"/>
    </defs>
    <g clip-path="url(#pe4d3669f83)"/>
   </g>
  </g>
 </g>
 <defs>
  <clipPath id="pe4d3669f83">
   <rect x="42.8225" y="20.82" width="204.52" height="172.778"/>
  </clipPath>
 </defs>
</svg>
