<?xml version="1.0" encoding="utf-8" standalone="no"?>
<!DOCTYPE svg PUBLIC "-//W3C//DTD SVG 1.1//EN"
  "http://www.w3.org/Graphics/SVG/1.1/DTD/svg11.dtd">
<svg xmlns:xlink="http://www.w3.org/1999/xlink" width="520.638061pt" height="247.59pt" viewBox="0 0 520.638061 247.59" xmlns="http://www.w3.org/2000/svg" version="1.1">
 <metadata>
  <rdf:RDF xmlns:dc="http://purl.org/dc/elements/1.1/" xmlns:cc="http://creativecommons.org/ns#" xmlns:rdf="http://www.w3.org/1999/02/22-rdf-syntax-ns#">
   <cc:Work>
    <dc:type rdf:resource="http://purl.org/dc/dcmitype/StillImage"/>
    <dc:date>2026-07-10T14:46:47.411303</dc:date>
    <dc:format>image/svg+xml</dc:format>
    <dc:creator>
     <cc:Agent>
      <dc:title>Matplotlib v3.11.0, https://matplotlib.org/</dc:title>
     </cc:Agent>
    </dc:creator>
   </cc:Work>
  </rdf:RDF>
 </metadata>
 <defs>
  <style type="text/css">*{stroke-linejoin: round; stroke-linecap: butt}</style>
 </defs>
 <g id="figure_1">
  <g id="patch_1">
   <path d="M 0 247.59 
L 520.638061 247.59 
L 520.638061 0 
L 0 0 
z
" style="fill: #ffffff"/>
  </g>
  <g id="axes_1">
   <g id="patch_2">
    <path d="M 42.8225 207.579 
L 508.016145 207.579 
L 508.016145 20.82 
L 42.8225 20.82 
z
" style="fill: #f5f5f5"/>
   </g>
   <g id="matplotlib.axis_1">
    <g id="xtick_1">
     <g id="line2d_1">
      <path d="M 111.53947 207.579 
L 111.53947 20.82 
" clip-path="url(#p9c68911281)" style="fill: none; stroke: #dddddd; stroke-width: 0.6; stroke-linecap: round"/>
     </g>
     <g id="text_1">
      <!-- 1.30 -->
      <g style="fill: #262626" transform="translate(104.18697 223.556) scale(0.085 -0.085)">
       <defs>
        <path id="STIXTwoText-787" d="M 2726 0 
L 512 0 
L 512 179 
Q 966 179 1152 275 
Q 1338 371 1338 608 
L 1338 3315 
Q 1338 3482 1293 3555 
Q 1248 3629 1126 3629 
Q 1062 3629 947 3616 
Q 832 3603 704 3580 
Q 576 3558 474 3526 
L 474 3738 
L 1715 4090 
L 1901 4090 
L 1901 608 
Q 1901 371 2093 275 
Q 2285 179 2726 179 
L 2726 0 
z
" transform="scale(0.015625)"/>
        <path id="STIXTwoText-725" d="M 774 -51 
Q 582 -51 489 57 
Q 397 166 397 326 
Q 397 493 499 611 
Q 602 730 781 730 
Q 966 730 1068 608 
Q 1171 486 1171 320 
Q 1171 173 1068 61 
Q 966 -51 774 -51 
z
" transform="scale(0.015625)"/>
        <path id="STIXTwoText-789" d="M 1094 -83 
Q 806 -83 652 -28 
Q 499 26 438 106 
Q 378 186 378 269 
Q 378 371 442 460 
Q 506 550 627 550 
Q 723 550 828 502 
Q 934 454 1049 393 
Q 1165 333 1283 285 
Q 1402 237 1523 237 
Q 1728 237 1907 310 
Q 2086 384 2201 560 
Q 2317 736 2317 1050 
Q 2317 1338 2157 1549 
Q 1997 1760 1731 1878 
Q 1466 1997 1158 1997 
L 1030 1997 
L 1030 2240 
L 1152 2240 
Q 1370 2240 1574 2349 
Q 1779 2458 1910 2656 
Q 2042 2854 2042 3110 
Q 2042 3392 1866 3549 
Q 1690 3706 1389 3706 
Q 1101 3706 909 3574 
Q 717 3443 550 3187 
L 403 3270 
Q 582 3686 876 3904 
Q 1171 4122 1562 4122 
Q 2054 4122 2323 3875 
Q 2592 3629 2592 3264 
Q 2592 2931 2397 2726 
Q 2202 2522 1901 2330 
L 1901 2310 
Q 2157 2234 2371 2090 
Q 2586 1946 2714 1738 
Q 2842 1530 2842 1242 
Q 2842 806 2598 508 
Q 2355 211 1958 64 
Q 1562 -83 1094 -83 
z
" transform="scale(0.015625)"/>
        <path id="STIXTwoText-786" d="M 1581 -70 
Q 1197 -70 928 99 
Q 659 269 492 563 
Q 326 858 249 1242 
Q 173 1626 173 2048 
Q 173 2656 336 3120 
Q 499 3584 816 3846 
Q 1133 4109 1594 4109 
Q 2010 4109 2323 3862 
Q 2637 3616 2816 3152 
Q 2995 2688 2995 2029 
Q 2995 1619 2915 1241 
Q 2835 864 2665 569 
Q 2496 275 2227 102 
Q 1958 -70 1581 -70 
z
M 1581 160 
Q 1958 160 2166 614 
Q 2374 1069 2374 1990 
Q 2374 2963 2172 3427 
Q 1971 3891 1574 3891 
Q 1197 3891 992 3430 
Q 787 2970 787 2016 
Q 787 1088 992 624 
Q 1197 160 1581 160 
z
" transform="scale(0.015625)"/>
       </defs>
       <use xlink:href="#STIXTwoText-787"/>
       <use xlink:href="#STIXTwoText-725" transform="translate(49.5 0)"/>
       <use xlink:href="#STIXTwoText-789" transform="translate(74 0)"/>
       <use xlink:href="#STIXTwoText-786" transform="translate(123.5 0)"/>
      </g>
     </g>
    </g>
    <g id="xtick_2">
     <g id="line2d_2">
      <path d="M 210.175992 207.579 
L 210.175992 20.82 
" clip-path="url(#p9c68911281)" style="fill: none; stroke: #dddddd; stroke-width: 0.6; stroke-linecap: round"/>
     </g>
     <g id="text_2">
      <!-- 1.35 -->
      <g style="fill: #262626" transform="translate(202.823492 223.556) scale(0.085 -0.085)">
       <defs>
        <path id="STIXTwoText-78b" d="M 1114 -83 
Q 742 -83 560 6 
Q 378 96 378 275 
Q 378 384 445 467 
Q 512 550 634 550 
Q 730 550 822 502 
Q 915 454 1014 393 
Q 1114 333 1235 285 
Q 1357 237 1510 237 
Q 1741 237 1936 326 
Q 2131 416 2249 614 
Q 2368 813 2368 1146 
Q 2368 1504 2227 1721 
Q 2086 1939 1849 2054 
Q 1613 2170 1315 2214 
Q 1018 2259 698 2266 
L 621 2362 
L 1018 4032 
L 2771 4032 
L 2669 3514 
L 1165 3514 
L 992 2784 
Q 1312 2758 1590 2704 
Q 1869 2650 2096 2554 
Q 2323 2458 2489 2301 
Q 2656 2144 2745 1923 
Q 2835 1702 2835 1402 
Q 2835 1030 2710 752 
Q 2586 474 2355 288 
Q 2125 102 1811 9 
Q 1498 -83 1114 -83 
z
" transform="scale(0.015625)"/>
       </defs>
       <use xlink:href="#STIXTwoText-787"/>
       <use xlink:href="#STIXTwoText-725" transform="translate(49.5 0)"/>
       <use xlink:href="#STIXTwoText-789" transform="translate(74 0)"/>
       <use xlink:href="#STIXTwoText-78b" transform="translate(123.5 0)"/>
      </g>
     </g>
    </g>
    <g id="xtick_3">
     <g id="line2d_3">
      <path d="M 308.812515 207.579 
L 308.812515 20.82 
" clip-path="url(#p9c68911281)" style="fill: none; stroke: #dddddd; stroke-width: 0.6; stroke-linecap: round"/>
     </g>
     <g id="text_3">
      <!-- 1.40 -->
      <g style="fill: #262626" transform="translate(301.460015 223.556) scale(0.085 -0.085)">
       <defs>
        <path id="STIXTwoText-78a" d="M 2426 0 
L 1856 0 
L 1856 1011 
L 83 1011 
L 83 1414 
L 2035 4128 
L 2426 4128 
L 2426 1453 
L 3078 1453 
L 3078 1011 
L 2426 1011 
L 2426 0 
z
M 435 1478 
L 435 1453 
L 1856 1453 
L 1856 3430 
L 1830 3430 
L 435 1478 
z
" transform="scale(0.015625)"/>
       </defs>
       <use xlink:href="#STIXTwoText-787"/>
       <use xlink:href="#STIXTwoText-725" transform="translate(49.5 0)"/>
       <use xlink:href="#STIXTwoText-78a" transform="translate(74 0)"/>
       <use xlink:href="#STIXTwoText-786" transform="translate(123.5 0)"/>
      </g>
     </g>
    </g>
    <g id="xtick_4">
     <g id="line2d_4">
      <path d="M 407.449038 207.579 
L 407.449038 20.82 
" clip-path="url(#p9c68911281)" style="fill: none; stroke: #dddddd; stroke-width: 0.6; stroke-linecap: round"/>
     </g>
     <g id="text_4">
      <!-- 1.45 -->
      <g style="fill: #262626" transform="translate(400.096538 223.556) scale(0.085 -0.085)">
       <use xlink:href="#STIXTwoText-787"/>
       <use xlink:href="#STIXTwoText-725" transform="translate(49.5 0)"/>
       <use xlink:href="#STIXTwoText-78a" transform="translate(74 0)"/>
       <use xlink:href="#STIXTwoText-78b" transform="translate(123.5 0)"/>
      </g>
     </g>
    </g>
    <g id="xtick_5">
     <g id="line2d_5">
      <path d="M 506.085561 207.579 
L 506.085561 20.82 
" clip-path="url(#p9c68911281)" style="fill: none; stroke: #dddddd; stroke-width: 0.6; stroke-linecap: round"/>
     </g>
     <g id="text_5">
      <!-- 1.50 -->
      <g style="fill: #262626" transform="translate(498.733061 223.556) scale(0.085 -0.085)">
       <use xlink:href="#STIXTwoText-787"/>
       <use xlink:href="#STIXTwoText-725" transform="translate(49.5 0)"/>
       <use xlink:href="#STIXTwoText-78b" transform="translate(74 0)"/>
       <use xlink:href="#STIXTwoText-786" transform="translate(123.5 0)"/>
      </g>
     </g>
    </g>
    <g id="text_6">
     <!-- best validation RMS ($\times 10^6$, cubed-transform cost space) -->
     <g style="fill: #262626" transform="translate(164.079322 238.129) scale(0.095 -0.095)">
      <defs>
       <path id="STIXTwoText-100" d="M 877 4518 
L 1043 4518 
L 1043 2560 
L 1062 2560 
Q 1229 2765 1478 2934 
Q 1728 3104 2048 3104 
Q 2368 3104 2608 2921 
Q 2848 2739 2982 2419 
Q 3117 2099 3117 1683 
Q 3117 1114 2918 723 
Q 2720 333 2374 134 
Q 2029 -64 1581 -64 
Q 1171 -64 899 32 
Q 627 128 512 192 
L 512 3789 
Q 512 4006 464 4067 
Q 416 4128 230 4128 
Q 154 4128 102 4121 
Q 51 4115 51 4115 
L 51 4294 
L 877 4518 
z
M 1043 2278 
L 1043 499 
Q 1133 390 1286 294 
Q 1440 198 1696 198 
Q 2003 198 2185 371 
Q 2368 544 2451 835 
Q 2534 1126 2534 1478 
Q 2534 1786 2470 2058 
Q 2406 2330 2240 2499 
Q 2074 2669 1766 2669 
Q 1523 2669 1328 2531 
Q 1133 2394 1043 2278 
z
" transform="scale(0.015625)"/>
       <path id="STIXTwoText-103" d="M 1581 -64 
Q 1197 -64 886 118 
Q 576 301 397 656 
Q 218 1011 218 1523 
Q 218 2061 400 2409 
Q 582 2758 889 2931 
Q 1197 3104 1568 3104 
Q 2093 3104 2413 2739 
Q 2733 2374 2758 1702 
L 678 1702 
L 672 1939 
L 2157 1939 
Q 2150 2176 2073 2384 
Q 1997 2592 1849 2720 
Q 1702 2848 1472 2848 
Q 1101 2848 915 2557 
Q 730 2266 730 1734 
Q 730 1293 870 998 
Q 1011 704 1241 560 
Q 1472 416 1734 416 
Q 1997 416 2160 486 
Q 2323 557 2438 669 
Q 2554 781 2656 915 
L 2778 826 
Q 2694 646 2585 483 
Q 2477 320 2339 198 
Q 2202 77 2016 6 
Q 1830 -64 1581 -64 
z
" transform="scale(0.015625)"/>
       <path id="STIXTwoText-112" d="M 269 -51 
L 250 1050 
L 416 1050 
Q 518 557 716 361 
Q 915 166 1267 166 
Q 1510 166 1664 265 
Q 1818 365 1818 589 
Q 1818 742 1763 844 
Q 1709 947 1555 1052 
Q 1402 1158 1101 1306 
Q 806 1453 620 1590 
Q 435 1728 345 1894 
Q 256 2061 256 2298 
Q 256 2694 541 2899 
Q 826 3104 1235 3104 
Q 1478 3104 1632 3049 
Q 1786 2995 1907 2938 
L 1914 2938 
L 2022 3072 
L 2150 3072 
L 2170 2093 
L 1997 2093 
Q 1894 2547 1708 2716 
Q 1523 2886 1229 2886 
Q 1011 2886 860 2784 
Q 710 2682 710 2464 
Q 710 2278 883 2131 
Q 1056 1984 1459 1779 
Q 1754 1626 1952 1482 
Q 2150 1338 2252 1168 
Q 2355 998 2355 762 
Q 2355 461 2208 278 
Q 2061 96 1814 13 
Q 1568 -70 1280 -70 
Q 1005 -70 841 -12 
Q 678 45 550 96 
L 538 96 
L 403 -51 
L 269 -51 
z
" transform="scale(0.015625)"/>
       <path id="STIXTwoText-113" d="M 1875 576 
L 1997 474 
Q 1875 301 1769 182 
Q 1664 64 1536 0 
Q 1408 -64 1203 -64 
Q 883 -64 736 125 
Q 589 314 589 742 
L 589 2726 
L 237 2726 
L 237 2874 
Q 461 3014 624 3254 
Q 787 3494 960 3904 
L 1120 3904 
L 1120 2995 
L 1843 2995 
L 1843 2726 
L 1120 2726 
L 1120 922 
Q 1120 582 1181 448 
Q 1242 314 1427 314 
Q 1581 314 1667 378 
Q 1754 442 1875 576 
z
" transform="scale(0.015625)"/>
       <path id="STIXTwoText-1" transform="scale(0.015625)"/>
       <path id="STIXTwoText-115" d="M 1696 -38 
L 1389 -38 
L 435 2374 
Q 352 2573 288 2672 
Q 224 2771 141 2806 
Q 58 2842 -83 2842 
L -83 3027 
L 1267 3027 
L 1267 2842 
Q 1082 2842 1008 2800 
Q 934 2758 934 2682 
Q 934 2618 953 2560 
Q 973 2502 998 2432 
L 1542 1005 
L 1664 621 
L 1702 621 
L 1837 1011 
L 2387 2458 
Q 2394 2483 2413 2537 
Q 2432 2592 2432 2669 
Q 2432 2778 2336 2810 
Q 2240 2842 2067 2842 
L 2067 3027 
L 3187 3027 
L 3187 2842 
Q 3002 2842 2902 2755 
Q 2803 2669 2707 2419 
L 1696 -38 
z
" transform="scale(0.015625)"/>
       <path id="STIXTwoText-ff" d="M 1005 -45 
Q 634 -45 438 160 
Q 243 365 243 672 
Q 243 928 361 1104 
Q 480 1280 675 1401 
Q 870 1523 1097 1606 
Q 1325 1690 1542 1747 
Q 1760 1805 1926 1856 
L 1926 2138 
Q 1926 2554 1782 2730 
Q 1638 2906 1350 2906 
Q 1075 2906 998 2790 
Q 922 2675 922 2387 
Q 922 2240 848 2166 
Q 774 2093 640 2093 
Q 544 2093 457 2166 
Q 371 2240 371 2400 
Q 371 2579 508 2739 
Q 646 2899 899 3001 
Q 1152 3104 1498 3104 
Q 2022 3104 2240 2861 
Q 2458 2618 2458 2118 
L 2458 666 
Q 2458 467 2502 409 
Q 2547 352 2650 352 
Q 2739 352 2812 397 
Q 2886 442 2950 512 
L 3046 410 
Q 2886 179 2742 73 
Q 2598 -32 2355 -32 
Q 2131 -32 2064 96 
Q 1997 224 1965 461 
L 1926 538 
L 1926 1645 
Q 1638 1574 1382 1478 
Q 1126 1382 966 1228 
Q 806 1075 806 826 
Q 806 589 934 448 
Q 1062 307 1267 307 
Q 1434 307 1616 390 
Q 1798 474 1971 627 
L 2022 397 
L 1946 397 
Q 1798 269 1660 166 
Q 1523 64 1366 9 
Q 1210 -45 1005 -45 
z
" transform="scale(0.015625)"/>
       <path id="STIXTwoText-10b" d="M 1664 0 
L 192 0 
L 192 186 
Q 403 186 499 227 
Q 595 269 617 368 
Q 640 467 640 646 
L 640 3859 
Q 640 4058 566 4096 
Q 493 4134 371 4134 
Q 288 4134 227 4128 
Q 166 4122 166 4122 
L 166 4294 
L 1011 4518 
L 1171 4518 
L 1171 646 
Q 1171 461 1200 361 
Q 1229 262 1331 224 
Q 1434 186 1664 186 
L 1664 0 
z
" transform="scale(0.015625)"/>
       <path id="STIXTwoText-107" d="M 1645 0 
L 205 0 
L 205 179 
Q 422 179 515 220 
Q 608 262 630 364 
Q 653 467 653 646 
L 653 2432 
Q 653 2637 582 2685 
Q 512 2733 371 2733 
Q 307 2733 259 2726 
Q 211 2720 211 2720 
L 211 2906 
L 1018 3085 
L 1184 3085 
L 1184 646 
Q 1184 461 1209 358 
Q 1235 256 1334 217 
Q 1434 179 1645 179 
L 1645 0 
z
M 928 3584 
Q 768 3584 665 3693 
Q 563 3802 563 3949 
Q 563 4096 662 4201 
Q 762 4307 928 4307 
Q 1094 4307 1193 4201 
Q 1293 4096 1293 3949 
Q 1293 3802 1193 3693 
Q 1094 3584 928 3584 
z
" transform="scale(0.015625)"/>
       <path id="STIXTwoText-102" d="M 1306 -51 
Q 947 -51 700 141 
Q 454 333 332 662 
Q 211 992 211 1402 
Q 211 1933 409 2313 
Q 608 2694 944 2899 
Q 1280 3104 1683 3104 
Q 1837 3104 1987 3065 
Q 2138 3027 2278 2950 
L 2304 2950 
L 2304 3789 
Q 2304 4000 2256 4064 
Q 2208 4128 2022 4128 
Q 1978 4128 1917 4121 
Q 1856 4115 1856 4115 
L 1856 4294 
L 2662 4518 
L 2835 4518 
L 2835 685 
Q 2835 435 2905 361 
Q 2976 288 3155 288 
L 3290 288 
L 3290 115 
L 2470 -32 
L 2323 -32 
L 2323 410 
L 2298 410 
Q 2118 250 1872 99 
Q 1626 -51 1306 -51 
z
M 1606 410 
Q 1830 410 1984 470 
Q 2138 531 2304 646 
L 2304 2336 
Q 2266 2534 2118 2691 
Q 1971 2848 1670 2848 
Q 1267 2848 1017 2553 
Q 768 2259 768 1651 
Q 768 992 982 701 
Q 1197 410 1606 410 
z
" transform="scale(0.015625)"/>
       <path id="STIXTwoText-10e" d="M 1651 -64 
Q 979 -64 598 355 
Q 218 774 218 1549 
Q 218 2016 397 2365 
Q 576 2714 899 2909 
Q 1222 3104 1651 3104 
Q 2310 3104 2691 2694 
Q 3072 2285 3072 1574 
Q 3072 1037 2889 672 
Q 2707 307 2387 121 
Q 2067 -64 1651 -64 
z
M 1677 192 
Q 1939 192 2118 313 
Q 2298 435 2390 729 
Q 2483 1024 2483 1542 
Q 2483 2131 2268 2496 
Q 2054 2861 1626 2861 
Q 1261 2861 1037 2553 
Q 813 2246 813 1632 
Q 813 870 1040 528 
Q 1267 186 1677 192 
z
" transform="scale(0.015625)"/>
       <path id="STIXTwoText-10d" d="M 3552 0 
L 2074 0 
L 2074 179 
Q 2304 179 2403 220 
Q 2502 262 2524 364 
Q 2547 467 2547 646 
L 2547 1805 
Q 2547 2189 2460 2381 
Q 2374 2573 2240 2633 
Q 2106 2694 1958 2694 
Q 1773 2694 1625 2620 
Q 1478 2547 1360 2444 
Q 1242 2342 1139 2253 
L 1094 2566 
L 1190 2566 
Q 1453 2797 1686 2950 
Q 1920 3104 2221 3104 
Q 2656 3104 2867 2809 
Q 3078 2515 3078 1965 
L 3078 646 
Q 3078 467 3107 364 
Q 3136 262 3238 220 
Q 3341 179 3552 179 
L 3552 0 
z
M 1670 0 
L 205 0 
L 205 179 
Q 422 179 515 220 
Q 608 262 630 364 
Q 653 467 653 646 
L 653 2445 
Q 653 2618 582 2672 
Q 512 2726 384 2726 
Q 301 2726 256 2720 
Q 211 2714 211 2714 
L 211 2899 
L 1024 3085 
L 1171 3085 
L 1165 2496 
L 1184 2362 
L 1184 646 
Q 1184 467 1209 364 
Q 1235 262 1337 220 
Q 1440 179 1670 179 
L 1670 0 
z
" transform="scale(0.015625)"/>
       <path id="STIXTwoText-14" d="M 2074 0 
L 275 0 
L 275 192 
Q 518 192 640 230 
Q 762 269 803 397 
Q 845 525 845 794 
L 845 3539 
Q 845 3718 809 3820 
Q 774 3923 652 3968 
Q 531 4013 275 4013 
L 275 4205 
L 1850 4205 
Q 2330 4205 2704 4112 
Q 3078 4019 3289 3792 
Q 3501 3565 3501 3155 
Q 3501 2797 3337 2573 
Q 3174 2349 2928 2224 
Q 2682 2099 2419 2035 
L 2419 2010 
Q 2528 1946 2665 1789 
Q 2803 1632 3020 1328 
Q 3238 1024 3590 518 
Q 3744 307 3888 249 
Q 4032 192 4250 192 
L 4250 0 
L 3194 0 
Q 2931 397 2755 662 
Q 2579 928 2457 1110 
Q 2336 1293 2240 1433 
Q 2144 1574 2048 1715 
Q 1952 1862 1872 1894 
Q 1792 1926 1619 1926 
L 1440 1926 
L 1440 794 
Q 1440 531 1485 400 
Q 1530 269 1664 230 
Q 1798 192 2074 192 
L 2074 0 
z
M 1440 2176 
L 1683 2170 
Q 2035 2189 2297 2285 
Q 2560 2381 2707 2585 
Q 2854 2790 2854 3130 
Q 2854 3514 2617 3734 
Q 2381 3955 1862 3955 
Q 1760 3955 1651 3952 
Q 1542 3949 1440 3936 
L 1440 2176 
z
" transform="scale(0.015625)"/>
       <path id="STIXTwoText-f" d="M 1683 0 
L 179 0 
L 179 192 
Q 442 192 570 240 
Q 698 288 742 448 
Q 787 608 787 934 
L 787 3424 
Q 787 3667 742 3792 
Q 698 3917 573 3965 
Q 448 4013 192 4013 
L 192 4205 
L 1498 4205 
L 2848 986 
L 2874 986 
L 4218 4205 
L 5434 4205 
L 5434 4013 
Q 5210 4013 5088 3965 
Q 4966 3917 4921 3792 
Q 4877 3667 4877 3430 
L 4877 762 
Q 4877 531 4921 406 
Q 4966 282 5088 237 
Q 5210 192 5440 192 
L 5440 0 
L 3738 0 
L 3738 192 
Q 3987 192 4108 237 
Q 4230 282 4268 406 
Q 4307 531 4307 762 
L 4307 3520 
L 4282 3520 
L 2790 0 
L 2637 0 
L 1126 3514 
L 1101 3514 
L 1101 934 
Q 1101 608 1145 448 
Q 1190 288 1315 240 
Q 1440 192 1683 192 
L 1683 0 
z
" transform="scale(0.015625)"/>
       <path id="STIXTwoText-15" d="M 480 -96 
L 282 -96 
L 224 1286 
L 422 1286 
Q 538 845 691 611 
Q 845 378 1072 291 
Q 1299 205 1626 205 
Q 1869 205 2041 272 
Q 2214 339 2310 489 
Q 2406 640 2406 883 
Q 2406 1165 2249 1350 
Q 2093 1536 1849 1680 
Q 1606 1824 1344 1971 
Q 1088 2118 851 2284 
Q 614 2451 464 2681 
Q 314 2912 314 3245 
Q 314 3584 480 3811 
Q 646 4038 921 4160 
Q 1197 4282 1530 4282 
Q 1824 4282 1984 4234 
Q 2144 4186 2237 4134 
Q 2330 4083 2406 4083 
Q 2483 4083 2531 4124 
Q 2579 4166 2605 4269 
L 2771 4269 
L 2816 2989 
L 2624 2989 
Q 2490 3520 2266 3776 
Q 2042 4032 1555 4026 
Q 1229 4026 1049 3875 
Q 870 3725 870 3424 
Q 870 3187 1004 3017 
Q 1139 2848 1356 2713 
Q 1574 2579 1811 2438 
Q 2022 2317 2236 2195 
Q 2451 2074 2627 1920 
Q 2803 1766 2908 1561 
Q 3014 1357 3014 1069 
Q 3014 698 2844 442 
Q 2675 186 2380 54 
Q 2086 -77 1715 -77 
Q 1382 -77 1174 -29 
Q 966 19 848 67 
Q 730 115 653 115 
Q 589 115 537 57 
Q 486 0 480 -96 
z
" transform="scale(0.015625)"/>
       <path id="STIXTwoText-731" d="M 1997 -1011 
L 1894 -1190 
Q 1120 -794 656 -48 
Q 192 698 192 1754 
Q 192 2803 656 3542 
Q 1120 4282 1894 4672 
L 1997 4506 
Q 1299 4038 1008 3372 
Q 717 2707 717 1754 
Q 717 787 1008 118 
Q 1299 -550 1997 -1011 
z
" transform="scale(0.015625)"/>
       <path id="STIXGeneral-Regular-99" d="M 3821 141 
L 3526 -160 
L 2048 1312 
L 570 -160 
L 275 134 
L 1747 1613 
L 275 3091 
L 576 3386 
L 2048 1914 
L 3526 3386 
L 3821 3098 
L 2349 1613 
L 3821 141 
z
" transform="scale(0.015625)"/>
       <path id="STIXGeneral-Regular-14" d="M 2522 0 
L 755 0 
L 755 96 
Q 1107 115 1235 227 
Q 1363 339 1363 608 
L 1363 3482 
Q 1363 3795 1171 3795 
Q 1082 3795 883 3718 
L 710 3654 
L 710 3744 
L 1856 4326 
L 1914 4307 
L 1914 486 
Q 1914 275 2042 185 
Q 2170 96 2522 96 
L 2522 0 
z
" transform="scale(0.015625)"/>
       <path id="STIXGeneral-Regular-13" d="M 3046 2112 
Q 3046 1683 2963 1302 
Q 2880 922 2717 602 
Q 2554 282 2266 96 
Q 1978 -90 1600 -90 
Q 1210 -90 915 108 
Q 621 307 461 640 
Q 301 973 227 1350 
Q 154 1728 154 2150 
Q 154 2746 301 3222 
Q 448 3699 790 4012 
Q 1133 4326 1626 4326 
Q 2253 4326 2649 3712 
Q 3046 3098 3046 2112 
z
M 2432 2080 
Q 2432 3091 2217 3625 
Q 2003 4160 1587 4160 
Q 1190 4160 979 3622 
Q 768 3085 768 2106 
Q 768 1120 979 598 
Q 1190 77 1600 77 
Q 2003 77 2217 598 
Q 2432 1120 2432 2080 
z
" transform="scale(0.015625)"/>
       <path id="STIXGeneral-Regular-19" d="M 2854 4378 
L 2867 4275 
Q 2112 4154 1606 3664 
Q 1101 3174 973 2451 
Q 1344 2739 1786 2739 
Q 2349 2739 2672 2380 
Q 2995 2022 2995 1402 
Q 2995 774 2669 378 
Q 2291 -90 1651 -90 
Q 870 -90 518 557 
Q 218 1107 218 1786 
Q 218 2835 915 3552 
Q 1312 3962 1731 4131 
Q 2150 4301 2854 4378 
z
M 2419 1203 
Q 2419 2445 1555 2445 
Q 1235 2445 1024 2275 
Q 813 2106 813 1702 
Q 813 954 1046 522 
Q 1280 90 1722 90 
Q 2061 90 2240 394 
Q 2419 698 2419 1203 
z
" transform="scale(0.015625)"/>
       <path id="STIXTwoText-721" d="M 448 -845 
L 371 -685 
Q 493 -634 614 -554 
Q 736 -474 819 -320 
Q 902 -166 902 90 
Q 800 51 704 51 
Q 518 51 435 153 
Q 352 256 352 397 
Q 352 550 454 662 
Q 557 774 749 774 
Q 909 774 1017 707 
Q 1126 640 1184 515 
Q 1242 390 1242 211 
Q 1242 -58 1155 -243 
Q 1069 -429 941 -544 
Q 813 -659 678 -729 
Q 544 -800 448 -845 
z
" transform="scale(0.015625)"/>
       <path id="STIXTwoText-101" d="M 2611 947 
L 2733 858 
Q 2611 602 2454 390 
Q 2298 179 2067 57 
Q 1837 -64 1491 -64 
Q 1094 -64 806 128 
Q 518 320 364 662 
Q 211 1005 211 1446 
Q 211 1952 380 2323 
Q 550 2694 873 2899 
Q 1197 3104 1658 3104 
Q 2112 3104 2371 2905 
Q 2630 2707 2630 2426 
Q 2630 2285 2563 2211 
Q 2496 2138 2362 2138 
Q 2221 2138 2147 2211 
Q 2074 2285 2029 2393 
Q 1984 2502 1936 2611 
Q 1888 2720 1801 2793 
Q 1715 2867 1549 2867 
Q 1158 2867 937 2582 
Q 717 2298 717 1747 
Q 717 1165 957 790 
Q 1197 416 1690 416 
Q 2003 416 2198 544 
Q 2394 672 2611 947 
z
" transform="scale(0.015625)"/>
       <path id="STIXTwoText-114" d="M 1421 -64 
Q 1024 -64 803 195 
Q 582 454 582 1107 
L 582 2406 
Q 582 2579 547 2659 
Q 512 2739 416 2761 
Q 320 2784 147 2784 
L 147 2963 
L 973 3059 
L 1114 3059 
L 1114 1190 
Q 1114 864 1187 681 
Q 1261 499 1392 422 
Q 1523 346 1690 346 
Q 1933 346 2109 454 
Q 2285 563 2477 730 
L 2477 2413 
Q 2477 2586 2432 2662 
Q 2387 2739 2275 2761 
Q 2163 2784 1958 2784 
L 1958 2963 
L 2854 3059 
L 3008 3059 
L 3008 710 
Q 3008 429 3085 358 
Q 3162 288 3392 288 
L 3456 288 
L 3456 115 
L 2643 -32 
L 2502 -32 
L 2502 461 
L 2470 461 
Q 2304 294 2141 176 
Q 1978 58 1802 -3 
Q 1626 -64 1421 -64 
z
" transform="scale(0.015625)"/>
       <path id="STIXTwoText-73c" d="M 1728 1395 
L 288 1395 
L 288 1811 
L 1728 1811 
L 1728 1395 
z
" transform="scale(0.015625)"/>
       <path id="STIXTwoText-111" d="M 1786 0 
L 186 0 
L 186 186 
Q 397 186 496 221 
Q 595 256 624 349 
Q 653 442 653 621 
L 653 2381 
Q 653 2554 624 2640 
Q 595 2726 422 2726 
Q 326 2726 275 2720 
Q 224 2714 224 2714 
L 224 2893 
L 1018 3085 
L 1171 3085 
L 1171 2426 
L 1190 2426 
Q 1357 2662 1485 2816 
Q 1613 2970 1737 3046 
Q 1862 3123 2016 3123 
Q 2202 3123 2294 3027 
Q 2387 2931 2387 2765 
Q 2387 2586 2300 2502 
Q 2214 2419 2106 2419 
Q 2003 2419 1923 2473 
Q 1843 2528 1785 2582 
Q 1728 2637 1690 2637 
Q 1581 2637 1440 2470 
Q 1299 2304 1184 2112 
L 1184 653 
Q 1184 454 1235 352 
Q 1286 250 1417 218 
Q 1549 186 1786 186 
L 1786 0 
z
" transform="scale(0.015625)"/>
       <path id="STIXTwoText-104" d="M 1837 0 
L 115 0 
L 115 186 
Q 352 186 464 227 
Q 576 269 614 390 
Q 653 512 653 762 
L 653 2797 
Q 653 3162 669 3395 
Q 685 3629 729 3789 
Q 774 3949 858 4096 
Q 986 4320 1181 4441 
Q 1376 4563 1709 4563 
Q 1920 4563 2080 4512 
Q 2240 4461 2333 4361 
Q 2426 4262 2426 4115 
Q 2426 3974 2349 3907 
Q 2272 3840 2163 3840 
Q 2042 3840 1965 3920 
Q 1888 4000 1818 4090 
Q 1754 4179 1680 4252 
Q 1606 4326 1491 4326 
Q 1312 4326 1248 4163 
Q 1184 4000 1184 3597 
L 1184 762 
Q 1184 512 1235 390 
Q 1286 269 1427 227 
Q 1568 186 1837 186 
L 1837 0 
z
M 1965 2726 
L 166 2726 
L 166 2995 
L 1965 2995 
L 1965 2726 
z
" transform="scale(0.015625)"/>
       <path id="STIXTwoText-10c" d="M 3520 0 
L 2003 0 
L 2003 186 
Q 2234 186 2336 230 
Q 2438 275 2467 396 
Q 2496 518 2496 742 
L 2496 2010 
Q 2496 2419 2352 2556 
Q 2208 2694 1984 2694 
Q 1805 2694 1648 2617 
Q 1491 2541 1363 2438 
Q 1235 2336 1146 2246 
L 1094 2566 
L 1190 2566 
Q 1453 2790 1696 2947 
Q 1939 3104 2266 3104 
Q 2554 3104 2730 2937 
Q 2906 2771 2995 2522 
Q 3008 2502 3014 2480 
Q 3021 2458 3027 2432 
L 3027 742 
Q 3027 525 3056 403 
Q 3085 282 3187 234 
Q 3290 186 3520 186 
L 3520 0 
z
M 1664 0 
L 205 0 
L 205 186 
Q 410 186 502 221 
Q 595 256 624 355 
Q 653 454 653 646 
L 653 2438 
Q 653 2611 585 2668 
Q 518 2726 384 2726 
Q 314 2726 262 2720 
Q 211 2714 211 2714 
L 211 2899 
L 1011 3085 
L 1165 3085 
L 1165 2496 
L 1184 2355 
L 1184 621 
Q 1184 442 1222 349 
Q 1261 256 1363 221 
Q 1466 186 1664 186 
L 1664 0 
z
M 5306 0 
L 3859 0 
L 3859 186 
Q 4077 186 4173 243 
Q 4269 301 4291 425 
Q 4314 550 4314 742 
L 4314 1971 
Q 4314 2266 4240 2419 
Q 4166 2573 4041 2633 
Q 3917 2694 3763 2694 
Q 3552 2694 3347 2544 
Q 3142 2394 2976 2253 
L 2906 2573 
L 3002 2573 
Q 3264 2835 3513 2969 
Q 3763 3104 4019 3104 
Q 4397 3104 4621 2867 
Q 4845 2630 4845 2048 
L 4845 742 
Q 4845 544 4867 419 
Q 4890 294 4989 240 
Q 5088 186 5306 186 
L 5306 0 
z
" transform="scale(0.015625)"/>
       <path id="STIXTwoText-10f" d="M 1760 -1408 
L 141 -1408 
L 141 -1229 
Q 442 -1229 525 -1129 
Q 608 -1030 608 -762 
L 608 2406 
Q 608 2592 566 2662 
Q 525 2733 365 2733 
Q 301 2733 230 2726 
Q 160 2720 160 2720 
L 160 2906 
L 966 3085 
L 1126 3085 
L 1126 2547 
L 1146 2547 
Q 1376 2816 1616 2960 
Q 1856 3104 2138 3104 
Q 2458 3104 2698 2921 
Q 2938 2739 3075 2416 
Q 3213 2093 3213 1670 
Q 3213 1126 3024 739 
Q 2835 352 2515 144 
Q 2195 -64 1811 -64 
Q 1632 -64 1469 -22 
Q 1306 19 1165 115 
L 1139 115 
L 1139 -723 
Q 1139 -928 1190 -1037 
Q 1242 -1146 1376 -1184 
Q 1510 -1222 1760 -1222 
L 1760 -1408 
z
M 1843 186 
Q 2182 186 2406 506 
Q 2630 826 2630 1491 
Q 2630 2099 2432 2384 
Q 2234 2669 1875 2669 
Q 1619 2669 1424 2534 
Q 1229 2400 1139 2278 
L 1139 608 
Q 1203 544 1299 441 
Q 1395 339 1529 262 
Q 1664 186 1843 186 
z
" transform="scale(0.015625)"/>
       <path id="STIXTwoText-732" d="M 301 -1190 
L 198 -1011 
Q 902 -550 1190 118 
Q 1478 787 1478 1754 
Q 1478 2707 1190 3372 
Q 902 4038 198 4506 
L 301 4672 
Q 1075 4282 1539 3542 
Q 2003 2803 2003 1754 
Q 2003 698 1539 -48 
Q 1075 -794 301 -1190 
z
" transform="scale(0.015625)"/>
      </defs>
      <use xlink:href="#STIXTwoText-100" transform="translate(0 0.815625)"/>
      <use xlink:href="#STIXTwoText-103" transform="translate(52.199951 0.815625)"/>
      <use xlink:href="#STIXTwoText-112" transform="translate(98.599915 0.815625)"/>
      <use xlink:href="#STIXTwoText-113" transform="translate(138.099884 0.815625)"/>
      <use xlink:href="#STIXTwoText-1" transform="translate(169.599854 0.815625)"/>
      <use xlink:href="#STIXTwoText-115" transform="translate(193.099838 0.815625)"/>
      <use xlink:href="#STIXTwoText-ff" transform="translate(241.199799 0.815625)"/>
      <use xlink:href="#STIXTwoText-10b" transform="translate(289.199753 0.815625)"/>
      <use xlink:href="#STIXTwoText-107" transform="translate(317.499725 0.815625)"/>
      <use xlink:href="#STIXTwoText-102" transform="translate(345.999695 0.815625)"/>
      <use xlink:href="#STIXTwoText-ff" transform="translate(399.899643 0.815625)"/>
      <use xlink:href="#STIXTwoText-113" transform="translate(447.899597 0.815625)"/>
      <use xlink:href="#STIXTwoText-107" transform="translate(479.399567 0.815625)"/>
      <use xlink:href="#STIXTwoText-10e" transform="translate(507.899536 0.815625)"/>
      <use xlink:href="#STIXTwoText-10d" transform="translate(559.299484 0.815625)"/>
      <use xlink:href="#STIXTwoText-1" transform="translate(616.899429 0.815625)"/>
      <use xlink:href="#STIXTwoText-14" transform="translate(640.399414 0.815625)"/>
      <use xlink:href="#STIXTwoText-f" transform="translate(706.299347 0.815625)"/>
      <use xlink:href="#STIXTwoText-15" transform="translate(795.799255 0.815625)"/>
      <use xlink:href="#STIXTwoText-1" transform="translate(846.199203 0.815625)"/>
      <use xlink:href="#STIXTwoText-731" transform="translate(869.699188 0.815625)"/>
      <use xlink:href="#STIXGeneral-Regular-99" transform="translate(903.999161 0.815625)"/>
      <use xlink:href="#STIXGeneral-Regular-14" transform="translate(967.9991 0.815625)"/>
      <use xlink:href="#STIXGeneral-Regular-13" transform="translate(1017.999054 0.815625)"/>
      <use xlink:href="#STIXGeneral-Regular-19" transform="translate(1069.574008 42.115625) scale(0.7)"/>
      <use xlink:href="#STIXTwoText-721" transform="translate(1109.073976 0.815625)"/>
      <use xlink:href="#STIXTwoText-1" transform="translate(1133.573946 0.815625)"/>
      <use xlink:href="#STIXTwoText-101" transform="translate(1157.07393 0.815625)"/>
      <use xlink:href="#STIXTwoText-114" transform="translate(1201.673891 0.815625)"/>
      <use xlink:href="#STIXTwoText-100" transform="translate(1258.67383 0.815625)"/>
      <use xlink:href="#STIXTwoText-103" transform="translate(1310.873781 0.815625)"/>
      <use xlink:href="#STIXTwoText-102" transform="translate(1357.273744 0.815625)"/>
      <use xlink:href="#STIXTwoText-73c" transform="translate(1411.173692 0.815625)"/>
      <use xlink:href="#STIXTwoText-113" transform="translate(1442.673662 0.815625)"/>
      <use xlink:href="#STIXTwoText-111" transform="translate(1474.173631 0.815625)"/>
      <use xlink:href="#STIXTwoText-ff" transform="translate(1512.173601 0.815625)"/>
      <use xlink:href="#STIXTwoText-10d" transform="translate(1560.173555 0.815625)"/>
      <use xlink:href="#STIXTwoText-112" transform="translate(1617.7735 0.815625)"/>
      <use xlink:href="#STIXTwoText-104" transform="translate(1657.27347 0.815625)"/>
      <use xlink:href="#STIXTwoText-10e" transform="translate(1687.973436 0.815625)"/>
      <use xlink:href="#STIXTwoText-111" transform="translate(1739.373384 0.815625)"/>
      <use xlink:href="#STIXTwoText-10c" transform="translate(1777.373354 0.815625)"/>
      <use xlink:href="#STIXTwoText-1" transform="translate(1862.573274 0.815625)"/>
      <use xlink:href="#STIXTwoText-101" transform="translate(1886.073259 0.815625)"/>
      <use xlink:href="#STIXTwoText-10e" transform="translate(1930.673219 0.815625)"/>
      <use xlink:href="#STIXTwoText-112" transform="translate(1982.073167 0.815625)"/>
      <use xlink:href="#STIXTwoText-113" transform="translate(2021.573137 0.815625)"/>
      <use xlink:href="#STIXTwoText-1" transform="translate(2053.073106 0.815625)"/>
      <use xlink:href="#STIXTwoText-112" transform="translate(2076.573091 0.815625)"/>
      <use xlink:href="#STIXTwoText-10f" transform="translate(2116.073061 0.815625)"/>
      <use xlink:href="#STIXTwoText-ff" transform="translate(2169.773012 0.815625)"/>
      <use xlink:href="#STIXTwoText-101" transform="translate(2217.772966 0.815625)"/>
      <use xlink:href="#STIXTwoText-103" transform="translate(2262.372926 0.815625)"/>
      <use xlink:href="#STIXTwoText-732" transform="translate(2308.77289 0.815625)"/>
     </g>
    </g>
   </g>
   <g id="matplotlib.axis_2">
    <g id="ytick_1">
     <g id="line2d_6">
      <path d="M 42.8225 205.270289 
L 508.016145 205.270289 
" clip-path="url(#p9c68911281)" style="fill: none; stroke: #dddddd; stroke-width: 0.6; stroke-linecap: round"/>
     </g>
     <g id="text_7">
      <!-- 120 -->
      <g style="fill: #262626" transform="translate(20.7 208.508789) scale(0.085 -0.085)">
       <defs>
        <path id="STIXTwoText-788" d="M 2765 0 
L 243 0 
L 243 218 
L 1216 1190 
Q 1536 1517 1747 1782 
Q 1958 2048 2064 2317 
Q 2170 2586 2170 2918 
Q 2170 3277 1955 3491 
Q 1741 3706 1370 3706 
Q 1056 3706 835 3571 
Q 614 3437 435 3078 
L 282 3142 
Q 429 3610 749 3866 
Q 1069 4122 1536 4122 
Q 1901 4122 2176 3984 
Q 2451 3846 2608 3600 
Q 2765 3354 2765 3014 
Q 2765 2733 2646 2473 
Q 2528 2214 2294 1939 
Q 2061 1664 1722 1318 
L 877 518 
L 877 486 
L 1325 506 
L 2214 506 
Q 2470 506 2572 621 
Q 2675 736 2784 1024 
L 2970 1024 
L 2765 0 
z
" transform="scale(0.015625)"/>
       </defs>
       <use xlink:href="#STIXTwoText-787"/>
       <use xlink:href="#STIXTwoText-788" transform="translate(49.5 0)"/>
       <use xlink:href="#STIXTwoText-786" transform="translate(99 0)"/>
      </g>
     </g>
    </g>
    <g id="ytick_2">
     <g id="line2d_7">
      <path d="M 42.8225 175.557144 
L 508.016145 175.557144 
" clip-path="url(#p9c68911281)" style="fill: none; stroke: #dddddd; stroke-width: 0.6; stroke-linecap: round"/>
     </g>
     <g id="text_8">
      <!-- 125 -->
      <g style="fill: #262626" transform="translate(20.7 178.795644) scale(0.085 -0.085)">
       <use xlink:href="#STIXTwoText-787"/>
       <use xlink:href="#STIXTwoText-788" transform="translate(49.5 0)"/>
       <use xlink:href="#STIXTwoText-78b" transform="translate(99 0)"/>
      </g>
     </g>
    </g>
    <g id="ytick_3">
     <g id="line2d_8">
      <path d="M 42.8225 145.843999 
L 508.016145 145.843999 
" clip-path="url(#p9c68911281)" style="fill: none; stroke: #dddddd; stroke-width: 0.6; stroke-linecap: round"/>
     </g>
     <g id="text_9">
      <!-- 130 -->
      <g style="fill: #262626" transform="translate(20.7 149.082499) scale(0.085 -0.085)">
       <use xlink:href="#STIXTwoText-787"/>
       <use xlink:href="#STIXTwoText-789" transform="translate(49.5 0)"/>
       <use xlink:href="#STIXTwoText-786" transform="translate(99 0)"/>
      </g>
     </g>
    </g>
    <g id="ytick_4">
     <g id="line2d_9">
      <path d="M 42.8225 116.130854 
L 508.016145 116.130854 
" clip-path="url(#p9c68911281)" style="fill: none; stroke: #dddddd; stroke-width: 0.6; stroke-linecap: round"/>
     </g>
     <g id="text_10">
      <!-- 135 -->
      <g style="fill: #262626" transform="translate(20.7 119.369354) scale(0.085 -0.085)">
       <use xlink:href="#STIXTwoText-787"/>
       <use xlink:href="#STIXTwoText-789" transform="translate(49.5 0)"/>
       <use xlink:href="#STIXTwoText-78b" transform="translate(99 0)"/>
      </g>
     </g>
    </g>
    <g id="ytick_5">
     <g id="line2d_10">
      <path d="M 42.8225 86.41771 
L 508.016145 86.41771 
" clip-path="url(#p9c68911281)" style="fill: none; stroke: #dddddd; stroke-width: 0.6; stroke-linecap: round"/>
     </g>
     <g id="text_11">
      <!-- 140 -->
      <g style="fill: #262626" transform="translate(20.7 89.65621) scale(0.085 -0.085)">
       <use xlink:href="#STIXTwoText-787"/>
       <use xlink:href="#STIXTwoText-78a" transform="translate(49.5 0)"/>
       <use xlink:href="#STIXTwoText-786" transform="translate(99 0)"/>
      </g>
     </g>
    </g>
    <g id="ytick_6">
     <g id="line2d_11">
      <path d="M 42.8225 56.704565 
L 508.016145 56.704565 
" clip-path="url(#p9c68911281)" style="fill: none; stroke: #dddddd; stroke-width: 0.6; stroke-linecap: round"/>
     </g>
     <g id="text_12">
      <!-- 145 -->
      <g style="fill: #262626" transform="translate(20.7 59.943065) scale(0.085 -0.085)">
       <use xlink:href="#STIXTwoText-787"/>
       <use xlink:href="#STIXTwoText-78a" transform="translate(49.5 0)"/>
       <use xlink:href="#STIXTwoText-78b" transform="translate(99 0)"/>
      </g>
     </g>
    </g>
    <g id="ytick_7">
     <g id="line2d_12">
      <path d="M 42.8225 26.99142 
L 508.016145 26.99142 
" clip-path="url(#p9c68911281)" style="fill: none; stroke: #dddddd; stroke-width: 0.6; stroke-linecap: round"/>
     </g>
     <g id="text_13">
      <!-- 150 -->
      <g style="fill: #262626" transform="translate(20.7 30.22992) scale(0.085 -0.085)">
       <use xlink:href="#STIXTwoText-787"/>
       <use xlink:href="#STIXTwoText-78b" transform="translate(49.5 0)"/>
       <use xlink:href="#STIXTwoText-786" transform="translate(99 0)"/>
      </g>
     </g>
    </g>
    <g id="text_14">
     <!-- far-tail CVaR$_{99.9}$ (m/s) -->
     <g style="fill: #262626" transform="translate(14.439 158.897) rotate(-90) scale(0.095 -0.095)">
      <defs>
       <path id="STIXTwoText-5" d="M 2330 -70 
Q 1670 -70 1222 211 
Q 774 493 547 985 
Q 320 1478 320 2099 
Q 320 2797 589 3283 
Q 858 3770 1331 4026 
Q 1805 4282 2419 4282 
Q 2758 4282 2963 4224 
Q 3168 4166 3289 4108 
Q 3411 4051 3488 4051 
Q 3565 4051 3606 4118 
Q 3648 4186 3706 4282 
L 3898 4282 
L 3898 2816 
L 3680 2816 
Q 3578 3443 3248 3724 
Q 2918 4006 2426 4006 
Q 1734 4006 1360 3513 
Q 986 3021 986 2163 
Q 986 1523 1181 1120 
Q 1376 717 1721 525 
Q 2067 333 2515 333 
Q 2957 333 3289 496 
Q 3622 659 3891 954 
L 4045 819 
Q 3872 563 3632 361 
Q 3392 160 3072 45 
Q 2752 -70 2330 -70 
z
" transform="scale(0.015625)"/>
       <path id="STIXTwoText-18" d="M 2330 -32 
L 2074 -32 
L 608 3430 
Q 518 3648 428 3773 
Q 339 3898 224 3955 
Q 109 4013 -64 4013 
L -64 4205 
L 1651 4205 
L 1651 4013 
Q 1568 4013 1465 4000 
Q 1363 3987 1289 3939 
Q 1216 3891 1216 3770 
Q 1216 3642 1325 3379 
L 2099 1478 
L 2349 806 
L 2381 806 
L 2605 1446 
L 3411 3482 
Q 3443 3552 3462 3632 
Q 3482 3712 3482 3795 
Q 3482 3923 3379 3968 
Q 3277 4013 3053 4013 
L 3053 4205 
L 4397 4205 
L 4397 4013 
Q 4262 4013 4169 3984 
Q 4077 3955 4003 3868 
Q 3930 3782 3846 3616 
Q 3763 3450 3648 3181 
L 2330 -32 
z
" transform="scale(0.015625)"/>
       <path id="STIXGeneral-Regular-1c" d="M 378 -141 
L 358 -13 
Q 1094 115 1603 608 
Q 2112 1101 2304 1882 
Q 1933 1517 1344 1517 
Q 826 1517 509 1875 
Q 192 2234 192 2816 
Q 192 3462 573 3894 
Q 954 4326 1523 4326 
Q 2131 4326 2528 3840 
Q 2938 3328 2938 2522 
Q 2938 1958 2742 1462 
Q 2547 966 2170 621 
Q 1773 262 1395 105 
Q 1018 -51 378 -141 
z
M 2317 2272 
L 2317 2522 
Q 2317 4147 1472 4147 
Q 1171 4147 1005 3930 
Q 909 3802 845 3546 
Q 781 3290 781 3034 
Q 781 2464 995 2128 
Q 1210 1792 1568 1792 
Q 1824 1792 2070 1917 
Q 2317 2042 2317 2272 
z
" transform="scale(0.015625)"/>
       <path id="STIXGeneral-Regular-11" d="M 1158 275 
Q 1158 134 1052 32 
Q 947 -70 800 -70 
Q 653 -70 550 32 
Q 448 134 448 281 
Q 448 429 553 534 
Q 659 640 806 640 
Q 947 640 1052 531 
Q 1158 422 1158 275 
z
" transform="scale(0.015625)"/>
       <path id="STIXTwoText-72d" d="M 589 -570 
L 230 -570 
L 1901 4538 
L 2253 4538 
L 589 -570 
z
" transform="scale(0.015625)"/>
      </defs>
      <use xlink:href="#STIXTwoText-104"/>
      <use xlink:href="#STIXTwoText-ff" transform="translate(30.699966 0)"/>
      <use xlink:href="#STIXTwoText-111" transform="translate(78.699921 0)"/>
      <use xlink:href="#STIXTwoText-73c" transform="translate(116.69989 0)"/>
      <use xlink:href="#STIXTwoText-113" transform="translate(148.19986 0)"/>
      <use xlink:href="#STIXTwoText-ff" transform="translate(179.699829 0)"/>
      <use xlink:href="#STIXTwoText-107" transform="translate(227.699783 0)"/>
      <use xlink:href="#STIXTwoText-10b" transform="translate(256.199753 0)"/>
      <use xlink:href="#STIXTwoText-1" transform="translate(284.499725 0)"/>
      <use xlink:href="#STIXTwoText-5" transform="translate(307.99971 0)"/>
      <use xlink:href="#STIXTwoText-18" transform="translate(374.999649 0)"/>
      <use xlink:href="#STIXTwoText-ff" transform="translate(442.999588 0)"/>
      <use xlink:href="#STIXTwoText-14" transform="translate(490.999542 0)"/>
      <use xlink:href="#STIXGeneral-Regular-1c" transform="translate(558.474475 -15) scale(0.7)"/>
      <use xlink:href="#STIXGeneral-Regular-1c" transform="translate(593.474443 -15) scale(0.7)"/>
      <use xlink:href="#STIXGeneral-Regular-11" transform="translate(628.474411 -15) scale(0.7)"/>
      <use xlink:href="#STIXGeneral-Regular-1c" transform="translate(645.97439 -15) scale(0.7)"/>
      <use xlink:href="#STIXTwoText-1" transform="translate(685.474358 0)"/>
      <use xlink:href="#STIXTwoText-731" transform="translate(708.974342 0)"/>
      <use xlink:href="#STIXTwoText-10c" transform="translate(743.274315 0)"/>
      <use xlink:href="#STIXTwoText-72d" transform="translate(828.474236 0)"/>
      <use xlink:href="#STIXTwoText-112" transform="translate(867.174202 0)"/>
      <use xlink:href="#STIXTwoText-732" transform="translate(906.674171 0)"/>
     </g>
    </g>
   </g>
   <g id="patch_3">
    <path d="M 42.8225 207.579 
L 42.8225 20.82 
" style="fill: none; stroke: #bbbbbb; stroke-width: 0.8; stroke-linejoin: miter; stroke-linecap: square"/>
   </g>
   <g id="patch_4">
    <path d="M 508.016145 207.579 
L 508.016145 20.82 
" style="fill: none; stroke: #bbbbbb; stroke-width: 0.8; stroke-linejoin: miter; stroke-linecap: square"/>
   </g>
   <g id="patch_5">
    <path d="M 42.8225 207.579 
L 508.016145 207.579 
" style="fill: none; stroke: #bbbbbb; stroke-width: 0.8; stroke-linejoin: miter; stroke-linecap: square"/>
   </g>
   <g id="patch_6">
    <path d="M 42.8225 20.82 
L 508.016145 20.82 
" style="fill: none; stroke: #bbbbbb; stroke-width: 0.8; stroke-linejoin: miter; stroke-linecap: square"/>
   </g>
   <g id="text_15">
    <!-- Spearman $\rho$ = 0.91 (n = 11, descriptive) -->
    <g style="fill: #444444" transform="translate(52.126373 35.82986) scale(0.085 -0.085)">
     <defs>
      <path id="STIXGeneral-Italic-210" d="M -58 -864 
L 422 966 
Q 640 1811 1081 2316 
Q 1523 2822 2042 2822 
Q 2189 2822 2278 2816 
Q 2368 2810 2525 2765 
Q 2682 2720 2774 2633 
Q 2867 2547 2940 2371 
Q 3014 2195 3014 1946 
Q 3014 1210 2403 570 
Q 1792 -70 1107 -70 
Q 864 -70 672 38 
L 442 -864 
Q 378 -1126 243 -1312 
L -256 -1312 
Q -128 -1114 -58 -864 
z
M 2445 1997 
Q 2445 2291 2333 2489 
Q 2221 2688 2022 2688 
Q 1747 2688 1472 2361 
Q 1197 2035 1056 1530 
Q 762 467 762 288 
Q 762 186 851 118 
Q 941 51 1075 51 
Q 1472 58 1798 390 
Q 2125 723 2285 1161 
Q 2445 1600 2445 1997 
z
" transform="scale(0.015625)"/>
      <path id="STIXTwoText-821" d="M 4211 2189 
L 397 2189 
L 397 2624 
L 4211 2624 
L 4211 2189 
z
M 4211 672 
L 397 672 
L 397 1101 
L 4211 1101 
L 4211 672 
z
" transform="scale(0.015625)"/>
      <path id="STIXTwoText-78f" d="M 544 -83 
L 531 102 
Q 973 154 1344 362 
Q 1715 570 1961 931 
Q 2208 1293 2278 1811 
L 2240 1818 
Q 2022 1619 1833 1520 
Q 1645 1421 1402 1421 
Q 877 1421 563 1776 
Q 250 2131 250 2765 
Q 250 3411 592 3772 
Q 934 4134 1536 4134 
Q 2016 4134 2310 3897 
Q 2605 3661 2742 3264 
Q 2880 2867 2880 2394 
Q 2880 1773 2713 1312 
Q 2547 851 2240 540 
Q 1933 230 1504 76 
Q 1075 -77 544 -83 
z
M 1594 1798 
Q 1875 1798 2089 1968 
Q 2304 2138 2304 2547 
Q 2304 2950 2224 3257 
Q 2144 3565 1968 3741 
Q 1792 3917 1510 3917 
Q 1197 3917 1001 3667 
Q 806 3418 806 2803 
Q 806 2355 1001 2076 
Q 1197 1798 1594 1798 
z
" transform="scale(0.015625)"/>
     </defs>
     <use xlink:href="#STIXTwoText-15"/>
     <use xlink:href="#STIXTwoText-10f" transform="translate(50.399948 0)"/>
     <use xlink:href="#STIXTwoText-103" transform="translate(104.099899 0)"/>
     <use xlink:href="#STIXTwoText-ff" transform="translate(150.499863 0)"/>
     <use xlink:href="#STIXTwoText-111" transform="translate(198.499817 0)"/>
     <use xlink:href="#STIXTwoText-10c" transform="translate(236.499786 0)"/>
     <use xlink:href="#STIXTwoText-ff" transform="translate(321.699707 0)"/>
     <use xlink:href="#STIXTwoText-10d" transform="translate(369.699661 0)"/>
     <use xlink:href="#STIXTwoText-1" transform="translate(427.299606 0)"/>
     <use xlink:href="#STIXGeneral-Italic-210" transform="translate(450.799591 0)"/>
     <use xlink:href="#STIXTwoText-1" transform="translate(501.199539 0)"/>
     <use xlink:href="#STIXTwoText-821" transform="translate(524.699524 0)"/>
     <use xlink:href="#STIXTwoText-1" transform="translate(596.699463 0)"/>
     <use xlink:href="#STIXTwoText-786" transform="translate(620.199448 0)"/>
     <use xlink:href="#STIXTwoText-725" transform="translate(669.699402 0)"/>
     <use xlink:href="#STIXTwoText-78f" transform="translate(694.199371 0)"/>
     <use xlink:href="#STIXTwoText-787" transform="translate(743.699326 0)"/>
     <use xlink:href="#STIXTwoText-1" transform="translate(793.19928 0)"/>
     <use xlink:href="#STIXTwoText-731" transform="translate(816.699265 0)"/>
     <use xlink:href="#STIXTwoText-10d" transform="translate(850.999237 0)"/>
     <use xlink:href="#STIXTwoText-1" transform="translate(908.599182 0)"/>
     <use xlink:href="#STIXTwoText-821" transform="translate(932.099167 0)"/>
     <use xlink:href="#STIXTwoText-1" transform="translate(1004.099106 0)"/>
     <use xlink:href="#STIXTwoText-787" transform="translate(1027.599091 0)"/>
     <use xlink:href="#STIXTwoText-787" transform="translate(1077.099045 0)"/>
     <use xlink:href="#STIXTwoText-721" transform="translate(1126.598999 0)"/>
     <use xlink:href="#STIXTwoText-1" transform="translate(1151.098969 0)"/>
     <use xlink:href="#STIXTwoText-102" transform="translate(1174.598953 0)"/>
     <use xlink:href="#STIXTwoText-103" transform="translate(1228.498901 0)"/>
     <use xlink:href="#STIXTwoText-112" transform="translate(1274.898865 0)"/>
     <use xlink:href="#STIXTwoText-101" transform="translate(1314.398834 0)"/>
     <use xlink:href="#STIXTwoText-111" transform="translate(1358.998795 0)"/>
     <use xlink:href="#STIXTwoText-107" transform="translate(1396.998764 0)"/>
     <use xlink:href="#STIXTwoText-10f" transform="translate(1425.498734 0)"/>
     <use xlink:href="#STIXTwoText-113" transform="translate(1479.198685 0)"/>
     <use xlink:href="#STIXTwoText-107" transform="translate(1510.698654 0)"/>
     <use xlink:href="#STIXTwoText-115" transform="translate(1539.198624 0)"/>
     <use xlink:href="#STIXTwoText-103" transform="translate(1587.298584 0)"/>
     <use xlink:href="#STIXTwoText-732" transform="translate(1633.698547 0)"/>
    </g>
    <!-- within-family: identically ordered -->
    <g style="fill: #444444" transform="translate(52.126373 46.45486) scale(0.085 -0.085)">
     <defs>
      <path id="STIXTwoText-116" d="M 3450 -38 
L 3142 -38 
L 2432 1914 
L 2342 2093 
L 2240 2374 
Q 2163 2586 2096 2685 
Q 2029 2784 1939 2813 
Q 1850 2842 1709 2842 
L 1709 3027 
L 3046 3027 
L 3046 2842 
Q 2867 2842 2796 2800 
Q 2726 2758 2726 2682 
Q 2726 2624 2742 2557 
Q 2758 2490 2784 2419 
L 3302 1018 
L 3418 646 
L 3456 646 
L 3584 1018 
L 4090 2451 
Q 4096 2477 4112 2537 
Q 4128 2598 4128 2682 
Q 4128 2771 4038 2806 
Q 3949 2842 3770 2842 
L 3770 3027 
L 4877 3027 
L 4877 2842 
Q 4691 2842 4595 2755 
Q 4499 2669 4403 2419 
L 3450 -38 
z
M 1690 -38 
L 1395 -38 
L 435 2374 
Q 352 2573 281 2672 
Q 211 2771 121 2806 
Q 32 2842 -109 2842 
L -109 3027 
L 1267 3027 
L 1267 2842 
Q 1075 2842 1001 2800 
Q 928 2758 928 2682 
Q 928 2618 950 2560 
Q 973 2502 998 2432 
L 1555 1018 
L 1670 646 
L 1715 646 
L 1850 1018 
L 2336 2246 
L 2547 1824 
L 2438 1824 
L 1690 -38 
z
" transform="scale(0.015625)"/>
      <path id="STIXTwoText-106" d="M 3558 0 
L 2086 0 
L 2086 186 
Q 2310 186 2406 230 
Q 2502 275 2528 371 
Q 2554 467 2554 621 
L 2554 1728 
Q 2554 1990 2515 2211 
Q 2477 2432 2352 2563 
Q 2227 2694 1965 2694 
Q 1766 2694 1561 2588 
Q 1357 2483 1094 2227 
L 1101 2579 
L 1190 2579 
Q 1491 2861 1731 2982 
Q 1971 3104 2227 3104 
Q 2502 3104 2672 2995 
Q 2842 2886 2931 2710 
Q 3021 2534 3053 2326 
Q 3085 2118 3085 1920 
L 3085 646 
Q 3085 390 3171 288 
Q 3258 186 3558 186 
L 3558 0 
z
M 1645 0 
L 192 0 
L 192 186 
Q 442 186 541 256 
Q 640 326 640 595 
L 640 3872 
Q 640 4038 547 4083 
Q 454 4128 326 4128 
Q 250 4128 195 4121 
Q 141 4115 141 4115 
L 141 4294 
L 998 4518 
L 1171 4518 
L 1171 621 
Q 1171 454 1196 358 
Q 1222 262 1324 224 
Q 1427 186 1645 186 
L 1645 0 
z
" transform="scale(0.015625)"/>
      <path id="STIXTwoText-118" d="M 493 -1504 
Q 294 -1504 166 -1427 
Q 38 -1350 38 -1171 
Q 38 -1024 124 -960 
Q 211 -896 333 -896 
Q 499 -896 630 -966 
Q 762 -1037 826 -1037 
Q 915 -1037 1017 -899 
Q 1120 -762 1219 -570 
Q 1318 -378 1379 -208 
Q 1440 -38 1440 32 
Q 1440 96 1373 262 
Q 1306 429 1248 557 
L 307 2611 
Q 262 2720 179 2781 
Q 96 2842 -77 2842 
L -77 3027 
L 1293 3027 
L 1293 2835 
Q 1075 2835 1001 2793 
Q 928 2752 928 2669 
Q 928 2605 960 2531 
Q 992 2458 1018 2387 
L 1645 979 
L 1728 666 
L 1773 666 
L 2394 2522 
Q 2406 2554 2416 2602 
Q 2426 2650 2426 2682 
Q 2426 2778 2326 2810 
Q 2227 2842 2067 2842 
L 2067 3027 
L 3155 3027 
L 3155 2842 
Q 2963 2842 2873 2755 
Q 2784 2669 2714 2483 
L 1715 -141 
Q 1530 -627 1354 -928 
Q 1178 -1229 973 -1366 
Q 768 -1504 493 -1504 
z
" transform="scale(0.015625)"/>
      <path id="STIXTwoText-724" d="M 838 -51 
Q 646 -51 553 57 
Q 461 166 461 326 
Q 461 493 563 611 
Q 666 730 845 730 
Q 1030 730 1132 608 
Q 1235 486 1235 320 
Q 1235 173 1132 61 
Q 1030 -51 838 -51 
z
M 838 2279 
Q 646 2279 553 2387 
Q 461 2496 461 2656 
Q 461 2823 563 2941 
Q 666 3060 845 3060 
Q 1030 3060 1132 2938 
Q 1235 2816 1235 2650 
Q 1235 2503 1132 2391 
Q 1030 2279 838 2279 
z
" transform="scale(0.015625)"/>
     </defs>
     <use xlink:href="#STIXTwoText-116"/>
     <use xlink:href="#STIXTwoText-107" transform="translate(74.90625 0)"/>
     <use xlink:href="#STIXTwoText-113" transform="translate(103.40625 0)"/>
     <use xlink:href="#STIXTwoText-106" transform="translate(134.90625 0)"/>
     <use xlink:href="#STIXTwoText-107" transform="translate(192.609375 0)"/>
     <use xlink:href="#STIXTwoText-10d" transform="translate(221.109375 0)"/>
     <use xlink:href="#STIXTwoText-73c" transform="translate(278.703125 0)"/>
     <use xlink:href="#STIXTwoText-104" transform="translate(310.203125 0)"/>
     <use xlink:href="#STIXTwoText-ff" transform="translate(340.90625 0)"/>
     <use xlink:href="#STIXTwoText-10c" transform="translate(388.90625 0)"/>
     <use xlink:href="#STIXTwoText-107" transform="translate(474.109375 0)"/>
     <use xlink:href="#STIXTwoText-10b" transform="translate(502.609375 0)"/>
     <use xlink:href="#STIXTwoText-118" transform="translate(530.90625 0)"/>
     <use xlink:href="#STIXTwoText-724" transform="translate(579.203125 0)"/>
     <use xlink:href="#STIXTwoText-1" transform="translate(603.703125 0)"/>
     <use xlink:href="#STIXTwoText-107" transform="translate(627.203125 0)"/>
     <use xlink:href="#STIXTwoText-102" transform="translate(655.703125 0)"/>
     <use xlink:href="#STIXTwoText-103" transform="translate(709.609375 0)"/>
     <use xlink:href="#STIXTwoText-10d" transform="translate(756.015625 0)"/>
     <use xlink:href="#STIXTwoText-113" transform="translate(813.609375 0)"/>
     <use xlink:href="#STIXTwoText-107" transform="translate(845.109375 0)"/>
     <use xlink:href="#STIXTwoText-101" transform="translate(873.609375 0)"/>
     <use xlink:href="#STIXTwoText-ff" transform="translate(918.203125 0)"/>
     <use xlink:href="#STIXTwoText-10b" transform="translate(966.203125 0)"/>
     <use xlink:href="#STIXTwoText-10b" transform="translate(994.5 0)"/>
     <use xlink:href="#STIXTwoText-118" transform="translate(1022.796875 0)"/>
     <use xlink:href="#STIXTwoText-1" transform="translate(1071.09375 0)"/>
     <use xlink:href="#STIXTwoText-10e" transform="translate(1094.59375 0)"/>
     <use xlink:href="#STIXTwoText-111" transform="translate(1146 0)"/>
     <use xlink:href="#STIXTwoText-102" transform="translate(1183 0)"/>
     <use xlink:href="#STIXTwoText-103" transform="translate(1236.90625 0)"/>
     <use xlink:href="#STIXTwoText-111" transform="translate(1283.3125 0)"/>
     <use xlink:href="#STIXTwoText-103" transform="translate(1320.3125 0)"/>
     <use xlink:href="#STIXTwoText-102" transform="translate(1366.71875 0)"/>
    </g>
    <!-- between families: offsets decide -->
    <g style="fill: #444444" transform="translate(52.126373 57.07986) scale(0.085 -0.085)">
     <defs>
      <path id="STIXTwoText-28f" d="M 1779 0 
L 115 0 
L 115 186 
Q 352 186 464 227 
Q 576 269 614 390 
Q 653 512 653 762 
L 653 2726 
L 166 2726 
L 166 2995 
L 653 2995 
Q 653 3238 672 3424 
Q 691 3610 736 3760 
Q 781 3910 864 4058 
Q 992 4282 1197 4410 
Q 1402 4538 1741 4538 
Q 2054 4538 2259 4419 
Q 2464 4301 2464 4090 
Q 2464 3949 2387 3878 
Q 2310 3808 2202 3808 
Q 2074 3808 1994 3881 
Q 1914 3955 1853 4051 
Q 1792 4147 1718 4220 
Q 1645 4294 1523 4294 
Q 1344 4294 1267 4134 
Q 1190 3974 1190 3571 
L 1190 2995 
L 2298 2995 
L 2298 2726 
L 1190 2726 
L 1190 762 
Q 1190 512 1241 390 
Q 1293 269 1421 227 
Q 1549 186 1779 186 
L 1779 0 
z
" transform="scale(0.015625)"/>
     </defs>
     <use xlink:href="#STIXTwoText-100"/>
     <use xlink:href="#STIXTwoText-103" transform="translate(52.203125 0)"/>
     <use xlink:href="#STIXTwoText-113" transform="translate(98.609375 0)"/>
     <use xlink:href="#STIXTwoText-116" transform="translate(130.109375 0)"/>
     <use xlink:href="#STIXTwoText-103" transform="translate(204.515625 0)"/>
     <use xlink:href="#STIXTwoText-103" transform="translate(250.921875 0)"/>
     <use xlink:href="#STIXTwoText-10d" transform="translate(297.328125 0)"/>
     <use xlink:href="#STIXTwoText-1" transform="translate(354.921875 0)"/>
     <use xlink:href="#STIXTwoText-104" transform="translate(378.421875 0)"/>
     <use xlink:href="#STIXTwoText-ff" transform="translate(409.125 0)"/>
     <use xlink:href="#STIXTwoText-10c" transform="translate(457.125 0)"/>
     <use xlink:href="#STIXTwoText-107" transform="translate(542.328125 0)"/>
     <use xlink:href="#STIXTwoText-10b" transform="translate(570.828125 0)"/>
     <use xlink:href="#STIXTwoText-107" transform="translate(599.125 0)"/>
     <use xlink:href="#STIXTwoText-103" transform="translate(627.625 0)"/>
     <use xlink:href="#STIXTwoText-112" transform="translate(674.03125 0)"/>
     <use xlink:href="#STIXTwoText-724" transform="translate(713.53125 0)"/>
     <use xlink:href="#STIXTwoText-1" transform="translate(738.03125 0)"/>
     <use xlink:href="#STIXTwoText-10e" transform="translate(761.53125 0)"/>
     <use xlink:href="#STIXTwoText-28f" transform="translate(812.9375 0)"/>
     <use xlink:href="#STIXTwoText-104" transform="translate(843.140625 0)"/>
     <use xlink:href="#STIXTwoText-112" transform="translate(873.84375 0)"/>
     <use xlink:href="#STIXTwoText-103" transform="translate(913.34375 0)"/>
     <use xlink:href="#STIXTwoText-113" transform="translate(959.75 0)"/>
     <use xlink:href="#STIXTwoText-112" transform="translate(991.25 0)"/>
     <use xlink:href="#STIXTwoText-1" transform="translate(1030.75 0)"/>
     <use xlink:href="#STIXTwoText-102" transform="translate(1054.25 0)"/>
     <use xlink:href="#STIXTwoText-103" transform="translate(1108.15625 0)"/>
     <use xlink:href="#STIXTwoText-101" transform="translate(1154.5625 0)"/>
     <use xlink:href="#STIXTwoText-107" transform="translate(1199.15625 0)"/>
     <use xlink:href="#STIXTwoText-102" transform="translate(1227.65625 0)"/>
     <use xlink:href="#STIXTwoText-103" transform="translate(1281.5625 0)"/>
    </g>
   </g>
   <g id="text_16">
    <!-- infeasible -->
    <g style="fill: #6a51a3" transform="translate(72.193939 194.016171) scale(0.08 -0.08)">
     <use xlink:href="#STIXTwoText-107"/>
     <use xlink:href="#STIXTwoText-10d" transform="translate(28.5 0)"/>
     <use xlink:href="#STIXTwoText-104" transform="translate(86.09375 0)"/>
     <use xlink:href="#STIXTwoText-103" transform="translate(116.796875 0)"/>
     <use xlink:href="#STIXTwoText-ff" transform="translate(163.203125 0)"/>
     <use xlink:href="#STIXTwoText-112" transform="translate(211.203125 0)"/>
     <use xlink:href="#STIXTwoText-107" transform="translate(250.703125 0)"/>
     <use xlink:href="#STIXTwoText-100" transform="translate(279.203125 0)"/>
     <use xlink:href="#STIXTwoText-10b" transform="translate(331.40625 0)"/>
     <use xlink:href="#STIXTwoText-103" transform="translate(359.703125 0)"/>
    </g>
    <!-- (heat load) -->
    <g style="fill: #6a51a3" transform="translate(72.193939 204.016171) scale(0.08 -0.08)">
     <use xlink:href="#STIXTwoText-731"/>
     <use xlink:href="#STIXTwoText-106" transform="translate(34.296875 0)"/>
     <use xlink:href="#STIXTwoText-103" transform="translate(92 0)"/>
     <use xlink:href="#STIXTwoText-ff" transform="translate(138.40625 0)"/>
     <use xlink:href="#STIXTwoText-113" transform="translate(186.40625 0)"/>
     <use xlink:href="#STIXTwoText-1" transform="translate(217.90625 0)"/>
     <use xlink:href="#STIXTwoText-10b" transform="translate(241.40625 0)"/>
     <use xlink:href="#STIXTwoText-10e" transform="translate(269.703125 0)"/>
     <use xlink:href="#STIXTwoText-ff" transform="translate(321.109375 0)"/>
     <use xlink:href="#STIXTwoText-102" transform="translate(369.109375 0)"/>
     <use xlink:href="#STIXTwoText-732" transform="translate(423.015625 0)"/>
    </g>
   </g>
   <g id="text_17">
    <!-- Validation loss vs the sizing tail (11 converged runs) -->
    <g style="fill: #262626" transform="translate(42.8225 14.82) scale(0.1 -0.1)">
     <defs>
      <path id="STIXTwoText-119" d="M 2656 0 
L 198 0 
L 198 186 
L 1997 2739 
L 1997 2758 
L 1133 2758 
Q 781 2758 662 2582 
Q 544 2406 499 2086 
L 301 2086 
L 333 3027 
L 2694 3027 
L 2694 2842 
L 896 282 
L 896 262 
L 1696 262 
Q 1971 262 2124 329 
Q 2278 397 2361 563 
Q 2445 730 2509 1024 
L 2720 1024 
L 2656 0 
z
" transform="scale(0.015625)"/>
      <path id="STIXTwoText-105" d="M 1222 -1504 
Q 806 -1504 566 -1401 
Q 326 -1299 230 -1136 
Q 134 -973 134 -800 
Q 134 -640 265 -464 
Q 397 -288 653 -38 
L 653 32 
L 845 -6 
Q 723 -211 678 -342 
Q 634 -474 634 -582 
Q 634 -858 870 -998 
Q 1107 -1139 1594 -1139 
Q 1971 -1139 2204 -1043 
Q 2438 -947 2544 -806 
Q 2650 -666 2650 -531 
Q 2650 -358 2538 -265 
Q 2426 -173 2253 -134 
Q 2080 -96 1888 -86 
Q 1696 -77 1536 -77 
Q 1248 -70 1101 -70 
Q 954 -70 890 -67 
Q 826 -64 774 -64 
L 710 -32 
Q 614 0 518 70 
Q 422 141 358 240 
Q 294 339 294 448 
Q 294 563 361 688 
Q 429 813 550 937 
Q 672 1062 819 1178 
L 819 1235 
L 986 1114 
Q 954 1082 909 998 
Q 864 915 832 822 
Q 800 730 800 666 
Q 800 570 867 515 
Q 934 461 1097 435 
Q 1261 410 1555 410 
Q 1958 410 2281 371 
Q 2605 333 2790 173 
Q 2976 13 2976 -352 
Q 2976 -672 2819 -893 
Q 2662 -1114 2403 -1248 
Q 2144 -1382 1833 -1443 
Q 1523 -1504 1222 -1504 
z
M 1517 998 
Q 1350 998 1206 1030 
Q 1062 1062 928 1107 
L 858 1171 
Q 691 1261 572 1382 
Q 454 1504 390 1673 
Q 326 1843 326 2061 
Q 326 2381 473 2614 
Q 621 2848 883 2976 
Q 1146 3104 1485 3104 
Q 1677 3104 1846 3069 
Q 2016 3034 2163 2963 
Q 2310 2893 2419 2797 
L 2419 2630 
Q 2490 2534 2570 2374 
Q 2650 2214 2650 1971 
Q 2650 1677 2506 1456 
Q 2362 1235 2109 1116 
Q 1856 998 1517 998 
z
M 1523 1222 
Q 1766 1222 1923 1388 
Q 2080 1555 2080 2010 
Q 2080 2400 1913 2637 
Q 1747 2874 1440 2874 
Q 1190 2874 1040 2682 
Q 890 2490 890 2086 
Q 890 1677 1050 1449 
Q 1210 1222 1523 1222 
z
M 3021 2989 
L 3021 2643 
L 2330 2662 
L 2106 2938 
L 3021 2989 
z
" transform="scale(0.015625)"/>
     </defs>
     <use xlink:href="#STIXTwoText-18"/>
     <use xlink:href="#STIXTwoText-ff" transform="translate(62 0)"/>
     <use xlink:href="#STIXTwoText-10b" transform="translate(110 0)"/>
     <use xlink:href="#STIXTwoText-107" transform="translate(138.296875 0)"/>
     <use xlink:href="#STIXTwoText-102" transform="translate(166.796875 0)"/>
     <use xlink:href="#STIXTwoText-ff" transform="translate(220.703125 0)"/>
     <use xlink:href="#STIXTwoText-113" transform="translate(268.703125 0)"/>
     <use xlink:href="#STIXTwoText-107" transform="translate(300.203125 0)"/>
     <use xlink:href="#STIXTwoText-10e" transform="translate(328.703125 0)"/>
     <use xlink:href="#STIXTwoText-10d" transform="translate(380.109375 0)"/>
     <use xlink:href="#STIXTwoText-1" transform="translate(437.703125 0)"/>
     <use xlink:href="#STIXTwoText-10b" transform="translate(461.203125 0)"/>
     <use xlink:href="#STIXTwoText-10e" transform="translate(489.5 0)"/>
     <use xlink:href="#STIXTwoText-112" transform="translate(540.90625 0)"/>
     <use xlink:href="#STIXTwoText-112" transform="translate(580.40625 0)"/>
     <use xlink:href="#STIXTwoText-1" transform="translate(619.90625 0)"/>
     <use xlink:href="#STIXTwoText-115" transform="translate(643.40625 0)"/>
     <use xlink:href="#STIXTwoText-112" transform="translate(691.5 0)"/>
     <use xlink:href="#STIXTwoText-1" transform="translate(731 0)"/>
     <use xlink:href="#STIXTwoText-113" transform="translate(754.5 0)"/>
     <use xlink:href="#STIXTwoText-106" transform="translate(786 0)"/>
     <use xlink:href="#STIXTwoText-103" transform="translate(843.703125 0)"/>
     <use xlink:href="#STIXTwoText-1" transform="translate(890.109375 0)"/>
     <use xlink:href="#STIXTwoText-112" transform="translate(913.609375 0)"/>
     <use xlink:href="#STIXTwoText-107" transform="translate(953.109375 0)"/>
     <use xlink:href="#STIXTwoText-119" transform="translate(981.609375 0)"/>
     <use xlink:href="#STIXTwoText-107" transform="translate(1027.40625 0)"/>
     <use xlink:href="#STIXTwoText-10d" transform="translate(1055.90625 0)"/>
     <use xlink:href="#STIXTwoText-105" transform="translate(1113.5 0)"/>
     <use xlink:href="#STIXTwoText-1" transform="translate(1161.90625 0)"/>
     <use xlink:href="#STIXTwoText-113" transform="translate(1185.40625 0)"/>
     <use xlink:href="#STIXTwoText-ff" transform="translate(1216.90625 0)"/>
     <use xlink:href="#STIXTwoText-107" transform="translate(1264.90625 0)"/>
     <use xlink:href="#STIXTwoText-10b" transform="translate(1293.40625 0)"/>
     <use xlink:href="#STIXTwoText-1" transform="translate(1321.703125 0)"/>
     <use xlink:href="#STIXTwoText-731" transform="translate(1345.203125 0)"/>
     <use xlink:href="#STIXTwoText-787" transform="translate(1379.5 0)"/>
     <use xlink:href="#STIXTwoText-787" transform="translate(1429 0)"/>
     <use xlink:href="#STIXTwoText-1" transform="translate(1478.5 0)"/>
     <use xlink:href="#STIXTwoText-101" transform="translate(1502 0)"/>
     <use xlink:href="#STIXTwoText-10e" transform="translate(1546.59375 0)"/>
     <use xlink:href="#STIXTwoText-10d" transform="translate(1598 0)"/>
     <use xlink:href="#STIXTwoText-115" transform="translate(1653.09375 0)"/>
     <use xlink:href="#STIXTwoText-103" transform="translate(1700.6875 0)"/>
     <use xlink:href="#STIXTwoText-111" transform="translate(1747.09375 0)"/>
     <use xlink:href="#STIXTwoText-105" transform="translate(1785.09375 0)"/>
     <use xlink:href="#STIXTwoText-103" transform="translate(1834 0)"/>
     <use xlink:href="#STIXTwoText-102" transform="translate(1880.40625 0)"/>
     <use xlink:href="#STIXTwoText-1" transform="translate(1934.3125 0)"/>
     <use xlink:href="#STIXTwoText-111" transform="translate(1957.8125 0)"/>
     <use xlink:href="#STIXTwoText-114" transform="translate(1995.8125 0)"/>
     <use xlink:href="#STIXTwoText-10d" transform="translate(2052.8125 0)"/>
     <use xlink:href="#STIXTwoText-112" transform="translate(2110.40625 0)"/>
     <use xlink:href="#STIXTwoText-732" transform="translate(2149.90625 0)"/>
    </g>
   </g>
   <g id="PathCollection_1">
    <defs>
     <path id="mcb53528427" d="M 0 4.1833 
C 1.109424 4.1833 2.173559 3.742521 2.95804 2.95804 
C 3.742521 2.173559 4.1833 1.109424 4.1833 0 
C 4.1833 -1.109424 3.742521 -2.173559 2.95804 -2.95804 
C 2.173559 -3.742521 1.109424 -4.1833 0 -4.1833 
C -1.109424 -4.1833 -2.173559 -3.742521 -2.95804 -2.95804 
C -3.742521 -2.173559 -4.1833 -1.109424 -4.1833 0 
C -4.1833 1.109424 -3.742521 2.173559 -2.95804 2.95804 
C -2.173559 3.742521 -1.109424 4.1833 0 4.1833 
z
" style="stroke: #ffffff; stroke-width: 0.8"/>
    </defs>
    <g clip-path="url(#p9c68911281)">
     <use xlink:href="#mcb53528427" x="172.415459" y="193.444457" style="fill: #1f6f3f; stroke: #ffffff; stroke-width: 0.8"/>
    </g>
   </g>
   <g id="PathCollection_2">
    <g clip-path="url(#p9c68911281)">
     <use xlink:href="#mcb53528427" x="350.086419" y="143.764079" style="fill: #1f6f3f; stroke: #ffffff; stroke-width: 0.8"/>
    </g>
   </g>
   <g id="PathCollection_3">
    <g clip-path="url(#p9c68911281)">
     <use xlink:href="#mcb53528427" x="144.641463" y="199.089955" style="fill: #1f6f3f; stroke: #ffffff; stroke-width: 0.8"/>
    </g>
   </g>
   <g id="PathCollection_4">
    <defs>
     <path id="m154850caf0" d="M 0 -7.416198 
L -1.66504 -2.291731 
L -7.053224 -2.291731 
L -2.694092 0.875363 
L -4.359132 5.999831 
L -0 2.832736 
L 4.359132 5.999831 
L 2.694092 0.875363 
L 7.053224 -2.291731 
L 1.66504 -2.291731 
z
" style="stroke: #ffffff; stroke-width: 0.8"/>
    </defs>
    <g clip-path="url(#p9c68911281)">
     <use xlink:href="#m154850caf0" x="63.967666" y="186.016171" style="fill: #6a51a3; stroke: #ffffff; stroke-width: 0.8"/>
    </g>
   </g>
   <g id="PathCollection_5">
    <defs>
     <path id="m3dfa1ab57f" d="M 0 4.1833 
C 1.109424 4.1833 2.173559 3.742521 2.95804 2.95804 
C 3.742521 2.173559 4.1833 1.109424 4.1833 0 
C 4.1833 -1.109424 3.742521 -2.173559 2.95804 -2.95804 
C 2.173559 -3.742521 1.109424 -4.1833 0 -4.1833 
C -1.109424 -4.1833 -2.173559 -3.742521 -2.95804 -2.95804 
C -3.742521 -2.173559 -4.1833 -1.109424 -4.1833 0 
C -4.1833 1.109424 -3.742521 2.173559 -2.95804 2.95804 
C -2.173559 3.742521 -1.109424 4.1833 0 4.1833 
z
" style="stroke: #ffffff; stroke-width: 0.8"/>
    </defs>
    <g clip-path="url(#p9c68911281)">
     <use xlink:href="#m3dfa1ab57f" x="434.166254" y="120.884958" style="fill: #6a51a3; stroke: #ffffff; stroke-width: 0.8"/>
    </g>
   </g>
   <g id="PathCollection_6">
    <g clip-path="url(#p9c68911281)">
     <use xlink:href="#m3dfa1ab57f" x="408.955159" y="145.368589" style="fill: #6a51a3; stroke: #ffffff; stroke-width: 0.8"/>
    </g>
   </g>
   <g id="PathCollection_7">
    <defs>
     <path id="m9849b54e69" d="M 0 4.1833 
C 1.109424 4.1833 2.173559 3.742521 2.95804 2.95804 
C 3.742521 2.173559 4.1833 1.109424 4.1833 0 
C 4.1833 -1.109424 3.742521 -2.173559 2.95804 -2.95804 
C 2.173559 -3.742521 1.109424 -4.1833 0 -4.1833 
C -1.109424 -4.1833 -2.173559 -3.742521 -2.95804 -2.95804 
C -3.742521 -2.173559 -4.1833 -1.109424 -4.1833 0 
C -4.1833 1.109424 -3.742521 2.173559 -2.95804 2.95804 
C -2.173559 3.742521 -1.109424 4.1833 0 4.1833 
z
" style="stroke: #ffffff; stroke-width: 0.8"/>
    </defs>
    <g clip-path="url(#p9c68911281)">
     <use xlink:href="#m9849b54e69" x="290.514132" y="169.139105" style="fill: #8c8c8c; stroke: #ffffff; stroke-width: 0.8"/>
    </g>
   </g>
   <g id="PathCollection_8">
    <defs>
     <path id="m00ca687b64" d="M 0 4.1833 
C 1.109424 4.1833 2.173559 3.742521 2.95804 2.95804 
C 3.742521 2.173559 4.1833 1.109424 4.1833 0 
C 4.1833 -1.109424 3.742521 -2.173559 2.95804 -2.95804 
C 2.173559 -3.742521 1.109424 -4.1833 0 -4.1833 
C -1.109424 -4.1833 -2.173559 -3.742521 -2.95804 -2.95804 
C -3.742521 -2.173559 -4.1833 -1.109424 -4.1833 0 
C -4.1833 1.109424 -3.742521 2.173559 -2.95804 2.95804 
C -2.173559 3.742521 -1.109424 4.1833 0 4.1833 
z
" style="stroke: #ffffff; stroke-width: 0.8"/>
    </defs>
    <g clip-path="url(#p9c68911281)">
     <use xlink:href="#m00ca687b64" x="162.358352" y="157.075568" style="fill: #4878cf; stroke: #ffffff; stroke-width: 0.8"/>
    </g>
   </g>
   <g id="PathCollection_9">
    <g clip-path="url(#p9c68911281)">
     <use xlink:href="#m00ca687b64" x="471.138495" y="87.36853" style="fill: #4878cf; stroke: #ffffff; stroke-width: 0.8"/>
    </g>
   </g>
   <g id="PathCollection_10">
    <g clip-path="url(#p9c68911281)">
     <use xlink:href="#m00ca687b64" x="486.870979" y="29.309045" style="fill: #4878cf; stroke: #ffffff; stroke-width: 0.8"/>
    </g>
   </g>
   <g id="PathCollection_11">
    <g clip-path="url(#p9c68911281)">
     <use xlink:href="#m00ca687b64" x="374.636194" y="141.743585" style="fill: #4878cf; stroke: #ffffff; stroke-width: 0.8"/>
    </g>
   </g>
   <g id="legend_1">
    <g id="patch_7">
     <path d="M 451.327395 203.579 
L 502.416145 203.579 
Q 504.016145 203.579 504.016145 201.979 
L 504.016145 154.779 
Q 504.016145 153.179 502.416145 153.179 
L 451.327395 153.179 
Q 449.727395 153.179 449.727395 154.779 
L 449.727395 201.979 
Q 449.727395 203.579 451.327395 203.579 
z
" style="fill: #ffffff; opacity: 0.9; stroke: #cccccc; stroke-linejoin: miter"/>
    </g>
    <g id="PathCollection_12">
     <g>
      <use xlink:href="#mcb53528427" x="460.927395" y="160.375" style="fill: #1f6f3f; stroke: #ffffff; stroke-width: 0.8"/>
     </g>
    </g>
    <g id="text_18">
     <!-- mamba -->
     <g style="fill: #262626" transform="translate(475.327395 162.475) scale(0.08 -0.08)">
      <use xlink:href="#STIXTwoText-10c"/>
      <use xlink:href="#STIXTwoText-ff" transform="translate(85.203125 0)"/>
      <use xlink:href="#STIXTwoText-10c" transform="translate(133.203125 0)"/>
      <use xlink:href="#STIXTwoText-100" transform="translate(218.40625 0)"/>
      <use xlink:href="#STIXTwoText-ff" transform="translate(270.609375 0)"/>
     </g>
    </g>
    <g id="PathCollection_13">
     <g>
      <use xlink:href="#m154850caf0" x="460.927395" y="172.375" style="fill: #6a51a3; stroke: #ffffff; stroke-width: 0.8"/>
     </g>
    </g>
    <g id="text_19">
     <!-- lstm -->
     <g style="fill: #262626" transform="translate(475.327395 174.475) scale(0.08 -0.08)">
      <use xlink:href="#STIXTwoText-10b"/>
      <use xlink:href="#STIXTwoText-112" transform="translate(28.296875 0)"/>
      <use xlink:href="#STIXTwoText-113" transform="translate(67.796875 0)"/>
      <use xlink:href="#STIXTwoText-10c" transform="translate(99.296875 0)"/>
     </g>
    </g>
    <g id="PathCollection_14">
     <g>
      <use xlink:href="#m9849b54e69" x="460.927395" y="184.375" style="fill: #8c8c8c; stroke: #ffffff; stroke-width: 0.8"/>
     </g>
    </g>
    <g id="text_20">
     <!-- gru -->
     <g style="fill: #262626" transform="translate(475.327395 186.475) scale(0.08 -0.08)">
      <use xlink:href="#STIXTwoText-105"/>
      <use xlink:href="#STIXTwoText-111" transform="translate(48.40625 0)"/>
      <use xlink:href="#STIXTwoText-114" transform="translate(86.40625 0)"/>
     </g>
    </g>
    <g id="PathCollection_15">
     <g>
      <use xlink:href="#m00ca687b64" x="460.927395" y="196.375" style="fill: #4878cf; stroke: #ffffff; stroke-width: 0.8"/>
     </g>
    </g>
    <g id="text_21">
     <!-- dense -->
     <g style="fill: #262626" transform="translate(475.327395 198.475) scale(0.08 -0.08)">
      <use xlink:href="#STIXTwoText-102"/>
      <use xlink:href="#STIXTwoText-103" transform="translate(53.90625 0)"/>
      <use xlink:href="#STIXTwoText-10d" transform="translate(100.3125 0)"/>
      <use xlink:href="#STIXTwoText-112" transform="translate(157.90625 0)"/>
      <use xlink:href="#STIXTwoText-103" transform="translate(197.40625 0)"/>
     </g>
    </g>
   </g>
  </g>
 </g>
 <defs>
  <clipPath id="p9c68911281">
   <rect x="42.8225" y="20.82" width="465.193645" height="186.759"/>
  </clipPath>
 </defs>
</svg>
