<?xml version="1.0" encoding="utf-8" standalone="no"?>
<!DOCTYPE svg PUBLIC "-//W3C//DTD SVG 1.1//EN"
  "http://www.w3.org/Graphics/SVG/1.1/DTD/svg11.dtd">
<svg xmlns:xlink="http://www.w3.org/1999/xlink" width="464.976pt" height="241.776pt" viewBox="0 0 464.976 241.776" xmlns="http://www.w3.org/2000/svg" version="1.1">
 <metadata>
  <rdf:RDF xmlns:dc="http://purl.org/dc/elements/1.1/" xmlns:cc="http://creativecommons.org/ns#" xmlns:rdf="http://www.w3.org/1999/02/22-rdf-syntax-ns#">
   <cc:Work>
    <dc:type rdf:resource="http://purl.org/dc/dcmitype/StillImage"/>
    <dc:date>2026-07-03T22:37:35.171937</dc:date>
    <dc:format>image/svg+xml</dc:format>
    <dc:creator>
     <cc:Agent>
      <dc:title>Matplotlib v3.10.9, https://matplotlib.org/</dc:title>
     </cc:Agent>
    </dc:creator>
   </cc:Work>
  </rdf:RDF>
 </metadata>
 <defs>
  <style type="text/css">*{stroke-linejoin: round; stroke-linecap: butt}</style>
 </defs>
 <g id="figure_1">
  <g id="patch_1">
   <path d="M 0 241.776 
L 464.976 241.776 
L 464.976 0 
L 0 0 
z
" style="fill: #ffffff"/>
  </g>
  <g id="axes_1">
   <g id="patch_2">
    <path d="M 184.649197 76.258181 
Q 157.491304 92.899463 135.307057 115.754277 
" clip-path="url(#pbb4dccef25)" style="fill: none; stroke: #777777; stroke-width: 1.2; stroke-linecap: round"/>
    <path d="M 178.856957 76.758139 
L 184.649197 76.258181 
L 181.57382 81.191948 
z
" clip-path="url(#pbb4dccef25)" style="fill: #777777; stroke: #777777; stroke-width: 1.2; stroke-linecap: round"/>
    <path d="M 140.79451 113.833895 
L 135.307057 115.754277 
L 137.063224 110.212086 
z
" clip-path="url(#pbb4dccef25)" style="fill: #777777; stroke: #777777; stroke-width: 1.2; stroke-linecap: round"/>
   </g>
   <g id="patch_3">
    <path d="M 153.481349 170.533703 
Q 232.485471 186.074523 311.48959 170.534682 
" clip-path="url(#pbb4dccef25)" style="fill: none; stroke: #777777; stroke-width: 1.2; stroke-linecap: round"/>
    <path d="M 158.081745 174.088467 
L 153.481349 170.533703 
L 159.085398 168.986244 
z
" clip-path="url(#pbb4dccef25)" style="fill: #777777; stroke: #777777; stroke-width: 1.2; stroke-linecap: round"/>
    <path d="M 305.885559 168.987157 
L 311.48959 170.534682 
L 306.889151 174.089392 
z
" clip-path="url(#pbb4dccef25)" style="fill: #777777; stroke: #777777; stroke-width: 1.2; stroke-linecap: round"/>
   </g>
   <g id="patch_4">
    <path d="M 329.669029 115.754365 
Q 307.484792 92.89954 280.326908 76.258246 
" clip-path="url(#pbb4dccef25)" style="fill: none; stroke: #777777; stroke-width: 1.2; stroke-linecap: round"/>
    <path d="M 327.912866 110.212173 
L 329.669029 115.754365 
L 324.181578 113.833981 
z
" clip-path="url(#pbb4dccef25)" style="fill: #777777; stroke: #777777; stroke-width: 1.2; stroke-linecap: round"/>
    <path d="M 283.402284 81.192014 
L 280.326908 76.258246 
L 286.119148 76.758207 
z
" clip-path="url(#pbb4dccef25)" style="fill: #777777; stroke: #777777; stroke-width: 1.2; stroke-linecap: round"/>
   </g>
   <g id="patch_5">
    <path d="M 169.40736 74.27592 
L 295.56864 74.27592 
Q 309.08592 74.27592 309.08592 67.45464 
L 309.08592 37.89576 
Q 309.08592 31.07448 295.56864 31.07448 
L 169.40736 31.07448 
Q 155.89008 31.07448 155.89008 37.89576 
L 155.89008 67.45464 
Q 155.89008 74.27592 169.40736 74.27592 
z
" clip-path="url(#pbb4dccef25)" style="fill: #1f6f3f; fill-opacity: 0.12549; stroke: #1f6f3f; stroke-width: 1.4; stroke-linejoin: miter"/>
   </g>
   <g id="patch_6">
    <path d="M 38.74032 178.86888 
L 164.9016 178.86888 
Q 178.41888 178.86888 178.41888 172.0476 
L 178.41888 142.48872 
Q 178.41888 135.66744 164.9016 135.66744 
L 38.74032 135.66744 
Q 25.22304 135.66744 25.22304 142.48872 
L 25.22304 172.0476 
Q 25.22304 178.86888 38.74032 178.86888 
z
" clip-path="url(#pbb4dccef25)" style="fill: #4878cf; fill-opacity: 0.12549; stroke: #4878cf; stroke-width: 1.4; stroke-linejoin: miter"/>
   </g>
   <g id="patch_7">
    <path d="M 300.0744 178.86888 
L 426.23568 178.86888 
Q 439.75296 178.86888 439.75296 172.0476 
L 439.75296 142.48872 
Q 439.75296 135.66744 426.23568 135.66744 
L 300.0744 135.66744 
Q 286.55712 135.66744 286.55712 142.48872 
L 286.55712 172.0476 
Q 286.55712 178.86888 300.0744 178.86888 
z
" clip-path="url(#pbb4dccef25)" style="fill: #d1701f; fill-opacity: 0.12549; stroke: #d1701f; stroke-width: 1.4; stroke-linejoin: miter"/>
   </g>
   <g id="text_1">
    <!-- Every $k$ generations each island's best $n$ individuals replace the worst in the others -->
    <g style="fill: #333333" transform="translate(85.888 221.028075) scale(0.08 -0.08)">
     <defs>
      <path id="ArialMT-45" d="M 506 0 
L 506 4581 
L 3819 4581 
L 3819 4041 
L 1113 4041 
L 1113 2638 
L 3647 2638 
L 3647 2100 
L 1113 2100 
L 1113 541 
L 3925 541 
L 3925 0 
L 506 0 
z
" transform="scale(0.015625)"/>
      <path id="ArialMT-76" d="M 1344 0 
L 81 3319 
L 675 3319 
L 1388 1331 
Q 1503 1009 1600 663 
Q 1675 925 1809 1294 
L 2547 3319 
L 3125 3319 
L 1869 0 
L 1344 0 
z
" transform="scale(0.015625)"/>
      <path id="ArialMT-65" d="M 2694 1069 
L 3275 997 
Q 3138 488 2766 206 
Q 2394 -75 1816 -75 
Q 1088 -75 661 373 
Q 234 822 234 1631 
Q 234 2469 665 2931 
Q 1097 3394 1784 3394 
Q 2450 3394 2872 2941 
Q 3294 2488 3294 1666 
Q 3294 1616 3291 1516 
L 816 1516 
Q 847 969 1125 678 
Q 1403 388 1819 388 
Q 2128 388 2347 550 
Q 2566 713 2694 1069 
z
M 847 1978 
L 2700 1978 
Q 2663 2397 2488 2606 
Q 2219 2931 1791 2931 
Q 1403 2931 1139 2672 
Q 875 2413 847 1978 
z
" transform="scale(0.015625)"/>
      <path id="ArialMT-72" d="M 416 0 
L 416 3319 
L 922 3319 
L 922 2816 
Q 1116 3169 1280 3281 
Q 1444 3394 1641 3394 
Q 1925 3394 2219 3213 
L 2025 2691 
Q 1819 2813 1613 2813 
Q 1428 2813 1281 2702 
Q 1134 2591 1072 2394 
Q 978 2094 978 1738 
L 978 0 
L 416 0 
z
" transform="scale(0.015625)"/>
      <path id="ArialMT-79" d="M 397 -1278 
L 334 -750 
Q 519 -800 656 -800 
Q 844 -800 956 -737 
Q 1069 -675 1141 -563 
Q 1194 -478 1313 -144 
Q 1328 -97 1363 -6 
L 103 3319 
L 709 3319 
L 1400 1397 
Q 1534 1031 1641 628 
Q 1738 1016 1872 1384 
L 2581 3319 
L 3144 3319 
L 1881 -56 
Q 1678 -603 1566 -809 
Q 1416 -1088 1222 -1217 
Q 1028 -1347 759 -1347 
Q 597 -1347 397 -1278 
z
" transform="scale(0.015625)"/>
      <path id="ArialMT-20" transform="scale(0.015625)"/>
      <path id="DejaVuSans-Oblique-6b" d="M 1172 4863 
L 1747 4863 
L 1197 2028 
L 3169 3500 
L 3916 3500 
L 1716 1825 
L 3322 0 
L 2625 0 
L 1131 1709 
L 800 0 
L 225 0 
L 1172 4863 
z
" transform="scale(0.015625)"/>
      <path id="ArialMT-67" d="M 319 -275 
L 866 -356 
Q 900 -609 1056 -725 
Q 1266 -881 1628 -881 
Q 2019 -881 2231 -725 
Q 2444 -569 2519 -288 
Q 2563 -116 2559 434 
Q 2191 0 1641 0 
Q 956 0 581 494 
Q 206 988 206 1678 
Q 206 2153 378 2554 
Q 550 2956 876 3175 
Q 1203 3394 1644 3394 
Q 2231 3394 2613 2919 
L 2613 3319 
L 3131 3319 
L 3131 450 
Q 3131 -325 2973 -648 
Q 2816 -972 2473 -1159 
Q 2131 -1347 1631 -1347 
Q 1038 -1347 672 -1080 
Q 306 -813 319 -275 
z
M 784 1719 
Q 784 1066 1043 766 
Q 1303 466 1694 466 
Q 2081 466 2343 764 
Q 2606 1063 2606 1700 
Q 2606 2309 2336 2618 
Q 2066 2928 1684 2928 
Q 1309 2928 1046 2623 
Q 784 2319 784 1719 
z
" transform="scale(0.015625)"/>
      <path id="ArialMT-6e" d="M 422 0 
L 422 3319 
L 928 3319 
L 928 2847 
Q 1294 3394 1984 3394 
Q 2284 3394 2536 3286 
Q 2788 3178 2913 3003 
Q 3038 2828 3088 2588 
Q 3119 2431 3119 2041 
L 3119 0 
L 2556 0 
L 2556 2019 
Q 2556 2363 2490 2533 
Q 2425 2703 2258 2804 
Q 2091 2906 1866 2906 
Q 1506 2906 1245 2678 
Q 984 2450 984 1813 
L 984 0 
L 422 0 
z
" transform="scale(0.015625)"/>
      <path id="ArialMT-61" d="M 2588 409 
Q 2275 144 1986 34 
Q 1697 -75 1366 -75 
Q 819 -75 525 192 
Q 231 459 231 875 
Q 231 1119 342 1320 
Q 453 1522 633 1644 
Q 813 1766 1038 1828 
Q 1203 1872 1538 1913 
Q 2219 1994 2541 2106 
Q 2544 2222 2544 2253 
Q 2544 2597 2384 2738 
Q 2169 2928 1744 2928 
Q 1347 2928 1158 2789 
Q 969 2650 878 2297 
L 328 2372 
Q 403 2725 575 2942 
Q 747 3159 1072 3276 
Q 1397 3394 1825 3394 
Q 2250 3394 2515 3294 
Q 2781 3194 2906 3042 
Q 3031 2891 3081 2659 
Q 3109 2516 3109 2141 
L 3109 1391 
Q 3109 606 3145 398 
Q 3181 191 3288 0 
L 2700 0 
Q 2613 175 2588 409 
z
M 2541 1666 
Q 2234 1541 1622 1453 
Q 1275 1403 1131 1340 
Q 988 1278 909 1158 
Q 831 1038 831 891 
Q 831 666 1001 516 
Q 1172 366 1500 366 
Q 1825 366 2078 508 
Q 2331 650 2450 897 
Q 2541 1088 2541 1459 
L 2541 1666 
z
" transform="scale(0.015625)"/>
      <path id="ArialMT-74" d="M 1650 503 
L 1731 6 
Q 1494 -44 1306 -44 
Q 1000 -44 831 53 
Q 663 150 594 308 
Q 525 466 525 972 
L 525 2881 
L 113 2881 
L 113 3319 
L 525 3319 
L 525 4141 
L 1084 4478 
L 1084 3319 
L 1650 3319 
L 1650 2881 
L 1084 2881 
L 1084 941 
Q 1084 700 1114 631 
Q 1144 563 1211 522 
Q 1278 481 1403 481 
Q 1497 481 1650 503 
z
" transform="scale(0.015625)"/>
      <path id="ArialMT-69" d="M 425 3934 
L 425 4581 
L 988 4581 
L 988 3934 
L 425 3934 
z
M 425 0 
L 425 3319 
L 988 3319 
L 988 0 
L 425 0 
z
" transform="scale(0.015625)"/>
      <path id="ArialMT-6f" d="M 213 1659 
Q 213 2581 725 3025 
Q 1153 3394 1769 3394 
Q 2453 3394 2887 2945 
Q 3322 2497 3322 1706 
Q 3322 1066 3130 698 
Q 2938 331 2570 128 
Q 2203 -75 1769 -75 
Q 1072 -75 642 372 
Q 213 819 213 1659 
z
M 791 1659 
Q 791 1022 1069 705 
Q 1347 388 1769 388 
Q 2188 388 2466 706 
Q 2744 1025 2744 1678 
Q 2744 2294 2464 2611 
Q 2184 2928 1769 2928 
Q 1347 2928 1069 2612 
Q 791 2297 791 1659 
z
" transform="scale(0.015625)"/>
      <path id="ArialMT-73" d="M 197 991 
L 753 1078 
Q 800 744 1014 566 
Q 1228 388 1613 388 
Q 2000 388 2187 545 
Q 2375 703 2375 916 
Q 2375 1106 2209 1216 
Q 2094 1291 1634 1406 
Q 1016 1563 777 1677 
Q 538 1791 414 1992 
Q 291 2194 291 2438 
Q 291 2659 392 2848 
Q 494 3038 669 3163 
Q 800 3259 1026 3326 
Q 1253 3394 1513 3394 
Q 1903 3394 2198 3281 
Q 2494 3169 2634 2976 
Q 2775 2784 2828 2463 
L 2278 2388 
Q 2241 2644 2061 2787 
Q 1881 2931 1553 2931 
Q 1166 2931 1000 2803 
Q 834 2675 834 2503 
Q 834 2394 903 2306 
Q 972 2216 1119 2156 
Q 1203 2125 1616 2013 
Q 2213 1853 2448 1751 
Q 2684 1650 2818 1456 
Q 2953 1263 2953 975 
Q 2953 694 2789 445 
Q 2625 197 2315 61 
Q 2006 -75 1616 -75 
Q 969 -75 630 194 
Q 291 463 197 991 
z
" transform="scale(0.015625)"/>
      <path id="ArialMT-63" d="M 2588 1216 
L 3141 1144 
Q 3050 572 2676 248 
Q 2303 -75 1759 -75 
Q 1078 -75 664 370 
Q 250 816 250 1647 
Q 250 2184 428 2587 
Q 606 2991 970 3192 
Q 1334 3394 1763 3394 
Q 2303 3394 2647 3120 
Q 2991 2847 3088 2344 
L 2541 2259 
Q 2463 2594 2264 2762 
Q 2066 2931 1784 2931 
Q 1359 2931 1093 2626 
Q 828 2322 828 1663 
Q 828 994 1084 691 
Q 1341 388 1753 388 
Q 2084 388 2306 591 
Q 2528 794 2588 1216 
z
" transform="scale(0.015625)"/>
      <path id="ArialMT-68" d="M 422 0 
L 422 4581 
L 984 4581 
L 984 2938 
Q 1378 3394 1978 3394 
Q 2347 3394 2619 3248 
Q 2891 3103 3008 2847 
Q 3125 2591 3125 2103 
L 3125 0 
L 2563 0 
L 2563 2103 
Q 2563 2525 2380 2717 
Q 2197 2909 1863 2909 
Q 1613 2909 1392 2779 
Q 1172 2650 1078 2428 
Q 984 2206 984 1816 
L 984 0 
L 422 0 
z
" transform="scale(0.015625)"/>
      <path id="ArialMT-6c" d="M 409 0 
L 409 4581 
L 972 4581 
L 972 0 
L 409 0 
z
" transform="scale(0.015625)"/>
      <path id="ArialMT-64" d="M 2575 0 
L 2575 419 
Q 2259 -75 1647 -75 
Q 1250 -75 917 144 
Q 584 363 401 755 
Q 219 1147 219 1656 
Q 219 2153 384 2558 
Q 550 2963 881 3178 
Q 1213 3394 1622 3394 
Q 1922 3394 2156 3267 
Q 2391 3141 2538 2938 
L 2538 4581 
L 3097 4581 
L 3097 0 
L 2575 0 
z
M 797 1656 
Q 797 1019 1065 703 
Q 1334 388 1700 388 
Q 2069 388 2326 689 
Q 2584 991 2584 1609 
Q 2584 2291 2321 2609 
Q 2059 2928 1675 2928 
Q 1300 2928 1048 2622 
Q 797 2316 797 1656 
z
" transform="scale(0.015625)"/>
      <path id="ArialMT-27" d="M 425 2959 
L 281 3816 
L 281 4581 
L 922 4581 
L 922 3816 
L 772 2959 
L 425 2959 
z
" transform="scale(0.015625)"/>
      <path id="ArialMT-62" d="M 941 0 
L 419 0 
L 419 4581 
L 981 4581 
L 981 2947 
Q 1338 3394 1891 3394 
Q 2197 3394 2470 3270 
Q 2744 3147 2920 2923 
Q 3097 2700 3197 2384 
Q 3297 2069 3297 1709 
Q 3297 856 2875 390 
Q 2453 -75 1863 -75 
Q 1275 -75 941 416 
L 941 0 
z
M 934 1684 
Q 934 1088 1097 822 
Q 1363 388 1816 388 
Q 2184 388 2453 708 
Q 2722 1028 2722 1663 
Q 2722 2313 2464 2622 
Q 2206 2931 1841 2931 
Q 1472 2931 1203 2611 
Q 934 2291 934 1684 
z
" transform="scale(0.015625)"/>
      <path id="DejaVuSans-Oblique-6e" d="M 3566 2113 
L 3156 0 
L 2578 0 
L 2988 2091 
Q 3016 2238 3031 2350 
Q 3047 2463 3047 2528 
Q 3047 2791 2881 2937 
Q 2716 3084 2419 3084 
Q 1956 3084 1622 2776 
Q 1288 2469 1184 1941 
L 800 0 
L 225 0 
L 903 3500 
L 1478 3500 
L 1363 2950 
Q 1603 3253 1940 3418 
Q 2278 3584 2650 3584 
Q 3113 3584 3367 3334 
Q 3622 3084 3622 2631 
Q 3622 2519 3608 2391 
Q 3594 2263 3566 2113 
z
" transform="scale(0.015625)"/>
      <path id="ArialMT-75" d="M 2597 0 
L 2597 488 
Q 2209 -75 1544 -75 
Q 1250 -75 995 37 
Q 741 150 617 320 
Q 494 491 444 738 
Q 409 903 409 1263 
L 409 3319 
L 972 3319 
L 972 1478 
Q 972 1038 1006 884 
Q 1059 663 1231 536 
Q 1403 409 1656 409 
Q 1909 409 2131 539 
Q 2353 669 2445 892 
Q 2538 1116 2538 1541 
L 2538 3319 
L 3100 3319 
L 3100 0 
L 2597 0 
z
" transform="scale(0.015625)"/>
      <path id="ArialMT-70" d="M 422 -1272 
L 422 3319 
L 934 3319 
L 934 2888 
Q 1116 3141 1344 3267 
Q 1572 3394 1897 3394 
Q 2322 3394 2647 3175 
Q 2972 2956 3137 2557 
Q 3303 2159 3303 1684 
Q 3303 1175 3120 767 
Q 2938 359 2589 142 
Q 2241 -75 1856 -75 
Q 1575 -75 1351 44 
Q 1128 163 984 344 
L 984 -1272 
L 422 -1272 
z
M 931 1641 
Q 931 1000 1190 694 
Q 1450 388 1819 388 
Q 2194 388 2461 705 
Q 2728 1022 2728 1688 
Q 2728 2322 2467 2637 
Q 2206 2953 1844 2953 
Q 1484 2953 1207 2617 
Q 931 2281 931 1641 
z
" transform="scale(0.015625)"/>
      <path id="ArialMT-77" d="M 1034 0 
L 19 3319 
L 600 3319 
L 1128 1403 
L 1325 691 
Q 1338 744 1497 1375 
L 2025 3319 
L 2603 3319 
L 3100 1394 
L 3266 759 
L 3456 1400 
L 4025 3319 
L 4572 3319 
L 3534 0 
L 2950 0 
L 2422 1988 
L 2294 2553 
L 1622 0 
L 1034 0 
z
" transform="scale(0.015625)"/>
     </defs>
     <use xlink:href="#ArialMT-45" transform="translate(0 0.015625)"/>
     <use xlink:href="#ArialMT-76" transform="translate(66.699219 0.015625)"/>
     <use xlink:href="#ArialMT-65" transform="translate(116.699219 0.015625)"/>
     <use xlink:href="#ArialMT-72" transform="translate(172.314453 0.015625)"/>
     <use xlink:href="#ArialMT-79" transform="translate(205.615234 0.015625)"/>
     <use xlink:href="#ArialMT-20" transform="translate(255.615234 0.015625)"/>
     <use xlink:href="#DejaVuSans-Oblique-6b" transform="translate(283.398438 0.015625)"/>
     <use xlink:href="#ArialMT-20" transform="translate(341.308594 0.015625)"/>
     <use xlink:href="#ArialMT-67" transform="translate(369.091797 0.015625)"/>
     <use xlink:href="#ArialMT-65" transform="translate(424.707031 0.015625)"/>
     <use xlink:href="#ArialMT-6e" transform="translate(480.322266 0.015625)"/>
     <use xlink:href="#ArialMT-65" transform="translate(535.9375 0.015625)"/>
     <use xlink:href="#ArialMT-72" transform="translate(591.552734 0.015625)"/>
     <use xlink:href="#ArialMT-61" transform="translate(624.853516 0.015625)"/>
     <use xlink:href="#ArialMT-74" transform="translate(680.46875 0.015625)"/>
     <use xlink:href="#ArialMT-69" transform="translate(708.251953 0.015625)"/>
     <use xlink:href="#ArialMT-6f" transform="translate(730.46875 0.015625)"/>
     <use xlink:href="#ArialMT-6e" transform="translate(786.083984 0.015625)"/>
     <use xlink:href="#ArialMT-73" transform="translate(841.699219 0.015625)"/>
     <use xlink:href="#ArialMT-20" transform="translate(891.699219 0.015625)"/>
     <use xlink:href="#ArialMT-65" transform="translate(919.482422 0.015625)"/>
     <use xlink:href="#ArialMT-61" transform="translate(975.097656 0.015625)"/>
     <use xlink:href="#ArialMT-63" transform="translate(1030.712891 0.015625)"/>
     <use xlink:href="#ArialMT-68" transform="translate(1080.712891 0.015625)"/>
     <use xlink:href="#ArialMT-20" transform="translate(1136.328125 0.015625)"/>
     <use xlink:href="#ArialMT-69" transform="translate(1164.111328 0.015625)"/>
     <use xlink:href="#ArialMT-73" transform="translate(1186.328125 0.015625)"/>
     <use xlink:href="#ArialMT-6c" transform="translate(1236.328125 0.015625)"/>
     <use xlink:href="#ArialMT-61" transform="translate(1258.544922 0.015625)"/>
     <use xlink:href="#ArialMT-6e" transform="translate(1314.160156 0.015625)"/>
     <use xlink:href="#ArialMT-64" transform="translate(1369.775391 0.015625)"/>
     <use xlink:href="#ArialMT-27" transform="translate(1425.390625 0.015625)"/>
     <use xlink:href="#ArialMT-73" transform="translate(1444.482422 0.015625)"/>
     <use xlink:href="#ArialMT-20" transform="translate(1494.482422 0.015625)"/>
     <use xlink:href="#ArialMT-62" transform="translate(1522.265625 0.015625)"/>
     <use xlink:href="#ArialMT-65" transform="translate(1577.880859 0.015625)"/>
     <use xlink:href="#ArialMT-73" transform="translate(1633.496094 0.015625)"/>
     <use xlink:href="#ArialMT-74" transform="translate(1683.496094 0.015625)"/>
     <use xlink:href="#ArialMT-20" transform="translate(1711.279297 0.015625)"/>
     <use xlink:href="#DejaVuSans-Oblique-6e" transform="translate(1739.0625 0.015625)"/>
     <use xlink:href="#ArialMT-20" transform="translate(1802.441406 0.015625)"/>
     <use xlink:href="#ArialMT-69" transform="translate(1830.224609 0.015625)"/>
     <use xlink:href="#ArialMT-6e" transform="translate(1852.441406 0.015625)"/>
     <use xlink:href="#ArialMT-64" transform="translate(1908.056641 0.015625)"/>
     <use xlink:href="#ArialMT-69" transform="translate(1963.671875 0.015625)"/>
     <use xlink:href="#ArialMT-76" transform="translate(1985.888672 0.015625)"/>
     <use xlink:href="#ArialMT-69" transform="translate(2035.888672 0.015625)"/>
     <use xlink:href="#ArialMT-64" transform="translate(2058.105469 0.015625)"/>
     <use xlink:href="#ArialMT-75" transform="translate(2113.720703 0.015625)"/>
     <use xlink:href="#ArialMT-61" transform="translate(2169.335938 0.015625)"/>
     <use xlink:href="#ArialMT-6c" transform="translate(2224.951172 0.015625)"/>
     <use xlink:href="#ArialMT-73" transform="translate(2247.167969 0.015625)"/>
     <use xlink:href="#ArialMT-20" transform="translate(2297.167969 0.015625)"/>
     <use xlink:href="#ArialMT-72" transform="translate(2324.951172 0.015625)"/>
     <use xlink:href="#ArialMT-65" transform="translate(2358.251953 0.015625)"/>
     <use xlink:href="#ArialMT-70" transform="translate(2413.867188 0.015625)"/>
     <use xlink:href="#ArialMT-6c" transform="translate(2469.482422 0.015625)"/>
     <use xlink:href="#ArialMT-61" transform="translate(2491.699219 0.015625)"/>
     <use xlink:href="#ArialMT-63" transform="translate(2547.314453 0.015625)"/>
     <use xlink:href="#ArialMT-65" transform="translate(2597.314453 0.015625)"/>
     <use xlink:href="#ArialMT-20" transform="translate(2652.929688 0.015625)"/>
     <use xlink:href="#ArialMT-74" transform="translate(2680.712891 0.015625)"/>
     <use xlink:href="#ArialMT-68" transform="translate(2708.496094 0.015625)"/>
     <use xlink:href="#ArialMT-65" transform="translate(2764.111328 0.015625)"/>
     <use xlink:href="#ArialMT-20" transform="translate(2819.726562 0.015625)"/>
     <use xlink:href="#ArialMT-77" transform="translate(2847.509766 0.015625)"/>
     <use xlink:href="#ArialMT-6f" transform="translate(2919.726562 0.015625)"/>
     <use xlink:href="#ArialMT-72" transform="translate(2975.341797 0.015625)"/>
     <use xlink:href="#ArialMT-73" transform="translate(3008.642578 0.015625)"/>
     <use xlink:href="#ArialMT-74" transform="translate(3058.642578 0.015625)"/>
     <use xlink:href="#ArialMT-20" transform="translate(3086.425781 0.015625)"/>
     <use xlink:href="#ArialMT-69" transform="translate(3114.208984 0.015625)"/>
     <use xlink:href="#ArialMT-6e" transform="translate(3136.425781 0.015625)"/>
     <use xlink:href="#ArialMT-20" transform="translate(3192.041016 0.015625)"/>
     <use xlink:href="#ArialMT-74" transform="translate(3219.824219 0.015625)"/>
     <use xlink:href="#ArialMT-68" transform="translate(3247.607422 0.015625)"/>
     <use xlink:href="#ArialMT-65" transform="translate(3303.222656 0.015625)"/>
     <use xlink:href="#ArialMT-20" transform="translate(3358.837891 0.015625)"/>
     <use xlink:href="#ArialMT-6f" transform="translate(3386.621094 0.015625)"/>
     <use xlink:href="#ArialMT-74" transform="translate(3442.236328 0.015625)"/>
     <use xlink:href="#ArialMT-68" transform="translate(3470.019531 0.015625)"/>
     <use xlink:href="#ArialMT-65" transform="translate(3525.634766 0.015625)"/>
     <use xlink:href="#ArialMT-72" transform="translate(3581.25 0.015625)"/>
     <use xlink:href="#ArialMT-73" transform="translate(3614.550781 0.015625)"/>
    </g>
    <!-- (swarm destinations also get fresh velocity). One budget, three complementary searches. -->
    <g style="fill: #333333" transform="translate(74.647375 229.782575) scale(0.08 -0.08)">
     <defs>
      <path id="ArialMT-28" d="M 1497 -1347 
Q 1031 -759 709 28 
Q 388 816 388 1659 
Q 388 2403 628 3084 
Q 909 3875 1497 4659 
L 1900 4659 
Q 1522 4009 1400 3731 
Q 1209 3300 1100 2831 
Q 966 2247 966 1656 
Q 966 153 1900 -1347 
L 1497 -1347 
z
" transform="scale(0.015625)"/>
      <path id="ArialMT-6d" d="M 422 0 
L 422 3319 
L 925 3319 
L 925 2853 
Q 1081 3097 1340 3245 
Q 1600 3394 1931 3394 
Q 2300 3394 2536 3241 
Q 2772 3088 2869 2813 
Q 3263 3394 3894 3394 
Q 4388 3394 4653 3120 
Q 4919 2847 4919 2278 
L 4919 0 
L 4359 0 
L 4359 2091 
Q 4359 2428 4304 2576 
Q 4250 2725 4106 2815 
Q 3963 2906 3769 2906 
Q 3419 2906 3187 2673 
Q 2956 2441 2956 1928 
L 2956 0 
L 2394 0 
L 2394 2156 
Q 2394 2531 2256 2718 
Q 2119 2906 1806 2906 
Q 1569 2906 1367 2781 
Q 1166 2656 1075 2415 
Q 984 2175 984 1722 
L 984 0 
L 422 0 
z
" transform="scale(0.015625)"/>
      <path id="ArialMT-66" d="M 556 0 
L 556 2881 
L 59 2881 
L 59 3319 
L 556 3319 
L 556 3672 
Q 556 4006 616 4169 
Q 697 4388 901 4523 
Q 1106 4659 1475 4659 
Q 1713 4659 2000 4603 
L 1916 4113 
Q 1741 4144 1584 4144 
Q 1328 4144 1222 4034 
Q 1116 3925 1116 3625 
L 1116 3319 
L 1763 3319 
L 1763 2881 
L 1116 2881 
L 1116 0 
L 556 0 
z
" transform="scale(0.015625)"/>
      <path id="ArialMT-29" d="M 791 -1347 
L 388 -1347 
Q 1322 153 1322 1656 
Q 1322 2244 1188 2822 
Q 1081 3291 891 3722 
Q 769 4003 388 4659 
L 791 4659 
Q 1378 3875 1659 3084 
Q 1900 2403 1900 1659 
Q 1900 816 1576 28 
Q 1253 -759 791 -1347 
z
" transform="scale(0.015625)"/>
      <path id="ArialMT-2e" d="M 581 0 
L 581 641 
L 1222 641 
L 1222 0 
L 581 0 
z
" transform="scale(0.015625)"/>
      <path id="ArialMT-4f" d="M 309 2231 
Q 309 3372 921 4017 
Q 1534 4663 2503 4663 
Q 3138 4663 3647 4359 
Q 4156 4056 4423 3514 
Q 4691 2972 4691 2284 
Q 4691 1588 4409 1038 
Q 4128 488 3612 205 
Q 3097 -78 2500 -78 
Q 1853 -78 1343 234 
Q 834 547 571 1087 
Q 309 1628 309 2231 
z
M 934 2222 
Q 934 1394 1379 917 
Q 1825 441 2497 441 
Q 3181 441 3623 922 
Q 4066 1403 4066 2288 
Q 4066 2847 3877 3264 
Q 3688 3681 3323 3911 
Q 2959 4141 2506 4141 
Q 1863 4141 1398 3698 
Q 934 3256 934 2222 
z
" transform="scale(0.015625)"/>
      <path id="ArialMT-2c" d="M 569 0 
L 569 641 
L 1209 641 
L 1209 0 
Q 1209 -353 1084 -570 
Q 959 -788 688 -906 
L 531 -666 
Q 709 -588 793 -436 
Q 878 -284 888 0 
L 569 0 
z
" transform="scale(0.015625)"/>
     </defs>
     <use xlink:href="#ArialMT-28"/>
     <use xlink:href="#ArialMT-73" transform="translate(33.300781 0)"/>
     <use xlink:href="#ArialMT-77" transform="translate(83.300781 0)"/>
     <use xlink:href="#ArialMT-61" transform="translate(155.517578 0)"/>
     <use xlink:href="#ArialMT-72" transform="translate(211.132812 0)"/>
     <use xlink:href="#ArialMT-6d" transform="translate(244.433594 0)"/>
     <use xlink:href="#ArialMT-20" transform="translate(327.734375 0)"/>
     <use xlink:href="#ArialMT-64" transform="translate(355.517578 0)"/>
     <use xlink:href="#ArialMT-65" transform="translate(411.132812 0)"/>
     <use xlink:href="#ArialMT-73" transform="translate(466.748047 0)"/>
     <use xlink:href="#ArialMT-74" transform="translate(516.748047 0)"/>
     <use xlink:href="#ArialMT-69" transform="translate(544.53125 0)"/>
     <use xlink:href="#ArialMT-6e" transform="translate(566.748047 0)"/>
     <use xlink:href="#ArialMT-61" transform="translate(622.363281 0)"/>
     <use xlink:href="#ArialMT-74" transform="translate(677.978516 0)"/>
     <use xlink:href="#ArialMT-69" transform="translate(705.761719 0)"/>
     <use xlink:href="#ArialMT-6f" transform="translate(727.978516 0)"/>
     <use xlink:href="#ArialMT-6e" transform="translate(783.59375 0)"/>
     <use xlink:href="#ArialMT-73" transform="translate(839.208984 0)"/>
     <use xlink:href="#ArialMT-20" transform="translate(889.208984 0)"/>
     <use xlink:href="#ArialMT-61" transform="translate(916.992188 0)"/>
     <use xlink:href="#ArialMT-6c" transform="translate(972.607422 0)"/>
     <use xlink:href="#ArialMT-73" transform="translate(994.824219 0)"/>
     <use xlink:href="#ArialMT-6f" transform="translate(1044.824219 0)"/>
     <use xlink:href="#ArialMT-20" transform="translate(1100.439453 0)"/>
     <use xlink:href="#ArialMT-67" transform="translate(1128.222656 0)"/>
     <use xlink:href="#ArialMT-65" transform="translate(1183.837891 0)"/>
     <use xlink:href="#ArialMT-74" transform="translate(1239.453125 0)"/>
     <use xlink:href="#ArialMT-20" transform="translate(1267.236328 0)"/>
     <use xlink:href="#ArialMT-66" transform="translate(1295.019531 0)"/>
     <use xlink:href="#ArialMT-72" transform="translate(1322.802734 0)"/>
     <use xlink:href="#ArialMT-65" transform="translate(1356.103516 0)"/>
     <use xlink:href="#ArialMT-73" transform="translate(1411.71875 0)"/>
     <use xlink:href="#ArialMT-68" transform="translate(1461.71875 0)"/>
     <use xlink:href="#ArialMT-20" transform="translate(1517.333984 0)"/>
     <use xlink:href="#ArialMT-76" transform="translate(1545.117188 0)"/>
     <use xlink:href="#ArialMT-65" transform="translate(1595.117188 0)"/>
     <use xlink:href="#ArialMT-6c" transform="translate(1650.732422 0)"/>
     <use xlink:href="#ArialMT-6f" transform="translate(1672.949219 0)"/>
     <use xlink:href="#ArialMT-63" transform="translate(1728.564453 0)"/>
     <use xlink:href="#ArialMT-69" transform="translate(1778.564453 0)"/>
     <use xlink:href="#ArialMT-74" transform="translate(1800.78125 0)"/>
     <use xlink:href="#ArialMT-79" transform="translate(1828.564453 0)"/>
     <use xlink:href="#ArialMT-29" transform="translate(1878.564453 0)"/>
     <use xlink:href="#ArialMT-2e" transform="translate(1911.865234 0)"/>
     <use xlink:href="#ArialMT-20" transform="translate(1939.648438 0)"/>
     <use xlink:href="#ArialMT-4f" transform="translate(1967.431641 0)"/>
     <use xlink:href="#ArialMT-6e" transform="translate(2045.214844 0)"/>
     <use xlink:href="#ArialMT-65" transform="translate(2100.830078 0)"/>
     <use xlink:href="#ArialMT-20" transform="translate(2156.445312 0)"/>
     <use xlink:href="#ArialMT-62" transform="translate(2184.228516 0)"/>
     <use xlink:href="#ArialMT-75" transform="translate(2239.84375 0)"/>
     <use xlink:href="#ArialMT-64" transform="translate(2295.458984 0)"/>
     <use xlink:href="#ArialMT-67" transform="translate(2351.074219 0)"/>
     <use xlink:href="#ArialMT-65" transform="translate(2406.689453 0)"/>
     <use xlink:href="#ArialMT-74" transform="translate(2462.304688 0)"/>
     <use xlink:href="#ArialMT-2c" transform="translate(2490.087891 0)"/>
     <use xlink:href="#ArialMT-20" transform="translate(2517.871094 0)"/>
     <use xlink:href="#ArialMT-74" transform="translate(2545.654297 0)"/>
     <use xlink:href="#ArialMT-68" transform="translate(2573.4375 0)"/>
     <use xlink:href="#ArialMT-72" transform="translate(2629.052734 0)"/>
     <use xlink:href="#ArialMT-65" transform="translate(2662.353516 0)"/>
     <use xlink:href="#ArialMT-65" transform="translate(2717.96875 0)"/>
     <use xlink:href="#ArialMT-20" transform="translate(2773.583984 0)"/>
     <use xlink:href="#ArialMT-63" transform="translate(2801.367188 0)"/>
     <use xlink:href="#ArialMT-6f" transform="translate(2851.367188 0)"/>
     <use xlink:href="#ArialMT-6d" transform="translate(2906.982422 0)"/>
     <use xlink:href="#ArialMT-70" transform="translate(2990.283203 0)"/>
     <use xlink:href="#ArialMT-6c" transform="translate(3045.898438 0)"/>
     <use xlink:href="#ArialMT-65" transform="translate(3068.115234 0)"/>
     <use xlink:href="#ArialMT-6d" transform="translate(3123.730469 0)"/>
     <use xlink:href="#ArialMT-65" transform="translate(3207.03125 0)"/>
     <use xlink:href="#ArialMT-6e" transform="translate(3262.646484 0)"/>
     <use xlink:href="#ArialMT-74" transform="translate(3318.261719 0)"/>
     <use xlink:href="#ArialMT-61" transform="translate(3346.044922 0)"/>
     <use xlink:href="#ArialMT-72" transform="translate(3401.660156 0)"/>
     <use xlink:href="#ArialMT-79" transform="translate(3434.960938 0)"/>
     <use xlink:href="#ArialMT-20" transform="translate(3484.960938 0)"/>
     <use xlink:href="#ArialMT-73" transform="translate(3512.744141 0)"/>
     <use xlink:href="#ArialMT-65" transform="translate(3562.744141 0)"/>
     <use xlink:href="#ArialMT-61" transform="translate(3618.359375 0)"/>
     <use xlink:href="#ArialMT-72" transform="translate(3673.974609 0)"/>
     <use xlink:href="#ArialMT-63" transform="translate(3707.275391 0)"/>
     <use xlink:href="#ArialMT-68" transform="translate(3757.275391 0)"/>
     <use xlink:href="#ArialMT-65" transform="translate(3812.890625 0)"/>
     <use xlink:href="#ArialMT-73" transform="translate(3868.505859 0)"/>
     <use xlink:href="#ArialMT-2e" transform="translate(3918.505859 0)"/>
    </g>
   </g>
   <g id="text_2">
    <!-- Particle swarm -->
    <g style="fill: #1f6f3f" transform="translate(197.191125 48.900859) scale(0.1 -0.1)">
     <defs>
      <path id="Arial-BoldMT-50" d="M 466 0 
L 466 4581 
L 1950 4581 
Q 2794 4581 3050 4513 
Q 3444 4409 3709 4064 
Q 3975 3719 3975 3172 
Q 3975 2750 3822 2462 
Q 3669 2175 3433 2011 
Q 3197 1847 2953 1794 
Q 2622 1728 1994 1728 
L 1391 1728 
L 1391 0 
L 466 0 
z
M 1391 3806 
L 1391 2506 
L 1897 2506 
Q 2444 2506 2628 2578 
Q 2813 2650 2917 2803 
Q 3022 2956 3022 3159 
Q 3022 3409 2875 3571 
Q 2728 3734 2503 3775 
Q 2338 3806 1838 3806 
L 1391 3806 
z
" transform="scale(0.015625)"/>
      <path id="Arial-BoldMT-61" d="M 1116 2306 
L 319 2450 
Q 453 2931 781 3162 
Q 1109 3394 1756 3394 
Q 2344 3394 2631 3255 
Q 2919 3116 3036 2902 
Q 3153 2688 3153 2116 
L 3144 1091 
Q 3144 653 3186 445 
Q 3228 238 3344 0 
L 2475 0 
Q 2441 88 2391 259 
Q 2369 338 2359 363 
Q 2134 144 1878 34 
Q 1622 -75 1331 -75 
Q 819 -75 523 203 
Q 228 481 228 906 
Q 228 1188 362 1408 
Q 497 1628 739 1745 
Q 981 1863 1438 1950 
Q 2053 2066 2291 2166 
L 2291 2253 
Q 2291 2506 2166 2614 
Q 2041 2722 1694 2722 
Q 1459 2722 1328 2630 
Q 1197 2538 1116 2306 
z
M 2291 1594 
Q 2122 1538 1756 1459 
Q 1391 1381 1278 1306 
Q 1106 1184 1106 997 
Q 1106 813 1243 678 
Q 1381 544 1594 544 
Q 1831 544 2047 700 
Q 2206 819 2256 991 
Q 2291 1103 2291 1419 
L 2291 1594 
z
" transform="scale(0.015625)"/>
      <path id="Arial-BoldMT-72" d="M 1300 0 
L 422 0 
L 422 3319 
L 1238 3319 
L 1238 2847 
Q 1447 3181 1614 3287 
Q 1781 3394 1994 3394 
Q 2294 3394 2572 3228 
L 2300 2463 
Q 2078 2606 1888 2606 
Q 1703 2606 1575 2504 
Q 1447 2403 1373 2137 
Q 1300 1872 1300 1025 
L 1300 0 
z
" transform="scale(0.015625)"/>
      <path id="Arial-BoldMT-74" d="M 1981 3319 
L 1981 2619 
L 1381 2619 
L 1381 1281 
Q 1381 875 1398 808 
Q 1416 741 1477 697 
Q 1538 653 1625 653 
Q 1747 653 1978 738 
L 2053 56 
Q 1747 -75 1359 -75 
Q 1122 -75 931 4 
Q 741 84 652 211 
Q 563 338 528 553 
Q 500 706 500 1172 
L 500 2619 
L 97 2619 
L 97 3319 
L 500 3319 
L 500 3978 
L 1381 4491 
L 1381 3319 
L 1981 3319 
z
" transform="scale(0.015625)"/>
      <path id="Arial-BoldMT-69" d="M 459 3769 
L 459 4581 
L 1338 4581 
L 1338 3769 
L 459 3769 
z
M 459 0 
L 459 3319 
L 1338 3319 
L 1338 0 
L 459 0 
z
" transform="scale(0.015625)"/>
      <path id="Arial-BoldMT-63" d="M 3353 2338 
L 2488 2181 
Q 2444 2441 2289 2572 
Q 2134 2703 1888 2703 
Q 1559 2703 1364 2476 
Q 1169 2250 1169 1719 
Q 1169 1128 1367 884 
Q 1566 641 1900 641 
Q 2150 641 2309 783 
Q 2469 925 2534 1272 
L 3397 1125 
Q 3263 531 2881 228 
Q 2500 -75 1859 -75 
Q 1131 -75 698 384 
Q 266 844 266 1656 
Q 266 2478 700 2936 
Q 1134 3394 1875 3394 
Q 2481 3394 2839 3133 
Q 3197 2872 3353 2338 
z
" transform="scale(0.015625)"/>
      <path id="Arial-BoldMT-6c" d="M 459 0 
L 459 4581 
L 1338 4581 
L 1338 0 
L 459 0 
z
" transform="scale(0.015625)"/>
      <path id="Arial-BoldMT-65" d="M 2381 1056 
L 3256 909 
Q 3088 428 2723 176 
Q 2359 -75 1813 -75 
Q 947 -75 531 491 
Q 203 944 203 1634 
Q 203 2459 634 2926 
Q 1066 3394 1725 3394 
Q 2466 3394 2894 2905 
Q 3322 2416 3303 1406 
L 1103 1406 
Q 1113 1016 1316 798 
Q 1519 581 1822 581 
Q 2028 581 2168 693 
Q 2309 806 2381 1056 
z
M 2431 1944 
Q 2422 2325 2234 2523 
Q 2047 2722 1778 2722 
Q 1491 2722 1303 2513 
Q 1116 2303 1119 1944 
L 2431 1944 
z
" transform="scale(0.015625)"/>
      <path id="Arial-BoldMT-20" transform="scale(0.015625)"/>
      <path id="Arial-BoldMT-73" d="M 150 947 
L 1031 1081 
Q 1088 825 1259 692 
Q 1431 559 1741 559 
Q 2081 559 2253 684 
Q 2369 772 2369 919 
Q 2369 1019 2306 1084 
Q 2241 1147 2013 1200 
Q 950 1434 666 1628 
Q 272 1897 272 2375 
Q 272 2806 612 3100 
Q 953 3394 1669 3394 
Q 2350 3394 2681 3172 
Q 3013 2950 3138 2516 
L 2309 2363 
Q 2256 2556 2107 2659 
Q 1959 2763 1684 2763 
Q 1338 2763 1188 2666 
Q 1088 2597 1088 2488 
Q 1088 2394 1175 2328 
Q 1294 2241 1995 2081 
Q 2697 1922 2975 1691 
Q 3250 1456 3250 1038 
Q 3250 581 2869 253 
Q 2488 -75 1741 -75 
Q 1063 -75 667 200 
Q 272 475 150 947 
z
" transform="scale(0.015625)"/>
      <path id="Arial-BoldMT-77" d="M 1078 0 
L 28 3319 
L 881 3319 
L 1503 1144 
L 2075 3319 
L 2922 3319 
L 3475 1144 
L 4109 3319 
L 4975 3319 
L 3909 0 
L 3066 0 
L 2494 2134 
L 1931 0 
L 1078 0 
z
" transform="scale(0.015625)"/>
      <path id="Arial-BoldMT-6d" d="M 394 3319 
L 1203 3319 
L 1203 2866 
Q 1638 3394 2238 3394 
Q 2556 3394 2790 3262 
Q 3025 3131 3175 2866 
Q 3394 3131 3647 3262 
Q 3900 3394 4188 3394 
Q 4553 3394 4806 3245 
Q 5059 3097 5184 2809 
Q 5275 2597 5275 2122 
L 5275 0 
L 4397 0 
L 4397 1897 
Q 4397 2391 4306 2534 
Q 4184 2722 3931 2722 
Q 3747 2722 3584 2609 
Q 3422 2497 3350 2280 
Q 3278 2063 3278 1594 
L 3278 0 
L 2400 0 
L 2400 1819 
Q 2400 2303 2353 2443 
Q 2306 2584 2207 2653 
Q 2109 2722 1941 2722 
Q 1738 2722 1575 2612 
Q 1413 2503 1342 2297 
Q 1272 2091 1272 1613 
L 1272 0 
L 394 0 
L 394 3319 
z
" transform="scale(0.015625)"/>
     </defs>
     <use xlink:href="#Arial-BoldMT-50"/>
     <use xlink:href="#Arial-BoldMT-61" transform="translate(66.699219 0)"/>
     <use xlink:href="#Arial-BoldMT-72" transform="translate(122.314453 0)"/>
     <use xlink:href="#Arial-BoldMT-74" transform="translate(161.230469 0)"/>
     <use xlink:href="#Arial-BoldMT-69" transform="translate(194.53125 0)"/>
     <use xlink:href="#Arial-BoldMT-63" transform="translate(222.314453 0)"/>
     <use xlink:href="#Arial-BoldMT-6c" transform="translate(277.929688 0)"/>
     <use xlink:href="#Arial-BoldMT-65" transform="translate(305.712891 0)"/>
     <use xlink:href="#Arial-BoldMT-20" transform="translate(361.328125 0)"/>
     <use xlink:href="#Arial-BoldMT-73" transform="translate(389.111328 0)"/>
     <use xlink:href="#Arial-BoldMT-77" transform="translate(444.726562 0)"/>
     <use xlink:href="#Arial-BoldMT-61" transform="translate(522.509766 0)"/>
     <use xlink:href="#Arial-BoldMT-72" transform="translate(578.125 0)"/>
     <use xlink:href="#Arial-BoldMT-6d" transform="translate(617.041016 0)"/>
    </g>
   </g>
   <g id="text_3">
    <!-- island 1 -->
    <g style="fill: #444444" transform="translate(218.70175 62.928861) scale(0.08 -0.08)">
     <defs>
      <path id="ArialMT-31" d="M 2384 0 
L 1822 0 
L 1822 3584 
Q 1619 3391 1289 3197 
Q 959 3003 697 2906 
L 697 3450 
Q 1169 3672 1522 3987 
Q 1875 4303 2022 4600 
L 2384 4600 
L 2384 0 
z
" transform="scale(0.015625)"/>
     </defs>
     <use xlink:href="#ArialMT-69"/>
     <use xlink:href="#ArialMT-73" transform="translate(22.216797 0)"/>
     <use xlink:href="#ArialMT-6c" transform="translate(72.216797 0)"/>
     <use xlink:href="#ArialMT-61" transform="translate(94.433594 0)"/>
     <use xlink:href="#ArialMT-6e" transform="translate(150.048828 0)"/>
     <use xlink:href="#ArialMT-64" transform="translate(205.664062 0)"/>
     <use xlink:href="#ArialMT-20" transform="translate(261.279297 0)"/>
     <use xlink:href="#ArialMT-31" transform="translate(289.0625 0)"/>
    </g>
   </g>
   <g id="text_4">
    <!-- Genetic -->
    <g style="fill: #4878cf" transform="translate(83.482679 153.49382) scale(0.1 -0.1)">
     <defs>
      <path id="Arial-BoldMT-47" d="M 2597 1684 
L 2597 2456 
L 4591 2456 
L 4591 631 
Q 4300 350 3748 136 
Q 3197 -78 2631 -78 
Q 1913 -78 1378 223 
Q 844 525 575 1086 
Q 306 1647 306 2306 
Q 306 3022 606 3578 
Q 906 4134 1484 4431 
Q 1925 4659 2581 4659 
Q 3434 4659 3914 4301 
Q 4394 3944 4531 3313 
L 3613 3141 
Q 3516 3478 3248 3673 
Q 2981 3869 2581 3869 
Q 1975 3869 1617 3484 
Q 1259 3100 1259 2344 
Q 1259 1528 1621 1120 
Q 1984 713 2572 713 
Q 2863 713 3155 827 
Q 3447 941 3656 1103 
L 3656 1684 
L 2597 1684 
z
" transform="scale(0.015625)"/>
      <path id="Arial-BoldMT-6e" d="M 3478 0 
L 2600 0 
L 2600 1694 
Q 2600 2231 2544 2389 
Q 2488 2547 2361 2634 
Q 2234 2722 2056 2722 
Q 1828 2722 1647 2597 
Q 1466 2472 1398 2265 
Q 1331 2059 1331 1503 
L 1331 0 
L 453 0 
L 453 3319 
L 1269 3319 
L 1269 2831 
Q 1703 3394 2363 3394 
Q 2653 3394 2893 3289 
Q 3134 3184 3257 3021 
Q 3381 2859 3429 2653 
Q 3478 2447 3478 2063 
L 3478 0 
z
" transform="scale(0.015625)"/>
     </defs>
     <use xlink:href="#Arial-BoldMT-47"/>
     <use xlink:href="#Arial-BoldMT-65" transform="translate(77.783203 0)"/>
     <use xlink:href="#Arial-BoldMT-6e" transform="translate(133.398438 0)"/>
     <use xlink:href="#Arial-BoldMT-65" transform="translate(194.482422 0)"/>
     <use xlink:href="#Arial-BoldMT-74" transform="translate(250.097656 0)"/>
     <use xlink:href="#Arial-BoldMT-69" transform="translate(283.398438 0)"/>
     <use xlink:href="#Arial-BoldMT-63" transform="translate(311.181641 0)"/>
    </g>
   </g>
   <g id="text_5">
    <!-- island 2 -->
    <g style="fill: #444444" transform="translate(88.03471 167.521821) scale(0.08 -0.08)">
     <defs>
      <path id="ArialMT-32" d="M 3222 541 
L 3222 0 
L 194 0 
Q 188 203 259 391 
Q 375 700 629 1000 
Q 884 1300 1366 1694 
Q 2113 2306 2375 2664 
Q 2638 3022 2638 3341 
Q 2638 3675 2398 3904 
Q 2159 4134 1775 4134 
Q 1369 4134 1125 3890 
Q 881 3647 878 3216 
L 300 3275 
Q 359 3922 746 4261 
Q 1134 4600 1788 4600 
Q 2447 4600 2831 4234 
Q 3216 3869 3216 3328 
Q 3216 3053 3103 2787 
Q 2991 2522 2730 2228 
Q 2469 1934 1863 1422 
Q 1356 997 1212 845 
Q 1069 694 975 541 
L 3222 541 
z
" transform="scale(0.015625)"/>
     </defs>
     <use xlink:href="#ArialMT-69"/>
     <use xlink:href="#ArialMT-73" transform="translate(22.216797 0)"/>
     <use xlink:href="#ArialMT-6c" transform="translate(72.216797 0)"/>
     <use xlink:href="#ArialMT-61" transform="translate(94.433594 0)"/>
     <use xlink:href="#ArialMT-6e" transform="translate(150.048828 0)"/>
     <use xlink:href="#ArialMT-64" transform="translate(205.664062 0)"/>
     <use xlink:href="#ArialMT-20" transform="translate(261.279297 0)"/>
     <use xlink:href="#ArialMT-32" transform="translate(289.0625 0)"/>
    </g>
   </g>
   <g id="text_6">
    <!-- Differential evolution -->
    <g style="fill: #d1701f" transform="translate(313.432384 153.49382) scale(0.1 -0.1)">
     <defs>
      <path id="Arial-BoldMT-44" d="M 463 4581 
L 2153 4581 
Q 2725 4581 3025 4494 
Q 3428 4375 3715 4072 
Q 4003 3769 4153 3330 
Q 4303 2891 4303 2247 
Q 4303 1681 4163 1272 
Q 3991 772 3672 463 
Q 3431 228 3022 97 
Q 2716 0 2203 0 
L 463 0 
L 463 4581 
z
M 1388 3806 
L 1388 772 
L 2078 772 
Q 2466 772 2638 816 
Q 2863 872 3011 1006 
Q 3159 1141 3253 1448 
Q 3347 1756 3347 2288 
Q 3347 2819 3253 3103 
Q 3159 3388 2990 3547 
Q 2822 3706 2563 3763 
Q 2369 3806 1803 3806 
L 1388 3806 
z
" transform="scale(0.015625)"/>
      <path id="Arial-BoldMT-66" d="M 75 3319 
L 563 3319 
L 563 3569 
Q 563 3988 652 4194 
Q 741 4400 980 4529 
Q 1219 4659 1584 4659 
Q 1959 4659 2319 4547 
L 2200 3934 
Q 1991 3984 1797 3984 
Q 1606 3984 1523 3895 
Q 1441 3806 1441 3553 
L 1441 3319 
L 2097 3319 
L 2097 2628 
L 1441 2628 
L 1441 0 
L 563 0 
L 563 2628 
L 75 2628 
L 75 3319 
z
" transform="scale(0.015625)"/>
      <path id="Arial-BoldMT-76" d="M 1372 0 
L 34 3319 
L 956 3319 
L 1581 1625 
L 1763 1059 
Q 1834 1275 1853 1344 
Q 1897 1484 1947 1625 
L 2578 3319 
L 3481 3319 
L 2163 0 
L 1372 0 
z
" transform="scale(0.015625)"/>
      <path id="Arial-BoldMT-6f" d="M 256 1706 
Q 256 2144 472 2553 
Q 688 2963 1083 3178 
Q 1478 3394 1966 3394 
Q 2719 3394 3200 2905 
Q 3681 2416 3681 1669 
Q 3681 916 3195 420 
Q 2709 -75 1972 -75 
Q 1516 -75 1102 131 
Q 688 338 472 736 
Q 256 1134 256 1706 
z
M 1156 1659 
Q 1156 1166 1390 903 
Q 1625 641 1969 641 
Q 2313 641 2545 903 
Q 2778 1166 2778 1666 
Q 2778 2153 2545 2415 
Q 2313 2678 1969 2678 
Q 1625 2678 1390 2415 
Q 1156 2153 1156 1659 
z
" transform="scale(0.015625)"/>
      <path id="Arial-BoldMT-75" d="M 2644 0 
L 2644 497 
Q 2463 231 2167 78 
Q 1872 -75 1544 -75 
Q 1209 -75 943 72 
Q 678 219 559 484 
Q 441 750 441 1219 
L 441 3319 
L 1319 3319 
L 1319 1794 
Q 1319 1094 1367 936 
Q 1416 778 1544 686 
Q 1672 594 1869 594 
Q 2094 594 2272 717 
Q 2450 841 2515 1023 
Q 2581 1206 2581 1919 
L 2581 3319 
L 3459 3319 
L 3459 0 
L 2644 0 
z
" transform="scale(0.015625)"/>
     </defs>
     <use xlink:href="#Arial-BoldMT-44"/>
     <use xlink:href="#Arial-BoldMT-69" transform="translate(72.216797 0)"/>
     <use xlink:href="#Arial-BoldMT-66" transform="translate(100 0)"/>
     <use xlink:href="#Arial-BoldMT-66" transform="translate(133.300781 0)"/>
     <use xlink:href="#Arial-BoldMT-65" transform="translate(166.601562 0)"/>
     <use xlink:href="#Arial-BoldMT-72" transform="translate(222.216797 0)"/>
     <use xlink:href="#Arial-BoldMT-65" transform="translate(261.132812 0)"/>
     <use xlink:href="#Arial-BoldMT-6e" transform="translate(316.748047 0)"/>
     <use xlink:href="#Arial-BoldMT-74" transform="translate(377.832031 0)"/>
     <use xlink:href="#Arial-BoldMT-69" transform="translate(411.132812 0)"/>
     <use xlink:href="#Arial-BoldMT-61" transform="translate(438.916016 0)"/>
     <use xlink:href="#Arial-BoldMT-6c" transform="translate(494.53125 0)"/>
     <use xlink:href="#Arial-BoldMT-20" transform="translate(522.314453 0)"/>
     <use xlink:href="#Arial-BoldMT-65" transform="translate(550.097656 0)"/>
     <use xlink:href="#Arial-BoldMT-76" transform="translate(605.712891 0)"/>
     <use xlink:href="#Arial-BoldMT-6f" transform="translate(661.328125 0)"/>
     <use xlink:href="#Arial-BoldMT-6c" transform="translate(722.412109 0)"/>
     <use xlink:href="#Arial-BoldMT-75" transform="translate(750.195312 0)"/>
     <use xlink:href="#Arial-BoldMT-74" transform="translate(811.279297 0)"/>
     <use xlink:href="#Arial-BoldMT-69" transform="translate(844.580078 0)"/>
     <use xlink:href="#Arial-BoldMT-6f" transform="translate(872.363281 0)"/>
     <use xlink:href="#Arial-BoldMT-6e" transform="translate(933.447266 0)"/>
    </g>
   </g>
   <g id="text_7">
    <!-- island 3 -->
    <g style="fill: #444444" transform="translate(349.36879 167.521821) scale(0.08 -0.08)">
     <defs>
      <path id="ArialMT-33" d="M 269 1209 
L 831 1284 
Q 928 806 1161 595 
Q 1394 384 1728 384 
Q 2125 384 2398 659 
Q 2672 934 2672 1341 
Q 2672 1728 2419 1979 
Q 2166 2231 1775 2231 
Q 1616 2231 1378 2169 
L 1441 2663 
Q 1497 2656 1531 2656 
Q 1891 2656 2178 2843 
Q 2466 3031 2466 3422 
Q 2466 3731 2256 3934 
Q 2047 4138 1716 4138 
Q 1388 4138 1169 3931 
Q 950 3725 888 3313 
L 325 3413 
Q 428 3978 793 4289 
Q 1159 4600 1703 4600 
Q 2078 4600 2393 4439 
Q 2709 4278 2876 4000 
Q 3044 3722 3044 3409 
Q 3044 3113 2884 2869 
Q 2725 2625 2413 2481 
Q 2819 2388 3044 2092 
Q 3269 1797 3269 1353 
Q 3269 753 2831 336 
Q 2394 -81 1725 -81 
Q 1122 -81 723 278 
Q 325 638 269 1209 
z
" transform="scale(0.015625)"/>
     </defs>
     <use xlink:href="#ArialMT-69"/>
     <use xlink:href="#ArialMT-73" transform="translate(22.216797 0)"/>
     <use xlink:href="#ArialMT-6c" transform="translate(72.216797 0)"/>
     <use xlink:href="#ArialMT-61" transform="translate(94.433594 0)"/>
     <use xlink:href="#ArialMT-6e" transform="translate(150.048828 0)"/>
     <use xlink:href="#ArialMT-64" transform="translate(205.664062 0)"/>
     <use xlink:href="#ArialMT-20" transform="translate(261.279297 0)"/>
     <use xlink:href="#ArialMT-33" transform="translate(289.0625 0)"/>
    </g>
   </g>
   <g id="text_8">
    <!-- migrate -->
    <g style="fill: #777777" transform="translate(219.151125 118.685375) scale(0.08 -0.08)">
     <defs>
      <path id="Arial-ItalicMT-6d" d="M 209 0 
L 903 3319 
L 1469 3319 
L 1353 2772 
Q 1669 3125 1917 3259 
Q 2166 3394 2456 3394 
Q 2766 3394 2973 3230 
Q 3181 3066 3247 2772 
Q 3500 3084 3779 3239 
Q 4059 3394 4369 3394 
Q 4784 3394 4992 3197 
Q 5200 3000 5200 2644 
Q 5200 2491 5128 2138 
L 4681 0 
L 4116 0 
L 4572 2194 
Q 4631 2463 4631 2578 
Q 4631 2741 4528 2834 
Q 4425 2928 4238 2928 
Q 3984 2928 3721 2775 
Q 3459 2622 3314 2373 
Q 3169 2125 3059 1609 
L 2722 0 
L 2156 0 
L 2625 2241 
Q 2675 2469 2675 2566 
Q 2675 2728 2573 2828 
Q 2472 2928 2309 2928 
Q 2069 2928 1805 2775 
Q 1541 2622 1375 2348 
Q 1209 2075 1103 1569 
L 775 0 
L 209 0 
z
" transform="scale(0.015625)"/>
      <path id="Arial-ItalicMT-69" d="M 1016 3941 
L 1150 4581 
L 1713 4581 
L 1578 3941 
L 1016 3941 
z
M 191 0 
L 884 3319 
L 1450 3319 
L 756 0 
L 191 0 
z
" transform="scale(0.015625)"/>
      <path id="Arial-ItalicMT-67" d="M 181 -300 
L 753 -353 
Q 747 -547 800 -644 
Q 853 -741 969 -794 
Q 1122 -863 1366 -863 
Q 1878 -863 2103 -597 
Q 2250 -419 2375 178 
L 2431 447 
Q 1991 0 1494 0 
Q 991 0 652 370 
Q 313 741 313 1419 
Q 313 1978 580 2447 
Q 847 2916 1215 3155 
Q 1584 3394 1975 3394 
Q 2628 3394 2981 2775 
L 3094 3319 
L 3613 3319 
L 2944 116 
Q 2834 -413 2656 -708 
Q 2478 -1003 2161 -1165 
Q 1844 -1328 1428 -1328 
Q 1028 -1328 739 -1225 
Q 450 -1122 308 -923 
Q 166 -725 166 -469 
Q 166 -391 181 -300 
z
M 888 1469 
Q 888 1128 953 956 
Q 1047 716 1220 589 
Q 1394 463 1606 463 
Q 1884 463 2159 658 
Q 2434 853 2604 1262 
Q 2775 1672 2775 2044 
Q 2775 2453 2548 2695 
Q 2322 2938 1988 2938 
Q 1781 2938 1587 2827 
Q 1394 2716 1226 2489 
Q 1059 2263 973 1947 
Q 888 1631 888 1469 
z
" transform="scale(0.015625)"/>
      <path id="Arial-ItalicMT-72" d="M 213 0 
L 906 3319 
L 1406 3319 
L 1266 2641 
Q 1522 3025 1767 3209 
Q 2013 3394 2269 3394 
Q 2438 3394 2684 3272 
L 2453 2747 
Q 2306 2853 2131 2853 
Q 1834 2853 1521 2522 
Q 1209 2191 1031 1331 
L 750 0 
L 213 0 
z
" transform="scale(0.015625)"/>
      <path id="Arial-ItalicMT-61" d="M 2450 413 
Q 2156 159 1884 42 
Q 1613 -75 1303 -75 
Q 844 -75 562 195 
Q 281 466 281 888 
Q 281 1166 407 1380 
Q 534 1594 743 1723 
Q 953 1853 1256 1909 
Q 1447 1947 1980 1969 
Q 2513 1991 2744 2081 
Q 2809 2313 2809 2466 
Q 2809 2663 2666 2775 
Q 2469 2931 2091 2931 
Q 1734 2931 1507 2773 
Q 1281 2616 1178 2325 
L 606 2375 
Q 781 2869 1161 3131 
Q 1541 3394 2119 3394 
Q 2734 3394 3094 3100 
Q 3369 2881 3369 2531 
Q 3369 2266 3291 1916 
L 3106 1091 
Q 3019 697 3019 450 
Q 3019 294 3088 0 
L 2516 0 
Q 2469 163 2450 413 
z
M 2659 1681 
Q 2541 1634 2405 1609 
Q 2269 1584 1950 1556 
Q 1456 1513 1253 1445 
Q 1050 1378 947 1231 
Q 844 1084 844 906 
Q 844 669 1008 516 
Q 1172 363 1475 363 
Q 1756 363 2015 511 
Q 2275 659 2425 925 
Q 2575 1191 2659 1681 
z
" transform="scale(0.015625)"/>
      <path id="Arial-ItalicMT-74" d="M 1534 459 
L 1441 -3 
Q 1238 -56 1047 -56 
Q 709 -56 509 109 
Q 359 234 359 450 
Q 359 559 441 953 
L 844 2881 
L 397 2881 
L 488 3319 
L 934 3319 
L 1106 4134 
L 1753 4525 
L 1500 3319 
L 2056 3319 
L 1963 2881 
L 1409 2881 
L 1025 1047 
Q 953 697 953 628 
Q 953 528 1011 475 
Q 1069 422 1200 422 
Q 1388 422 1534 459 
z
" transform="scale(0.015625)"/>
      <path id="Arial-ItalicMT-65" d="M 2650 1128 
L 3200 1072 
Q 3081 663 2654 294 
Q 2228 -75 1638 -75 
Q 1269 -75 961 95 
Q 653 266 492 591 
Q 331 916 331 1331 
Q 331 1875 582 2386 
Q 834 2897 1234 3145 
Q 1634 3394 2100 3394 
Q 2694 3394 3048 3025 
Q 3403 2656 3403 2019 
Q 3403 1775 3359 1519 
L 916 1519 
Q 903 1422 903 1344 
Q 903 878 1117 633 
Q 1331 388 1641 388 
Q 1931 388 2212 578 
Q 2494 769 2650 1128 
z
M 1006 1950 
L 2869 1950 
Q 2872 2038 2872 2075 
Q 2872 2500 2659 2726 
Q 2447 2953 2113 2953 
Q 1750 2953 1451 2703 
Q 1153 2453 1006 1950 
z
" transform="scale(0.015625)"/>
     </defs>
     <use xlink:href="#Arial-ItalicMT-6d"/>
     <use xlink:href="#Arial-ItalicMT-69" transform="translate(83.300781 0)"/>
     <use xlink:href="#Arial-ItalicMT-67" transform="translate(105.517578 0)"/>
     <use xlink:href="#Arial-ItalicMT-72" transform="translate(161.132812 0)"/>
     <use xlink:href="#Arial-ItalicMT-61" transform="translate(194.433594 0)"/>
     <use xlink:href="#Arial-ItalicMT-74" transform="translate(250.048828 0)"/>
     <use xlink:href="#Arial-ItalicMT-65" transform="translate(277.832031 0)"/>
    </g>
    <!-- top-$n$ -->
    <g style="fill: #777777" transform="translate(223.048 127.216875) scale(0.08 -0.08)">
     <defs>
      <path id="Arial-ItalicMT-6f" d="M 313 1259 
Q 313 2231 884 2869 
Q 1356 3394 2122 3394 
Q 2722 3394 3089 3019 
Q 3456 2644 3456 2006 
Q 3456 1434 3225 942 
Q 2994 450 2567 187 
Q 2141 -75 1669 -75 
Q 1281 -75 964 90 
Q 647 256 480 559 
Q 313 863 313 1259 
z
M 878 1316 
Q 878 847 1103 605 
Q 1328 363 1675 363 
Q 1856 363 2034 436 
Q 2213 509 2366 659 
Q 2519 809 2626 1001 
Q 2734 1194 2800 1416 
Q 2897 1725 2897 2009 
Q 2897 2459 2670 2707 
Q 2444 2956 2100 2956 
Q 1834 2956 1615 2829 
Q 1397 2703 1220 2459 
Q 1044 2216 961 1892 
Q 878 1569 878 1316 
z
" transform="scale(0.015625)"/>
      <path id="Arial-ItalicMT-70" d="M -66 -1272 
L 894 3319 
L 1416 3319 
L 1319 2856 
Q 1609 3159 1839 3276 
Q 2069 3394 2325 3394 
Q 2800 3394 3112 3048 
Q 3425 2703 3425 2059 
Q 3425 1541 3253 1114 
Q 3081 688 2831 428 
Q 2581 169 2325 47 
Q 2069 -75 1800 -75 
Q 1203 -75 875 531 
L 500 -1272 
L -66 -1272 
z
M 1053 1356 
Q 1053 984 1106 841 
Q 1184 638 1362 513 
Q 1541 388 1775 388 
Q 2263 388 2563 936 
Q 2863 1484 2863 2056 
Q 2863 2478 2661 2708 
Q 2459 2938 2159 2938 
Q 1944 2938 1759 2823 
Q 1575 2709 1417 2482 
Q 1259 2256 1156 1928 
Q 1053 1600 1053 1356 
z
" transform="scale(0.015625)"/>
      <path id="Arial-ItalicMT-2d" d="M 297 1375 
L 416 1941 
L 2141 1941 
L 2025 1375 
L 297 1375 
z
" transform="scale(0.015625)"/>
     </defs>
     <use xlink:href="#Arial-ItalicMT-74" transform="translate(0 0.296875)"/>
     <use xlink:href="#Arial-ItalicMT-6f" transform="translate(27.783203 0.296875)"/>
     <use xlink:href="#Arial-ItalicMT-70" transform="translate(83.398438 0.296875)"/>
     <use xlink:href="#Arial-ItalicMT-2d" transform="translate(139.013672 0.296875)"/>
     <use xlink:href="#DejaVuSans-Oblique-6e" transform="translate(172.314453 0.296875)"/>
    </g>
   </g>
  </g>
 </g>
 <defs>
  <clipPath id="pbb4dccef25">
   <rect x="7.2" y="7.2" width="450.576" height="227.376"/>
  </clipPath>
 </defs>
</svg>
