<?xml version="1.0" encoding="utf-8" standalone="no"?>
<!DOCTYPE svg PUBLIC "-//W3C//DTD SVG 1.1//EN"
  "http://www.w3.org/Graphics/SVG/1.1/DTD/svg11.dtd">
<svg xmlns:xlink="http://www.w3.org/1999/xlink" width="608.050691pt" height="254.782847pt" viewBox="0 0 608.050691 254.782847" xmlns="http://www.w3.org/2000/svg" version="1.1">
 <metadata>
  <rdf:RDF xmlns:dc="http://purl.org/dc/elements/1.1/" xmlns:cc="http://creativecommons.org/ns#" xmlns:rdf="http://www.w3.org/1999/02/22-rdf-syntax-ns#">
   <cc:Work>
    <dc:type rdf:resource="http://purl.org/dc/dcmitype/StillImage"/>
    <dc:date>2026-06-27T12:41:55.125053</dc:date>
    <dc:format>image/svg+xml</dc:format>
    <dc:creator>
     <cc:Agent>
      <dc:title>Matplotlib v3.10.9, https://matplotlib.org/</dc:title>
     </cc:Agent>
    </dc:creator>
   </cc:Work>
  </rdf:RDF>
 </metadata>
 <defs>
  <style type="text/css">*{stroke-linejoin: round; stroke-linecap: butt}</style>
 </defs>
 <g id="figure_1">
  <g id="patch_1">
   <path d="M 0 254.782847 
L 608.050691 254.782847 
L 608.050691 0 
L 0 0 
z
" style="fill: #ffffff"/>
  </g>
  <g id="axes_1">
   <g id="patch_2">
    <path d="M 48.963539 210.803691 
L 261.097977 210.803691 
L 261.097977 20.479687 
L 48.963539 20.479687 
z
" style="fill: #f5f5f5"/>
   </g>
   <g id="matplotlib.axis_1">
    <g id="xtick_1">
     <g id="line2d_1">
      <path d="M 57.573355 210.803691 
L 57.573355 20.479687 
" clip-path="url(#p823175d1fc)" style="fill: none; stroke: #cccccc; stroke-linecap: round"/>
     </g>
     <g id="text_1">
      <!-- $\mathdefault{10^{2}}$ -->
      <g style="fill: #262626" transform="translate(49.370105 231.080253) scale(0.1045 -0.1045)">
       <defs>
        <path id="ArialMT-31" d="M 2384 0 
L 1822 0 
L 1822 3584 
Q 1619 3391 1289 3197 
Q 959 3003 697 2906 
L 697 3450 
Q 1169 3672 1522 3987 
Q 1875 4303 2022 4600 
L 2384 4600 
L 2384 0 
z
" transform="scale(0.015625)"/>
        <path id="ArialMT-30" d="M 266 2259 
Q 266 3072 433 3567 
Q 600 4063 929 4331 
Q 1259 4600 1759 4600 
Q 2128 4600 2406 4451 
Q 2684 4303 2865 4023 
Q 3047 3744 3150 3342 
Q 3253 2941 3253 2259 
Q 3253 1453 3087 958 
Q 2922 463 2592 192 
Q 2263 -78 1759 -78 
Q 1097 -78 719 397 
Q 266 969 266 2259 
z
M 844 2259 
Q 844 1131 1108 757 
Q 1372 384 1759 384 
Q 2147 384 2411 759 
Q 2675 1134 2675 2259 
Q 2675 3391 2411 3762 
Q 2147 4134 1753 4134 
Q 1366 4134 1134 3806 
Q 844 3388 844 2259 
z
" transform="scale(0.015625)"/>
        <path id="ArialMT-32" d="M 3222 541 
L 3222 0 
L 194 0 
Q 188 203 259 391 
Q 375 700 629 1000 
Q 884 1300 1366 1694 
Q 2113 2306 2375 2664 
Q 2638 3022 2638 3341 
Q 2638 3675 2398 3904 
Q 2159 4134 1775 4134 
Q 1369 4134 1125 3890 
Q 881 3647 878 3216 
L 300 3275 
Q 359 3922 746 4261 
Q 1134 4600 1788 4600 
Q 2447 4600 2831 4234 
Q 3216 3869 3216 3328 
Q 3216 3053 3103 2787 
Q 2991 2522 2730 2228 
Q 2469 1934 1863 1422 
Q 1356 997 1212 845 
Q 1069 694 975 541 
L 3222 541 
z
" transform="scale(0.015625)"/>
       </defs>
       <use xlink:href="#ArialMT-31" transform="translate(0 0.99375)"/>
       <use xlink:href="#ArialMT-30" transform="translate(55.615234 0.99375)"/>
       <use xlink:href="#ArialMT-32" transform="translate(112.972813 70.6875) scale(0.7)"/>
      </g>
     </g>
    </g>
    <g id="xtick_2">
     <g id="line2d_2">
      <path d="M 177.647541 210.803691 
L 177.647541 20.479687 
" clip-path="url(#p823175d1fc)" style="fill: none; stroke: #cccccc; stroke-linecap: round"/>
     </g>
     <g id="text_2">
      <!-- $\mathdefault{10^{3}}$ -->
      <g style="fill: #262626" transform="translate(169.444291 231.080253) scale(0.1045 -0.1045)">
       <defs>
        <path id="ArialMT-33" d="M 269 1209 
L 831 1284 
Q 928 806 1161 595 
Q 1394 384 1728 384 
Q 2125 384 2398 659 
Q 2672 934 2672 1341 
Q 2672 1728 2419 1979 
Q 2166 2231 1775 2231 
Q 1616 2231 1378 2169 
L 1441 2663 
Q 1497 2656 1531 2656 
Q 1891 2656 2178 2843 
Q 2466 3031 2466 3422 
Q 2466 3731 2256 3934 
Q 2047 4138 1716 4138 
Q 1388 4138 1169 3931 
Q 950 3725 888 3313 
L 325 3413 
Q 428 3978 793 4289 
Q 1159 4600 1703 4600 
Q 2078 4600 2393 4439 
Q 2709 4278 2876 4000 
Q 3044 3722 3044 3409 
Q 3044 3113 2884 2869 
Q 2725 2625 2413 2481 
Q 2819 2388 3044 2092 
Q 3269 1797 3269 1353 
Q 3269 753 2831 336 
Q 2394 -81 1725 -81 
Q 1122 -81 723 278 
Q 325 638 269 1209 
z
" transform="scale(0.015625)"/>
       </defs>
       <use xlink:href="#ArialMT-31" transform="translate(0 0.99375)"/>
       <use xlink:href="#ArialMT-30" transform="translate(55.615234 0.99375)"/>
       <use xlink:href="#ArialMT-33" transform="translate(112.972813 70.6875) scale(0.7)"/>
      </g>
     </g>
    </g>
    <g id="xtick_3"/>
    <g id="xtick_4"/>
    <g id="xtick_5"/>
    <g id="xtick_6"/>
    <g id="xtick_7"/>
    <g id="xtick_8"/>
    <g id="xtick_9"/>
    <g id="xtick_10"/>
    <g id="xtick_11"/>
    <g id="xtick_12"/>
    <g id="xtick_13"/>
    <g id="xtick_14"/>
    <g id="text_3">
     <!-- trainable parameters -->
     <g style="fill: #262626" transform="translate(102.758196 245.317097) scale(0.114 -0.114)">
      <defs>
       <path id="ArialMT-74" d="M 1650 503 
L 1731 6 
Q 1494 -44 1306 -44 
Q 1000 -44 831 53 
Q 663 150 594 308 
Q 525 466 525 972 
L 525 2881 
L 113 2881 
L 113 3319 
L 525 3319 
L 525 4141 
L 1084 4478 
L 1084 3319 
L 1650 3319 
L 1650 2881 
L 1084 2881 
L 1084 941 
Q 1084 700 1114 631 
Q 1144 563 1211 522 
Q 1278 481 1403 481 
Q 1497 481 1650 503 
z
" transform="scale(0.015625)"/>
       <path id="ArialMT-72" d="M 416 0 
L 416 3319 
L 922 3319 
L 922 2816 
Q 1116 3169 1280 3281 
Q 1444 3394 1641 3394 
Q 1925 3394 2219 3213 
L 2025 2691 
Q 1819 2813 1613 2813 
Q 1428 2813 1281 2702 
Q 1134 2591 1072 2394 
Q 978 2094 978 1738 
L 978 0 
L 416 0 
z
" transform="scale(0.015625)"/>
       <path id="ArialMT-61" d="M 2588 409 
Q 2275 144 1986 34 
Q 1697 -75 1366 -75 
Q 819 -75 525 192 
Q 231 459 231 875 
Q 231 1119 342 1320 
Q 453 1522 633 1644 
Q 813 1766 1038 1828 
Q 1203 1872 1538 1913 
Q 2219 1994 2541 2106 
Q 2544 2222 2544 2253 
Q 2544 2597 2384 2738 
Q 2169 2928 1744 2928 
Q 1347 2928 1158 2789 
Q 969 2650 878 2297 
L 328 2372 
Q 403 2725 575 2942 
Q 747 3159 1072 3276 
Q 1397 3394 1825 3394 
Q 2250 3394 2515 3294 
Q 2781 3194 2906 3042 
Q 3031 2891 3081 2659 
Q 3109 2516 3109 2141 
L 3109 1391 
Q 3109 606 3145 398 
Q 3181 191 3288 0 
L 2700 0 
Q 2613 175 2588 409 
z
M 2541 1666 
Q 2234 1541 1622 1453 
Q 1275 1403 1131 1340 
Q 988 1278 909 1158 
Q 831 1038 831 891 
Q 831 666 1001 516 
Q 1172 366 1500 366 
Q 1825 366 2078 508 
Q 2331 650 2450 897 
Q 2541 1088 2541 1459 
L 2541 1666 
z
" transform="scale(0.015625)"/>
       <path id="ArialMT-69" d="M 425 3934 
L 425 4581 
L 988 4581 
L 988 3934 
L 425 3934 
z
M 425 0 
L 425 3319 
L 988 3319 
L 988 0 
L 425 0 
z
" transform="scale(0.015625)"/>
       <path id="ArialMT-6e" d="M 422 0 
L 422 3319 
L 928 3319 
L 928 2847 
Q 1294 3394 1984 3394 
Q 2284 3394 2536 3286 
Q 2788 3178 2913 3003 
Q 3038 2828 3088 2588 
Q 3119 2431 3119 2041 
L 3119 0 
L 2556 0 
L 2556 2019 
Q 2556 2363 2490 2533 
Q 2425 2703 2258 2804 
Q 2091 2906 1866 2906 
Q 1506 2906 1245 2678 
Q 984 2450 984 1813 
L 984 0 
L 422 0 
z
" transform="scale(0.015625)"/>
       <path id="ArialMT-62" d="M 941 0 
L 419 0 
L 419 4581 
L 981 4581 
L 981 2947 
Q 1338 3394 1891 3394 
Q 2197 3394 2470 3270 
Q 2744 3147 2920 2923 
Q 3097 2700 3197 2384 
Q 3297 2069 3297 1709 
Q 3297 856 2875 390 
Q 2453 -75 1863 -75 
Q 1275 -75 941 416 
L 941 0 
z
M 934 1684 
Q 934 1088 1097 822 
Q 1363 388 1816 388 
Q 2184 388 2453 708 
Q 2722 1028 2722 1663 
Q 2722 2313 2464 2622 
Q 2206 2931 1841 2931 
Q 1472 2931 1203 2611 
Q 934 2291 934 1684 
z
" transform="scale(0.015625)"/>
       <path id="ArialMT-6c" d="M 409 0 
L 409 4581 
L 972 4581 
L 972 0 
L 409 0 
z
" transform="scale(0.015625)"/>
       <path id="ArialMT-65" d="M 2694 1069 
L 3275 997 
Q 3138 488 2766 206 
Q 2394 -75 1816 -75 
Q 1088 -75 661 373 
Q 234 822 234 1631 
Q 234 2469 665 2931 
Q 1097 3394 1784 3394 
Q 2450 3394 2872 2941 
Q 3294 2488 3294 1666 
Q 3294 1616 3291 1516 
L 816 1516 
Q 847 969 1125 678 
Q 1403 388 1819 388 
Q 2128 388 2347 550 
Q 2566 713 2694 1069 
z
M 847 1978 
L 2700 1978 
Q 2663 2397 2488 2606 
Q 2219 2931 1791 2931 
Q 1403 2931 1139 2672 
Q 875 2413 847 1978 
z
" transform="scale(0.015625)"/>
       <path id="ArialMT-20" transform="scale(0.015625)"/>
       <path id="ArialMT-70" d="M 422 -1272 
L 422 3319 
L 934 3319 
L 934 2888 
Q 1116 3141 1344 3267 
Q 1572 3394 1897 3394 
Q 2322 3394 2647 3175 
Q 2972 2956 3137 2557 
Q 3303 2159 3303 1684 
Q 3303 1175 3120 767 
Q 2938 359 2589 142 
Q 2241 -75 1856 -75 
Q 1575 -75 1351 44 
Q 1128 163 984 344 
L 984 -1272 
L 422 -1272 
z
M 931 1641 
Q 931 1000 1190 694 
Q 1450 388 1819 388 
Q 2194 388 2461 705 
Q 2728 1022 2728 1688 
Q 2728 2322 2467 2637 
Q 2206 2953 1844 2953 
Q 1484 2953 1207 2617 
Q 931 2281 931 1641 
z
" transform="scale(0.015625)"/>
       <path id="ArialMT-6d" d="M 422 0 
L 422 3319 
L 925 3319 
L 925 2853 
Q 1081 3097 1340 3245 
Q 1600 3394 1931 3394 
Q 2300 3394 2536 3241 
Q 2772 3088 2869 2813 
Q 3263 3394 3894 3394 
Q 4388 3394 4653 3120 
Q 4919 2847 4919 2278 
L 4919 0 
L 4359 0 
L 4359 2091 
Q 4359 2428 4304 2576 
Q 4250 2725 4106 2815 
Q 3963 2906 3769 2906 
Q 3419 2906 3187 2673 
Q 2956 2441 2956 1928 
L 2956 0 
L 2394 0 
L 2394 2156 
Q 2394 2531 2256 2718 
Q 2119 2906 1806 2906 
Q 1569 2906 1367 2781 
Q 1166 2656 1075 2415 
Q 984 2175 984 1722 
L 984 0 
L 422 0 
z
" transform="scale(0.015625)"/>
       <path id="ArialMT-73" d="M 197 991 
L 753 1078 
Q 800 744 1014 566 
Q 1228 388 1613 388 
Q 2000 388 2187 545 
Q 2375 703 2375 916 
Q 2375 1106 2209 1216 
Q 2094 1291 1634 1406 
Q 1016 1563 777 1677 
Q 538 1791 414 1992 
Q 291 2194 291 2438 
Q 291 2659 392 2848 
Q 494 3038 669 3163 
Q 800 3259 1026 3326 
Q 1253 3394 1513 3394 
Q 1903 3394 2198 3281 
Q 2494 3169 2634 2976 
Q 2775 2784 2828 2463 
L 2278 2388 
Q 2241 2644 2061 2787 
Q 1881 2931 1553 2931 
Q 1166 2931 1000 2803 
Q 834 2675 834 2503 
Q 834 2394 903 2306 
Q 972 2216 1119 2156 
Q 1203 2125 1616 2013 
Q 2213 1853 2448 1751 
Q 2684 1650 2818 1456 
Q 2953 1263 2953 975 
Q 2953 694 2789 445 
Q 2625 197 2315 61 
Q 2006 -75 1616 -75 
Q 969 -75 630 194 
Q 291 463 197 991 
z
" transform="scale(0.015625)"/>
      </defs>
      <use xlink:href="#ArialMT-74"/>
      <use xlink:href="#ArialMT-72" transform="translate(27.783203 0)"/>
      <use xlink:href="#ArialMT-61" transform="translate(61.083984 0)"/>
      <use xlink:href="#ArialMT-69" transform="translate(116.699219 0)"/>
      <use xlink:href="#ArialMT-6e" transform="translate(138.916016 0)"/>
      <use xlink:href="#ArialMT-61" transform="translate(194.53125 0)"/>
      <use xlink:href="#ArialMT-62" transform="translate(250.146484 0)"/>
      <use xlink:href="#ArialMT-6c" transform="translate(305.761719 0)"/>
      <use xlink:href="#ArialMT-65" transform="translate(327.978516 0)"/>
      <use xlink:href="#ArialMT-20" transform="translate(383.59375 0)"/>
      <use xlink:href="#ArialMT-70" transform="translate(411.376953 0)"/>
      <use xlink:href="#ArialMT-61" transform="translate(466.992188 0)"/>
      <use xlink:href="#ArialMT-72" transform="translate(522.607422 0)"/>
      <use xlink:href="#ArialMT-61" transform="translate(555.908203 0)"/>
      <use xlink:href="#ArialMT-6d" transform="translate(611.523438 0)"/>
      <use xlink:href="#ArialMT-65" transform="translate(694.824219 0)"/>
      <use xlink:href="#ArialMT-74" transform="translate(750.439453 0)"/>
      <use xlink:href="#ArialMT-65" transform="translate(778.222656 0)"/>
      <use xlink:href="#ArialMT-72" transform="translate(833.837891 0)"/>
      <use xlink:href="#ArialMT-73" transform="translate(867.138672 0)"/>
     </g>
    </g>
   </g>
   <g id="matplotlib.axis_2">
    <g id="ytick_1">
     <g id="line2d_3">
      <path d="M 48.963539 187.538754 
L 261.097977 187.538754 
" clip-path="url(#p823175d1fc)" style="fill: none; stroke: #cccccc; stroke-linecap: round"/>
     </g>
     <g id="text_4">
      <!-- 125 -->
      <g style="fill: #262626" transform="translate(22.03 191.278711) scale(0.1045 -0.1045)">
       <defs>
        <path id="ArialMT-35" d="M 266 1200 
L 856 1250 
Q 922 819 1161 601 
Q 1400 384 1738 384 
Q 2144 384 2425 690 
Q 2706 997 2706 1503 
Q 2706 1984 2436 2262 
Q 2166 2541 1728 2541 
Q 1456 2541 1237 2417 
Q 1019 2294 894 2097 
L 366 2166 
L 809 4519 
L 3088 4519 
L 3088 3981 
L 1259 3981 
L 1013 2750 
Q 1425 3038 1878 3038 
Q 2478 3038 2890 2622 
Q 3303 2206 3303 1553 
Q 3303 931 2941 478 
Q 2500 -78 1738 -78 
Q 1113 -78 717 272 
Q 322 622 266 1200 
z
" transform="scale(0.015625)"/>
       </defs>
       <use xlink:href="#ArialMT-31"/>
       <use xlink:href="#ArialMT-32" transform="translate(55.615234 0)"/>
       <use xlink:href="#ArialMT-35" transform="translate(111.230469 0)"/>
      </g>
     </g>
    </g>
    <g id="ytick_2">
     <g id="line2d_4">
      <path d="M 48.963539 158.709216 
L 261.097977 158.709216 
" clip-path="url(#p823175d1fc)" style="fill: none; stroke: #cccccc; stroke-linecap: round"/>
     </g>
     <g id="text_5">
      <!-- 130 -->
      <g style="fill: #262626" transform="translate(22.03 162.449173) scale(0.1045 -0.1045)">
       <use xlink:href="#ArialMT-31"/>
       <use xlink:href="#ArialMT-33" transform="translate(55.615234 0)"/>
       <use xlink:href="#ArialMT-30" transform="translate(111.230469 0)"/>
      </g>
     </g>
    </g>
    <g id="ytick_3">
     <g id="line2d_5">
      <path d="M 48.963539 129.879678 
L 261.097977 129.879678 
" clip-path="url(#p823175d1fc)" style="fill: none; stroke: #cccccc; stroke-linecap: round"/>
     </g>
     <g id="text_6">
      <!-- 135 -->
      <g style="fill: #262626" transform="translate(22.03 133.619635) scale(0.1045 -0.1045)">
       <use xlink:href="#ArialMT-31"/>
       <use xlink:href="#ArialMT-33" transform="translate(55.615234 0)"/>
       <use xlink:href="#ArialMT-35" transform="translate(111.230469 0)"/>
      </g>
     </g>
    </g>
    <g id="ytick_4">
     <g id="line2d_6">
      <path d="M 48.963539 101.05014 
L 261.097977 101.05014 
" clip-path="url(#p823175d1fc)" style="fill: none; stroke: #cccccc; stroke-linecap: round"/>
     </g>
     <g id="text_7">
      <!-- 140 -->
      <g style="fill: #262626" transform="translate(22.03 104.790097) scale(0.1045 -0.1045)">
       <defs>
        <path id="ArialMT-34" d="M 2069 0 
L 2069 1097 
L 81 1097 
L 81 1613 
L 2172 4581 
L 2631 4581 
L 2631 1613 
L 3250 1613 
L 3250 1097 
L 2631 1097 
L 2631 0 
L 2069 0 
z
M 2069 1613 
L 2069 3678 
L 634 1613 
L 2069 1613 
z
" transform="scale(0.015625)"/>
       </defs>
       <use xlink:href="#ArialMT-31"/>
       <use xlink:href="#ArialMT-34" transform="translate(55.615234 0)"/>
       <use xlink:href="#ArialMT-30" transform="translate(111.230469 0)"/>
      </g>
     </g>
    </g>
    <g id="ytick_5">
     <g id="line2d_7">
      <path d="M 48.963539 72.220602 
L 261.097977 72.220602 
" clip-path="url(#p823175d1fc)" style="fill: none; stroke: #cccccc; stroke-linecap: round"/>
     </g>
     <g id="text_8">
      <!-- 145 -->
      <g style="fill: #262626" transform="translate(22.03 75.960559) scale(0.1045 -0.1045)">
       <use xlink:href="#ArialMT-31"/>
       <use xlink:href="#ArialMT-34" transform="translate(55.615234 0)"/>
       <use xlink:href="#ArialMT-35" transform="translate(111.230469 0)"/>
      </g>
     </g>
    </g>
    <g id="ytick_6">
     <g id="line2d_8">
      <path d="M 48.963539 43.391064 
L 261.097977 43.391064 
" clip-path="url(#p823175d1fc)" style="fill: none; stroke: #cccccc; stroke-linecap: round"/>
     </g>
     <g id="text_9">
      <!-- 150 -->
      <g style="fill: #262626" transform="translate(22.03 47.131021) scale(0.1045 -0.1045)">
       <use xlink:href="#ArialMT-31"/>
       <use xlink:href="#ArialMT-35" transform="translate(55.615234 0)"/>
       <use xlink:href="#ArialMT-30" transform="translate(111.230469 0)"/>
      </g>
     </g>
    </g>
    <g id="text_10">
     <!-- dv$_{99}$ (m/s) -->
     <g style="fill: #262626" transform="translate(15.522 141.519689) rotate(-90) scale(0.114 -0.114)">
      <defs>
       <path id="ArialMT-64" d="M 2575 0 
L 2575 419 
Q 2259 -75 1647 -75 
Q 1250 -75 917 144 
Q 584 363 401 755 
Q 219 1147 219 1656 
Q 219 2153 384 2558 
Q 550 2963 881 3178 
Q 1213 3394 1622 3394 
Q 1922 3394 2156 3267 
Q 2391 3141 2538 2938 
L 2538 4581 
L 3097 4581 
L 3097 0 
L 2575 0 
z
M 797 1656 
Q 797 1019 1065 703 
Q 1334 388 1700 388 
Q 2069 388 2326 689 
Q 2584 991 2584 1609 
Q 2584 2291 2321 2609 
Q 2059 2928 1675 2928 
Q 1300 2928 1048 2622 
Q 797 2316 797 1656 
z
" transform="scale(0.015625)"/>
       <path id="ArialMT-76" d="M 1344 0 
L 81 3319 
L 675 3319 
L 1388 1331 
Q 1503 1009 1600 663 
Q 1675 925 1809 1294 
L 2547 3319 
L 3125 3319 
L 1869 0 
L 1344 0 
z
" transform="scale(0.015625)"/>
       <path id="DejaVuSans-39" d="M 703 97 
L 703 672 
Q 941 559 1184 500 
Q 1428 441 1663 441 
Q 2288 441 2617 861 
Q 2947 1281 2994 2138 
Q 2813 1869 2534 1725 
Q 2256 1581 1919 1581 
Q 1219 1581 811 2004 
Q 403 2428 403 3163 
Q 403 3881 828 4315 
Q 1253 4750 1959 4750 
Q 2769 4750 3195 4129 
Q 3622 3509 3622 2328 
Q 3622 1225 3098 567 
Q 2575 -91 1691 -91 
Q 1453 -91 1209 -44 
Q 966 3 703 97 
z
M 1959 2075 
Q 2384 2075 2632 2365 
Q 2881 2656 2881 3163 
Q 2881 3666 2632 3958 
Q 2384 4250 1959 4250 
Q 1534 4250 1286 3958 
Q 1038 3666 1038 3163 
Q 1038 2656 1286 2365 
Q 1534 2075 1959 2075 
z
" transform="scale(0.015625)"/>
       <path id="ArialMT-28" d="M 1497 -1347 
Q 1031 -759 709 28 
Q 388 816 388 1659 
Q 388 2403 628 3084 
Q 909 3875 1497 4659 
L 1900 4659 
Q 1522 4009 1400 3731 
Q 1209 3300 1100 2831 
Q 966 2247 966 1656 
Q 966 153 1900 -1347 
L 1497 -1347 
z
" transform="scale(0.015625)"/>
       <path id="ArialMT-2f" d="M 0 -78 
L 1328 4659 
L 1778 4659 
L 453 -78 
L 0 -78 
z
" transform="scale(0.015625)"/>
       <path id="ArialMT-29" d="M 791 -1347 
L 388 -1347 
Q 1322 153 1322 1656 
Q 1322 2244 1188 2822 
Q 1081 3291 891 3722 
Q 769 4003 388 4659 
L 791 4659 
Q 1378 3875 1659 3084 
Q 1900 2403 1900 1659 
Q 1900 816 1576 28 
Q 1253 -759 791 -1347 
z
" transform="scale(0.015625)"/>
      </defs>
      <use xlink:href="#ArialMT-64" transform="translate(0 0.203125)"/>
      <use xlink:href="#ArialMT-76" transform="translate(55.615234 0.203125)"/>
      <use xlink:href="#DejaVuSans-39" transform="translate(106.572266 -16.203125) scale(0.7)"/>
      <use xlink:href="#DejaVuSans-39" transform="translate(151.108398 -16.203125) scale(0.7)"/>
      <use xlink:href="#ArialMT-20" transform="translate(198.378906 0.203125)"/>
      <use xlink:href="#ArialMT-28" transform="translate(226.162109 0.203125)"/>
      <use xlink:href="#ArialMT-6d" transform="translate(259.462891 0.203125)"/>
      <use xlink:href="#ArialMT-2f" transform="translate(342.763672 0.203125)"/>
      <use xlink:href="#ArialMT-73" transform="translate(370.546875 0.203125)"/>
      <use xlink:href="#ArialMT-29" transform="translate(420.546875 0.203125)"/>
     </g>
    </g>
   </g>
   <g id="line2d_9">
    <path d="M 58.606014 29.130779 
L 93.979375 111.291216 
L 114.514487 118.01502 
L 131.910482 129.296269 
L 143.043028 134.760973 
L 176.166577 132.793007 
L 212.660072 134.598057 
L 249.913324 140.885245 
" clip-path="url(#p823175d1fc)" style="fill: none; stroke: #4878cf; stroke-opacity: 0.85; stroke-width: 1.4; stroke-linecap: round"/>
    <defs>
     <path id="m93f8003d39" d="M 0 2 
C 0.530406 2 1.03916 1.789267 1.414214 1.414214 
C 1.789267 1.03916 2 0.530406 2 0 
C 2 -0.530406 1.789267 -1.03916 1.414214 -1.414214 
C 1.03916 -1.789267 0.530406 -2 0 -2 
C -0.530406 -2 -1.03916 -1.789267 -1.414214 -1.414214 
C -1.789267 -1.03916 -2 -0.530406 -2 0 
C -2 0.530406 -1.789267 1.03916 -1.414214 1.414214 
C -1.03916 1.789267 -0.530406 2 0 2 
z
" style="stroke: #4878cf; stroke-opacity: 0.85"/>
    </defs>
    <g clip-path="url(#p823175d1fc)">
     <use xlink:href="#m93f8003d39" x="58.606014" y="29.130779" style="fill: #4878cf; fill-opacity: 0.85; stroke: #4878cf; stroke-opacity: 0.85"/>
     <use xlink:href="#m93f8003d39" x="93.979375" y="111.291216" style="fill: #4878cf; fill-opacity: 0.85; stroke: #4878cf; stroke-opacity: 0.85"/>
     <use xlink:href="#m93f8003d39" x="114.514487" y="118.01502" style="fill: #4878cf; fill-opacity: 0.85; stroke: #4878cf; stroke-opacity: 0.85"/>
     <use xlink:href="#m93f8003d39" x="131.910482" y="129.296269" style="fill: #4878cf; fill-opacity: 0.85; stroke: #4878cf; stroke-opacity: 0.85"/>
     <use xlink:href="#m93f8003d39" x="143.043028" y="134.760973" style="fill: #4878cf; fill-opacity: 0.85; stroke: #4878cf; stroke-opacity: 0.85"/>
     <use xlink:href="#m93f8003d39" x="176.166577" y="132.793007" style="fill: #4878cf; fill-opacity: 0.85; stroke: #4878cf; stroke-opacity: 0.85"/>
     <use xlink:href="#m93f8003d39" x="212.660072" y="134.598057" style="fill: #4878cf; fill-opacity: 0.85; stroke: #4878cf; stroke-opacity: 0.85"/>
     <use xlink:href="#m93f8003d39" x="249.913324" y="140.885245" style="fill: #4878cf; fill-opacity: 0.85; stroke: #4878cf; stroke-opacity: 0.85"/>
    </g>
   </g>
   <g id="line2d_10">
    <path d="M 139.155106 143.393716 
L 212.58007 135.943559 
L 250.997619 202.1526 
" clip-path="url(#p823175d1fc)" style="fill: none; stroke: #999999; stroke-opacity: 0.85; stroke-width: 1.4; stroke-linecap: round"/>
    <defs>
     <path id="mf265dad958" d="M 0 2 
C 0.530406 2 1.03916 1.789267 1.414214 1.414214 
C 1.789267 1.03916 2 0.530406 2 0 
C 2 -0.530406 1.789267 -1.03916 1.414214 -1.414214 
C 1.03916 -1.789267 0.530406 -2 0 -2 
C -0.530406 -2 -1.03916 -1.789267 -1.414214 -1.414214 
C -1.789267 -1.03916 -2 -0.530406 -2 0 
C -2 0.530406 -1.789267 1.03916 -1.414214 1.414214 
C -1.03916 1.789267 -0.530406 2 0 2 
z
" style="stroke: #999999; stroke-opacity: 0.85"/>
    </defs>
    <g clip-path="url(#p823175d1fc)">
     <use xlink:href="#mf265dad958" x="139.155106" y="143.393716" style="fill: #999999; fill-opacity: 0.85; stroke: #999999; stroke-opacity: 0.85"/>
     <use xlink:href="#mf265dad958" x="212.58007" y="135.943559" style="fill: #999999; fill-opacity: 0.85; stroke: #999999; stroke-opacity: 0.85"/>
     <use xlink:href="#mf265dad958" x="250.997619" y="202.1526" style="fill: #999999; fill-opacity: 0.85; stroke: #999999; stroke-opacity: 0.85"/>
    </g>
   </g>
   <g id="line2d_11">
    <path d="M 136.926239 149.239997 
L 212.793135 146.220766 
L 251.455503 172.257157 
" clip-path="url(#p823175d1fc)" style="fill: none; stroke: #6a51a3; stroke-opacity: 0.85; stroke-width: 1.4; stroke-linecap: round"/>
    <defs>
     <path id="ma90f21a0f1" d="M 0 2 
C 0.530406 2 1.03916 1.789267 1.414214 1.414214 
C 1.789267 1.03916 2 0.530406 2 0 
C 2 -0.530406 1.789267 -1.03916 1.414214 -1.414214 
C 1.03916 -1.789267 0.530406 -2 0 -2 
C -0.530406 -2 -1.03916 -1.789267 -1.414214 -1.414214 
C -1.789267 -1.03916 -2 -0.530406 -2 0 
C -2 0.530406 -1.789267 1.03916 -1.414214 1.414214 
C -1.03916 1.789267 -0.530406 2 0 2 
z
" style="stroke: #6a51a3; stroke-opacity: 0.85"/>
    </defs>
    <g clip-path="url(#p823175d1fc)">
     <use xlink:href="#ma90f21a0f1" x="136.926239" y="149.239997" style="fill: #6a51a3; fill-opacity: 0.85; stroke: #6a51a3; stroke-opacity: 0.85"/>
     <use xlink:href="#ma90f21a0f1" x="212.793135" y="146.220766" style="fill: #6a51a3; fill-opacity: 0.85; stroke: #6a51a3; stroke-opacity: 0.85"/>
     <use xlink:href="#ma90f21a0f1" x="251.455503" y="172.257157" style="fill: #6a51a3; fill-opacity: 0.85; stroke: #6a51a3; stroke-opacity: 0.85"/>
    </g>
   </g>
   <g id="line2d_12">
    <path d="M 139.589672 154.59769 
L 214.492755 153.895281 
L 250.869712 171.747006 
" clip-path="url(#p823175d1fc)" style="fill: none; stroke: #1f6f3f; stroke-opacity: 0.85; stroke-width: 1.4; stroke-linecap: round"/>
    <defs>
     <path id="mb82c238c6c" d="M 0 2 
C 0.530406 2 1.03916 1.789267 1.414214 1.414214 
C 1.789267 1.03916 2 0.530406 2 0 
C 2 -0.530406 1.789267 -1.03916 1.414214 -1.414214 
C 1.03916 -1.789267 0.530406 -2 0 -2 
C -0.530406 -2 -1.03916 -1.789267 -1.414214 -1.414214 
C -1.789267 -1.03916 -2 -0.530406 -2 0 
C -2 0.530406 -1.789267 1.03916 -1.414214 1.414214 
C -1.03916 1.789267 -0.530406 2 0 2 
z
" style="stroke: #1f6f3f; stroke-opacity: 0.85"/>
    </defs>
    <g clip-path="url(#p823175d1fc)">
     <use xlink:href="#mb82c238c6c" x="139.589672" y="154.59769" style="fill: #1f6f3f; fill-opacity: 0.85; stroke: #1f6f3f; stroke-opacity: 0.85"/>
     <use xlink:href="#mb82c238c6c" x="214.492755" y="153.895281" style="fill: #1f6f3f; fill-opacity: 0.85; stroke: #1f6f3f; stroke-opacity: 0.85"/>
     <use xlink:href="#mb82c238c6c" x="250.869712" y="171.747006" style="fill: #1f6f3f; fill-opacity: 0.85; stroke: #1f6f3f; stroke-opacity: 0.85"/>
    </g>
   </g>
   <g id="line2d_13">
    <path d="M 163.47338 102.069232 
L 183.183535 114.57767 
L 213.897663 134.786862 
L 247.56562 174.196664 
" clip-path="url(#p823175d1fc)" style="fill: none; stroke: #d1701f; stroke-opacity: 0.85; stroke-width: 1.4; stroke-linecap: round"/>
    <defs>
     <path id="mcf2ab5f597" d="M 0 2 
C 0.530406 2 1.03916 1.789267 1.414214 1.414214 
C 1.789267 1.03916 2 0.530406 2 0 
C 2 -0.530406 1.789267 -1.03916 1.414214 -1.414214 
C 1.03916 -1.789267 0.530406 -2 0 -2 
C -0.530406 -2 -1.03916 -1.789267 -1.414214 -1.414214 
C -1.789267 -1.03916 -2 -0.530406 -2 0 
C -2 0.530406 -1.789267 1.03916 -1.414214 1.414214 
C -1.03916 1.789267 -0.530406 2 0 2 
z
" style="stroke: #d1701f; stroke-opacity: 0.85"/>
    </defs>
    <g clip-path="url(#p823175d1fc)">
     <use xlink:href="#mcf2ab5f597" x="163.47338" y="102.069232" style="fill: #d1701f; fill-opacity: 0.85; stroke: #d1701f; stroke-opacity: 0.85"/>
     <use xlink:href="#mcf2ab5f597" x="183.183535" y="114.57767" style="fill: #d1701f; fill-opacity: 0.85; stroke: #d1701f; stroke-opacity: 0.85"/>
     <use xlink:href="#mcf2ab5f597" x="213.897663" y="134.786862" style="fill: #d1701f; fill-opacity: 0.85; stroke: #d1701f; stroke-opacity: 0.85"/>
     <use xlink:href="#mcf2ab5f597" x="247.56562" y="174.196664" style="fill: #d1701f; fill-opacity: 0.85; stroke: #d1701f; stroke-opacity: 0.85"/>
    </g>
   </g>
   <g id="line2d_14">
    <path d="M 151.785637 134.163749 
L 179.036852 156.641145 
L 214.72378 154.006575 
L 250.264312 123.409716 
" clip-path="url(#p823175d1fc)" style="fill: none; stroke: #937860; stroke-opacity: 0.85; stroke-width: 1.4; stroke-linecap: round"/>
    <defs>
     <path id="mbd51db0ed3" d="M 0 2 
C 0.530406 2 1.03916 1.789267 1.414214 1.414214 
C 1.789267 1.03916 2 0.530406 2 0 
C 2 -0.530406 1.789267 -1.03916 1.414214 -1.414214 
C 1.03916 -1.789267 0.530406 -2 0 -2 
C -0.530406 -2 -1.03916 -1.789267 -1.414214 -1.414214 
C -1.789267 -1.03916 -2 -0.530406 -2 0 
C -2 0.530406 -1.789267 1.03916 -1.414214 1.414214 
C -1.03916 1.789267 -0.530406 2 0 2 
z
" style="stroke: #937860; stroke-opacity: 0.85"/>
    </defs>
    <g clip-path="url(#p823175d1fc)">
     <use xlink:href="#mbd51db0ed3" x="151.785637" y="134.163749" style="fill: #937860; fill-opacity: 0.85; stroke: #937860; stroke-opacity: 0.85"/>
     <use xlink:href="#mbd51db0ed3" x="179.036852" y="156.641145" style="fill: #937860; fill-opacity: 0.85; stroke: #937860; stroke-opacity: 0.85"/>
     <use xlink:href="#mbd51db0ed3" x="214.72378" y="154.006575" style="fill: #937860; fill-opacity: 0.85; stroke: #937860; stroke-opacity: 0.85"/>
     <use xlink:href="#mbd51db0ed3" x="250.264312" y="123.409716" style="fill: #937860; fill-opacity: 0.85; stroke: #937860; stroke-opacity: 0.85"/>
    </g>
   </g>
   <g id="patch_3">
    <path d="M 48.963539 210.803691 
L 48.963539 20.479688 
" style="fill: none; stroke: #cccccc; stroke-width: 1.25; stroke-linejoin: miter; stroke-linecap: square"/>
   </g>
   <g id="patch_4">
    <path d="M 261.097977 210.803691 
L 261.097977 20.479688 
" style="fill: none; stroke: #cccccc; stroke-width: 1.25; stroke-linejoin: miter; stroke-linecap: square"/>
   </g>
   <g id="patch_5">
    <path d="M 48.963539 210.803691 
L 261.097977 210.803691 
" style="fill: none; stroke: #cccccc; stroke-width: 1.25; stroke-linejoin: miter; stroke-linecap: square"/>
   </g>
   <g id="patch_6">
    <path d="M 48.963539 20.479687 
L 261.097977 20.479687 
" style="fill: none; stroke: #cccccc; stroke-width: 1.25; stroke-linejoin: miter; stroke-linecap: square"/>
   </g>
   <g id="text_11">
    <!-- Architecture Pareto (sweep, n=2/5000) -->
    <g style="fill: #262626" transform="translate(48.963539 14.479687) scale(0.1 -0.1)">
     <defs>
      <path id="ArialMT-41" d="M -9 0 
L 1750 4581 
L 2403 4581 
L 4278 0 
L 3588 0 
L 3053 1388 
L 1138 1388 
L 634 0 
L -9 0 
z
M 1313 1881 
L 2866 1881 
L 2388 3150 
Q 2169 3728 2063 4100 
Q 1975 3659 1816 3225 
L 1313 1881 
z
" transform="scale(0.015625)"/>
      <path id="ArialMT-63" d="M 2588 1216 
L 3141 1144 
Q 3050 572 2676 248 
Q 2303 -75 1759 -75 
Q 1078 -75 664 370 
Q 250 816 250 1647 
Q 250 2184 428 2587 
Q 606 2991 970 3192 
Q 1334 3394 1763 3394 
Q 2303 3394 2647 3120 
Q 2991 2847 3088 2344 
L 2541 2259 
Q 2463 2594 2264 2762 
Q 2066 2931 1784 2931 
Q 1359 2931 1093 2626 
Q 828 2322 828 1663 
Q 828 994 1084 691 
Q 1341 388 1753 388 
Q 2084 388 2306 591 
Q 2528 794 2588 1216 
z
" transform="scale(0.015625)"/>
      <path id="ArialMT-68" d="M 422 0 
L 422 4581 
L 984 4581 
L 984 2938 
Q 1378 3394 1978 3394 
Q 2347 3394 2619 3248 
Q 2891 3103 3008 2847 
Q 3125 2591 3125 2103 
L 3125 0 
L 2563 0 
L 2563 2103 
Q 2563 2525 2380 2717 
Q 2197 2909 1863 2909 
Q 1613 2909 1392 2779 
Q 1172 2650 1078 2428 
Q 984 2206 984 1816 
L 984 0 
L 422 0 
z
" transform="scale(0.015625)"/>
      <path id="ArialMT-75" d="M 2597 0 
L 2597 488 
Q 2209 -75 1544 -75 
Q 1250 -75 995 37 
Q 741 150 617 320 
Q 494 491 444 738 
Q 409 903 409 1263 
L 409 3319 
L 972 3319 
L 972 1478 
Q 972 1038 1006 884 
Q 1059 663 1231 536 
Q 1403 409 1656 409 
Q 1909 409 2131 539 
Q 2353 669 2445 892 
Q 2538 1116 2538 1541 
L 2538 3319 
L 3100 3319 
L 3100 0 
L 2597 0 
z
" transform="scale(0.015625)"/>
      <path id="ArialMT-50" d="M 494 0 
L 494 4581 
L 2222 4581 
Q 2678 4581 2919 4538 
Q 3256 4481 3484 4323 
Q 3713 4166 3852 3881 
Q 3991 3597 3991 3256 
Q 3991 2672 3619 2267 
Q 3247 1863 2275 1863 
L 1100 1863 
L 1100 0 
L 494 0 
z
M 1100 2403 
L 2284 2403 
Q 2872 2403 3119 2622 
Q 3366 2841 3366 3238 
Q 3366 3525 3220 3729 
Q 3075 3934 2838 4000 
Q 2684 4041 2272 4041 
L 1100 4041 
L 1100 2403 
z
" transform="scale(0.015625)"/>
      <path id="ArialMT-6f" d="M 213 1659 
Q 213 2581 725 3025 
Q 1153 3394 1769 3394 
Q 2453 3394 2887 2945 
Q 3322 2497 3322 1706 
Q 3322 1066 3130 698 
Q 2938 331 2570 128 
Q 2203 -75 1769 -75 
Q 1072 -75 642 372 
Q 213 819 213 1659 
z
M 791 1659 
Q 791 1022 1069 705 
Q 1347 388 1769 388 
Q 2188 388 2466 706 
Q 2744 1025 2744 1678 
Q 2744 2294 2464 2611 
Q 2184 2928 1769 2928 
Q 1347 2928 1069 2612 
Q 791 2297 791 1659 
z
" transform="scale(0.015625)"/>
      <path id="ArialMT-77" d="M 1034 0 
L 19 3319 
L 600 3319 
L 1128 1403 
L 1325 691 
Q 1338 744 1497 1375 
L 2025 3319 
L 2603 3319 
L 3100 1394 
L 3266 759 
L 3456 1400 
L 4025 3319 
L 4572 3319 
L 3534 0 
L 2950 0 
L 2422 1988 
L 2294 2553 
L 1622 0 
L 1034 0 
z
" transform="scale(0.015625)"/>
      <path id="ArialMT-2c" d="M 569 0 
L 569 641 
L 1209 641 
L 1209 0 
Q 1209 -353 1084 -570 
Q 959 -788 688 -906 
L 531 -666 
Q 709 -588 793 -436 
Q 878 -284 888 0 
L 569 0 
z
" transform="scale(0.015625)"/>
      <path id="ArialMT-3d" d="M 3381 2694 
L 356 2694 
L 356 3219 
L 3381 3219 
L 3381 2694 
z
M 3381 1303 
L 356 1303 
L 356 1828 
L 3381 1828 
L 3381 1303 
z
" transform="scale(0.015625)"/>
     </defs>
     <use xlink:href="#ArialMT-41"/>
     <use xlink:href="#ArialMT-72" transform="translate(66.699219 0)"/>
     <use xlink:href="#ArialMT-63" transform="translate(100 0)"/>
     <use xlink:href="#ArialMT-68" transform="translate(150 0)"/>
     <use xlink:href="#ArialMT-69" transform="translate(205.615234 0)"/>
     <use xlink:href="#ArialMT-74" transform="translate(227.832031 0)"/>
     <use xlink:href="#ArialMT-65" transform="translate(255.615234 0)"/>
     <use xlink:href="#ArialMT-63" transform="translate(311.230469 0)"/>
     <use xlink:href="#ArialMT-74" transform="translate(361.230469 0)"/>
     <use xlink:href="#ArialMT-75" transform="translate(389.013672 0)"/>
     <use xlink:href="#ArialMT-72" transform="translate(444.628906 0)"/>
     <use xlink:href="#ArialMT-65" transform="translate(477.929688 0)"/>
     <use xlink:href="#ArialMT-20" transform="translate(533.544922 0)"/>
     <use xlink:href="#ArialMT-50" transform="translate(561.328125 0)"/>
     <use xlink:href="#ArialMT-61" transform="translate(628.027344 0)"/>
     <use xlink:href="#ArialMT-72" transform="translate(683.642578 0)"/>
     <use xlink:href="#ArialMT-65" transform="translate(716.943359 0)"/>
     <use xlink:href="#ArialMT-74" transform="translate(772.558594 0)"/>
     <use xlink:href="#ArialMT-6f" transform="translate(800.341797 0)"/>
     <use xlink:href="#ArialMT-20" transform="translate(855.957031 0)"/>
     <use xlink:href="#ArialMT-28" transform="translate(883.740234 0)"/>
     <use xlink:href="#ArialMT-73" transform="translate(917.041016 0)"/>
     <use xlink:href="#ArialMT-77" transform="translate(967.041016 0)"/>
     <use xlink:href="#ArialMT-65" transform="translate(1039.257812 0)"/>
     <use xlink:href="#ArialMT-65" transform="translate(1094.873047 0)"/>
     <use xlink:href="#ArialMT-70" transform="translate(1150.488281 0)"/>
     <use xlink:href="#ArialMT-2c" transform="translate(1206.103516 0)"/>
     <use xlink:href="#ArialMT-20" transform="translate(1233.886719 0)"/>
     <use xlink:href="#ArialMT-6e" transform="translate(1261.669922 0)"/>
     <use xlink:href="#ArialMT-3d" transform="translate(1317.285156 0)"/>
     <use xlink:href="#ArialMT-32" transform="translate(1375.683594 0)"/>
     <use xlink:href="#ArialMT-2f" transform="translate(1431.298828 0)"/>
     <use xlink:href="#ArialMT-35" transform="translate(1459.082031 0)"/>
     <use xlink:href="#ArialMT-30" transform="translate(1514.697266 0)"/>
     <use xlink:href="#ArialMT-30" transform="translate(1570.3125 0)"/>
     <use xlink:href="#ArialMT-30" transform="translate(1625.927734 0)"/>
     <use xlink:href="#ArialMT-29" transform="translate(1681.542969 0)"/>
    </g>
   </g>
   <g id="legend_1">
    <g id="line2d_15">
     <path d="M 146.744227 29.340156 
L 153.744227 29.340156 
L 160.744227 29.340156 
" style="fill: none; stroke: #4878cf; stroke-opacity: 0.85; stroke-width: 1.4; stroke-linecap: round"/>
     <g>
      <use xlink:href="#m93f8003d39" x="153.744227" y="29.340156" style="fill: #4878cf; fill-opacity: 0.85; stroke: #4878cf; stroke-opacity: 0.85"/>
     </g>
    </g>
    <g id="text_12">
     <!-- dense -->
     <g style="fill: #262626" transform="translate(166.344227 31.790156) scale(0.07 -0.07)">
      <use xlink:href="#ArialMT-64"/>
      <use xlink:href="#ArialMT-65" transform="translate(55.615234 0)"/>
      <use xlink:href="#ArialMT-6e" transform="translate(111.230469 0)"/>
      <use xlink:href="#ArialMT-73" transform="translate(166.845703 0)"/>
      <use xlink:href="#ArialMT-65" transform="translate(216.845703 0)"/>
     </g>
    </g>
    <g id="line2d_16">
     <path d="M 146.744227 39.241875 
L 153.744227 39.241875 
L 160.744227 39.241875 
" style="fill: none; stroke: #999999; stroke-opacity: 0.85; stroke-width: 1.4; stroke-linecap: round"/>
     <g>
      <use xlink:href="#mf265dad958" x="153.744227" y="39.241875" style="fill: #999999; fill-opacity: 0.85; stroke: #999999; stroke-opacity: 0.85"/>
     </g>
    </g>
    <g id="text_13">
     <!-- gru -->
     <g style="fill: #262626" transform="translate(166.344227 41.691875) scale(0.07 -0.07)">
      <defs>
       <path id="ArialMT-67" d="M 319 -275 
L 866 -356 
Q 900 -609 1056 -725 
Q 1266 -881 1628 -881 
Q 2019 -881 2231 -725 
Q 2444 -569 2519 -288 
Q 2563 -116 2559 434 
Q 2191 0 1641 0 
Q 956 0 581 494 
Q 206 988 206 1678 
Q 206 2153 378 2554 
Q 550 2956 876 3175 
Q 1203 3394 1644 3394 
Q 2231 3394 2613 2919 
L 2613 3319 
L 3131 3319 
L 3131 450 
Q 3131 -325 2973 -648 
Q 2816 -972 2473 -1159 
Q 2131 -1347 1631 -1347 
Q 1038 -1347 672 -1080 
Q 306 -813 319 -275 
z
M 784 1719 
Q 784 1066 1043 766 
Q 1303 466 1694 466 
Q 2081 466 2343 764 
Q 2606 1063 2606 1700 
Q 2606 2309 2336 2618 
Q 2066 2928 1684 2928 
Q 1309 2928 1046 2623 
Q 784 2319 784 1719 
z
" transform="scale(0.015625)"/>
      </defs>
      <use xlink:href="#ArialMT-67"/>
      <use xlink:href="#ArialMT-72" transform="translate(55.615234 0)"/>
      <use xlink:href="#ArialMT-75" transform="translate(88.916016 0)"/>
     </g>
    </g>
    <g id="line2d_17">
     <path d="M 146.744227 49.225625 
L 153.744227 49.225625 
L 160.744227 49.225625 
" style="fill: none; stroke: #6a51a3; stroke-opacity: 0.85; stroke-width: 1.4; stroke-linecap: round"/>
     <g>
      <use xlink:href="#ma90f21a0f1" x="153.744227" y="49.225625" style="fill: #6a51a3; fill-opacity: 0.85; stroke: #6a51a3; stroke-opacity: 0.85"/>
     </g>
    </g>
    <g id="text_14">
     <!-- lstm -->
     <g style="fill: #262626" transform="translate(166.344227 51.675625) scale(0.07 -0.07)">
      <use xlink:href="#ArialMT-6c"/>
      <use xlink:href="#ArialMT-73" transform="translate(22.216797 0)"/>
      <use xlink:href="#ArialMT-74" transform="translate(72.216797 0)"/>
      <use xlink:href="#ArialMT-6d" transform="translate(100 0)"/>
     </g>
    </g>
    <g id="line2d_18">
     <path d="M 199.414852 29.340156 
L 206.414852 29.340156 
L 213.414852 29.340156 
" style="fill: none; stroke: #1f6f3f; stroke-opacity: 0.85; stroke-width: 1.4; stroke-linecap: round"/>
     <g>
      <use xlink:href="#mb82c238c6c" x="206.414852" y="29.340156" style="fill: #1f6f3f; fill-opacity: 0.85; stroke: #1f6f3f; stroke-opacity: 0.85"/>
     </g>
    </g>
    <g id="text_15">
     <!-- mamba -->
     <g style="fill: #262626" transform="translate(219.014852 31.790156) scale(0.07 -0.07)">
      <use xlink:href="#ArialMT-6d"/>
      <use xlink:href="#ArialMT-61" transform="translate(83.300781 0)"/>
      <use xlink:href="#ArialMT-6d" transform="translate(138.916016 0)"/>
      <use xlink:href="#ArialMT-62" transform="translate(222.216797 0)"/>
      <use xlink:href="#ArialMT-61" transform="translate(277.832031 0)"/>
     </g>
    </g>
    <g id="line2d_19">
     <path d="M 199.414852 39.241875 
L 206.414852 39.241875 
L 213.414852 39.241875 
" style="fill: none; stroke: #d1701f; stroke-opacity: 0.85; stroke-width: 1.4; stroke-linecap: round"/>
     <g>
      <use xlink:href="#mcf2ab5f597" x="206.414852" y="39.241875" style="fill: #d1701f; fill-opacity: 0.85; stroke: #d1701f; stroke-opacity: 0.85"/>
     </g>
    </g>
    <g id="text_16">
     <!-- transformer -->
     <g style="fill: #262626" transform="translate(219.014852 41.691875) scale(0.07 -0.07)">
      <defs>
       <path id="ArialMT-66" d="M 556 0 
L 556 2881 
L 59 2881 
L 59 3319 
L 556 3319 
L 556 3672 
Q 556 4006 616 4169 
Q 697 4388 901 4523 
Q 1106 4659 1475 4659 
Q 1713 4659 2000 4603 
L 1916 4113 
Q 1741 4144 1584 4144 
Q 1328 4144 1222 4034 
Q 1116 3925 1116 3625 
L 1116 3319 
L 1763 3319 
L 1763 2881 
L 1116 2881 
L 1116 0 
L 556 0 
z
" transform="scale(0.015625)"/>
      </defs>
      <use xlink:href="#ArialMT-74"/>
      <use xlink:href="#ArialMT-72" transform="translate(27.783203 0)"/>
      <use xlink:href="#ArialMT-61" transform="translate(61.083984 0)"/>
      <use xlink:href="#ArialMT-6e" transform="translate(116.699219 0)"/>
      <use xlink:href="#ArialMT-73" transform="translate(172.314453 0)"/>
      <use xlink:href="#ArialMT-66" transform="translate(222.314453 0)"/>
      <use xlink:href="#ArialMT-6f" transform="translate(250.097656 0)"/>
      <use xlink:href="#ArialMT-72" transform="translate(305.712891 0)"/>
      <use xlink:href="#ArialMT-6d" transform="translate(339.013672 0)"/>
      <use xlink:href="#ArialMT-65" transform="translate(422.314453 0)"/>
      <use xlink:href="#ArialMT-72" transform="translate(477.929688 0)"/>
     </g>
    </g>
    <g id="line2d_20">
     <path d="M 199.414852 49.143594 
L 206.414852 49.143594 
L 213.414852 49.143594 
" style="fill: none; stroke: #937860; stroke-opacity: 0.85; stroke-width: 1.4; stroke-linecap: round"/>
     <g>
      <use xlink:href="#mbd51db0ed3" x="206.414852" y="49.143594" style="fill: #937860; fill-opacity: 0.85; stroke: #937860; stroke-opacity: 0.85"/>
     </g>
    </g>
    <g id="text_17">
     <!-- window -->
     <g style="fill: #262626" transform="translate(219.014852 51.593594) scale(0.07 -0.07)">
      <use xlink:href="#ArialMT-77"/>
      <use xlink:href="#ArialMT-69" transform="translate(72.216797 0)"/>
      <use xlink:href="#ArialMT-6e" transform="translate(94.433594 0)"/>
      <use xlink:href="#ArialMT-64" transform="translate(150.048828 0)"/>
      <use xlink:href="#ArialMT-6f" transform="translate(205.664062 0)"/>
      <use xlink:href="#ArialMT-77" transform="translate(261.279297 0)"/>
     </g>
    </g>
   </g>
  </g>
  <g id="axes_2">
   <g id="patch_7">
    <path d="M 324.979977 210.803691 
L 537.114415 210.803691 
L 537.114415 20.479687 
L 324.979977 20.479687 
z
" style="fill: #f5f5f5"/>
   </g>
   <g id="matplotlib.axis_3">
    <g id="xtick_15">
     <g id="line2d_21">
      <path d="M 333.581468 210.803691 
L 333.581468 20.479687 
" clip-path="url(#pa3d566eb09)" style="fill: none; stroke: #cccccc; stroke-linecap: round"/>
     </g>
     <g id="text_18">
      <!-- $\mathdefault{10^{2}}$ -->
      <g style="fill: #262626" transform="translate(325.378218 231.080253) scale(0.1045 -0.1045)">
       <use xlink:href="#ArialMT-31" transform="translate(0 0.99375)"/>
       <use xlink:href="#ArialMT-30" transform="translate(55.615234 0.99375)"/>
       <use xlink:href="#ArialMT-32" transform="translate(112.972813 70.6875) scale(0.7)"/>
      </g>
     </g>
    </g>
    <g id="xtick_16">
     <g id="line2d_22">
      <path d="M 454.623604 210.803691 
L 454.623604 20.479687 
" clip-path="url(#pa3d566eb09)" style="fill: none; stroke: #cccccc; stroke-linecap: round"/>
     </g>
     <g id="text_19">
      <!-- $\mathdefault{10^{3}}$ -->
      <g style="fill: #262626" transform="translate(446.420354 231.080253) scale(0.1045 -0.1045)">
       <use xlink:href="#ArialMT-31" transform="translate(0 0.99375)"/>
       <use xlink:href="#ArialMT-30" transform="translate(55.615234 0.99375)"/>
       <use xlink:href="#ArialMT-33" transform="translate(112.972813 70.6875) scale(0.7)"/>
      </g>
     </g>
    </g>
    <g id="xtick_17"/>
    <g id="xtick_18"/>
    <g id="xtick_19"/>
    <g id="xtick_20"/>
    <g id="xtick_21"/>
    <g id="xtick_22"/>
    <g id="xtick_23"/>
    <g id="xtick_24"/>
    <g id="xtick_25"/>
    <g id="xtick_26"/>
    <g id="xtick_27"/>
    <g id="xtick_28"/>
    <g id="text_20">
     <!-- dense parameters -->
     <g style="fill: #262626" transform="translate(385.108759 245.317097) scale(0.114 -0.114)">
      <use xlink:href="#ArialMT-64"/>
      <use xlink:href="#ArialMT-65" transform="translate(55.615234 0)"/>
      <use xlink:href="#ArialMT-6e" transform="translate(111.230469 0)"/>
      <use xlink:href="#ArialMT-73" transform="translate(166.845703 0)"/>
      <use xlink:href="#ArialMT-65" transform="translate(216.845703 0)"/>
      <use xlink:href="#ArialMT-20" transform="translate(272.460938 0)"/>
      <use xlink:href="#ArialMT-70" transform="translate(300.244141 0)"/>
      <use xlink:href="#ArialMT-61" transform="translate(355.859375 0)"/>
      <use xlink:href="#ArialMT-72" transform="translate(411.474609 0)"/>
      <use xlink:href="#ArialMT-61" transform="translate(444.775391 0)"/>
      <use xlink:href="#ArialMT-6d" transform="translate(500.390625 0)"/>
      <use xlink:href="#ArialMT-65" transform="translate(583.691406 0)"/>
      <use xlink:href="#ArialMT-74" transform="translate(639.306641 0)"/>
      <use xlink:href="#ArialMT-65" transform="translate(667.089844 0)"/>
      <use xlink:href="#ArialMT-72" transform="translate(722.705078 0)"/>
      <use xlink:href="#ArialMT-73" transform="translate(756.005859 0)"/>
     </g>
    </g>
   </g>
   <g id="matplotlib.axis_4">
    <g id="ytick_7">
     <g id="line2d_23">
      <path d="M 324.979977 207.318498 
L 537.114415 207.318498 
" clip-path="url(#pa3d566eb09)" style="fill: none; stroke: #cccccc; stroke-linecap: round"/>
     </g>
     <g id="text_21">
      <!-- 130.0 -->
      <g style="fill: #262626" transform="translate(289.332118 211.058455) scale(0.1045 -0.1045)">
       <defs>
        <path id="ArialMT-2e" d="M 581 0 
L 581 641 
L 1222 641 
L 1222 0 
L 581 0 
z
" transform="scale(0.015625)"/>
       </defs>
       <use xlink:href="#ArialMT-31"/>
       <use xlink:href="#ArialMT-33" transform="translate(55.615234 0)"/>
       <use xlink:href="#ArialMT-30" transform="translate(111.230469 0)"/>
       <use xlink:href="#ArialMT-2e" transform="translate(166.845703 0)"/>
       <use xlink:href="#ArialMT-30" transform="translate(194.628906 0)"/>
      </g>
     </g>
    </g>
    <g id="ytick_8">
     <g id="line2d_24">
      <path d="M 324.979977 183.794345 
L 537.114415 183.794345 
" clip-path="url(#pa3d566eb09)" style="fill: none; stroke: #cccccc; stroke-linecap: round"/>
     </g>
     <g id="text_22">
      <!-- 132.5 -->
      <g style="fill: #262626" transform="translate(289.332118 187.534302) scale(0.1045 -0.1045)">
       <use xlink:href="#ArialMT-31"/>
       <use xlink:href="#ArialMT-33" transform="translate(55.615234 0)"/>
       <use xlink:href="#ArialMT-32" transform="translate(111.230469 0)"/>
       <use xlink:href="#ArialMT-2e" transform="translate(166.845703 0)"/>
       <use xlink:href="#ArialMT-35" transform="translate(194.628906 0)"/>
      </g>
     </g>
    </g>
    <g id="ytick_9">
     <g id="line2d_25">
      <path d="M 324.979977 160.270193 
L 537.114415 160.270193 
" clip-path="url(#pa3d566eb09)" style="fill: none; stroke: #cccccc; stroke-linecap: round"/>
     </g>
     <g id="text_23">
      <!-- 135.0 -->
      <g style="fill: #262626" transform="translate(289.332118 164.01015) scale(0.1045 -0.1045)">
       <use xlink:href="#ArialMT-31"/>
       <use xlink:href="#ArialMT-33" transform="translate(55.615234 0)"/>
       <use xlink:href="#ArialMT-35" transform="translate(111.230469 0)"/>
       <use xlink:href="#ArialMT-2e" transform="translate(166.845703 0)"/>
       <use xlink:href="#ArialMT-30" transform="translate(194.628906 0)"/>
      </g>
     </g>
    </g>
    <g id="ytick_10">
     <g id="line2d_26">
      <path d="M 324.979977 136.74604 
L 537.114415 136.74604 
" clip-path="url(#pa3d566eb09)" style="fill: none; stroke: #cccccc; stroke-linecap: round"/>
     </g>
     <g id="text_24">
      <!-- 137.5 -->
      <g style="fill: #262626" transform="translate(289.332118 140.485997) scale(0.1045 -0.1045)">
       <defs>
        <path id="ArialMT-37" d="M 303 3981 
L 303 4522 
L 3269 4522 
L 3269 4084 
Q 2831 3619 2401 2847 
Q 1972 2075 1738 1259 
Q 1569 684 1522 0 
L 944 0 
Q 953 541 1156 1306 
Q 1359 2072 1739 2783 
Q 2119 3494 2547 3981 
L 303 3981 
z
" transform="scale(0.015625)"/>
       </defs>
       <use xlink:href="#ArialMT-31"/>
       <use xlink:href="#ArialMT-33" transform="translate(55.615234 0)"/>
       <use xlink:href="#ArialMT-37" transform="translate(111.230469 0)"/>
       <use xlink:href="#ArialMT-2e" transform="translate(166.845703 0)"/>
       <use xlink:href="#ArialMT-35" transform="translate(194.628906 0)"/>
      </g>
     </g>
    </g>
    <g id="ytick_11">
     <g id="line2d_27">
      <path d="M 324.979977 113.221888 
L 537.114415 113.221888 
" clip-path="url(#pa3d566eb09)" style="fill: none; stroke: #cccccc; stroke-linecap: round"/>
     </g>
     <g id="text_25">
      <!-- 140.0 -->
      <g style="fill: #262626" transform="translate(289.332118 116.961845) scale(0.1045 -0.1045)">
       <use xlink:href="#ArialMT-31"/>
       <use xlink:href="#ArialMT-34" transform="translate(55.615234 0)"/>
       <use xlink:href="#ArialMT-30" transform="translate(111.230469 0)"/>
       <use xlink:href="#ArialMT-2e" transform="translate(166.845703 0)"/>
       <use xlink:href="#ArialMT-30" transform="translate(194.628906 0)"/>
      </g>
     </g>
    </g>
    <g id="ytick_12">
     <g id="line2d_28">
      <path d="M 324.979977 89.697735 
L 537.114415 89.697735 
" clip-path="url(#pa3d566eb09)" style="fill: none; stroke: #cccccc; stroke-linecap: round"/>
     </g>
     <g id="text_26">
      <!-- 142.5 -->
      <g style="fill: #262626" transform="translate(289.332118 93.437693) scale(0.1045 -0.1045)">
       <use xlink:href="#ArialMT-31"/>
       <use xlink:href="#ArialMT-34" transform="translate(55.615234 0)"/>
       <use xlink:href="#ArialMT-32" transform="translate(111.230469 0)"/>
       <use xlink:href="#ArialMT-2e" transform="translate(166.845703 0)"/>
       <use xlink:href="#ArialMT-35" transform="translate(194.628906 0)"/>
      </g>
     </g>
    </g>
    <g id="ytick_13">
     <g id="line2d_29">
      <path d="M 324.979977 66.173583 
L 537.114415 66.173583 
" clip-path="url(#pa3d566eb09)" style="fill: none; stroke: #cccccc; stroke-linecap: round"/>
     </g>
     <g id="text_27">
      <!-- 145.0 -->
      <g style="fill: #262626" transform="translate(289.332118 69.91354) scale(0.1045 -0.1045)">
       <use xlink:href="#ArialMT-31"/>
       <use xlink:href="#ArialMT-34" transform="translate(55.615234 0)"/>
       <use xlink:href="#ArialMT-35" transform="translate(111.230469 0)"/>
       <use xlink:href="#ArialMT-2e" transform="translate(166.845703 0)"/>
       <use xlink:href="#ArialMT-30" transform="translate(194.628906 0)"/>
      </g>
     </g>
    </g>
    <g id="ytick_14">
     <g id="line2d_30">
      <path d="M 324.979977 42.649431 
L 537.114415 42.649431 
" clip-path="url(#pa3d566eb09)" style="fill: none; stroke: #cccccc; stroke-linecap: round"/>
     </g>
     <g id="text_28">
      <!-- 147.5 -->
      <g style="fill: #262626" transform="translate(289.332118 46.389388) scale(0.1045 -0.1045)">
       <use xlink:href="#ArialMT-31"/>
       <use xlink:href="#ArialMT-34" transform="translate(55.615234 0)"/>
       <use xlink:href="#ArialMT-37" transform="translate(111.230469 0)"/>
       <use xlink:href="#ArialMT-2e" transform="translate(166.845703 0)"/>
       <use xlink:href="#ArialMT-35" transform="translate(194.628906 0)"/>
      </g>
     </g>
    </g>
    <g id="text_29">
     <!-- dv CVaR$_{95}$ (m/s) -->
     <g style="fill: #262626" transform="translate(282.824118 158.334689) rotate(-90) scale(0.114 -0.114)">
      <defs>
       <path id="ArialMT-43" d="M 3763 1606 
L 4369 1453 
Q 4178 706 3683 314 
Q 3188 -78 2472 -78 
Q 1731 -78 1267 223 
Q 803 525 561 1097 
Q 319 1669 319 2325 
Q 319 3041 592 3573 
Q 866 4106 1370 4382 
Q 1875 4659 2481 4659 
Q 3169 4659 3637 4309 
Q 4106 3959 4291 3325 
L 3694 3184 
Q 3534 3684 3231 3912 
Q 2928 4141 2469 4141 
Q 1941 4141 1586 3887 
Q 1231 3634 1087 3207 
Q 944 2781 944 2328 
Q 944 1744 1114 1308 
Q 1284 872 1643 656 
Q 2003 441 2422 441 
Q 2931 441 3284 734 
Q 3638 1028 3763 1606 
z
" transform="scale(0.015625)"/>
       <path id="ArialMT-56" d="M 1803 0 
L 28 4581 
L 684 4581 
L 1875 1253 
Q 2019 853 2116 503 
Q 2222 878 2363 1253 
L 3600 4581 
L 4219 4581 
L 2425 0 
L 1803 0 
z
" transform="scale(0.015625)"/>
       <path id="ArialMT-52" d="M 503 0 
L 503 4581 
L 2534 4581 
Q 3147 4581 3465 4457 
Q 3784 4334 3975 4021 
Q 4166 3709 4166 3331 
Q 4166 2844 3850 2509 
Q 3534 2175 2875 2084 
Q 3116 1969 3241 1856 
Q 3506 1613 3744 1247 
L 4541 0 
L 3778 0 
L 3172 953 
Q 2906 1366 2734 1584 
Q 2563 1803 2427 1890 
Q 2291 1978 2150 2013 
Q 2047 2034 1813 2034 
L 1109 2034 
L 1109 0 
L 503 0 
z
M 1109 2559 
L 2413 2559 
Q 2828 2559 3062 2645 
Q 3297 2731 3419 2920 
Q 3541 3109 3541 3331 
Q 3541 3656 3305 3865 
Q 3069 4075 2559 4075 
L 1109 4075 
L 1109 2559 
z
" transform="scale(0.015625)"/>
       <path id="DejaVuSans-35" d="M 691 4666 
L 3169 4666 
L 3169 4134 
L 1269 4134 
L 1269 2991 
Q 1406 3038 1543 3061 
Q 1681 3084 1819 3084 
Q 2600 3084 3056 2656 
Q 3513 2228 3513 1497 
Q 3513 744 3044 326 
Q 2575 -91 1722 -91 
Q 1428 -91 1123 -41 
Q 819 9 494 109 
L 494 744 
Q 775 591 1075 516 
Q 1375 441 1709 441 
Q 2250 441 2565 725 
Q 2881 1009 2881 1497 
Q 2881 1984 2565 2268 
Q 2250 2553 1709 2553 
Q 1456 2553 1204 2497 
Q 953 2441 691 2322 
L 691 4666 
z
" transform="scale(0.015625)"/>
      </defs>
      <use xlink:href="#ArialMT-64" transform="translate(0 0.203125)"/>
      <use xlink:href="#ArialMT-76" transform="translate(55.615234 0.203125)"/>
      <use xlink:href="#ArialMT-20" transform="translate(105.615234 0.203125)"/>
      <use xlink:href="#ArialMT-43" transform="translate(133.398438 0.203125)"/>
      <use xlink:href="#ArialMT-56" transform="translate(205.615234 0.203125)"/>
      <use xlink:href="#ArialMT-61" transform="translate(272.314453 0.203125)"/>
      <use xlink:href="#ArialMT-52" transform="translate(327.929688 0.203125)"/>
      <use xlink:href="#DejaVuSans-39" transform="translate(401.103516 -16.203125) scale(0.7)"/>
      <use xlink:href="#DejaVuSans-35" transform="translate(445.639648 -16.203125) scale(0.7)"/>
      <use xlink:href="#ArialMT-20" transform="translate(492.910156 0.203125)"/>
      <use xlink:href="#ArialMT-28" transform="translate(520.693359 0.203125)"/>
      <use xlink:href="#ArialMT-6d" transform="translate(553.994141 0.203125)"/>
      <use xlink:href="#ArialMT-2f" transform="translate(637.294922 0.203125)"/>
      <use xlink:href="#ArialMT-73" transform="translate(665.078125 0.203125)"/>
      <use xlink:href="#ArialMT-29" transform="translate(715.078125 0.203125)"/>
     </g>
    </g>
   </g>
   <g id="line2d_31">
    <path d="M 334.622452 29.130779 
L 370.280967 147.874093 
L 390.981618 172.963739 
L 408.517847 175.114653 
L 419.740136 194.844092 
L 453.130702 194.023053 
L 489.91838 192.626921 
L 527.471941 202.1526 
" clip-path="url(#pa3d566eb09)" style="fill: none; stroke: #4878cf; stroke-width: 1.6; stroke-linecap: round"/>
    <defs>
     <path id="m1cb44dc70a" d="M 0 2.5 
C 0.663008 2.5 1.29895 2.236584 1.767767 1.767767 
C 2.236584 1.29895 2.5 0.663008 2.5 0 
C 2.5 -0.663008 2.236584 -1.29895 1.767767 -1.767767 
C 1.29895 -2.236584 0.663008 -2.5 0 -2.5 
C -0.663008 -2.5 -1.29895 -2.236584 -1.767767 -1.767767 
C -2.236584 -1.29895 -2.5 -0.663008 -2.5 0 
C -2.5 0.663008 -2.236584 1.29895 -1.767767 1.767767 
C -1.29895 2.236584 -0.663008 2.5 0 2.5 
z
" style="stroke: #4878cf"/>
    </defs>
    <g clip-path="url(#pa3d566eb09)">
     <use xlink:href="#m1cb44dc70a" x="334.622452" y="29.130779" style="fill: #4878cf; stroke: #4878cf"/>
     <use xlink:href="#m1cb44dc70a" x="370.280967" y="147.874093" style="fill: #4878cf; stroke: #4878cf"/>
     <use xlink:href="#m1cb44dc70a" x="390.981618" y="172.963739" style="fill: #4878cf; stroke: #4878cf"/>
     <use xlink:href="#m1cb44dc70a" x="408.517847" y="175.114653" style="fill: #4878cf; stroke: #4878cf"/>
     <use xlink:href="#m1cb44dc70a" x="419.740136" y="194.844092" style="fill: #4878cf; stroke: #4878cf"/>
     <use xlink:href="#m1cb44dc70a" x="453.130702" y="194.023053" style="fill: #4878cf; stroke: #4878cf"/>
     <use xlink:href="#m1cb44dc70a" x="489.91838" y="192.626921" style="fill: #4878cf; stroke: #4878cf"/>
     <use xlink:href="#m1cb44dc70a" x="527.471941" y="202.1526" style="fill: #4878cf; stroke: #4878cf"/>
    </g>
   </g>
   <g id="patch_8">
    <path d="M 324.979977 210.803691 
L 324.979977 20.479688 
" style="fill: none; stroke: #cccccc; stroke-width: 1.25; stroke-linejoin: miter; stroke-linecap: square"/>
   </g>
   <g id="patch_9">
    <path d="M 537.114415 210.803691 
L 537.114415 20.479688 
" style="fill: none; stroke: #cccccc; stroke-width: 1.25; stroke-linejoin: miter; stroke-linecap: square"/>
   </g>
   <g id="patch_10">
    <path d="M 324.979977 210.803691 
L 537.114415 210.803691 
" style="fill: none; stroke: #cccccc; stroke-width: 1.25; stroke-linejoin: miter; stroke-linecap: square"/>
   </g>
   <g id="patch_11">
    <path d="M 324.979977 20.479687 
L 537.114415 20.479687 
" style="fill: none; stroke: #cccccc; stroke-width: 1.25; stroke-linejoin: miter; stroke-linecap: square"/>
   </g>
   <g id="text_30">
    <!-- sweet spot ~3998p -->
    <g style="fill: #4878cf" transform="translate(533.471941 214.1526) scale(0.08 -0.08)">
     <defs>
      <path id="ArialMT-7e" d="M 272 1741 
L 272 2381 
Q 603 2756 1141 2756 
Q 1328 2756 1534 2701 
Q 1741 2647 2122 2484 
Q 2338 2394 2445 2366 
Q 2553 2338 2663 2338 
Q 2866 2338 3083 2459 
Q 3300 2581 3469 2766 
L 3469 2103 
Q 3269 1916 3064 1831 
Q 2859 1747 2603 1747 
Q 2416 1747 2245 1790 
Q 2075 1834 1704 2000 
Q 1334 2166 1088 2166 
Q 888 2166 711 2080 
Q 534 1994 272 1741 
z
" transform="scale(0.015625)"/>
      <path id="ArialMT-39" d="M 350 1059 
L 891 1109 
Q 959 728 1153 556 
Q 1347 384 1650 384 
Q 1909 384 2104 503 
Q 2300 622 2425 820 
Q 2550 1019 2634 1356 
Q 2719 1694 2719 2044 
Q 2719 2081 2716 2156 
Q 2547 1888 2255 1720 
Q 1963 1553 1622 1553 
Q 1053 1553 659 1965 
Q 266 2378 266 3053 
Q 266 3750 677 4175 
Q 1088 4600 1706 4600 
Q 2153 4600 2523 4359 
Q 2894 4119 3086 3673 
Q 3278 3228 3278 2384 
Q 3278 1506 3087 986 
Q 2897 466 2520 194 
Q 2144 -78 1638 -78 
Q 1100 -78 759 220 
Q 419 519 350 1059 
z
M 2653 3081 
Q 2653 3566 2395 3850 
Q 2138 4134 1775 4134 
Q 1400 4134 1122 3828 
Q 844 3522 844 3034 
Q 844 2597 1108 2323 
Q 1372 2050 1759 2050 
Q 2150 2050 2401 2323 
Q 2653 2597 2653 3081 
z
" transform="scale(0.015625)"/>
      <path id="ArialMT-38" d="M 1131 2484 
Q 781 2613 612 2850 
Q 444 3088 444 3419 
Q 444 3919 803 4259 
Q 1163 4600 1759 4600 
Q 2359 4600 2725 4251 
Q 3091 3903 3091 3403 
Q 3091 3084 2923 2848 
Q 2756 2613 2416 2484 
Q 2838 2347 3058 2040 
Q 3278 1734 3278 1309 
Q 3278 722 2862 322 
Q 2447 -78 1769 -78 
Q 1091 -78 675 323 
Q 259 725 259 1325 
Q 259 1772 486 2073 
Q 713 2375 1131 2484 
z
M 1019 3438 
Q 1019 3113 1228 2906 
Q 1438 2700 1772 2700 
Q 2097 2700 2305 2904 
Q 2513 3109 2513 3406 
Q 2513 3716 2298 3927 
Q 2084 4138 1766 4138 
Q 1444 4138 1231 3931 
Q 1019 3725 1019 3438 
z
M 838 1322 
Q 838 1081 952 856 
Q 1066 631 1291 507 
Q 1516 384 1775 384 
Q 2178 384 2440 643 
Q 2703 903 2703 1303 
Q 2703 1709 2433 1975 
Q 2163 2241 1756 2241 
Q 1359 2241 1098 1978 
Q 838 1716 838 1322 
z
" transform="scale(0.015625)"/>
     </defs>
     <use xlink:href="#ArialMT-73"/>
     <use xlink:href="#ArialMT-77" transform="translate(50 0)"/>
     <use xlink:href="#ArialMT-65" transform="translate(122.216797 0)"/>
     <use xlink:href="#ArialMT-65" transform="translate(177.832031 0)"/>
     <use xlink:href="#ArialMT-74" transform="translate(233.447266 0)"/>
     <use xlink:href="#ArialMT-20" transform="translate(261.230469 0)"/>
     <use xlink:href="#ArialMT-73" transform="translate(289.013672 0)"/>
     <use xlink:href="#ArialMT-70" transform="translate(339.013672 0)"/>
     <use xlink:href="#ArialMT-6f" transform="translate(394.628906 0)"/>
     <use xlink:href="#ArialMT-74" transform="translate(450.244141 0)"/>
     <use xlink:href="#ArialMT-20" transform="translate(478.027344 0)"/>
     <use xlink:href="#ArialMT-7e" transform="translate(505.810547 0)"/>
     <use xlink:href="#ArialMT-33" transform="translate(564.208984 0)"/>
     <use xlink:href="#ArialMT-39" transform="translate(619.824219 0)"/>
     <use xlink:href="#ArialMT-39" transform="translate(675.439453 0)"/>
     <use xlink:href="#ArialMT-38" transform="translate(731.054688 0)"/>
     <use xlink:href="#ArialMT-70" transform="translate(786.669922 0)"/>
    </g>
   </g>
   <g id="text_31">
    <!-- Dense capability floor (100% capture throughout) -->
    <g style="fill: #262626" transform="translate(324.979977 14.479687) scale(0.1 -0.1)">
     <defs>
      <path id="ArialMT-44" d="M 494 0 
L 494 4581 
L 2072 4581 
Q 2606 4581 2888 4516 
Q 3281 4425 3559 4188 
Q 3922 3881 4101 3404 
Q 4281 2928 4281 2316 
Q 4281 1794 4159 1391 
Q 4038 988 3847 723 
Q 3656 459 3429 307 
Q 3203 156 2883 78 
Q 2563 0 2147 0 
L 494 0 
z
M 1100 541 
L 2078 541 
Q 2531 541 2789 625 
Q 3047 709 3200 863 
Q 3416 1078 3536 1442 
Q 3656 1806 3656 2325 
Q 3656 3044 3420 3430 
Q 3184 3816 2847 3947 
Q 2603 4041 2063 4041 
L 1100 4041 
L 1100 541 
z
" transform="scale(0.015625)"/>
      <path id="ArialMT-79" d="M 397 -1278 
L 334 -750 
Q 519 -800 656 -800 
Q 844 -800 956 -737 
Q 1069 -675 1141 -563 
Q 1194 -478 1313 -144 
Q 1328 -97 1363 -6 
L 103 3319 
L 709 3319 
L 1400 1397 
Q 1534 1031 1641 628 
Q 1738 1016 1872 1384 
L 2581 3319 
L 3144 3319 
L 1881 -56 
Q 1678 -603 1566 -809 
Q 1416 -1088 1222 -1217 
Q 1028 -1347 759 -1347 
Q 597 -1347 397 -1278 
z
" transform="scale(0.015625)"/>
      <path id="ArialMT-25" d="M 372 3481 
Q 372 3972 619 4315 
Q 866 4659 1334 4659 
Q 1766 4659 2048 4351 
Q 2331 4044 2331 3447 
Q 2331 2866 2045 2552 
Q 1759 2238 1341 2238 
Q 925 2238 648 2547 
Q 372 2856 372 3481 
z
M 1350 4272 
Q 1141 4272 1002 4090 
Q 863 3909 863 3425 
Q 863 2984 1003 2804 
Q 1144 2625 1350 2625 
Q 1563 2625 1702 2806 
Q 1841 2988 1841 3469 
Q 1841 3913 1700 4092 
Q 1559 4272 1350 4272 
z
M 1353 -169 
L 3859 4659 
L 4316 4659 
L 1819 -169 
L 1353 -169 
z
M 3334 1075 
Q 3334 1569 3581 1911 
Q 3828 2253 4300 2253 
Q 4731 2253 5014 1945 
Q 5297 1638 5297 1041 
Q 5297 459 5011 145 
Q 4725 -169 4303 -169 
Q 3888 -169 3611 142 
Q 3334 453 3334 1075 
z
M 4316 1866 
Q 4103 1866 3964 1684 
Q 3825 1503 3825 1019 
Q 3825 581 3965 400 
Q 4106 219 4313 219 
Q 4528 219 4667 400 
Q 4806 581 4806 1063 
Q 4806 1506 4665 1686 
Q 4525 1866 4316 1866 
z
" transform="scale(0.015625)"/>
     </defs>
     <use xlink:href="#ArialMT-44"/>
     <use xlink:href="#ArialMT-65" transform="translate(72.216797 0)"/>
     <use xlink:href="#ArialMT-6e" transform="translate(127.832031 0)"/>
     <use xlink:href="#ArialMT-73" transform="translate(183.447266 0)"/>
     <use xlink:href="#ArialMT-65" transform="translate(233.447266 0)"/>
     <use xlink:href="#ArialMT-20" transform="translate(289.0625 0)"/>
     <use xlink:href="#ArialMT-63" transform="translate(316.845703 0)"/>
     <use xlink:href="#ArialMT-61" transform="translate(366.845703 0)"/>
     <use xlink:href="#ArialMT-70" transform="translate(422.460938 0)"/>
     <use xlink:href="#ArialMT-61" transform="translate(478.076172 0)"/>
     <use xlink:href="#ArialMT-62" transform="translate(533.691406 0)"/>
     <use xlink:href="#ArialMT-69" transform="translate(589.306641 0)"/>
     <use xlink:href="#ArialMT-6c" transform="translate(611.523438 0)"/>
     <use xlink:href="#ArialMT-69" transform="translate(633.740234 0)"/>
     <use xlink:href="#ArialMT-74" transform="translate(655.957031 0)"/>
     <use xlink:href="#ArialMT-79" transform="translate(683.740234 0)"/>
     <use xlink:href="#ArialMT-20" transform="translate(733.740234 0)"/>
     <use xlink:href="#ArialMT-66" transform="translate(761.523438 0)"/>
     <use xlink:href="#ArialMT-6c" transform="translate(789.306641 0)"/>
     <use xlink:href="#ArialMT-6f" transform="translate(811.523438 0)"/>
     <use xlink:href="#ArialMT-6f" transform="translate(867.138672 0)"/>
     <use xlink:href="#ArialMT-72" transform="translate(922.753906 0)"/>
     <use xlink:href="#ArialMT-20" transform="translate(956.054688 0)"/>
     <use xlink:href="#ArialMT-28" transform="translate(983.837891 0)"/>
     <use xlink:href="#ArialMT-31" transform="translate(1017.138672 0)"/>
     <use xlink:href="#ArialMT-30" transform="translate(1072.753906 0)"/>
     <use xlink:href="#ArialMT-30" transform="translate(1128.369141 0)"/>
     <use xlink:href="#ArialMT-25" transform="translate(1183.984375 0)"/>
     <use xlink:href="#ArialMT-20" transform="translate(1272.900391 0)"/>
     <use xlink:href="#ArialMT-63" transform="translate(1300.683594 0)"/>
     <use xlink:href="#ArialMT-61" transform="translate(1350.683594 0)"/>
     <use xlink:href="#ArialMT-70" transform="translate(1406.298828 0)"/>
     <use xlink:href="#ArialMT-74" transform="translate(1461.914062 0)"/>
     <use xlink:href="#ArialMT-75" transform="translate(1489.697266 0)"/>
     <use xlink:href="#ArialMT-72" transform="translate(1545.3125 0)"/>
     <use xlink:href="#ArialMT-65" transform="translate(1578.613281 0)"/>
     <use xlink:href="#ArialMT-20" transform="translate(1634.228516 0)"/>
     <use xlink:href="#ArialMT-74" transform="translate(1662.011719 0)"/>
     <use xlink:href="#ArialMT-68" transform="translate(1689.794922 0)"/>
     <use xlink:href="#ArialMT-72" transform="translate(1745.410156 0)"/>
     <use xlink:href="#ArialMT-6f" transform="translate(1778.710938 0)"/>
     <use xlink:href="#ArialMT-75" transform="translate(1834.326172 0)"/>
     <use xlink:href="#ArialMT-67" transform="translate(1889.941406 0)"/>
     <use xlink:href="#ArialMT-68" transform="translate(1945.556641 0)"/>
     <use xlink:href="#ArialMT-6f" transform="translate(2001.171875 0)"/>
     <use xlink:href="#ArialMT-75" transform="translate(2056.787109 0)"/>
     <use xlink:href="#ArialMT-74" transform="translate(2112.402344 0)"/>
     <use xlink:href="#ArialMT-29" transform="translate(2140.185547 0)"/>
    </g>
   </g>
  </g>
 </g>
 <defs>
  <clipPath id="p823175d1fc">
   <rect x="48.963539" y="20.479687" width="212.134438" height="190.324003"/>
  </clipPath>
  <clipPath id="pa3d566eb09">
   <rect x="324.979977" y="20.479687" width="212.134438" height="190.324003"/>
  </clipPath>
 </defs>
</svg>
