<?xml version="1.0" encoding="utf-8" standalone="no"?>
<!DOCTYPE svg PUBLIC "-//W3C//DTD SVG 1.1//EN"
  "http://www.w3.org/Graphics/SVG/1.1/DTD/svg11.dtd">
<svg xmlns:xlink="http://www.w3.org/1999/xlink" width="520.886049pt" height="276.48pt" viewBox="0 0 520.886049 276.48" xmlns="http://www.w3.org/2000/svg" version="1.1">
 <metadata>
  <rdf:RDF xmlns:dc="http://purl.org/dc/elements/1.1/" xmlns:cc="http://creativecommons.org/ns#" xmlns:rdf="http://www.w3.org/1999/02/22-rdf-syntax-ns#">
   <cc:Work>
    <dc:type rdf:resource="http://purl.org/dc/dcmitype/StillImage"/>
    <dc:date>2026-07-15T11:44:16.279035</dc:date>
    <dc:format>image/svg+xml</dc:format>
    <dc:creator>
     <cc:Agent>
      <dc:title>Matplotlib v3.11.0, https://matplotlib.org/</dc:title>
     </cc:Agent>
    </dc:creator>
   </cc:Work>
  </rdf:RDF>
 </metadata>
 <defs>
  <style type="text/css">*{stroke-linejoin: round; stroke-linecap: butt}</style>
 </defs>
 <g id="figure_1">
  <g id="patch_1">
   <path d="M 0 276.48 
L 520.886049 276.48 
L 520.886049 0 
L 0 0 
z
" style="fill: #ffffff"/>
  </g>
  <g id="axes_1">
   <g id="patch_2">
    <path d="M 46.435 237.78 
L 508.688478 237.78 
L 508.688478 20.82 
L 46.435 20.82 
z
" style="fill: #f5f5f5"/>
   </g>
   <g id="matplotlib.axis_1">
    <g id="xtick_1">
     <g id="line2d_1">
      <path d="M 46.435 237.78 
L 46.435 20.82 
" clip-path="url(#pb820c9f15c)" style="fill: none; stroke: #dddddd; stroke-width: 0.6; stroke-linecap: round"/>
     </g>
     <g id="text_1">
      <!-- 100 -->
      <g style="fill: #262626" transform="translate(40.12375 253.757) scale(0.085 -0.085)">
       <defs>
        <path id="STIXTwoText-787" d="M 2726 0 
L 512 0 
L 512 179 
Q 966 179 1152 275 
Q 1338 371 1338 608 
L 1338 3315 
Q 1338 3482 1293 3555 
Q 1248 3629 1126 3629 
Q 1062 3629 947 3616 
Q 832 3603 704 3580 
Q 576 3558 474 3526 
L 474 3738 
L 1715 4090 
L 1901 4090 
L 1901 608 
Q 1901 371 2093 275 
Q 2285 179 2726 179 
L 2726 0 
z
" transform="scale(0.015625)"/>
        <path id="STIXTwoText-786" d="M 1581 -70 
Q 1197 -70 928 99 
Q 659 269 492 563 
Q 326 858 249 1242 
Q 173 1626 173 2048 
Q 173 2656 336 3120 
Q 499 3584 816 3846 
Q 1133 4109 1594 4109 
Q 2010 4109 2323 3862 
Q 2637 3616 2816 3152 
Q 2995 2688 2995 2029 
Q 2995 1619 2915 1241 
Q 2835 864 2665 569 
Q 2496 275 2227 102 
Q 1958 -70 1581 -70 
z
M 1581 160 
Q 1958 160 2166 614 
Q 2374 1069 2374 1990 
Q 2374 2963 2172 3427 
Q 1971 3891 1574 3891 
Q 1197 3891 992 3430 
Q 787 2970 787 2016 
Q 787 1088 992 624 
Q 1197 160 1581 160 
z
" transform="scale(0.015625)"/>
       </defs>
       <use xlink:href="#STIXTwoText-787"/>
       <use xlink:href="#STIXTwoText-786" transform="translate(49.5 0)"/>
       <use xlink:href="#STIXTwoText-786" transform="translate(99 0)"/>
      </g>
     </g>
    </g>
    <g id="xtick_2">
     <g id="line2d_2">
      <path d="M 123.2583 237.78 
L 123.2583 20.82 
" clip-path="url(#pb820c9f15c)" style="fill: none; stroke: #dddddd; stroke-width: 0.6; stroke-linecap: round"/>
     </g>
     <g id="text_2">
      <!-- 150 -->
      <g style="fill: #262626" transform="translate(116.94705 253.757) scale(0.085 -0.085)">
       <defs>
        <path id="STIXTwoText-78b" d="M 1114 -83 
Q 742 -83 560 6 
Q 378 96 378 275 
Q 378 384 445 467 
Q 512 550 634 550 
Q 730 550 822 502 
Q 915 454 1014 393 
Q 1114 333 1235 285 
Q 1357 237 1510 237 
Q 1741 237 1936 326 
Q 2131 416 2249 614 
Q 2368 813 2368 1146 
Q 2368 1504 2227 1721 
Q 2086 1939 1849 2054 
Q 1613 2170 1315 2214 
Q 1018 2259 698 2266 
L 621 2362 
L 1018 4032 
L 2771 4032 
L 2669 3514 
L 1165 3514 
L 992 2784 
Q 1312 2758 1590 2704 
Q 1869 2650 2096 2554 
Q 2323 2458 2489 2301 
Q 2656 2144 2745 1923 
Q 2835 1702 2835 1402 
Q 2835 1030 2710 752 
Q 2586 474 2355 288 
Q 2125 102 1811 9 
Q 1498 -83 1114 -83 
z
" transform="scale(0.015625)"/>
       </defs>
       <use xlink:href="#STIXTwoText-787"/>
       <use xlink:href="#STIXTwoText-78b" transform="translate(49.5 0)"/>
       <use xlink:href="#STIXTwoText-786" transform="translate(99 0)"/>
      </g>
     </g>
    </g>
    <g id="xtick_3">
     <g id="line2d_3">
      <path d="M 200.0816 237.78 
L 200.0816 20.82 
" clip-path="url(#pb820c9f15c)" style="fill: none; stroke: #dddddd; stroke-width: 0.6; stroke-linecap: round"/>
     </g>
     <g id="text_3">
      <!-- 200 -->
      <g style="fill: #262626" transform="translate(193.77035 253.757) scale(0.085 -0.085)">
       <defs>
        <path id="STIXTwoText-788" d="M 2765 0 
L 243 0 
L 243 218 
L 1216 1190 
Q 1536 1517 1747 1782 
Q 1958 2048 2064 2317 
Q 2170 2586 2170 2918 
Q 2170 3277 1955 3491 
Q 1741 3706 1370 3706 
Q 1056 3706 835 3571 
Q 614 3437 435 3078 
L 282 3142 
Q 429 3610 749 3866 
Q 1069 4122 1536 4122 
Q 1901 4122 2176 3984 
Q 2451 3846 2608 3600 
Q 2765 3354 2765 3014 
Q 2765 2733 2646 2473 
Q 2528 2214 2294 1939 
Q 2061 1664 1722 1318 
L 877 518 
L 877 486 
L 1325 506 
L 2214 506 
Q 2470 506 2572 621 
Q 2675 736 2784 1024 
L 2970 1024 
L 2765 0 
z
" transform="scale(0.015625)"/>
       </defs>
       <use xlink:href="#STIXTwoText-788"/>
       <use xlink:href="#STIXTwoText-786" transform="translate(49.5 0)"/>
       <use xlink:href="#STIXTwoText-786" transform="translate(99 0)"/>
      </g>
     </g>
    </g>
    <g id="xtick_4">
     <g id="line2d_4">
      <path d="M 276.9049 237.78 
L 276.9049 20.82 
" clip-path="url(#pb820c9f15c)" style="fill: none; stroke: #dddddd; stroke-width: 0.6; stroke-linecap: round"/>
     </g>
     <g id="text_4">
      <!-- 250 -->
      <g style="fill: #262626" transform="translate(270.59365 253.757) scale(0.085 -0.085)">
       <use xlink:href="#STIXTwoText-788"/>
       <use xlink:href="#STIXTwoText-78b" transform="translate(49.5 0)"/>
       <use xlink:href="#STIXTwoText-786" transform="translate(99 0)"/>
      </g>
     </g>
    </g>
    <g id="xtick_5">
     <g id="line2d_5">
      <path d="M 353.728199 237.78 
L 353.728199 20.82 
" clip-path="url(#pb820c9f15c)" style="fill: none; stroke: #dddddd; stroke-width: 0.6; stroke-linecap: round"/>
     </g>
     <g id="text_5">
      <!-- 300 -->
      <g style="fill: #262626" transform="translate(347.416949 253.757) scale(0.085 -0.085)">
       <defs>
        <path id="STIXTwoText-789" d="M 1094 -83 
Q 806 -83 652 -28 
Q 499 26 438 106 
Q 378 186 378 269 
Q 378 371 442 460 
Q 506 550 627 550 
Q 723 550 828 502 
Q 934 454 1049 393 
Q 1165 333 1283 285 
Q 1402 237 1523 237 
Q 1728 237 1907 310 
Q 2086 384 2201 560 
Q 2317 736 2317 1050 
Q 2317 1338 2157 1549 
Q 1997 1760 1731 1878 
Q 1466 1997 1158 1997 
L 1030 1997 
L 1030 2240 
L 1152 2240 
Q 1370 2240 1574 2349 
Q 1779 2458 1910 2656 
Q 2042 2854 2042 3110 
Q 2042 3392 1866 3549 
Q 1690 3706 1389 3706 
Q 1101 3706 909 3574 
Q 717 3443 550 3187 
L 403 3270 
Q 582 3686 876 3904 
Q 1171 4122 1562 4122 
Q 2054 4122 2323 3875 
Q 2592 3629 2592 3264 
Q 2592 2931 2397 2726 
Q 2202 2522 1901 2330 
L 1901 2310 
Q 2157 2234 2371 2090 
Q 2586 1946 2714 1738 
Q 2842 1530 2842 1242 
Q 2842 806 2598 508 
Q 2355 211 1958 64 
Q 1562 -83 1094 -83 
z
" transform="scale(0.015625)"/>
       </defs>
       <use xlink:href="#STIXTwoText-789"/>
       <use xlink:href="#STIXTwoText-786" transform="translate(49.5 0)"/>
       <use xlink:href="#STIXTwoText-786" transform="translate(99 0)"/>
      </g>
     </g>
    </g>
    <g id="xtick_6">
     <g id="line2d_6">
      <path d="M 430.551499 237.78 
L 430.551499 20.82 
" clip-path="url(#pb820c9f15c)" style="fill: none; stroke: #dddddd; stroke-width: 0.6; stroke-linecap: round"/>
     </g>
     <g id="text_6">
      <!-- 350 -->
      <g style="fill: #262626" transform="translate(424.240249 253.757) scale(0.085 -0.085)">
       <use xlink:href="#STIXTwoText-789"/>
       <use xlink:href="#STIXTwoText-78b" transform="translate(49.5 0)"/>
       <use xlink:href="#STIXTwoText-786" transform="translate(99 0)"/>
      </g>
     </g>
    </g>
    <g id="xtick_7">
     <g id="line2d_7">
      <path d="M 507.374799 237.78 
L 507.374799 20.82 
" clip-path="url(#pb820c9f15c)" style="fill: none; stroke: #dddddd; stroke-width: 0.6; stroke-linecap: round"/>
     </g>
     <g id="text_7">
      <!-- 400 -->
      <g style="fill: #262626" transform="translate(501.063549 253.757) scale(0.085 -0.085)">
       <defs>
        <path id="STIXTwoText-78a" d="M 2426 0 
L 1856 0 
L 1856 1011 
L 83 1011 
L 83 1414 
L 2035 4128 
L 2426 4128 
L 2426 1453 
L 3078 1453 
L 3078 1011 
L 2426 1011 
L 2426 0 
z
M 435 1478 
L 435 1453 
L 1856 1453 
L 1856 3430 
L 1830 3430 
L 435 1478 
z
" transform="scale(0.015625)"/>
       </defs>
       <use xlink:href="#STIXTwoText-78a"/>
       <use xlink:href="#STIXTwoText-786" transform="translate(49.5 0)"/>
       <use xlink:href="#STIXTwoText-786" transform="translate(99 0)"/>
      </g>
     </g>
    </g>
    <g id="text_8">
     <!-- correction $\Delta v$ (m/s) -->
     <g style="fill: #262626" transform="translate(238.231739 267.019) scale(0.095 -0.095)">
      <defs>
       <path id="STIXTwoText-101" d="M 2611 947 
L 2733 858 
Q 2611 602 2454 390 
Q 2298 179 2067 57 
Q 1837 -64 1491 -64 
Q 1094 -64 806 128 
Q 518 320 364 662 
Q 211 1005 211 1446 
Q 211 1952 380 2323 
Q 550 2694 873 2899 
Q 1197 3104 1658 3104 
Q 2112 3104 2371 2905 
Q 2630 2707 2630 2426 
Q 2630 2285 2563 2211 
Q 2496 2138 2362 2138 
Q 2221 2138 2147 2211 
Q 2074 2285 2029 2393 
Q 1984 2502 1936 2611 
Q 1888 2720 1801 2793 
Q 1715 2867 1549 2867 
Q 1158 2867 937 2582 
Q 717 2298 717 1747 
Q 717 1165 957 790 
Q 1197 416 1690 416 
Q 2003 416 2198 544 
Q 2394 672 2611 947 
z
" transform="scale(0.015625)"/>
       <path id="STIXTwoText-10e" d="M 1651 -64 
Q 979 -64 598 355 
Q 218 774 218 1549 
Q 218 2016 397 2365 
Q 576 2714 899 2909 
Q 1222 3104 1651 3104 
Q 2310 3104 2691 2694 
Q 3072 2285 3072 1574 
Q 3072 1037 2889 672 
Q 2707 307 2387 121 
Q 2067 -64 1651 -64 
z
M 1677 192 
Q 1939 192 2118 313 
Q 2298 435 2390 729 
Q 2483 1024 2483 1542 
Q 2483 2131 2268 2496 
Q 2054 2861 1626 2861 
Q 1261 2861 1037 2553 
Q 813 2246 813 1632 
Q 813 870 1040 528 
Q 1267 186 1677 192 
z
" transform="scale(0.015625)"/>
       <path id="STIXTwoText-111" d="M 1786 0 
L 186 0 
L 186 186 
Q 397 186 496 221 
Q 595 256 624 349 
Q 653 442 653 621 
L 653 2381 
Q 653 2554 624 2640 
Q 595 2726 422 2726 
Q 326 2726 275 2720 
Q 224 2714 224 2714 
L 224 2893 
L 1018 3085 
L 1171 3085 
L 1171 2426 
L 1190 2426 
Q 1357 2662 1485 2816 
Q 1613 2970 1737 3046 
Q 1862 3123 2016 3123 
Q 2202 3123 2294 3027 
Q 2387 2931 2387 2765 
Q 2387 2586 2300 2502 
Q 2214 2419 2106 2419 
Q 2003 2419 1923 2473 
Q 1843 2528 1785 2582 
Q 1728 2637 1690 2637 
Q 1581 2637 1440 2470 
Q 1299 2304 1184 2112 
L 1184 653 
Q 1184 454 1235 352 
Q 1286 250 1417 218 
Q 1549 186 1786 186 
L 1786 0 
z
" transform="scale(0.015625)"/>
       <path id="STIXTwoText-103" d="M 1581 -64 
Q 1197 -64 886 118 
Q 576 301 397 656 
Q 218 1011 218 1523 
Q 218 2061 400 2409 
Q 582 2758 889 2931 
Q 1197 3104 1568 3104 
Q 2093 3104 2413 2739 
Q 2733 2374 2758 1702 
L 678 1702 
L 672 1939 
L 2157 1939 
Q 2150 2176 2073 2384 
Q 1997 2592 1849 2720 
Q 1702 2848 1472 2848 
Q 1101 2848 915 2557 
Q 730 2266 730 1734 
Q 730 1293 870 998 
Q 1011 704 1241 560 
Q 1472 416 1734 416 
Q 1997 416 2160 486 
Q 2323 557 2438 669 
Q 2554 781 2656 915 
L 2778 826 
Q 2694 646 2585 483 
Q 2477 320 2339 198 
Q 2202 77 2016 6 
Q 1830 -64 1581 -64 
z
" transform="scale(0.015625)"/>
       <path id="STIXTwoText-113" d="M 1875 576 
L 1997 474 
Q 1875 301 1769 182 
Q 1664 64 1536 0 
Q 1408 -64 1203 -64 
Q 883 -64 736 125 
Q 589 314 589 742 
L 589 2726 
L 237 2726 
L 237 2874 
Q 461 3014 624 3254 
Q 787 3494 960 3904 
L 1120 3904 
L 1120 2995 
L 1843 2995 
L 1843 2726 
L 1120 2726 
L 1120 922 
Q 1120 582 1181 448 
Q 1242 314 1427 314 
Q 1581 314 1667 378 
Q 1754 442 1875 576 
z
" transform="scale(0.015625)"/>
       <path id="STIXTwoText-107" d="M 1645 0 
L 205 0 
L 205 179 
Q 422 179 515 220 
Q 608 262 630 364 
Q 653 467 653 646 
L 653 2432 
Q 653 2637 582 2685 
Q 512 2733 371 2733 
Q 307 2733 259 2726 
Q 211 2720 211 2720 
L 211 2906 
L 1018 3085 
L 1184 3085 
L 1184 646 
Q 1184 461 1209 358 
Q 1235 256 1334 217 
Q 1434 179 1645 179 
L 1645 0 
z
M 928 3584 
Q 768 3584 665 3693 
Q 563 3802 563 3949 
Q 563 4096 662 4201 
Q 762 4307 928 4307 
Q 1094 4307 1193 4201 
Q 1293 4096 1293 3949 
Q 1293 3802 1193 3693 
Q 1094 3584 928 3584 
z
" transform="scale(0.015625)"/>
       <path id="STIXTwoText-10d" d="M 3552 0 
L 2074 0 
L 2074 179 
Q 2304 179 2403 220 
Q 2502 262 2524 364 
Q 2547 467 2547 646 
L 2547 1805 
Q 2547 2189 2460 2381 
Q 2374 2573 2240 2633 
Q 2106 2694 1958 2694 
Q 1773 2694 1625 2620 
Q 1478 2547 1360 2444 
Q 1242 2342 1139 2253 
L 1094 2566 
L 1190 2566 
Q 1453 2797 1686 2950 
Q 1920 3104 2221 3104 
Q 2656 3104 2867 2809 
Q 3078 2515 3078 1965 
L 3078 646 
Q 3078 467 3107 364 
Q 3136 262 3238 220 
Q 3341 179 3552 179 
L 3552 0 
z
M 1670 0 
L 205 0 
L 205 179 
Q 422 179 515 220 
Q 608 262 630 364 
Q 653 467 653 646 
L 653 2445 
Q 653 2618 582 2672 
Q 512 2726 384 2726 
Q 301 2726 256 2720 
Q 211 2714 211 2714 
L 211 2899 
L 1024 3085 
L 1171 3085 
L 1165 2496 
L 1184 2362 
L 1184 646 
Q 1184 467 1209 364 
Q 1235 262 1337 220 
Q 1440 179 1670 179 
L 1670 0 
z
" transform="scale(0.015625)"/>
       <path id="STIXTwoText-1" transform="scale(0.015625)"/>
       <path id="STIXGeneral-Regular-254" d="M 4320 0 
L 307 0 
L 2221 4314 
L 2349 4314 
L 4320 0 
z
M 3354 589 
L 2118 3405 
L 870 589 
L 3354 589 
z
" transform="scale(0.015625)"/>
       <path id="STIXGeneral-Italic-59" d="M 1325 448 
L 1523 653 
Q 1869 1005 2134 1456 
Q 2400 1907 2400 2131 
Q 2400 2208 2285 2317 
Q 2125 2458 2125 2605 
Q 2125 2701 2195 2761 
Q 2266 2822 2368 2822 
Q 2522 2822 2624 2704 
Q 2726 2586 2726 2445 
Q 2726 2074 2323 1453 
Q 1971 909 1562 474 
Q 1504 416 1421 326 
Q 1338 237 1299 192 
Q 1261 147 1200 86 
Q 1139 26 1110 -3 
Q 1082 -32 1043 -64 
Q 1005 -96 979 -105 
Q 954 -115 928 -115 
Q 870 -115 870 58 
L 870 211 
Q 870 1094 717 1990 
Q 653 2355 579 2470 
Q 506 2586 326 2586 
Q 198 2586 128 2579 
L 128 2662 
Q 480 2720 845 2797 
Q 915 2822 973 2822 
Q 1011 2822 1033 2739 
Q 1056 2656 1165 2093 
Q 1280 1510 1325 448 
z
" transform="scale(0.015625)"/>
       <path id="STIXTwoText-731" d="M 1997 -1011 
L 1894 -1190 
Q 1120 -794 656 -48 
Q 192 698 192 1754 
Q 192 2803 656 3542 
Q 1120 4282 1894 4672 
L 1997 4506 
Q 1299 4038 1008 3372 
Q 717 2707 717 1754 
Q 717 787 1008 118 
Q 1299 -550 1997 -1011 
z
" transform="scale(0.015625)"/>
       <path id="STIXTwoText-10c" d="M 3520 0 
L 2003 0 
L 2003 186 
Q 2234 186 2336 230 
Q 2438 275 2467 396 
Q 2496 518 2496 742 
L 2496 2010 
Q 2496 2419 2352 2556 
Q 2208 2694 1984 2694 
Q 1805 2694 1648 2617 
Q 1491 2541 1363 2438 
Q 1235 2336 1146 2246 
L 1094 2566 
L 1190 2566 
Q 1453 2790 1696 2947 
Q 1939 3104 2266 3104 
Q 2554 3104 2730 2937 
Q 2906 2771 2995 2522 
Q 3008 2502 3014 2480 
Q 3021 2458 3027 2432 
L 3027 742 
Q 3027 525 3056 403 
Q 3085 282 3187 234 
Q 3290 186 3520 186 
L 3520 0 
z
M 1664 0 
L 205 0 
L 205 186 
Q 410 186 502 221 
Q 595 256 624 355 
Q 653 454 653 646 
L 653 2438 
Q 653 2611 585 2668 
Q 518 2726 384 2726 
Q 314 2726 262 2720 
Q 211 2714 211 2714 
L 211 2899 
L 1011 3085 
L 1165 3085 
L 1165 2496 
L 1184 2355 
L 1184 621 
Q 1184 442 1222 349 
Q 1261 256 1363 221 
Q 1466 186 1664 186 
L 1664 0 
z
M 5306 0 
L 3859 0 
L 3859 186 
Q 4077 186 4173 243 
Q 4269 301 4291 425 
Q 4314 550 4314 742 
L 4314 1971 
Q 4314 2266 4240 2419 
Q 4166 2573 4041 2633 
Q 3917 2694 3763 2694 
Q 3552 2694 3347 2544 
Q 3142 2394 2976 2253 
L 2906 2573 
L 3002 2573 
Q 3264 2835 3513 2969 
Q 3763 3104 4019 3104 
Q 4397 3104 4621 2867 
Q 4845 2630 4845 2048 
L 4845 742 
Q 4845 544 4867 419 
Q 4890 294 4989 240 
Q 5088 186 5306 186 
L 5306 0 
z
" transform="scale(0.015625)"/>
       <path id="STIXTwoText-72d" d="M 589 -570 
L 230 -570 
L 1901 4538 
L 2253 4538 
L 589 -570 
z
" transform="scale(0.015625)"/>
       <path id="STIXTwoText-112" d="M 269 -51 
L 250 1050 
L 416 1050 
Q 518 557 716 361 
Q 915 166 1267 166 
Q 1510 166 1664 265 
Q 1818 365 1818 589 
Q 1818 742 1763 844 
Q 1709 947 1555 1052 
Q 1402 1158 1101 1306 
Q 806 1453 620 1590 
Q 435 1728 345 1894 
Q 256 2061 256 2298 
Q 256 2694 541 2899 
Q 826 3104 1235 3104 
Q 1478 3104 1632 3049 
Q 1786 2995 1907 2938 
L 1914 2938 
L 2022 3072 
L 2150 3072 
L 2170 2093 
L 1997 2093 
Q 1894 2547 1708 2716 
Q 1523 2886 1229 2886 
Q 1011 2886 860 2784 
Q 710 2682 710 2464 
Q 710 2278 883 2131 
Q 1056 1984 1459 1779 
Q 1754 1626 1952 1482 
Q 2150 1338 2252 1168 
Q 2355 998 2355 762 
Q 2355 461 2208 278 
Q 2061 96 1814 13 
Q 1568 -70 1280 -70 
Q 1005 -70 841 -12 
Q 678 45 550 96 
L 538 96 
L 403 -51 
L 269 -51 
z
" transform="scale(0.015625)"/>
       <path id="STIXTwoText-732" d="M 301 -1190 
L 198 -1011 
Q 902 -550 1190 118 
Q 1478 787 1478 1754 
Q 1478 2707 1190 3372 
Q 902 4038 198 4506 
L 301 4672 
Q 1075 4282 1539 3542 
Q 2003 2803 2003 1754 
Q 2003 698 1539 -48 
Q 1075 -794 301 -1190 
z
" transform="scale(0.015625)"/>
      </defs>
      <use xlink:href="#STIXTwoText-101"/>
      <use xlink:href="#STIXTwoText-10e" transform="translate(44.59996 0)"/>
      <use xlink:href="#STIXTwoText-111" transform="translate(95.999908 0)"/>
      <use xlink:href="#STIXTwoText-111" transform="translate(133.999878 0)"/>
      <use xlink:href="#STIXTwoText-103" transform="translate(171.999847 0)"/>
      <use xlink:href="#STIXTwoText-101" transform="translate(218.399811 0)"/>
      <use xlink:href="#STIXTwoText-113" transform="translate(262.999771 0)"/>
      <use xlink:href="#STIXTwoText-107" transform="translate(294.499741 0)"/>
      <use xlink:href="#STIXTwoText-10e" transform="translate(322.99971 0)"/>
      <use xlink:href="#STIXTwoText-10d" transform="translate(374.399658 0)"/>
      <use xlink:href="#STIXTwoText-1" transform="translate(431.999603 0)"/>
      <use xlink:href="#STIXGeneral-Regular-254" transform="translate(455.499588 0)"/>
      <use xlink:href="#STIXGeneral-Italic-59" transform="translate(527.699524 0)"/>
      <use xlink:href="#STIXTwoText-1" transform="translate(572.099487 0)"/>
      <use xlink:href="#STIXTwoText-731" transform="translate(595.599472 0)"/>
      <use xlink:href="#STIXTwoText-10c" transform="translate(629.899445 0)"/>
      <use xlink:href="#STIXTwoText-72d" transform="translate(715.099365 0)"/>
      <use xlink:href="#STIXTwoText-112" transform="translate(753.799332 0)"/>
      <use xlink:href="#STIXTwoText-732" transform="translate(793.299301 0)"/>
     </g>
    </g>
   </g>
   <g id="matplotlib.axis_2">
    <g id="ytick_1">
     <g id="line2d_8">
      <path d="M 46.435 222.594924 
L 508.688478 222.594924 
" clip-path="url(#pb820c9f15c)" style="fill: none; stroke: #dddddd; stroke-width: 0.6; stroke-linecap: round"/>
     </g>
     <g id="text_9">
      <!-- $\mathdefault{10^{-4}}$ -->
      <g style="fill: #262626" transform="translate(20.7 226.292424) scale(0.085 -0.085)">
       <defs>
        <path id="STIXTwoText-81c" d="M 4211 1434 
L 397 1434 
L 397 1869 
L 4211 1869 
L 4211 1434 
z
" transform="scale(0.015625)"/>
       </defs>
       <use xlink:href="#STIXTwoText-787" transform="translate(0 0.55)"/>
       <use xlink:href="#STIXTwoText-786" transform="translate(49.499954 0.55)"/>
       <use xlink:href="#STIXTwoText-81c" transform="translate(100.574908 41.85) scale(0.7)"/>
       <use xlink:href="#STIXTwoText-78a" transform="translate(150.974866 41.85) scale(0.7)"/>
      </g>
     </g>
    </g>
    <g id="ytick_2">
     <g id="line2d_9">
      <path d="M 46.435 172.151193 
L 508.688478 172.151193 
" clip-path="url(#pb820c9f15c)" style="fill: none; stroke: #dddddd; stroke-width: 0.6; stroke-linecap: round"/>
     </g>
     <g id="text_10">
      <!-- $\mathdefault{10^{-3}}$ -->
      <g style="fill: #262626" transform="translate(20.7 175.848693) scale(0.085 -0.085)">
       <use xlink:href="#STIXTwoText-787" transform="translate(0 0.615625)"/>
       <use xlink:href="#STIXTwoText-786" transform="translate(49.499954 0.615625)"/>
       <use xlink:href="#STIXTwoText-81c" transform="translate(100.574908 41.915625) scale(0.7)"/>
       <use xlink:href="#STIXTwoText-789" transform="translate(150.974866 41.915625) scale(0.7)"/>
      </g>
     </g>
    </g>
    <g id="ytick_3">
     <g id="line2d_10">
      <path d="M 46.435 121.707462 
L 508.688478 121.707462 
" clip-path="url(#pb820c9f15c)" style="fill: none; stroke: #dddddd; stroke-width: 0.6; stroke-linecap: round"/>
     </g>
     <g id="text_11">
      <!-- $\mathdefault{10^{-2}}$ -->
      <g style="fill: #262626" transform="translate(20.7 125.404962) scale(0.085 -0.085)">
       <use xlink:href="#STIXTwoText-787" transform="translate(0 0.615625)"/>
       <use xlink:href="#STIXTwoText-786" transform="translate(49.499954 0.615625)"/>
       <use xlink:href="#STIXTwoText-81c" transform="translate(100.574908 41.915625) scale(0.7)"/>
       <use xlink:href="#STIXTwoText-788" transform="translate(150.974866 41.915625) scale(0.7)"/>
      </g>
     </g>
    </g>
    <g id="ytick_4">
     <g id="line2d_11">
      <path d="M 46.435 71.263731 
L 508.688478 71.263731 
" clip-path="url(#pb820c9f15c)" style="fill: none; stroke: #dddddd; stroke-width: 0.6; stroke-linecap: round"/>
     </g>
     <g id="text_12">
      <!-- $\mathdefault{10^{-1}}$ -->
      <g style="fill: #262626" transform="translate(20.7 74.961231) scale(0.085 -0.085)">
       <use xlink:href="#STIXTwoText-787" transform="translate(0 0.965625)"/>
       <use xlink:href="#STIXTwoText-786" transform="translate(49.499954 0.965625)"/>
       <use xlink:href="#STIXTwoText-81c" transform="translate(100.574908 42.265625) scale(0.7)"/>
       <use xlink:href="#STIXTwoText-787" transform="translate(150.974866 42.265625) scale(0.7)"/>
      </g>
     </g>
    </g>
    <g id="ytick_5">
     <g id="line2d_12">
      <path d="M 46.435 20.82 
L 508.688478 20.82 
" clip-path="url(#pb820c9f15c)" style="fill: none; stroke: #dddddd; stroke-width: 0.6; stroke-linecap: round"/>
     </g>
     <g id="text_13">
      <!-- $\mathdefault{10^{0}}$ -->
      <g style="fill: #262626" transform="translate(25.035 24.5175) scale(0.085 -0.085)">
       <use xlink:href="#STIXTwoText-787" transform="translate(0 0.757812)"/>
       <use xlink:href="#STIXTwoText-786" transform="translate(49.499954 0.757812)"/>
       <use xlink:href="#STIXTwoText-786" transform="translate(100.574908 42.057813) scale(0.7)"/>
      </g>
     </g>
    </g>
    <g id="ytick_6"/>
    <g id="ytick_7"/>
    <g id="ytick_8"/>
    <g id="ytick_9"/>
    <g id="ytick_10"/>
    <g id="ytick_11"/>
    <g id="ytick_12"/>
    <g id="ytick_13"/>
    <g id="ytick_14"/>
    <g id="ytick_15"/>
    <g id="ytick_16"/>
    <g id="ytick_17"/>
    <g id="ytick_18"/>
    <g id="ytick_19"/>
    <g id="ytick_20"/>
    <g id="ytick_21"/>
    <g id="ytick_22"/>
    <g id="ytick_23"/>
    <g id="ytick_24"/>
    <g id="ytick_25"/>
    <g id="ytick_26"/>
    <g id="ytick_27"/>
    <g id="ytick_28"/>
    <g id="ytick_29"/>
    <g id="ytick_30"/>
    <g id="ytick_31"/>
    <g id="ytick_32"/>
    <g id="ytick_33"/>
    <g id="ytick_34"/>
    <g id="ytick_35"/>
    <g id="ytick_36"/>
    <g id="ytick_37"/>
    <g id="ytick_38"/>
    <g id="ytick_39"/>
    <g id="ytick_40"/>
    <g id="ytick_41"/>
    <g id="ytick_42"/>
    <g id="text_14">
     <!-- survival  $1 - F(\Delta v)$ -->
     <g style="fill: #262626" transform="translate(14.439 166.635) rotate(-90) scale(0.095 -0.095)">
      <defs>
       <path id="STIXTwoText-114" d="M 1421 -64 
Q 1024 -64 803 195 
Q 582 454 582 1107 
L 582 2406 
Q 582 2579 547 2659 
Q 512 2739 416 2761 
Q 320 2784 147 2784 
L 147 2963 
L 973 3059 
L 1114 3059 
L 1114 1190 
Q 1114 864 1187 681 
Q 1261 499 1392 422 
Q 1523 346 1690 346 
Q 1933 346 2109 454 
Q 2285 563 2477 730 
L 2477 2413 
Q 2477 2586 2432 2662 
Q 2387 2739 2275 2761 
Q 2163 2784 1958 2784 
L 1958 2963 
L 2854 3059 
L 3008 3059 
L 3008 710 
Q 3008 429 3085 358 
Q 3162 288 3392 288 
L 3456 288 
L 3456 115 
L 2643 -32 
L 2502 -32 
L 2502 461 
L 2470 461 
Q 2304 294 2141 176 
Q 1978 58 1802 -3 
Q 1626 -64 1421 -64 
z
" transform="scale(0.015625)"/>
       <path id="STIXTwoText-115" d="M 1696 -38 
L 1389 -38 
L 435 2374 
Q 352 2573 288 2672 
Q 224 2771 141 2806 
Q 58 2842 -83 2842 
L -83 3027 
L 1267 3027 
L 1267 2842 
Q 1082 2842 1008 2800 
Q 934 2758 934 2682 
Q 934 2618 953 2560 
Q 973 2502 998 2432 
L 1542 1005 
L 1664 621 
L 1702 621 
L 1837 1011 
L 2387 2458 
Q 2394 2483 2413 2537 
Q 2432 2592 2432 2669 
Q 2432 2778 2336 2810 
Q 2240 2842 2067 2842 
L 2067 3027 
L 3187 3027 
L 3187 2842 
Q 3002 2842 2902 2755 
Q 2803 2669 2707 2419 
L 1696 -38 
z
" transform="scale(0.015625)"/>
       <path id="STIXTwoText-ff" d="M 1005 -45 
Q 634 -45 438 160 
Q 243 365 243 672 
Q 243 928 361 1104 
Q 480 1280 675 1401 
Q 870 1523 1097 1606 
Q 1325 1690 1542 1747 
Q 1760 1805 1926 1856 
L 1926 2138 
Q 1926 2554 1782 2730 
Q 1638 2906 1350 2906 
Q 1075 2906 998 2790 
Q 922 2675 922 2387 
Q 922 2240 848 2166 
Q 774 2093 640 2093 
Q 544 2093 457 2166 
Q 371 2240 371 2400 
Q 371 2579 508 2739 
Q 646 2899 899 3001 
Q 1152 3104 1498 3104 
Q 2022 3104 2240 2861 
Q 2458 2618 2458 2118 
L 2458 666 
Q 2458 467 2502 409 
Q 2547 352 2650 352 
Q 2739 352 2812 397 
Q 2886 442 2950 512 
L 3046 410 
Q 2886 179 2742 73 
Q 2598 -32 2355 -32 
Q 2131 -32 2064 96 
Q 1997 224 1965 461 
L 1926 538 
L 1926 1645 
Q 1638 1574 1382 1478 
Q 1126 1382 966 1228 
Q 806 1075 806 826 
Q 806 589 934 448 
Q 1062 307 1267 307 
Q 1434 307 1616 390 
Q 1798 474 1971 627 
L 2022 397 
L 1946 397 
Q 1798 269 1660 166 
Q 1523 64 1366 9 
Q 1210 -45 1005 -45 
z
" transform="scale(0.015625)"/>
       <path id="STIXTwoText-10b" d="M 1664 0 
L 192 0 
L 192 186 
Q 403 186 499 227 
Q 595 269 617 368 
Q 640 467 640 646 
L 640 3859 
Q 640 4058 566 4096 
Q 493 4134 371 4134 
Q 288 4134 227 4128 
Q 166 4122 166 4122 
L 166 4294 
L 1011 4518 
L 1171 4518 
L 1171 646 
Q 1171 461 1200 361 
Q 1229 262 1331 224 
Q 1434 186 1664 186 
L 1664 0 
z
" transform="scale(0.015625)"/>
       <path id="STIXGeneral-Regular-14" d="M 2522 0 
L 755 0 
L 755 96 
Q 1107 115 1235 227 
Q 1363 339 1363 608 
L 1363 3482 
Q 1363 3795 1171 3795 
Q 1082 3795 883 3718 
L 710 3654 
L 710 3744 
L 1856 4326 
L 1914 4307 
L 1914 486 
Q 1914 275 2042 185 
Q 2170 96 2522 96 
L 2522 0 
z
" transform="scale(0.015625)"/>
       <path id="STIXGeneral-Regular-425" d="M 3974 1408 
L 410 1408 
L 410 1830 
L 3974 1830 
L 3974 1408 
z
" transform="scale(0.015625)"/>
       <path id="STIXGeneral-Italic-29" d="M 4128 4179 
L 3923 3194 
L 3789 3206 
Q 3808 3347 3808 3418 
Q 3808 3667 3718 3772 
Q 3629 3878 3373 3923 
Q 3117 3968 2534 3968 
Q 2310 3968 2220 3926 
Q 2131 3885 2099 3763 
L 1690 2310 
Q 2003 2317 2147 2317 
Q 2291 2317 2457 2345 
Q 2624 2374 2678 2396 
Q 2733 2419 2822 2505 
Q 2912 2592 2950 2665 
Q 2989 2739 3072 2912 
L 3187 2880 
L 2701 1376 
L 2592 1408 
Q 2643 1670 2643 1798 
Q 2643 1978 2531 2029 
Q 2419 2080 2163 2080 
Q 1984 2080 1632 2099 
L 1254 736 
Q 1165 416 1165 352 
Q 1165 237 1273 179 
Q 1382 122 1658 102 
L 1658 0 
L 51 0 
L 51 102 
Q 314 122 410 224 
Q 506 326 582 602 
L 1370 3430 
Q 1434 3661 1434 3821 
Q 1434 3955 1347 4003 
Q 1261 4051 947 4077 
L 947 4179 
L 4128 4179 
z
" transform="scale(0.015625)"/>
       <path id="STIXGeneral-Regular-b" d="M 1946 -1030 
L 1869 -1133 
Q 1126 -710 716 32 
Q 307 774 307 1613 
Q 307 3386 1888 4326 
L 1946 4224 
Q 1293 3667 1075 3126 
Q 858 2586 858 1632 
Q 858 685 1082 96 
Q 1306 -493 1946 -1030 
z
" transform="scale(0.015625)"/>
       <path id="STIXGeneral-Regular-c" d="M 186 4224 
L 262 4326 
Q 992 3891 1408 3148 
Q 1824 2406 1824 1581 
Q 1824 -166 243 -1133 
L 186 -1030 
Q 845 -486 1059 54 
Q 1274 595 1274 1562 
Q 1274 2534 1059 3120 
Q 845 3706 186 4224 
z
" transform="scale(0.015625)"/>
      </defs>
      <use xlink:href="#STIXTwoText-112" transform="translate(0 0.40625)"/>
      <use xlink:href="#STIXTwoText-114" transform="translate(39.499969 0.40625)"/>
      <use xlink:href="#STIXTwoText-111" transform="translate(96.499908 0.40625)"/>
      <use xlink:href="#STIXTwoText-115" transform="translate(134.499878 0.40625)"/>
      <use xlink:href="#STIXTwoText-107" transform="translate(182.599838 0.40625)"/>
      <use xlink:href="#STIXTwoText-115" transform="translate(211.099808 0.40625)"/>
      <use xlink:href="#STIXTwoText-ff" transform="translate(259.199768 0.40625)"/>
      <use xlink:href="#STIXTwoText-10b" transform="translate(307.199722 0.40625)"/>
      <use xlink:href="#STIXTwoText-1" transform="translate(335.499695 0.40625)"/>
      <use xlink:href="#STIXTwoText-1" transform="translate(358.99968 0.40625)"/>
      <use xlink:href="#STIXGeneral-Regular-14" transform="translate(382.499664 0.40625)"/>
      <use xlink:href="#STIXGeneral-Regular-425" transform="translate(452.499619 0.40625)"/>
      <use xlink:href="#STIXGeneral-Italic-29" transform="translate(540.999557 0.40625)"/>
      <use xlink:href="#STIXGeneral-Regular-b" transform="translate(602.099503 0.40625)"/>
      <use xlink:href="#STIXGeneral-Regular-254" transform="translate(635.399475 0.40625)"/>
      <use xlink:href="#STIXGeneral-Italic-59" transform="translate(707.599411 0.40625)"/>
      <use xlink:href="#STIXGeneral-Regular-c" transform="translate(751.999374 0.40625)"/>
     </g>
    </g>
   </g>
   <g id="line2d_13">
    <path d="M 52.258206 20.821095 
L 55.054574 20.935317 
L 55.162127 20.961761 
L 55.730619 21.154437 
L 55.838172 21.212349 
L 56.099371 21.362294 
L 56.206924 21.447795 
L 56.3913 21.585749 
L 56.498852 21.694917 
L 56.637134 21.827558 
L 56.744687 21.944858 
L 56.852239 22.072065 
L 56.959792 22.211685 
L 57.067345 22.338108 
L 57.174897 22.505449 
L 57.267085 22.631204 
L 57.374638 22.817601 
L 57.451461 22.940339 
L 57.559014 23.134265 
L 57.635837 23.258795 
L 57.74339 23.487717 
L 57.820213 23.61179 
L 57.927766 23.869616 
L 57.989224 23.990812 
L 58.096777 24.24804 
L 58.158236 24.368778 
L 58.265788 24.640939 
L 58.327247 24.763868 
L 58.434799 25.067593 
L 58.480893 25.187597 
L 58.588446 25.475609 
L 58.63454 25.595152 
L 58.742093 25.907944 
L 58.788187 26.027097 
L 58.895739 26.357443 
L 58.941833 26.476237 
L 59.049386 26.830766 
L 59.09548 26.952161 
L 59.203032 27.335178 
L 59.249126 27.456443 
L 59.356679 27.851479 
L 59.402773 27.972606 
L 59.510326 28.392619 
L 59.55642 28.513672 
L 59.663972 28.950641 
L 59.710066 29.071633 
L 59.817619 29.533029 
L 59.863713 29.65401 
L 59.971265 30.131322 
L 60.001995 30.248924 
L 60.109547 30.684467 
L 60.140277 30.805084 
L 60.247829 31.262524 
L 60.278559 31.382827 
L 60.386111 31.845374 
L 60.416841 31.965286 
L 60.524393 32.451605 
L 60.555123 32.571145 
L 60.662675 33.067426 
L 60.693404 33.186531 
L 60.800957 33.716842 
L 60.831686 33.835571 
L 60.939239 34.369828 
L 60.969968 34.492159 
L 61.077521 35.034491 
L 61.10825 35.156386 
L 61.215803 35.706982 
L 61.246532 35.828341 
L 61.354085 36.39185 
L 61.384814 36.51259 
L 61.492367 37.089613 
L 61.523096 37.214271 
L 61.630649 37.810333 
L 61.661378 37.934387 
L 61.768931 38.55065 
L 61.79966 38.674031 
L 61.907213 39.291394 
L 61.937942 39.413911 
L 62.045495 40.052793 
L 62.076224 40.179655 
L 62.183776 40.830685 
L 62.214506 40.956653 
L 62.322058 41.620228 
L 62.352788 41.745138 
L 62.46034 42.409926 
L 62.49107 42.539434 
L 62.598622 43.235253 
L 62.629352 43.363617 
L 62.736904 44.048572 
L 62.767634 44.175443 
L 62.875186 44.886681 
L 62.905915 45.018515 
L 63.013468 45.723967 
L 63.044197 45.854083 
L 63.15175 46.587426 
L 63.182479 46.722789 
L 63.290032 47.456739 
L 63.320761 47.590163 
L 63.428314 48.338885 
L 63.459043 48.477808 
L 63.566596 49.242007 
L 63.597325 49.378728 
L 63.704878 50.167234 
L 63.735607 50.309872 
L 63.84316 51.080888 
L 63.873889 51.220844 
L 63.981442 52.025205 
L 64.012171 52.171346 
L 64.119724 52.964505 
L 64.150453 53.107504 
L 64.258006 53.926022 
L 64.288735 54.07546 
L 64.396288 54.900523 
L 64.427017 55.04633 
L 64.534569 55.887799 
L 64.565299 56.04035 
L 64.672851 56.876188 
L 64.703581 57.035806 
L 64.811133 57.88748 
L 64.841863 58.042683 
L 64.949415 58.910297 
L 64.980145 59.072945 
L 65.087697 59.917859 
L 65.118427 60.088193 
L 65.225979 60.960312 
L 65.256708 61.125186 
L 65.364261 62.011735 
L 65.39499 62.184746 
L 65.502543 63.055844 
L 65.533272 63.237335 
L 65.640825 64.152216 
L 65.671554 64.343062 
L 65.779107 65.206441 
L 65.809836 65.389977 
L 65.917389 66.296503 
L 65.948118 66.489444 
L 66.055671 67.370173 
L 66.0864 67.572851 
L 66.193953 68.460601 
L 66.224682 68.673672 
L 66.332235 69.567572 
L 66.362964 69.791743 
L 66.470517 70.690743 
L 66.501246 70.905208 
L 66.608799 71.784701 
L 66.639528 72.010204 
L 66.74708 72.888932 
L 66.77781 73.126156 
L 66.885362 74.026922 
L 66.916092 74.276867 
L 67.023644 75.174838 
L 67.069738 75.464832 
L 67.177291 76.413941 
L 67.223385 76.72093 
L 67.330938 77.697948 
L 67.377032 78.023605 
L 67.484584 78.9683 
L 67.530678 79.28194 
L 67.638231 80.283782 
L 67.684325 80.616982 
L 67.791877 81.577837 
L 67.837971 81.931476 
L 67.945524 82.953157 
L 68.006983 83.36794 
L 68.114535 84.380731 
L 68.175994 84.823727 
L 68.283546 85.865151 
L 68.345005 86.339543 
L 68.452558 87.365944 
L 68.529381 87.921178 
L 68.636934 88.928043 
L 68.713757 89.524877 
L 68.82131 90.55722 
L 68.898133 91.200814 
L 69.005685 92.203108 
L 69.097873 92.956613 
L 69.205426 93.982768 
L 69.297614 94.801245 
L 69.405167 95.785277 
L 69.528084 96.815597 
L 69.635637 97.896775 
L 69.773918 99.034094 
L 69.881471 100.069912 
L 70.050482 101.502831 
L 70.158035 102.573876 
L 70.40387 104.684758 
L 70.511422 105.610562 
L 70.895539 108.891503 
L 71.003091 109.890305 
L 73.015862 127.576013 
L 73.876283 134.606278 
L 75.842959 150.801092 
L 76.288534 154.385793 
L 76.810933 158.674054 
L 77.179685 161.180491 
L 78.362763 171.082326 
L 78.992714 175.711566 
L 80.32944 185.248268 
L 81.082308 189.644448 
L 81.819812 195.150102 
L 83.125808 202.521345 
L 84.831285 213.712224 
L 87.566195 237.78 
L 87.566195 237.78 
" clip-path="url(#pb820c9f15c)" style="fill: none; stroke: #1f6f3f; stroke-width: 1.5; stroke-linecap: round"/>
   </g>
   <g id="line2d_14">
    <path d="M 50.29153 20.821095 
L 53.625661 20.935317 
L 54.409259 21.158887 
L 54.516811 21.207889 
L 54.824104 21.364539 
L 54.931657 21.43202 
L 55.146762 21.574408 
L 55.254315 21.665296 
L 55.423326 21.80234 
L 55.530879 21.903386 
L 55.669161 22.034983 
L 55.776713 22.151074 
L 55.899631 22.28183 
L 56.007183 22.420441 
L 56.114736 22.548078 
L 56.222288 22.700321 
L 56.314476 22.824802 
L 56.422029 22.991078 
L 56.514217 23.117228 
L 56.62177 23.30537 
L 56.698593 23.428411 
L 56.806145 23.614278 
L 56.882969 23.739072 
L 56.990521 23.950339 
L 57.067345 24.074525 
L 57.174897 24.30961 
L 57.236356 24.430689 
L 57.343909 24.656594 
L 57.405367 24.779611 
L 57.51292 25.017121 
L 57.574378 25.139517 
L 57.681931 25.399875 
L 57.74339 25.521719 
L 57.850942 25.800433 
L 57.912401 25.921766 
L 58.019954 26.216857 
L 58.081412 26.340525 
L 58.188965 26.652784 
L 58.250424 26.776069 
L 58.357976 27.106316 
L 58.40407 27.226317 
L 58.511623 27.536668 
L 58.557717 27.656063 
L 58.665269 27.981718 
L 58.711363 28.10357 
L 58.818916 28.448407 
L 58.86501 28.569769 
L 58.972563 28.922082 
L 59.018657 29.042916 
L 59.126209 29.412711 
L 59.172303 29.533029 
L 59.279856 29.927857 
L 59.32595 30.051045 
L 59.433502 30.445207 
L 59.479596 30.567929 
L 59.587149 30.971589 
L 59.633243 31.093802 
L 59.740796 31.507362 
L 59.78689 31.62902 
L 59.894442 32.067546 
L 59.940536 32.192365 
L 60.048089 32.627404 
L 60.094183 32.751686 
L 60.201735 33.205802 
L 60.232465 33.325663 
L 60.340017 33.748441 
L 60.386111 33.871316 
L 60.493664 34.349505 
L 60.539758 34.475809 
L 60.64731 34.963349 
L 60.67804 35.084848 
L 60.785592 35.534769 
L 60.816322 35.655176 
L 60.923874 36.103882 
L 60.954604 36.227466 
L 61.062156 36.692695 
L 61.092886 36.815109 
L 61.200438 37.293125 
L 61.231168 37.414276 
L 61.33872 37.881816 
L 61.369449 38.006277 
L 61.477002 38.501491 
L 61.507731 38.624595 
L 61.615284 39.113944 
L 61.646013 39.240547 
L 61.753566 39.73362 
L 61.784295 39.858642 
L 61.891848 40.376685 
L 61.922577 40.500062 
L 62.03013 41.017156 
L 62.060859 41.144204 
L 62.168412 41.665567 
L 62.199141 41.790737 
L 62.306694 42.322062 
L 62.337423 42.45105 
L 62.444976 42.986784 
L 62.475705 43.113696 
L 62.583258 43.653663 
L 62.613987 43.78451 
L 62.72154 44.335072 
L 62.752269 44.463619 
L 62.859822 45.025127 
L 62.890551 45.1578 
L 62.998103 45.723967 
L 63.028833 45.854083 
L 63.136385 46.417627 
L 63.167115 46.551942 
L 63.274667 47.133971 
L 63.305397 47.265438 
L 63.412949 47.859474 
L 63.443679 47.995381 
L 63.551231 48.60204 
L 63.581961 48.734813 
L 63.689513 49.330376 
L 63.720242 49.467651 
L 63.827795 50.067105 
L 63.858524 50.20909 
L 63.966077 50.812241 
L 63.996806 50.950486 
L 64.104359 51.574697 
L 64.135088 51.717854 
L 64.242641 52.336929 
L 64.27337 52.475878 
L 64.380923 53.107504 
L 64.411652 53.251443 
L 64.519205 53.886344 
L 64.549934 54.03551 
L 64.657487 54.673341 
L 64.688216 54.817639 
L 64.795769 55.447055 
L 64.826498 55.596558 
L 64.934051 56.249099 
L 64.96478 56.404196 
L 65.072333 57.035806 
L 65.103062 57.196595 
L 65.210614 57.839945 
L 65.241344 57.994811 
L 65.348896 58.650081 
L 65.379626 58.810802 
L 65.487178 59.465744 
L 65.517908 59.632585 
L 65.62546 60.299669 
L 65.65619 60.473009 
L 65.763742 61.125186 
L 65.794472 61.291309 
L 65.902024 61.954367 
L 65.932754 62.126924 
L 66.040306 62.801277 
L 66.0864 62.995679 
L 66.193953 63.728795 
L 66.240047 63.931643 
L 66.347599 64.664881 
L 66.378329 64.843918 
L 66.485881 65.541296 
L 66.531975 65.744693 
L 66.639528 66.507069 
L 66.670257 66.701882 
L 66.77781 67.388521 
L 66.823904 67.609904 
L 66.931456 68.383632 
L 66.97755 68.615356 
L 67.085103 69.38585 
L 67.131197 69.628482 
L 67.23875 70.351907 
L 67.284844 70.584293 
L 67.392396 71.362537 
L 67.43849 71.605955 
L 67.546043 72.352872 
L 67.592137 72.607613 
L 67.699689 73.341876 
L 67.745783 73.608452 
L 67.853336 74.3272 
L 67.89943 74.606117 
L 68.006983 75.358935 
L 68.068441 75.678175 
L 68.175994 76.441672 
L 68.237453 76.777211 
L 68.345005 77.609966 
L 68.406464 77.964033 
L 68.514016 78.72058 
L 68.56011 79.061921 
L 68.621569 79.408665 
L 68.729122 80.184803 
L 68.79058 80.549935 
L 68.898133 81.29898 
L 68.974956 81.718609 
L 69.082509 82.546081 
L 69.143967 82.953157 
L 69.25152 83.713248 
L 69.328343 84.182292 
L 69.435896 84.987064 
L 69.512719 85.48451 
L 69.620272 86.252522 
L 69.71246 86.824435 
L 69.820012 87.595584 
L 69.9122 88.204163 
L 70.019753 89.026393 
L 70.14267 89.778438 
L 70.250223 90.610137 
L 70.357776 91.364711 
L 70.465328 92.146206 
L 70.588245 93.015662 
L 70.695798 93.73696 
L 70.864809 94.865489 
L 70.972362 95.651491 
L 71.141373 96.815597 
L 71.248926 97.676229 
L 71.510125 99.426711 
L 71.617678 100.233706 
L 71.894242 102.301166 
L 72.001794 103.129697 
L 72.601016 107.473816 
L 75.074726 125.139345 
L 75.504937 128.156377 
L 77.010673 138.482376 
L 77.579166 142.05661 
L 81.266684 164.011189 
L 81.881271 167.26269 
L 82.557316 171.082326 
L 83.586748 175.711566 
L 84.769827 181.588541 
L 85.553424 185.248268 
L 88.01177 195.150102 
L 90.101364 202.521345 
L 93.589141 213.712224 
L 102.516009 237.78 
L 102.516009 237.78 
" clip-path="url(#pb820c9f15c)" style="fill: none; stroke: #4878cf; stroke-width: 1.5; stroke-linecap: round"/>
   </g>
   <g id="line2d_15">
    <path d="M 48.094383 20.821084 
L 51.18268 20.936341 
L 51.889454 21.148866 
L 52.227477 21.307961 
L 52.335029 21.381267 
L 52.550135 21.52414 
L 52.657687 21.609413 
L 52.826699 21.744735 
L 52.934251 21.851324 
L 53.072533 21.983579 
L 53.180086 22.102834 
L 53.303003 22.231994 
L 53.410556 22.371229 
L 53.518108 22.499643 
L 53.625661 22.654741 
L 53.717849 22.780089 
L 53.825401 22.94197 
L 53.917589 23.066574 
L 54.025142 23.254818 
L 54.11733 23.38122 
L 54.224883 23.586959 
L 54.301706 23.710347 
L 54.409259 23.924213 
L 54.486082 24.047007 
L 54.593634 24.276896 
L 54.655093 24.399135 
L 54.762646 24.622446 
L 54.824104 24.74404 
L 54.931657 24.984023 
L 54.993116 25.105008 
L 55.100668 25.357004 
L 55.162127 25.480072 
L 55.269679 25.744589 
L 55.331138 25.86713 
L 55.438691 26.155751 
L 55.500149 26.277837 
L 55.607702 26.58324 
L 55.669161 26.704902 
L 55.776713 27.019238 
L 55.838172 27.143351 
L 55.945725 27.467026 
L 55.991819 27.587802 
L 56.099371 27.885199 
L 56.145465 28.005298 
L 56.253018 28.314563 
L 56.299112 28.433975 
L 56.406664 28.758741 
L 56.452758 28.880606 
L 56.560311 29.215294 
L 56.606405 29.336533 
L 56.713958 29.688065 
L 56.760052 29.808687 
L 56.867604 30.174588 
L 56.913698 30.297926 
L 57.021251 30.655167 
L 57.067345 30.777831 
L 57.174897 31.153475 
L 57.220991 31.275474 
L 57.328544 31.656267 
L 57.374638 31.77753 
L 57.482191 32.178155 
L 57.528284 32.302349 
L 57.635837 32.701584 
L 57.681931 32.825038 
L 57.789484 33.230182 
L 57.835578 33.352817 
L 57.94313 33.779687 
L 57.989224 33.905445 
L 58.096777 34.33127 
L 58.142871 34.456203 
L 58.250424 34.892978 
L 58.296517 35.017018 
L 58.40407 35.465235 
L 58.450164 35.592567 
L 58.557717 36.048496 
L 58.603811 36.174902 
L 58.711363 36.638779 
L 58.757457 36.764157 
L 58.86501 37.231642 
L 58.911104 37.360469 
L 59.018657 37.831565 
L 59.06475 37.959236 
L 59.172303 38.453229 
L 59.203032 38.57483 
L 59.310585 39.018265 
L 59.341314 39.143052 
L 59.448867 39.598261 
L 59.479596 39.721265 
L 59.587149 40.178281 
L 59.633243 40.309874 
L 59.740796 40.811858 
L 59.771525 40.936455 
L 59.879077 41.403173 
L 59.909807 41.531189 
L 60.017359 42.005187 
L 60.048089 42.131043 
L 60.155641 42.600754 
L 60.186371 42.730089 
L 60.293923 43.206939 
L 60.324653 43.333851 
L 60.432205 43.817979 
L 60.462935 43.948492 
L 60.570487 44.433803 
L 60.601216 44.561637 
L 60.708769 45.054324 
L 60.739498 45.185841 
L 60.847051 45.686185 
L 60.87778 45.814774 
L 60.985333 46.315969 
L 61.016062 46.448319 
L 61.123615 46.964394 
L 61.154344 47.100733 
L 61.261897 47.617854 
L 61.292626 47.750918 
L 61.400179 48.283808 
L 61.430908 48.420992 
L 61.538461 48.947136 
L 61.56919 49.08067 
L 61.676743 49.606952 
L 61.707472 49.744583 
L 61.815025 50.278937 
L 61.845754 50.420868 
L 61.953307 50.955015 
L 61.984036 51.092771 
L 62.091589 51.652624 
L 62.137682 51.803772 
L 62.245235 52.400668 
L 62.275964 52.547853 
L 62.383517 53.099306 
L 62.414246 53.241747 
L 62.521799 53.81118 
L 62.552528 53.958342 
L 62.660081 54.52675 
L 62.69081 54.678816 
L 62.798363 55.256039 
L 62.829092 55.402752 
L 62.936645 55.978035 
L 62.967374 56.129682 
L 63.074927 56.691159 
L 63.121021 56.859076 
L 63.228573 57.486023 
L 63.259303 57.636869 
L 63.366855 58.238889 
L 63.397585 58.395028 
L 63.505137 58.993763 
L 63.551231 59.167879 
L 63.658784 59.82699 
L 63.689513 59.994913 
L 63.797066 60.599657 
L 63.827795 60.760201 
L 63.935348 61.359137 
L 63.981442 61.539275 
L 64.088994 62.203187 
L 64.135088 62.390431 
L 64.242641 63.051228 
L 64.288735 63.245896 
L 64.396288 63.933424 
L 64.442381 64.136128 
L 64.549934 64.804137 
L 64.580663 64.982511 
L 64.688216 65.626894 
L 64.73431 65.82904 
L 64.841863 66.499202 
L 64.887957 66.709599 
L 64.995509 67.407689 
L 65.041603 67.62704 
L 65.149156 68.317536 
L 65.19525 68.546236 
L 65.302802 69.227251 
L 65.348896 69.465701 
L 65.456449 70.155756 
L 65.502543 70.383745 
L 65.610096 71.060803 
L 65.65619 71.29846 
L 65.763742 71.982433 
L 65.809836 72.23036 
L 65.917389 72.944545 
L 65.963483 73.203669 
L 66.071035 73.901877 
L 66.132494 74.197428 
L 66.240047 74.954237 
L 66.301505 75.264436 
L 66.409058 76.005785 
L 66.470517 76.331351 
L 66.578069 77.08206 
L 66.639528 77.424148 
L 66.74708 78.154463 
L 66.808539 78.513855 
L 66.916092 79.219617 
L 66.97755 79.565366 
L 67.085103 80.306423 
L 67.146562 80.669904 
L 67.254114 81.415472 
L 67.330938 81.833101 
L 67.43849 82.656516 
L 67.530678 83.135991 
L 67.638231 83.933403 
L 67.715054 84.402447 
L 67.822607 85.16627 
L 67.914795 85.704665 
L 68.022347 86.472677 
L 68.099171 87.000063 
L 68.206723 87.769618 
L 68.298911 88.3769 
L 68.406464 89.148198 
L 68.514016 89.846105 
L 68.621569 90.619389 
L 68.744486 91.42097 
L 68.852039 92.196535 
L 69.005685 93.176768 
L 69.113238 93.957115 
L 69.236155 94.893473 
L 69.343708 95.672486 
L 69.528084 96.895544 
L 69.635637 97.750577 
L 69.850742 99.25425 
L 69.958294 100.046648 
L 70.280952 102.251964 
L 70.388505 103.070179 
L 70.849445 106.470395 
L 70.956997 107.353434 
L 74.22967 132.224191 
L 81.727624 189.864603 
L 83.663571 202.7415 
L 85.753165 213.932379 
L 88.795368 238.000155 
L 88.795368 238.000155 
" clip-path="url(#pb820c9f15c)" style="fill: none; stroke: #6a51a3; stroke-width: 1.5; stroke-linecap: round"/>
   </g>
   <g id="line2d_16">
    <path d="M 66.470517 20.821095 
L 71.29502 20.937519 
L 73.246332 21.328635 
L 73.353884 21.364539 
L 73.876283 21.551745 
L 73.983835 21.597095 
L 74.352587 21.763424 
L 74.46014 21.820677 
L 74.767433 21.977168 
L 74.874986 22.044248 
L 75.136185 22.19535 
L 75.243737 22.270124 
L 75.474207 22.415728 
L 75.58176 22.495988 
L 75.796865 22.640725 
L 75.904418 22.728984 
L 76.088794 22.868057 
L 76.196346 22.959654 
L 76.380722 23.100204 
L 76.488275 23.200104 
L 76.657286 23.337294 
L 76.764839 23.443222 
L 76.918485 23.579463 
L 77.026038 23.689069 
L 77.179685 23.824339 
L 77.287237 23.942758 
L 77.425519 24.077067 
L 77.533072 24.196863 
L 77.671354 24.330172 
L 77.778906 24.45395 
L 77.917188 24.588838 
L 78.024741 24.724561 
L 78.147658 24.855861 
L 78.255211 24.990603 
L 78.378128 25.123513 
L 78.485681 25.2626 
L 78.593233 25.391776 
L 78.700786 25.52715 
L 78.808339 25.6579 
L 78.915891 25.794933 
L 79.023444 25.924531 
L 79.130996 26.066031 
L 79.238549 26.197247 
L 79.346102 26.348982 
L 79.453654 26.479073 
L 79.561207 26.63278 
L 79.66876 26.764572 
L 79.776312 26.923196 
L 79.883865 27.05384 
L 79.991417 27.220448 
L 80.09897 27.352882 
L 80.206523 27.521789 
L 80.314075 27.65307 
L 80.421628 27.83035 
L 80.513816 27.960463 
L 80.621368 28.121907 
L 80.713556 28.250693 
L 80.821109 28.417396 
L 80.913297 28.547936 
L 81.02085 28.716925 
L 81.113038 28.846108 
L 81.22059 29.017422 
L 81.312778 29.148394 
L 81.420331 29.322098 
L 81.512519 29.45491 
L 81.620071 29.637622 
L 81.712259 29.769071 
L 81.819812 29.957758 
L 81.912 30.091147 
L 82.019552 30.282641 
L 82.11174 30.414634 
L 82.219293 30.612414 
L 82.311481 30.746416 
L 82.419034 30.94375 
L 82.511222 31.076301 
L 82.618774 31.276643 
L 82.710962 31.41123 
L 82.818515 31.618259 
L 82.895338 31.74775 
L 83.002891 31.932517 
L 83.095079 32.067546 
L 83.202631 32.277206 
L 83.279455 32.406946 
L 83.387007 32.601132 
L 83.463831 32.73281 
L 83.571383 32.926112 
L 83.648206 33.055935 
L 83.755759 33.255986 
L 83.832582 33.387784 
L 83.940135 33.586979 
L 84.016958 33.72079 
L 84.124511 33.919066 
L 84.201334 34.050919 
L 84.308887 34.25222 
L 84.38571 34.386099 
L 84.493263 34.594626 
L 84.570086 34.726487 
L 84.677639 34.942469 
L 84.754462 35.076447 
L 84.862015 35.287442 
L 84.938838 35.423553 
L 85.046391 35.637934 
L 85.123214 35.771912 
L 85.230766 35.994125 
L 85.30759 36.130306 
L 85.415142 36.34285 
L 85.491966 36.476746 
L 85.599518 36.697217 
L 85.676342 36.833302 
L 85.783894 37.05741 
L 85.860717 37.195758 
L 85.96827 37.41895 
L 86.045093 37.554904 
L 86.152646 37.777053 
L 86.229469 37.915256 
L 86.337022 38.141107 
L 86.413845 38.281633 
L 86.521398 38.516227 
L 86.598221 38.654243 
L 86.705774 38.877891 
L 86.782597 39.018212 
L 86.89015 39.255789 
L 86.966973 39.393444 
L 87.074526 39.64032 
L 87.151349 39.78042 
L 87.258902 40.01593 
L 87.335725 40.15846 
L 87.443277 40.392738 
L 87.520101 40.532362 
L 87.627653 40.776142 
L 87.704477 40.918238 
L 87.812029 41.166375 
L 87.888853 41.311034 
L 87.996405 41.552394 
L 88.073229 41.693952 
L 88.180781 41.945338 
L 88.257604 42.089466 
L 88.365157 42.322062 
L 88.44198 42.468699 
L 88.549533 42.717279 
L 88.626356 42.860602 
L 88.733909 43.107636 
L 88.810732 43.253544 
L 88.918285 43.511246 
L 88.995108 43.659876 
L 89.102661 43.903572 
L 89.179484 44.054898 
L 89.287037 44.303053 
L 89.36386 44.45073 
L 89.471413 44.709954 
L 89.548236 44.860409 
L 89.655789 45.104634 
L 89.732612 45.257834 
L 89.840164 45.499796 
L 89.916988 45.648988 
L 90.02454 45.902216 
L 90.101364 46.054184 
L 90.208916 46.312168 
L 90.28574 46.467016 
L 90.393292 46.715644 
L 90.470115 46.873381 
L 90.577668 47.119413 
L 90.654491 47.272765 
L 90.762044 47.538179 
L 90.838867 47.694502 
L 90.94642 47.949985 
L 91.023243 48.109285 
L 91.130796 48.361978 
L 91.207619 48.524313 
L 91.315172 48.781867 
L 91.391995 48.939446 
L 91.499548 49.209961 
L 91.576371 49.370662 
L 91.683924 49.638423 
L 91.760747 49.802309 
L 91.8683 50.050461 
L 91.945123 50.217471 
L 92.052675 50.470398 
L 92.129499 50.632109 
L 92.237051 50.889897 
L 92.313875 51.054745 
L 92.421427 51.317585 
L 92.498251 51.485696 
L 92.605803 51.735815 
L 92.682627 51.907179 
L 92.790179 52.162184 
L 92.867002 52.336929 
L 92.974555 52.606363 
L 93.051378 52.775279 
L 93.158931 53.050192 
L 93.235754 53.222579 
L 93.343307 53.493463 
L 93.435495 53.679203 
L 93.543047 53.975722 
L 93.635235 54.165614 
L 93.742788 54.438324 
L 93.834976 54.632287 
L 93.942529 54.931686 
L 94.019352 55.109117 
L 94.126905 55.383293 
L 94.203728 55.564436 
L 94.31128 55.855247 
L 94.403468 56.051288 
L 94.511021 56.337591 
L 94.603209 56.538017 
L 94.710762 56.842135 
L 94.80295 57.047252 
L 94.910502 57.346963 
L 95.00269 57.545169 
L 95.110243 57.828078 
L 95.202431 58.030705 
L 95.309983 58.319996 
L 95.402171 58.527247 
L 95.509724 58.823214 
L 95.601912 59.035304 
L 95.709465 59.312856 
L 95.817017 59.54259 
L 95.92457 59.839688 
L 96.016758 60.061901 
L 96.12431 60.339549 
L 96.216498 60.553477 
L 96.324051 60.851082 
L 96.416239 61.07009 
L 96.523792 61.360901 
L 96.631344 61.59918 
L 96.738897 61.911439 
L 96.831085 62.141365 
L 96.938637 62.432208 
L 97.04619 62.682497 
L 97.153743 62.980664 
L 97.261295 63.237335 
L 97.368848 63.558609 
L 97.4764 63.822184 
L 97.583953 64.136387 
L 97.691506 64.391035 
L 97.799058 64.697325 
L 97.906611 64.958617 
L 98.014164 65.273004 
L 98.121716 65.541296 
L 98.229269 65.847104 
L 98.352186 66.139897 
L 98.459739 66.436655 
L 98.582656 66.737489 
L 98.690209 67.060587 
L 98.797761 67.351841 
L 98.905314 67.6656 
L 99.043596 68.002789 
L 99.151148 68.326081 
L 99.28943 68.673672 
L 99.396983 68.987341 
L 99.55063 69.365752 
L 99.658182 69.689563 
L 99.796464 70.038938 
L 99.904017 70.351907 
L 100.042299 70.712095 
L 100.149851 71.013233 
L 100.303498 71.406594 
L 100.41105 71.695146 
L 100.580062 72.123832 
L 100.687614 72.422053 
L 100.856626 72.86535 
L 100.964178 73.173911 
L 101.148554 73.657271 
L 101.256107 73.977273 
L 101.455847 74.504281 
L 101.5634 74.811221 
L 101.79387 75.41182 
L 101.901422 75.731837 
L 102.131892 76.358585 
L 102.393092 77.032281 
L 102.500644 77.348121 
L 102.823302 78.173246 
L 102.930855 78.5061 
L 103.284242 79.440461 
L 103.391795 79.760985 
L 103.83737 80.955327 
L 103.944922 81.264371 
L 104.421227 82.582777 
L 104.528779 82.878578 
L 105.312377 85.069191 
L 109.399377 95.718282 
L 110.321256 97.970787 
L 110.520997 98.49599 
L 110.812925 99.190298 
L 115.791075 111.617239 
L 116.636131 113.795267 
L 123.965074 132.357389 
L 134.028927 158.674054 
L 135.841956 164.011189 
L 137.670351 169.089367 
L 138.976347 173.274897 
L 139.882862 175.711566 
L 140.727918 178.453569 
L 141.818809 181.588541 
L 146.044091 195.150102 
L 147.85712 202.521345 
L 151.206616 213.712224 
L 155.877473 237.78 
L 155.877473 237.78 
" clip-path="url(#pb820c9f15c)" style="fill: none; stroke: #d1701f; stroke-width: 1.5; stroke-linecap: round"/>
   </g>
   <g id="line2d_17">
    <path d="M 61.33872 20.821085 
L 67.223385 20.936353 
L 69.48199 21.367975 
L 69.589543 21.405816 
L 70.111941 21.593758 
L 70.219494 21.640996 
L 70.60361 21.808273 
L 70.711163 21.8628 
L 71.033821 22.022617 
L 71.141373 22.086872 
L 71.417937 22.23908 
L 71.52549 22.310938 
L 71.771324 22.46004 
L 71.878877 22.539665 
L 72.093982 22.683251 
L 72.201535 22.766064 
L 72.401275 22.908761 
L 72.508828 22.994827 
L 72.693204 23.134205 
L 72.800757 23.230846 
L 72.969768 23.369301 
L 73.07732 23.464541 
L 73.246332 23.602023 
L 73.353884 23.713128 
L 73.507531 23.849693 
L 73.615083 23.954555 
L 73.76873 24.09012 
L 73.876283 24.206266 
L 74.014565 24.340855 
L 74.122117 24.455781 
L 74.260399 24.58934 
L 74.367952 24.710761 
L 74.490869 24.843282 
L 74.598422 24.963502 
L 74.721339 25.094929 
L 74.828892 25.227149 
L 74.951809 25.360171 
L 75.059362 25.496692 
L 75.182279 25.628664 
L 75.289831 25.775031 
L 75.397384 25.90596 
L 75.504937 26.040429 
L 75.627854 26.17296 
L 75.735407 26.325809 
L 75.842959 26.457277 
L 75.950512 26.600831 
L 76.058064 26.731123 
L 76.165617 26.88507 
L 76.27317 27.017069 
L 76.380722 27.173046 
L 76.47291 27.300964 
L 76.580463 27.456046 
L 76.688015 27.588587 
L 76.795568 27.763586 
L 76.887756 27.892015 
L 76.995309 28.057389 
L 77.087497 28.187556 
L 77.195049 28.352126 
L 77.287237 28.480984 
L 77.39479 28.657085 
L 77.486978 28.787755 
L 77.59453 28.972642 
L 77.686718 29.102049 
L 77.794271 29.289619 
L 77.886459 29.420916 
L 77.994012 29.614489 
L 78.0862 29.744494 
L 78.193752 29.944249 
L 78.28594 30.076232 
L 78.393493 30.27237 
L 78.470316 30.399632 
L 78.577869 30.588534 
L 78.670057 30.72106 
L 78.777609 30.929964 
L 78.854433 31.057655 
L 78.961985 31.255835 
L 79.038808 31.385444 
L 79.146361 31.590171 
L 79.223184 31.72178 
L 79.330737 31.926088 
L 79.40756 32.056114 
L 79.515113 32.259922 
L 79.591936 32.391951 
L 79.699489 32.60635 
L 79.776312 32.736752 
L 79.883865 32.95457 
L 79.960688 33.087068 
L 80.068241 33.304579 
L 80.145064 33.435359 
L 80.252617 33.664169 
L 80.32944 33.79712 
L 80.436993 34.025797 
L 80.513816 34.156979 
L 80.621368 34.389464 
L 80.698192 34.522849 
L 80.805744 34.755172 
L 80.882568 34.886686 
L 80.99012 35.131256 
L 81.066944 35.265055 
L 81.174496 35.501188 
L 81.251319 35.637273 
L 81.358872 35.881788 
L 81.435695 36.015924 
L 81.543248 36.269116 
L 81.620071 36.405653 
L 81.727624 36.663416 
L 81.804447 36.797942 
L 81.912 37.046739 
L 81.988823 37.183646 
L 82.096376 37.441519 
L 82.157834 37.571603 
L 82.265387 37.801125 
L 82.34221 37.938106 
L 82.449763 38.20507 
L 82.526586 38.344608 
L 82.634139 38.60683 
L 82.695598 38.739128 
L 82.80315 38.981283 
L 82.864609 39.115868 
L 82.972161 39.352137 
L 83.03362 39.489027 
L 83.141173 39.729378 
L 83.202631 39.863479 
L 83.310184 40.107996 
L 83.371643 40.244442 
L 83.479195 40.493272 
L 83.540654 40.632147 
L 83.602112 40.766516 
L 83.709665 41.021383 
L 83.771124 41.158168 
L 83.878676 41.406554 
L 83.9555 41.55136 
L 84.063052 41.826894 
L 84.124511 41.963124 
L 84.232064 42.209342 
L 84.293522 42.347979 
L 84.401075 42.592724 
L 84.462533 42.733817 
L 84.570086 42.988902 
L 84.646909 43.132577 
L 84.754462 43.410617 
L 84.831285 43.557095 
L 84.938838 43.84061 
L 85.015661 43.990001 
L 85.123214 44.266558 
L 85.200037 44.412523 
L 85.30759 44.700952 
L 85.384413 44.849851 
L 85.491966 45.137551 
L 85.553424 45.282831 
L 85.660977 45.53606 
L 85.7378 45.690765 
L 85.845353 45.976119 
L 85.922176 46.127087 
L 86.029729 46.411244 
L 86.106552 46.565251 
L 86.214105 46.848068 
L 86.290928 47.005188 
L 86.398481 47.27926 
L 86.459939 47.424897 
L 86.567492 47.68951 
L 86.644315 47.845356 
L 86.751868 48.122669 
L 86.828691 48.281639 
L 86.936244 48.564566 
L 87.013067 48.726787 
L 87.12062 49.007705 
L 87.197443 49.165342 
L 87.304996 49.443965 
L 87.366454 49.596714 
L 87.474007 49.848247 
L 87.55083 50.012072 
L 87.658383 50.285091 
L 87.735206 50.452229 
L 87.842759 50.72233 
L 87.919582 50.884292 
L 88.027135 51.159807 
L 88.103958 51.325048 
L 88.21151 51.606198 
L 88.288334 51.774854 
L 88.395886 52.052848 
L 88.47271 52.224992 
L 88.580262 52.490373 
L 88.657086 52.656725 
L 88.764638 52.946213 
L 88.841462 53.116076 
L 88.949014 53.382952 
L 89.025837 53.556249 
L 89.13339 53.818791 
L 89.225578 54.005447 
L 89.333131 54.293446 
L 89.425319 54.484208 
L 89.532871 54.768395 
L 89.609695 54.942753 
L 89.717247 55.201709 
L 89.79407 55.379564 
L 89.901623 55.643767 
L 89.993811 55.835985 
L 90.101364 56.138385 
L 90.193552 56.335013 
L 90.301104 56.622183 
L 90.393292 56.823221 
L 90.500845 57.094174 
L 90.593033 57.299611 
L 90.700585 57.576559 
L 90.792773 57.774871 
L 90.900326 58.057932 
L 90.992514 58.260669 
L 91.100067 58.525852 
L 91.192254 58.732987 
L 91.299807 59.016383 
L 91.40736 59.240757 
L 91.514912 59.530842 
L 91.622465 59.760576 
L 91.730018 60.057674 
L 91.83757 60.293029 
L 91.945123 60.557535 
L 92.037311 60.771464 
L 92.144863 61.041846 
L 92.252416 61.274324 
L 92.359969 61.537106 
L 92.467521 61.774928 
L 92.575074 62.029586 
L 92.682627 62.272846 
L 92.790179 62.547959 
L 92.913096 62.811819 
L 93.020649 63.093829 
L 93.143566 63.364388 
L 93.251119 63.638329 
L 93.389401 63.931255 
L 93.496953 64.196708 
L 93.619871 64.481327 
L 93.727423 64.753572 
L 93.850341 65.029243 
L 93.957893 65.291905 
L 94.080811 65.574479 
L 94.188363 65.826871 
L 94.326645 66.133632 
L 94.434198 66.409961 
L 94.587844 66.742694 
L 94.695397 67.026864 
L 94.879773 67.40552 
L 94.987326 67.680053 
L 95.140972 68.032808 
L 95.248525 68.296416 
L 95.417536 68.678587 
L 95.525089 68.969656 
L 95.709465 69.38376 
L 95.817017 69.664243 
L 95.986028 70.050735 
L 96.093581 70.319162 
L 96.293322 70.759843 
L 96.400874 71.058634 
L 96.631344 71.558528 
L 96.738897 71.823942 
L 96.954002 72.319046 
L 97.061555 72.593894 
L 97.307389 73.154158 
L 97.414942 73.439756 
L 97.660776 74.02237 
L 97.768329 74.294669 
L 98.090987 75.029207 
L 98.198539 75.314397 
L 98.551927 76.111602 
L 98.659479 76.383916 
L 99.074325 77.335955 
L 99.181878 77.624025 
L 99.735005 78.877072 
L 99.842558 79.155167 
L 100.472509 80.667735 
L 100.580062 80.96968 
L 101.886058 84.086469 
L 101.99361 84.360806 
L 103.944922 89.097019 
L 104.190757 89.692501 
L 104.651697 90.828123 
L 104.912896 91.473297 
L 105.297012 92.478145 
L 105.773317 93.591329 
L 106.049881 94.26264 
L 106.54155 95.472951 
L 106.818114 96.205487 
L 107.801452 98.638172 
L 111.458241 107.921804 
L 111.811628 108.866745 
L 114.054869 114.476103 
L 114.730914 116.093623 
L 115.57597 118.20682 
L 117.050977 122.03526 
L 117.711658 123.633385 
L 118.249421 124.850778 
L 119.017654 126.677455 
L 120.492661 130.213829 
L 121.091883 131.531967 
L 121.952304 133.299654 
L 123.381217 136.462967 
L 126.484878 143.4129 
L 127.591134 145.88396 
L 128.743483 147.939288 
L 130.418231 151.019078 
L 134.812524 158.89204 
L 137.47061 162.768138 
L 140.451354 167.480677 
L 146.53576 175.929552 
L 154.632936 185.466254 
L 159.257698 189.862434 
L 165.818408 195.368088 
L 183.165109 202.739331 
L 278.210896 213.93021 
L 486.755425 237.997986 
L 486.755425 237.997986 
" clip-path="url(#pb820c9f15c)" style="fill: none; stroke: #c44e52; stroke-width: 1.5; stroke-linecap: round"/>
   </g>
   <g id="line2d_18">
    <path d="M 46.435 86.448807 
L 508.688478 86.448807 
" clip-path="url(#pb820c9f15c)" style="fill: none; stroke-dasharray: 0.7,1.155; stroke-dashoffset: 0; stroke: #999999; stroke-width: 0.7"/>
   </g>
   <g id="line2d_19">
    <path d="M 46.435 172.151193 
L 508.688478 172.151193 
" clip-path="url(#pb820c9f15c)" style="fill: none; stroke-dasharray: 0.7,1.155; stroke-dashoffset: 0; stroke: #999999; stroke-width: 0.7"/>
   </g>
   <g id="patch_3">
    <path d="M 46.435 237.78 
L 46.435 20.82 
" style="fill: none; stroke: #bbbbbb; stroke-width: 0.8; stroke-linejoin: miter; stroke-linecap: square"/>
   </g>
   <g id="patch_4">
    <path d="M 508.688478 237.78 
L 508.688478 20.82 
" style="fill: none; stroke: #bbbbbb; stroke-width: 0.8; stroke-linejoin: miter; stroke-linecap: square"/>
   </g>
   <g id="patch_5">
    <path d="M 46.435 237.78 
L 508.688478 237.78 
" style="fill: none; stroke: #bbbbbb; stroke-width: 0.8; stroke-linejoin: miter; stroke-linecap: square"/>
   </g>
   <g id="patch_6">
    <path d="M 46.435 20.82 
L 508.688478 20.82 
" style="fill: none; stroke: #bbbbbb; stroke-width: 0.8; stroke-linejoin: miter; stroke-linecap: square"/>
   </g>
   <g id="text_15">
    <!-- CVaR$_{95}$ depth -->
    <g style="fill: #666666" transform="translate(325.612434 84.663807) scale(0.075 -0.075)">
     <defs>
      <path id="STIXTwoText-5" d="M 2330 -70 
Q 1670 -70 1222 211 
Q 774 493 547 985 
Q 320 1478 320 2099 
Q 320 2797 589 3283 
Q 858 3770 1331 4026 
Q 1805 4282 2419 4282 
Q 2758 4282 2963 4224 
Q 3168 4166 3289 4108 
Q 3411 4051 3488 4051 
Q 3565 4051 3606 4118 
Q 3648 4186 3706 4282 
L 3898 4282 
L 3898 2816 
L 3680 2816 
Q 3578 3443 3248 3724 
Q 2918 4006 2426 4006 
Q 1734 4006 1360 3513 
Q 986 3021 986 2163 
Q 986 1523 1181 1120 
Q 1376 717 1721 525 
Q 2067 333 2515 333 
Q 2957 333 3289 496 
Q 3622 659 3891 954 
L 4045 819 
Q 3872 563 3632 361 
Q 3392 160 3072 45 
Q 2752 -70 2330 -70 
z
" transform="scale(0.015625)"/>
      <path id="STIXTwoText-18" d="M 2330 -32 
L 2074 -32 
L 608 3430 
Q 518 3648 428 3773 
Q 339 3898 224 3955 
Q 109 4013 -64 4013 
L -64 4205 
L 1651 4205 
L 1651 4013 
Q 1568 4013 1465 4000 
Q 1363 3987 1289 3939 
Q 1216 3891 1216 3770 
Q 1216 3642 1325 3379 
L 2099 1478 
L 2349 806 
L 2381 806 
L 2605 1446 
L 3411 3482 
Q 3443 3552 3462 3632 
Q 3482 3712 3482 3795 
Q 3482 3923 3379 3968 
Q 3277 4013 3053 4013 
L 3053 4205 
L 4397 4205 
L 4397 4013 
Q 4262 4013 4169 3984 
Q 4077 3955 4003 3868 
Q 3930 3782 3846 3616 
Q 3763 3450 3648 3181 
L 2330 -32 
z
" transform="scale(0.015625)"/>
      <path id="STIXTwoText-14" d="M 2074 0 
L 275 0 
L 275 192 
Q 518 192 640 230 
Q 762 269 803 397 
Q 845 525 845 794 
L 845 3539 
Q 845 3718 809 3820 
Q 774 3923 652 3968 
Q 531 4013 275 4013 
L 275 4205 
L 1850 4205 
Q 2330 4205 2704 4112 
Q 3078 4019 3289 3792 
Q 3501 3565 3501 3155 
Q 3501 2797 3337 2573 
Q 3174 2349 2928 2224 
Q 2682 2099 2419 2035 
L 2419 2010 
Q 2528 1946 2665 1789 
Q 2803 1632 3020 1328 
Q 3238 1024 3590 518 
Q 3744 307 3888 249 
Q 4032 192 4250 192 
L 4250 0 
L 3194 0 
Q 2931 397 2755 662 
Q 2579 928 2457 1110 
Q 2336 1293 2240 1433 
Q 2144 1574 2048 1715 
Q 1952 1862 1872 1894 
Q 1792 1926 1619 1926 
L 1440 1926 
L 1440 794 
Q 1440 531 1485 400 
Q 1530 269 1664 230 
Q 1798 192 2074 192 
L 2074 0 
z
M 1440 2176 
L 1683 2170 
Q 2035 2189 2297 2285 
Q 2560 2381 2707 2585 
Q 2854 2790 2854 3130 
Q 2854 3514 2617 3734 
Q 2381 3955 1862 3955 
Q 1760 3955 1651 3952 
Q 1542 3949 1440 3936 
L 1440 2176 
z
" transform="scale(0.015625)"/>
      <path id="STIXGeneral-Regular-1c" d="M 378 -141 
L 358 -13 
Q 1094 115 1603 608 
Q 2112 1101 2304 1882 
Q 1933 1517 1344 1517 
Q 826 1517 509 1875 
Q 192 2234 192 2816 
Q 192 3462 573 3894 
Q 954 4326 1523 4326 
Q 2131 4326 2528 3840 
Q 2938 3328 2938 2522 
Q 2938 1958 2742 1462 
Q 2547 966 2170 621 
Q 1773 262 1395 105 
Q 1018 -51 378 -141 
z
M 2317 2272 
L 2317 2522 
Q 2317 4147 1472 4147 
Q 1171 4147 1005 3930 
Q 909 3802 845 3546 
Q 781 3290 781 3034 
Q 781 2464 995 2128 
Q 1210 1792 1568 1792 
Q 1824 1792 2070 1917 
Q 2317 2042 2317 2272 
z
" transform="scale(0.015625)"/>
      <path id="STIXGeneral-Regular-18" d="M 2803 4358 
L 2573 3814 
Q 2534 3731 2400 3731 
L 1158 3731 
L 902 3187 
Q 1606 3053 1920 2896 
Q 2234 2739 2502 2368 
Q 2726 2061 2726 1555 
Q 2726 1094 2576 780 
Q 2426 467 2099 224 
Q 1664 -90 1011 -90 
Q 646 -90 422 19 
Q 198 128 198 307 
Q 198 550 486 550 
Q 717 550 960 352 
Q 1210 147 1414 147 
Q 1747 147 2012 480 
Q 2278 813 2278 1229 
Q 2278 1843 1850 2189 
Q 1293 2637 486 2637 
Q 410 2637 410 2688 
L 416 2720 
L 1114 4237 
L 2438 4237 
Q 2547 4237 2608 4269 
Q 2669 4301 2746 4403 
L 2803 4358 
z
" transform="scale(0.015625)"/>
      <path id="STIXTwoText-102" d="M 1306 -51 
Q 947 -51 700 141 
Q 454 333 332 662 
Q 211 992 211 1402 
Q 211 1933 409 2313 
Q 608 2694 944 2899 
Q 1280 3104 1683 3104 
Q 1837 3104 1987 3065 
Q 2138 3027 2278 2950 
L 2304 2950 
L 2304 3789 
Q 2304 4000 2256 4064 
Q 2208 4128 2022 4128 
Q 1978 4128 1917 4121 
Q 1856 4115 1856 4115 
L 1856 4294 
L 2662 4518 
L 2835 4518 
L 2835 685 
Q 2835 435 2905 361 
Q 2976 288 3155 288 
L 3290 288 
L 3290 115 
L 2470 -32 
L 2323 -32 
L 2323 410 
L 2298 410 
Q 2118 250 1872 99 
Q 1626 -51 1306 -51 
z
M 1606 410 
Q 1830 410 1984 470 
Q 2138 531 2304 646 
L 2304 2336 
Q 2266 2534 2118 2691 
Q 1971 2848 1670 2848 
Q 1267 2848 1017 2553 
Q 768 2259 768 1651 
Q 768 992 982 701 
Q 1197 410 1606 410 
z
" transform="scale(0.015625)"/>
      <path id="STIXTwoText-10f" d="M 1760 -1408 
L 141 -1408 
L 141 -1229 
Q 442 -1229 525 -1129 
Q 608 -1030 608 -762 
L 608 2406 
Q 608 2592 566 2662 
Q 525 2733 365 2733 
Q 301 2733 230 2726 
Q 160 2720 160 2720 
L 160 2906 
L 966 3085 
L 1126 3085 
L 1126 2547 
L 1146 2547 
Q 1376 2816 1616 2960 
Q 1856 3104 2138 3104 
Q 2458 3104 2698 2921 
Q 2938 2739 3075 2416 
Q 3213 2093 3213 1670 
Q 3213 1126 3024 739 
Q 2835 352 2515 144 
Q 2195 -64 1811 -64 
Q 1632 -64 1469 -22 
Q 1306 19 1165 115 
L 1139 115 
L 1139 -723 
Q 1139 -928 1190 -1037 
Q 1242 -1146 1376 -1184 
Q 1510 -1222 1760 -1222 
L 1760 -1408 
z
M 1843 186 
Q 2182 186 2406 506 
Q 2630 826 2630 1491 
Q 2630 2099 2432 2384 
Q 2234 2669 1875 2669 
Q 1619 2669 1424 2534 
Q 1229 2400 1139 2278 
L 1139 608 
Q 1203 544 1299 441 
Q 1395 339 1529 262 
Q 1664 186 1843 186 
z
" transform="scale(0.015625)"/>
      <path id="STIXTwoText-106" d="M 3558 0 
L 2086 0 
L 2086 186 
Q 2310 186 2406 230 
Q 2502 275 2528 371 
Q 2554 467 2554 621 
L 2554 1728 
Q 2554 1990 2515 2211 
Q 2477 2432 2352 2563 
Q 2227 2694 1965 2694 
Q 1766 2694 1561 2588 
Q 1357 2483 1094 2227 
L 1101 2579 
L 1190 2579 
Q 1491 2861 1731 2982 
Q 1971 3104 2227 3104 
Q 2502 3104 2672 2995 
Q 2842 2886 2931 2710 
Q 3021 2534 3053 2326 
Q 3085 2118 3085 1920 
L 3085 646 
Q 3085 390 3171 288 
Q 3258 186 3558 186 
L 3558 0 
z
M 1645 0 
L 192 0 
L 192 186 
Q 442 186 541 256 
Q 640 326 640 595 
L 640 3872 
Q 640 4038 547 4083 
Q 454 4128 326 4128 
Q 250 4128 195 4121 
Q 141 4115 141 4115 
L 141 4294 
L 998 4518 
L 1171 4518 
L 1171 621 
Q 1171 454 1196 358 
Q 1222 262 1324 224 
Q 1427 186 1645 186 
L 1645 0 
z
" transform="scale(0.015625)"/>
     </defs>
     <use xlink:href="#STIXTwoText-5" transform="translate(0 0.40625)"/>
     <use xlink:href="#STIXTwoText-18" transform="translate(66.999939 0.40625)"/>
     <use xlink:href="#STIXTwoText-ff" transform="translate(134.999878 0.40625)"/>
     <use xlink:href="#STIXTwoText-14" transform="translate(182.999832 0.40625)"/>
     <use xlink:href="#STIXGeneral-Regular-1c" transform="translate(250.474765 -14.59375) scale(0.7)"/>
     <use xlink:href="#STIXGeneral-Regular-18" transform="translate(285.474733 -14.59375) scale(0.7)"/>
     <use xlink:href="#STIXTwoText-1" transform="translate(324.974701 0.40625)"/>
     <use xlink:href="#STIXTwoText-102" transform="translate(348.474686 0.40625)"/>
     <use xlink:href="#STIXTwoText-103" transform="translate(402.374634 0.40625)"/>
     <use xlink:href="#STIXTwoText-10f" transform="translate(448.774597 0.40625)"/>
     <use xlink:href="#STIXTwoText-113" transform="translate(502.474548 0.40625)"/>
     <use xlink:href="#STIXTwoText-106" transform="translate(533.974518 0.40625)"/>
    </g>
   </g>
   <g id="text_16">
    <!-- CVaR$_{99.9}$ depth -->
    <g style="fill: #666666" transform="translate(458.00221 170.366193) scale(0.075 -0.075)">
     <defs>
      <path id="STIXGeneral-Regular-11" d="M 1158 275 
Q 1158 134 1052 32 
Q 947 -70 800 -70 
Q 653 -70 550 32 
Q 448 134 448 281 
Q 448 429 553 534 
Q 659 640 806 640 
Q 947 640 1052 531 
Q 1158 422 1158 275 
z
" transform="scale(0.015625)"/>
     </defs>
     <use xlink:href="#STIXTwoText-5" transform="translate(0 0.40625)"/>
     <use xlink:href="#STIXTwoText-18" transform="translate(66.999939 0.40625)"/>
     <use xlink:href="#STIXTwoText-ff" transform="translate(134.999878 0.40625)"/>
     <use xlink:href="#STIXTwoText-14" transform="translate(182.999832 0.40625)"/>
     <use xlink:href="#STIXGeneral-Regular-1c" transform="translate(250.474765 -14.59375) scale(0.7)"/>
     <use xlink:href="#STIXGeneral-Regular-1c" transform="translate(285.474733 -14.59375) scale(0.7)"/>
     <use xlink:href="#STIXGeneral-Regular-11" transform="translate(320.474701 -14.59375) scale(0.7)"/>
     <use xlink:href="#STIXGeneral-Regular-1c" transform="translate(337.97468 -14.59375) scale(0.7)"/>
     <use xlink:href="#STIXTwoText-1" transform="translate(377.474648 0.40625)"/>
     <use xlink:href="#STIXTwoText-102" transform="translate(400.974632 0.40625)"/>
     <use xlink:href="#STIXTwoText-103" transform="translate(454.87458 0.40625)"/>
     <use xlink:href="#STIXTwoText-10f" transform="translate(501.274544 0.40625)"/>
     <use xlink:href="#STIXTwoText-113" transform="translate(554.974495 0.40625)"/>
     <use xlink:href="#STIXTwoText-106" transform="translate(586.474464 0.40625)"/>
    </g>
   </g>
   <g id="text_17">
    <!-- Confirmatory pool ($10 \times 100\,000$ scenarios): the gap grows with tail depth -->
    <g style="fill: #262626" transform="translate(46.435 14.82) scale(0.1 -0.1)">
     <defs>
      <path id="STIXTwoText-104" d="M 1837 0 
L 115 0 
L 115 186 
Q 352 186 464 227 
Q 576 269 614 390 
Q 653 512 653 762 
L 653 2797 
Q 653 3162 669 3395 
Q 685 3629 729 3789 
Q 774 3949 858 4096 
Q 986 4320 1181 4441 
Q 1376 4563 1709 4563 
Q 1920 4563 2080 4512 
Q 2240 4461 2333 4361 
Q 2426 4262 2426 4115 
Q 2426 3974 2349 3907 
Q 2272 3840 2163 3840 
Q 2042 3840 1965 3920 
Q 1888 4000 1818 4090 
Q 1754 4179 1680 4252 
Q 1606 4326 1491 4326 
Q 1312 4326 1248 4163 
Q 1184 4000 1184 3597 
L 1184 762 
Q 1184 512 1235 390 
Q 1286 269 1427 227 
Q 1568 186 1837 186 
L 1837 0 
z
M 1965 2726 
L 166 2726 
L 166 2995 
L 1965 2995 
L 1965 2726 
z
" transform="scale(0.015625)"/>
      <path id="STIXTwoText-118" d="M 493 -1504 
Q 294 -1504 166 -1427 
Q 38 -1350 38 -1171 
Q 38 -1024 124 -960 
Q 211 -896 333 -896 
Q 499 -896 630 -966 
Q 762 -1037 826 -1037 
Q 915 -1037 1017 -899 
Q 1120 -762 1219 -570 
Q 1318 -378 1379 -208 
Q 1440 -38 1440 32 
Q 1440 96 1373 262 
Q 1306 429 1248 557 
L 307 2611 
Q 262 2720 179 2781 
Q 96 2842 -77 2842 
L -77 3027 
L 1293 3027 
L 1293 2835 
Q 1075 2835 1001 2793 
Q 928 2752 928 2669 
Q 928 2605 960 2531 
Q 992 2458 1018 2387 
L 1645 979 
L 1728 666 
L 1773 666 
L 2394 2522 
Q 2406 2554 2416 2602 
Q 2426 2650 2426 2682 
Q 2426 2778 2326 2810 
Q 2227 2842 2067 2842 
L 2067 3027 
L 3155 3027 
L 3155 2842 
Q 2963 2842 2873 2755 
Q 2784 2669 2714 2483 
L 1715 -141 
Q 1530 -627 1354 -928 
Q 1178 -1229 973 -1366 
Q 768 -1504 493 -1504 
z
" transform="scale(0.015625)"/>
      <path id="STIXGeneral-Regular-13" d="M 3046 2112 
Q 3046 1683 2963 1302 
Q 2880 922 2717 602 
Q 2554 282 2266 96 
Q 1978 -90 1600 -90 
Q 1210 -90 915 108 
Q 621 307 461 640 
Q 301 973 227 1350 
Q 154 1728 154 2150 
Q 154 2746 301 3222 
Q 448 3699 790 4012 
Q 1133 4326 1626 4326 
Q 2253 4326 2649 3712 
Q 3046 3098 3046 2112 
z
M 2432 2080 
Q 2432 3091 2217 3625 
Q 2003 4160 1587 4160 
Q 1190 4160 979 3622 
Q 768 3085 768 2106 
Q 768 1120 979 598 
Q 1190 77 1600 77 
Q 2003 77 2217 598 
Q 2432 1120 2432 2080 
z
" transform="scale(0.015625)"/>
      <path id="STIXGeneral-Regular-99" d="M 3821 141 
L 3526 -160 
L 2048 1312 
L 570 -160 
L 275 134 
L 1747 1613 
L 275 3091 
L 576 3386 
L 2048 1914 
L 3526 3386 
L 3821 3098 
L 2349 1613 
L 3821 141 
z
" transform="scale(0.015625)"/>
      <path id="STIXTwoText-724" d="M 838 -51 
Q 646 -51 553 57 
Q 461 166 461 326 
Q 461 493 563 611 
Q 666 730 845 730 
Q 1030 730 1132 608 
Q 1235 486 1235 320 
Q 1235 173 1132 61 
Q 1030 -51 838 -51 
z
M 838 2279 
Q 646 2279 553 2387 
Q 461 2496 461 2656 
Q 461 2823 563 2941 
Q 666 3060 845 3060 
Q 1030 3060 1132 2938 
Q 1235 2816 1235 2650 
Q 1235 2503 1132 2391 
Q 1030 2279 838 2279 
z
" transform="scale(0.015625)"/>
      <path id="STIXTwoText-105" d="M 1222 -1504 
Q 806 -1504 566 -1401 
Q 326 -1299 230 -1136 
Q 134 -973 134 -800 
Q 134 -640 265 -464 
Q 397 -288 653 -38 
L 653 32 
L 845 -6 
Q 723 -211 678 -342 
Q 634 -474 634 -582 
Q 634 -858 870 -998 
Q 1107 -1139 1594 -1139 
Q 1971 -1139 2204 -1043 
Q 2438 -947 2544 -806 
Q 2650 -666 2650 -531 
Q 2650 -358 2538 -265 
Q 2426 -173 2253 -134 
Q 2080 -96 1888 -86 
Q 1696 -77 1536 -77 
Q 1248 -70 1101 -70 
Q 954 -70 890 -67 
Q 826 -64 774 -64 
L 710 -32 
Q 614 0 518 70 
Q 422 141 358 240 
Q 294 339 294 448 
Q 294 563 361 688 
Q 429 813 550 937 
Q 672 1062 819 1178 
L 819 1235 
L 986 1114 
Q 954 1082 909 998 
Q 864 915 832 822 
Q 800 730 800 666 
Q 800 570 867 515 
Q 934 461 1097 435 
Q 1261 410 1555 410 
Q 1958 410 2281 371 
Q 2605 333 2790 173 
Q 2976 13 2976 -352 
Q 2976 -672 2819 -893 
Q 2662 -1114 2403 -1248 
Q 2144 -1382 1833 -1443 
Q 1523 -1504 1222 -1504 
z
M 1517 998 
Q 1350 998 1206 1030 
Q 1062 1062 928 1107 
L 858 1171 
Q 691 1261 572 1382 
Q 454 1504 390 1673 
Q 326 1843 326 2061 
Q 326 2381 473 2614 
Q 621 2848 883 2976 
Q 1146 3104 1485 3104 
Q 1677 3104 1846 3069 
Q 2016 3034 2163 2963 
Q 2310 2893 2419 2797 
L 2419 2630 
Q 2490 2534 2570 2374 
Q 2650 2214 2650 1971 
Q 2650 1677 2506 1456 
Q 2362 1235 2109 1116 
Q 1856 998 1517 998 
z
M 1523 1222 
Q 1766 1222 1923 1388 
Q 2080 1555 2080 2010 
Q 2080 2400 1913 2637 
Q 1747 2874 1440 2874 
Q 1190 2874 1040 2682 
Q 890 2490 890 2086 
Q 890 1677 1050 1449 
Q 1210 1222 1523 1222 
z
M 3021 2989 
L 3021 2643 
L 2330 2662 
L 2106 2938 
L 3021 2989 
z
" transform="scale(0.015625)"/>
      <path id="STIXTwoText-116" d="M 3450 -38 
L 3142 -38 
L 2432 1914 
L 2342 2093 
L 2240 2374 
Q 2163 2586 2096 2685 
Q 2029 2784 1939 2813 
Q 1850 2842 1709 2842 
L 1709 3027 
L 3046 3027 
L 3046 2842 
Q 2867 2842 2796 2800 
Q 2726 2758 2726 2682 
Q 2726 2624 2742 2557 
Q 2758 2490 2784 2419 
L 3302 1018 
L 3418 646 
L 3456 646 
L 3584 1018 
L 4090 2451 
Q 4096 2477 4112 2537 
Q 4128 2598 4128 2682 
Q 4128 2771 4038 2806 
Q 3949 2842 3770 2842 
L 3770 3027 
L 4877 3027 
L 4877 2842 
Q 4691 2842 4595 2755 
Q 4499 2669 4403 2419 
L 3450 -38 
z
M 1690 -38 
L 1395 -38 
L 435 2374 
Q 352 2573 281 2672 
Q 211 2771 121 2806 
Q 32 2842 -109 2842 
L -109 3027 
L 1267 3027 
L 1267 2842 
Q 1075 2842 1001 2800 
Q 928 2758 928 2682 
Q 928 2618 950 2560 
Q 973 2502 998 2432 
L 1555 1018 
L 1670 646 
L 1715 646 
L 1850 1018 
L 2336 2246 
L 2547 1824 
L 2438 1824 
L 1690 -38 
z
" transform="scale(0.015625)"/>
     </defs>
     <use xlink:href="#STIXTwoText-5"/>
     <use xlink:href="#STIXTwoText-10e" transform="translate(66.999939 0)"/>
     <use xlink:href="#STIXTwoText-10d" transform="translate(118.399887 0)"/>
     <use xlink:href="#STIXTwoText-104" transform="translate(175.999832 0)"/>
     <use xlink:href="#STIXTwoText-107" transform="translate(206.699799 0)"/>
     <use xlink:href="#STIXTwoText-111" transform="translate(235.199768 0)"/>
     <use xlink:href="#STIXTwoText-10c" transform="translate(273.199738 0)"/>
     <use xlink:href="#STIXTwoText-ff" transform="translate(358.399658 0)"/>
     <use xlink:href="#STIXTwoText-113" transform="translate(406.399612 0)"/>
     <use xlink:href="#STIXTwoText-10e" transform="translate(437.899582 0)"/>
     <use xlink:href="#STIXTwoText-111" transform="translate(489.29953 0)"/>
     <use xlink:href="#STIXTwoText-118" transform="translate(527.2995 0)"/>
     <use xlink:href="#STIXTwoText-1" transform="translate(575.599457 0)"/>
     <use xlink:href="#STIXTwoText-10f" transform="translate(599.099442 0)"/>
     <use xlink:href="#STIXTwoText-10e" transform="translate(652.799393 0)"/>
     <use xlink:href="#STIXTwoText-10e" transform="translate(704.199341 0)"/>
     <use xlink:href="#STIXTwoText-10b" transform="translate(755.599289 0)"/>
     <use xlink:href="#STIXTwoText-1" transform="translate(783.899261 0)"/>
     <use xlink:href="#STIXTwoText-731" transform="translate(807.399246 0)"/>
     <use xlink:href="#STIXGeneral-Regular-14" transform="translate(841.699219 0)"/>
     <use xlink:href="#STIXGeneral-Regular-13" transform="translate(891.699173 0)"/>
     <use xlink:href="#STIXGeneral-Regular-99" transform="translate(961.699127 0)"/>
     <use xlink:href="#STIXGeneral-Regular-14" transform="translate(1045.699066 0)"/>
     <use xlink:href="#STIXGeneral-Regular-13" transform="translate(1095.69902 0)"/>
     <use xlink:href="#STIXGeneral-Regular-13" transform="translate(1145.698975 0)"/>
     <use xlink:href="#STIXGeneral-Regular-13" transform="translate(1212.365929 0)"/>
     <use xlink:href="#STIXGeneral-Regular-13" transform="translate(1262.365883 0)"/>
     <use xlink:href="#STIXGeneral-Regular-13" transform="translate(1312.365837 0)"/>
     <use xlink:href="#STIXTwoText-1" transform="translate(1362.365792 0)"/>
     <use xlink:href="#STIXTwoText-112" transform="translate(1385.865776 0)"/>
     <use xlink:href="#STIXTwoText-101" transform="translate(1425.365746 0)"/>
     <use xlink:href="#STIXTwoText-103" transform="translate(1469.965706 0)"/>
     <use xlink:href="#STIXTwoText-10d" transform="translate(1516.365669 0)"/>
     <use xlink:href="#STIXTwoText-ff" transform="translate(1573.965615 0)"/>
     <use xlink:href="#STIXTwoText-111" transform="translate(1621.965569 0)"/>
     <use xlink:href="#STIXTwoText-107" transform="translate(1659.965538 0)"/>
     <use xlink:href="#STIXTwoText-10e" transform="translate(1688.465508 0)"/>
     <use xlink:href="#STIXTwoText-112" transform="translate(1739.865456 0)"/>
     <use xlink:href="#STIXTwoText-732" transform="translate(1779.365425 0)"/>
     <use xlink:href="#STIXTwoText-724" transform="translate(1813.665398 0)"/>
     <use xlink:href="#STIXTwoText-1" transform="translate(1838.165367 0)"/>
     <use xlink:href="#STIXTwoText-113" transform="translate(1861.665352 0)"/>
     <use xlink:href="#STIXTwoText-106" transform="translate(1893.165322 0)"/>
     <use xlink:href="#STIXTwoText-103" transform="translate(1950.865273 0)"/>
     <use xlink:href="#STIXTwoText-1" transform="translate(1997.265236 0)"/>
     <use xlink:href="#STIXTwoText-105" transform="translate(2020.765221 0)"/>
     <use xlink:href="#STIXTwoText-ff" transform="translate(2069.165169 0)"/>
     <use xlink:href="#STIXTwoText-10f" transform="translate(2117.165123 0)"/>
     <use xlink:href="#STIXTwoText-1" transform="translate(2170.865074 0)"/>
     <use xlink:href="#STIXTwoText-105" transform="translate(2194.365059 0)"/>
     <use xlink:href="#STIXTwoText-111" transform="translate(2242.765007 0)"/>
     <use xlink:href="#STIXTwoText-10e" transform="translate(2280.764977 0)"/>
     <use xlink:href="#STIXTwoText-116" transform="translate(2332.164925 0)"/>
     <use xlink:href="#STIXTwoText-112" transform="translate(2407.064858 0)"/>
     <use xlink:href="#STIXTwoText-1" transform="translate(2446.564827 0)"/>
     <use xlink:href="#STIXTwoText-116" transform="translate(2470.064812 0)"/>
     <use xlink:href="#STIXTwoText-107" transform="translate(2544.964745 0)"/>
     <use xlink:href="#STIXTwoText-113" transform="translate(2573.464714 0)"/>
     <use xlink:href="#STIXTwoText-106" transform="translate(2604.964684 0)"/>
     <use xlink:href="#STIXTwoText-1" transform="translate(2662.664635 0)"/>
     <use xlink:href="#STIXTwoText-113" transform="translate(2686.16462 0)"/>
     <use xlink:href="#STIXTwoText-ff" transform="translate(2717.664589 0)"/>
     <use xlink:href="#STIXTwoText-107" transform="translate(2765.664543 0)"/>
     <use xlink:href="#STIXTwoText-10b" transform="translate(2794.164513 0)"/>
     <use xlink:href="#STIXTwoText-1" transform="translate(2822.464485 0)"/>
     <use xlink:href="#STIXTwoText-102" transform="translate(2845.96447 0)"/>
     <use xlink:href="#STIXTwoText-103" transform="translate(2899.864418 0)"/>
     <use xlink:href="#STIXTwoText-10f" transform="translate(2946.264382 0)"/>
     <use xlink:href="#STIXTwoText-113" transform="translate(2999.964333 0)"/>
     <use xlink:href="#STIXTwoText-106" transform="translate(3031.464302 0)"/>
    </g>
   </g>
   <g id="legend_1">
    <g id="patch_7">
     <path d="M 391.430978 87.22 
L 503.088478 87.22 
Q 504.688478 87.22 504.688478 85.62 
L 504.688478 26.42 
Q 504.688478 24.82 503.088478 24.82 
L 391.430978 24.82 
Q 389.830978 24.82 389.830978 26.42 
L 389.830978 85.62 
Q 389.830978 87.22 391.430978 87.22 
z
" style="fill: #ffffff; opacity: 0.9; stroke: #cccccc; stroke-linejoin: miter"/>
    </g>
    <g id="line2d_20">
     <path d="M 393.030978 31.316 
L 401.030978 31.316 
L 409.030978 31.316 
" style="fill: none; stroke: #1f6f3f; stroke-width: 1.5; stroke-linecap: round"/>
    </g>
    <g id="text_18">
     <!-- NN Mamba (deployed) -->
     <g style="fill: #262626" transform="translate(415.430978 34.116) scale(0.08 -0.08)">
      <defs>
       <path id="STIXTwoText-10" d="M 3994 -51 
L 3782 -51 
L 1133 3373 
L 954 3373 
L 838 3622 
Q 717 3789 624 3872 
Q 531 3955 432 3984 
Q 333 4013 186 4013 
L 186 4205 
L 1274 4205 
L 3642 1114 
L 3674 1114 
L 3674 3187 
Q 3674 3488 3635 3667 
Q 3597 3846 3469 3929 
Q 3341 4013 3066 4013 
L 3066 4205 
L 4576 4205 
L 4576 4013 
Q 4333 4013 4205 3926 
Q 4077 3840 4035 3651 
Q 3994 3462 3994 3155 
L 3994 -51 
z
M 1683 0 
L 186 0 
L 186 192 
Q 442 192 570 246 
Q 698 301 742 467 
Q 787 634 787 954 
L 787 3821 
L 1101 3821 
L 1101 954 
Q 1101 634 1145 470 
Q 1190 307 1318 249 
Q 1446 192 1683 192 
L 1683 0 
z
" transform="scale(0.015625)"/>
       <path id="STIXTwoText-f" d="M 1683 0 
L 179 0 
L 179 192 
Q 442 192 570 240 
Q 698 288 742 448 
Q 787 608 787 934 
L 787 3424 
Q 787 3667 742 3792 
Q 698 3917 573 3965 
Q 448 4013 192 4013 
L 192 4205 
L 1498 4205 
L 2848 986 
L 2874 986 
L 4218 4205 
L 5434 4205 
L 5434 4013 
Q 5210 4013 5088 3965 
Q 4966 3917 4921 3792 
Q 4877 3667 4877 3430 
L 4877 762 
Q 4877 531 4921 406 
Q 4966 282 5088 237 
Q 5210 192 5440 192 
L 5440 0 
L 3738 0 
L 3738 192 
Q 3987 192 4108 237 
Q 4230 282 4268 406 
Q 4307 531 4307 762 
L 4307 3520 
L 4282 3520 
L 2790 0 
L 2637 0 
L 1126 3514 
L 1101 3514 
L 1101 934 
Q 1101 608 1145 448 
Q 1190 288 1315 240 
Q 1440 192 1683 192 
L 1683 0 
z
" transform="scale(0.015625)"/>
       <path id="STIXTwoText-100" d="M 877 4518 
L 1043 4518 
L 1043 2560 
L 1062 2560 
Q 1229 2765 1478 2934 
Q 1728 3104 2048 3104 
Q 2368 3104 2608 2921 
Q 2848 2739 2982 2419 
Q 3117 2099 3117 1683 
Q 3117 1114 2918 723 
Q 2720 333 2374 134 
Q 2029 -64 1581 -64 
Q 1171 -64 899 32 
Q 627 128 512 192 
L 512 3789 
Q 512 4006 464 4067 
Q 416 4128 230 4128 
Q 154 4128 102 4121 
Q 51 4115 51 4115 
L 51 4294 
L 877 4518 
z
M 1043 2278 
L 1043 499 
Q 1133 390 1286 294 
Q 1440 198 1696 198 
Q 2003 198 2185 371 
Q 2368 544 2451 835 
Q 2534 1126 2534 1478 
Q 2534 1786 2470 2058 
Q 2406 2330 2240 2499 
Q 2074 2669 1766 2669 
Q 1523 2669 1328 2531 
Q 1133 2394 1043 2278 
z
" transform="scale(0.015625)"/>
      </defs>
      <use xlink:href="#STIXTwoText-10"/>
      <use xlink:href="#STIXTwoText-10" transform="translate(74.203125 0)"/>
      <use xlink:href="#STIXTwoText-1" transform="translate(148.40625 0)"/>
      <use xlink:href="#STIXTwoText-f" transform="translate(171.90625 0)"/>
      <use xlink:href="#STIXTwoText-ff" transform="translate(261.40625 0)"/>
      <use xlink:href="#STIXTwoText-10c" transform="translate(309.40625 0)"/>
      <use xlink:href="#STIXTwoText-100" transform="translate(394.609375 0)"/>
      <use xlink:href="#STIXTwoText-ff" transform="translate(446.8125 0)"/>
      <use xlink:href="#STIXTwoText-1" transform="translate(494.8125 0)"/>
      <use xlink:href="#STIXTwoText-731" transform="translate(518.3125 0)"/>
      <use xlink:href="#STIXTwoText-102" transform="translate(552.609375 0)"/>
      <use xlink:href="#STIXTwoText-103" transform="translate(606.515625 0)"/>
      <use xlink:href="#STIXTwoText-10f" transform="translate(652.921875 0)"/>
      <use xlink:href="#STIXTwoText-10b" transform="translate(706.625 0)"/>
      <use xlink:href="#STIXTwoText-10e" transform="translate(734.921875 0)"/>
      <use xlink:href="#STIXTwoText-118" transform="translate(786.328125 0)"/>
      <use xlink:href="#STIXTwoText-103" transform="translate(834.125 0)"/>
      <use xlink:href="#STIXTwoText-102" transform="translate(880.53125 0)"/>
      <use xlink:href="#STIXTwoText-732" transform="translate(934.4375 0)"/>
     </g>
    </g>
    <g id="line2d_21">
     <path d="M 393.030978 43.316 
L 401.030978 43.316 
L 409.030978 43.316 
" style="fill: none; stroke: #4878cf; stroke-width: 1.5; stroke-linecap: round"/>
    </g>
    <g id="text_19">
     <!-- NN dense (efficiency ref.) -->
     <g style="fill: #262626" transform="translate(415.430978 46.116) scale(0.08 -0.08)">
      <defs>
       <path id="STIXTwoText-28f" d="M 1779 0 
L 115 0 
L 115 186 
Q 352 186 464 227 
Q 576 269 614 390 
Q 653 512 653 762 
L 653 2726 
L 166 2726 
L 166 2995 
L 653 2995 
Q 653 3238 672 3424 
Q 691 3610 736 3760 
Q 781 3910 864 4058 
Q 992 4282 1197 4410 
Q 1402 4538 1741 4538 
Q 2054 4538 2259 4419 
Q 2464 4301 2464 4090 
Q 2464 3949 2387 3878 
Q 2310 3808 2202 3808 
Q 2074 3808 1994 3881 
Q 1914 3955 1853 4051 
Q 1792 4147 1718 4220 
Q 1645 4294 1523 4294 
Q 1344 4294 1267 4134 
Q 1190 3974 1190 3571 
L 1190 2995 
L 2298 2995 
L 2298 2726 
L 1190 2726 
L 1190 762 
Q 1190 512 1241 390 
Q 1293 269 1421 227 
Q 1549 186 1779 186 
L 1779 0 
z
" transform="scale(0.015625)"/>
       <path id="STIXTwoText-290" d="M 1747 0 
L 115 0 
L 115 179 
Q 352 179 464 220 
Q 576 262 614 387 
Q 653 512 653 762 
L 653 2726 
L 166 2726 
L 166 2995 
L 653 2995 
Q 653 3245 675 3433 
Q 698 3622 749 3782 
Q 800 3942 890 4083 
Q 1018 4288 1306 4438 
Q 1594 4589 2054 4589 
Q 2336 4589 2547 4534 
Q 2758 4480 2876 4365 
Q 2995 4250 2995 4070 
Q 2995 3936 2915 3856 
Q 2835 3776 2688 3776 
Q 2547 3776 2470 3875 
Q 2394 3974 2330 4115 
Q 2272 4256 2166 4307 
Q 2061 4358 1894 4358 
Q 1562 4358 1379 4153 
Q 1197 3949 1197 3418 
L 1197 2995 
L 2470 2995 
L 2470 2726 
L 1197 2726 
L 1197 762 
Q 1197 518 1241 390 
Q 1286 262 1404 220 
Q 1523 179 1747 179 
L 1747 0 
z
" transform="scale(0.015625)"/>
       <path id="STIXTwoText-292" d="M 1670 0 
L 198 0 
L 198 186 
Q 410 186 506 230 
Q 602 275 624 377 
Q 646 480 646 646 
L 646 2387 
Q 646 2586 579 2662 
Q 512 2739 358 2739 
L 179 2739 
L 179 2982 
L 1011 3053 
L 1178 3053 
L 1178 646 
Q 1178 467 1206 364 
Q 1235 262 1337 224 
Q 1440 186 1670 186 
L 1670 0 
z
" transform="scale(0.015625)"/>
       <path id="STIXTwoText-725" d="M 774 -51 
Q 582 -51 489 57 
Q 397 166 397 326 
Q 397 493 499 611 
Q 602 730 781 730 
Q 966 730 1068 608 
Q 1171 486 1171 320 
Q 1171 173 1068 61 
Q 966 -51 774 -51 
z
" transform="scale(0.015625)"/>
      </defs>
      <use xlink:href="#STIXTwoText-10"/>
      <use xlink:href="#STIXTwoText-10" transform="translate(74.203125 0)"/>
      <use xlink:href="#STIXTwoText-1" transform="translate(148.40625 0)"/>
      <use xlink:href="#STIXTwoText-102" transform="translate(171.90625 0)"/>
      <use xlink:href="#STIXTwoText-103" transform="translate(225.8125 0)"/>
      <use xlink:href="#STIXTwoText-10d" transform="translate(272.21875 0)"/>
      <use xlink:href="#STIXTwoText-112" transform="translate(329.8125 0)"/>
      <use xlink:href="#STIXTwoText-103" transform="translate(369.3125 0)"/>
      <use xlink:href="#STIXTwoText-1" transform="translate(415.71875 0)"/>
      <use xlink:href="#STIXTwoText-731" transform="translate(439.21875 0)"/>
      <use xlink:href="#STIXTwoText-103" transform="translate(473.515625 0)"/>
      <use xlink:href="#STIXTwoText-28f" transform="translate(519.921875 0)"/>
      <use xlink:href="#STIXTwoText-290" transform="translate(550.125 0)"/>
      <use xlink:href="#STIXTwoText-292" transform="translate(580.921875 0)"/>
      <use xlink:href="#STIXTwoText-101" transform="translate(609.328125 0)"/>
      <use xlink:href="#STIXTwoText-107" transform="translate(653.921875 0)"/>
      <use xlink:href="#STIXTwoText-103" transform="translate(682.421875 0)"/>
      <use xlink:href="#STIXTwoText-10d" transform="translate(728.828125 0)"/>
      <use xlink:href="#STIXTwoText-101" transform="translate(786.421875 0)"/>
      <use xlink:href="#STIXTwoText-118" transform="translate(831.015625 0)"/>
      <use xlink:href="#STIXTwoText-1" transform="translate(879.3125 0)"/>
      <use xlink:href="#STIXTwoText-111" transform="translate(902.8125 0)"/>
      <use xlink:href="#STIXTwoText-103" transform="translate(939.8125 0)"/>
      <use xlink:href="#STIXTwoText-104" transform="translate(986.21875 0)"/>
      <use xlink:href="#STIXTwoText-725" transform="translate(1016.921875 0)"/>
      <use xlink:href="#STIXTwoText-732" transform="translate(1041.421875 0)"/>
     </g>
    </g>
    <g id="line2d_22">
     <path d="M 393.030978 55.316 
L 401.030978 55.316 
L 409.030978 55.316 
" style="fill: none; stroke: #6a51a3; stroke-width: 1.5; stroke-linecap: round"/>
    </g>
    <g id="text_20">
     <!-- NN LSTM -->
     <g style="fill: #262626" transform="translate(415.430978 58.116) scale(0.08 -0.08)">
      <defs>
       <path id="STIXTwoText-e" d="M 3443 0 
L 269 0 
L 269 192 
Q 525 192 649 237 
Q 774 282 812 410 
Q 851 538 851 787 
L 851 3392 
Q 851 3642 812 3776 
Q 774 3910 649 3961 
Q 525 4013 269 4013 
L 269 4205 
L 2067 4205 
L 2067 4013 
Q 1811 4013 1673 3958 
Q 1536 3904 1488 3769 
Q 1440 3635 1440 3386 
L 1440 608 
Q 1440 397 1542 333 
Q 1645 269 1926 269 
L 2221 269 
Q 2541 269 2739 317 
Q 2938 365 3056 480 
Q 3174 595 3254 784 
Q 3334 973 3430 1248 
L 3635 1248 
L 3443 0 
z
" transform="scale(0.015625)"/>
       <path id="STIXTwoText-15" d="M 480 -96 
L 282 -96 
L 224 1286 
L 422 1286 
Q 538 845 691 611 
Q 845 378 1072 291 
Q 1299 205 1626 205 
Q 1869 205 2041 272 
Q 2214 339 2310 489 
Q 2406 640 2406 883 
Q 2406 1165 2249 1350 
Q 2093 1536 1849 1680 
Q 1606 1824 1344 1971 
Q 1088 2118 851 2284 
Q 614 2451 464 2681 
Q 314 2912 314 3245 
Q 314 3584 480 3811 
Q 646 4038 921 4160 
Q 1197 4282 1530 4282 
Q 1824 4282 1984 4234 
Q 2144 4186 2237 4134 
Q 2330 4083 2406 4083 
Q 2483 4083 2531 4124 
Q 2579 4166 2605 4269 
L 2771 4269 
L 2816 2989 
L 2624 2989 
Q 2490 3520 2266 3776 
Q 2042 4032 1555 4026 
Q 1229 4026 1049 3875 
Q 870 3725 870 3424 
Q 870 3187 1004 3017 
Q 1139 2848 1356 2713 
Q 1574 2579 1811 2438 
Q 2022 2317 2236 2195 
Q 2451 2074 2627 1920 
Q 2803 1766 2908 1561 
Q 3014 1357 3014 1069 
Q 3014 698 2844 442 
Q 2675 186 2380 54 
Q 2086 -77 1715 -77 
Q 1382 -77 1174 -29 
Q 966 19 848 67 
Q 730 115 653 115 
Q 589 115 537 57 
Q 486 0 480 -96 
z
" transform="scale(0.015625)"/>
       <path id="STIXTwoText-16" d="M 2861 0 
L 1005 0 
L 1005 192 
Q 1274 192 1408 233 
Q 1542 275 1587 412 
Q 1632 550 1632 838 
L 1632 3917 
L 1222 3917 
Q 870 3917 694 3846 
Q 518 3776 441 3590 
Q 365 3405 294 3053 
L 96 3053 
L 166 4205 
L 3706 4205 
L 3757 3053 
L 3558 3053 
Q 3488 3405 3411 3590 
Q 3334 3776 3161 3846 
Q 2989 3917 2630 3917 
L 2227 3917 
L 2227 838 
Q 2227 550 2272 412 
Q 2317 275 2451 233 
Q 2586 192 2861 192 
L 2861 0 
z
" transform="scale(0.015625)"/>
      </defs>
      <use xlink:href="#STIXTwoText-10"/>
      <use xlink:href="#STIXTwoText-10" transform="translate(74.203125 0)"/>
      <use xlink:href="#STIXTwoText-1" transform="translate(148.40625 0)"/>
      <use xlink:href="#STIXTwoText-e" transform="translate(171.90625 0)"/>
      <use xlink:href="#STIXTwoText-15" transform="translate(230.40625 0)"/>
      <use xlink:href="#STIXTwoText-16" transform="translate(279.8125 0)"/>
      <use xlink:href="#STIXTwoText-f" transform="translate(340.109375 0)"/>
     </g>
    </g>
    <g id="line2d_23">
     <path d="M 393.030978 67.316 
L 401.030978 67.316 
L 409.030978 67.316 
" style="fill: none; stroke: #d1701f; stroke-width: 1.5; stroke-linecap: round"/>
    </g>
    <g id="text_21">
     <!-- FTC (joint reference) -->
     <g style="fill: #262626" transform="translate(415.430978 70.116) scale(0.08 -0.08)">
      <defs>
       <path id="STIXTwoText-8" d="M 2106 0 
L 230 0 
L 230 192 
Q 493 192 624 230 
Q 755 269 803 387 
Q 851 506 851 742 
L 851 3482 
Q 851 3706 793 3818 
Q 736 3930 598 3971 
Q 461 4013 230 4013 
L 230 4205 
L 3635 4205 
L 3674 3155 
L 3469 3155 
Q 3424 3386 3376 3533 
Q 3328 3680 3232 3763 
Q 3136 3846 2953 3881 
Q 2771 3917 2458 3917 
L 1440 3917 
L 1440 2298 
L 2195 2298 
Q 2470 2298 2617 2349 
Q 2765 2400 2819 2537 
Q 2874 2675 2874 2931 
L 3091 2931 
L 3091 1446 
L 2874 1446 
Q 2874 1709 2819 1837 
Q 2765 1965 2617 2006 
Q 2470 2048 2195 2048 
L 1440 2048 
L 1440 704 
Q 1440 486 1501 377 
Q 1562 269 1709 230 
Q 1856 192 2106 192 
L 2106 0 
z
" transform="scale(0.015625)"/>
       <path id="STIXTwoText-109" d="M 70 -1504 
Q -243 -1504 -425 -1379 
Q -608 -1254 -608 -1043 
Q -608 -922 -531 -848 
Q -454 -774 -326 -774 
Q -211 -774 -137 -841 
Q -64 -909 -6 -998 
Q 51 -1088 121 -1155 
Q 192 -1222 301 -1222 
Q 538 -1222 589 -969 
Q 640 -717 640 -205 
L 640 2387 
Q 640 2598 585 2665 
Q 531 2733 358 2733 
Q 282 2733 224 2723 
Q 166 2714 166 2714 
L 166 2906 
L 998 3085 
L 1171 3085 
L 1171 -13 
Q 1171 -518 1052 -848 
Q 934 -1178 691 -1341 
Q 448 -1504 70 -1504 
z
M 890 3584 
Q 730 3584 624 3693 
Q 518 3802 518 3949 
Q 518 4096 617 4201 
Q 717 4307 890 4307 
Q 1056 4307 1161 4201 
Q 1267 4096 1267 3949 
Q 1267 3802 1161 3693 
Q 1056 3584 890 3584 
z
" transform="scale(0.015625)"/>
      </defs>
      <use xlink:href="#STIXTwoText-8"/>
      <use xlink:href="#STIXTwoText-16" transform="translate(58.796875 0)"/>
      <use xlink:href="#STIXTwoText-5" transform="translate(118.09375 0)"/>
      <use xlink:href="#STIXTwoText-1" transform="translate(185.09375 0)"/>
      <use xlink:href="#STIXTwoText-731" transform="translate(208.59375 0)"/>
      <use xlink:href="#STIXTwoText-109" transform="translate(250.890625 0)"/>
      <use xlink:href="#STIXTwoText-10e" transform="translate(277.1875 0)"/>
      <use xlink:href="#STIXTwoText-107" transform="translate(328.59375 0)"/>
      <use xlink:href="#STIXTwoText-10d" transform="translate(357.09375 0)"/>
      <use xlink:href="#STIXTwoText-113" transform="translate(414.6875 0)"/>
      <use xlink:href="#STIXTwoText-1" transform="translate(446.1875 0)"/>
      <use xlink:href="#STIXTwoText-111" transform="translate(469.6875 0)"/>
      <use xlink:href="#STIXTwoText-103" transform="translate(506.6875 0)"/>
      <use xlink:href="#STIXTwoText-104" transform="translate(553.09375 0)"/>
      <use xlink:href="#STIXTwoText-103" transform="translate(583.796875 0)"/>
      <use xlink:href="#STIXTwoText-111" transform="translate(630.203125 0)"/>
      <use xlink:href="#STIXTwoText-103" transform="translate(667.203125 0)"/>
      <use xlink:href="#STIXTwoText-10d" transform="translate(713.609375 0)"/>
      <use xlink:href="#STIXTwoText-101" transform="translate(771.203125 0)"/>
      <use xlink:href="#STIXTwoText-103" transform="translate(815.796875 0)"/>
      <use xlink:href="#STIXTwoText-732" transform="translate(862.203125 0)"/>
     </g>
    </g>
    <g id="line2d_24">
     <path d="M 393.030978 79.316 
L 401.030978 79.316 
L 409.030978 79.316 
" style="fill: none; stroke: #c44e52; stroke-width: 1.5; stroke-linecap: round"/>
    </g>
    <g id="text_22">
     <!-- FNPAG -->
     <g style="fill: #262626" transform="translate(415.430978 82.116) scale(0.08 -0.08)">
      <defs>
       <path id="STIXTwoText-12" d="M 2086 0 
L 282 0 
L 282 192 
Q 531 192 652 237 
Q 774 282 812 413 
Q 851 544 851 813 
L 851 3565 
Q 851 3846 732 3929 
Q 614 4013 307 4013 
L 307 4205 
L 1901 4205 
Q 2208 4205 2493 4157 
Q 2778 4109 2998 3993 
Q 3219 3878 3350 3670 
Q 3482 3462 3482 3142 
Q 3482 2771 3341 2518 
Q 3200 2266 2960 2112 
Q 2720 1958 2419 1894 
Q 2118 1830 1805 1830 
Q 1709 1830 1600 1843 
Q 1491 1856 1440 1882 
L 1440 787 
Q 1440 525 1494 397 
Q 1549 269 1689 230 
Q 1830 192 2086 192 
L 2086 0 
z
M 1786 2093 
Q 2131 2093 2368 2179 
Q 2605 2266 2726 2474 
Q 2848 2682 2848 3053 
Q 2848 3488 2595 3721 
Q 2342 3955 1824 3955 
Q 1728 3955 1635 3948 
Q 1542 3942 1440 3930 
L 1440 2118 
Q 1491 2112 1590 2102 
Q 1690 2093 1786 2093 
z
" transform="scale(0.015625)"/>
       <path id="STIXTwoText-3" d="M 1363 0 
L 19 0 
L 19 192 
Q 198 192 307 249 
Q 416 307 518 483 
Q 621 659 774 1024 
L 2131 4237 
L 2394 4237 
L 3910 762 
Q 4051 448 4182 320 
Q 4314 192 4570 192 
L 4570 0 
L 2848 0 
L 2848 192 
Q 2944 192 3046 205 
Q 3149 218 3219 269 
Q 3290 320 3290 429 
Q 3290 499 3267 592 
Q 3245 685 3181 826 
L 2906 1466 
L 2861 1594 
L 2131 3450 
L 2112 3450 
L 1363 1594 
L 1318 1466 
L 1005 723 
Q 979 646 956 572 
Q 934 499 934 410 
Q 934 275 1036 233 
Q 1139 192 1363 192 
L 1363 0 
z
M 3002 1402 
L 1222 1402 
L 1318 1658 
L 2906 1658 
L 3002 1402 
z
" transform="scale(0.015625)"/>
       <path id="STIXTwoText-9" d="M 2368 -70 
Q 1350 -70 835 496 
Q 320 1062 320 2086 
Q 320 2797 592 3286 
Q 864 3776 1334 4029 
Q 1805 4282 2406 4282 
Q 2758 4282 2966 4224 
Q 3174 4166 3292 4108 
Q 3411 4051 3488 4051 
Q 3571 4051 3612 4115 
Q 3654 4179 3718 4282 
L 3904 4282 
L 3904 2816 
L 3686 2816 
Q 3578 3456 3251 3731 
Q 2925 4006 2413 4006 
Q 1734 4006 1360 3510 
Q 986 3014 986 2163 
Q 986 1184 1379 701 
Q 1773 218 2458 218 
Q 2758 218 2966 307 
Q 3174 397 3366 538 
L 3366 1229 
Q 3366 1459 3328 1577 
Q 3290 1696 3168 1737 
Q 3046 1779 2803 1779 
L 2803 1984 
L 4384 1984 
L 4384 1779 
Q 4115 1779 4032 1686 
Q 3949 1594 3949 1293 
L 3949 365 
Q 3603 166 3251 48 
Q 2899 -70 2368 -70 
z
" transform="scale(0.015625)"/>
      </defs>
      <use xlink:href="#STIXTwoText-8"/>
      <use xlink:href="#STIXTwoText-10" transform="translate(58.796875 0)"/>
      <use xlink:href="#STIXTwoText-12" transform="translate(133 0)"/>
      <use xlink:href="#STIXTwoText-3" transform="translate(181.40625 0)"/>
      <use xlink:href="#STIXTwoText-9" transform="translate(249.203125 0)"/>
     </g>
    </g>
   </g>
  </g>
 </g>
 <defs>
  <clipPath id="pb820c9f15c">
   <rect x="46.435" y="20.82" width="462.253478" height="216.96"/>
  </clipPath>
 </defs>
</svg>
