<?xml version="1.0" encoding="utf-8" standalone="no"?>
<!DOCTYPE svg PUBLIC "-//W3C//DTD SVG 1.1//EN"
  "http://www.w3.org/Graphics/SVG/1.1/DTD/svg11.dtd">
<svg xmlns:xlink="http://www.w3.org/1999/xlink" width="500.851719pt" height="219.453523pt" viewBox="0 0 500.851719 219.453523" xmlns="http://www.w3.org/2000/svg" version="1.1">
 <metadata>
  <rdf:RDF xmlns:dc="http://purl.org/dc/elements/1.1/" xmlns:cc="http://creativecommons.org/ns#" xmlns:rdf="http://www.w3.org/1999/02/22-rdf-syntax-ns#">
   <cc:Work>
    <dc:type rdf:resource="http://purl.org/dc/dcmitype/StillImage"/>
    <dc:date>2026-07-10T12:47:45.355467</dc:date>
    <dc:format>image/svg+xml</dc:format>
    <dc:creator>
     <cc:Agent>
      <dc:title>Matplotlib v3.11.0, https://matplotlib.org/</dc:title>
     </cc:Agent>
    </dc:creator>
   </cc:Work>
  </rdf:RDF>
 </metadata>
 <defs>
  <style type="text/css">*{stroke-linejoin: round; stroke-linecap: butt}</style>
 </defs>
 <g id="figure_1">
  <g id="patch_1">
   <path d="M 0 219.453523 
L 500.851719 219.453523 
L 500.851719 0 
L 0 0 
z
" style="fill: #ffffff"/>
  </g>
  <g id="axes_1">
   <g id="patch_2">
    <path d="M 47.251719 177.168328 
L 493.651719 177.168328 
L 493.651719 21.936328 
L 47.251719 21.936328 
z
" style="fill: #f5f5f5"/>
   </g>
   <g id="matplotlib.axis_1">
    <g id="xtick_1">
     <g id="line2d_1">
      <path d="M 67.539485 177.168328 
L 67.539485 21.936328 
" clip-path="url(#p128d45d5a3)" style="fill: none; stroke: #cccccc; stroke-linecap: round"/>
     </g>
     <g id="text_1">
      <!-- 0 -->
      <g style="fill: #262626" transform="translate(64.480969 194.676629) scale(0.11 -0.11)">
       <defs>
        <path id="ArialMT-13" d="M 266 2259 
Q 266 3072 433 3567 
Q 600 4063 929 4331 
Q 1259 4600 1759 4600 
Q 2128 4600 2406 4451 
Q 2684 4303 2865 4023 
Q 3047 3744 3150 3342 
Q 3253 2941 3253 2259 
Q 3253 1453 3087 958 
Q 2922 463 2592 192 
Q 2263 -78 1759 -78 
Q 1097 -78 719 397 
Q 266 969 266 2259 
z
M 844 2259 
Q 844 1131 1108 757 
Q 1372 384 1759 384 
Q 2147 384 2411 759 
Q 2675 1134 2675 2259 
Q 2675 3391 2411 3762 
Q 2147 4134 1753 4134 
Q 1366 4134 1134 3806 
Q 844 3388 844 2259 
z
" transform="scale(0.015625)"/>
       </defs>
       <use xlink:href="#ArialMT-13"/>
      </g>
     </g>
    </g>
    <g id="xtick_2">
     <g id="line2d_2">
      <path d="M 164.835226 177.168328 
L 164.835226 21.936328 
" clip-path="url(#p128d45d5a3)" style="fill: none; stroke: #cccccc; stroke-linecap: round"/>
     </g>
     <g id="text_2">
      <!-- 100 -->
      <g style="fill: #262626" transform="translate(155.659679 194.676629) scale(0.11 -0.11)">
       <defs>
        <path id="ArialMT-14" d="M 2384 0 
L 1822 0 
L 1822 3584 
Q 1619 3391 1289 3197 
Q 959 3003 697 2906 
L 697 3450 
Q 1169 3672 1522 3987 
Q 1875 4303 2022 4600 
L 2384 4600 
L 2384 0 
z
" transform="scale(0.015625)"/>
       </defs>
       <use xlink:href="#ArialMT-14"/>
       <use xlink:href="#ArialMT-13" transform="translate(55.609375 0)"/>
       <use xlink:href="#ArialMT-13" transform="translate(111.21875 0)"/>
      </g>
     </g>
    </g>
    <g id="xtick_3">
     <g id="line2d_3">
      <path d="M 262.130967 177.168328 
L 262.130967 21.936328 
" clip-path="url(#p128d45d5a3)" style="fill: none; stroke: #cccccc; stroke-linecap: round"/>
     </g>
     <g id="text_3">
      <!-- 200 -->
      <g style="fill: #262626" transform="translate(252.955421 194.676629) scale(0.11 -0.11)">
       <defs>
        <path id="ArialMT-15" d="M 3222 541 
L 3222 0 
L 194 0 
Q 188 203 259 391 
Q 375 700 629 1000 
Q 884 1300 1366 1694 
Q 2113 2306 2375 2664 
Q 2638 3022 2638 3341 
Q 2638 3675 2398 3904 
Q 2159 4134 1775 4134 
Q 1369 4134 1125 3890 
Q 881 3647 878 3216 
L 300 3275 
Q 359 3922 746 4261 
Q 1134 4600 1788 4600 
Q 2447 4600 2831 4234 
Q 3216 3869 3216 3328 
Q 3216 3053 3103 2787 
Q 2991 2522 2730 2228 
Q 2469 1934 1863 1422 
Q 1356 997 1212 845 
Q 1069 694 975 541 
L 3222 541 
z
" transform="scale(0.015625)"/>
       </defs>
       <use xlink:href="#ArialMT-15"/>
       <use xlink:href="#ArialMT-13" transform="translate(55.609375 0)"/>
       <use xlink:href="#ArialMT-13" transform="translate(111.21875 0)"/>
      </g>
     </g>
    </g>
    <g id="xtick_4">
     <g id="line2d_4">
      <path d="M 359.426709 177.168328 
L 359.426709 21.936328 
" clip-path="url(#p128d45d5a3)" style="fill: none; stroke: #cccccc; stroke-linecap: round"/>
     </g>
     <g id="text_4">
      <!-- 300 -->
      <g style="fill: #262626" transform="translate(350.251162 194.676629) scale(0.11 -0.11)">
       <defs>
        <path id="ArialMT-16" d="M 269 1209 
L 831 1284 
Q 928 806 1161 595 
Q 1394 384 1728 384 
Q 2125 384 2398 659 
Q 2672 934 2672 1341 
Q 2672 1728 2419 1979 
Q 2166 2231 1775 2231 
Q 1616 2231 1378 2169 
L 1441 2663 
Q 1497 2656 1531 2656 
Q 1891 2656 2178 2843 
Q 2466 3031 2466 3422 
Q 2466 3731 2256 3934 
Q 2047 4138 1716 4138 
Q 1388 4138 1169 3931 
Q 950 3725 888 3313 
L 325 3413 
Q 428 3978 793 4289 
Q 1159 4600 1703 4600 
Q 2078 4600 2393 4439 
Q 2709 4278 2876 4000 
Q 3044 3722 3044 3409 
Q 3044 3113 2884 2869 
Q 2725 2625 2413 2481 
Q 2819 2388 3044 2092 
Q 3269 1797 3269 1353 
Q 3269 753 2831 336 
Q 2394 -81 1725 -81 
Q 1122 -81 723 278 
Q 325 638 269 1209 
z
" transform="scale(0.015625)"/>
       </defs>
       <use xlink:href="#ArialMT-16"/>
       <use xlink:href="#ArialMT-13" transform="translate(55.609375 0)"/>
       <use xlink:href="#ArialMT-13" transform="translate(111.21875 0)"/>
      </g>
     </g>
    </g>
    <g id="xtick_5">
     <g id="line2d_5">
      <path d="M 456.72245 177.168328 
L 456.72245 21.936328 
" clip-path="url(#p128d45d5a3)" style="fill: none; stroke: #cccccc; stroke-linecap: round"/>
     </g>
     <g id="text_5">
      <!-- 400 -->
      <g style="fill: #262626" transform="translate(447.546903 194.676629) scale(0.11 -0.11)">
       <defs>
        <path id="ArialMT-17" d="M 2069 0 
L 2069 1097 
L 81 1097 
L 81 1613 
L 2172 4581 
L 2631 4581 
L 2631 1613 
L 3250 1613 
L 3250 1097 
L 2631 1097 
L 2631 0 
L 2069 0 
z
M 2069 1613 
L 2069 3678 
L 634 1613 
L 2069 1613 
z
" transform="scale(0.015625)"/>
       </defs>
       <use xlink:href="#ArialMT-17"/>
       <use xlink:href="#ArialMT-13" transform="translate(55.609375 0)"/>
       <use xlink:href="#ArialMT-13" transform="translate(111.21875 0)"/>
      </g>
     </g>
    </g>
    <g id="text_6">
     <!-- correction Δv (m/s) -->
     <g style="fill: #262626" transform="translate(220.107969 209.727898) scale(0.12 -0.12)">
      <defs>
       <path id="ArialMT-46" d="M 2588 1216 
L 3141 1144 
Q 3050 572 2676 248 
Q 2303 -75 1759 -75 
Q 1078 -75 664 370 
Q 250 816 250 1647 
Q 250 2184 428 2587 
Q 606 2991 970 3192 
Q 1334 3394 1763 3394 
Q 2303 3394 2647 3120 
Q 2991 2847 3088 2344 
L 2541 2259 
Q 2463 2594 2264 2762 
Q 2066 2931 1784 2931 
Q 1359 2931 1093 2626 
Q 828 2322 828 1663 
Q 828 994 1084 691 
Q 1341 388 1753 388 
Q 2084 388 2306 591 
Q 2528 794 2588 1216 
z
" transform="scale(0.015625)"/>
       <path id="ArialMT-52" d="M 213 1659 
Q 213 2581 725 3025 
Q 1153 3394 1769 3394 
Q 2453 3394 2887 2945 
Q 3322 2497 3322 1706 
Q 3322 1066 3130 698 
Q 2938 331 2570 128 
Q 2203 -75 1769 -75 
Q 1072 -75 642 372 
Q 213 819 213 1659 
z
M 791 1659 
Q 791 1022 1069 705 
Q 1347 388 1769 388 
Q 2188 388 2466 706 
Q 2744 1025 2744 1678 
Q 2744 2294 2464 2611 
Q 2184 2928 1769 2928 
Q 1347 2928 1069 2612 
Q 791 2297 791 1659 
z
" transform="scale(0.015625)"/>
       <path id="ArialMT-55" d="M 416 0 
L 416 3319 
L 922 3319 
L 922 2816 
Q 1116 3169 1280 3281 
Q 1444 3394 1641 3394 
Q 1925 3394 2219 3213 
L 2025 2691 
Q 1819 2813 1613 2813 
Q 1428 2813 1281 2702 
Q 1134 2591 1072 2394 
Q 978 2094 978 1738 
L 978 0 
L 416 0 
z
" transform="scale(0.015625)"/>
       <path id="ArialMT-48" d="M 2694 1069 
L 3275 997 
Q 3138 488 2766 206 
Q 2394 -75 1816 -75 
Q 1088 -75 661 373 
Q 234 822 234 1631 
Q 234 2469 665 2931 
Q 1097 3394 1784 3394 
Q 2450 3394 2872 2941 
Q 3294 2488 3294 1666 
Q 3294 1616 3291 1516 
L 816 1516 
Q 847 969 1125 678 
Q 1403 388 1819 388 
Q 2128 388 2347 550 
Q 2566 713 2694 1069 
z
M 847 1978 
L 2700 1978 
Q 2663 2397 2488 2606 
Q 2219 2931 1791 2931 
Q 1403 2931 1139 2672 
Q 875 2413 847 1978 
z
" transform="scale(0.015625)"/>
       <path id="ArialMT-57" d="M 1650 503 
L 1731 6 
Q 1494 -44 1306 -44 
Q 1000 -44 831 53 
Q 663 150 594 308 
Q 525 466 525 972 
L 525 2881 
L 113 2881 
L 113 3319 
L 525 3319 
L 525 4141 
L 1084 4478 
L 1084 3319 
L 1650 3319 
L 1650 2881 
L 1084 2881 
L 1084 941 
Q 1084 700 1114 631 
Q 1144 563 1211 522 
Q 1278 481 1403 481 
Q 1497 481 1650 503 
z
" transform="scale(0.015625)"/>
       <path id="ArialMT-4c" d="M 425 3934 
L 425 4581 
L 988 4581 
L 988 3934 
L 425 3934 
z
M 425 0 
L 425 3319 
L 988 3319 
L 988 0 
L 425 0 
z
" transform="scale(0.015625)"/>
       <path id="ArialMT-51" d="M 422 0 
L 422 3319 
L 928 3319 
L 928 2847 
Q 1294 3394 1984 3394 
Q 2284 3394 2536 3286 
Q 2788 3178 2913 3003 
Q 3038 2828 3088 2588 
Q 3119 2431 3119 2041 
L 3119 0 
L 2556 0 
L 2556 2019 
Q 2556 2363 2490 2533 
Q 2425 2703 2258 2804 
Q 2091 2906 1866 2906 
Q 1506 2906 1245 2678 
Q 984 2450 984 1813 
L 984 0 
L 422 0 
z
" transform="scale(0.015625)"/>
       <path id="ArialMT-3" transform="scale(0.015625)"/>
       <path id="ArialMT-1fb" d="M -6 0 
L 1753 4581 
L 2406 4581 
L 4281 0 
L -6 0 
z
M 834 541 
L 3381 541 
L 2391 3150 
Q 2169 3738 2066 4100 
Q 1981 3675 1819 3225 
L 834 541 
z
" transform="scale(0.015625)"/>
       <path id="ArialMT-59" d="M 1344 0 
L 81 3319 
L 675 3319 
L 1388 1331 
Q 1503 1009 1600 663 
Q 1675 925 1809 1294 
L 2547 3319 
L 3125 3319 
L 1869 0 
L 1344 0 
z
" transform="scale(0.015625)"/>
       <path id="ArialMT-b" d="M 1497 -1347 
Q 1031 -759 709 28 
Q 388 816 388 1659 
Q 388 2403 628 3084 
Q 909 3875 1497 4659 
L 1900 4659 
Q 1522 4009 1400 3731 
Q 1209 3300 1100 2831 
Q 966 2247 966 1656 
Q 966 153 1900 -1347 
L 1497 -1347 
z
" transform="scale(0.015625)"/>
       <path id="ArialMT-50" d="M 422 0 
L 422 3319 
L 925 3319 
L 925 2853 
Q 1081 3097 1340 3245 
Q 1600 3394 1931 3394 
Q 2300 3394 2536 3241 
Q 2772 3088 2869 2813 
Q 3263 3394 3894 3394 
Q 4388 3394 4653 3120 
Q 4919 2847 4919 2278 
L 4919 0 
L 4359 0 
L 4359 2091 
Q 4359 2428 4304 2576 
Q 4250 2725 4106 2815 
Q 3963 2906 3769 2906 
Q 3419 2906 3187 2673 
Q 2956 2441 2956 1928 
L 2956 0 
L 2394 0 
L 2394 2156 
Q 2394 2531 2256 2718 
Q 2119 2906 1806 2906 
Q 1569 2906 1367 2781 
Q 1166 2656 1075 2415 
Q 984 2175 984 1722 
L 984 0 
L 422 0 
z
" transform="scale(0.015625)"/>
       <path id="ArialMT-12" d="M 0 -78 
L 1328 4659 
L 1778 4659 
L 453 -78 
L 0 -78 
z
" transform="scale(0.015625)"/>
       <path id="ArialMT-56" d="M 197 991 
L 753 1078 
Q 800 744 1014 566 
Q 1228 388 1613 388 
Q 2000 388 2187 545 
Q 2375 703 2375 916 
Q 2375 1106 2209 1216 
Q 2094 1291 1634 1406 
Q 1016 1563 777 1677 
Q 538 1791 414 1992 
Q 291 2194 291 2438 
Q 291 2659 392 2848 
Q 494 3038 669 3163 
Q 800 3259 1026 3326 
Q 1253 3394 1513 3394 
Q 1903 3394 2198 3281 
Q 2494 3169 2634 2976 
Q 2775 2784 2828 2463 
L 2278 2388 
Q 2241 2644 2061 2787 
Q 1881 2931 1553 2931 
Q 1166 2931 1000 2803 
Q 834 2675 834 2503 
Q 834 2394 903 2306 
Q 972 2216 1119 2156 
Q 1203 2125 1616 2013 
Q 2213 1853 2448 1751 
Q 2684 1650 2818 1456 
Q 2953 1263 2953 975 
Q 2953 694 2789 445 
Q 2625 197 2315 61 
Q 2006 -75 1616 -75 
Q 969 -75 630 194 
Q 291 463 197 991 
z
" transform="scale(0.015625)"/>
       <path id="ArialMT-c" d="M 791 -1347 
L 388 -1347 
Q 1322 153 1322 1656 
Q 1322 2244 1188 2822 
Q 1081 3291 891 3722 
Q 769 4003 388 4659 
L 791 4659 
Q 1378 3875 1659 3084 
Q 1900 2403 1900 1659 
Q 1900 816 1576 28 
Q 1253 -759 791 -1347 
z
" transform="scale(0.015625)"/>
      </defs>
      <use xlink:href="#ArialMT-46"/>
      <use xlink:href="#ArialMT-52" transform="translate(50 0)"/>
      <use xlink:href="#ArialMT-55" transform="translate(105.609375 0)"/>
      <use xlink:href="#ArialMT-55" transform="translate(138.90625 0)"/>
      <use xlink:href="#ArialMT-48" transform="translate(172.203125 0)"/>
      <use xlink:href="#ArialMT-46" transform="translate(227.8125 0)"/>
      <use xlink:href="#ArialMT-57" transform="translate(277.8125 0)"/>
      <use xlink:href="#ArialMT-4c" transform="translate(305.59375 0)"/>
      <use xlink:href="#ArialMT-52" transform="translate(327.8125 0)"/>
      <use xlink:href="#ArialMT-51" transform="translate(383.421875 0)"/>
      <use xlink:href="#ArialMT-3" transform="translate(439.03125 0)"/>
      <use xlink:href="#ArialMT-1fb" transform="translate(466.8125 0)"/>
      <use xlink:href="#ArialMT-59" transform="translate(533.609375 0)"/>
      <use xlink:href="#ArialMT-3" transform="translate(583.609375 0)"/>
      <use xlink:href="#ArialMT-b" transform="translate(611.390625 0)"/>
      <use xlink:href="#ArialMT-50" transform="translate(644.6875 0)"/>
      <use xlink:href="#ArialMT-12" transform="translate(727.984375 0)"/>
      <use xlink:href="#ArialMT-56" transform="translate(755.765625 0)"/>
      <use xlink:href="#ArialMT-c" transform="translate(805.765625 0)"/>
     </g>
    </g>
   </g>
   <g id="matplotlib.axis_2">
    <g id="ytick_1">
     <g id="line2d_6">
      <path d="M 47.251719 177.168328 
L 493.651719 177.168328 
" clip-path="url(#p128d45d5a3)" style="fill: none; stroke: #cccccc; stroke-linecap: round"/>
     </g>
     <g id="text_7">
      <!-- 0.0 -->
      <g style="fill: #262626" transform="translate(22.461719 181.172479) scale(0.11 -0.11)">
       <defs>
        <path id="ArialMT-11" d="M 581 0 
L 581 641 
L 1222 641 
L 1222 0 
L 581 0 
z
" transform="scale(0.015625)"/>
       </defs>
       <use xlink:href="#ArialMT-13"/>
       <use xlink:href="#ArialMT-11" transform="translate(55.609375 0)"/>
       <use xlink:href="#ArialMT-13" transform="translate(83.390625 0)"/>
      </g>
     </g>
    </g>
    <g id="ytick_2">
     <g id="line2d_7">
      <path d="M 47.251719 146.121928 
L 493.651719 146.121928 
" clip-path="url(#p128d45d5a3)" style="fill: none; stroke: #cccccc; stroke-linecap: round"/>
     </g>
     <g id="text_8">
      <!-- 0.2 -->
      <g style="fill: #262626" transform="translate(22.461719 150.126079) scale(0.11 -0.11)">
       <use xlink:href="#ArialMT-13"/>
       <use xlink:href="#ArialMT-11" transform="translate(55.609375 0)"/>
       <use xlink:href="#ArialMT-15" transform="translate(83.390625 0)"/>
      </g>
     </g>
    </g>
    <g id="ytick_3">
     <g id="line2d_8">
      <path d="M 47.251719 115.075528 
L 493.651719 115.075528 
" clip-path="url(#p128d45d5a3)" style="fill: none; stroke: #cccccc; stroke-linecap: round"/>
     </g>
     <g id="text_9">
      <!-- 0.4 -->
      <g style="fill: #262626" transform="translate(22.461719 119.079679) scale(0.11 -0.11)">
       <use xlink:href="#ArialMT-13"/>
       <use xlink:href="#ArialMT-11" transform="translate(55.609375 0)"/>
       <use xlink:href="#ArialMT-17" transform="translate(83.390625 0)"/>
      </g>
     </g>
    </g>
    <g id="ytick_4">
     <g id="line2d_9">
      <path d="M 47.251719 84.029128 
L 493.651719 84.029128 
" clip-path="url(#p128d45d5a3)" style="fill: none; stroke: #cccccc; stroke-linecap: round"/>
     </g>
     <g id="text_10">
      <!-- 0.6 -->
      <g style="fill: #262626" transform="translate(22.461719 88.033279) scale(0.11 -0.11)">
       <defs>
        <path id="ArialMT-19" d="M 3184 3459 
L 2625 3416 
Q 2550 3747 2413 3897 
Q 2184 4138 1850 4138 
Q 1581 4138 1378 3988 
Q 1113 3794 959 3422 
Q 806 3050 800 2363 
Q 1003 2672 1297 2822 
Q 1591 2972 1913 2972 
Q 2475 2972 2870 2558 
Q 3266 2144 3266 1488 
Q 3266 1056 3080 686 
Q 2894 316 2569 119 
Q 2244 -78 1831 -78 
Q 1128 -78 684 439 
Q 241 956 241 2144 
Q 241 3472 731 4075 
Q 1159 4600 1884 4600 
Q 2425 4600 2770 4297 
Q 3116 3994 3184 3459 
z
M 888 1484 
Q 888 1194 1011 928 
Q 1134 663 1356 523 
Q 1578 384 1822 384 
Q 2178 384 2434 671 
Q 2691 959 2691 1453 
Q 2691 1928 2437 2201 
Q 2184 2475 1800 2475 
Q 1419 2475 1153 2201 
Q 888 1928 888 1484 
z
" transform="scale(0.015625)"/>
       </defs>
       <use xlink:href="#ArialMT-13"/>
       <use xlink:href="#ArialMT-11" transform="translate(55.609375 0)"/>
       <use xlink:href="#ArialMT-19" transform="translate(83.390625 0)"/>
      </g>
     </g>
    </g>
    <g id="ytick_5">
     <g id="line2d_10">
      <path d="M 47.251719 52.982728 
L 493.651719 52.982728 
" clip-path="url(#p128d45d5a3)" style="fill: none; stroke: #cccccc; stroke-linecap: round"/>
     </g>
     <g id="text_11">
      <!-- 0.8 -->
      <g style="fill: #262626" transform="translate(22.461719 56.986879) scale(0.11 -0.11)">
       <defs>
        <path id="ArialMT-1b" d="M 1131 2484 
Q 781 2613 612 2850 
Q 444 3088 444 3419 
Q 444 3919 803 4259 
Q 1163 4600 1759 4600 
Q 2359 4600 2725 4251 
Q 3091 3903 3091 3403 
Q 3091 3084 2923 2848 
Q 2756 2613 2416 2484 
Q 2838 2347 3058 2040 
Q 3278 1734 3278 1309 
Q 3278 722 2862 322 
Q 2447 -78 1769 -78 
Q 1091 -78 675 323 
Q 259 725 259 1325 
Q 259 1772 486 2073 
Q 713 2375 1131 2484 
z
M 1019 3438 
Q 1019 3113 1228 2906 
Q 1438 2700 1772 2700 
Q 2097 2700 2305 2904 
Q 2513 3109 2513 3406 
Q 2513 3716 2298 3927 
Q 2084 4138 1766 4138 
Q 1444 4138 1231 3931 
Q 1019 3725 1019 3438 
z
M 838 1322 
Q 838 1081 952 856 
Q 1066 631 1291 507 
Q 1516 384 1775 384 
Q 2178 384 2440 643 
Q 2703 903 2703 1303 
Q 2703 1709 2433 1975 
Q 2163 2241 1756 2241 
Q 1359 2241 1098 1978 
Q 838 1716 838 1322 
z
" transform="scale(0.015625)"/>
       </defs>
       <use xlink:href="#ArialMT-13"/>
       <use xlink:href="#ArialMT-11" transform="translate(55.609375 0)"/>
       <use xlink:href="#ArialMT-1b" transform="translate(83.390625 0)"/>
      </g>
     </g>
    </g>
    <g id="ytick_6">
     <g id="line2d_11">
      <path d="M 47.251719 21.936328 
L 493.651719 21.936328 
" clip-path="url(#p128d45d5a3)" style="fill: none; stroke: #cccccc; stroke-linecap: round"/>
     </g>
     <g id="text_12">
      <!-- 1.0 -->
      <g style="fill: #262626" transform="translate(22.461719 25.940479) scale(0.11 -0.11)">
       <use xlink:href="#ArialMT-14"/>
       <use xlink:href="#ArialMT-11" transform="translate(55.609375 0)"/>
       <use xlink:href="#ArialMT-13" transform="translate(83.390625 0)"/>
      </g>
     </g>
    </g>
    <g id="text_13">
     <!-- cumulative fraction -->
     <g style="fill: #262626" transform="translate(15.936328 149.570766) rotate(-90) scale(0.12 -0.12)">
      <defs>
       <path id="ArialMT-58" d="M 2597 0 
L 2597 488 
Q 2209 -75 1544 -75 
Q 1250 -75 995 37 
Q 741 150 617 320 
Q 494 491 444 738 
Q 409 903 409 1263 
L 409 3319 
L 972 3319 
L 972 1478 
Q 972 1038 1006 884 
Q 1059 663 1231 536 
Q 1403 409 1656 409 
Q 1909 409 2131 539 
Q 2353 669 2445 892 
Q 2538 1116 2538 1541 
L 2538 3319 
L 3100 3319 
L 3100 0 
L 2597 0 
z
" transform="scale(0.015625)"/>
       <path id="ArialMT-4f" d="M 409 0 
L 409 4581 
L 972 4581 
L 972 0 
L 409 0 
z
" transform="scale(0.015625)"/>
       <path id="ArialMT-44" d="M 2588 409 
Q 2275 144 1986 34 
Q 1697 -75 1366 -75 
Q 819 -75 525 192 
Q 231 459 231 875 
Q 231 1119 342 1320 
Q 453 1522 633 1644 
Q 813 1766 1038 1828 
Q 1203 1872 1538 1913 
Q 2219 1994 2541 2106 
Q 2544 2222 2544 2253 
Q 2544 2597 2384 2738 
Q 2169 2928 1744 2928 
Q 1347 2928 1158 2789 
Q 969 2650 878 2297 
L 328 2372 
Q 403 2725 575 2942 
Q 747 3159 1072 3276 
Q 1397 3394 1825 3394 
Q 2250 3394 2515 3294 
Q 2781 3194 2906 3042 
Q 3031 2891 3081 2659 
Q 3109 2516 3109 2141 
L 3109 1391 
Q 3109 606 3145 398 
Q 3181 191 3288 0 
L 2700 0 
Q 2613 175 2588 409 
z
M 2541 1666 
Q 2234 1541 1622 1453 
Q 1275 1403 1131 1340 
Q 988 1278 909 1158 
Q 831 1038 831 891 
Q 831 666 1001 516 
Q 1172 366 1500 366 
Q 1825 366 2078 508 
Q 2331 650 2450 897 
Q 2541 1088 2541 1459 
L 2541 1666 
z
" transform="scale(0.015625)"/>
       <path id="ArialMT-49" d="M 556 0 
L 556 2881 
L 59 2881 
L 59 3319 
L 556 3319 
L 556 3672 
Q 556 4006 616 4169 
Q 697 4388 901 4523 
Q 1106 4659 1475 4659 
Q 1713 4659 2000 4603 
L 1916 4113 
Q 1741 4144 1584 4144 
Q 1328 4144 1222 4034 
Q 1116 3925 1116 3625 
L 1116 3319 
L 1763 3319 
L 1763 2881 
L 1116 2881 
L 1116 0 
L 556 0 
z
" transform="scale(0.015625)"/>
      </defs>
      <use xlink:href="#ArialMT-46"/>
      <use xlink:href="#ArialMT-58" transform="translate(50 0)"/>
      <use xlink:href="#ArialMT-50" transform="translate(105.609375 0)"/>
      <use xlink:href="#ArialMT-58" transform="translate(188.90625 0)"/>
      <use xlink:href="#ArialMT-4f" transform="translate(244.515625 0)"/>
      <use xlink:href="#ArialMT-44" transform="translate(266.734375 0)"/>
      <use xlink:href="#ArialMT-57" transform="translate(322.34375 0)"/>
      <use xlink:href="#ArialMT-4c" transform="translate(350.125 0)"/>
      <use xlink:href="#ArialMT-59" transform="translate(372.34375 0)"/>
      <use xlink:href="#ArialMT-48" transform="translate(422.34375 0)"/>
      <use xlink:href="#ArialMT-3" transform="translate(477.953125 0)"/>
      <use xlink:href="#ArialMT-49" transform="translate(505.734375 0)"/>
      <use xlink:href="#ArialMT-55" transform="translate(533.515625 0)"/>
      <use xlink:href="#ArialMT-44" transform="translate(566.8125 0)"/>
      <use xlink:href="#ArialMT-46" transform="translate(622.421875 0)"/>
      <use xlink:href="#ArialMT-57" transform="translate(672.421875 0)"/>
      <use xlink:href="#ArialMT-4c" transform="translate(700.203125 0)"/>
      <use xlink:href="#ArialMT-52" transform="translate(722.421875 0)"/>
      <use xlink:href="#ArialMT-51" transform="translate(778.03125 0)"/>
     </g>
    </g>
   </g>
   <g id="line2d_12">
    <path d="M 190.972199 177.012316 
L 194.249241 176.856304 
L 194.716814 176.54428 
L 194.722759 176.388268 
L 195.611334 176.076244 
L 195.94784 175.920232 
L 196.016949 175.76422 
L 197.834758 175.140171 
L 197.83893 174.984159 
L 198.024823 174.828147 
L 198.951141 174.360111 
L 198.954868 174.204099 
L 199.477154 173.892075 
L 199.483222 173.736063 
L 199.923649 173.424039 
L 200.242538 173.112015 
L 200.609681 172.643978 
L 200.680887 172.331954 
L 200.965791 171.707906 
L 201.996386 171.395882 
L 202.141788 171.083858 
L 202.565712 170.927846 
L 203.565679 170.771834 
L 203.779257 170.615822 
L 204.199432 170.45981 
L 205.22083 170.303797 
L 205.222898 170.147785 
L 205.364893 169.991773 
L 205.954844 169.679749 
L 206.139221 169.523737 
L 206.231331 169.211713 
L 206.770838 168.587665 
L 207.660525 168.431653 
L 207.75026 167.963617 
L 208.079285 167.651592 
L 208.607183 167.339568 
L 208.846442 167.183556 
L 209.00866 166.871532 
L 209.299544 166.559508 
L 209.376236 166.247484 
L 209.645376 165.623436 
L 209.8099 164.843375 
L 210.29998 164.375339 
L 210.542781 164.219327 
L 210.638196 163.595279 
L 212.273139 161.567122 
L 212.833007 161.255098 
L 212.983691 160.943074 
L 213.099893 160.163014 
L 213.35917 159.850989 
L 213.703986 159.694977 
L 213.730051 159.538965 
L 213.886942 159.226941 
L 213.947483 159.070929 
L 214.185818 158.914917 
L 214.197846 158.758905 
L 214.747044 158.602893 
L 214.877293 158.290869 
L 214.983343 158.134857 
L 215.310854 157.978845 
L 215.456642 157.354796 
L 215.4788 157.198784 
L 215.726617 156.88676 
L 215.774978 156.574736 
L 216.7544 155.794676 
L 217.041123 154.858604 
L 217.254451 154.546579 
L 217.290867 154.390567 
L 217.493886 154.078543 
L 218.104645 153.142471 
L 218.363617 152.518423 
L 218.427909 152.362411 
L 218.722007 152.206398 
L 218.866565 151.894374 
L 219.112526 151.58235 
L 219.266923 150.80229 
L 219.31219 150.334254 
L 221.145781 148.306097 
L 221.729339 147.994073 
L 221.971211 147.526037 
L 222.38224 147.058 
L 222.564728 146.745976 
L 222.586768 146.589964 
L 223.158442 146.433952 
L 223.566363 145.653892 
L 223.902469 145.49788 
L 224.095722 145.185856 
L 224.457471 144.71782 
L 224.831764 143.469723 
L 225.534397 142.845675 
L 225.761075 142.221627 
L 226.296626 142.065615 
L 226.439038 141.285554 
L 226.852165 140.97353 
L 226.908654 140.817518 
L 227.337017 140.505494 
L 228.154396 139.881446 
L 228.583771 138.945373 
L 228.788078 138.633349 
L 228.825699 138.321325 
L 229.397378 137.853289 
L 229.527482 137.541265 
L 229.84335 137.073229 
L 229.845337 136.917217 
L 229.961462 136.761205 
L 230.240768 136.605192 
L 230.364919 135.825132 
L 231.18955 134.733048 
L 231.193342 134.577036 
L 231.644161 134.265012 
L 231.755824 133.796975 
L 232.217799 132.548879 
L 232.310241 132.080843 
L 232.590934 131.768819 
L 232.692284 131.456794 
L 232.875605 131.14477 
L 232.945923 130.832746 
L 233.652475 130.052686 
L 234.14368 129.896674 
L 234.239378 129.58465 
L 234.396709 129.272626 
L 234.626393 128.648577 
L 234.819547 128.180541 
L 235.057175 127.868517 
L 235.627224 126.776433 
L 235.971035 126.308396 
L 236.054167 126.152384 
L 236.371536 125.996372 
L 236.645965 125.216312 
L 236.935883 124.904288 
L 237.714485 123.032143 
L 238.311717 122.720119 
L 238.371803 122.252083 
L 238.724903 121.784047 
L 238.726032 121.628035 
L 238.951465 121.472023 
L 239.117147 121.003986 
L 239.487044 120.53595 
L 239.50514 120.379938 
L 239.883181 120.067914 
L 240.333891 119.911902 
L 240.553653 118.663806 
L 240.556348 118.507793 
L 241.810018 117.259697 
L 241.822981 117.103685 
L 242.170663 116.791661 
L 242.26305 116.323625 
L 242.528005 115.855588 
L 242.528435 115.699576 
L 243.016078 115.543564 
L 243.17638 114.607492 
L 243.743074 114.295468 
L 243.926006 113.67142 
L 244.061746 113.359395 
L 244.182688 112.891359 
L 244.463861 112.735347 
L 244.537399 112.267311 
L 244.82639 111.799275 
L 245.300295 111.487251 
L 245.406173 111.175227 
L 245.925398 110.70719 
L 246.148849 110.239154 
L 246.380912 109.92713 
L 247.247155 108.210997 
L 247.366709 107.742961 
L 247.644387 107.274925 
L 248.388846 106.338853 
L 249.655838 103.530636 
L 249.97421 103.218612 
L 250.172146 102.594563 
L 250.626172 102.438551 
L 250.777575 101.970515 
L 251.172822 101.814503 
L 251.691213 100.566407 
L 252.11745 99.630334 
L 252.315878 99.31831 
L 253.171047 97.134141 
L 254.756838 95.730033 
L 254.778587 95.574021 
L 255.101323 95.261996 
L 255.228759 94.949972 
L 255.325532 94.481936 
L 255.460481 94.169912 
L 255.525707 94.0139 
L 255.94836 93.701876 
L 256.029452 93.545864 
L 256.346137 93.389852 
L 256.394297 93.077828 
L 256.703412 92.453779 
L 256.970747 91.829731 
L 257.517971 91.517707 
L 257.870928 90.893659 
L 258.058435 90.581635 
L 258.150279 90.269611 
L 259.100245 89.957586 
L 260.080685 89.021514 
L 260.181326 88.70949 
L 260.465226 88.397466 
L 260.542665 88.085442 
L 260.649579 87.773418 
L 260.776507 87.461393 
L 261.116715 87.305381 
L 261.333558 86.681333 
L 261.593757 86.369309 
L 261.929375 86.213297 
L 261.93862 86.057285 
L 262.390881 85.433237 
L 262.589792 85.121213 
L 263.439145 84.497164 
L 263.78132 84.18514 
L 263.962018 84.029128 
L 264.379306 83.873116 
L 264.527308 83.40508 
L 264.667017 83.249068 
L 265.025119 83.093056 
L 265.119193 82.781032 
L 265.490776 82.469008 
L 265.504944 82.312995 
L 266.27201 81.688947 
L 266.406082 81.376923 
L 267.006171 80.440851 
L 267.419767 80.284839 
L 267.427367 80.128827 
L 268.089293 79.66079 
L 268.58327 79.348766 
L 268.666586 79.036742 
L 268.70452 78.724718 
L 268.86794 78.568706 
L 269.42049 78.412694 
L 270.521846 76.384537 
L 270.618789 76.228525 
L 271.137654 75.916501 
L 271.401831 75.604477 
L 272.114225 75.448465 
L 272.179335 75.292453 
L 272.516803 74.980429 
L 272.585575 74.668405 
L 272.947272 74.35638 
L 273.680419 73.420308 
L 273.986407 73.264296 
L 273.994458 73.108284 
L 274.229541 72.79626 
L 274.367863 72.328224 
L 274.658301 71.704175 
L 275.091093 71.236139 
L 275.104816 71.080127 
L 276.30225 70.612091 
L 276.618312 69.988043 
L 276.729225 69.676019 
L 276.973914 69.520007 
L 277.040374 69.207982 
L 278.078238 68.27191 
L 279.16903 67.647862 
L 279.246372 67.49185 
L 279.906459 67.179826 
L 280.289952 66.243753 
L 280.635341 65.931729 
L 280.788267 65.775717 
L 281.847873 65.307681 
L 281.881998 65.151669 
L 282.807965 64.683633 
L 282.816993 64.527621 
L 283.5003 64.059584 
L 283.652912 63.74756 
L 283.81189 63.435536 
L 285.232183 62.9675 
L 285.461562 62.343452 
L 285.914024 62.031428 
L 286.324241 61.407379 
L 287.08192 61.251367 
L 287.241093 60.783331 
L 287.27802 60.627319 
L 287.508039 60.471307 
L 287.537074 60.159283 
L 287.764769 60.003271 
L 288.71078 59.847259 
L 289.624691 59.223211 
L 290.025714 58.911186 
L 290.254516 58.131126 
L 291.449313 57.039042 
L 291.546111 56.88303 
L 292.521717 56.571006 
L 292.539382 56.414993 
L 292.691094 56.102969 
L 292.870795 55.790945 
L 293.267215 55.634933 
L 293.350244 55.478921 
L 294.026046 55.166897 
L 294.098044 54.854873 
L 294.291267 54.542849 
L 295.857334 52.826716 
L 295.89324 52.670704 
L 296.368551 52.202668 
L 298.163302 51.57862 
L 298.301944 51.422608 
L 299.020069 51.266595 
L 299.081205 51.110583 
L 300.315248 50.954571 
L 300.409987 50.798559 
L 300.72769 50.642547 
L 300.782229 50.486535 
L 301.335045 50.174511 
L 301.459251 49.862487 
L 301.529217 49.706475 
L 302.510797 49.394451 
L 302.676165 49.082427 
L 304.023922 48.302366 
L 304.201942 48.146354 
L 305.346219 47.83433 
L 306.071719 47.210282 
L 306.213793 46.742246 
L 307.27017 46.586234 
L 307.938875 46.27421 
L 308.453277 45.962185 
L 308.506389 45.494149 
L 309.502984 45.338137 
L 310.673509 44.402065 
L 311.266636 44.246053 
L 311.390125 43.778017 
L 311.848059 43.465992 
L 312.312077 42.841944 
L 312.659234 42.685932 
L 314.294171 42.52992 
L 314.30767 42.373908 
L 315.203642 41.74986 
L 319.696454 40.501763 
L 319.831538 40.033727 
L 320.614573 39.877715 
L 320.724691 39.721703 
L 321.453556 39.409679 
L 321.529102 39.253667 
L 323.313411 38.941643 
L 323.344048 38.785631 
L 323.74398 38.473607 
L 323.853904 38.317594 
L 325.171547 37.849558 
L 325.57495 37.22551 
L 326.252101 36.913486 
L 326.443255 36.44545 
L 327.536486 36.133426 
L 327.634109 35.977414 
L 327.956913 35.821401 
L 330.202424 35.197353 
L 330.476723 35.041341 
L 331.280378 34.729317 
L 331.433618 34.417293 
L 332.023979 34.261281 
L 332.048381 34.105269 
L 334.101302 33.793245 
L 335.453567 33.481221 
L 335.516165 33.169196 
L 335.828771 32.857172 
L 335.863245 32.70116 
L 336.114987 32.545148 
L 337.730947 32.233124 
L 338.463289 32.077112 
L 338.532538 31.9211 
L 339.479847 31.765088 
L 342.062422 31.453064 
L 342.166927 31.14104 
L 343.714404 30.829016 
L 345.376372 30.516991 
L 346.695235 30.204967 
L 350.652236 29.580919 
L 353.007192 29.424907 
L 353.275997 29.268895 
L 354.513806 29.112883 
L 354.809037 28.800859 
L 356.950777 28.488835 
L 357.354155 28.332823 
L 361.322117 28.020798 
L 361.815489 27.864786 
L 364.753867 27.708774 
L 364.952466 27.552762 
L 366.272047 27.240738 
L 368.015247 27.084726 
L 371.488554 26.928714 
L 372.939144 26.460678 
L 373.136836 26.304666 
L 375.477201 26.148654 
L 376.056013 25.83663 
L 376.357781 25.680618 
L 377.685499 25.524606 
L 383.660052 25.056569 
L 383.892665 24.900557 
L 385.227642 24.744545 
L 385.372615 24.588533 
L 387.92975 24.276509 
L 406.556692 23.652461 
L 408.264499 23.340437 
L 418.045171 23.184425 
L 420.472823 23.028413 
L 442.731639 22.560376 
L 443.298436 22.404364 
L 447.265722 22.248352 
L 473.36081 21.936328 
L 473.36081 21.936328 
" clip-path="url(#p128d45d5a3)" style="fill: none; stroke: #111111; stroke-width: 2; stroke-linecap: round"/>
   </g>
   <g id="line2d_13">
    <path d="M 160.191693 177.012316 
L 160.2302 176.856304 
L 163.964629 176.388268 
L 164.086951 176.232256 
L 164.63296 175.920232 
L 165.155324 175.452195 
L 165.216612 175.296183 
L 165.771167 174.828147 
L 165.78633 174.672135 
L 166.510845 174.360111 
L 166.550904 174.048087 
L 166.833814 173.736063 
L 167.051305 173.112015 
L 167.092291 172.79999 
L 167.698679 172.487966 
L 167.851162 172.175942 
L 168.17811 171.863918 
L 168.321984 171.395882 
L 168.553668 170.615822 
L 169.074788 169.679749 
L 169.312962 168.587665 
L 169.643039 168.431653 
L 169.911226 167.963617 
L 170.065386 167.49558 
L 170.116927 167.183556 
L 170.48463 166.871532 
L 170.615442 166.403496 
L 171.026713 165.93546 
L 171.221297 164.843375 
L 171.224043 164.687363 
L 171.417384 164.375339 
L 171.795407 162.815219 
L 171.909618 161.723134 
L 172.460705 158.758905 
L 172.498723 158.290869 
L 172.760091 158.134857 
L 172.888829 157.666821 
L 173.026559 157.198784 
L 173.393353 155.950688 
L 173.639256 155.014616 
L 173.77575 154.234555 
L 174.007412 153.610507 
L 174.687795 150.02223 
L 174.800808 149.242169 
L 174.925154 148.774133 
L 175.094765 147.682049 
L 175.157505 147.214013 
L 175.353426 146.433952 
L 175.54609 145.185856 
L 175.711536 144.093771 
L 175.911945 143.625735 
L 176.048347 142.065615 
L 176.490493 140.661506 
L 176.676269 139.725434 
L 176.750238 139.257397 
L 176.846409 138.945373 
L 177.34395 137.073229 
L 177.591862 135.513108 
L 177.756182 135.201084 
L 178.352804 130.520722 
L 178.464348 129.272626 
L 178.635937 128.960601 
L 178.706677 128.492565 
L 178.819548 127.712505 
L 178.912859 127.244469 
L 179.015188 126.776433 
L 179.465717 125.0603 
L 179.794953 122.252083 
L 180.502388 117.727733 
L 180.700646 117.415709 
L 180.83544 116.479637 
L 180.861072 116.167613 
L 181.043133 115.855588 
L 181.311515 114.607492 
L 181.520179 113.67142 
L 181.988114 111.799275 
L 182.151583 111.487251 
L 182.228461 110.863202 
L 182.377041 110.083142 
L 182.449821 109.771118 
L 182.712264 109.459094 
L 182.787019 108.679034 
L 183.259995 107.586949 
L 183.415835 106.338853 
L 183.539973 106.026829 
L 183.969577 104.466708 
L 184.098263 103.84266 
L 184.301831 103.530636 
L 184.817564 101.970515 
L 185.071277 101.190455 
L 185.370083 100.566407 
L 185.474766 100.09837 
L 185.706919 99.786346 
L 185.813226 99.006286 
L 186.403503 96.666105 
L 186.517097 95.886045 
L 186.758661 94.79396 
L 187.059766 94.169912 
L 187.176847 93.389852 
L 187.333891 92.921816 
L 187.369309 92.297767 
L 187.52512 91.985743 
L 187.649935 91.673719 
L 187.806147 91.205683 
L 188.160906 90.581635 
L 188.164591 90.425623 
L 188.413896 90.113598 
L 188.622382 89.801574 
L 189.383857 86.681333 
L 189.434107 86.369309 
L 189.593766 86.057285 
L 189.808033 85.277225 
L 189.951984 84.809188 
L 190.039274 84.497164 
L 190.157527 84.18514 
L 190.326411 83.873116 
L 190.630264 82.937044 
L 190.969429 81.844959 
L 191.143715 81.688947 
L 191.282139 80.908887 
L 191.404922 80.596863 
L 191.57014 80.284839 
L 191.686964 79.972815 
L 191.784594 79.504778 
L 192.076355 79.192754 
L 192.187362 78.88073 
L 192.784768 78.412694 
L 192.862888 77.788646 
L 193.024277 77.476622 
L 193.132086 77.008585 
L 193.218936 76.696561 
L 193.558878 76.072513 
L 193.830702 75.916501 
L 194.034228 75.448465 
L 194.276308 74.824417 
L 194.463518 74.35638 
L 194.771866 74.200368 
L 194.873421 73.732332 
L 195.471905 72.016199 
L 195.754669 71.548163 
L 195.757216 71.080127 
L 195.928665 70.768103 
L 195.996092 70.300067 
L 196.272454 70.144055 
L 196.361157 69.520007 
L 196.508862 69.363994 
L 196.829313 69.207982 
L 197.170061 68.427922 
L 197.320463 68.115898 
L 197.357432 67.803874 
L 197.721342 67.49185 
L 198.062065 66.711789 
L 198.289271 65.931729 
L 198.499222 65.619705 
L 198.590637 65.307681 
L 198.83047 65.151669 
L 198.986995 64.683633 
L 199.770296 62.9675 
L 200.001328 62.655476 
L 200.364372 62.031428 
L 200.390228 61.875416 
L 201.021885 61.407379 
L 201.258954 61.095355 
L 201.386854 60.783331 
L 201.650924 60.159283 
L 202.1383 59.691247 
L 202.563493 59.535235 
L 203.218556 57.975114 
L 203.522766 57.66309 
L 203.88754 57.039042 
L 204.331568 56.88303 
L 204.383274 56.727018 
L 204.826105 56.414993 
L 205.224409 55.478921 
L 205.443902 55.166897 
L 205.860707 54.542849 
L 206.135239 54.074813 
L 206.490291 53.9188 
L 206.603364 53.606776 
L 207.06755 53.450764 
L 208.185449 51.890644 
L 208.845975 51.57862 
L 209.011464 50.954571 
L 209.394246 50.018499 
L 209.748146 49.706475 
L 209.882168 49.394451 
L 210.581026 48.61439 
L 210.583148 48.458378 
L 211.024333 48.146354 
L 211.031053 47.990342 
L 211.247449 47.678318 
L 211.302793 47.522306 
L 212.040393 46.898258 
L 212.243497 46.430222 
L 212.963912 46.27421 
L 213.081567 45.962185 
L 213.304885 45.806173 
L 213.355867 45.338137 
L 213.699615 45.182125 
L 214.000462 44.558077 
L 214.563844 44.246053 
L 214.751618 43.934029 
L 215.086189 43.778017 
L 215.114521 43.622005 
L 215.700411 43.153968 
L 215.801478 42.841944 
L 216.256848 42.52992 
L 216.500384 42.373908 
L 217.432758 42.217896 
L 217.565289 42.061884 
L 218.082096 41.74986 
L 218.68502 41.437836 
L 218.689323 41.281824 
L 219.5926 40.969799 
L 219.649577 40.657775 
L 219.842312 40.501763 
L 221.35543 40.033727 
L 221.359441 39.877715 
L 222.334094 39.253667 
L 222.470461 38.941643 
L 223.130152 38.629619 
L 223.467587 38.161582 
L 224.04223 37.849558 
L 224.939455 37.22551 
L 225.811884 36.913486 
L 225.8264 36.757474 
L 226.230908 36.601462 
L 226.287947 36.44545 
L 227.42784 36.133426 
L 228.107264 35.821401 
L 228.138855 35.665389 
L 228.305323 35.509377 
L 228.890697 35.353365 
L 228.890863 35.197353 
L 229.353982 35.041341 
L 230.2249 34.885329 
L 230.459873 34.729317 
L 231.551332 34.573305 
L 231.708164 34.417293 
L 234.09775 34.105269 
L 235.029991 33.793245 
L 235.11705 33.637233 
L 235.839701 33.325209 
L 237.30961 33.169196 
L 237.322616 33.013184 
L 237.994315 32.389136 
L 238.576298 32.233124 
L 238.581406 32.077112 
L 239.968321 31.765088 
L 241.108155 31.609076 
L 241.354686 31.453064 
L 241.841244 31.297052 
L 241.879134 31.14104 
L 243.12326 30.829016 
L 243.173377 30.673004 
L 245.267893 30.360979 
L 246.39268 29.892943 
L 246.808941 29.580919 
L 246.969482 29.268895 
L 247.360545 29.112883 
L 249.004307 28.956871 
L 249.196619 28.644847 
L 249.977518 28.488835 
L 250.164872 28.332823 
L 251.038888 28.020798 
L 254.077127 27.864786 
L 255.0304 27.552762 
L 258.208342 27.240738 
L 258.892538 27.084726 
L 258.985967 26.928714 
L 261.57358 26.460678 
L 262.595958 26.304666 
L 266.805423 25.992642 
L 267.931485 25.680618 
L 273.783381 25.368593 
L 275.748232 25.212581 
L 277.264976 24.744545 
L 293.525658 23.964485 
L 300.838522 23.808473 
L 302.247991 23.496449 
L 303.274317 23.340437 
L 330.221953 22.716388 
L 360.868265 21.936328 
L 360.868265 21.936328 
" clip-path="url(#p128d45d5a3)" style="fill: none; stroke: #4878cf; stroke-width: 1.2; stroke-linecap: round"/>
   </g>
   <g id="line2d_14">
    <path d="M 67.675213 177.012316 
L 67.688338 176.856304 
L 68.192853 176.54428 
L 68.647437 175.920232 
L 68.707366 175.608208 
L 69.133658 174.672135 
L 69.240248 173.892075 
L 69.305683 173.580051 
L 69.650838 173.112015 
L 69.984748 172.01993 
L 70.216849 171.707906 
L 70.407025 171.23987 
L 70.759667 170.45981 
L 70.961908 169.991773 
L 71.078205 169.679749 
L 71.307801 169.211713 
L 71.738852 169.055701 
L 72.344079 167.651592 
L 72.568228 167.339568 
L 73.23755 166.091472 
L 74.682758 163.439267 
L 74.715486 163.127243 
L 74.92781 162.815219 
L 75.050239 162.347182 
L 75.751901 161.41111 
L 76.227314 161.255098 
L 76.517607 160.007001 
L 76.903131 159.694977 
L 77.157246 159.382953 
L 77.211509 159.070929 
L 77.42002 158.758905 
L 77.505967 158.446881 
L 78.332566 158.134857 
L 78.476989 157.822833 
L 78.746429 157.510809 
L 78.825282 157.198784 
L 79.242494 156.88676 
L 79.493716 156.730748 
L 79.654529 156.262712 
L 79.743662 156.1067 
L 80.092762 155.794676 
L 80.827671 153.766519 
L 81.565803 152.362411 
L 81.905873 152.206398 
L 82.250834 151.270326 
L 82.975935 150.958302 
L 83.20464 150.334254 
L 83.653484 150.02223 
L 83.710747 149.710206 
L 84.083627 149.554193 
L 84.109759 149.398181 
L 84.486967 148.930145 
L 84.736444 148.306097 
L 85.342185 148.150085 
L 85.683309 147.370025 
L 85.73571 146.901988 
L 86.213804 146.27794 
L 86.686851 145.029844 
L 86.799906 144.873832 
L 87.325877 144.71782 
L 87.583389 143.937759 
L 88.214643 143.625735 
L 88.973933 142.845675 
L 89.29299 142.065615 
L 89.80826 141.597578 
L 89.900589 141.285554 
L 90.061519 140.97353 
L 90.250909 140.661506 
L 91.055464 140.19347 
L 91.425003 139.569422 
L 91.772199 139.257397 
L 91.869314 138.945373 
L 92.18418 138.633349 
L 92.310288 138.009301 
L 92.601069 137.541265 
L 92.72353 137.229241 
L 92.797824 137.073229 
L 93.205267 136.917217 
L 93.596707 136.137156 
L 93.864241 135.981144 
L 94.056702 135.66912 
L 94.596929 134.733048 
L 94.751918 134.265012 
L 95.032246 133.796975 
L 95.432206 132.860903 
L 96.197659 132.080843 
L 96.428741 131.300782 
L 96.959126 130.988758 
L 97.571394 130.052686 
L 97.721748 129.428638 
L 98.13998 128.960601 
L 98.294257 128.492565 
L 98.438797 128.180541 
L 98.8329 127.400481 
L 99.124266 126.932445 
L 99.269936 126.464409 
L 99.385941 126.308396 
L 99.740195 125.996372 
L 99.979008 125.684348 
L 100.076422 125.372324 
L 100.469767 125.0603 
L 100.670582 124.436252 
L 101.002711 123.812204 
L 101.006948 123.656191 
L 101.455291 123.500179 
L 101.904327 122.564107 
L 101.997521 122.252083 
L 102.323631 121.940059 
L 102.616761 121.628035 
L 102.731834 121.159998 
L 103.191702 120.847974 
L 103.244573 120.379938 
L 104.174217 119.75589 
L 104.474957 118.819818 
L 104.63188 118.351781 
L 104.823873 117.727733 
L 105.048512 117.415709 
L 105.058394 117.259697 
L 105.275266 116.947673 
L 105.379397 116.635649 
L 105.459239 116.323625 
L 105.901961 115.855588 
L 105.983953 115.543564 
L 107.065315 114.919516 
L 107.138789 114.607492 
L 107.29709 114.45148 
L 107.73863 114.295468 
L 107.866943 113.983444 
L 108.033673 113.203383 
L 108.353534 112.891359 
L 108.626608 112.111299 
L 109.000217 111.331239 
L 109.254939 111.019215 
L 109.523188 110.239154 
L 109.997568 109.771118 
L 110.025625 109.615106 
L 110.376316 109.459094 
L 110.469514 108.991058 
L 110.960699 108.36701 
L 111.028257 108.210997 
L 111.40043 108.054985 
L 111.517013 107.586949 
L 111.902337 106.650877 
L 111.917777 106.494865 
L 113.090593 105.714805 
L 113.245339 105.40278 
L 113.887035 105.246768 
L 114.007167 104.934744 
L 114.186749 104.62272 
L 114.292121 104.310696 
L 114.726064 103.84266 
L 114.832015 103.530636 
L 115.20374 103.374624 
L 115.3199 102.906587 
L 115.414118 102.438551 
L 116.22854 101.970515 
L 116.548871 101.658491 
L 116.682911 101.190455 
L 117.145083 100.722419 
L 117.336312 100.410394 
L 117.515194 99.630334 
L 117.74366 99.162298 
L 118.001679 98.850274 
L 119.288763 96.042057 
L 119.706469 95.730033 
L 119.841124 95.261996 
L 120.210299 94.949972 
L 120.469855 94.79396 
L 120.54208 94.481936 
L 120.69257 94.169912 
L 121.225912 93.857888 
L 121.239697 93.701876 
L 121.401103 93.545864 
L 122.16183 93.23384 
L 122.586168 92.609791 
L 122.664395 92.141755 
L 122.971831 91.673719 
L 123.167678 91.361695 
L 123.23084 91.049671 
L 123.391562 90.737647 
L 123.44184 90.425623 
L 123.825729 90.113598 
L 124.115141 89.957586 
L 124.245234 89.645562 
L 124.408066 89.333538 
L 125.349625 88.241454 
L 125.35263 88.085442 
L 125.708596 87.773418 
L 125.712265 87.617406 
L 126.359356 86.837345 
L 126.371537 86.681333 
L 127.271917 85.901273 
L 128.921377 84.341152 
L 128.923909 84.18514 
L 129.223306 83.873116 
L 129.304836 83.40508 
L 129.797034 82.781032 
L 130.094393 82.62502 
L 130.145772 82.469008 
L 130.60964 82.156983 
L 130.624219 82.000971 
L 130.824159 81.844959 
L 130.940355 81.532935 
L 131.188894 81.064899 
L 131.194859 80.908887 
L 131.434575 80.596863 
L 131.70595 80.284839 
L 131.879871 79.972815 
L 132.005648 79.66079 
L 132.149111 79.192754 
L 132.423478 78.724718 
L 132.469489 78.412694 
L 132.969362 77.788646 
L 133.368802 77.632634 
L 133.535363 77.164597 
L 133.751017 76.852573 
L 133.793517 76.540549 
L 133.933058 76.228525 
L 134.049941 75.760489 
L 134.72782 75.292453 
L 134.749218 75.136441 
L 135.025283 74.824417 
L 135.213977 74.35638 
L 135.463815 74.200368 
L 135.50102 74.044356 
L 136.853119 73.420308 
L 136.907899 73.264296 
L 137.510882 72.79626 
L 137.513966 72.640248 
L 137.73289 72.484236 
L 137.85585 72.172212 
L 137.935013 72.016199 
L 138.58976 71.548163 
L 138.592572 71.392151 
L 139.636847 70.924115 
L 140.001277 70.300067 
L 140.348377 69.988043 
L 140.355111 69.832031 
L 140.581436 69.520007 
L 140.746036 69.207982 
L 141.225777 68.739946 
L 141.464173 68.427922 
L 142.005832 67.959886 
L 142.015415 67.803874 
L 142.14926 67.49185 
L 142.263911 67.179826 
L 142.438472 67.023814 
L 142.48435 66.711789 
L 142.770991 66.399765 
L 142.828846 66.243753 
L 143.128573 66.087741 
L 143.696316 65.931729 
L 144.864183 64.527621 
L 144.961226 64.215596 
L 146.244791 63.74756 
L 146.561716 62.499464 
L 147.34688 61.407379 
L 148.004982 60.939343 
L 148.031156 60.783331 
L 148.489856 60.627319 
L 148.73605 60.315295 
L 149.906399 59.691247 
L 151.211891 59.535235 
L 151.646432 58.911186 
L 151.930712 58.599162 
L 152.271376 58.44315 
L 152.313661 58.287138 
L 152.521634 57.975114 
L 152.62379 57.819102 
L 152.888398 57.66309 
L 154.785999 57.195054 
L 154.855466 57.039042 
L 155.081694 56.88303 
L 155.74801 56.727018 
L 155.844086 56.414993 
L 156.110913 56.258981 
L 156.916077 56.102969 
L 156.992431 55.946957 
L 157.264826 55.790945 
L 158.294636 55.634933 
L 158.886714 54.698861 
L 159.065125 54.386837 
L 159.662135 54.074813 
L 159.737789 53.9188 
L 160.288048 53.762788 
L 160.863287 52.826716 
L 161.437843 52.670704 
L 161.789597 52.202668 
L 162.06124 51.890644 
L 162.303434 51.57862 
L 162.84781 51.422608 
L 163.372108 50.798559 
L 164.080566 50.330523 
L 164.213915 49.862487 
L 164.643784 49.550463 
L 165.771046 49.394451 
L 166.176705 49.082427 
L 166.762785 48.770402 
L 167.392266 48.302366 
L 167.421719 48.146354 
L 167.944447 47.990342 
L 168.259834 47.366294 
L 168.281224 47.210282 
L 168.574151 46.742246 
L 168.679785 46.586234 
L 169.036993 46.430222 
L 169.193846 45.962185 
L 169.874084 45.338137 
L 169.923533 45.182125 
L 170.449311 44.870101 
L 171.844068 44.714089 
L 172.223185 44.402065 
L 172.274228 44.246053 
L 172.949478 44.090041 
L 173.005275 43.934029 
L 174.524379 43.622005 
L 175.043205 43.465992 
L 175.10002 43.30998 
L 175.613273 43.153968 
L 175.68625 42.997956 
L 175.924749 42.841944 
L 175.941058 42.685932 
L 177.055101 41.905872 
L 177.21852 41.74986 
L 177.575902 41.593848 
L 178.519516 41.437836 
L 179.343217 40.969799 
L 180.735194 40.657775 
L 181.11269 40.501763 
L 181.16226 40.345751 
L 182.480133 39.721703 
L 182.578674 39.565691 
L 183.447487 39.253667 
L 183.842218 39.097655 
L 184.010572 38.785631 
L 185.688003 38.317594 
L 186.384152 38.161582 
L 186.427927 38.00557 
L 186.980337 37.693546 
L 188.851966 37.22551 
L 189.103833 37.069498 
L 189.764475 36.757474 
L 190.002945 36.601462 
L 190.078631 36.289438 
L 190.730897 35.977414 
L 190.910745 35.821401 
L 191.536095 35.665389 
L 191.657162 35.353365 
L 193.096192 35.197353 
L 193.454404 35.041341 
L 195.047219 34.729317 
L 195.057367 34.573305 
L 196.339859 34.261281 
L 196.406987 34.105269 
L 200.53333 33.793245 
L 200.687951 33.325209 
L 202.456447 32.857172 
L 202.767191 32.545148 
L 203.931556 32.077112 
L 204.199512 31.9211 
L 205.583639 31.765088 
L 205.925907 31.609076 
L 207.91469 31.14104 
L 212.07565 30.829016 
L 212.081388 30.673004 
L 212.235301 30.516991 
L 213.390006 30.360979 
L 213.710613 30.204967 
L 215.466402 29.736931 
L 215.955553 29.112883 
L 216.01158 28.956871 
L 217.708801 28.644847 
L 218.55332 28.488835 
L 219.148565 28.020798 
L 219.440005 27.864786 
L 220.607959 27.708774 
L 220.669838 27.552762 
L 220.881201 27.39675 
L 228.739136 26.772702 
L 231.537399 26.460678 
L 236.91037 26.304666 
L 239.505649 25.992642 
L 244.629663 25.524606 
L 244.782739 25.368593 
L 248.7952 24.432521 
L 256.450706 23.964485 
L 257.105892 23.652461 
L 258.906131 23.496449 
L 259.149621 23.340437 
L 262.887318 23.184425 
L 263.048793 22.8724 
L 286.023212 22.404364 
L 329.328434 22.09234 
L 330.263709 21.936328 
L 330.263709 21.936328 
" clip-path="url(#p128d45d5a3)" style="fill: none; stroke: #d1701f; stroke-width: 1.2; stroke-linecap: round"/>
   </g>
   <g id="line2d_15">
    <path d="M 67.542628 177.012316 
L 67.770775 175.608208 
L 67.891417 175.296183 
L 68.056126 173.736063 
L 68.250246 172.331954 
L 68.635986 169.055701 
L 68.863942 166.559508 
L 69.029425 165.467424 
L 69.249272 163.595279 
L 69.346456 163.283255 
L 69.576111 160.943074 
L 70.491448 153.454495 
L 70.614543 152.206398 
L 70.875584 149.710206 
L 71.035194 149.398181 
L 71.217105 147.994073 
L 71.308104 147.526037 
L 71.423649 146.745976 
L 71.616285 145.029844 
L 71.834123 142.845675 
L 72.425777 138.321325 
L 72.546882 136.917217 
L 72.641149 136.44918 
L 72.746184 135.357096 
L 73.001122 133.328939 
L 73.19825 130.988758 
L 73.335548 130.676734 
L 73.452826 129.272626 
L 73.579382 128.804589 
L 73.693347 127.244469 
L 74.011917 123.968216 
L 74.13093 122.096071 
L 74.248145 121.316011 
L 74.471627 119.911902 
L 74.676116 118.663806 
L 74.830745 116.167613 
L 74.946294 115.699576 
L 76.399487 103.84266 
L 76.575959 101.814503 
L 76.829845 100.566407 
L 77.105751 97.290153 
L 77.247582 96.198069 
L 77.389798 94.949972 
L 77.831421 90.737647 
L 77.942856 89.801574 
L 78.120315 89.177526 
L 78.570072 84.9652 
L 78.807838 83.717104 
L 78.882645 83.40508 
L 78.994733 82.156983 
L 79.234893 80.596863 
L 79.4954 78.724718 
L 79.662857 76.696561 
L 79.828812 75.448465 
L 79.968273 73.264296 
L 80.258448 70.612091 
L 81.05929 66.243753 
L 81.802493 62.18744 
L 81.90735 61.251367 
L 82.073738 59.691247 
L 82.238263 58.44315 
L 82.446901 55.946957 
L 82.783892 53.9188 
L 82.858 53.294752 
L 83.071352 53.13874 
L 83.540075 50.486535 
L 83.754087 49.550463 
L 83.843156 48.302366 
L 83.980479 47.990342 
L 84.038497 47.366294 
L 84.205859 46.27421 
L 84.322149 45.962185 
L 84.415114 45.182125 
L 84.57114 44.870101 
L 84.645614 44.558077 
L 84.765321 43.465992 
L 84.875196 42.841944 
L 85.000147 42.217896 
L 85.062374 41.74986 
L 85.187252 40.813787 
L 85.469259 39.877715 
L 85.571906 39.409679 
L 85.78592 39.097655 
L 85.907112 38.473607 
L 85.993685 38.00557 
L 86.02357 37.693546 
L 86.161746 37.381522 
L 86.76238 35.353365 
L 86.95001 34.885329 
L 87.010948 34.573305 
L 87.163203 34.261281 
L 87.380999 33.637233 
L 87.521319 33.325209 
L 87.561878 33.169196 
L 87.746132 32.857172 
L 87.900647 32.233124 
L 88.53165 30.829016 
L 88.534678 30.673004 
L 88.846795 30.204967 
L 88.971052 29.736931 
L 89.870293 28.956871 
L 90.018187 28.644847 
L 90.028548 28.488835 
L 90.245083 28.332823 
L 90.265806 28.176811 
L 90.527946 27.864786 
L 90.703184 27.240738 
L 91.441847 25.680618 
L 91.705101 25.524606 
L 91.816544 25.212581 
L 92.509219 24.432521 
L 93.148718 24.276509 
L 93.20984 24.120497 
L 93.904142 23.808473 
L 94.382159 23.340437 
L 94.709836 23.184425 
L 98.088371 22.8724 
L 99.233127 22.716388 
L 111.012483 22.248352 
L 112.822446 22.09234 
L 117.984378 21.936328 
L 117.984378 21.936328 
" clip-path="url(#p128d45d5a3)" style="fill: none; stroke: #6a51a3; stroke-width: 1.2; stroke-linecap: round"/>
   </g>
   <g id="patch_3">
    <path d="M 47.251719 177.168328 
L 47.251719 21.936328 
" style="fill: none; stroke: #cccccc; stroke-width: 1.25; stroke-linejoin: miter; stroke-linecap: square"/>
   </g>
   <g id="patch_4">
    <path d="M 47.251719 177.168328 
L 493.651719 177.168328 
" style="fill: none; stroke: #cccccc; stroke-width: 1.25; stroke-linejoin: miter; stroke-linecap: square"/>
   </g>
   <g id="text_14">
    <!-- Correction Δv - - empirical CDF (total + burns) -->
    <g style="fill: #262626" transform="translate(149.922031 15.936328) scale(0.12 -0.12)">
     <defs>
      <path id="ArialMT-26" d="M 3763 1606 
L 4369 1453 
Q 4178 706 3683 314 
Q 3188 -78 2472 -78 
Q 1731 -78 1267 223 
Q 803 525 561 1097 
Q 319 1669 319 2325 
Q 319 3041 592 3573 
Q 866 4106 1370 4382 
Q 1875 4659 2481 4659 
Q 3169 4659 3637 4309 
Q 4106 3959 4291 3325 
L 3694 3184 
Q 3534 3684 3231 3912 
Q 2928 4141 2469 4141 
Q 1941 4141 1586 3887 
Q 1231 3634 1087 3207 
Q 944 2781 944 2328 
Q 944 1744 1114 1308 
Q 1284 872 1643 656 
Q 2003 441 2422 441 
Q 2931 441 3284 734 
Q 3638 1028 3763 1606 
z
" transform="scale(0.015625)"/>
      <path id="ArialMT-10" d="M 203 1375 
L 203 1941 
L 1931 1941 
L 1931 1375 
L 203 1375 
z
" transform="scale(0.015625)"/>
      <path id="ArialMT-53" d="M 422 -1272 
L 422 3319 
L 934 3319 
L 934 2888 
Q 1116 3141 1344 3267 
Q 1572 3394 1897 3394 
Q 2322 3394 2647 3175 
Q 2972 2956 3137 2557 
Q 3303 2159 3303 1684 
Q 3303 1175 3120 767 
Q 2938 359 2589 142 
Q 2241 -75 1856 -75 
Q 1575 -75 1351 44 
Q 1128 163 984 344 
L 984 -1272 
L 422 -1272 
z
M 931 1641 
Q 931 1000 1190 694 
Q 1450 388 1819 388 
Q 2194 388 2461 705 
Q 2728 1022 2728 1688 
Q 2728 2322 2467 2637 
Q 2206 2953 1844 2953 
Q 1484 2953 1207 2617 
Q 931 2281 931 1641 
z
" transform="scale(0.015625)"/>
      <path id="ArialMT-27" d="M 494 0 
L 494 4581 
L 2072 4581 
Q 2606 4581 2888 4516 
Q 3281 4425 3559 4188 
Q 3922 3881 4101 3404 
Q 4281 2928 4281 2316 
Q 4281 1794 4159 1391 
Q 4038 988 3847 723 
Q 3656 459 3429 307 
Q 3203 156 2883 78 
Q 2563 0 2147 0 
L 494 0 
z
M 1100 541 
L 2078 541 
Q 2531 541 2789 625 
Q 3047 709 3200 863 
Q 3416 1078 3536 1442 
Q 3656 1806 3656 2325 
Q 3656 3044 3420 3430 
Q 3184 3816 2847 3947 
Q 2603 4041 2063 4041 
L 1100 4041 
L 1100 541 
z
" transform="scale(0.015625)"/>
      <path id="ArialMT-29" d="M 525 0 
L 525 4581 
L 3616 4581 
L 3616 4041 
L 1131 4041 
L 1131 2622 
L 3281 2622 
L 3281 2081 
L 1131 2081 
L 1131 0 
L 525 0 
z
" transform="scale(0.015625)"/>
      <path id="ArialMT-e" d="M 1603 741 
L 1603 1997 
L 356 1997 
L 356 2522 
L 1603 2522 
L 1603 3769 
L 2134 3769 
L 2134 2522 
L 3381 2522 
L 3381 1997 
L 2134 1997 
L 2134 741 
L 1603 741 
z
" transform="scale(0.015625)"/>
      <path id="ArialMT-45" d="M 941 0 
L 419 0 
L 419 4581 
L 981 4581 
L 981 2947 
Q 1338 3394 1891 3394 
Q 2197 3394 2470 3270 
Q 2744 3147 2920 2923 
Q 3097 2700 3197 2384 
Q 3297 2069 3297 1709 
Q 3297 856 2875 390 
Q 2453 -75 1863 -75 
Q 1275 -75 941 416 
L 941 0 
z
M 934 1684 
Q 934 1088 1097 822 
Q 1363 388 1816 388 
Q 2184 388 2453 708 
Q 2722 1028 2722 1663 
Q 2722 2313 2464 2622 
Q 2206 2931 1841 2931 
Q 1472 2931 1203 2611 
Q 934 2291 934 1684 
z
" transform="scale(0.015625)"/>
     </defs>
     <use xlink:href="#ArialMT-26"/>
     <use xlink:href="#ArialMT-52" transform="translate(72.21875 0)"/>
     <use xlink:href="#ArialMT-55" transform="translate(127.828125 0)"/>
     <use xlink:href="#ArialMT-55" transform="translate(161.125 0)"/>
     <use xlink:href="#ArialMT-48" transform="translate(194.421875 0)"/>
     <use xlink:href="#ArialMT-46" transform="translate(250.03125 0)"/>
     <use xlink:href="#ArialMT-57" transform="translate(300.03125 0)"/>
     <use xlink:href="#ArialMT-4c" transform="translate(327.8125 0)"/>
     <use xlink:href="#ArialMT-52" transform="translate(350.03125 0)"/>
     <use xlink:href="#ArialMT-51" transform="translate(405.640625 0)"/>
     <use xlink:href="#ArialMT-3" transform="translate(461.25 0)"/>
     <use xlink:href="#ArialMT-1fb" transform="translate(489.03125 0)"/>
     <use xlink:href="#ArialMT-59" transform="translate(555.828125 0)"/>
     <use xlink:href="#ArialMT-3" transform="translate(605.828125 0)"/>
     <use xlink:href="#ArialMT-10" transform="translate(633.609375 0)"/>
     <use xlink:href="#ArialMT-10" transform="translate(666.90625 0)"/>
     <use xlink:href="#ArialMT-3" transform="translate(700.203125 0)"/>
     <use xlink:href="#ArialMT-48" transform="translate(727.984375 0)"/>
     <use xlink:href="#ArialMT-50" transform="translate(783.59375 0)"/>
     <use xlink:href="#ArialMT-53" transform="translate(866.890625 0)"/>
     <use xlink:href="#ArialMT-4c" transform="translate(922.5 0)"/>
     <use xlink:href="#ArialMT-55" transform="translate(944.71875 0)"/>
     <use xlink:href="#ArialMT-4c" transform="translate(978.015625 0)"/>
     <use xlink:href="#ArialMT-46" transform="translate(1000.234375 0)"/>
     <use xlink:href="#ArialMT-44" transform="translate(1050.234375 0)"/>
     <use xlink:href="#ArialMT-4f" transform="translate(1105.84375 0)"/>
     <use xlink:href="#ArialMT-3" transform="translate(1128.0625 0)"/>
     <use xlink:href="#ArialMT-26" transform="translate(1155.84375 0)"/>
     <use xlink:href="#ArialMT-27" transform="translate(1228.0625 0)"/>
     <use xlink:href="#ArialMT-29" transform="translate(1300.28125 0)"/>
     <use xlink:href="#ArialMT-3" transform="translate(1361.359375 0)"/>
     <use xlink:href="#ArialMT-b" transform="translate(1389.140625 0)"/>
     <use xlink:href="#ArialMT-57" transform="translate(1422.4375 0)"/>
     <use xlink:href="#ArialMT-52" transform="translate(1450.21875 0)"/>
     <use xlink:href="#ArialMT-57" transform="translate(1505.828125 0)"/>
     <use xlink:href="#ArialMT-44" transform="translate(1533.609375 0)"/>
     <use xlink:href="#ArialMT-4f" transform="translate(1589.21875 0)"/>
     <use xlink:href="#ArialMT-3" transform="translate(1611.4375 0)"/>
     <use xlink:href="#ArialMT-e" transform="translate(1639.21875 0)"/>
     <use xlink:href="#ArialMT-3" transform="translate(1697.625 0)"/>
     <use xlink:href="#ArialMT-45" transform="translate(1725.40625 0)"/>
     <use xlink:href="#ArialMT-58" transform="translate(1781.015625 0)"/>
     <use xlink:href="#ArialMT-55" transform="translate(1836.625 0)"/>
     <use xlink:href="#ArialMT-51" transform="translate(1869.921875 0)"/>
     <use xlink:href="#ArialMT-56" transform="translate(1925.53125 0)"/>
     <use xlink:href="#ArialMT-c" transform="translate(1975.53125 0)"/>
    </g>
   </g>
   <g id="legend_1">
    <g id="patch_5">
     <path d="M 371.331916 172.170328 
L 486.654519 172.170328 
Q 488.653719 172.170328 488.653719 170.171128 
L 488.653719 113.654486 
Q 488.653719 111.655286 486.654519 111.655286 
L 371.331916 111.655286 
Q 369.332716 111.655286 369.332716 113.654486 
L 369.332716 170.171128 
Q 369.332716 172.170328 371.331916 172.170328 
z
" style="fill: #f5f5f5; opacity: 0.8; stroke: #cccccc; stroke-linejoin: miter"/>
    </g>
    <g id="line2d_16">
     <path d="M 373.331116 119.432447 
L 383.327116 119.432447 
L 393.323116 119.432447 
" style="fill: none; stroke: #111111; stroke-width: 2; stroke-linecap: round"/>
    </g>
    <g id="text_15">
     <!-- total Δv -->
     <g style="fill: #262626" transform="translate(401.319916 122.931047) scale(0.09996 -0.09996)">
      <use xlink:href="#ArialMT-57"/>
      <use xlink:href="#ArialMT-52" transform="translate(27.78125 0)"/>
      <use xlink:href="#ArialMT-57" transform="translate(83.390625 0)"/>
      <use xlink:href="#ArialMT-44" transform="translate(111.171875 0)"/>
      <use xlink:href="#ArialMT-4f" transform="translate(166.78125 0)"/>
      <use xlink:href="#ArialMT-3" transform="translate(189 0)"/>
      <use xlink:href="#ArialMT-1fb" transform="translate(216.78125 0)"/>
      <use xlink:href="#ArialMT-59" transform="translate(283.578125 0)"/>
     </g>
    </g>
    <g id="line2d_17">
     <path d="M 373.331116 133.811459 
L 383.327116 133.811459 
L 393.323116 133.811459 
" style="fill: none; stroke: #4878cf; stroke-width: 1.2; stroke-linecap: round"/>
    </g>
    <g id="text_16">
     <!-- dv1 periapsis raise -->
     <g style="fill: #262626" transform="translate(401.319916 137.310059) scale(0.09996 -0.09996)">
      <defs>
       <path id="ArialMT-47" d="M 2575 0 
L 2575 419 
Q 2259 -75 1647 -75 
Q 1250 -75 917 144 
Q 584 363 401 755 
Q 219 1147 219 1656 
Q 219 2153 384 2558 
Q 550 2963 881 3178 
Q 1213 3394 1622 3394 
Q 1922 3394 2156 3267 
Q 2391 3141 2538 2938 
L 2538 4581 
L 3097 4581 
L 3097 0 
L 2575 0 
z
M 797 1656 
Q 797 1019 1065 703 
Q 1334 388 1700 388 
Q 2069 388 2326 689 
Q 2584 991 2584 1609 
Q 2584 2291 2321 2609 
Q 2059 2928 1675 2928 
Q 1300 2928 1048 2622 
Q 797 2316 797 1656 
z
" transform="scale(0.015625)"/>
      </defs>
      <use xlink:href="#ArialMT-47"/>
      <use xlink:href="#ArialMT-59" transform="translate(55.609375 0)"/>
      <use xlink:href="#ArialMT-14" transform="translate(105.609375 0)"/>
      <use xlink:href="#ArialMT-3" transform="translate(161.21875 0)"/>
      <use xlink:href="#ArialMT-53" transform="translate(189 0)"/>
      <use xlink:href="#ArialMT-48" transform="translate(244.609375 0)"/>
      <use xlink:href="#ArialMT-55" transform="translate(300.21875 0)"/>
      <use xlink:href="#ArialMT-4c" transform="translate(333.515625 0)"/>
      <use xlink:href="#ArialMT-44" transform="translate(355.734375 0)"/>
      <use xlink:href="#ArialMT-53" transform="translate(411.34375 0)"/>
      <use xlink:href="#ArialMT-56" transform="translate(466.953125 0)"/>
      <use xlink:href="#ArialMT-4c" transform="translate(516.953125 0)"/>
      <use xlink:href="#ArialMT-56" transform="translate(539.171875 0)"/>
      <use xlink:href="#ArialMT-3" transform="translate(589.171875 0)"/>
      <use xlink:href="#ArialMT-55" transform="translate(616.953125 0)"/>
      <use xlink:href="#ArialMT-44" transform="translate(650.25 0)"/>
      <use xlink:href="#ArialMT-4c" transform="translate(705.859375 0)"/>
      <use xlink:href="#ArialMT-56" transform="translate(728.078125 0)"/>
      <use xlink:href="#ArialMT-48" transform="translate(778.078125 0)"/>
     </g>
    </g>
    <g id="line2d_18">
     <path d="M 373.331116 148.190471 
L 383.327116 148.190471 
L 393.323116 148.190471 
" style="fill: none; stroke: #d1701f; stroke-width: 1.2; stroke-linecap: round"/>
    </g>
    <g id="text_17">
     <!-- dv2 circularization -->
     <g style="fill: #262626" transform="translate(401.319916 151.689071) scale(0.09996 -0.09996)">
      <defs>
       <path id="ArialMT-5d" d="M 125 0 
L 125 456 
L 2238 2881 
Q 1878 2863 1603 2863 
L 250 2863 
L 250 3319 
L 2963 3319 
L 2963 2947 
L 1166 841 
L 819 456 
Q 1197 484 1528 484 
L 3063 484 
L 3063 0 
L 125 0 
z
" transform="scale(0.015625)"/>
      </defs>
      <use xlink:href="#ArialMT-47"/>
      <use xlink:href="#ArialMT-59" transform="translate(55.609375 0)"/>
      <use xlink:href="#ArialMT-15" transform="translate(105.609375 0)"/>
      <use xlink:href="#ArialMT-3" transform="translate(161.21875 0)"/>
      <use xlink:href="#ArialMT-46" transform="translate(189 0)"/>
      <use xlink:href="#ArialMT-4c" transform="translate(239 0)"/>
      <use xlink:href="#ArialMT-55" transform="translate(261.21875 0)"/>
      <use xlink:href="#ArialMT-46" transform="translate(294.515625 0)"/>
      <use xlink:href="#ArialMT-58" transform="translate(344.515625 0)"/>
      <use xlink:href="#ArialMT-4f" transform="translate(400.125 0)"/>
      <use xlink:href="#ArialMT-44" transform="translate(422.34375 0)"/>
      <use xlink:href="#ArialMT-55" transform="translate(477.953125 0)"/>
      <use xlink:href="#ArialMT-4c" transform="translate(511.25 0)"/>
      <use xlink:href="#ArialMT-5d" transform="translate(533.46875 0)"/>
      <use xlink:href="#ArialMT-44" transform="translate(583.46875 0)"/>
      <use xlink:href="#ArialMT-57" transform="translate(639.078125 0)"/>
      <use xlink:href="#ArialMT-4c" transform="translate(666.859375 0)"/>
      <use xlink:href="#ArialMT-52" transform="translate(689.078125 0)"/>
      <use xlink:href="#ArialMT-51" transform="translate(744.6875 0)"/>
     </g>
    </g>
    <g id="line2d_19">
     <path d="M 373.331116 162.569482 
L 383.327116 162.569482 
L 393.323116 162.569482 
" style="fill: none; stroke: #6a51a3; stroke-width: 1.2; stroke-linecap: round"/>
    </g>
    <g id="text_18">
     <!-- dv3 plane change -->
     <g style="fill: #262626" transform="translate(401.319916 166.068082) scale(0.09996 -0.09996)">
      <defs>
       <path id="ArialMT-4b" d="M 422 0 
L 422 4581 
L 984 4581 
L 984 2938 
Q 1378 3394 1978 3394 
Q 2347 3394 2619 3248 
Q 2891 3103 3008 2847 
Q 3125 2591 3125 2103 
L 3125 0 
L 2563 0 
L 2563 2103 
Q 2563 2525 2380 2717 
Q 2197 2909 1863 2909 
Q 1613 2909 1392 2779 
Q 1172 2650 1078 2428 
Q 984 2206 984 1816 
L 984 0 
L 422 0 
z
" transform="scale(0.015625)"/>
       <path id="ArialMT-4a" d="M 319 -275 
L 866 -356 
Q 900 -609 1056 -725 
Q 1266 -881 1628 -881 
Q 2019 -881 2231 -725 
Q 2444 -569 2519 -288 
Q 2563 -116 2559 434 
Q 2191 0 1641 0 
Q 956 0 581 494 
Q 206 988 206 1678 
Q 206 2153 378 2554 
Q 550 2956 876 3175 
Q 1203 3394 1644 3394 
Q 2231 3394 2613 2919 
L 2613 3319 
L 3131 3319 
L 3131 450 
Q 3131 -325 2973 -648 
Q 2816 -972 2473 -1159 
Q 2131 -1347 1631 -1347 
Q 1038 -1347 672 -1080 
Q 306 -813 319 -275 
z
M 784 1719 
Q 784 1066 1043 766 
Q 1303 466 1694 466 
Q 2081 466 2343 764 
Q 2606 1063 2606 1700 
Q 2606 2309 2336 2618 
Q 2066 2928 1684 2928 
Q 1309 2928 1046 2623 
Q 784 2319 784 1719 
z
" transform="scale(0.015625)"/>
      </defs>
      <use xlink:href="#ArialMT-47"/>
      <use xlink:href="#ArialMT-59" transform="translate(55.609375 0)"/>
      <use xlink:href="#ArialMT-16" transform="translate(105.609375 0)"/>
      <use xlink:href="#ArialMT-3" transform="translate(161.21875 0)"/>
      <use xlink:href="#ArialMT-53" transform="translate(189 0)"/>
      <use xlink:href="#ArialMT-4f" transform="translate(244.609375 0)"/>
      <use xlink:href="#ArialMT-44" transform="translate(266.828125 0)"/>
      <use xlink:href="#ArialMT-51" transform="translate(322.4375 0)"/>
      <use xlink:href="#ArialMT-48" transform="translate(378.046875 0)"/>
      <use xlink:href="#ArialMT-3" transform="translate(433.65625 0)"/>
      <use xlink:href="#ArialMT-46" transform="translate(461.4375 0)"/>
      <use xlink:href="#ArialMT-4b" transform="translate(511.4375 0)"/>
      <use xlink:href="#ArialMT-44" transform="translate(567.046875 0)"/>
      <use xlink:href="#ArialMT-51" transform="translate(622.65625 0)"/>
      <use xlink:href="#ArialMT-4a" transform="translate(678.265625 0)"/>
      <use xlink:href="#ArialMT-48" transform="translate(733.875 0)"/>
     </g>
    </g>
   </g>
  </g>
 </g>
 <defs>
  <clipPath id="p128d45d5a3">
   <rect x="47.251719" y="21.936328" width="446.4" height="155.232"/>
  </clipPath>
 </defs>
</svg>
