<?xml version="1.0" encoding="utf-8" standalone="no"?>
<!DOCTYPE svg PUBLIC "-//W3C//DTD SVG 1.1//EN"
  "http://www.w3.org/Graphics/SVG/1.1/DTD/svg11.dtd">
<svg xmlns:xlink="http://www.w3.org/1999/xlink" width="612.164375pt" height="241.364719pt" viewBox="0 0 612.164375 241.364719" xmlns="http://www.w3.org/2000/svg" version="1.1">
 <metadata>
  <rdf:RDF xmlns:dc="http://purl.org/dc/elements/1.1/" xmlns:cc="http://creativecommons.org/ns#" xmlns:rdf="http://www.w3.org/1999/02/22-rdf-syntax-ns#">
   <cc:Work>
    <dc:type rdf:resource="http://purl.org/dc/dcmitype/StillImage"/>
    <dc:date>2026-07-03T21:41:09.607356</dc:date>
    <dc:format>image/svg+xml</dc:format>
    <dc:creator>
     <cc:Agent>
      <dc:title>Matplotlib v3.10.9, https://matplotlib.org/</dc:title>
     </cc:Agent>
    </dc:creator>
   </cc:Work>
  </rdf:RDF>
 </metadata>
 <defs>
  <style type="text/css">*{stroke-linejoin: round; stroke-linecap: butt}</style>
 </defs>
 <g id="figure_1">
  <g id="patch_1">
   <path d="M 0 241.364719 
L 612.164375 241.364719 
L 612.164375 -0 
L 0 -0 
z
" style="fill: #ffffff"/>
  </g>
  <g id="axes_1">
   <g id="patch_2">
    <path d="M 46.964375 199.343625 
L 604.964375 199.343625 
L 604.964375 21.935625 
L 46.964375 21.935625 
z
" style="fill: #f5f5f5"/>
   </g>
   <g id="matplotlib.axis_1">
    <g id="xtick_1">
     <g id="line2d_1">
      <path d="M 72.324083 199.343625 
L 72.324083 21.935625 
" clip-path="url(#p737655f0df)" style="fill: none; stroke: #cccccc; stroke-linecap: round"/>
     </g>
     <g id="text_1">
      <!-- 0 -->
      <g style="fill: #262626" transform="translate(69.265567 216.717219) scale(0.11 -0.11)">
       <defs>
        <path id="ArialMT-30" d="M 266 2259 
Q 266 3072 433 3567 
Q 600 4063 929 4331 
Q 1259 4600 1759 4600 
Q 2128 4600 2406 4451 
Q 2684 4303 2865 4023 
Q 3047 3744 3150 3342 
Q 3253 2941 3253 2259 
Q 3253 1453 3087 958 
Q 2922 463 2592 192 
Q 2263 -78 1759 -78 
Q 1097 -78 719 397 
Q 266 969 266 2259 
z
M 844 2259 
Q 844 1131 1108 757 
Q 1372 384 1759 384 
Q 2147 384 2411 759 
Q 2675 1134 2675 2259 
Q 2675 3391 2411 3762 
Q 2147 4134 1753 4134 
Q 1366 4134 1134 3806 
Q 844 3388 844 2259 
z
" transform="scale(0.015625)"/>
       </defs>
       <use xlink:href="#ArialMT-30"/>
      </g>
     </g>
    </g>
    <g id="xtick_2">
     <g id="line2d_2">
      <path d="M 193.943759 199.343625 
L 193.943759 21.935625 
" clip-path="url(#p737655f0df)" style="fill: none; stroke: #cccccc; stroke-linecap: round"/>
     </g>
     <g id="text_2">
      <!-- 100 -->
      <g style="fill: #262626" transform="translate(184.768213 216.717219) scale(0.11 -0.11)">
       <defs>
        <path id="ArialMT-31" d="M 2384 0 
L 1822 0 
L 1822 3584 
Q 1619 3391 1289 3197 
Q 959 3003 697 2906 
L 697 3450 
Q 1169 3672 1522 3987 
Q 1875 4303 2022 4600 
L 2384 4600 
L 2384 0 
z
" transform="scale(0.015625)"/>
       </defs>
       <use xlink:href="#ArialMT-31"/>
       <use xlink:href="#ArialMT-30" transform="translate(55.615234 0)"/>
       <use xlink:href="#ArialMT-30" transform="translate(111.230469 0)"/>
      </g>
     </g>
    </g>
    <g id="xtick_3">
     <g id="line2d_3">
      <path d="M 315.563436 199.343625 
L 315.563436 21.935625 
" clip-path="url(#p737655f0df)" style="fill: none; stroke: #cccccc; stroke-linecap: round"/>
     </g>
     <g id="text_3">
      <!-- 200 -->
      <g style="fill: #262626" transform="translate(306.387889 216.717219) scale(0.11 -0.11)">
       <defs>
        <path id="ArialMT-32" d="M 3222 541 
L 3222 0 
L 194 0 
Q 188 203 259 391 
Q 375 700 629 1000 
Q 884 1300 1366 1694 
Q 2113 2306 2375 2664 
Q 2638 3022 2638 3341 
Q 2638 3675 2398 3904 
Q 2159 4134 1775 4134 
Q 1369 4134 1125 3890 
Q 881 3647 878 3216 
L 300 3275 
Q 359 3922 746 4261 
Q 1134 4600 1788 4600 
Q 2447 4600 2831 4234 
Q 3216 3869 3216 3328 
Q 3216 3053 3103 2787 
Q 2991 2522 2730 2228 
Q 2469 1934 1863 1422 
Q 1356 997 1212 845 
Q 1069 694 975 541 
L 3222 541 
z
" transform="scale(0.015625)"/>
       </defs>
       <use xlink:href="#ArialMT-32"/>
       <use xlink:href="#ArialMT-30" transform="translate(55.615234 0)"/>
       <use xlink:href="#ArialMT-30" transform="translate(111.230469 0)"/>
      </g>
     </g>
    </g>
    <g id="xtick_4">
     <g id="line2d_4">
      <path d="M 437.183112 199.343625 
L 437.183112 21.935625 
" clip-path="url(#p737655f0df)" style="fill: none; stroke: #cccccc; stroke-linecap: round"/>
     </g>
     <g id="text_4">
      <!-- 300 -->
      <g style="fill: #262626" transform="translate(428.007566 216.717219) scale(0.11 -0.11)">
       <defs>
        <path id="ArialMT-33" d="M 269 1209 
L 831 1284 
Q 928 806 1161 595 
Q 1394 384 1728 384 
Q 2125 384 2398 659 
Q 2672 934 2672 1341 
Q 2672 1728 2419 1979 
Q 2166 2231 1775 2231 
Q 1616 2231 1378 2169 
L 1441 2663 
Q 1497 2656 1531 2656 
Q 1891 2656 2178 2843 
Q 2466 3031 2466 3422 
Q 2466 3731 2256 3934 
Q 2047 4138 1716 4138 
Q 1388 4138 1169 3931 
Q 950 3725 888 3313 
L 325 3413 
Q 428 3978 793 4289 
Q 1159 4600 1703 4600 
Q 2078 4600 2393 4439 
Q 2709 4278 2876 4000 
Q 3044 3722 3044 3409 
Q 3044 3113 2884 2869 
Q 2725 2625 2413 2481 
Q 2819 2388 3044 2092 
Q 3269 1797 3269 1353 
Q 3269 753 2831 336 
Q 2394 -81 1725 -81 
Q 1122 -81 723 278 
Q 325 638 269 1209 
z
" transform="scale(0.015625)"/>
       </defs>
       <use xlink:href="#ArialMT-33"/>
       <use xlink:href="#ArialMT-30" transform="translate(55.615234 0)"/>
       <use xlink:href="#ArialMT-30" transform="translate(111.230469 0)"/>
      </g>
     </g>
    </g>
    <g id="xtick_5">
     <g id="line2d_5">
      <path d="M 558.802789 199.343625 
L 558.802789 21.935625 
" clip-path="url(#p737655f0df)" style="fill: none; stroke: #cccccc; stroke-linecap: round"/>
     </g>
     <g id="text_5">
      <!-- 400 -->
      <g style="fill: #262626" transform="translate(549.627242 216.717219) scale(0.11 -0.11)">
       <defs>
        <path id="ArialMT-34" d="M 2069 0 
L 2069 1097 
L 81 1097 
L 81 1613 
L 2172 4581 
L 2631 4581 
L 2631 1613 
L 3250 1613 
L 3250 1097 
L 2631 1097 
L 2631 0 
L 2069 0 
z
M 2069 1613 
L 2069 3678 
L 634 1613 
L 2069 1613 
z
" transform="scale(0.015625)"/>
       </defs>
       <use xlink:href="#ArialMT-34"/>
       <use xlink:href="#ArialMT-30" transform="translate(55.615234 0)"/>
       <use xlink:href="#ArialMT-30" transform="translate(111.230469 0)"/>
      </g>
     </g>
    </g>
    <g id="text_6">
     <!-- correction Δv (m/s) -->
     <g style="fill: #262626" transform="translate(275.950625 231.639094) scale(0.12 -0.12)">
      <defs>
       <path id="ArialMT-63" d="M 2588 1216 
L 3141 1144 
Q 3050 572 2676 248 
Q 2303 -75 1759 -75 
Q 1078 -75 664 370 
Q 250 816 250 1647 
Q 250 2184 428 2587 
Q 606 2991 970 3192 
Q 1334 3394 1763 3394 
Q 2303 3394 2647 3120 
Q 2991 2847 3088 2344 
L 2541 2259 
Q 2463 2594 2264 2762 
Q 2066 2931 1784 2931 
Q 1359 2931 1093 2626 
Q 828 2322 828 1663 
Q 828 994 1084 691 
Q 1341 388 1753 388 
Q 2084 388 2306 591 
Q 2528 794 2588 1216 
z
" transform="scale(0.015625)"/>
       <path id="ArialMT-6f" d="M 213 1659 
Q 213 2581 725 3025 
Q 1153 3394 1769 3394 
Q 2453 3394 2887 2945 
Q 3322 2497 3322 1706 
Q 3322 1066 3130 698 
Q 2938 331 2570 128 
Q 2203 -75 1769 -75 
Q 1072 -75 642 372 
Q 213 819 213 1659 
z
M 791 1659 
Q 791 1022 1069 705 
Q 1347 388 1769 388 
Q 2188 388 2466 706 
Q 2744 1025 2744 1678 
Q 2744 2294 2464 2611 
Q 2184 2928 1769 2928 
Q 1347 2928 1069 2612 
Q 791 2297 791 1659 
z
" transform="scale(0.015625)"/>
       <path id="ArialMT-72" d="M 416 0 
L 416 3319 
L 922 3319 
L 922 2816 
Q 1116 3169 1280 3281 
Q 1444 3394 1641 3394 
Q 1925 3394 2219 3213 
L 2025 2691 
Q 1819 2813 1613 2813 
Q 1428 2813 1281 2702 
Q 1134 2591 1072 2394 
Q 978 2094 978 1738 
L 978 0 
L 416 0 
z
" transform="scale(0.015625)"/>
       <path id="ArialMT-65" d="M 2694 1069 
L 3275 997 
Q 3138 488 2766 206 
Q 2394 -75 1816 -75 
Q 1088 -75 661 373 
Q 234 822 234 1631 
Q 234 2469 665 2931 
Q 1097 3394 1784 3394 
Q 2450 3394 2872 2941 
Q 3294 2488 3294 1666 
Q 3294 1616 3291 1516 
L 816 1516 
Q 847 969 1125 678 
Q 1403 388 1819 388 
Q 2128 388 2347 550 
Q 2566 713 2694 1069 
z
M 847 1978 
L 2700 1978 
Q 2663 2397 2488 2606 
Q 2219 2931 1791 2931 
Q 1403 2931 1139 2672 
Q 875 2413 847 1978 
z
" transform="scale(0.015625)"/>
       <path id="ArialMT-74" d="M 1650 503 
L 1731 6 
Q 1494 -44 1306 -44 
Q 1000 -44 831 53 
Q 663 150 594 308 
Q 525 466 525 972 
L 525 2881 
L 113 2881 
L 113 3319 
L 525 3319 
L 525 4141 
L 1084 4478 
L 1084 3319 
L 1650 3319 
L 1650 2881 
L 1084 2881 
L 1084 941 
Q 1084 700 1114 631 
Q 1144 563 1211 522 
Q 1278 481 1403 481 
Q 1497 481 1650 503 
z
" transform="scale(0.015625)"/>
       <path id="ArialMT-69" d="M 425 3934 
L 425 4581 
L 988 4581 
L 988 3934 
L 425 3934 
z
M 425 0 
L 425 3319 
L 988 3319 
L 988 0 
L 425 0 
z
" transform="scale(0.015625)"/>
       <path id="ArialMT-6e" d="M 422 0 
L 422 3319 
L 928 3319 
L 928 2847 
Q 1294 3394 1984 3394 
Q 2284 3394 2536 3286 
Q 2788 3178 2913 3003 
Q 3038 2828 3088 2588 
Q 3119 2431 3119 2041 
L 3119 0 
L 2556 0 
L 2556 2019 
Q 2556 2363 2490 2533 
Q 2425 2703 2258 2804 
Q 2091 2906 1866 2906 
Q 1506 2906 1245 2678 
Q 984 2450 984 1813 
L 984 0 
L 422 0 
z
" transform="scale(0.015625)"/>
       <path id="ArialMT-20" transform="scale(0.015625)"/>
       <path id="ArialMT-394" d="M -6 0 
L 1753 4581 
L 2406 4581 
L 4281 0 
L -6 0 
z
M 834 541 
L 3381 541 
L 2391 3150 
Q 2169 3738 2066 4100 
Q 1981 3675 1819 3225 
L 834 541 
z
" transform="scale(0.015625)"/>
       <path id="ArialMT-76" d="M 1344 0 
L 81 3319 
L 675 3319 
L 1388 1331 
Q 1503 1009 1600 663 
Q 1675 925 1809 1294 
L 2547 3319 
L 3125 3319 
L 1869 0 
L 1344 0 
z
" transform="scale(0.015625)"/>
       <path id="ArialMT-28" d="M 1497 -1347 
Q 1031 -759 709 28 
Q 388 816 388 1659 
Q 388 2403 628 3084 
Q 909 3875 1497 4659 
L 1900 4659 
Q 1522 4009 1400 3731 
Q 1209 3300 1100 2831 
Q 966 2247 966 1656 
Q 966 153 1900 -1347 
L 1497 -1347 
z
" transform="scale(0.015625)"/>
       <path id="ArialMT-6d" d="M 422 0 
L 422 3319 
L 925 3319 
L 925 2853 
Q 1081 3097 1340 3245 
Q 1600 3394 1931 3394 
Q 2300 3394 2536 3241 
Q 2772 3088 2869 2813 
Q 3263 3394 3894 3394 
Q 4388 3394 4653 3120 
Q 4919 2847 4919 2278 
L 4919 0 
L 4359 0 
L 4359 2091 
Q 4359 2428 4304 2576 
Q 4250 2725 4106 2815 
Q 3963 2906 3769 2906 
Q 3419 2906 3187 2673 
Q 2956 2441 2956 1928 
L 2956 0 
L 2394 0 
L 2394 2156 
Q 2394 2531 2256 2718 
Q 2119 2906 1806 2906 
Q 1569 2906 1367 2781 
Q 1166 2656 1075 2415 
Q 984 2175 984 1722 
L 984 0 
L 422 0 
z
" transform="scale(0.015625)"/>
       <path id="ArialMT-2f" d="M 0 -78 
L 1328 4659 
L 1778 4659 
L 453 -78 
L 0 -78 
z
" transform="scale(0.015625)"/>
       <path id="ArialMT-73" d="M 197 991 
L 753 1078 
Q 800 744 1014 566 
Q 1228 388 1613 388 
Q 2000 388 2187 545 
Q 2375 703 2375 916 
Q 2375 1106 2209 1216 
Q 2094 1291 1634 1406 
Q 1016 1563 777 1677 
Q 538 1791 414 1992 
Q 291 2194 291 2438 
Q 291 2659 392 2848 
Q 494 3038 669 3163 
Q 800 3259 1026 3326 
Q 1253 3394 1513 3394 
Q 1903 3394 2198 3281 
Q 2494 3169 2634 2976 
Q 2775 2784 2828 2463 
L 2278 2388 
Q 2241 2644 2061 2787 
Q 1881 2931 1553 2931 
Q 1166 2931 1000 2803 
Q 834 2675 834 2503 
Q 834 2394 903 2306 
Q 972 2216 1119 2156 
Q 1203 2125 1616 2013 
Q 2213 1853 2448 1751 
Q 2684 1650 2818 1456 
Q 2953 1263 2953 975 
Q 2953 694 2789 445 
Q 2625 197 2315 61 
Q 2006 -75 1616 -75 
Q 969 -75 630 194 
Q 291 463 197 991 
z
" transform="scale(0.015625)"/>
       <path id="ArialMT-29" d="M 791 -1347 
L 388 -1347 
Q 1322 153 1322 1656 
Q 1322 2244 1188 2822 
Q 1081 3291 891 3722 
Q 769 4003 388 4659 
L 791 4659 
Q 1378 3875 1659 3084 
Q 1900 2403 1900 1659 
Q 1900 816 1576 28 
Q 1253 -759 791 -1347 
z
" transform="scale(0.015625)"/>
      </defs>
      <use xlink:href="#ArialMT-63"/>
      <use xlink:href="#ArialMT-6f" transform="translate(50 0)"/>
      <use xlink:href="#ArialMT-72" transform="translate(105.615234 0)"/>
      <use xlink:href="#ArialMT-72" transform="translate(138.916016 0)"/>
      <use xlink:href="#ArialMT-65" transform="translate(172.216797 0)"/>
      <use xlink:href="#ArialMT-63" transform="translate(227.832031 0)"/>
      <use xlink:href="#ArialMT-74" transform="translate(277.832031 0)"/>
      <use xlink:href="#ArialMT-69" transform="translate(305.615234 0)"/>
      <use xlink:href="#ArialMT-6f" transform="translate(327.832031 0)"/>
      <use xlink:href="#ArialMT-6e" transform="translate(383.447266 0)"/>
      <use xlink:href="#ArialMT-20" transform="translate(439.0625 0)"/>
      <use xlink:href="#ArialMT-394" transform="translate(461.345703 0)"/>
      <use xlink:href="#ArialMT-76" transform="translate(528.142578 0)"/>
      <use xlink:href="#ArialMT-20" transform="translate(578.142578 0)"/>
      <use xlink:href="#ArialMT-28" transform="translate(605.925781 0)"/>
      <use xlink:href="#ArialMT-6d" transform="translate(639.226562 0)"/>
      <use xlink:href="#ArialMT-2f" transform="translate(722.527344 0)"/>
      <use xlink:href="#ArialMT-73" transform="translate(750.310547 0)"/>
      <use xlink:href="#ArialMT-29" transform="translate(800.310547 0)"/>
     </g>
    </g>
   </g>
   <g id="matplotlib.axis_2">
    <g id="ytick_1">
     <g id="line2d_6">
      <path d="M 46.964375 199.343625 
L 604.964375 199.343625 
" clip-path="url(#p737655f0df)" style="fill: none; stroke: #cccccc; stroke-linecap: round"/>
     </g>
     <g id="text_7">
      <!-- 0.0 -->
      <g style="fill: #262626" transform="translate(22.174375 203.280422) scale(0.11 -0.11)">
       <defs>
        <path id="ArialMT-2e" d="M 581 0 
L 581 641 
L 1222 641 
L 1222 0 
L 581 0 
z
" transform="scale(0.015625)"/>
       </defs>
       <use xlink:href="#ArialMT-30"/>
       <use xlink:href="#ArialMT-2e" transform="translate(55.615234 0)"/>
       <use xlink:href="#ArialMT-30" transform="translate(83.398438 0)"/>
      </g>
     </g>
    </g>
    <g id="ytick_2">
     <g id="line2d_7">
      <path d="M 46.964375 163.862025 
L 604.964375 163.862025 
" clip-path="url(#p737655f0df)" style="fill: none; stroke: #cccccc; stroke-linecap: round"/>
     </g>
     <g id="text_8">
      <!-- 0.2 -->
      <g style="fill: #262626" transform="translate(22.174375 167.798822) scale(0.11 -0.11)">
       <use xlink:href="#ArialMT-30"/>
       <use xlink:href="#ArialMT-2e" transform="translate(55.615234 0)"/>
       <use xlink:href="#ArialMT-32" transform="translate(83.398438 0)"/>
      </g>
     </g>
    </g>
    <g id="ytick_3">
     <g id="line2d_8">
      <path d="M 46.964375 128.380425 
L 604.964375 128.380425 
" clip-path="url(#p737655f0df)" style="fill: none; stroke: #cccccc; stroke-linecap: round"/>
     </g>
     <g id="text_9">
      <!-- 0.4 -->
      <g style="fill: #262626" transform="translate(22.174375 132.317222) scale(0.11 -0.11)">
       <use xlink:href="#ArialMT-30"/>
       <use xlink:href="#ArialMT-2e" transform="translate(55.615234 0)"/>
       <use xlink:href="#ArialMT-34" transform="translate(83.398438 0)"/>
      </g>
     </g>
    </g>
    <g id="ytick_4">
     <g id="line2d_9">
      <path d="M 46.964375 92.898825 
L 604.964375 92.898825 
" clip-path="url(#p737655f0df)" style="fill: none; stroke: #cccccc; stroke-linecap: round"/>
     </g>
     <g id="text_10">
      <!-- 0.6 -->
      <g style="fill: #262626" transform="translate(22.174375 96.835622) scale(0.11 -0.11)">
       <defs>
        <path id="ArialMT-36" d="M 3184 3459 
L 2625 3416 
Q 2550 3747 2413 3897 
Q 2184 4138 1850 4138 
Q 1581 4138 1378 3988 
Q 1113 3794 959 3422 
Q 806 3050 800 2363 
Q 1003 2672 1297 2822 
Q 1591 2972 1913 2972 
Q 2475 2972 2870 2558 
Q 3266 2144 3266 1488 
Q 3266 1056 3080 686 
Q 2894 316 2569 119 
Q 2244 -78 1831 -78 
Q 1128 -78 684 439 
Q 241 956 241 2144 
Q 241 3472 731 4075 
Q 1159 4600 1884 4600 
Q 2425 4600 2770 4297 
Q 3116 3994 3184 3459 
z
M 888 1484 
Q 888 1194 1011 928 
Q 1134 663 1356 523 
Q 1578 384 1822 384 
Q 2178 384 2434 671 
Q 2691 959 2691 1453 
Q 2691 1928 2437 2201 
Q 2184 2475 1800 2475 
Q 1419 2475 1153 2201 
Q 888 1928 888 1484 
z
" transform="scale(0.015625)"/>
       </defs>
       <use xlink:href="#ArialMT-30"/>
       <use xlink:href="#ArialMT-2e" transform="translate(55.615234 0)"/>
       <use xlink:href="#ArialMT-36" transform="translate(83.398438 0)"/>
      </g>
     </g>
    </g>
    <g id="ytick_5">
     <g id="line2d_10">
      <path d="M 46.964375 57.417225 
L 604.964375 57.417225 
" clip-path="url(#p737655f0df)" style="fill: none; stroke: #cccccc; stroke-linecap: round"/>
     </g>
     <g id="text_11">
      <!-- 0.8 -->
      <g style="fill: #262626" transform="translate(22.174375 61.354022) scale(0.11 -0.11)">
       <defs>
        <path id="ArialMT-38" d="M 1131 2484 
Q 781 2613 612 2850 
Q 444 3088 444 3419 
Q 444 3919 803 4259 
Q 1163 4600 1759 4600 
Q 2359 4600 2725 4251 
Q 3091 3903 3091 3403 
Q 3091 3084 2923 2848 
Q 2756 2613 2416 2484 
Q 2838 2347 3058 2040 
Q 3278 1734 3278 1309 
Q 3278 722 2862 322 
Q 2447 -78 1769 -78 
Q 1091 -78 675 323 
Q 259 725 259 1325 
Q 259 1772 486 2073 
Q 713 2375 1131 2484 
z
M 1019 3438 
Q 1019 3113 1228 2906 
Q 1438 2700 1772 2700 
Q 2097 2700 2305 2904 
Q 2513 3109 2513 3406 
Q 2513 3716 2298 3927 
Q 2084 4138 1766 4138 
Q 1444 4138 1231 3931 
Q 1019 3725 1019 3438 
z
M 838 1322 
Q 838 1081 952 856 
Q 1066 631 1291 507 
Q 1516 384 1775 384 
Q 2178 384 2440 643 
Q 2703 903 2703 1303 
Q 2703 1709 2433 1975 
Q 2163 2241 1756 2241 
Q 1359 2241 1098 1978 
Q 838 1716 838 1322 
z
" transform="scale(0.015625)"/>
       </defs>
       <use xlink:href="#ArialMT-30"/>
       <use xlink:href="#ArialMT-2e" transform="translate(55.615234 0)"/>
       <use xlink:href="#ArialMT-38" transform="translate(83.398438 0)"/>
      </g>
     </g>
    </g>
    <g id="ytick_6">
     <g id="line2d_11">
      <path d="M 46.964375 21.935625 
L 604.964375 21.935625 
" clip-path="url(#p737655f0df)" style="fill: none; stroke: #cccccc; stroke-linecap: round"/>
     </g>
     <g id="text_12">
      <!-- 1.0 -->
      <g style="fill: #262626" transform="translate(22.174375 25.872422) scale(0.11 -0.11)">
       <use xlink:href="#ArialMT-31"/>
       <use xlink:href="#ArialMT-2e" transform="translate(55.615234 0)"/>
       <use xlink:href="#ArialMT-30" transform="translate(83.398438 0)"/>
      </g>
     </g>
    </g>
    <g id="text_13">
     <!-- cumulative fraction -->
     <g style="fill: #262626" transform="translate(15.789375 160.658062) rotate(-90) scale(0.12 -0.12)">
      <defs>
       <path id="ArialMT-75" d="M 2597 0 
L 2597 488 
Q 2209 -75 1544 -75 
Q 1250 -75 995 37 
Q 741 150 617 320 
Q 494 491 444 738 
Q 409 903 409 1263 
L 409 3319 
L 972 3319 
L 972 1478 
Q 972 1038 1006 884 
Q 1059 663 1231 536 
Q 1403 409 1656 409 
Q 1909 409 2131 539 
Q 2353 669 2445 892 
Q 2538 1116 2538 1541 
L 2538 3319 
L 3100 3319 
L 3100 0 
L 2597 0 
z
" transform="scale(0.015625)"/>
       <path id="ArialMT-6c" d="M 409 0 
L 409 4581 
L 972 4581 
L 972 0 
L 409 0 
z
" transform="scale(0.015625)"/>
       <path id="ArialMT-61" d="M 2588 409 
Q 2275 144 1986 34 
Q 1697 -75 1366 -75 
Q 819 -75 525 192 
Q 231 459 231 875 
Q 231 1119 342 1320 
Q 453 1522 633 1644 
Q 813 1766 1038 1828 
Q 1203 1872 1538 1913 
Q 2219 1994 2541 2106 
Q 2544 2222 2544 2253 
Q 2544 2597 2384 2738 
Q 2169 2928 1744 2928 
Q 1347 2928 1158 2789 
Q 969 2650 878 2297 
L 328 2372 
Q 403 2725 575 2942 
Q 747 3159 1072 3276 
Q 1397 3394 1825 3394 
Q 2250 3394 2515 3294 
Q 2781 3194 2906 3042 
Q 3031 2891 3081 2659 
Q 3109 2516 3109 2141 
L 3109 1391 
Q 3109 606 3145 398 
Q 3181 191 3288 0 
L 2700 0 
Q 2613 175 2588 409 
z
M 2541 1666 
Q 2234 1541 1622 1453 
Q 1275 1403 1131 1340 
Q 988 1278 909 1158 
Q 831 1038 831 891 
Q 831 666 1001 516 
Q 1172 366 1500 366 
Q 1825 366 2078 508 
Q 2331 650 2450 897 
Q 2541 1088 2541 1459 
L 2541 1666 
z
" transform="scale(0.015625)"/>
       <path id="ArialMT-66" d="M 556 0 
L 556 2881 
L 59 2881 
L 59 3319 
L 556 3319 
L 556 3672 
Q 556 4006 616 4169 
Q 697 4388 901 4523 
Q 1106 4659 1475 4659 
Q 1713 4659 2000 4603 
L 1916 4113 
Q 1741 4144 1584 4144 
Q 1328 4144 1222 4034 
Q 1116 3925 1116 3625 
L 1116 3319 
L 1763 3319 
L 1763 2881 
L 1116 2881 
L 1116 0 
L 556 0 
z
" transform="scale(0.015625)"/>
      </defs>
      <use xlink:href="#ArialMT-63"/>
      <use xlink:href="#ArialMT-75" transform="translate(50 0)"/>
      <use xlink:href="#ArialMT-6d" transform="translate(105.615234 0)"/>
      <use xlink:href="#ArialMT-75" transform="translate(188.916016 0)"/>
      <use xlink:href="#ArialMT-6c" transform="translate(244.53125 0)"/>
      <use xlink:href="#ArialMT-61" transform="translate(266.748047 0)"/>
      <use xlink:href="#ArialMT-74" transform="translate(322.363281 0)"/>
      <use xlink:href="#ArialMT-69" transform="translate(350.146484 0)"/>
      <use xlink:href="#ArialMT-76" transform="translate(372.363281 0)"/>
      <use xlink:href="#ArialMT-65" transform="translate(422.363281 0)"/>
      <use xlink:href="#ArialMT-20" transform="translate(477.978516 0)"/>
      <use xlink:href="#ArialMT-66" transform="translate(505.761719 0)"/>
      <use xlink:href="#ArialMT-72" transform="translate(533.544922 0)"/>
      <use xlink:href="#ArialMT-61" transform="translate(566.845703 0)"/>
      <use xlink:href="#ArialMT-63" transform="translate(622.460938 0)"/>
      <use xlink:href="#ArialMT-74" transform="translate(672.460938 0)"/>
      <use xlink:href="#ArialMT-69" transform="translate(700.244141 0)"/>
      <use xlink:href="#ArialMT-6f" transform="translate(722.460938 0)"/>
      <use xlink:href="#ArialMT-6e" transform="translate(778.076172 0)"/>
     </g>
    </g>
   </g>
   <g id="line2d_12">
    <path d="M 226.614975 199.165326 
L 230.711278 198.987026 
L 231.295745 198.630427 
L 231.303176 198.452128 
L 232.142038 198.273828 
L 232.920913 197.73893 
L 235.193174 197.025732 
L 235.198389 196.847432 
L 235.430755 196.669133 
L 236.588653 196.134234 
L 236.593312 195.955935 
L 237.246169 195.599336 
L 237.253754 195.421036 
L 237.804287 195.064437 
L 237.930328 194.886138 
L 238.383201 194.529539 
L 238.38753 194.351239 
L 238.661828 194.17294 
L 238.750835 193.816341 
L 239.106965 193.103143 
L 240.39521 192.746544 
L 240.576961 192.389945 
L 241.106867 192.211645 
L 242.356825 192.033346 
L 242.623798 191.855046 
L 243.149017 191.676747 
L 244.425764 191.498447 
L 244.428349 191.320148 
L 244.605843 191.141848 
L 245.343281 190.785249 
L 245.573753 190.60695 
L 245.68889 190.250351 
L 246.363274 189.537153 
L 247.475382 189.358853 
L 247.587552 188.823955 
L 247.998832 188.467356 
L 248.51042 188.289056 
L 248.658706 188.110757 
L 248.957779 187.932457 
L 248.993684 187.754158 
L 249.540649 187.04096 
L 250.115311 185.614564 
L 250.162102 185.257965 
L 250.774702 184.723066 
L 251.078203 184.544767 
L 251.197471 183.831569 
L 252.058735 182.761772 
L 252.166694 182.583472 
L 252.604915 182.226873 
L 253.178603 181.691975 
L 253.241151 181.513675 
L 253.940985 181.157076 
L 254.12934 180.800477 
L 254.255344 180.087279 
L 254.374739 179.73068 
L 254.598689 179.552381 
L 255.029709 179.374081 
L 255.062291 179.195782 
L 255.258404 178.839183 
L 255.33408 178.660883 
L 255.631999 178.482584 
L 255.647034 178.304284 
L 256.333532 178.125985 
L 256.352329 177.947685 
L 256.628906 177.591086 
L 257.038294 177.412787 
L 257.135455 177.056188 
L 257.248227 176.521289 
L 257.557998 176.16469 
L 257.618449 175.808091 
L 258.842726 174.916594 
L 258.930072 174.559995 
L 259.128959 174.381695 
L 259.20113 173.846797 
L 259.425372 173.668497 
L 259.513311 173.311898 
L 259.740043 173.133599 
L 259.767084 172.955299 
L 260.522798 172.063802 
L 260.64516 171.707203 
L 260.934613 170.994005 
L 261.302236 170.815705 
L 261.482932 170.459106 
L 261.753888 170.280807 
L 262.219103 168.497812 
L 262.702566 168.141213 
L 262.954157 167.606314 
L 263.430841 167.249715 
L 264.122304 166.714817 
L 264.125412 166.536517 
L 264.331953 166.358218 
L 265.061401 166.001619 
L 265.120902 165.64502 
L 265.484557 165.288421 
L 265.525292 165.110121 
L 266.030197 164.753522 
L 266.133186 164.396923 
L 266.847779 164.218624 
L 267.35768 163.327127 
L 267.777813 163.148827 
L 268.019379 162.792228 
L 268.471566 162.25733 
L 268.939432 160.830934 
L 269.213441 160.652634 
L 269.695744 160.474335 
L 269.993121 159.761137 
L 270.10107 159.404538 
L 270.770509 159.226238 
L 270.948524 158.334741 
L 271.464933 157.978142 
L 271.535544 157.799842 
L 272.070998 157.443243 
L 273.092722 156.730045 
L 273.62944 155.660248 
L 273.884824 155.303649 
L 273.93185 154.94705 
L 274.646449 154.412152 
L 274.809079 154.055553 
L 275.113923 153.698954 
L 275.351554 153.164055 
L 275.700687 152.985756 
L 275.855875 152.094258 
L 276.016877 151.915959 
L 276.331834 151.737659 
L 276.891404 150.667862 
L 277.454928 150.311263 
L 277.519718 149.954664 
L 278.240567 147.99337 
L 278.287528 147.81507 
L 278.638394 147.458471 
L 278.765082 147.101872 
L 278.994233 146.745273 
L 279.08213 146.388674 
L 279.623423 145.853776 
L 279.6381 145.675476 
L 279.96532 145.497177 
L 280.579327 145.318877 
L 280.69895 144.962278 
L 280.731307 144.783979 
L 281.079711 144.24908 
L 281.182718 143.892481 
L 281.42416 143.357583 
L 281.677033 143.179283 
L 281.963966 142.287786 
L 282.233729 141.931187 
L 282.616258 141.574588 
L 282.648535 141.396288 
L 283.416277 140.68309 
L 283.707183 139.969892 
L 284.06958 139.613293 
L 285.042833 137.473699 
L 285.789373 137.1171 
L 285.864481 136.582202 
L 286.305855 136.047303 
L 286.307267 135.869004 
L 286.589058 135.690704 
L 286.627109 135.334105 
L 287.258531 134.620907 
L 287.281151 134.442608 
L 287.753703 134.086009 
L 288.317091 133.907709 
L 288.569 132.659613 
L 288.595161 132.303014 
L 289.59482 131.589816 
L 290.016111 131.233217 
L 290.162249 130.876618 
L 290.178453 130.698318 
L 290.613055 130.341719 
L 290.728539 129.806821 
L 291.033723 129.450222 
L 291.06027 129.093623 
L 291.669824 128.915323 
L 291.870202 127.845527 
L 292.57857 127.488928 
L 292.605565 127.132329 
L 292.793868 126.954029 
L 292.807234 126.77573 
L 292.976909 126.419131 
L 293.128087 125.884232 
L 293.479553 125.705933 
L 293.571476 125.171034 
L 293.932714 124.636136 
L 294.525095 124.279537 
L 294.657443 123.922938 
L 295.306474 123.388039 
L 295.585788 122.853141 
L 295.840121 122.674841 
L 296.043286 122.139943 
L 296.95867 120.535247 
L 297.052219 120.178648 
L 297.22376 119.64375 
L 297.641407 119.287151 
L 297.708235 119.108851 
L 298.147588 118.930552 
L 298.337968 118.573953 
L 298.490712 118.039054 
L 298.868982 117.504156 
L 299.073546 116.969257 
L 299.412906 116.434359 
L 299.574071 116.256059 
L 299.653564 115.721161 
L 299.969524 115.186262 
L 300.36749 114.829663 
L 300.53481 114.473064 
L 300.614909 114.116465 
L 301.182442 113.938166 
L 301.371695 113.403267 
L 301.865753 113.224968 
L 302.361609 111.976871 
L 302.583221 111.620272 
L 302.724867 111.085374 
L 303.046539 110.728775 
L 303.294574 110.372176 
L 304.363535 107.875983 
L 306.345774 106.271287 
L 306.37296 106.092988 
L 306.702199 105.914688 
L 307.306861 104.309993 
L 307.835177 103.953394 
L 307.936542 103.775094 
L 308.332397 103.596795 
L 308.392598 103.240196 
L 308.699315 102.705297 
L 308.883167 102.348698 
L 309.083378 102.170399 
L 309.11316 101.8138 
L 309.797191 101.457201 
L 310.238386 100.744003 
L 310.455874 100.565703 
L 310.587576 100.030805 
L 311.775032 99.674206 
L 313.000582 98.604409 
L 313.126384 98.24781 
L 313.481258 97.891211 
L 313.578057 97.534612 
L 313.7117 97.178013 
L 313.87036 96.821414 
L 314.295621 96.643114 
L 314.338187 96.464815 
L 314.53052 96.108216 
L 314.686523 95.751617 
L 314.891923 95.573317 
L 315.311446 95.395018 
L 315.323001 95.216718 
L 315.767676 94.68182 
L 316.406938 93.790322 
L 317.198658 93.433723 
L 317.626376 93.077124 
L 317.852249 92.898825 
L 318.373859 92.720526 
L 318.558861 92.185627 
L 318.733497 92.007328 
L 319.181125 91.829028 
L 319.298717 91.472429 
L 319.665647 91.29413 
L 320.061904 90.759231 
L 320.618915 90.402632 
L 321.092097 89.511135 
L 321.160015 89.332835 
L 321.53502 88.976236 
L 321.65744 88.797937 
L 322.174435 88.619637 
L 322.183935 88.441338 
L 323.011343 87.906439 
L 323.628814 87.54984 
L 323.732959 87.193241 
L 323.780377 86.836642 
L 323.984652 86.658343 
L 324.675339 86.480043 
L 325.550503 84.697048 
L 325.739579 84.340449 
L 326.821794 83.627251 
L 327.152015 83.270652 
L 328.042507 83.092353 
L 328.123895 82.914053 
L 328.54573 82.557454 
L 328.631696 82.200855 
L 329.083817 81.844256 
L 329.278196 81.487657 
L 329.377698 81.309358 
L 329.824824 80.952759 
L 330.000251 80.774459 
L 330.382735 80.59616 
L 330.392799 80.41786 
L 330.686653 80.061261 
L 330.816185 79.704662 
L 331.101664 78.991464 
L 331.422644 78.634865 
L 331.734739 78.456566 
L 331.780747 78.099967 
L 332.431488 77.921667 
L 332.605461 77.743368 
L 333.277539 77.565068 
L 333.672616 76.85187 
L 333.677771 76.673571 
L 333.811257 76.495271 
L 334.117119 76.316972 
L 334.200194 75.960373 
L 334.554997 75.603774 
L 334.984707 75.425474 
L 335.048434 75.247175 
L 335.497524 74.890576 
L 336.792423 74.355677 
L 336.957692 73.999078 
L 337.7828 73.642479 
L 338.262167 72.572682 
L 338.607395 72.394383 
L 338.885061 72.037784 
L 340.209568 71.502885 
L 340.252225 71.324586 
L 341.409683 70.789687 
L 341.420968 70.611388 
L 341.727924 70.433088 
L 341.809007 70.254789 
L 342.275101 70.076489 
L 342.313387 69.89819 
L 342.664589 69.363291 
L 344.439955 68.828393 
L 344.72668 68.115195 
L 345.292256 67.758596 
L 345.432247 67.580296 
L 345.742326 67.401997 
L 345.805028 67.045398 
L 346.752127 66.867098 
L 346.908269 66.510499 
L 346.997251 66.1539 
L 347.284776 65.975601 
L 347.321069 65.619002 
L 347.605688 65.440702 
L 348.788201 65.262403 
L 349.93059 64.549205 
L 350.335365 64.370905 
L 350.474181 64.014306 
L 350.533005 63.657707 
L 351.445152 62.58791 
L 352.101396 62.231311 
L 352.332365 61.874712 
L 353.551873 61.518113 
L 353.573954 61.339814 
L 353.763594 60.983215 
L 353.815015 60.804915 
L 353.98822 60.626616 
L 354.483745 60.448316 
L 354.587532 60.270017 
L 355.432285 59.913418 
L 355.522281 59.556819 
L 355.749171 59.378519 
L 355.76381 59.20022 
L 357.721394 57.238926 
L 357.766277 57.060626 
L 358.360415 56.525728 
L 360.603854 55.81253 
L 360.777156 55.63423 
L 361.674813 55.455931 
L 361.751233 55.277631 
L 363.293787 55.099332 
L 363.41221 54.921032 
L 363.809339 54.742733 
L 363.877513 54.564433 
L 364.568533 54.207834 
L 364.72379 53.851235 
L 364.811247 53.672936 
L 366.038223 53.316337 
L 366.244933 52.959738 
L 367.572139 52.24654 
L 368.890593 51.711641 
L 369.5825 51.533342 
L 370.489375 50.820144 
L 370.620079 50.463545 
L 370.666968 50.285245 
L 371.987439 50.106946 
L 372.82332 49.750347 
L 373.311811 49.572047 
L 373.495148 49.215448 
L 373.532713 48.858849 
L 374.778457 48.68055 
L 376.241613 47.610753 
L 376.983022 47.432453 
L 377.137383 46.897555 
L 377.7098 46.540956 
L 378.289823 45.827758 
L 378.72377 45.649458 
L 380.76744 45.471159 
L 380.784313 45.292859 
L 381.080429 45.11456 
L 381.12912 44.93626 
L 381.904279 44.579661 
L 385.058233 43.866463 
L 386.650021 43.509864 
L 387.590959 42.974966 
L 387.689149 42.618367 
L 388.667942 42.440067 
L 388.805591 42.261768 
L 389.716671 41.905169 
L 389.811104 41.726869 
L 392.04149 41.37027 
L 392.079786 41.191971 
L 392.579701 40.835372 
L 392.717107 40.657072 
L 394.128317 40.300473 
L 394.773975 39.765575 
L 394.868414 39.408976 
L 395.714853 39.052377 
L 395.953795 38.517478 
L 397.320334 38.160879 
L 397.442363 37.98258 
L 397.845868 37.80428 
L 400.479232 37.269382 
L 400.652756 37.091082 
L 400.995631 36.912783 
L 401.776584 36.734483 
L 402.000199 36.556184 
L 402.030485 36.377884 
L 402.191749 36.199585 
L 402.929701 36.021285 
L 402.960203 35.842986 
L 404.862895 35.664686 
L 405.526354 35.486387 
L 407.216685 35.129788 
L 407.294933 34.773189 
L 407.68569 34.41659 
L 407.728782 34.23829 
L 408.04346 34.059991 
L 410.06341 33.703392 
L 410.978838 33.525092 
L 411.0654 33.346793 
L 412.249536 33.168493 
L 414.675138 32.990194 
L 415.477754 32.811894 
L 415.608386 32.455295 
L 417.542732 32.098696 
L 419.620192 31.742097 
L 421.26877 31.385498 
L 424.248533 31.028899 
L 424.435221 30.8506 
L 426.215022 30.6723 
L 429.158716 30.494001 
L 429.494723 30.315701 
L 431.041985 30.137402 
L 431.411022 29.780803 
L 434.088198 29.424204 
L 434.592421 29.245904 
L 439.552373 28.889305 
L 440.169088 28.711006 
L 443.84206 28.532706 
L 444.090308 28.354407 
L 445.739785 27.997808 
L 447.918785 27.819508 
L 452.260419 27.641209 
L 454.073656 27.10631 
L 454.320771 26.928011 
L 457.246228 26.749711 
L 457.796822 26.571412 
L 457.969743 26.393112 
L 458.346953 26.214813 
L 460.0066 26.036513 
L 467.474791 25.501615 
L 467.765558 25.323315 
L 469.434279 25.145016 
L 469.615495 24.966716 
L 470.809563 24.788417 
L 472.811914 24.610117 
L 496.095591 23.896919 
L 498.230351 23.54032 
L 510.456191 23.362021 
L 513.490755 23.183721 
L 541.314276 22.648823 
L 542.022772 22.470523 
L 546.98188 22.292224 
L 572.027364 22.113924 
L 579.600739 21.935625 
L 579.600739 21.935625 
" clip-path="url(#p737655f0df)" style="fill: none; stroke: #111111; stroke-width: 2; stroke-linecap: round"/>
   </g>
   <g id="line2d_13">
    <path d="M 188.139343 199.165326 
L 188.187477 198.987026 
L 192.855512 198.452128 
L 193.008415 198.273828 
L 193.690926 197.917229 
L 194.343882 197.382331 
L 194.420492 197.204031 
L 195.113686 196.669133 
L 195.13264 196.490833 
L 196.038283 196.134234 
L 196.088356 195.777635 
L 196.391132 195.599336 
L 196.76509 194.351239 
L 197.523076 193.99464 
L 197.713679 193.638041 
L 198.122364 193.281442 
L 198.172732 192.924843 
L 198.345139 192.568244 
L 198.591812 191.855046 
L 199.243212 190.785249 
L 199.540929 189.537153 
L 199.953525 189.358853 
L 200.038086 189.002254 
L 200.404809 188.645655 
L 200.545886 187.932457 
L 201.005514 187.575858 
L 201.169029 187.04096 
L 201.683118 186.506061 
L 201.926348 185.257965 
L 201.92978 185.079665 
L 202.135579 184.901366 
L 202.433956 183.653269 
L 202.598817 183.29667 
L 202.732956 182.226873 
L 202.856354 181.157076 
L 203.043295 180.622178 
L 203.394419 179.017482 
L 203.52313 177.769386 
L 203.849841 177.591086 
L 204.010763 177.056188 
L 204.175874 176.699589 
L 204.233466 176.16469 
L 204.419548 175.986391 
L 204.641418 175.094893 
L 204.908188 174.203396 
L 205.491833 172.063802 
L 205.610038 171.707203 
L 205.695596 171.172304 
L 205.967176 170.280807 
L 206.059026 169.567609 
L 206.267266 168.141213 
L 206.338532 167.784614 
L 206.400737 167.428015 
L 206.550499 167.071416 
L 206.660128 166.179918 
L 206.839481 165.46672 
L 206.870763 164.931822 
L 207.040255 164.396923 
L 207.308774 163.148827 
L 207.539147 161.544132 
L 207.747781 161.187533 
L 207.866071 160.296035 
L 208.036955 159.047939 
L 208.350689 158.334741 
L 208.828426 156.195147 
L 208.957738 155.660248 
L 209.443209 154.055553 
L 209.542118 153.698954 
L 210.763114 147.458471 
L 210.889275 145.318877 
L 210.980162 144.605679 
L 211.194648 144.24908 
L 211.283072 143.714182 
L 211.366473 143.000984 
L 212.197267 140.148192 
L 212.970534 134.620907 
L 213.159435 133.907709 
L 213.317888 132.481313 
L 213.411533 131.589816 
L 213.860602 130.698318 
L 213.976066 129.628521 
L 214.203642 129.271922 
L 214.539121 127.845527 
L 214.785112 126.954029 
L 214.842509 126.419131 
L 215.005565 126.062532 
L 215.163951 125.171034 
L 215.181605 124.992735 
L 215.384869 124.636136 
L 215.589205 124.279537 
L 215.685303 123.566339 
L 215.780729 123.03144 
L 215.962003 122.318242 
L 216.290056 121.961643 
L 216.383501 121.070146 
L 216.910005 120.000349 
L 217.054587 119.287151 
L 217.155758 118.573953 
L 217.16952 118.395653 
L 217.324693 118.039054 
L 217.639705 116.969257 
L 217.816387 116.434359 
L 218.022555 115.542861 
L 218.252497 115.364562 
L 218.3687 114.829663 
L 218.614607 114.294765 
L 218.921681 113.403267 
L 219.238823 112.51177 
L 219.61233 111.798572 
L 219.743184 111.263673 
L 220.033376 110.907074 
L 220.152453 110.193876 
L 220.224387 109.658978 
L 220.416006 109.302379 
L 220.904106 107.341084 
L 221.023272 106.806186 
L 221.149612 106.092988 
L 221.30453 105.558089 
L 221.348053 105.20149 
L 221.724434 104.488292 
L 221.744705 104.131693 
L 221.869844 103.775094 
L 221.973489 103.418495 
L 222.111363 102.348698 
L 222.287465 102.170399 
L 222.306127 101.992099 
L 222.462145 101.6355 
L 222.65741 101.100602 
L 223.092387 100.565703 
L 223.105465 100.209104 
L 223.363685 100.030805 
L 223.417096 99.852505 
L 223.635517 99.674206 
L 223.839417 99.139307 
L 224.084996 98.426109 
L 224.308238 97.356312 
L 224.629548 95.929916 
L 224.69236 95.573317 
L 224.873995 95.395018 
L 224.972573 95.038419 
L 225.140829 94.68182 
L 225.237154 93.968622 
L 225.448819 93.433723 
L 225.596636 93.077124 
L 225.790093 92.898825 
L 225.901023 92.363927 
L 226.040045 92.007328 
L 226.360882 90.759231 
L 226.604013 90.580932 
L 226.611513 90.402632 
L 226.82937 90.224333 
L 226.91471 89.689434 
L 227.842016 87.54984 
L 228.0414 87.193241 
L 228.13393 87.014942 
L 228.880686 86.480043 
L 228.978337 85.766845 
L 229.180073 85.410246 
L 229.30315 85.053647 
L 229.423397 84.518749 
L 229.848324 83.805551 
L 230.188104 83.627251 
L 230.442511 83.092353 
L 230.660175 82.557454 
L 230.979125 81.844256 
L 231.364559 81.665957 
L 231.400396 81.309358 
L 231.941906 80.061261 
L 231.974913 79.882962 
L 232.151246 79.526363 
L 232.593976 78.456566 
L 232.596246 78.099967 
L 232.799305 77.921667 
L 232.894842 77.208469 
L 233.240294 77.03017 
L 233.351173 76.316972 
L 233.535804 76.138672 
L 233.936368 75.960373 
L 234.362302 75.068875 
L 234.550306 74.712276 
L 234.596517 74.355677 
L 235.051404 73.999078 
L 235.303776 73.46418 
L 235.514 72.929281 
L 235.745485 72.394383 
L 235.761315 72.216083 
L 236.023754 71.859484 
L 236.138023 71.502885 
L 236.437814 71.324586 
L 236.576624 70.967987 
L 236.711085 70.611388 
L 236.936025 70.254789 
L 237.074303 69.71989 
L 237.341079 69.363291 
L 237.612597 68.828393 
L 237.860247 68.650093 
L 238.054728 68.293494 
L 238.387511 67.580296 
L 239.177083 67.045398 
L 239.473419 66.688799 
L 239.631151 66.510499 
L 239.697478 66.1539 
L 239.879553 65.975601 
L 239.963381 65.619002 
L 240.139191 65.440702 
L 240.474183 65.262403 
L 240.572602 65.084103 
L 241.104093 64.905804 
L 241.922921 63.122809 
L 242.303184 62.76621 
L 242.528537 62.409611 
L 242.566479 62.231311 
L 242.759152 62.053012 
L 243.314186 61.874712 
L 243.378818 61.696413 
L 243.932357 61.339814 
L 244.430237 60.270017 
L 244.704604 59.913418 
L 244.797666 59.735118 
L 245.085936 59.378519 
L 245.568776 58.665321 
L 246.01259 58.487022 
L 246.153931 58.130423 
L 246.734164 57.952123 
L 247.855899 56.347428 
L 248.55581 55.990829 
L 248.957196 55.81253 
L 249.164057 55.099332 
L 249.515175 54.386134 
L 250.479102 52.959738 
L 250.961781 52.781438 
L 251.128661 52.24654 
L 251.548712 52.06824 
L 251.959038 51.355042 
L 252.028218 51.176743 
L 252.950218 50.463545 
L 253.204098 49.928646 
L 254.104617 49.750347 
L 254.251685 49.393748 
L 254.530833 49.215448 
L 254.594561 48.68055 
L 255.024245 48.50225 
L 255.400304 47.789052 
L 256.104531 47.432453 
L 256.339249 47.075854 
L 256.757463 46.897555 
L 256.792878 46.719255 
L 257.086477 46.540956 
L 257.165115 46.362656 
L 257.52524 46.184357 
L 257.651574 45.827758 
L 257.84506 45.649458 
L 258.525206 45.292859 
L 259.690674 45.11456 
L 259.856338 44.93626 
L 260.502346 44.579661 
L 261.256002 44.223062 
L 261.261381 44.044763 
L 262.390477 43.688164 
L 262.461698 43.331565 
L 262.702617 43.153265 
L 264.594015 42.618367 
L 264.599028 42.440067 
L 265.479529 41.905169 
L 265.924043 41.54857 
L 265.987803 41.37027 
L 266.812417 41.013671 
L 267.23421 40.478773 
L 267.952514 40.122174 
L 269.074045 39.408976 
L 270.164582 39.052377 
L 270.182727 38.874077 
L 270.688361 38.695778 
L 270.759661 38.517478 
L 272.184526 38.160879 
L 273.033806 37.80428 
L 273.073295 37.625981 
L 273.28138 37.447681 
L 274.013098 37.269382 
L 274.013305 37.091082 
L 274.592204 36.912783 
L 275.680852 36.734483 
L 275.974568 36.556184 
L 277.338891 36.377884 
L 277.534931 36.199585 
L 280.521915 35.842986 
L 281.687215 35.486387 
L 281.796039 35.308087 
L 282.699352 34.951488 
L 284.536739 34.773189 
L 284.552997 34.594889 
L 285.39262 33.881691 
L 286.120099 33.703392 
L 286.126484 33.525092 
L 287.860128 33.168493 
L 289.28492 32.990194 
L 289.593084 32.811894 
L 290.201281 32.633595 
L 290.248644 32.455295 
L 291.803802 32.098696 
L 291.866448 31.920397 
L 294.484593 31.563798 
L 295.040688 31.385498 
L 295.193682 31.207199 
L 296.280692 30.8506 
L 296.611579 30.315701 
L 297.100408 30.137402 
L 299.155111 29.959102 
L 299.37474 29.780803 
L 299.3955 29.602503 
L 300.371624 29.424204 
L 300.605817 29.245904 
L 301.698336 28.889305 
L 305.496135 28.711006 
L 306.687727 28.354407 
L 310.660154 27.997808 
L 311.515399 27.819508 
L 311.632185 27.641209 
L 314.243076 27.28461 
L 314.866701 27.10631 
L 316.144674 26.928011 
L 321.406505 26.571412 
L 322.814082 26.214813 
L 328.460845 26.036513 
L 333.200142 25.501615 
L 334.480946 25.145016 
L 354.806799 24.253518 
L 363.947879 24.075219 
L 365.709716 23.71862 
L 366.992623 23.54032 
L 400.677168 22.827122 
L 438.985058 21.935625 
L 438.985058 21.935625 
" clip-path="url(#p737655f0df)" style="fill: none; stroke: #4878cf; stroke-width: 1.2; stroke-linecap: round"/>
   </g>
   <g id="line2d_14">
    <path d="M 72.493743 199.165326 
L 72.510149 198.987026 
L 73.140793 198.630427 
L 73.339375 198.273828 
L 73.435375 198.095529 
L 73.709023 197.917229 
L 73.783934 197.56063 
L 74.021359 197.025732 
L 74.437466 195.955935 
L 74.531831 195.242737 
L 74.767627 194.886138 
L 75.010899 194.529539 
L 75.164177 193.99464 
L 75.340823 193.816341 
L 75.380662 193.459742 
L 75.670788 193.103143 
L 75.908508 192.568244 
L 76.34931 191.676747 
L 76.602112 191.141848 
L 76.747483 190.785249 
L 77.034478 190.250351 
L 77.573291 190.072051 
L 77.649143 189.893752 
L 77.941087 189.537153 
L 78.329826 188.467356 
L 78.577266 188.289056 
L 78.697545 187.932457 
L 78.916095 187.397559 
L 78.931797 187.219259 
L 79.258428 186.86266 
L 79.762416 186.327762 
L 80.081248 185.436264 
L 80.496572 185.079665 
L 81.261476 183.47497 
L 81.294084 183.29667 
L 81.559489 182.940071 
L 81.63462 182.583472 
L 81.848617 182.226873 
L 82.090206 181.870274 
L 82.291179 181.513675 
L 82.589603 181.335376 
L 83.183869 181.157076 
L 83.546736 179.73068 
L 84.02864 179.374081 
L 84.346283 179.017482 
L 84.414113 178.660883 
L 84.674751 178.304284 
L 84.782185 177.947685 
L 85.55902 177.769386 
L 85.815434 177.591086 
L 85.995962 177.234487 
L 86.332763 176.877888 
L 86.43133 176.521289 
L 86.952844 176.16469 
L 87.266871 175.986391 
L 87.467888 175.451492 
L 87.579304 175.273193 
L 88.015679 174.916594 
L 88.487486 173.668497 
L 88.669644 173.311898 
L 88.778618 172.777 
L 89.479601 171.885502 
L 89.553834 171.350604 
L 89.85698 170.994005 
L 90.282067 170.815705 
L 90.713269 169.745908 
L 91.619645 169.389309 
L 91.905527 168.676111 
L 92.33807 168.497812 
L 92.532413 168.141213 
L 92.53816 167.962913 
L 93.00426 167.784614 
L 93.036926 167.606314 
L 93.432574 167.249715 
L 93.820281 166.358218 
L 94.577457 166.179918 
L 95.003863 165.288421 
L 95.069364 164.753522 
L 95.666982 164.040324 
L 96.258291 162.613929 
L 96.399609 162.435629 
L 97.057073 162.25733 
L 97.119682 161.900731 
L 97.30908 161.722431 
L 97.378962 161.365832 
L 98.168031 161.009233 
L 99.117143 160.117736 
L 99.515964 159.226238 
L 100.160052 158.69134 
L 100.275463 158.334741 
L 100.476626 157.978142 
L 100.524193 157.799842 
L 100.713363 157.621543 
L 101.719056 157.086644 
L 102.18098 156.373446 
L 102.614975 156.016847 
L 102.736369 155.660248 
L 103.129952 155.303649 
L 103.287586 154.590451 
L 103.641203 154.233852 
L 103.658444 153.877253 
L 103.897006 153.520654 
L 104.406311 153.342355 
L 104.89561 152.450857 
L 105.230028 152.272558 
L 105.282673 152.094258 
L 105.608346 151.737659 
L 105.78586 151.38106 
L 106.145888 150.846162 
L 106.339624 150.311263 
L 106.690034 149.776365 
L 107.189984 148.706568 
L 107.530866 148.349969 
L 108.043777 148.171669 
L 108.350519 147.101872 
L 108.435653 146.923573 
L 109.098635 146.566974 
L 109.86397 145.497177 
L 110.051912 144.783979 
L 110.261009 144.605679 
L 110.266839 144.42738 
L 110.574702 144.24908 
L 110.767548 143.714182 
L 110.946854 143.535882 
L 111.027326 143.179283 
L 111.440852 142.466085 
L 111.805059 141.931187 
L 111.987147 141.396288 
L 112.132153 141.217989 
L 112.48127 141.039689 
L 112.574971 140.86139 
L 112.824259 140.68309 
L 112.995254 140.148192 
L 113.486935 139.791593 
L 113.737954 139.078395 
L 114.059611 138.543496 
L 114.158412 138.186897 
L 114.71884 138.008598 
L 115.280136 136.938801 
L 115.396628 136.582202 
L 115.720264 136.403902 
L 115.804265 136.225603 
L 116.170678 135.869004 
L 116.314519 135.334105 
L 116.889354 134.977506 
L 116.955443 134.442608 
L 117.377769 134.086009 
L 117.623465 133.907709 
L 118.117497 133.72941 
L 118.429834 132.837912 
L 118.929567 131.411516 
L 119.182743 131.233217 
L 119.222719 130.876618 
L 119.493809 130.520019 
L 119.623973 130.16342 
L 119.723775 129.806821 
L 120.277177 129.271922 
L 120.379668 128.915323 
L 121.73137 128.202126 
L 121.823212 127.845527 
L 122.021089 127.667227 
L 122.573014 127.488928 
L 122.733405 127.132329 
L 122.941818 126.240831 
L 123.254436 126.062532 
L 124.149998 124.101237 
L 124.425459 123.922938 
L 124.753142 123.03144 
L 124.803711 122.853141 
L 125.225301 122.496542 
L 125.92957 121.605044 
L 125.986619 121.426745 
L 126.463047 120.891846 
L 126.685047 120.535247 
L 127.150265 120.356948 
L 127.295993 119.822049 
L 127.777647 118.752252 
L 127.796948 118.573953 
L 128.227603 118.217354 
L 128.995488 118.039054 
L 129.043482 117.860755 
L 129.335833 117.504156 
L 129.456401 117.325856 
L 130.25852 117.147557 
L 130.408685 116.790958 
L 130.633162 116.434359 
L 130.764878 116.07776 
L 131.307307 115.542861 
L 131.439745 115.186262 
L 131.904402 115.007963 
L 132.049602 114.473064 
L 132.167374 113.938166 
L 133.185402 113.403267 
L 133.499812 113.224968 
L 134.017956 112.33347 
L 134.570117 111.620272 
L 134.679039 111.085374 
L 134.79372 110.728775 
L 135.079302 110.193876 
L 135.401826 109.837277 
L 136.448115 107.697683 
L 136.566562 107.341084 
L 136.884411 106.806186 
L 137.01068 106.627886 
L 137.413401 106.449587 
L 137.679969 105.914688 
L 137.701132 105.736389 
L 138.074048 105.558089 
L 138.162601 105.37979 
L 138.487046 105.20149 
L 138.577327 104.844891 
L 138.76544 104.488292 
L 139.432117 104.131693 
L 139.449348 103.953394 
L 139.651106 103.775094 
L 140.377328 103.596795 
L 140.997903 103.061896 
L 141.23022 102.170399 
L 141.469245 101.8138 
L 141.859324 101.278901 
L 141.938277 100.922302 
L 142.122748 100.744003 
L 142.202027 100.209104 
L 142.681887 99.852505 
L 143.043652 99.674206 
L 143.206269 99.317607 
L 143.409808 98.961008 
L 143.919867 98.426109 
L 144.381966 98.24781 
L 144.590514 97.534612 
L 144.95701 97.356312 
L 145.232345 96.821414 
L 145.739674 96.286515 
L 146.125642 95.751617 
L 146.935274 95.216718 
L 146.989623 95.038419 
L 147.198168 94.860119 
L 147.216456 94.68182 
L 147.973498 94.325221 
L 148.25061 93.790322 
L 148.815426 93.612023 
L 149.051448 93.255424 
L 149.054613 93.077124 
L 149.360511 92.898825 
L 149.8877 91.829028 
L 150.581942 91.11583 
L 151.161776 90.759231 
L 151.18 90.580932 
L 151.429926 90.402632 
L 151.444822 90.224333 
L 151.885844 89.511135 
L 151.8933 89.332835 
L 152.192945 88.976236 
L 152.532164 88.619637 
L 152.741201 88.441338 
L 152.749566 88.263038 
L 152.906786 87.906439 
L 153.086115 87.371541 
L 153.429075 86.836642 
L 153.486588 86.480043 
L 154.111429 85.766845 
L 154.61073 85.588546 
L 154.693095 85.231947 
L 155.095883 84.518749 
L 155.316049 83.98385 
L 155.462153 83.448952 
L 156.309501 82.914053 
L 156.33625 82.735754 
L 156.681331 82.379155 
L 156.917198 81.844256 
L 157.229496 81.665957 
L 157.276001 81.487657 
L 158.966125 80.774459 
L 159.0346 80.59616 
L 159.788329 80.061261 
L 159.792184 79.882962 
L 160.065839 79.704662 
L 160.219539 79.348063 
L 160.318493 79.169764 
L 161.136926 78.634865 
L 161.140442 78.456566 
L 162.445786 77.921667 
L 162.698817 77.386769 
L 163.551345 76.495271 
L 163.832272 75.960373 
L 164.431948 75.425474 
L 164.515773 75.247175 
L 164.989324 74.890576 
L 165.402301 74.712276 
L 165.418995 74.355677 
L 165.581988 74.177378 
L 165.604594 73.820779 
L 166.435784 72.572682 
L 166.810443 72.394383 
L 167.520122 72.216083 
L 168.899858 70.789687 
L 169.101259 70.254789 
L 170.705715 69.71989 
L 171.101871 68.293494 
L 171.404926 67.758596 
L 171.476638 67.580296 
L 171.859874 67.401997 
L 171.883737 67.223697 
L 172.448557 66.867098 
L 172.905954 66.510499 
L 172.938672 66.3322 
L 173.512046 66.1539 
L 173.819789 65.797301 
L 175.282726 65.084103 
L 176.91459 64.905804 
L 177.445 64.370905 
L 177.457766 64.192606 
L 177.813116 63.836007 
L 178.238947 63.657707 
L 178.291803 63.479408 
L 178.551769 63.122809 
L 178.679464 62.944509 
L 179.010224 62.76621 
L 181.382225 62.231311 
L 181.469059 62.053012 
L 181.751845 61.874712 
L 182.58474 61.696413 
L 182.704834 61.339814 
L 183.038368 61.161514 
L 184.044823 60.983215 
L 184.140265 60.804915 
L 184.480759 60.626616 
L 185.768022 60.448316 
L 186.508119 59.378519 
L 186.731133 59.02192 
L 187.477395 58.665321 
L 187.571963 58.487022 
L 188.259787 58.308722 
L 188.395822 57.952123 
L 188.555717 57.595524 
L 188.909805 57.417225 
L 188.978836 57.238926 
L 189.69703 57.060626 
L 190.136722 56.525728 
L 190.429969 56.347428 
L 190.476277 56.169129 
L 190.726138 55.990829 
L 190.779019 55.81253 
L 191.459489 55.63423 
L 192.114862 54.921032 
L 193.000434 54.386134 
L 193.167121 53.851235 
L 193.599334 53.672936 
L 193.704457 53.494636 
L 195.113534 53.316337 
L 195.620608 52.959738 
L 196.179153 52.781438 
L 196.647222 52.424839 
L 197.176875 51.889941 
L 197.830285 51.711641 
L 198.224519 50.998443 
L 198.251256 50.820144 
L 198.617415 50.285245 
L 198.749458 50.106946 
L 199.195968 49.928646 
L 199.392034 49.393748 
L 199.619744 49.215448 
L 200.037755 49.037149 
L 200.304143 48.50225 
L 200.796861 48.323951 
L 200.961365 48.145651 
L 202.704811 47.967352 
L 203.178708 47.610753 
L 203.242512 47.432453 
L 204.086574 47.254154 
L 204.15632 47.075854 
L 205.597685 46.897555 
L 207.416318 46.184357 
L 207.507539 46.006057 
L 207.805663 45.827758 
L 207.826049 45.649458 
L 208.957802 44.93626 
L 209.869604 44.401362 
L 211.049121 44.223062 
L 212.078747 43.688164 
L 213.818719 43.331565 
L 214.290588 43.153265 
L 214.352552 42.974966 
L 215.999892 42.261768 
L 216.123069 42.083468 
L 217.209085 41.726869 
L 217.702499 41.54857 
L 217.912942 41.191971 
L 219.525522 40.835372 
L 220.00973 40.657072 
L 220.879917 40.478773 
L 220.934636 40.300473 
L 221.625148 39.943874 
L 223.964684 39.408976 
L 224.279518 39.230676 
L 224.927493 39.052377 
L 225.498016 38.339179 
L 226.313347 37.98258 
L 226.538158 37.80428 
L 227.319846 37.625981 
L 227.471179 37.269382 
L 229.269966 37.091082 
L 229.717731 36.912783 
L 231.70875 36.556184 
L 231.721435 36.377884 
L 233.324551 36.021285 
L 233.408461 35.842986 
L 238.566389 35.486387 
L 238.759665 34.951488 
L 240.970285 34.41659 
L 241.358715 34.059991 
L 242.814171 33.525092 
L 243.149117 33.346793 
L 244.879275 33.168493 
L 245.30711 32.990194 
L 246.316228 32.811894 
L 246.654358 32.633595 
L 247.793089 32.455295 
L 251.775305 32.276996 
L 252.99429 32.098696 
L 253.001462 31.920397 
L 253.193853 31.742097 
L 254.637234 31.563798 
L 255.037992 31.385498 
L 257.232729 30.8506 
L 257.844168 30.137402 
L 257.914201 29.959102 
L 260.035728 29.602503 
L 261.091376 29.424204 
L 261.835433 28.889305 
L 262.199733 28.711006 
L 263.659676 28.532706 
L 263.737024 28.354407 
L 264.001227 28.176107 
L 273.823646 27.462909 
L 277.321476 27.10631 
L 284.037689 26.928011 
L 287.281788 26.571412 
L 293.686805 26.036513 
L 293.878151 25.858214 
L 294.794794 25.679914 
L 295.072506 25.501615 
L 297.266607 25.323315 
L 298.007806 25.145016 
L 298.047584 24.966716 
L 298.893727 24.788417 
L 308.463109 24.253518 
L 309.282091 23.896919 
L 311.532391 23.71862 
L 311.836753 23.54032 
L 316.508875 23.362021 
L 316.710718 23.005422 
L 345.428741 22.470523 
L 399.560269 22.113924 
L 400.729362 21.935625 
L 400.729362 21.935625 
" clip-path="url(#p737655f0df)" style="fill: none; stroke: #d1701f; stroke-width: 1.2; stroke-linecap: round"/>
   </g>
   <g id="line2d_15">
    <path d="M 72.328011 199.165326 
L 72.613195 197.56063 
L 72.763998 197.204031 
L 72.88699 196.312534 
L 73.134039 194.707838 
L 73.252509 193.281442 
L 73.443129 192.924843 
L 73.569646 192.033346 
L 73.704353 189.893752 
L 73.88927 188.110757 
L 74.373217 184.366467 
L 74.461316 183.831569 
L 74.582796 183.47497 
L 74.797144 181.513675 
L 75.013214 180.087279 
L 75.155535 178.839183 
L 76.14429 171.172304 
L 76.282035 169.389309 
L 76.369465 169.03271 
L 76.494206 167.962913 
L 76.682449 167.784614 
L 76.888724 166.179918 
L 77.417196 162.792228 
L 77.523287 162.07903 
L 77.594663 161.544132 
L 77.692381 160.117736 
L 78.309381 155.838548 
L 78.408857 155.12535 
L 78.493126 153.698954 
L 78.58333 153.342355 
L 78.68463 152.985756 
L 78.981383 150.846162 
L 79.04735 150.311263 
L 79.195406 148.706568 
L 79.289258 147.99337 
L 79.397539 146.566974 
L 79.566493 146.388674 
L 79.646997 145.318877 
L 79.709939 144.783979 
L 79.838334 144.24908 
L 79.953717 143.179283 
L 80.233628 140.148192 
L 80.42929 138.186897 
L 80.56339 136.403902 
L 80.708763 135.690704 
L 80.810393 134.977506 
L 80.876975 134.442608 
L 80.98926 133.907709 
L 81.235244 132.659613 
L 81.438158 129.628521 
L 81.563677 129.271922 
L 81.838639 127.488928 
L 81.93896 126.77573 
L 82.260978 124.636136 
L 82.358701 124.101237 
L 82.516512 123.20974 
L 82.706843 120.713547 
L 82.928836 119.64375 
L 83.405432 115.364562 
L 83.710583 112.868369 
L 84.181638 109.480678 
L 84.548591 105.736389 
L 85.304328 99.674206 
L 85.410659 99.317607 
L 85.55012 98.782708 
L 86.034053 94.146921 
L 86.246737 93.433723 
L 86.503033 92.185627 
L 86.602468 91.11583 
L 87.207665 87.371541 
L 87.326918 85.588546 
L 87.407823 85.053647 
L 87.685741 83.092353 
L 87.790234 81.487657 
L 87.893173 79.882962 
L 87.998216 79.526363 
L 88.357357 76.673571 
L 88.540334 76.138672 
L 88.639587 75.425474 
L 88.737269 75.068875 
L 89.254532 72.394383 
L 89.351425 71.859484 
L 89.652919 70.433088 
L 89.752221 69.89819 
L 89.948266 69.006692 
L 90.054753 68.293494 
L 90.418315 65.440702 
L 90.533265 64.905804 
L 90.633123 64.370905 
L 90.746823 62.944509 
L 90.927075 61.696413 
L 91.038258 60.091717 
L 91.374149 58.843621 
L 91.472227 57.773824 
L 91.738916 57.595524 
L 92.232266 54.742733 
L 92.416489 54.207834 
L 92.603044 53.138037 
L 92.703672 52.06824 
L 92.875326 51.711641 
L 92.94727 51.176743 
L 93.024251 50.463545 
L 93.374877 48.858849 
L 93.418619 48.50225 
L 93.613651 48.145651 
L 93.706744 47.789052 
L 93.856378 46.540956 
L 93.993721 45.827758 
L 94.111797 45.292859 
L 94.864609 41.905169 
L 95.132126 41.54857 
L 95.283617 40.835372 
L 95.391758 40.478773 
L 95.429189 39.943874 
L 95.601909 39.587275 
L 96.352701 37.269382 
L 96.568427 36.912783 
L 96.663411 36.377884 
L 96.85373 36.021285 
L 97.125976 35.308087 
L 97.300956 35.129788 
L 97.352073 34.773189 
L 97.561757 34.594889 
L 97.775535 33.703392 
L 98.498392 32.276996 
L 98.742514 31.742097 
L 98.953563 31.563798 
L 99.051103 31.028899 
L 99.113542 30.8506 
L 99.960961 30.315701 
L 99.987818 30.137402 
L 100.421871 29.780803 
L 100.435411 29.424204 
L 100.70608 29.245904 
L 100.731984 29.067605 
L 101.05966 28.711006 
L 101.193591 28.176107 
L 101.584238 27.462909 
L 101.804031 27.10631 
L 101.933709 26.749711 
L 101.942858 26.571412 
L 102.202035 26.214813 
L 102.531103 26.036513 
L 102.670406 25.679914 
L 103.53625 24.788417 
L 104.335624 24.610117 
L 104.412026 24.431818 
L 105.279904 24.075219 
L 105.434849 23.896919 
L 106.287022 23.362021 
L 110.51019 23.005422 
L 111.941136 22.827122 
L 126.665331 22.292224 
L 128.927784 22.113924 
L 135.380199 21.935625 
L 135.380199 21.935625 
" clip-path="url(#p737655f0df)" style="fill: none; stroke: #6a51a3; stroke-width: 1.2; stroke-linecap: round"/>
   </g>
   <g id="patch_3">
    <path d="M 46.964375 199.343625 
L 46.964375 21.935625 
" style="fill: none; stroke: #cccccc; stroke-width: 1.25; stroke-linejoin: miter; stroke-linecap: square"/>
   </g>
   <g id="patch_4">
    <path d="M 46.964375 199.343625 
L 604.964375 199.343625 
" style="fill: none; stroke: #cccccc; stroke-width: 1.25; stroke-linejoin: miter; stroke-linecap: square"/>
   </g>
   <g id="text_14">
    <!-- Correction Δv - - empirical CDF (total + burns) -->
    <g style="fill: #262626" transform="translate(205.764688 15.935625) scale(0.12 -0.12)">
     <defs>
      <path id="ArialMT-43" d="M 3763 1606 
L 4369 1453 
Q 4178 706 3683 314 
Q 3188 -78 2472 -78 
Q 1731 -78 1267 223 
Q 803 525 561 1097 
Q 319 1669 319 2325 
Q 319 3041 592 3573 
Q 866 4106 1370 4382 
Q 1875 4659 2481 4659 
Q 3169 4659 3637 4309 
Q 4106 3959 4291 3325 
L 3694 3184 
Q 3534 3684 3231 3912 
Q 2928 4141 2469 4141 
Q 1941 4141 1586 3887 
Q 1231 3634 1087 3207 
Q 944 2781 944 2328 
Q 944 1744 1114 1308 
Q 1284 872 1643 656 
Q 2003 441 2422 441 
Q 2931 441 3284 734 
Q 3638 1028 3763 1606 
z
" transform="scale(0.015625)"/>
      <path id="ArialMT-2d" d="M 203 1375 
L 203 1941 
L 1931 1941 
L 1931 1375 
L 203 1375 
z
" transform="scale(0.015625)"/>
      <path id="ArialMT-70" d="M 422 -1272 
L 422 3319 
L 934 3319 
L 934 2888 
Q 1116 3141 1344 3267 
Q 1572 3394 1897 3394 
Q 2322 3394 2647 3175 
Q 2972 2956 3137 2557 
Q 3303 2159 3303 1684 
Q 3303 1175 3120 767 
Q 2938 359 2589 142 
Q 2241 -75 1856 -75 
Q 1575 -75 1351 44 
Q 1128 163 984 344 
L 984 -1272 
L 422 -1272 
z
M 931 1641 
Q 931 1000 1190 694 
Q 1450 388 1819 388 
Q 2194 388 2461 705 
Q 2728 1022 2728 1688 
Q 2728 2322 2467 2637 
Q 2206 2953 1844 2953 
Q 1484 2953 1207 2617 
Q 931 2281 931 1641 
z
" transform="scale(0.015625)"/>
      <path id="ArialMT-44" d="M 494 0 
L 494 4581 
L 2072 4581 
Q 2606 4581 2888 4516 
Q 3281 4425 3559 4188 
Q 3922 3881 4101 3404 
Q 4281 2928 4281 2316 
Q 4281 1794 4159 1391 
Q 4038 988 3847 723 
Q 3656 459 3429 307 
Q 3203 156 2883 78 
Q 2563 0 2147 0 
L 494 0 
z
M 1100 541 
L 2078 541 
Q 2531 541 2789 625 
Q 3047 709 3200 863 
Q 3416 1078 3536 1442 
Q 3656 1806 3656 2325 
Q 3656 3044 3420 3430 
Q 3184 3816 2847 3947 
Q 2603 4041 2063 4041 
L 1100 4041 
L 1100 541 
z
" transform="scale(0.015625)"/>
      <path id="ArialMT-46" d="M 525 0 
L 525 4581 
L 3616 4581 
L 3616 4041 
L 1131 4041 
L 1131 2622 
L 3281 2622 
L 3281 2081 
L 1131 2081 
L 1131 0 
L 525 0 
z
" transform="scale(0.015625)"/>
      <path id="ArialMT-2b" d="M 1603 741 
L 1603 1997 
L 356 1997 
L 356 2522 
L 1603 2522 
L 1603 3769 
L 2134 3769 
L 2134 2522 
L 3381 2522 
L 3381 1997 
L 2134 1997 
L 2134 741 
L 1603 741 
z
" transform="scale(0.015625)"/>
      <path id="ArialMT-62" d="M 941 0 
L 419 0 
L 419 4581 
L 981 4581 
L 981 2947 
Q 1338 3394 1891 3394 
Q 2197 3394 2470 3270 
Q 2744 3147 2920 2923 
Q 3097 2700 3197 2384 
Q 3297 2069 3297 1709 
Q 3297 856 2875 390 
Q 2453 -75 1863 -75 
Q 1275 -75 941 416 
L 941 0 
z
M 934 1684 
Q 934 1088 1097 822 
Q 1363 388 1816 388 
Q 2184 388 2453 708 
Q 2722 1028 2722 1663 
Q 2722 2313 2464 2622 
Q 2206 2931 1841 2931 
Q 1472 2931 1203 2611 
Q 934 2291 934 1684 
z
" transform="scale(0.015625)"/>
     </defs>
     <use xlink:href="#ArialMT-43"/>
     <use xlink:href="#ArialMT-6f" transform="translate(72.216797 0)"/>
     <use xlink:href="#ArialMT-72" transform="translate(127.832031 0)"/>
     <use xlink:href="#ArialMT-72" transform="translate(161.132812 0)"/>
     <use xlink:href="#ArialMT-65" transform="translate(194.433594 0)"/>
     <use xlink:href="#ArialMT-63" transform="translate(250.048828 0)"/>
     <use xlink:href="#ArialMT-74" transform="translate(300.048828 0)"/>
     <use xlink:href="#ArialMT-69" transform="translate(327.832031 0)"/>
     <use xlink:href="#ArialMT-6f" transform="translate(350.048828 0)"/>
     <use xlink:href="#ArialMT-6e" transform="translate(405.664062 0)"/>
     <use xlink:href="#ArialMT-20" transform="translate(461.279297 0)"/>
     <use xlink:href="#ArialMT-394" transform="translate(483.5625 0)"/>
     <use xlink:href="#ArialMT-76" transform="translate(550.359375 0)"/>
     <use xlink:href="#ArialMT-20" transform="translate(600.359375 0)"/>
     <use xlink:href="#ArialMT-2d" transform="translate(628.142578 0)"/>
     <use xlink:href="#ArialMT-2d" transform="translate(661.443359 0)"/>
     <use xlink:href="#ArialMT-20" transform="translate(694.744141 0)"/>
     <use xlink:href="#ArialMT-65" transform="translate(722.527344 0)"/>
     <use xlink:href="#ArialMT-6d" transform="translate(778.142578 0)"/>
     <use xlink:href="#ArialMT-70" transform="translate(861.443359 0)"/>
     <use xlink:href="#ArialMT-69" transform="translate(917.058594 0)"/>
     <use xlink:href="#ArialMT-72" transform="translate(939.275391 0)"/>
     <use xlink:href="#ArialMT-69" transform="translate(972.576172 0)"/>
     <use xlink:href="#ArialMT-63" transform="translate(994.792969 0)"/>
     <use xlink:href="#ArialMT-61" transform="translate(1044.792969 0)"/>
     <use xlink:href="#ArialMT-6c" transform="translate(1100.408203 0)"/>
     <use xlink:href="#ArialMT-20" transform="translate(1122.625 0)"/>
     <use xlink:href="#ArialMT-43" transform="translate(1150.408203 0)"/>
     <use xlink:href="#ArialMT-44" transform="translate(1222.625 0)"/>
     <use xlink:href="#ArialMT-46" transform="translate(1294.841797 0)"/>
     <use xlink:href="#ArialMT-20" transform="translate(1355.925781 0)"/>
     <use xlink:href="#ArialMT-28" transform="translate(1383.708984 0)"/>
     <use xlink:href="#ArialMT-74" transform="translate(1417.009766 0)"/>
     <use xlink:href="#ArialMT-6f" transform="translate(1444.792969 0)"/>
     <use xlink:href="#ArialMT-74" transform="translate(1500.408203 0)"/>
     <use xlink:href="#ArialMT-61" transform="translate(1528.191406 0)"/>
     <use xlink:href="#ArialMT-6c" transform="translate(1583.806641 0)"/>
     <use xlink:href="#ArialMT-20" transform="translate(1606.023438 0)"/>
     <use xlink:href="#ArialMT-2b" transform="translate(1633.806641 0)"/>
     <use xlink:href="#ArialMT-20" transform="translate(1692.205078 0)"/>
     <use xlink:href="#ArialMT-62" transform="translate(1719.988281 0)"/>
     <use xlink:href="#ArialMT-75" transform="translate(1775.603516 0)"/>
     <use xlink:href="#ArialMT-72" transform="translate(1831.21875 0)"/>
     <use xlink:href="#ArialMT-6e" transform="translate(1864.519531 0)"/>
     <use xlink:href="#ArialMT-73" transform="translate(1920.134766 0)"/>
     <use xlink:href="#ArialMT-29" transform="translate(1970.134766 0)"/>
    </g>
   </g>
   <g id="legend_1">
    <g id="patch_5">
     <path d="M 482.644572 194.345625 
L 597.967175 194.345625 
Q 599.966375 194.345625 599.966375 192.346425 
L 599.966375 136.610916 
Q 599.966375 134.611716 597.967175 134.611716 
L 482.644572 134.611716 
Q 480.645372 134.611716 480.645372 136.610916 
L 480.645372 192.346425 
Q 480.645372 194.345625 482.644572 194.345625 
z
" style="fill: #f5f5f5; opacity: 0.8; stroke: #cccccc; stroke-linejoin: miter"/>
    </g>
    <g id="line2d_16">
     <path d="M 484.643772 142.266465 
L 494.639772 142.266465 
L 504.635772 142.266465 
" style="fill: none; stroke: #111111; stroke-width: 2; stroke-linecap: round"/>
    </g>
    <g id="text_15">
     <!-- total Δv -->
     <g style="fill: #262626" transform="translate(512.632572 145.765065) scale(0.09996 -0.09996)">
      <use xlink:href="#ArialMT-74"/>
      <use xlink:href="#ArialMT-6f" transform="translate(27.783203 0)"/>
      <use xlink:href="#ArialMT-74" transform="translate(83.398438 0)"/>
      <use xlink:href="#ArialMT-61" transform="translate(111.181641 0)"/>
      <use xlink:href="#ArialMT-6c" transform="translate(166.796875 0)"/>
      <use xlink:href="#ArialMT-20" transform="translate(189.013672 0)"/>
      <use xlink:href="#ArialMT-394" transform="translate(211.296875 0)"/>
      <use xlink:href="#ArialMT-76" transform="translate(278.09375 0)"/>
     </g>
    </g>
    <g id="line2d_17">
     <path d="M 484.643772 156.435795 
L 494.639772 156.435795 
L 504.635772 156.435795 
" style="fill: none; stroke: #4878cf; stroke-width: 1.2; stroke-linecap: round"/>
    </g>
    <g id="text_16">
     <!-- dv1 periapsis raise -->
     <g style="fill: #262626" transform="translate(512.632572 159.934395) scale(0.09996 -0.09996)">
      <defs>
       <path id="ArialMT-64" d="M 2575 0 
L 2575 419 
Q 2259 -75 1647 -75 
Q 1250 -75 917 144 
Q 584 363 401 755 
Q 219 1147 219 1656 
Q 219 2153 384 2558 
Q 550 2963 881 3178 
Q 1213 3394 1622 3394 
Q 1922 3394 2156 3267 
Q 2391 3141 2538 2938 
L 2538 4581 
L 3097 4581 
L 3097 0 
L 2575 0 
z
M 797 1656 
Q 797 1019 1065 703 
Q 1334 388 1700 388 
Q 2069 388 2326 689 
Q 2584 991 2584 1609 
Q 2584 2291 2321 2609 
Q 2059 2928 1675 2928 
Q 1300 2928 1048 2622 
Q 797 2316 797 1656 
z
" transform="scale(0.015625)"/>
      </defs>
      <use xlink:href="#ArialMT-64"/>
      <use xlink:href="#ArialMT-76" transform="translate(55.615234 0)"/>
      <use xlink:href="#ArialMT-31" transform="translate(105.615234 0)"/>
      <use xlink:href="#ArialMT-20" transform="translate(161.230469 0)"/>
      <use xlink:href="#ArialMT-70" transform="translate(189.013672 0)"/>
      <use xlink:href="#ArialMT-65" transform="translate(244.628906 0)"/>
      <use xlink:href="#ArialMT-72" transform="translate(300.244141 0)"/>
      <use xlink:href="#ArialMT-69" transform="translate(333.544922 0)"/>
      <use xlink:href="#ArialMT-61" transform="translate(355.761719 0)"/>
      <use xlink:href="#ArialMT-70" transform="translate(411.376953 0)"/>
      <use xlink:href="#ArialMT-73" transform="translate(466.992188 0)"/>
      <use xlink:href="#ArialMT-69" transform="translate(516.992188 0)"/>
      <use xlink:href="#ArialMT-73" transform="translate(539.208984 0)"/>
      <use xlink:href="#ArialMT-20" transform="translate(589.208984 0)"/>
      <use xlink:href="#ArialMT-72" transform="translate(616.992188 0)"/>
      <use xlink:href="#ArialMT-61" transform="translate(650.292969 0)"/>
      <use xlink:href="#ArialMT-69" transform="translate(705.908203 0)"/>
      <use xlink:href="#ArialMT-73" transform="translate(728.125 0)"/>
      <use xlink:href="#ArialMT-65" transform="translate(778.125 0)"/>
     </g>
    </g>
    <g id="line2d_18">
     <path d="M 484.643772 170.575449 
L 494.639772 170.575449 
L 504.635772 170.575449 
" style="fill: none; stroke: #d1701f; stroke-width: 1.2; stroke-linecap: round"/>
    </g>
    <g id="text_17">
     <!-- dv2 circularization -->
     <g style="fill: #262626" transform="translate(512.632572 174.074049) scale(0.09996 -0.09996)">
      <defs>
       <path id="ArialMT-7a" d="M 125 0 
L 125 456 
L 2238 2881 
Q 1878 2863 1603 2863 
L 250 2863 
L 250 3319 
L 2963 3319 
L 2963 2947 
L 1166 841 
L 819 456 
Q 1197 484 1528 484 
L 3063 484 
L 3063 0 
L 125 0 
z
" transform="scale(0.015625)"/>
      </defs>
      <use xlink:href="#ArialMT-64"/>
      <use xlink:href="#ArialMT-76" transform="translate(55.615234 0)"/>
      <use xlink:href="#ArialMT-32" transform="translate(105.615234 0)"/>
      <use xlink:href="#ArialMT-20" transform="translate(161.230469 0)"/>
      <use xlink:href="#ArialMT-63" transform="translate(189.013672 0)"/>
      <use xlink:href="#ArialMT-69" transform="translate(239.013672 0)"/>
      <use xlink:href="#ArialMT-72" transform="translate(261.230469 0)"/>
      <use xlink:href="#ArialMT-63" transform="translate(294.53125 0)"/>
      <use xlink:href="#ArialMT-75" transform="translate(344.53125 0)"/>
      <use xlink:href="#ArialMT-6c" transform="translate(400.146484 0)"/>
      <use xlink:href="#ArialMT-61" transform="translate(422.363281 0)"/>
      <use xlink:href="#ArialMT-72" transform="translate(477.978516 0)"/>
      <use xlink:href="#ArialMT-69" transform="translate(511.279297 0)"/>
      <use xlink:href="#ArialMT-7a" transform="translate(533.496094 0)"/>
      <use xlink:href="#ArialMT-61" transform="translate(583.496094 0)"/>
      <use xlink:href="#ArialMT-74" transform="translate(639.111328 0)"/>
      <use xlink:href="#ArialMT-69" transform="translate(666.894531 0)"/>
      <use xlink:href="#ArialMT-6f" transform="translate(689.111328 0)"/>
      <use xlink:href="#ArialMT-6e" transform="translate(744.726562 0)"/>
     </g>
    </g>
    <g id="line2d_19">
     <path d="M 484.643772 184.744779 
L 494.639772 184.744779 
L 504.635772 184.744779 
" style="fill: none; stroke: #6a51a3; stroke-width: 1.2; stroke-linecap: round"/>
    </g>
    <g id="text_18">
     <!-- dv3 plane change -->
     <g style="fill: #262626" transform="translate(512.632572 188.243379) scale(0.09996 -0.09996)">
      <defs>
       <path id="ArialMT-68" d="M 422 0 
L 422 4581 
L 984 4581 
L 984 2938 
Q 1378 3394 1978 3394 
Q 2347 3394 2619 3248 
Q 2891 3103 3008 2847 
Q 3125 2591 3125 2103 
L 3125 0 
L 2563 0 
L 2563 2103 
Q 2563 2525 2380 2717 
Q 2197 2909 1863 2909 
Q 1613 2909 1392 2779 
Q 1172 2650 1078 2428 
Q 984 2206 984 1816 
L 984 0 
L 422 0 
z
" transform="scale(0.015625)"/>
       <path id="ArialMT-67" d="M 319 -275 
L 866 -356 
Q 900 -609 1056 -725 
Q 1266 -881 1628 -881 
Q 2019 -881 2231 -725 
Q 2444 -569 2519 -288 
Q 2563 -116 2559 434 
Q 2191 0 1641 0 
Q 956 0 581 494 
Q 206 988 206 1678 
Q 206 2153 378 2554 
Q 550 2956 876 3175 
Q 1203 3394 1644 3394 
Q 2231 3394 2613 2919 
L 2613 3319 
L 3131 3319 
L 3131 450 
Q 3131 -325 2973 -648 
Q 2816 -972 2473 -1159 
Q 2131 -1347 1631 -1347 
Q 1038 -1347 672 -1080 
Q 306 -813 319 -275 
z
M 784 1719 
Q 784 1066 1043 766 
Q 1303 466 1694 466 
Q 2081 466 2343 764 
Q 2606 1063 2606 1700 
Q 2606 2309 2336 2618 
Q 2066 2928 1684 2928 
Q 1309 2928 1046 2623 
Q 784 2319 784 1719 
z
" transform="scale(0.015625)"/>
      </defs>
      <use xlink:href="#ArialMT-64"/>
      <use xlink:href="#ArialMT-76" transform="translate(55.615234 0)"/>
      <use xlink:href="#ArialMT-33" transform="translate(105.615234 0)"/>
      <use xlink:href="#ArialMT-20" transform="translate(161.230469 0)"/>
      <use xlink:href="#ArialMT-70" transform="translate(189.013672 0)"/>
      <use xlink:href="#ArialMT-6c" transform="translate(244.628906 0)"/>
      <use xlink:href="#ArialMT-61" transform="translate(266.845703 0)"/>
      <use xlink:href="#ArialMT-6e" transform="translate(322.460938 0)"/>
      <use xlink:href="#ArialMT-65" transform="translate(378.076172 0)"/>
      <use xlink:href="#ArialMT-20" transform="translate(433.691406 0)"/>
      <use xlink:href="#ArialMT-63" transform="translate(461.474609 0)"/>
      <use xlink:href="#ArialMT-68" transform="translate(511.474609 0)"/>
      <use xlink:href="#ArialMT-61" transform="translate(567.089844 0)"/>
      <use xlink:href="#ArialMT-6e" transform="translate(622.705078 0)"/>
      <use xlink:href="#ArialMT-67" transform="translate(678.320312 0)"/>
      <use xlink:href="#ArialMT-65" transform="translate(733.935547 0)"/>
     </g>
    </g>
   </g>
  </g>
 </g>
 <defs>
  <clipPath id="p737655f0df">
   <rect x="46.964375" y="21.935625" width="558" height="177.408"/>
  </clipPath>
 </defs>
</svg>
