<?xml version="1.0" encoding="utf-8" standalone="no"?>
<!DOCTYPE svg PUBLIC "-//W3C//DTD SVG 1.1//EN"
  "http://www.w3.org/Graphics/SVG/1.1/DTD/svg11.dtd">
<svg xmlns:xlink="http://www.w3.org/1999/xlink" width="612.164375pt" height="241.364719pt" viewBox="0 0 612.164375 241.364719" xmlns="http://www.w3.org/2000/svg" version="1.1">
 <metadata>
  <rdf:RDF xmlns:dc="http://purl.org/dc/elements/1.1/" xmlns:cc="http://creativecommons.org/ns#" xmlns:rdf="http://www.w3.org/1999/02/22-rdf-syntax-ns#">
   <cc:Work>
    <dc:type rdf:resource="http://purl.org/dc/dcmitype/StillImage"/>
    <dc:date>2026-07-03T21:41:10.609346</dc:date>
    <dc:format>image/svg+xml</dc:format>
    <dc:creator>
     <cc:Agent>
      <dc:title>Matplotlib v3.10.9, https://matplotlib.org/</dc:title>
     </cc:Agent>
    </dc:creator>
   </cc:Work>
  </rdf:RDF>
 </metadata>
 <defs>
  <style type="text/css">*{stroke-linejoin: round; stroke-linecap: butt}</style>
 </defs>
 <g id="figure_1">
  <g id="patch_1">
   <path d="M 0 241.364719 
L 612.164375 241.364719 
L 612.164375 -0 
L 0 -0 
z
" style="fill: #ffffff"/>
  </g>
  <g id="axes_1">
   <g id="patch_2">
    <path d="M 46.964375 199.343625 
L 604.964375 199.343625 
L 604.964375 21.935625 
L 46.964375 21.935625 
z
" style="fill: #f5f5f5"/>
   </g>
   <g id="matplotlib.axis_1">
    <g id="xtick_1">
     <g id="line2d_1">
      <path d="M 72.327895 199.343625 
L 72.327895 21.935625 
" clip-path="url(#pfce6313e68)" style="fill: none; stroke: #cccccc; stroke-linecap: round"/>
     </g>
     <g id="text_1">
      <!-- 0 -->
      <g style="fill: #262626" transform="translate(69.269379 216.717219) scale(0.11 -0.11)">
       <defs>
        <path id="ArialMT-30" d="M 266 2259 
Q 266 3072 433 3567 
Q 600 4063 929 4331 
Q 1259 4600 1759 4600 
Q 2128 4600 2406 4451 
Q 2684 4303 2865 4023 
Q 3047 3744 3150 3342 
Q 3253 2941 3253 2259 
Q 3253 1453 3087 958 
Q 2922 463 2592 192 
Q 2263 -78 1759 -78 
Q 1097 -78 719 397 
Q 266 969 266 2259 
z
M 844 2259 
Q 844 1131 1108 757 
Q 1372 384 1759 384 
Q 2147 384 2411 759 
Q 2675 1134 2675 2259 
Q 2675 3391 2411 3762 
Q 2147 4134 1753 4134 
Q 1366 4134 1134 3806 
Q 844 3388 844 2259 
z
" transform="scale(0.015625)"/>
       </defs>
       <use xlink:href="#ArialMT-30"/>
      </g>
     </g>
    </g>
    <g id="xtick_2">
     <g id="line2d_2">
      <path d="M 164.873483 199.343625 
L 164.873483 21.935625 
" clip-path="url(#pfce6313e68)" style="fill: none; stroke: #cccccc; stroke-linecap: round"/>
     </g>
     <g id="text_2">
      <!-- 100 -->
      <g style="fill: #262626" transform="translate(155.697936 216.717219) scale(0.11 -0.11)">
       <defs>
        <path id="ArialMT-31" d="M 2384 0 
L 1822 0 
L 1822 3584 
Q 1619 3391 1289 3197 
Q 959 3003 697 2906 
L 697 3450 
Q 1169 3672 1522 3987 
Q 1875 4303 2022 4600 
L 2384 4600 
L 2384 0 
z
" transform="scale(0.015625)"/>
       </defs>
       <use xlink:href="#ArialMT-31"/>
       <use xlink:href="#ArialMT-30" transform="translate(55.615234 0)"/>
       <use xlink:href="#ArialMT-30" transform="translate(111.230469 0)"/>
      </g>
     </g>
    </g>
    <g id="xtick_3">
     <g id="line2d_3">
      <path d="M 257.419071 199.343625 
L 257.419071 21.935625 
" clip-path="url(#pfce6313e68)" style="fill: none; stroke: #cccccc; stroke-linecap: round"/>
     </g>
     <g id="text_3">
      <!-- 200 -->
      <g style="fill: #262626" transform="translate(248.243524 216.717219) scale(0.11 -0.11)">
       <defs>
        <path id="ArialMT-32" d="M 3222 541 
L 3222 0 
L 194 0 
Q 188 203 259 391 
Q 375 700 629 1000 
Q 884 1300 1366 1694 
Q 2113 2306 2375 2664 
Q 2638 3022 2638 3341 
Q 2638 3675 2398 3904 
Q 2159 4134 1775 4134 
Q 1369 4134 1125 3890 
Q 881 3647 878 3216 
L 300 3275 
Q 359 3922 746 4261 
Q 1134 4600 1788 4600 
Q 2447 4600 2831 4234 
Q 3216 3869 3216 3328 
Q 3216 3053 3103 2787 
Q 2991 2522 2730 2228 
Q 2469 1934 1863 1422 
Q 1356 997 1212 845 
Q 1069 694 975 541 
L 3222 541 
z
" transform="scale(0.015625)"/>
       </defs>
       <use xlink:href="#ArialMT-32"/>
       <use xlink:href="#ArialMT-30" transform="translate(55.615234 0)"/>
       <use xlink:href="#ArialMT-30" transform="translate(111.230469 0)"/>
      </g>
     </g>
    </g>
    <g id="xtick_4">
     <g id="line2d_4">
      <path d="M 349.964659 199.343625 
L 349.964659 21.935625 
" clip-path="url(#pfce6313e68)" style="fill: none; stroke: #cccccc; stroke-linecap: round"/>
     </g>
     <g id="text_4">
      <!-- 300 -->
      <g style="fill: #262626" transform="translate(340.789112 216.717219) scale(0.11 -0.11)">
       <defs>
        <path id="ArialMT-33" d="M 269 1209 
L 831 1284 
Q 928 806 1161 595 
Q 1394 384 1728 384 
Q 2125 384 2398 659 
Q 2672 934 2672 1341 
Q 2672 1728 2419 1979 
Q 2166 2231 1775 2231 
Q 1616 2231 1378 2169 
L 1441 2663 
Q 1497 2656 1531 2656 
Q 1891 2656 2178 2843 
Q 2466 3031 2466 3422 
Q 2466 3731 2256 3934 
Q 2047 4138 1716 4138 
Q 1388 4138 1169 3931 
Q 950 3725 888 3313 
L 325 3413 
Q 428 3978 793 4289 
Q 1159 4600 1703 4600 
Q 2078 4600 2393 4439 
Q 2709 4278 2876 4000 
Q 3044 3722 3044 3409 
Q 3044 3113 2884 2869 
Q 2725 2625 2413 2481 
Q 2819 2388 3044 2092 
Q 3269 1797 3269 1353 
Q 3269 753 2831 336 
Q 2394 -81 1725 -81 
Q 1122 -81 723 278 
Q 325 638 269 1209 
z
" transform="scale(0.015625)"/>
       </defs>
       <use xlink:href="#ArialMT-33"/>
       <use xlink:href="#ArialMT-30" transform="translate(55.615234 0)"/>
       <use xlink:href="#ArialMT-30" transform="translate(111.230469 0)"/>
      </g>
     </g>
    </g>
    <g id="xtick_5">
     <g id="line2d_5">
      <path d="M 442.510247 199.343625 
L 442.510247 21.935625 
" clip-path="url(#pfce6313e68)" style="fill: none; stroke: #cccccc; stroke-linecap: round"/>
     </g>
     <g id="text_5">
      <!-- 400 -->
      <g style="fill: #262626" transform="translate(433.3347 216.717219) scale(0.11 -0.11)">
       <defs>
        <path id="ArialMT-34" d="M 2069 0 
L 2069 1097 
L 81 1097 
L 81 1613 
L 2172 4581 
L 2631 4581 
L 2631 1613 
L 3250 1613 
L 3250 1097 
L 2631 1097 
L 2631 0 
L 2069 0 
z
M 2069 1613 
L 2069 3678 
L 634 1613 
L 2069 1613 
z
" transform="scale(0.015625)"/>
       </defs>
       <use xlink:href="#ArialMT-34"/>
       <use xlink:href="#ArialMT-30" transform="translate(55.615234 0)"/>
       <use xlink:href="#ArialMT-30" transform="translate(111.230469 0)"/>
      </g>
     </g>
    </g>
    <g id="xtick_6">
     <g id="line2d_6">
      <path d="M 535.055835 199.343625 
L 535.055835 21.935625 
" clip-path="url(#pfce6313e68)" style="fill: none; stroke: #cccccc; stroke-linecap: round"/>
     </g>
     <g id="text_6">
      <!-- 500 -->
      <g style="fill: #262626" transform="translate(525.880288 216.717219) scale(0.11 -0.11)">
       <defs>
        <path id="ArialMT-35" d="M 266 1200 
L 856 1250 
Q 922 819 1161 601 
Q 1400 384 1738 384 
Q 2144 384 2425 690 
Q 2706 997 2706 1503 
Q 2706 1984 2436 2262 
Q 2166 2541 1728 2541 
Q 1456 2541 1237 2417 
Q 1019 2294 894 2097 
L 366 2166 
L 809 4519 
L 3088 4519 
L 3088 3981 
L 1259 3981 
L 1013 2750 
Q 1425 3038 1878 3038 
Q 2478 3038 2890 2622 
Q 3303 2206 3303 1553 
Q 3303 931 2941 478 
Q 2500 -78 1738 -78 
Q 1113 -78 717 272 
Q 322 622 266 1200 
z
" transform="scale(0.015625)"/>
       </defs>
       <use xlink:href="#ArialMT-35"/>
       <use xlink:href="#ArialMT-30" transform="translate(55.615234 0)"/>
       <use xlink:href="#ArialMT-30" transform="translate(111.230469 0)"/>
      </g>
     </g>
    </g>
    <g id="text_7">
     <!-- correction Δv (m/s) -->
     <g style="fill: #262626" transform="translate(275.950625 231.639094) scale(0.12 -0.12)">
      <defs>
       <path id="ArialMT-63" d="M 2588 1216 
L 3141 1144 
Q 3050 572 2676 248 
Q 2303 -75 1759 -75 
Q 1078 -75 664 370 
Q 250 816 250 1647 
Q 250 2184 428 2587 
Q 606 2991 970 3192 
Q 1334 3394 1763 3394 
Q 2303 3394 2647 3120 
Q 2991 2847 3088 2344 
L 2541 2259 
Q 2463 2594 2264 2762 
Q 2066 2931 1784 2931 
Q 1359 2931 1093 2626 
Q 828 2322 828 1663 
Q 828 994 1084 691 
Q 1341 388 1753 388 
Q 2084 388 2306 591 
Q 2528 794 2588 1216 
z
" transform="scale(0.015625)"/>
       <path id="ArialMT-6f" d="M 213 1659 
Q 213 2581 725 3025 
Q 1153 3394 1769 3394 
Q 2453 3394 2887 2945 
Q 3322 2497 3322 1706 
Q 3322 1066 3130 698 
Q 2938 331 2570 128 
Q 2203 -75 1769 -75 
Q 1072 -75 642 372 
Q 213 819 213 1659 
z
M 791 1659 
Q 791 1022 1069 705 
Q 1347 388 1769 388 
Q 2188 388 2466 706 
Q 2744 1025 2744 1678 
Q 2744 2294 2464 2611 
Q 2184 2928 1769 2928 
Q 1347 2928 1069 2612 
Q 791 2297 791 1659 
z
" transform="scale(0.015625)"/>
       <path id="ArialMT-72" d="M 416 0 
L 416 3319 
L 922 3319 
L 922 2816 
Q 1116 3169 1280 3281 
Q 1444 3394 1641 3394 
Q 1925 3394 2219 3213 
L 2025 2691 
Q 1819 2813 1613 2813 
Q 1428 2813 1281 2702 
Q 1134 2591 1072 2394 
Q 978 2094 978 1738 
L 978 0 
L 416 0 
z
" transform="scale(0.015625)"/>
       <path id="ArialMT-65" d="M 2694 1069 
L 3275 997 
Q 3138 488 2766 206 
Q 2394 -75 1816 -75 
Q 1088 -75 661 373 
Q 234 822 234 1631 
Q 234 2469 665 2931 
Q 1097 3394 1784 3394 
Q 2450 3394 2872 2941 
Q 3294 2488 3294 1666 
Q 3294 1616 3291 1516 
L 816 1516 
Q 847 969 1125 678 
Q 1403 388 1819 388 
Q 2128 388 2347 550 
Q 2566 713 2694 1069 
z
M 847 1978 
L 2700 1978 
Q 2663 2397 2488 2606 
Q 2219 2931 1791 2931 
Q 1403 2931 1139 2672 
Q 875 2413 847 1978 
z
" transform="scale(0.015625)"/>
       <path id="ArialMT-74" d="M 1650 503 
L 1731 6 
Q 1494 -44 1306 -44 
Q 1000 -44 831 53 
Q 663 150 594 308 
Q 525 466 525 972 
L 525 2881 
L 113 2881 
L 113 3319 
L 525 3319 
L 525 4141 
L 1084 4478 
L 1084 3319 
L 1650 3319 
L 1650 2881 
L 1084 2881 
L 1084 941 
Q 1084 700 1114 631 
Q 1144 563 1211 522 
Q 1278 481 1403 481 
Q 1497 481 1650 503 
z
" transform="scale(0.015625)"/>
       <path id="ArialMT-69" d="M 425 3934 
L 425 4581 
L 988 4581 
L 988 3934 
L 425 3934 
z
M 425 0 
L 425 3319 
L 988 3319 
L 988 0 
L 425 0 
z
" transform="scale(0.015625)"/>
       <path id="ArialMT-6e" d="M 422 0 
L 422 3319 
L 928 3319 
L 928 2847 
Q 1294 3394 1984 3394 
Q 2284 3394 2536 3286 
Q 2788 3178 2913 3003 
Q 3038 2828 3088 2588 
Q 3119 2431 3119 2041 
L 3119 0 
L 2556 0 
L 2556 2019 
Q 2556 2363 2490 2533 
Q 2425 2703 2258 2804 
Q 2091 2906 1866 2906 
Q 1506 2906 1245 2678 
Q 984 2450 984 1813 
L 984 0 
L 422 0 
z
" transform="scale(0.015625)"/>
       <path id="ArialMT-20" transform="scale(0.015625)"/>
       <path id="ArialMT-394" d="M -6 0 
L 1753 4581 
L 2406 4581 
L 4281 0 
L -6 0 
z
M 834 541 
L 3381 541 
L 2391 3150 
Q 2169 3738 2066 4100 
Q 1981 3675 1819 3225 
L 834 541 
z
" transform="scale(0.015625)"/>
       <path id="ArialMT-76" d="M 1344 0 
L 81 3319 
L 675 3319 
L 1388 1331 
Q 1503 1009 1600 663 
Q 1675 925 1809 1294 
L 2547 3319 
L 3125 3319 
L 1869 0 
L 1344 0 
z
" transform="scale(0.015625)"/>
       <path id="ArialMT-28" d="M 1497 -1347 
Q 1031 -759 709 28 
Q 388 816 388 1659 
Q 388 2403 628 3084 
Q 909 3875 1497 4659 
L 1900 4659 
Q 1522 4009 1400 3731 
Q 1209 3300 1100 2831 
Q 966 2247 966 1656 
Q 966 153 1900 -1347 
L 1497 -1347 
z
" transform="scale(0.015625)"/>
       <path id="ArialMT-6d" d="M 422 0 
L 422 3319 
L 925 3319 
L 925 2853 
Q 1081 3097 1340 3245 
Q 1600 3394 1931 3394 
Q 2300 3394 2536 3241 
Q 2772 3088 2869 2813 
Q 3263 3394 3894 3394 
Q 4388 3394 4653 3120 
Q 4919 2847 4919 2278 
L 4919 0 
L 4359 0 
L 4359 2091 
Q 4359 2428 4304 2576 
Q 4250 2725 4106 2815 
Q 3963 2906 3769 2906 
Q 3419 2906 3187 2673 
Q 2956 2441 2956 1928 
L 2956 0 
L 2394 0 
L 2394 2156 
Q 2394 2531 2256 2718 
Q 2119 2906 1806 2906 
Q 1569 2906 1367 2781 
Q 1166 2656 1075 2415 
Q 984 2175 984 1722 
L 984 0 
L 422 0 
z
" transform="scale(0.015625)"/>
       <path id="ArialMT-2f" d="M 0 -78 
L 1328 4659 
L 1778 4659 
L 453 -78 
L 0 -78 
z
" transform="scale(0.015625)"/>
       <path id="ArialMT-73" d="M 197 991 
L 753 1078 
Q 800 744 1014 566 
Q 1228 388 1613 388 
Q 2000 388 2187 545 
Q 2375 703 2375 916 
Q 2375 1106 2209 1216 
Q 2094 1291 1634 1406 
Q 1016 1563 777 1677 
Q 538 1791 414 1992 
Q 291 2194 291 2438 
Q 291 2659 392 2848 
Q 494 3038 669 3163 
Q 800 3259 1026 3326 
Q 1253 3394 1513 3394 
Q 1903 3394 2198 3281 
Q 2494 3169 2634 2976 
Q 2775 2784 2828 2463 
L 2278 2388 
Q 2241 2644 2061 2787 
Q 1881 2931 1553 2931 
Q 1166 2931 1000 2803 
Q 834 2675 834 2503 
Q 834 2394 903 2306 
Q 972 2216 1119 2156 
Q 1203 2125 1616 2013 
Q 2213 1853 2448 1751 
Q 2684 1650 2818 1456 
Q 2953 1263 2953 975 
Q 2953 694 2789 445 
Q 2625 197 2315 61 
Q 2006 -75 1616 -75 
Q 969 -75 630 194 
Q 291 463 197 991 
z
" transform="scale(0.015625)"/>
       <path id="ArialMT-29" d="M 791 -1347 
L 388 -1347 
Q 1322 153 1322 1656 
Q 1322 2244 1188 2822 
Q 1081 3291 891 3722 
Q 769 4003 388 4659 
L 791 4659 
Q 1378 3875 1659 3084 
Q 1900 2403 1900 1659 
Q 1900 816 1576 28 
Q 1253 -759 791 -1347 
z
" transform="scale(0.015625)"/>
      </defs>
      <use xlink:href="#ArialMT-63"/>
      <use xlink:href="#ArialMT-6f" transform="translate(50 0)"/>
      <use xlink:href="#ArialMT-72" transform="translate(105.615234 0)"/>
      <use xlink:href="#ArialMT-72" transform="translate(138.916016 0)"/>
      <use xlink:href="#ArialMT-65" transform="translate(172.216797 0)"/>
      <use xlink:href="#ArialMT-63" transform="translate(227.832031 0)"/>
      <use xlink:href="#ArialMT-74" transform="translate(277.832031 0)"/>
      <use xlink:href="#ArialMT-69" transform="translate(305.615234 0)"/>
      <use xlink:href="#ArialMT-6f" transform="translate(327.832031 0)"/>
      <use xlink:href="#ArialMT-6e" transform="translate(383.447266 0)"/>
      <use xlink:href="#ArialMT-20" transform="translate(439.0625 0)"/>
      <use xlink:href="#ArialMT-394" transform="translate(461.345703 0)"/>
      <use xlink:href="#ArialMT-76" transform="translate(528.142578 0)"/>
      <use xlink:href="#ArialMT-20" transform="translate(578.142578 0)"/>
      <use xlink:href="#ArialMT-28" transform="translate(605.925781 0)"/>
      <use xlink:href="#ArialMT-6d" transform="translate(639.226562 0)"/>
      <use xlink:href="#ArialMT-2f" transform="translate(722.527344 0)"/>
      <use xlink:href="#ArialMT-73" transform="translate(750.310547 0)"/>
      <use xlink:href="#ArialMT-29" transform="translate(800.310547 0)"/>
     </g>
    </g>
   </g>
   <g id="matplotlib.axis_2">
    <g id="ytick_1">
     <g id="line2d_7">
      <path d="M 46.964375 199.343625 
L 604.964375 199.343625 
" clip-path="url(#pfce6313e68)" style="fill: none; stroke: #cccccc; stroke-linecap: round"/>
     </g>
     <g id="text_8">
      <!-- 0.0 -->
      <g style="fill: #262626" transform="translate(22.174375 203.280422) scale(0.11 -0.11)">
       <defs>
        <path id="ArialMT-2e" d="M 581 0 
L 581 641 
L 1222 641 
L 1222 0 
L 581 0 
z
" transform="scale(0.015625)"/>
       </defs>
       <use xlink:href="#ArialMT-30"/>
       <use xlink:href="#ArialMT-2e" transform="translate(55.615234 0)"/>
       <use xlink:href="#ArialMT-30" transform="translate(83.398438 0)"/>
      </g>
     </g>
    </g>
    <g id="ytick_2">
     <g id="line2d_8">
      <path d="M 46.964375 163.862025 
L 604.964375 163.862025 
" clip-path="url(#pfce6313e68)" style="fill: none; stroke: #cccccc; stroke-linecap: round"/>
     </g>
     <g id="text_9">
      <!-- 0.2 -->
      <g style="fill: #262626" transform="translate(22.174375 167.798822) scale(0.11 -0.11)">
       <use xlink:href="#ArialMT-30"/>
       <use xlink:href="#ArialMT-2e" transform="translate(55.615234 0)"/>
       <use xlink:href="#ArialMT-32" transform="translate(83.398438 0)"/>
      </g>
     </g>
    </g>
    <g id="ytick_3">
     <g id="line2d_9">
      <path d="M 46.964375 128.380425 
L 604.964375 128.380425 
" clip-path="url(#pfce6313e68)" style="fill: none; stroke: #cccccc; stroke-linecap: round"/>
     </g>
     <g id="text_10">
      <!-- 0.4 -->
      <g style="fill: #262626" transform="translate(22.174375 132.317222) scale(0.11 -0.11)">
       <use xlink:href="#ArialMT-30"/>
       <use xlink:href="#ArialMT-2e" transform="translate(55.615234 0)"/>
       <use xlink:href="#ArialMT-34" transform="translate(83.398438 0)"/>
      </g>
     </g>
    </g>
    <g id="ytick_4">
     <g id="line2d_10">
      <path d="M 46.964375 92.898825 
L 604.964375 92.898825 
" clip-path="url(#pfce6313e68)" style="fill: none; stroke: #cccccc; stroke-linecap: round"/>
     </g>
     <g id="text_11">
      <!-- 0.6 -->
      <g style="fill: #262626" transform="translate(22.174375 96.835622) scale(0.11 -0.11)">
       <defs>
        <path id="ArialMT-36" d="M 3184 3459 
L 2625 3416 
Q 2550 3747 2413 3897 
Q 2184 4138 1850 4138 
Q 1581 4138 1378 3988 
Q 1113 3794 959 3422 
Q 806 3050 800 2363 
Q 1003 2672 1297 2822 
Q 1591 2972 1913 2972 
Q 2475 2972 2870 2558 
Q 3266 2144 3266 1488 
Q 3266 1056 3080 686 
Q 2894 316 2569 119 
Q 2244 -78 1831 -78 
Q 1128 -78 684 439 
Q 241 956 241 2144 
Q 241 3472 731 4075 
Q 1159 4600 1884 4600 
Q 2425 4600 2770 4297 
Q 3116 3994 3184 3459 
z
M 888 1484 
Q 888 1194 1011 928 
Q 1134 663 1356 523 
Q 1578 384 1822 384 
Q 2178 384 2434 671 
Q 2691 959 2691 1453 
Q 2691 1928 2437 2201 
Q 2184 2475 1800 2475 
Q 1419 2475 1153 2201 
Q 888 1928 888 1484 
z
" transform="scale(0.015625)"/>
       </defs>
       <use xlink:href="#ArialMT-30"/>
       <use xlink:href="#ArialMT-2e" transform="translate(55.615234 0)"/>
       <use xlink:href="#ArialMT-36" transform="translate(83.398438 0)"/>
      </g>
     </g>
    </g>
    <g id="ytick_5">
     <g id="line2d_11">
      <path d="M 46.964375 57.417225 
L 604.964375 57.417225 
" clip-path="url(#pfce6313e68)" style="fill: none; stroke: #cccccc; stroke-linecap: round"/>
     </g>
     <g id="text_12">
      <!-- 0.8 -->
      <g style="fill: #262626" transform="translate(22.174375 61.354022) scale(0.11 -0.11)">
       <defs>
        <path id="ArialMT-38" d="M 1131 2484 
Q 781 2613 612 2850 
Q 444 3088 444 3419 
Q 444 3919 803 4259 
Q 1163 4600 1759 4600 
Q 2359 4600 2725 4251 
Q 3091 3903 3091 3403 
Q 3091 3084 2923 2848 
Q 2756 2613 2416 2484 
Q 2838 2347 3058 2040 
Q 3278 1734 3278 1309 
Q 3278 722 2862 322 
Q 2447 -78 1769 -78 
Q 1091 -78 675 323 
Q 259 725 259 1325 
Q 259 1772 486 2073 
Q 713 2375 1131 2484 
z
M 1019 3438 
Q 1019 3113 1228 2906 
Q 1438 2700 1772 2700 
Q 2097 2700 2305 2904 
Q 2513 3109 2513 3406 
Q 2513 3716 2298 3927 
Q 2084 4138 1766 4138 
Q 1444 4138 1231 3931 
Q 1019 3725 1019 3438 
z
M 838 1322 
Q 838 1081 952 856 
Q 1066 631 1291 507 
Q 1516 384 1775 384 
Q 2178 384 2440 643 
Q 2703 903 2703 1303 
Q 2703 1709 2433 1975 
Q 2163 2241 1756 2241 
Q 1359 2241 1098 1978 
Q 838 1716 838 1322 
z
" transform="scale(0.015625)"/>
       </defs>
       <use xlink:href="#ArialMT-30"/>
       <use xlink:href="#ArialMT-2e" transform="translate(55.615234 0)"/>
       <use xlink:href="#ArialMT-38" transform="translate(83.398438 0)"/>
      </g>
     </g>
    </g>
    <g id="ytick_6">
     <g id="line2d_12">
      <path d="M 46.964375 21.935625 
L 604.964375 21.935625 
" clip-path="url(#pfce6313e68)" style="fill: none; stroke: #cccccc; stroke-linecap: round"/>
     </g>
     <g id="text_13">
      <!-- 1.0 -->
      <g style="fill: #262626" transform="translate(22.174375 25.872422) scale(0.11 -0.11)">
       <use xlink:href="#ArialMT-31"/>
       <use xlink:href="#ArialMT-2e" transform="translate(55.615234 0)"/>
       <use xlink:href="#ArialMT-30" transform="translate(83.398438 0)"/>
      </g>
     </g>
    </g>
    <g id="text_14">
     <!-- cumulative fraction -->
     <g style="fill: #262626" transform="translate(15.789375 160.658062) rotate(-90) scale(0.12 -0.12)">
      <defs>
       <path id="ArialMT-75" d="M 2597 0 
L 2597 488 
Q 2209 -75 1544 -75 
Q 1250 -75 995 37 
Q 741 150 617 320 
Q 494 491 444 738 
Q 409 903 409 1263 
L 409 3319 
L 972 3319 
L 972 1478 
Q 972 1038 1006 884 
Q 1059 663 1231 536 
Q 1403 409 1656 409 
Q 1909 409 2131 539 
Q 2353 669 2445 892 
Q 2538 1116 2538 1541 
L 2538 3319 
L 3100 3319 
L 3100 0 
L 2597 0 
z
" transform="scale(0.015625)"/>
       <path id="ArialMT-6c" d="M 409 0 
L 409 4581 
L 972 4581 
L 972 0 
L 409 0 
z
" transform="scale(0.015625)"/>
       <path id="ArialMT-61" d="M 2588 409 
Q 2275 144 1986 34 
Q 1697 -75 1366 -75 
Q 819 -75 525 192 
Q 231 459 231 875 
Q 231 1119 342 1320 
Q 453 1522 633 1644 
Q 813 1766 1038 1828 
Q 1203 1872 1538 1913 
Q 2219 1994 2541 2106 
Q 2544 2222 2544 2253 
Q 2544 2597 2384 2738 
Q 2169 2928 1744 2928 
Q 1347 2928 1158 2789 
Q 969 2650 878 2297 
L 328 2372 
Q 403 2725 575 2942 
Q 747 3159 1072 3276 
Q 1397 3394 1825 3394 
Q 2250 3394 2515 3294 
Q 2781 3194 2906 3042 
Q 3031 2891 3081 2659 
Q 3109 2516 3109 2141 
L 3109 1391 
Q 3109 606 3145 398 
Q 3181 191 3288 0 
L 2700 0 
Q 2613 175 2588 409 
z
M 2541 1666 
Q 2234 1541 1622 1453 
Q 1275 1403 1131 1340 
Q 988 1278 909 1158 
Q 831 1038 831 891 
Q 831 666 1001 516 
Q 1172 366 1500 366 
Q 1825 366 2078 508 
Q 2331 650 2450 897 
Q 2541 1088 2541 1459 
L 2541 1666 
z
" transform="scale(0.015625)"/>
       <path id="ArialMT-66" d="M 556 0 
L 556 2881 
L 59 2881 
L 59 3319 
L 556 3319 
L 556 3672 
Q 556 4006 616 4169 
Q 697 4388 901 4523 
Q 1106 4659 1475 4659 
Q 1713 4659 2000 4603 
L 1916 4113 
Q 1741 4144 1584 4144 
Q 1328 4144 1222 4034 
Q 1116 3925 1116 3625 
L 1116 3319 
L 1763 3319 
L 1763 2881 
L 1116 2881 
L 1116 0 
L 556 0 
z
" transform="scale(0.015625)"/>
      </defs>
      <use xlink:href="#ArialMT-63"/>
      <use xlink:href="#ArialMT-75" transform="translate(50 0)"/>
      <use xlink:href="#ArialMT-6d" transform="translate(105.615234 0)"/>
      <use xlink:href="#ArialMT-75" transform="translate(188.916016 0)"/>
      <use xlink:href="#ArialMT-6c" transform="translate(244.53125 0)"/>
      <use xlink:href="#ArialMT-61" transform="translate(266.748047 0)"/>
      <use xlink:href="#ArialMT-74" transform="translate(322.363281 0)"/>
      <use xlink:href="#ArialMT-69" transform="translate(350.146484 0)"/>
      <use xlink:href="#ArialMT-76" transform="translate(372.363281 0)"/>
      <use xlink:href="#ArialMT-65" transform="translate(422.363281 0)"/>
      <use xlink:href="#ArialMT-20" transform="translate(477.978516 0)"/>
      <use xlink:href="#ArialMT-66" transform="translate(505.761719 0)"/>
      <use xlink:href="#ArialMT-72" transform="translate(533.544922 0)"/>
      <use xlink:href="#ArialMT-61" transform="translate(566.845703 0)"/>
      <use xlink:href="#ArialMT-63" transform="translate(622.460938 0)"/>
      <use xlink:href="#ArialMT-74" transform="translate(672.460938 0)"/>
      <use xlink:href="#ArialMT-69" transform="translate(700.244141 0)"/>
      <use xlink:href="#ArialMT-6f" transform="translate(722.460938 0)"/>
      <use xlink:href="#ArialMT-6e" transform="translate(778.076172 0)"/>
     </g>
    </g>
   </g>
   <g id="line2d_13">
    <path d="M 216.79841 199.165861 
L 217.794081 198.810334 
L 217.982898 198.454807 
L 217.998238 198.277044 
L 218.421106 198.09928 
L 224.056061 197.388226 
L 224.413855 197.210463 
L 225.475612 196.854936 
L 225.498077 196.677172 
L 225.987884 196.321645 
L 227.903455 195.966118 
L 228.43156 195.788354 
L 228.747009 195.255064 
L 229.329002 195.0773 
L 229.363879 194.899537 
L 229.528798 194.721773 
L 230.111999 194.54401 
L 230.313641 194.188483 
L 230.695846 194.010719 
L 230.749808 193.655192 
L 233.094452 193.299665 
L 233.212963 193.121902 
L 233.555748 192.944138 
L 233.640418 192.766374 
L 235.197897 191.52203 
L 235.306218 191.166503 
L 236.201355 190.455449 
L 236.271885 190.099922 
L 236.604587 189.922158 
L 236.64253 189.744395 
L 237.332871 189.388867 
L 238.012625 189.03334 
L 238.425489 188.855577 
L 240.098885 188.50005 
L 240.28499 187.788996 
L 240.482443 187.077942 
L 240.497567 186.722415 
L 240.953812 186.366888 
L 241.881622 185.833597 
L 242.593647 184.944779 
L 242.597853 184.767016 
L 243.186027 184.055962 
L 243.639146 183.700435 
L 243.719474 183.522671 
L 244.845084 182.811617 
L 246.818007 181.033982 
L 247.090923 180.678455 
L 247.393693 180.145164 
L 247.394641 179.967401 
L 247.843613 179.611873 
L 247.84866 179.43411 
L 248.621361 178.723056 
L 248.974396 178.189765 
L 249.345404 178.012002 
L 249.351205 177.834238 
L 249.563297 177.478711 
L 250.141559 177.123184 
L 250.145439 176.945421 
L 250.410017 176.589894 
L 250.442889 176.41213 
L 250.741494 176.234366 
L 251.370195 176.056603 
L 251.400021 175.878839 
L 251.794893 175.701076 
L 251.907347 175.345549 
L 252.157288 174.456731 
L 252.181453 174.101204 
L 252.540887 173.923441 
L 252.57465 173.745677 
L 254.112636 172.323569 
L 254.13625 172.145805 
L 254.335085 171.790278 
L 254.631831 171.434751 
L 254.905866 171.079224 
L 255.585075 170.901461 
L 255.596091 170.723697 
L 256.709347 169.301589 
L 256.894187 168.412771 
L 256.981708 168.057244 
L 257.147829 167.701717 
L 257.607895 166.457372 
L 257.887128 166.279609 
L 257.941679 166.101845 
L 258.198064 165.924082 
L 258.201109 165.746318 
L 259.409554 164.857501 
L 259.461155 164.679737 
L 260.050287 164.501974 
L 260.374657 163.435393 
L 260.751309 163.079865 
L 261.088249 162.724338 
L 262.006641 162.191048 
L 262.150995 161.835521 
L 262.417747 161.124467 
L 262.806091 160.946703 
L 262.813178 160.76894 
L 263.218505 160.235649 
L 263.305651 159.880122 
L 263.829473 159.524595 
L 263.893727 159.169068 
L 265.314385 157.924723 
L 265.347275 157.74696 
L 265.642465 157.391433 
L 265.660642 157.213669 
L 266.267423 156.680379 
L 266.381873 156.502615 
L 266.969614 156.324851 
L 267.13426 155.969324 
L 267.190042 155.613797 
L 267.529087 155.080507 
L 267.860773 154.902743 
L 268.041276 154.547216 
L 268.297239 154.369453 
L 268.458841 153.836162 
L 269.396143 152.414054 
L 269.450704 152.058527 
L 269.542204 151.880763 
L 269.851883 151.703 
L 270.807506 151.347473 
L 271.526358 150.991946 
L 271.574755 150.636419 
L 271.909027 150.458655 
L 271.980565 150.103128 
L 272.224468 149.925364 
L 272.435735 149.21431 
L 272.713999 148.858783 
L 272.776132 148.325493 
L 273.191753 147.614439 
L 273.291916 147.258912 
L 273.484322 146.903385 
L 273.533349 146.725621 
L 273.938936 146.370094 
L 275.260677 145.836803 
L 275.493941 145.65904 
L 275.702023 144.770222 
L 275.898698 144.414695 
L 276.120403 143.881405 
L 276.288708 143.703641 
L 276.352359 143.17035 
L 276.593597 142.992587 
L 276.797901 142.281533 
L 277.114155 142.103769 
L 277.710345 139.970607 
L 277.987132 139.61508 
L 277.987288 139.437316 
L 278.475141 138.904026 
L 278.561059 138.726262 
L 279.202144 138.192972 
L 279.377642 137.837445 
L 279.651621 137.304154 
L 280.14622 136.237573 
L 280.449587 136.059809 
L 280.488956 135.882046 
L 280.725234 135.704282 
L 280.779054 134.993228 
L 281.587032 134.459938 
L 281.91996 134.104411 
L 282.592587 133.926647 
L 282.682855 133.748884 
L 283.151711 133.393356 
L 283.425622 132.682302 
L 283.707196 132.149012 
L 283.918122 131.260194 
L 284.852713 130.904667 
L 284.873432 130.726904 
L 285.020654 130.54914 
L 285.63958 130.193613 
L 286.044504 129.660322 
L 286.274072 129.482559 
L 286.350667 129.127032 
L 286.468122 128.593741 
L 286.537479 128.415978 
L 286.894544 128.060451 
L 287.137572 127.704924 
L 287.77685 127.349397 
L 287.801901 126.993869 
L 288.059139 126.638342 
L 288.436679 126.460579 
L 288.579539 125.749525 
L 288.831993 125.393998 
L 288.947237 125.038471 
L 289.6927 123.260835 
L 289.956904 123.083072 
L 289.98898 122.905308 
L 290.192802 122.727545 
L 290.206373 122.549781 
L 290.71459 122.372018 
L 290.849136 122.016491 
L 291.661084 121.4832 
L 291.711143 121.305437 
L 291.918669 121.127673 
L 291.936791 120.94991 
L 292.220915 120.594383 
L 292.305463 120.238855 
L 292.569724 119.883328 
L 292.663109 119.705565 
L 293.143311 119.527801 
L 293.275711 119.350038 
L 293.583434 119.172274 
L 293.662245 118.638984 
L 293.895055 118.283457 
L 294.03482 117.750166 
L 294.266476 117.216876 
L 295.733624 115.794767 
L 296.699527 114.550423 
L 296.737553 114.194896 
L 296.928633 113.839368 
L 297.063079 113.483841 
L 297.210957 113.128314 
L 297.426975 112.41726 
L 297.477119 112.239497 
L 298.008116 111.706206 
L 298.170113 111.350679 
L 298.36075 111.172916 
L 299.026969 110.995152 
L 299.11555 110.461861 
L 299.388351 110.106334 
L 299.537153 109.750807 
L 299.553204 109.573044 
L 299.848188 109.39528 
L 299.90565 109.039753 
L 300.775382 108.506463 
L 300.995262 108.150936 
L 301.093294 107.795409 
L 301.104803 107.617645 
L 303.114855 105.306719 
L 303.31239 104.951192 
L 303.733428 104.773429 
L 303.842396 104.417902 
L 304.074272 104.240138 
L 304.093486 104.062374 
L 304.514488 103.884611 
L 304.589847 103.706847 
L 305.521545 103.529084 
L 305.704488 103.173557 
L 306.357225 102.640266 
L 306.684584 102.284739 
L 306.755498 101.929212 
L 306.942419 101.751449 
L 306.954689 101.573685 
L 307.255907 101.395922 
L 307.343948 100.862631 
L 307.823861 100.32934 
L 308.062614 99.973813 
L 308.244743 99.618286 
L 308.251602 99.440523 
L 308.57864 99.084996 
L 309.119336 98.018415 
L 309.52006 97.840651 
L 309.881141 97.30736 
L 311.816874 96.418543 
L 311.818023 96.240779 
L 312.106992 96.063016 
L 312.637904 95.885252 
L 313.19989 95.174198 
L 313.7054 94.996435 
L 314.261414 94.463144 
L 315.073379 93.75209 
L 315.61874 93.574326 
L 315.643333 93.396563 
L 316.439047 93.218799 
L 316.505871 93.041036 
L 317.268939 92.685509 
L 317.737806 91.796691 
L 317.87034 91.618928 
L 318.264624 91.441164 
L 318.626801 90.552346 
L 319.073269 90.196819 
L 319.286392 89.485765 
L 320.067052 89.308002 
L 320.518237 88.596948 
L 320.539669 88.419184 
L 320.790612 88.241421 
L 320.831802 87.885894 
L 321.550497 87.352603 
L 321.55084 87.174839 
L 322.179233 86.997076 
L 322.329983 86.641549 
L 322.501205 86.286022 
L 322.640744 85.752731 
L 323.030294 85.574968 
L 323.177213 85.219441 
L 323.596755 84.863914 
L 324.462022 84.508387 
L 324.583766 83.975096 
L 325.067955 83.797332 
L 325.239683 83.441805 
L 325.450268 83.264042 
L 325.552195 82.908515 
L 325.748507 82.730751 
L 325.793924 82.375224 
L 326.367847 82.019697 
L 326.372409 81.841934 
L 326.565658 81.486407 
L 326.649527 81.13088 
L 326.865266 80.597589 
L 327.460339 80.419825 
L 327.586807 80.064298 
L 328.397298 79.531008 
L 328.99874 79.353244 
L 329.577507 78.64219 
L 329.658759 78.286663 
L 330.006269 78.1089 
L 330.212897 77.753372 
L 331.03431 77.220082 
L 331.485212 77.042318 
L 331.501793 76.686791 
L 332.086522 76.331264 
L 332.158474 76.153501 
L 332.738539 75.797974 
L 333.012527 75.264683 
L 334.15006 75.08692 
L 334.193961 74.909156 
L 334.363792 74.731393 
L 335.357388 74.375865 
L 335.691945 73.842575 
L 336.183829 73.309284 
L 337.707523 72.59823 
L 337.817327 72.420467 
L 338.551689 72.06494 
L 338.765636 71.531649 
L 338.789187 71.353886 
L 340.076039 70.820595 
L 340.932386 70.287304 
L 341.019558 69.931777 
L 341.59208 69.57625 
L 342.053961 69.04296 
L 342.929017 68.509669 
L 343.242614 68.154142 
L 344.152664 67.976379 
L 344.155619 67.798615 
L 344.825764 67.443088 
L 344.828448 67.265324 
L 345.868175 66.909797 
L 346.001427 66.732034 
L 346.645867 66.55427 
L 348.890525 64.421108 
L 349.245559 64.243344 
L 349.307237 64.065581 
L 349.997309 63.710054 
L 350.124268 63.354527 
L 350.944158 62.465709 
L 351.690096 62.110182 
L 351.749446 61.932419 
L 352.555716 61.754655 
L 352.973081 61.043601 
L 354.399697 60.332547 
L 354.929794 59.799256 
L 354.957264 59.621493 
L 356.504585 59.443729 
L 356.568481 59.265966 
L 356.782935 59.088202 
L 357.631236 58.910439 
L 357.973672 58.199385 
L 358.695974 57.843857 
L 358.783322 57.666094 
L 359.54918 56.95504 
L 360.557629 56.599513 
L 360.594546 56.421749 
L 360.869958 56.243986 
L 361.096351 55.710695 
L 361.327572 55.532932 
L 361.370633 55.355168 
L 362.083457 54.821878 
L 362.763932 54.644114 
L 363.355264 53.93306 
L 363.595433 53.755296 
L 364.597226 53.399769 
L 365.416733 52.866479 
L 365.98494 52.333188 
L 366.257192 52.155425 
L 367.229772 51.799898 
L 367.37894 51.622134 
L 368.606704 51.088843 
L 368.732138 50.733316 
L 368.816548 50.377789 
L 369.945797 49.844499 
L 370.602039 49.666735 
L 370.736528 49.311208 
L 371.382625 48.955681 
L 372.294701 48.777918 
L 373.067848 48.244627 
L 373.815273 47.8891 
L 374.14295 47.711336 
L 374.17198 47.533573 
L 374.997756 47.178046 
L 375.692026 46.822519 
L 375.763879 46.466992 
L 376.10216 46.111465 
L 377.463161 45.933701 
L 378.084577 45.578174 
L 379.475431 45.400411 
L 379.779754 45.222647 
L 380.310821 45.044884 
L 381.409746 44.86712 
L 381.528836 44.689356 
L 382.109247 44.511593 
L 382.330586 44.156066 
L 383.473399 43.622775 
L 384.239366 42.911721 
L 385.026358 42.733958 
L 385.148304 42.556194 
L 386.507214 42.200667 
L 386.807678 42.022904 
L 386.813097 41.84514 
L 387.581404 41.134086 
L 389.672365 40.956322 
L 389.785761 40.600795 
L 390.635458 40.423032 
L 390.943966 40.067505 
L 391.03095 39.889741 
L 391.590811 39.711978 
L 391.674429 39.356451 
L 394.477449 39.000924 
L 395.750895 37.934342 
L 396.227705 37.401052 
L 397.070642 37.045525 
L 397.117763 36.867761 
L 398.934087 35.445653 
L 399.589964 35.26789 
L 402.65688 35.090126 
L 403.7935 34.734599 
L 404.82106 34.556835 
L 405.172153 34.379072 
L 405.948583 34.201308 
L 406.057408 34.023545 
L 406.800151 33.845781 
L 408.098289 33.668018 
L 408.448577 33.134727 
L 409.131775 32.956964 
L 410.773891 32.7792 
L 410.920221 32.601437 
L 412.108232 32.068146 
L 414.917728 31.712619 
L 414.949429 31.534855 
L 416.921908 31.357092 
L 417.07527 31.179328 
L 417.484803 31.001565 
L 420.611567 30.468274 
L 420.951551 30.290511 
L 427.929018 29.75722 
L 429.209424 29.401693 
L 431.103945 29.22393 
L 431.184935 29.046166 
L 433.069307 28.512876 
L 434.854393 28.335112 
L 435.253829 28.157348 
L 437.022332 27.979585 
L 437.146215 27.624058 
L 438.320091 27.446294 
L 438.582728 27.268531 
L 440.441254 27.090767 
L 440.856039 26.913004 
L 441.688461 26.73524 
L 444.880232 26.557477 
L 444.943404 26.379713 
L 447.93125 26.20195 
L 453.988956 26.024186 
L 455.497016 25.668659 
L 464.979557 25.135368 
L 473.812307 24.957605 
L 474.175078 24.779841 
L 483.063501 24.246551 
L 489.462503 24.068787 
L 490.308656 23.891024 
L 497.381722 23.71326 
L 498.498051 23.357733 
L 502.807469 23.17997 
L 514.078228 22.824443 
L 514.718043 22.646679 
L 538.780725 22.113389 
L 579.600739 21.935625 
L 579.600739 21.935625 
" clip-path="url(#pfce6313e68)" style="fill: none; stroke: #111111; stroke-width: 2; stroke-linecap: round"/>
   </g>
   <g id="line2d_14">
    <path d="M 153.664145 199.165861 
L 160.151553 198.988098 
L 165.116507 197.921517 
L 166.0559 197.56599 
L 167.509644 197.388226 
L 167.659264 197.210463 
L 168.521015 196.854936 
L 170.651488 195.255064 
L 170.735794 195.0773 
L 171.119096 194.721773 
L 171.332719 193.832956 
L 171.659454 193.655192 
L 171.865556 193.121902 
L 172.21502 192.766374 
L 173.012384 191.699793 
L 173.623338 190.099922 
L 174.031296 189.566631 
L 174.092077 189.211104 
L 174.236786 188.855577 
L 174.733656 187.077942 
L 175.007233 185.655833 
L 175.156318 185.300306 
L 175.274597 184.944779 
L 175.305045 184.589252 
L 175.499998 184.233725 
L 176.37471 182.633853 
L 176.435753 181.922799 
L 176.663314 181.745036 
L 176.849232 180.678455 
L 176.945736 180.500691 
L 177.585024 179.967401 
L 177.637749 179.256346 
L 178.123061 178.900819 
L 178.352821 178.189765 
L 178.394924 178.012002 
L 178.591443 177.834238 
L 178.690914 177.300948 
L 179.151833 177.123184 
L 179.306915 176.767657 
L 179.402375 176.234366 
L 179.737213 175.878839 
L 179.79671 175.523312 
L 179.912473 174.990022 
L 180.237414 173.745677 
L 180.43738 173.567914 
L 180.511355 172.856859 
L 180.817459 172.501332 
L 180.977944 171.079224 
L 181.143674 170.723697 
L 181.201737 170.36817 
L 181.569214 169.479352 
L 181.857825 168.412771 
L 181.949548 168.057244 
L 182.666454 164.32421 
L 182.799677 163.79092 
L 183.171919 162.013284 
L 183.216285 161.657757 
L 183.585113 161.124467 
L 183.65205 160.057886 
L 183.764912 159.702358 
L 183.888757 158.458014 
L 184.060262 158.28025 
L 184.133962 157.74696 
L 184.689725 157.213669 
L 184.839933 156.858142 
L 185.19302 156.147088 
L 185.423823 155.791561 
L 185.944476 154.72498 
L 185.995845 154.369453 
L 186.296457 153.658399 
L 186.345557 153.302871 
L 186.647372 152.769581 
L 186.836683 152.058527 
L 186.998724 151.703 
L 187.484234 150.103128 
L 187.615699 149.392074 
L 187.867876 148.858783 
L 187.944474 148.503256 
L 188.544428 146.370094 
L 188.622098 146.014567 
L 188.828592 145.836803 
L 189.107072 144.414695 
L 189.362792 143.881405 
L 189.48323 143.525878 
L 189.729424 142.63706 
L 189.842105 142.103769 
L 190.290229 140.681661 
L 190.495487 140.326134 
L 190.689249 139.792843 
L 190.765754 139.081789 
L 190.968394 138.904026 
L 191.386612 136.948627 
L 191.560884 136.770863 
L 191.581414 136.415336 
L 191.901617 135.882046 
L 192.026873 134.815465 
L 192.036365 134.637701 
L 192.440848 134.282174 
L 192.842633 132.326775 
L 193.10062 131.971248 
L 193.550391 130.371377 
L 193.805408 129.660322 
L 194.231091 128.238214 
L 194.470686 127.52716 
L 194.67519 126.993869 
L 195.067574 126.282815 
L 195.253764 125.216234 
L 195.471621 124.860707 
L 195.553106 124.50518 
L 195.763135 124.149653 
L 195.815597 123.794126 
L 196.480816 122.905308 
L 196.502858 122.727545 
L 196.697855 122.549781 
L 196.933169 121.4832 
L 197.393372 120.594383 
L 197.7321 120.238855 
L 198.635154 118.816747 
L 198.857847 117.750166 
L 199.286021 117.394639 
L 199.388524 116.861348 
L 199.537745 115.972531 
L 199.998019 114.194896 
L 200.002794 114.017132 
L 200.137698 113.661605 
L 200.144699 113.483841 
L 200.384233 113.306078 
L 200.817483 111.706206 
L 201.163185 111.528443 
L 201.544342 110.639625 
L 201.717029 109.928571 
L 201.884653 109.750807 
L 201.990943 109.039753 
L 202.234941 108.684226 
L 202.599974 107.795409 
L 202.923075 107.084354 
L 203.107171 106.906591 
L 203.210899 106.551064 
L 203.567098 106.017773 
L 203.585998 105.84001 
L 204.035948 105.306719 
L 204.141427 104.951192 
L 204.539982 104.773429 
L 204.598592 104.240138 
L 204.733667 103.35132 
L 204.971851 102.995793 
L 205.03526 102.640266 
L 205.251613 102.284739 
L 205.280632 101.929212 
L 206.325757 101.218158 
L 206.848357 99.618286 
L 207.045544 99.262759 
L 207.112473 99.084996 
L 207.56081 98.729469 
L 207.658762 98.373942 
L 207.874819 97.840651 
L 208.316558 97.30736 
L 208.699156 95.885252 
L 208.76978 95.707489 
L 209.037975 95.529725 
L 209.909548 92.863272 
L 210.126623 92.685509 
L 210.386313 91.618928 
L 210.459723 91.441164 
L 210.814127 91.263401 
L 211.037345 90.552346 
L 211.067293 90.374583 
L 211.264049 90.196819 
L 211.338242 89.841292 
L 211.456774 89.663529 
L 211.906774 89.485765 
L 211.960541 89.130238 
L 212.107992 88.952475 
L 212.642604 88.596948 
L 212.699716 88.241421 
L 213.12494 87.885894 
L 213.230862 87.352603 
L 213.532623 87.174839 
L 213.611542 86.463785 
L 214.140631 85.752731 
L 214.16862 85.574968 
L 214.368758 85.219441 
L 214.886846 83.797332 
L 215.558637 83.264042 
L 215.710695 82.730751 
L 216.174482 82.197461 
L 216.342137 81.66417 
L 216.401926 81.308643 
L 216.71261 81.13088 
L 216.755616 80.775352 
L 217.2441 80.242062 
L 219.459183 77.931136 
L 220.378031 77.575609 
L 220.619451 76.864555 
L 220.633586 76.686791 
L 220.80463 76.509028 
L 220.868092 76.153501 
L 221.225429 75.797974 
L 221.530999 75.62021 
L 222.781411 75.264683 
L 222.793287 75.08692 
L 223.400034 74.909156 
L 223.505464 74.553629 
L 224.310027 74.198102 
L 224.400109 73.842575 
L 224.662459 73.664811 
L 224.783053 72.953757 
L 225.27344 72.59823 
L 225.39986 72.420467 
L 225.916407 72.242703 
L 225.973895 72.06494 
L 226.422632 71.531649 
L 226.776488 71.176122 
L 226.973138 70.998358 
L 227.38419 70.820595 
L 227.436566 70.642831 
L 227.748015 70.465068 
L 227.842093 70.109541 
L 228.123964 69.931777 
L 228.194261 69.754014 
L 228.547797 69.57625 
L 229.36686 67.620851 
L 231.273048 66.55427 
L 232.017685 65.665453 
L 233.865798 64.776635 
L 233.894612 64.598871 
L 234.16534 64.421108 
L 235.127531 64.065581 
L 235.512637 63.354527 
L 235.533662 63.176763 
L 236.324538 62.643473 
L 236.578952 62.287946 
L 237.288099 61.576892 
L 237.827272 61.399128 
L 237.957826 61.221364 
L 238.310746 61.043601 
L 238.396422 60.51031 
L 238.623302 60.154783 
L 238.634842 59.97702 
L 239.023484 59.799256 
L 239.143448 59.088202 
L 239.65567 58.910439 
L 239.726509 58.732675 
L 240.753923 58.377148 
L 241.067437 58.199385 
L 241.153328 58.021621 
L 241.804117 57.666094 
L 241.917816 57.310567 
L 243.403749 56.777276 
L 244.20498 56.421749 
L 245.960659 55.710695 
L 246.07895 55.355168 
L 246.646328 54.999641 
L 247.233755 54.821878 
L 247.726683 54.110823 
L 248.44276 53.93306 
L 248.644595 53.755296 
L 248.817345 53.399769 
L 248.867729 53.222006 
L 249.323153 52.866479 
L 249.54899 52.333188 
L 249.80239 52.155425 
L 249.860434 51.799898 
L 250.331318 51.266607 
L 250.497896 51.088843 
L 252.098504 50.733316 
L 252.360319 50.377789 
L 252.964253 50.022262 
L 253.535046 49.488972 
L 254.888894 49.133445 
L 255.15684 48.600154 
L 255.832989 48.244627 
L 256.002036 47.8891 
L 256.470497 47.711336 
L 258.557967 47.533573 
L 259.943115 46.822519 
L 260.687393 46.466992 
L 260.883496 46.289228 
L 262.340766 45.933701 
L 263.127716 45.578174 
L 265.239252 45.222647 
L 265.639053 44.86712 
L 266.595206 43.978302 
L 266.812067 43.800539 
L 267.317703 43.622775 
L 267.353266 43.445012 
L 267.581178 43.267248 
L 267.744434 42.911721 
L 268.57232 42.733958 
L 268.663194 42.556194 
L 269.219202 42.378431 
L 269.973374 41.667377 
L 270.691983 41.311849 
L 271.721127 40.600795 
L 271.942499 40.067505 
L 273.100209 39.711978 
L 274.40152 39.356451 
L 274.480782 39.178687 
L 275.327186 38.82316 
L 275.374602 38.645397 
L 276.309915 38.467633 
L 276.502768 38.289869 
L 277.700694 38.112106 
L 277.886806 37.578815 
L 278.449625 37.223288 
L 278.519716 37.045525 
L 278.940787 36.867761 
L 279.785079 36.689998 
L 280.141348 36.334471 
L 281.671567 36.156707 
L 282.19646 35.978944 
L 285.047963 35.445653 
L 285.152058 35.26789 
L 285.827447 34.912362 
L 285.965153 34.734599 
L 287.327504 34.201308 
L 289.488975 34.023545 
L 290.491356 33.668018 
L 290.596214 33.490254 
L 292.46331 33.312491 
L 292.562532 33.134727 
L 293.598758 32.601437 
L 297.717336 32.068146 
L 298.350036 31.890383 
L 301.608853 31.712619 
L 303.292063 31.001565 
L 303.412807 30.823801 
L 304.290736 30.646038 
L 304.450212 30.468274 
L 304.454838 30.290511 
L 304.722092 29.934984 
L 305.863385 29.75722 
L 313.08004 29.22393 
L 316.507579 28.512876 
L 316.613097 28.335112 
L 317.817991 27.979585 
L 317.833172 27.801821 
L 319.55755 27.624058 
L 319.631519 27.446294 
L 322.79135 27.090767 
L 324.186146 26.913004 
L 324.280252 26.557477 
L 326.112899 26.20195 
L 326.89938 26.024186 
L 326.963213 25.846423 
L 327.829261 25.668659 
L 330.149018 25.490896 
L 339.673819 25.313132 
L 339.87922 24.957605 
L 347.927638 24.602078 
L 352.157639 24.068787 
L 359.415228 23.71326 
L 361.679887 23.535497 
L 372.15069 23.17997 
L 378.672841 23.002206 
L 379.504628 22.824443 
L 387.170857 22.646679 
L 433.753939 22.113389 
L 434.613229 21.935625 
L 434.613229 21.935625 
" clip-path="url(#pfce6313e68)" style="fill: none; stroke: #4878cf; stroke-width: 1.2; stroke-linecap: round"/>
   </g>
   <g id="line2d_15">
    <path d="M 72.47609 199.165861 
L 72.516479 198.810334 
L 72.783284 198.454807 
L 72.795509 198.277044 
L 73.242193 197.743753 
L 73.595049 196.677172 
L 74.06762 196.499409 
L 74.126035 196.321645 
L 74.533564 196.143882 
L 74.585729 195.610591 
L 74.9733 195.432827 
L 75.179135 195.0773 
L 76.06097 194.721773 
L 76.322676 194.366246 
L 76.440745 194.010719 
L 76.847906 193.477429 
L 76.991138 192.944138 
L 77.307126 192.588611 
L 77.340032 192.233084 
L 77.659491 191.877557 
L 78.371332 191.699793 
L 78.467775 191.344266 
L 78.712237 190.988739 
L 78.729804 190.810976 
L 79.1131 190.633212 
L 79.113582 190.455449 
L 79.712068 189.744395 
L 79.768014 189.03334 
L 79.919885 188.677813 
L 79.934924 188.50005 
L 80.221536 188.144523 
L 80.418411 187.255705 
L 80.778263 186.900178 
L 80.870849 186.366888 
L 81.537571 186.189124 
L 82.061301 185.47807 
L 82.877119 184.944779 
L 82.888803 184.767016 
L 83.342768 184.589252 
L 83.543541 184.233725 
L 84.845995 183.167144 
L 85.10688 182.989381 
L 85.127579 182.811617 
L 85.871564 182.633853 
L 85.917688 182.100563 
L 86.655155 181.033982 
L 86.772617 180.678455 
L 87.191572 179.43411 
L 87.698696 179.256346 
L 87.76581 179.078583 
L 88.357474 178.900819 
L 88.603979 178.012002 
L 89.131329 176.767657 
L 89.358096 176.589894 
L 89.534607 176.056603 
L 89.891093 175.701076 
L 90.341946 175.345549 
L 90.826979 174.101204 
L 91.11641 173.923441 
L 91.192011 173.567914 
L 91.369943 173.39015 
L 91.386755 173.212387 
L 91.672387 173.034623 
L 91.779643 172.679096 
L 91.845649 172.501332 
L 92.121728 172.323569 
L 92.143713 171.968042 
L 92.329078 171.790278 
L 92.408145 171.434751 
L 93.100484 170.36817 
L 93.106058 170.190407 
L 93.653838 169.83488 
L 93.666303 169.657116 
L 93.95882 169.301589 
L 94.245981 168.768298 
L 94.383189 168.235008 
L 94.511245 167.879481 
L 95.055932 167.701717 
L 95.670667 166.457372 
L 96.019544 166.279609 
L 96.274359 165.924082 
L 96.500519 165.568555 
L 96.661779 164.857501 
L 96.946061 164.501974 
L 97.268012 164.146447 
L 97.341305 163.613156 
L 97.830775 162.902102 
L 97.988099 162.724338 
L 98.494749 162.368811 
L 98.569985 161.835521 
L 98.857736 161.479994 
L 98.877607 161.30223 
L 99.087795 160.946703 
L 99.585478 159.880122 
L 99.778896 159.702358 
L 99.77991 159.524595 
L 99.964935 159.169068 
L 100.384823 158.102487 
L 100.621398 157.924723 
L 100.647431 157.74696 
L 100.962555 157.391433 
L 101.101236 156.858142 
L 101.141341 156.680379 
L 101.516912 156.147088 
L 101.554165 155.969324 
L 102.07795 155.25827 
L 102.08185 154.902743 
L 102.441075 154.72498 
L 102.574169 154.191689 
L 103.445318 153.125108 
L 103.669058 152.947344 
L 103.78674 152.414054 
L 104.174617 152.23629 
L 104.330025 151.703 
L 104.880965 151.525236 
L 105.249999 150.814182 
L 105.330251 150.458655 
L 105.746695 150.103128 
L 105.933497 149.925364 
L 105.939854 149.747601 
L 107.121341 148.147729 
L 107.565547 147.258912 
L 107.93337 146.903385 
L 109.557423 144.770222 
L 110.187343 144.414695 
L 110.949378 143.17035 
L 111.347934 141.748242 
L 111.633638 141.214952 
L 111.669602 141.037188 
L 111.912135 140.681661 
L 112.099825 140.503898 
L 112.107453 140.14837 
L 112.495746 139.61508 
L 112.832462 138.726262 
L 113.043382 138.370735 
L 113.437877 137.481918 
L 113.829151 137.304154 
L 113.979824 136.948627 
L 114.228037 136.5931 
L 114.611631 136.415336 
L 114.978173 135.882046 
L 115.763967 134.993228 
L 115.768649 134.815465 
L 116.137727 134.637701 
L 116.233654 134.282174 
L 116.649424 133.926647 
L 116.901909 133.037829 
L 117.851132 131.615721 
L 117.97257 130.904667 
L 118.159304 130.371377 
L 118.282167 130.193613 
L 118.927919 129.838086 
L 119.149389 129.127032 
L 119.194306 128.771505 
L 119.951297 128.060451 
L 120.671535 127.171633 
L 120.935527 126.993869 
L 121.069524 126.460579 
L 121.635887 126.282815 
L 121.762757 126.105052 
L 122.067685 125.927288 
L 122.189571 125.216234 
L 122.317414 124.682944 
L 122.342046 124.50518 
L 122.716035 124.149653 
L 123.079779 123.97189 
L 123.22726 123.616362 
L 123.573144 123.260835 
L 124.313538 122.727545 
L 124.343775 122.549781 
L 124.609345 122.372018 
L 124.646531 122.194254 
L 125.160176 121.838727 
L 125.699814 121.660964 
L 125.764837 121.4832 
L 126.026813 121.305437 
L 126.167746 120.94991 
L 126.523179 120.594383 
L 126.801407 120.238855 
L 127.318839 120.061092 
L 127.345514 119.705565 
L 127.473974 119.527801 
L 127.847205 119.172274 
L 128.088355 118.638984 
L 128.204786 118.105693 
L 128.264282 117.92793 
L 128.58349 117.750166 
L 128.708445 117.394639 
L 128.804246 117.039112 
L 129.237272 116.505821 
L 129.694543 114.90595 
L 129.868175 114.728186 
L 129.969238 114.372659 
L 130.290676 114.017132 
L 130.306366 113.661605 
L 130.995969 113.306078 
L 131.660636 112.41726 
L 131.871343 112.239497 
L 131.927524 111.706206 
L 132.122669 111.528443 
L 132.220829 110.995152 
L 132.789191 110.639625 
L 133.153935 109.750807 
L 133.433539 109.573044 
L 133.782231 108.684226 
L 134.364261 108.506463 
L 134.427192 108.150936 
L 134.756968 107.795409 
L 134.86847 107.439882 
L 135.396732 107.262118 
L 135.747221 106.728827 
L 135.873059 106.195537 
L 135.896078 106.017773 
L 136.04538 105.84001 
L 136.04836 105.662246 
L 136.448166 105.484483 
L 136.471972 105.306719 
L 136.691199 105.128956 
L 136.76462 104.773429 
L 137.267722 104.417902 
L 137.688136 104.240138 
L 137.711555 104.062374 
L 139.212569 103.173557 
L 139.217884 102.995793 
L 139.424197 102.640266 
L 139.72755 101.751449 
L 139.937291 101.395922 
L 140.003261 101.040395 
L 140.373697 100.862631 
L 140.581544 99.440523 
L 140.633345 99.262759 
L 140.938601 98.907232 
L 141.021107 98.551705 
L 141.311844 98.373942 
L 141.466163 98.018415 
L 142.401243 97.129597 
L 143.790982 96.77407 
L 143.967201 96.418543 
L 145.097365 96.063016 
L 145.525937 95.351962 
L 146.044858 95.174198 
L 146.728747 94.285381 
L 146.848794 94.107617 
L 147.347037 93.929853 
L 147.431677 93.396563 
L 147.742211 93.041036 
L 147.956507 92.329982 
L 148.553541 92.152218 
L 148.562926 91.974455 
L 150.074756 91.263401 
L 150.114194 90.907873 
L 150.574944 90.374583 
L 150.755582 90.019056 
L 150.993943 89.841292 
L 151.001895 89.663529 
L 151.369792 89.130238 
L 152.355427 88.774711 
L 153.792535 88.241421 
L 155.130081 87.530366 
L 156.185604 87.174839 
L 156.729302 86.641549 
L 156.851356 86.463785 
L 157.253285 86.286022 
L 157.318672 86.108258 
L 158.347821 85.397204 
L 158.688639 84.863914 
L 158.911704 84.68615 
L 158.928191 84.508387 
L 160.66383 83.797332 
L 160.797011 83.441805 
L 161.489723 83.086278 
L 161.887283 82.908515 
L 161.894635 82.730751 
L 162.104472 82.552988 
L 164.583754 82.019697 
L 165.04558 81.66417 
L 165.762248 81.486407 
L 165.790203 81.308643 
L 167.366997 80.064298 
L 168.148916 79.886535 
L 168.406635 79.708771 
L 168.446422 79.531008 
L 169.77745 78.819954 
L 169.789922 78.64219 
L 170.542756 78.1089 
L 171.105525 77.931136 
L 171.181995 77.753372 
L 172.09491 77.220082 
L 173.522027 76.864555 
L 174.087113 76.509028 
L 174.36802 76.331264 
L 175.285052 76.153501 
L 175.607983 75.62021 
L 175.704714 75.442447 
L 175.934439 75.264683 
L 176.540852 75.08692 
L 177.742906 74.909156 
L 178.634384 74.375865 
L 180.072604 73.842575 
L 180.129243 73.664811 
L 180.582512 73.487048 
L 180.622411 73.131521 
L 181.074115 72.953757 
L 181.190081 72.775994 
L 182.131774 72.242703 
L 182.136966 72.06494 
L 182.336719 71.887176 
L 182.994508 71.709413 
L 183.052344 71.176122 
L 183.880609 70.998358 
L 184.096839 70.820595 
L 184.122628 70.642831 
L 184.503072 70.465068 
L 185.812312 70.109541 
L 185.868294 69.931777 
L 186.213099 69.57625 
L 187.312925 69.220723 
L 187.819501 68.865196 
L 189.349094 68.687433 
L 189.644563 68.331906 
L 189.862155 68.154142 
L 191.65373 67.443088 
L 191.729129 67.265324 
L 191.990903 67.087561 
L 192.915145 66.909797 
L 193.227629 66.732034 
L 193.29341 66.55427 
L 194.024637 66.376507 
L 194.280499 65.843216 
L 194.948046 65.487689 
L 194.998969 65.309926 
L 195.313474 65.132162 
L 196.016002 64.954399 
L 196.166806 64.598871 
L 197.040311 64.421108 
L 197.218904 64.243344 
L 198.924034 63.710054 
L 199.106268 63.53229 
L 199.769684 63.354527 
L 199.907908 63.176763 
L 201.914571 62.821236 
L 202.633877 62.110182 
L 204.018549 61.576892 
L 204.060431 61.399128 
L 204.244788 61.221364 
L 205.580644 60.865837 
L 206.268443 60.332547 
L 206.861807 59.97702 
L 206.979391 59.799256 
L 208.691277 59.265966 
L 208.918579 58.910439 
L 209.671606 58.554912 
L 209.840635 58.199385 
L 210.57322 58.021621 
L 210.936658 57.666094 
L 212.295462 57.310567 
L 212.886155 56.95504 
L 213.261901 56.777276 
L 214.09169 56.599513 
L 214.274762 55.888459 
L 216.104704 55.177405 
L 216.380786 54.821878 
L 218.359402 54.644114 
L 218.416957 54.46635 
L 219.950993 53.93306 
L 220.209733 53.577533 
L 220.583501 53.399769 
L 222.278025 52.866479 
L 222.403321 52.510952 
L 223.736857 52.333188 
L 223.766049 52.155425 
L 223.993595 51.977661 
L 224.762356 51.622134 
L 225.1626 51.44437 
L 225.224343 51.266607 
L 225.570322 50.91108 
L 228.145418 50.022262 
L 228.61632 49.311208 
L 229.201222 49.133445 
L 231.688157 48.600154 
L 231.80157 48.422391 
L 234.491566 48.066863 
L 234.62698 47.8891 
L 236.919509 47.533573 
L 236.98815 47.355809 
L 237.297937 47.178046 
L 237.34299 47.000282 
L 238.178577 46.466992 
L 238.286065 46.289228 
L 239.218152 45.755938 
L 240.610104 45.400411 
L 244.095299 45.044884 
L 244.846474 44.333829 
L 245.327852 44.156066 
L 245.355271 43.978302 
L 245.578232 43.800539 
L 245.997529 43.622775 
L 246.068231 43.445012 
L 247.89455 43.267248 
L 248.13306 42.911721 
L 253.685351 41.311849 
L 253.906152 41.134086 
L 256.105171 40.956322 
L 257.053136 40.600795 
L 257.203863 40.245268 
L 258.203098 40.067505 
L 258.245389 39.889741 
L 260.758678 39.534214 
L 260.912366 39.356451 
L 263.124405 39.000924 
L 263.422563 38.82316 
L 264.674321 38.645397 
L 264.684082 38.467633 
L 265.307708 38.289869 
L 266.715233 38.112106 
L 267.021151 37.934342 
L 267.055906 37.756579 
L 268.174372 37.578815 
L 268.673995 37.045525 
L 269.752565 36.512234 
L 269.856457 36.334471 
L 270.234715 36.156707 
L 274.936649 35.623417 
L 275.138032 35.445653 
L 275.752455 35.26789 
L 275.823292 35.090126 
L 279.660458 34.734599 
L 280.190063 33.845781 
L 282.466931 33.312491 
L 283.587493 33.134727 
L 287.741013 32.956964 
L 287.842945 32.7792 
L 289.207428 32.423673 
L 290.620906 32.068146 
L 290.896772 31.712619 
L 293.21865 31.001565 
L 293.441095 30.646038 
L 293.855885 30.468274 
L 296.189487 30.290511 
L 296.674608 30.112747 
L 300.264626 29.934984 
L 301.401201 29.579457 
L 301.546595 29.401693 
L 305.800832 28.868403 
L 308.327688 28.335112 
L 308.538091 28.157348 
L 309.085186 27.979585 
L 313.433652 27.624058 
L 313.640704 27.446294 
L 323.559257 26.73524 
L 324.112216 26.557477 
L 324.147257 26.379713 
L 327.02596 26.024186 
L 327.820759 25.846423 
L 332.545284 25.668659 
L 334.909505 25.135368 
L 335.372982 24.957605 
L 340.129795 24.424314 
L 357.61274 23.71326 
L 392.680113 23.17997 
L 402.973047 22.646679 
L 406.658327 22.468916 
L 416.186258 22.291152 
L 419.495517 22.113389 
L 492.936434 21.935625 
L 492.936434 21.935625 
" clip-path="url(#pfce6313e68)" style="fill: none; stroke: #d1701f; stroke-width: 1.2; stroke-linecap: round"/>
   </g>
   <g id="line2d_16">
    <path d="M 72.328011 199.165861 
L 72.424395 198.632571 
L 73.391882 190.099922 
L 73.465729 189.388867 
L 73.575609 187.788996 
L 73.746582 186.01136 
L 73.856486 185.655833 
L 73.961803 184.767016 
L 74.038221 184.055962 
L 74.145949 182.45609 
L 74.363295 181.567272 
L 74.452252 180.856218 
L 74.510536 180.322928 
L 75.078424 174.101204 
L 75.339097 171.968042 
L 75.594567 168.946062 
L 75.765392 168.057244 
L 76.315965 163.079865 
L 76.397595 162.546575 
L 76.833882 159.702358 
L 76.983424 159.169068 
L 77.08067 158.458014 
L 77.208329 155.969324 
L 77.321835 155.080507 
L 77.509496 153.480635 
L 77.596539 152.23629 
L 77.893794 148.503256 
L 78.579126 144.059168 
L 79.276492 138.548499 
L 79.36268 137.659681 
L 79.412926 136.948627 
L 79.526394 136.5931 
L 79.692314 135.170992 
L 79.973921 132.860066 
L 80.124167 132.504539 
L 80.297696 130.371377 
L 80.411592 129.482559 
L 81.027799 123.616362 
L 81.19173 123.083072 
L 81.30018 122.372018 
L 81.712035 120.061092 
L 81.93534 119.527801 
L 82.07613 118.816747 
L 82.299922 117.572403 
L 82.671151 114.550423 
L 82.841442 114.017132 
L 83.557457 110.639625 
L 83.718983 109.217517 
L 83.839682 108.684226 
L 84.371393 104.773429 
L 84.476552 103.884611 
L 84.661137 102.995793 
L 84.857353 100.862631 
L 85.460231 97.662888 
L 85.620494 97.129597 
L 86.108033 94.996435 
L 86.336703 94.640908 
L 86.485962 93.218799 
L 87.849868 84.508387 
L 87.972691 83.975096 
L 88.065127 83.264042 
L 88.160434 82.908515 
L 88.417032 81.841934 
L 88.568207 81.13088 
L 88.750125 80.419825 
L 88.854034 79.708771 
L 88.940887 79.353244 
L 89.043619 78.819954 
L 89.193843 77.397845 
L 89.374987 76.153501 
L 89.795344 74.909156 
L 89.850898 74.375865 
L 90.051219 73.842575 
L 90.112551 72.953757 
L 90.322921 72.59823 
L 90.507757 71.353886 
L 90.807944 69.220723 
L 90.919454 68.509669 
L 91.027273 68.154142 
L 91.166711 67.798615 
L 91.254384 67.443088 
L 91.341043 66.909797 
L 91.463207 66.55427 
L 92.040112 64.776635 
L 92.230457 64.421108 
L 92.443678 63.354527 
L 92.519705 62.465709 
L 92.637775 62.110182 
L 92.77894 61.576892 
L 92.938661 60.332547 
L 93.224527 59.443729 
L 93.343615 58.554912 
L 93.559664 58.021621 
L 93.676867 57.666094 
L 93.78967 57.310567 
L 94.075004 56.243986 
L 94.32426 56.066222 
L 94.465201 55.355168 
L 94.709729 54.999641 
L 94.840174 54.288587 
L 95.282202 52.155425 
L 95.721419 51.799898 
L 96.152126 50.91108 
L 96.153517 50.733316 
L 96.401912 50.200026 
L 96.513912 49.844499 
L 96.741016 49.488972 
L 96.949581 48.777918 
L 97.224681 48.600154 
L 97.234226 48.422391 
L 97.622165 48.066863 
L 97.711927 47.711336 
L 97.971732 47.355809 
L 98.01313 47.178046 
L 99.504919 45.755938 
L 99.640695 45.044884 
L 99.706678 44.86712 
L 100.00713 44.689356 
L 100.019783 44.511593 
L 100.351388 44.156066 
L 100.622756 43.622775 
L 100.708324 43.267248 
L 100.948217 42.733958 
L 101.310559 41.84514 
L 101.69556 41.667377 
L 101.889454 40.778559 
L 102.573342 40.245268 
L 103.152136 40.067505 
L 103.237398 39.889741 
L 103.689764 39.534214 
L 103.886431 39.178687 
L 104.339192 37.934342 
L 104.723362 37.578815 
L 104.785361 37.401052 
L 104.990702 37.223288 
L 105.096687 36.689998 
L 105.262376 36.156707 
L 105.475409 35.80118 
L 105.835227 35.623417 
L 106.011359 35.26789 
L 106.335652 34.556835 
L 106.638445 34.379072 
L 106.648475 34.201308 
L 107.633938 33.668018 
L 108.045519 32.24591 
L 108.432674 32.068146 
L 108.528986 31.712619 
L 108.639753 31.357092 
L 109.071572 31.179328 
L 109.107858 31.001565 
L 109.491163 30.823801 
L 109.584166 30.468274 
L 109.846721 30.290511 
L 110.0843 29.401693 
L 110.289657 29.22393 
L 110.457027 28.690639 
L 110.80042 28.512876 
L 110.805474 28.157348 
L 111.357123 27.268531 
L 111.523207 26.73524 
L 111.899909 26.379713 
L 111.998629 25.668659 
L 112.382354 25.490896 
L 112.480041 25.313132 
L 112.792364 25.135368 
L 114.093143 24.957605 
L 114.539158 24.068787 
L 114.766465 23.891024 
L 115.524162 23.535497 
L 116.759858 23.002206 
L 116.83323 22.824443 
L 118.0249 22.468916 
L 121.244459 21.935625 
L 121.244459 21.935625 
" clip-path="url(#pfce6313e68)" style="fill: none; stroke: #6a51a3; stroke-width: 1.2; stroke-linecap: round"/>
   </g>
   <g id="patch_3">
    <path d="M 46.964375 199.343625 
L 46.964375 21.935625 
" style="fill: none; stroke: #cccccc; stroke-width: 1.25; stroke-linejoin: miter; stroke-linecap: square"/>
   </g>
   <g id="patch_4">
    <path d="M 46.964375 199.343625 
L 604.964375 199.343625 
" style="fill: none; stroke: #cccccc; stroke-width: 1.25; stroke-linejoin: miter; stroke-linecap: square"/>
   </g>
   <g id="text_15">
    <!-- Correction Δv - - empirical CDF (total + burns) -->
    <g style="fill: #262626" transform="translate(205.764688 15.935625) scale(0.12 -0.12)">
     <defs>
      <path id="ArialMT-43" d="M 3763 1606 
L 4369 1453 
Q 4178 706 3683 314 
Q 3188 -78 2472 -78 
Q 1731 -78 1267 223 
Q 803 525 561 1097 
Q 319 1669 319 2325 
Q 319 3041 592 3573 
Q 866 4106 1370 4382 
Q 1875 4659 2481 4659 
Q 3169 4659 3637 4309 
Q 4106 3959 4291 3325 
L 3694 3184 
Q 3534 3684 3231 3912 
Q 2928 4141 2469 4141 
Q 1941 4141 1586 3887 
Q 1231 3634 1087 3207 
Q 944 2781 944 2328 
Q 944 1744 1114 1308 
Q 1284 872 1643 656 
Q 2003 441 2422 441 
Q 2931 441 3284 734 
Q 3638 1028 3763 1606 
z
" transform="scale(0.015625)"/>
      <path id="ArialMT-2d" d="M 203 1375 
L 203 1941 
L 1931 1941 
L 1931 1375 
L 203 1375 
z
" transform="scale(0.015625)"/>
      <path id="ArialMT-70" d="M 422 -1272 
L 422 3319 
L 934 3319 
L 934 2888 
Q 1116 3141 1344 3267 
Q 1572 3394 1897 3394 
Q 2322 3394 2647 3175 
Q 2972 2956 3137 2557 
Q 3303 2159 3303 1684 
Q 3303 1175 3120 767 
Q 2938 359 2589 142 
Q 2241 -75 1856 -75 
Q 1575 -75 1351 44 
Q 1128 163 984 344 
L 984 -1272 
L 422 -1272 
z
M 931 1641 
Q 931 1000 1190 694 
Q 1450 388 1819 388 
Q 2194 388 2461 705 
Q 2728 1022 2728 1688 
Q 2728 2322 2467 2637 
Q 2206 2953 1844 2953 
Q 1484 2953 1207 2617 
Q 931 2281 931 1641 
z
" transform="scale(0.015625)"/>
      <path id="ArialMT-44" d="M 494 0 
L 494 4581 
L 2072 4581 
Q 2606 4581 2888 4516 
Q 3281 4425 3559 4188 
Q 3922 3881 4101 3404 
Q 4281 2928 4281 2316 
Q 4281 1794 4159 1391 
Q 4038 988 3847 723 
Q 3656 459 3429 307 
Q 3203 156 2883 78 
Q 2563 0 2147 0 
L 494 0 
z
M 1100 541 
L 2078 541 
Q 2531 541 2789 625 
Q 3047 709 3200 863 
Q 3416 1078 3536 1442 
Q 3656 1806 3656 2325 
Q 3656 3044 3420 3430 
Q 3184 3816 2847 3947 
Q 2603 4041 2063 4041 
L 1100 4041 
L 1100 541 
z
" transform="scale(0.015625)"/>
      <path id="ArialMT-46" d="M 525 0 
L 525 4581 
L 3616 4581 
L 3616 4041 
L 1131 4041 
L 1131 2622 
L 3281 2622 
L 3281 2081 
L 1131 2081 
L 1131 0 
L 525 0 
z
" transform="scale(0.015625)"/>
      <path id="ArialMT-2b" d="M 1603 741 
L 1603 1997 
L 356 1997 
L 356 2522 
L 1603 2522 
L 1603 3769 
L 2134 3769 
L 2134 2522 
L 3381 2522 
L 3381 1997 
L 2134 1997 
L 2134 741 
L 1603 741 
z
" transform="scale(0.015625)"/>
      <path id="ArialMT-62" d="M 941 0 
L 419 0 
L 419 4581 
L 981 4581 
L 981 2947 
Q 1338 3394 1891 3394 
Q 2197 3394 2470 3270 
Q 2744 3147 2920 2923 
Q 3097 2700 3197 2384 
Q 3297 2069 3297 1709 
Q 3297 856 2875 390 
Q 2453 -75 1863 -75 
Q 1275 -75 941 416 
L 941 0 
z
M 934 1684 
Q 934 1088 1097 822 
Q 1363 388 1816 388 
Q 2184 388 2453 708 
Q 2722 1028 2722 1663 
Q 2722 2313 2464 2622 
Q 2206 2931 1841 2931 
Q 1472 2931 1203 2611 
Q 934 2291 934 1684 
z
" transform="scale(0.015625)"/>
     </defs>
     <use xlink:href="#ArialMT-43"/>
     <use xlink:href="#ArialMT-6f" transform="translate(72.216797 0)"/>
     <use xlink:href="#ArialMT-72" transform="translate(127.832031 0)"/>
     <use xlink:href="#ArialMT-72" transform="translate(161.132812 0)"/>
     <use xlink:href="#ArialMT-65" transform="translate(194.433594 0)"/>
     <use xlink:href="#ArialMT-63" transform="translate(250.048828 0)"/>
     <use xlink:href="#ArialMT-74" transform="translate(300.048828 0)"/>
     <use xlink:href="#ArialMT-69" transform="translate(327.832031 0)"/>
     <use xlink:href="#ArialMT-6f" transform="translate(350.048828 0)"/>
     <use xlink:href="#ArialMT-6e" transform="translate(405.664062 0)"/>
     <use xlink:href="#ArialMT-20" transform="translate(461.279297 0)"/>
     <use xlink:href="#ArialMT-394" transform="translate(483.5625 0)"/>
     <use xlink:href="#ArialMT-76" transform="translate(550.359375 0)"/>
     <use xlink:href="#ArialMT-20" transform="translate(600.359375 0)"/>
     <use xlink:href="#ArialMT-2d" transform="translate(628.142578 0)"/>
     <use xlink:href="#ArialMT-2d" transform="translate(661.443359 0)"/>
     <use xlink:href="#ArialMT-20" transform="translate(694.744141 0)"/>
     <use xlink:href="#ArialMT-65" transform="translate(722.527344 0)"/>
     <use xlink:href="#ArialMT-6d" transform="translate(778.142578 0)"/>
     <use xlink:href="#ArialMT-70" transform="translate(861.443359 0)"/>
     <use xlink:href="#ArialMT-69" transform="translate(917.058594 0)"/>
     <use xlink:href="#ArialMT-72" transform="translate(939.275391 0)"/>
     <use xlink:href="#ArialMT-69" transform="translate(972.576172 0)"/>
     <use xlink:href="#ArialMT-63" transform="translate(994.792969 0)"/>
     <use xlink:href="#ArialMT-61" transform="translate(1044.792969 0)"/>
     <use xlink:href="#ArialMT-6c" transform="translate(1100.408203 0)"/>
     <use xlink:href="#ArialMT-20" transform="translate(1122.625 0)"/>
     <use xlink:href="#ArialMT-43" transform="translate(1150.408203 0)"/>
     <use xlink:href="#ArialMT-44" transform="translate(1222.625 0)"/>
     <use xlink:href="#ArialMT-46" transform="translate(1294.841797 0)"/>
     <use xlink:href="#ArialMT-20" transform="translate(1355.925781 0)"/>
     <use xlink:href="#ArialMT-28" transform="translate(1383.708984 0)"/>
     <use xlink:href="#ArialMT-74" transform="translate(1417.009766 0)"/>
     <use xlink:href="#ArialMT-6f" transform="translate(1444.792969 0)"/>
     <use xlink:href="#ArialMT-74" transform="translate(1500.408203 0)"/>
     <use xlink:href="#ArialMT-61" transform="translate(1528.191406 0)"/>
     <use xlink:href="#ArialMT-6c" transform="translate(1583.806641 0)"/>
     <use xlink:href="#ArialMT-20" transform="translate(1606.023438 0)"/>
     <use xlink:href="#ArialMT-2b" transform="translate(1633.806641 0)"/>
     <use xlink:href="#ArialMT-20" transform="translate(1692.205078 0)"/>
     <use xlink:href="#ArialMT-62" transform="translate(1719.988281 0)"/>
     <use xlink:href="#ArialMT-75" transform="translate(1775.603516 0)"/>
     <use xlink:href="#ArialMT-72" transform="translate(1831.21875 0)"/>
     <use xlink:href="#ArialMT-6e" transform="translate(1864.519531 0)"/>
     <use xlink:href="#ArialMT-73" transform="translate(1920.134766 0)"/>
     <use xlink:href="#ArialMT-29" transform="translate(1970.134766 0)"/>
    </g>
   </g>
   <g id="legend_1">
    <g id="patch_5">
     <path d="M 482.644572 194.345625 
L 597.967175 194.345625 
Q 599.966375 194.345625 599.966375 192.346425 
L 599.966375 136.610916 
Q 599.966375 134.611716 597.967175 134.611716 
L 482.644572 134.611716 
Q 480.645372 134.611716 480.645372 136.610916 
L 480.645372 192.346425 
Q 480.645372 194.345625 482.644572 194.345625 
z
" style="fill: #f5f5f5; opacity: 0.8; stroke: #cccccc; stroke-linejoin: miter"/>
    </g>
    <g id="line2d_17">
     <path d="M 484.643772 142.266465 
L 494.639772 142.266465 
L 504.635772 142.266465 
" style="fill: none; stroke: #111111; stroke-width: 2; stroke-linecap: round"/>
    </g>
    <g id="text_16">
     <!-- total Δv -->
     <g style="fill: #262626" transform="translate(512.632572 145.765065) scale(0.09996 -0.09996)">
      <use xlink:href="#ArialMT-74"/>
      <use xlink:href="#ArialMT-6f" transform="translate(27.783203 0)"/>
      <use xlink:href="#ArialMT-74" transform="translate(83.398438 0)"/>
      <use xlink:href="#ArialMT-61" transform="translate(111.181641 0)"/>
      <use xlink:href="#ArialMT-6c" transform="translate(166.796875 0)"/>
      <use xlink:href="#ArialMT-20" transform="translate(189.013672 0)"/>
      <use xlink:href="#ArialMT-394" transform="translate(211.296875 0)"/>
      <use xlink:href="#ArialMT-76" transform="translate(278.09375 0)"/>
     </g>
    </g>
    <g id="line2d_18">
     <path d="M 484.643772 156.435795 
L 494.639772 156.435795 
L 504.635772 156.435795 
" style="fill: none; stroke: #4878cf; stroke-width: 1.2; stroke-linecap: round"/>
    </g>
    <g id="text_17">
     <!-- dv1 periapsis raise -->
     <g style="fill: #262626" transform="translate(512.632572 159.934395) scale(0.09996 -0.09996)">
      <defs>
       <path id="ArialMT-64" d="M 2575 0 
L 2575 419 
Q 2259 -75 1647 -75 
Q 1250 -75 917 144 
Q 584 363 401 755 
Q 219 1147 219 1656 
Q 219 2153 384 2558 
Q 550 2963 881 3178 
Q 1213 3394 1622 3394 
Q 1922 3394 2156 3267 
Q 2391 3141 2538 2938 
L 2538 4581 
L 3097 4581 
L 3097 0 
L 2575 0 
z
M 797 1656 
Q 797 1019 1065 703 
Q 1334 388 1700 388 
Q 2069 388 2326 689 
Q 2584 991 2584 1609 
Q 2584 2291 2321 2609 
Q 2059 2928 1675 2928 
Q 1300 2928 1048 2622 
Q 797 2316 797 1656 
z
" transform="scale(0.015625)"/>
      </defs>
      <use xlink:href="#ArialMT-64"/>
      <use xlink:href="#ArialMT-76" transform="translate(55.615234 0)"/>
      <use xlink:href="#ArialMT-31" transform="translate(105.615234 0)"/>
      <use xlink:href="#ArialMT-20" transform="translate(161.230469 0)"/>
      <use xlink:href="#ArialMT-70" transform="translate(189.013672 0)"/>
      <use xlink:href="#ArialMT-65" transform="translate(244.628906 0)"/>
      <use xlink:href="#ArialMT-72" transform="translate(300.244141 0)"/>
      <use xlink:href="#ArialMT-69" transform="translate(333.544922 0)"/>
      <use xlink:href="#ArialMT-61" transform="translate(355.761719 0)"/>
      <use xlink:href="#ArialMT-70" transform="translate(411.376953 0)"/>
      <use xlink:href="#ArialMT-73" transform="translate(466.992188 0)"/>
      <use xlink:href="#ArialMT-69" transform="translate(516.992188 0)"/>
      <use xlink:href="#ArialMT-73" transform="translate(539.208984 0)"/>
      <use xlink:href="#ArialMT-20" transform="translate(589.208984 0)"/>
      <use xlink:href="#ArialMT-72" transform="translate(616.992188 0)"/>
      <use xlink:href="#ArialMT-61" transform="translate(650.292969 0)"/>
      <use xlink:href="#ArialMT-69" transform="translate(705.908203 0)"/>
      <use xlink:href="#ArialMT-73" transform="translate(728.125 0)"/>
      <use xlink:href="#ArialMT-65" transform="translate(778.125 0)"/>
     </g>
    </g>
    <g id="line2d_19">
     <path d="M 484.643772 170.575449 
L 494.639772 170.575449 
L 504.635772 170.575449 
" style="fill: none; stroke: #d1701f; stroke-width: 1.2; stroke-linecap: round"/>
    </g>
    <g id="text_18">
     <!-- dv2 circularization -->
     <g style="fill: #262626" transform="translate(512.632572 174.074049) scale(0.09996 -0.09996)">
      <defs>
       <path id="ArialMT-7a" d="M 125 0 
L 125 456 
L 2238 2881 
Q 1878 2863 1603 2863 
L 250 2863 
L 250 3319 
L 2963 3319 
L 2963 2947 
L 1166 841 
L 819 456 
Q 1197 484 1528 484 
L 3063 484 
L 3063 0 
L 125 0 
z
" transform="scale(0.015625)"/>
      </defs>
      <use xlink:href="#ArialMT-64"/>
      <use xlink:href="#ArialMT-76" transform="translate(55.615234 0)"/>
      <use xlink:href="#ArialMT-32" transform="translate(105.615234 0)"/>
      <use xlink:href="#ArialMT-20" transform="translate(161.230469 0)"/>
      <use xlink:href="#ArialMT-63" transform="translate(189.013672 0)"/>
      <use xlink:href="#ArialMT-69" transform="translate(239.013672 0)"/>
      <use xlink:href="#ArialMT-72" transform="translate(261.230469 0)"/>
      <use xlink:href="#ArialMT-63" transform="translate(294.53125 0)"/>
      <use xlink:href="#ArialMT-75" transform="translate(344.53125 0)"/>
      <use xlink:href="#ArialMT-6c" transform="translate(400.146484 0)"/>
      <use xlink:href="#ArialMT-61" transform="translate(422.363281 0)"/>
      <use xlink:href="#ArialMT-72" transform="translate(477.978516 0)"/>
      <use xlink:href="#ArialMT-69" transform="translate(511.279297 0)"/>
      <use xlink:href="#ArialMT-7a" transform="translate(533.496094 0)"/>
      <use xlink:href="#ArialMT-61" transform="translate(583.496094 0)"/>
      <use xlink:href="#ArialMT-74" transform="translate(639.111328 0)"/>
      <use xlink:href="#ArialMT-69" transform="translate(666.894531 0)"/>
      <use xlink:href="#ArialMT-6f" transform="translate(689.111328 0)"/>
      <use xlink:href="#ArialMT-6e" transform="translate(744.726562 0)"/>
     </g>
    </g>
    <g id="line2d_20">
     <path d="M 484.643772 184.744779 
L 494.639772 184.744779 
L 504.635772 184.744779 
" style="fill: none; stroke: #6a51a3; stroke-width: 1.2; stroke-linecap: round"/>
    </g>
    <g id="text_19">
     <!-- dv3 plane change -->
     <g style="fill: #262626" transform="translate(512.632572 188.243379) scale(0.09996 -0.09996)">
      <defs>
       <path id="ArialMT-68" d="M 422 0 
L 422 4581 
L 984 4581 
L 984 2938 
Q 1378 3394 1978 3394 
Q 2347 3394 2619 3248 
Q 2891 3103 3008 2847 
Q 3125 2591 3125 2103 
L 3125 0 
L 2563 0 
L 2563 2103 
Q 2563 2525 2380 2717 
Q 2197 2909 1863 2909 
Q 1613 2909 1392 2779 
Q 1172 2650 1078 2428 
Q 984 2206 984 1816 
L 984 0 
L 422 0 
z
" transform="scale(0.015625)"/>
       <path id="ArialMT-67" d="M 319 -275 
L 866 -356 
Q 900 -609 1056 -725 
Q 1266 -881 1628 -881 
Q 2019 -881 2231 -725 
Q 2444 -569 2519 -288 
Q 2563 -116 2559 434 
Q 2191 0 1641 0 
Q 956 0 581 494 
Q 206 988 206 1678 
Q 206 2153 378 2554 
Q 550 2956 876 3175 
Q 1203 3394 1644 3394 
Q 2231 3394 2613 2919 
L 2613 3319 
L 3131 3319 
L 3131 450 
Q 3131 -325 2973 -648 
Q 2816 -972 2473 -1159 
Q 2131 -1347 1631 -1347 
Q 1038 -1347 672 -1080 
Q 306 -813 319 -275 
z
M 784 1719 
Q 784 1066 1043 766 
Q 1303 466 1694 466 
Q 2081 466 2343 764 
Q 2606 1063 2606 1700 
Q 2606 2309 2336 2618 
Q 2066 2928 1684 2928 
Q 1309 2928 1046 2623 
Q 784 2319 784 1719 
z
" transform="scale(0.015625)"/>
      </defs>
      <use xlink:href="#ArialMT-64"/>
      <use xlink:href="#ArialMT-76" transform="translate(55.615234 0)"/>
      <use xlink:href="#ArialMT-33" transform="translate(105.615234 0)"/>
      <use xlink:href="#ArialMT-20" transform="translate(161.230469 0)"/>
      <use xlink:href="#ArialMT-70" transform="translate(189.013672 0)"/>
      <use xlink:href="#ArialMT-6c" transform="translate(244.628906 0)"/>
      <use xlink:href="#ArialMT-61" transform="translate(266.845703 0)"/>
      <use xlink:href="#ArialMT-6e" transform="translate(322.460938 0)"/>
      <use xlink:href="#ArialMT-65" transform="translate(378.076172 0)"/>
      <use xlink:href="#ArialMT-20" transform="translate(433.691406 0)"/>
      <use xlink:href="#ArialMT-63" transform="translate(461.474609 0)"/>
      <use xlink:href="#ArialMT-68" transform="translate(511.474609 0)"/>
      <use xlink:href="#ArialMT-61" transform="translate(567.089844 0)"/>
      <use xlink:href="#ArialMT-6e" transform="translate(622.705078 0)"/>
      <use xlink:href="#ArialMT-67" transform="translate(678.320312 0)"/>
      <use xlink:href="#ArialMT-65" transform="translate(733.935547 0)"/>
     </g>
    </g>
   </g>
  </g>
 </g>
 <defs>
  <clipPath id="pfce6313e68">
   <rect x="46.964375" y="21.935625" width="558" height="177.408"/>
  </clipPath>
 </defs>
</svg>
