<?xml version="1.0" encoding="utf-8" standalone="no"?>
<!DOCTYPE svg PUBLIC "-//W3C//DTD SVG 1.1//EN"
  "http://www.w3.org/Graphics/SVG/1.1/DTD/svg11.dtd">
<svg xmlns:xlink="http://www.w3.org/1999/xlink" width="500.851719pt" height="219.453523pt" viewBox="0 0 500.851719 219.453523" xmlns="http://www.w3.org/2000/svg" version="1.1">
 <metadata>
  <rdf:RDF xmlns:dc="http://purl.org/dc/elements/1.1/" xmlns:cc="http://creativecommons.org/ns#" xmlns:rdf="http://www.w3.org/1999/02/22-rdf-syntax-ns#">
   <cc:Work>
    <dc:type rdf:resource="http://purl.org/dc/dcmitype/StillImage"/>
    <dc:date>2026-07-10T15:12:20.953754</dc:date>
    <dc:format>image/svg+xml</dc:format>
    <dc:creator>
     <cc:Agent>
      <dc:title>Matplotlib v3.11.0, https://matplotlib.org/</dc:title>
     </cc:Agent>
    </dc:creator>
   </cc:Work>
  </rdf:RDF>
 </metadata>
 <defs>
  <style type="text/css">*{stroke-linejoin: round; stroke-linecap: butt}</style>
 </defs>
 <g id="figure_1">
  <g id="patch_1">
   <path d="M 0 219.453523 
L 500.851719 219.453523 
L 500.851719 0 
L 0 0 
z
" style="fill: #ffffff"/>
  </g>
  <g id="axes_1">
   <g id="patch_2">
    <path d="M 47.251719 177.168328 
L 493.651719 177.168328 
L 493.651719 21.936328 
L 47.251719 21.936328 
z
" style="fill: #f5f5f5"/>
   </g>
   <g id="matplotlib.axis_1">
    <g id="xtick_1">
     <g id="line2d_1">
      <path d="M 67.542535 177.168328 
L 67.542535 21.936328 
" clip-path="url(#paa5c3d1c80)" style="fill: none; stroke: #cccccc; stroke-linecap: round"/>
     </g>
     <g id="text_1">
      <!-- 0 -->
      <g style="fill: #262626" transform="translate(64.484019 194.676629) scale(0.11 -0.11)">
       <defs>
        <path id="ArialMT-13" d="M 266 2259 
Q 266 3072 433 3567 
Q 600 4063 929 4331 
Q 1259 4600 1759 4600 
Q 2128 4600 2406 4451 
Q 2684 4303 2865 4023 
Q 3047 3744 3150 3342 
Q 3253 2941 3253 2259 
Q 3253 1453 3087 958 
Q 2922 463 2592 192 
Q 2263 -78 1759 -78 
Q 1097 -78 719 397 
Q 266 969 266 2259 
z
M 844 2259 
Q 844 1131 1108 757 
Q 1372 384 1759 384 
Q 2147 384 2411 759 
Q 2675 1134 2675 2259 
Q 2675 3391 2411 3762 
Q 2147 4134 1753 4134 
Q 1366 4134 1134 3806 
Q 844 3388 844 2259 
z
" transform="scale(0.015625)"/>
       </defs>
       <use xlink:href="#ArialMT-13"/>
      </g>
     </g>
    </g>
    <g id="xtick_2">
     <g id="line2d_2">
      <path d="M 141.579005 177.168328 
L 141.579005 21.936328 
" clip-path="url(#paa5c3d1c80)" style="fill: none; stroke: #cccccc; stroke-linecap: round"/>
     </g>
     <g id="text_2">
      <!-- 100 -->
      <g style="fill: #262626" transform="translate(132.403458 194.676629) scale(0.11 -0.11)">
       <defs>
        <path id="ArialMT-14" d="M 2384 0 
L 1822 0 
L 1822 3584 
Q 1619 3391 1289 3197 
Q 959 3003 697 2906 
L 697 3450 
Q 1169 3672 1522 3987 
Q 1875 4303 2022 4600 
L 2384 4600 
L 2384 0 
z
" transform="scale(0.015625)"/>
       </defs>
       <use xlink:href="#ArialMT-14"/>
       <use xlink:href="#ArialMT-13" transform="translate(55.609375 0)"/>
       <use xlink:href="#ArialMT-13" transform="translate(111.21875 0)"/>
      </g>
     </g>
    </g>
    <g id="xtick_3">
     <g id="line2d_3">
      <path d="M 215.615475 177.168328 
L 215.615475 21.936328 
" clip-path="url(#paa5c3d1c80)" style="fill: none; stroke: #cccccc; stroke-linecap: round"/>
     </g>
     <g id="text_3">
      <!-- 200 -->
      <g style="fill: #262626" transform="translate(206.439929 194.676629) scale(0.11 -0.11)">
       <defs>
        <path id="ArialMT-15" d="M 3222 541 
L 3222 0 
L 194 0 
Q 188 203 259 391 
Q 375 700 629 1000 
Q 884 1300 1366 1694 
Q 2113 2306 2375 2664 
Q 2638 3022 2638 3341 
Q 2638 3675 2398 3904 
Q 2159 4134 1775 4134 
Q 1369 4134 1125 3890 
Q 881 3647 878 3216 
L 300 3275 
Q 359 3922 746 4261 
Q 1134 4600 1788 4600 
Q 2447 4600 2831 4234 
Q 3216 3869 3216 3328 
Q 3216 3053 3103 2787 
Q 2991 2522 2730 2228 
Q 2469 1934 1863 1422 
Q 1356 997 1212 845 
Q 1069 694 975 541 
L 3222 541 
z
" transform="scale(0.015625)"/>
       </defs>
       <use xlink:href="#ArialMT-15"/>
       <use xlink:href="#ArialMT-13" transform="translate(55.609375 0)"/>
       <use xlink:href="#ArialMT-13" transform="translate(111.21875 0)"/>
      </g>
     </g>
    </g>
    <g id="xtick_4">
     <g id="line2d_4">
      <path d="M 289.651946 177.168328 
L 289.651946 21.936328 
" clip-path="url(#paa5c3d1c80)" style="fill: none; stroke: #cccccc; stroke-linecap: round"/>
     </g>
     <g id="text_4">
      <!-- 300 -->
      <g style="fill: #262626" transform="translate(280.476399 194.676629) scale(0.11 -0.11)">
       <defs>
        <path id="ArialMT-16" d="M 269 1209 
L 831 1284 
Q 928 806 1161 595 
Q 1394 384 1728 384 
Q 2125 384 2398 659 
Q 2672 934 2672 1341 
Q 2672 1728 2419 1979 
Q 2166 2231 1775 2231 
Q 1616 2231 1378 2169 
L 1441 2663 
Q 1497 2656 1531 2656 
Q 1891 2656 2178 2843 
Q 2466 3031 2466 3422 
Q 2466 3731 2256 3934 
Q 2047 4138 1716 4138 
Q 1388 4138 1169 3931 
Q 950 3725 888 3313 
L 325 3413 
Q 428 3978 793 4289 
Q 1159 4600 1703 4600 
Q 2078 4600 2393 4439 
Q 2709 4278 2876 4000 
Q 3044 3722 3044 3409 
Q 3044 3113 2884 2869 
Q 2725 2625 2413 2481 
Q 2819 2388 3044 2092 
Q 3269 1797 3269 1353 
Q 3269 753 2831 336 
Q 2394 -81 1725 -81 
Q 1122 -81 723 278 
Q 325 638 269 1209 
z
" transform="scale(0.015625)"/>
       </defs>
       <use xlink:href="#ArialMT-16"/>
       <use xlink:href="#ArialMT-13" transform="translate(55.609375 0)"/>
       <use xlink:href="#ArialMT-13" transform="translate(111.21875 0)"/>
      </g>
     </g>
    </g>
    <g id="xtick_5">
     <g id="line2d_5">
      <path d="M 363.688416 177.168328 
L 363.688416 21.936328 
" clip-path="url(#paa5c3d1c80)" style="fill: none; stroke: #cccccc; stroke-linecap: round"/>
     </g>
     <g id="text_5">
      <!-- 400 -->
      <g style="fill: #262626" transform="translate(354.512869 194.676629) scale(0.11 -0.11)">
       <defs>
        <path id="ArialMT-17" d="M 2069 0 
L 2069 1097 
L 81 1097 
L 81 1613 
L 2172 4581 
L 2631 4581 
L 2631 1613 
L 3250 1613 
L 3250 1097 
L 2631 1097 
L 2631 0 
L 2069 0 
z
M 2069 1613 
L 2069 3678 
L 634 1613 
L 2069 1613 
z
" transform="scale(0.015625)"/>
       </defs>
       <use xlink:href="#ArialMT-17"/>
       <use xlink:href="#ArialMT-13" transform="translate(55.609375 0)"/>
       <use xlink:href="#ArialMT-13" transform="translate(111.21875 0)"/>
      </g>
     </g>
    </g>
    <g id="xtick_6">
     <g id="line2d_6">
      <path d="M 437.724886 177.168328 
L 437.724886 21.936328 
" clip-path="url(#paa5c3d1c80)" style="fill: none; stroke: #cccccc; stroke-linecap: round"/>
     </g>
     <g id="text_6">
      <!-- 500 -->
      <g style="fill: #262626" transform="translate(428.54934 194.676629) scale(0.11 -0.11)">
       <defs>
        <path id="ArialMT-18" d="M 266 1200 
L 856 1250 
Q 922 819 1161 601 
Q 1400 384 1738 384 
Q 2144 384 2425 690 
Q 2706 997 2706 1503 
Q 2706 1984 2436 2262 
Q 2166 2541 1728 2541 
Q 1456 2541 1237 2417 
Q 1019 2294 894 2097 
L 366 2166 
L 809 4519 
L 3088 4519 
L 3088 3981 
L 1259 3981 
L 1013 2750 
Q 1425 3038 1878 3038 
Q 2478 3038 2890 2622 
Q 3303 2206 3303 1553 
Q 3303 931 2941 478 
Q 2500 -78 1738 -78 
Q 1113 -78 717 272 
Q 322 622 266 1200 
z
" transform="scale(0.015625)"/>
       </defs>
       <use xlink:href="#ArialMT-18"/>
       <use xlink:href="#ArialMT-13" transform="translate(55.609375 0)"/>
       <use xlink:href="#ArialMT-13" transform="translate(111.21875 0)"/>
      </g>
     </g>
    </g>
    <g id="text_7">
     <!-- correction Δv (m/s) -->
     <g style="fill: #262626" transform="translate(220.107969 209.727898) scale(0.12 -0.12)">
      <defs>
       <path id="ArialMT-46" d="M 2588 1216 
L 3141 1144 
Q 3050 572 2676 248 
Q 2303 -75 1759 -75 
Q 1078 -75 664 370 
Q 250 816 250 1647 
Q 250 2184 428 2587 
Q 606 2991 970 3192 
Q 1334 3394 1763 3394 
Q 2303 3394 2647 3120 
Q 2991 2847 3088 2344 
L 2541 2259 
Q 2463 2594 2264 2762 
Q 2066 2931 1784 2931 
Q 1359 2931 1093 2626 
Q 828 2322 828 1663 
Q 828 994 1084 691 
Q 1341 388 1753 388 
Q 2084 388 2306 591 
Q 2528 794 2588 1216 
z
" transform="scale(0.015625)"/>
       <path id="ArialMT-52" d="M 213 1659 
Q 213 2581 725 3025 
Q 1153 3394 1769 3394 
Q 2453 3394 2887 2945 
Q 3322 2497 3322 1706 
Q 3322 1066 3130 698 
Q 2938 331 2570 128 
Q 2203 -75 1769 -75 
Q 1072 -75 642 372 
Q 213 819 213 1659 
z
M 791 1659 
Q 791 1022 1069 705 
Q 1347 388 1769 388 
Q 2188 388 2466 706 
Q 2744 1025 2744 1678 
Q 2744 2294 2464 2611 
Q 2184 2928 1769 2928 
Q 1347 2928 1069 2612 
Q 791 2297 791 1659 
z
" transform="scale(0.015625)"/>
       <path id="ArialMT-55" d="M 416 0 
L 416 3319 
L 922 3319 
L 922 2816 
Q 1116 3169 1280 3281 
Q 1444 3394 1641 3394 
Q 1925 3394 2219 3213 
L 2025 2691 
Q 1819 2813 1613 2813 
Q 1428 2813 1281 2702 
Q 1134 2591 1072 2394 
Q 978 2094 978 1738 
L 978 0 
L 416 0 
z
" transform="scale(0.015625)"/>
       <path id="ArialMT-48" d="M 2694 1069 
L 3275 997 
Q 3138 488 2766 206 
Q 2394 -75 1816 -75 
Q 1088 -75 661 373 
Q 234 822 234 1631 
Q 234 2469 665 2931 
Q 1097 3394 1784 3394 
Q 2450 3394 2872 2941 
Q 3294 2488 3294 1666 
Q 3294 1616 3291 1516 
L 816 1516 
Q 847 969 1125 678 
Q 1403 388 1819 388 
Q 2128 388 2347 550 
Q 2566 713 2694 1069 
z
M 847 1978 
L 2700 1978 
Q 2663 2397 2488 2606 
Q 2219 2931 1791 2931 
Q 1403 2931 1139 2672 
Q 875 2413 847 1978 
z
" transform="scale(0.015625)"/>
       <path id="ArialMT-57" d="M 1650 503 
L 1731 6 
Q 1494 -44 1306 -44 
Q 1000 -44 831 53 
Q 663 150 594 308 
Q 525 466 525 972 
L 525 2881 
L 113 2881 
L 113 3319 
L 525 3319 
L 525 4141 
L 1084 4478 
L 1084 3319 
L 1650 3319 
L 1650 2881 
L 1084 2881 
L 1084 941 
Q 1084 700 1114 631 
Q 1144 563 1211 522 
Q 1278 481 1403 481 
Q 1497 481 1650 503 
z
" transform="scale(0.015625)"/>
       <path id="ArialMT-4c" d="M 425 3934 
L 425 4581 
L 988 4581 
L 988 3934 
L 425 3934 
z
M 425 0 
L 425 3319 
L 988 3319 
L 988 0 
L 425 0 
z
" transform="scale(0.015625)"/>
       <path id="ArialMT-51" d="M 422 0 
L 422 3319 
L 928 3319 
L 928 2847 
Q 1294 3394 1984 3394 
Q 2284 3394 2536 3286 
Q 2788 3178 2913 3003 
Q 3038 2828 3088 2588 
Q 3119 2431 3119 2041 
L 3119 0 
L 2556 0 
L 2556 2019 
Q 2556 2363 2490 2533 
Q 2425 2703 2258 2804 
Q 2091 2906 1866 2906 
Q 1506 2906 1245 2678 
Q 984 2450 984 1813 
L 984 0 
L 422 0 
z
" transform="scale(0.015625)"/>
       <path id="ArialMT-3" transform="scale(0.015625)"/>
       <path id="ArialMT-1fb" d="M -6 0 
L 1753 4581 
L 2406 4581 
L 4281 0 
L -6 0 
z
M 834 541 
L 3381 541 
L 2391 3150 
Q 2169 3738 2066 4100 
Q 1981 3675 1819 3225 
L 834 541 
z
" transform="scale(0.015625)"/>
       <path id="ArialMT-59" d="M 1344 0 
L 81 3319 
L 675 3319 
L 1388 1331 
Q 1503 1009 1600 663 
Q 1675 925 1809 1294 
L 2547 3319 
L 3125 3319 
L 1869 0 
L 1344 0 
z
" transform="scale(0.015625)"/>
       <path id="ArialMT-b" d="M 1497 -1347 
Q 1031 -759 709 28 
Q 388 816 388 1659 
Q 388 2403 628 3084 
Q 909 3875 1497 4659 
L 1900 4659 
Q 1522 4009 1400 3731 
Q 1209 3300 1100 2831 
Q 966 2247 966 1656 
Q 966 153 1900 -1347 
L 1497 -1347 
z
" transform="scale(0.015625)"/>
       <path id="ArialMT-50" d="M 422 0 
L 422 3319 
L 925 3319 
L 925 2853 
Q 1081 3097 1340 3245 
Q 1600 3394 1931 3394 
Q 2300 3394 2536 3241 
Q 2772 3088 2869 2813 
Q 3263 3394 3894 3394 
Q 4388 3394 4653 3120 
Q 4919 2847 4919 2278 
L 4919 0 
L 4359 0 
L 4359 2091 
Q 4359 2428 4304 2576 
Q 4250 2725 4106 2815 
Q 3963 2906 3769 2906 
Q 3419 2906 3187 2673 
Q 2956 2441 2956 1928 
L 2956 0 
L 2394 0 
L 2394 2156 
Q 2394 2531 2256 2718 
Q 2119 2906 1806 2906 
Q 1569 2906 1367 2781 
Q 1166 2656 1075 2415 
Q 984 2175 984 1722 
L 984 0 
L 422 0 
z
" transform="scale(0.015625)"/>
       <path id="ArialMT-12" d="M 0 -78 
L 1328 4659 
L 1778 4659 
L 453 -78 
L 0 -78 
z
" transform="scale(0.015625)"/>
       <path id="ArialMT-56" d="M 197 991 
L 753 1078 
Q 800 744 1014 566 
Q 1228 388 1613 388 
Q 2000 388 2187 545 
Q 2375 703 2375 916 
Q 2375 1106 2209 1216 
Q 2094 1291 1634 1406 
Q 1016 1563 777 1677 
Q 538 1791 414 1992 
Q 291 2194 291 2438 
Q 291 2659 392 2848 
Q 494 3038 669 3163 
Q 800 3259 1026 3326 
Q 1253 3394 1513 3394 
Q 1903 3394 2198 3281 
Q 2494 3169 2634 2976 
Q 2775 2784 2828 2463 
L 2278 2388 
Q 2241 2644 2061 2787 
Q 1881 2931 1553 2931 
Q 1166 2931 1000 2803 
Q 834 2675 834 2503 
Q 834 2394 903 2306 
Q 972 2216 1119 2156 
Q 1203 2125 1616 2013 
Q 2213 1853 2448 1751 
Q 2684 1650 2818 1456 
Q 2953 1263 2953 975 
Q 2953 694 2789 445 
Q 2625 197 2315 61 
Q 2006 -75 1616 -75 
Q 969 -75 630 194 
Q 291 463 197 991 
z
" transform="scale(0.015625)"/>
       <path id="ArialMT-c" d="M 791 -1347 
L 388 -1347 
Q 1322 153 1322 1656 
Q 1322 2244 1188 2822 
Q 1081 3291 891 3722 
Q 769 4003 388 4659 
L 791 4659 
Q 1378 3875 1659 3084 
Q 1900 2403 1900 1659 
Q 1900 816 1576 28 
Q 1253 -759 791 -1347 
z
" transform="scale(0.015625)"/>
      </defs>
      <use xlink:href="#ArialMT-46"/>
      <use xlink:href="#ArialMT-52" transform="translate(50 0)"/>
      <use xlink:href="#ArialMT-55" transform="translate(105.609375 0)"/>
      <use xlink:href="#ArialMT-55" transform="translate(138.90625 0)"/>
      <use xlink:href="#ArialMT-48" transform="translate(172.203125 0)"/>
      <use xlink:href="#ArialMT-46" transform="translate(227.8125 0)"/>
      <use xlink:href="#ArialMT-57" transform="translate(277.8125 0)"/>
      <use xlink:href="#ArialMT-4c" transform="translate(305.59375 0)"/>
      <use xlink:href="#ArialMT-52" transform="translate(327.8125 0)"/>
      <use xlink:href="#ArialMT-51" transform="translate(383.421875 0)"/>
      <use xlink:href="#ArialMT-3" transform="translate(439.03125 0)"/>
      <use xlink:href="#ArialMT-1fb" transform="translate(466.8125 0)"/>
      <use xlink:href="#ArialMT-59" transform="translate(533.609375 0)"/>
      <use xlink:href="#ArialMT-3" transform="translate(583.609375 0)"/>
      <use xlink:href="#ArialMT-b" transform="translate(611.390625 0)"/>
      <use xlink:href="#ArialMT-50" transform="translate(644.6875 0)"/>
      <use xlink:href="#ArialMT-12" transform="translate(727.984375 0)"/>
      <use xlink:href="#ArialMT-56" transform="translate(755.765625 0)"/>
      <use xlink:href="#ArialMT-c" transform="translate(805.765625 0)"/>
     </g>
    </g>
   </g>
   <g id="matplotlib.axis_2">
    <g id="ytick_1">
     <g id="line2d_7">
      <path d="M 47.251719 177.168328 
L 493.651719 177.168328 
" clip-path="url(#paa5c3d1c80)" style="fill: none; stroke: #cccccc; stroke-linecap: round"/>
     </g>
     <g id="text_8">
      <!-- 0.0 -->
      <g style="fill: #262626" transform="translate(22.461719 181.172479) scale(0.11 -0.11)">
       <defs>
        <path id="ArialMT-11" d="M 581 0 
L 581 641 
L 1222 641 
L 1222 0 
L 581 0 
z
" transform="scale(0.015625)"/>
       </defs>
       <use xlink:href="#ArialMT-13"/>
       <use xlink:href="#ArialMT-11" transform="translate(55.609375 0)"/>
       <use xlink:href="#ArialMT-13" transform="translate(83.390625 0)"/>
      </g>
     </g>
    </g>
    <g id="ytick_2">
     <g id="line2d_8">
      <path d="M 47.251719 146.121928 
L 493.651719 146.121928 
" clip-path="url(#paa5c3d1c80)" style="fill: none; stroke: #cccccc; stroke-linecap: round"/>
     </g>
     <g id="text_9">
      <!-- 0.2 -->
      <g style="fill: #262626" transform="translate(22.461719 150.126079) scale(0.11 -0.11)">
       <use xlink:href="#ArialMT-13"/>
       <use xlink:href="#ArialMT-11" transform="translate(55.609375 0)"/>
       <use xlink:href="#ArialMT-15" transform="translate(83.390625 0)"/>
      </g>
     </g>
    </g>
    <g id="ytick_3">
     <g id="line2d_9">
      <path d="M 47.251719 115.075528 
L 493.651719 115.075528 
" clip-path="url(#paa5c3d1c80)" style="fill: none; stroke: #cccccc; stroke-linecap: round"/>
     </g>
     <g id="text_10">
      <!-- 0.4 -->
      <g style="fill: #262626" transform="translate(22.461719 119.079679) scale(0.11 -0.11)">
       <use xlink:href="#ArialMT-13"/>
       <use xlink:href="#ArialMT-11" transform="translate(55.609375 0)"/>
       <use xlink:href="#ArialMT-17" transform="translate(83.390625 0)"/>
      </g>
     </g>
    </g>
    <g id="ytick_4">
     <g id="line2d_10">
      <path d="M 47.251719 84.029128 
L 493.651719 84.029128 
" clip-path="url(#paa5c3d1c80)" style="fill: none; stroke: #cccccc; stroke-linecap: round"/>
     </g>
     <g id="text_11">
      <!-- 0.6 -->
      <g style="fill: #262626" transform="translate(22.461719 88.033279) scale(0.11 -0.11)">
       <defs>
        <path id="ArialMT-19" d="M 3184 3459 
L 2625 3416 
Q 2550 3747 2413 3897 
Q 2184 4138 1850 4138 
Q 1581 4138 1378 3988 
Q 1113 3794 959 3422 
Q 806 3050 800 2363 
Q 1003 2672 1297 2822 
Q 1591 2972 1913 2972 
Q 2475 2972 2870 2558 
Q 3266 2144 3266 1488 
Q 3266 1056 3080 686 
Q 2894 316 2569 119 
Q 2244 -78 1831 -78 
Q 1128 -78 684 439 
Q 241 956 241 2144 
Q 241 3472 731 4075 
Q 1159 4600 1884 4600 
Q 2425 4600 2770 4297 
Q 3116 3994 3184 3459 
z
M 888 1484 
Q 888 1194 1011 928 
Q 1134 663 1356 523 
Q 1578 384 1822 384 
Q 2178 384 2434 671 
Q 2691 959 2691 1453 
Q 2691 1928 2437 2201 
Q 2184 2475 1800 2475 
Q 1419 2475 1153 2201 
Q 888 1928 888 1484 
z
" transform="scale(0.015625)"/>
       </defs>
       <use xlink:href="#ArialMT-13"/>
       <use xlink:href="#ArialMT-11" transform="translate(55.609375 0)"/>
       <use xlink:href="#ArialMT-19" transform="translate(83.390625 0)"/>
      </g>
     </g>
    </g>
    <g id="ytick_5">
     <g id="line2d_11">
      <path d="M 47.251719 52.982728 
L 493.651719 52.982728 
" clip-path="url(#paa5c3d1c80)" style="fill: none; stroke: #cccccc; stroke-linecap: round"/>
     </g>
     <g id="text_12">
      <!-- 0.8 -->
      <g style="fill: #262626" transform="translate(22.461719 56.986879) scale(0.11 -0.11)">
       <defs>
        <path id="ArialMT-1b" d="M 1131 2484 
Q 781 2613 612 2850 
Q 444 3088 444 3419 
Q 444 3919 803 4259 
Q 1163 4600 1759 4600 
Q 2359 4600 2725 4251 
Q 3091 3903 3091 3403 
Q 3091 3084 2923 2848 
Q 2756 2613 2416 2484 
Q 2838 2347 3058 2040 
Q 3278 1734 3278 1309 
Q 3278 722 2862 322 
Q 2447 -78 1769 -78 
Q 1091 -78 675 323 
Q 259 725 259 1325 
Q 259 1772 486 2073 
Q 713 2375 1131 2484 
z
M 1019 3438 
Q 1019 3113 1228 2906 
Q 1438 2700 1772 2700 
Q 2097 2700 2305 2904 
Q 2513 3109 2513 3406 
Q 2513 3716 2298 3927 
Q 2084 4138 1766 4138 
Q 1444 4138 1231 3931 
Q 1019 3725 1019 3438 
z
M 838 1322 
Q 838 1081 952 856 
Q 1066 631 1291 507 
Q 1516 384 1775 384 
Q 2178 384 2440 643 
Q 2703 903 2703 1303 
Q 2703 1709 2433 1975 
Q 2163 2241 1756 2241 
Q 1359 2241 1098 1978 
Q 838 1716 838 1322 
z
" transform="scale(0.015625)"/>
       </defs>
       <use xlink:href="#ArialMT-13"/>
       <use xlink:href="#ArialMT-11" transform="translate(55.609375 0)"/>
       <use xlink:href="#ArialMT-1b" transform="translate(83.390625 0)"/>
      </g>
     </g>
    </g>
    <g id="ytick_6">
     <g id="line2d_12">
      <path d="M 47.251719 21.936328 
L 493.651719 21.936328 
" clip-path="url(#paa5c3d1c80)" style="fill: none; stroke: #cccccc; stroke-linecap: round"/>
     </g>
     <g id="text_13">
      <!-- 1.0 -->
      <g style="fill: #262626" transform="translate(22.461719 25.940479) scale(0.11 -0.11)">
       <use xlink:href="#ArialMT-14"/>
       <use xlink:href="#ArialMT-11" transform="translate(55.609375 0)"/>
       <use xlink:href="#ArialMT-13" transform="translate(83.390625 0)"/>
      </g>
     </g>
    </g>
    <g id="text_14">
     <!-- cumulative fraction -->
     <g style="fill: #262626" transform="translate(15.936328 149.570766) rotate(-90) scale(0.12 -0.12)">
      <defs>
       <path id="ArialMT-58" d="M 2597 0 
L 2597 488 
Q 2209 -75 1544 -75 
Q 1250 -75 995 37 
Q 741 150 617 320 
Q 494 491 444 738 
Q 409 903 409 1263 
L 409 3319 
L 972 3319 
L 972 1478 
Q 972 1038 1006 884 
Q 1059 663 1231 536 
Q 1403 409 1656 409 
Q 1909 409 2131 539 
Q 2353 669 2445 892 
Q 2538 1116 2538 1541 
L 2538 3319 
L 3100 3319 
L 3100 0 
L 2597 0 
z
" transform="scale(0.015625)"/>
       <path id="ArialMT-4f" d="M 409 0 
L 409 4581 
L 972 4581 
L 972 0 
L 409 0 
z
" transform="scale(0.015625)"/>
       <path id="ArialMT-44" d="M 2588 409 
Q 2275 144 1986 34 
Q 1697 -75 1366 -75 
Q 819 -75 525 192 
Q 231 459 231 875 
Q 231 1119 342 1320 
Q 453 1522 633 1644 
Q 813 1766 1038 1828 
Q 1203 1872 1538 1913 
Q 2219 1994 2541 2106 
Q 2544 2222 2544 2253 
Q 2544 2597 2384 2738 
Q 2169 2928 1744 2928 
Q 1347 2928 1158 2789 
Q 969 2650 878 2297 
L 328 2372 
Q 403 2725 575 2942 
Q 747 3159 1072 3276 
Q 1397 3394 1825 3394 
Q 2250 3394 2515 3294 
Q 2781 3194 2906 3042 
Q 3031 2891 3081 2659 
Q 3109 2516 3109 2141 
L 3109 1391 
Q 3109 606 3145 398 
Q 3181 191 3288 0 
L 2700 0 
Q 2613 175 2588 409 
z
M 2541 1666 
Q 2234 1541 1622 1453 
Q 1275 1403 1131 1340 
Q 988 1278 909 1158 
Q 831 1038 831 891 
Q 831 666 1001 516 
Q 1172 366 1500 366 
Q 1825 366 2078 508 
Q 2331 650 2450 897 
Q 2541 1088 2541 1459 
L 2541 1666 
z
" transform="scale(0.015625)"/>
       <path id="ArialMT-49" d="M 556 0 
L 556 2881 
L 59 2881 
L 59 3319 
L 556 3319 
L 556 3672 
Q 556 4006 616 4169 
Q 697 4388 901 4523 
Q 1106 4659 1475 4659 
Q 1713 4659 2000 4603 
L 1916 4113 
Q 1741 4144 1584 4144 
Q 1328 4144 1222 4034 
Q 1116 3925 1116 3625 
L 1116 3319 
L 1763 3319 
L 1763 2881 
L 1116 2881 
L 1116 0 
L 556 0 
z
" transform="scale(0.015625)"/>
      </defs>
      <use xlink:href="#ArialMT-46"/>
      <use xlink:href="#ArialMT-58" transform="translate(50 0)"/>
      <use xlink:href="#ArialMT-50" transform="translate(105.609375 0)"/>
      <use xlink:href="#ArialMT-58" transform="translate(188.90625 0)"/>
      <use xlink:href="#ArialMT-4f" transform="translate(244.515625 0)"/>
      <use xlink:href="#ArialMT-44" transform="translate(266.734375 0)"/>
      <use xlink:href="#ArialMT-57" transform="translate(322.34375 0)"/>
      <use xlink:href="#ArialMT-4c" transform="translate(350.125 0)"/>
      <use xlink:href="#ArialMT-59" transform="translate(372.34375 0)"/>
      <use xlink:href="#ArialMT-48" transform="translate(422.34375 0)"/>
      <use xlink:href="#ArialMT-3" transform="translate(477.953125 0)"/>
      <use xlink:href="#ArialMT-49" transform="translate(505.734375 0)"/>
      <use xlink:href="#ArialMT-55" transform="translate(533.515625 0)"/>
      <use xlink:href="#ArialMT-44" transform="translate(566.8125 0)"/>
      <use xlink:href="#ArialMT-46" transform="translate(622.421875 0)"/>
      <use xlink:href="#ArialMT-57" transform="translate(672.421875 0)"/>
      <use xlink:href="#ArialMT-4c" transform="translate(700.203125 0)"/>
      <use xlink:href="#ArialMT-52" transform="translate(722.421875 0)"/>
      <use xlink:href="#ArialMT-51" transform="translate(778.03125 0)"/>
     </g>
    </g>
   </g>
   <g id="line2d_13">
    <path d="M 183.118947 177.012785 
L 183.915484 176.701699 
L 184.066537 176.390613 
L 184.078809 176.23507 
L 184.417104 176.079527 
L 188.925068 175.457354 
L 189.211303 175.301811 
L 190.060708 174.990725 
L 190.07868 174.835182 
L 190.470526 174.524096 
L 192.002983 174.213009 
L 192.425467 174.057466 
L 192.677826 173.590837 
L 193.14342 173.435294 
L 193.303257 173.124208 
L 193.769818 172.968665 
L 193.931132 172.657579 
L 194.236896 172.502036 
L 194.280065 172.190949 
L 196.15578 171.879863 
L 196.250589 171.72432 
L 196.592553 171.413234 
L 197.838537 170.324432 
L 197.925193 170.013346 
L 198.641303 169.391174 
L 198.697727 169.080088 
L 198.963889 168.924545 
L 198.994243 168.769001 
L 199.546516 168.457915 
L 200.42061 167.991286 
L 201.759327 167.6802 
L 201.962158 166.902484 
L 202.22403 165.969226 
L 202.75103 165.65814 
L 203.185516 165.347054 
L 203.755136 164.569338 
L 203.863538 164.258252 
L 203.886887 164.102709 
L 204.458058 163.63608 
L 204.916615 163.16945 
L 205.507324 162.858364 
L 205.556286 162.702821 
L 207.291733 160.991847 
L 207.595932 160.214132 
L 207.955109 159.903046 
L 207.959146 159.747502 
L 208.577308 159.12533 
L 209.330856 158.036529 
L 209.793466 157.725442 
L 209.79657 157.569899 
L 210.008233 157.258813 
L 210.03453 157.10327 
L 210.273414 156.947727 
L 210.776374 156.792184 
L 210.800235 156.636641 
L 211.116133 156.481098 
L 211.257613 156.014468 
L 211.406049 155.392296 
L 211.425381 155.08121 
L 211.712928 154.925667 
L 211.739939 154.770124 
L 212.970328 153.525779 
L 213.113707 153.214693 
L 213.231674 152.903607 
L 213.604911 152.436977 
L 214.148278 152.281434 
L 214.276266 151.970348 
L 214.557888 151.659262 
L 214.70322 151.348176 
L 215.152782 150.259374 
L 215.766535 148.392857 
L 216.033562 148.081771 
L 216.23867 147.926228 
L 216.241106 147.770685 
L 217.207862 146.992969 
L 217.249143 146.837426 
L 217.720448 146.681883 
L 217.979945 145.748625 
L 218.281266 145.437539 
L 218.550818 145.126452 
L 219.285532 144.659823 
L 219.467349 144.193194 
L 219.614417 143.726565 
L 219.925092 143.571022 
L 219.930761 143.415478 
L 220.255022 142.948849 
L 220.32474 142.637763 
L 220.743797 142.326677 
L 220.7952 142.015591 
L 221.931726 140.926789 
L 221.958039 140.771246 
L 222.194191 140.46016 
L 222.208733 140.304617 
L 222.694157 139.837987 
L 222.785717 139.682444 
L 223.25591 139.526901 
L 223.387627 139.215815 
L 223.504332 138.749186 
L 224.344638 137.660384 
L 224.447291 137.349298 
L 225.206306 135.94941 
L 225.313982 135.638324 
L 225.561725 135.482781 
L 226.326223 135.171695 
L 226.901305 134.860609 
L 226.940023 134.549523 
L 227.207441 134.393979 
L 227.264671 134.082893 
L 227.499539 133.771807 
L 227.756038 133.149635 
L 227.867321 132.838549 
L 227.901124 132.527462 
L 228.233621 131.90529 
L 228.313752 131.594204 
L 228.467676 131.283118 
L 228.506898 131.127575 
L 229.275831 130.660945 
L 230.075372 130.194316 
L 230.241837 129.416601 
L 230.399177 129.105514 
L 230.576541 128.638885 
L 230.722418 128.327799 
L 230.762106 128.016713 
L 230.979462 127.705627 
L 231.11854 127.238997 
L 231.371543 127.083454 
L 231.848495 125.216937 
L 233.350618 123.039334 
L 233.797194 121.950533 
L 234.039889 121.794989 
L 234.071383 121.639446 
L 234.260406 121.483903 
L 234.303462 120.861731 
L 234.949845 120.395102 
L 235.216187 120.084015 
L 235.754288 119.928472 
L 235.826503 119.772929 
L 236.201587 119.461843 
L 236.420716 118.839671 
L 236.645975 118.373042 
L 236.814716 117.595326 
L 237.562389 117.28424 
L 237.696742 116.973154 
L 238.191883 116.662068 
L 238.515822 116.195438 
L 238.699476 116.039895 
L 238.760753 115.728809 
L 239.258207 114.640007 
L 239.631559 114.328921 
L 239.901699 114.173378 
L 239.92174 113.862292 
L 240.486718 113.084577 
L 240.762168 112.306861 
L 241.254549 111.062517 
L 241.434379 110.595887 
L 241.671403 110.284801 
L 243.215154 108.72937 
L 243.229651 108.573827 
L 243.456951 108.262741 
L 243.524589 107.951655 
L 243.735998 107.640569 
L 243.810706 107.485026 
L 244.300787 107.173939 
L 244.546966 107.018396 
L 244.610015 106.551767 
L 244.796263 106.240681 
L 244.949405 105.618508 
L 245.254527 105.151879 
L 245.579431 104.840793 
L 245.609291 104.68525 
L 246.173234 104.374164 
L 246.267118 104.063078 
L 247.03984 102.974276 
L 247.070261 102.66319 
L 247.442725 101.885474 
L 247.546919 101.418845 
L 247.661914 100.952216 
L 248.086712 100.485587 
L 248.216309 100.1745 
L 248.368819 100.018957 
L 248.901794 99.863414 
L 248.972659 99.396785 
L 249.322782 98.61907 
L 249.558769 98.463527 
L 249.604739 98.15244 
L 250.300524 97.685811 
L 250.476429 97.374725 
L 250.554854 97.063639 
L 250.564061 96.908096 
L 252.172103 94.886036 
L 252.330131 94.574949 
L 252.666961 94.419406 
L 252.754135 94.10832 
L 253.352096 93.486148 
L 254.097455 93.330605 
L 254.449698 92.863975 
L 254.898926 92.397346 
L 255.028681 92.08626 
L 255.24397 91.619631 
L 255.484944 91.464088 
L 255.555377 90.997458 
L 256.099944 90.375286 
L 256.2815 89.753114 
L 256.54313 89.442028 
L 256.975688 88.508769 
L 257.365256 88.197683 
L 257.585132 87.886597 
L 259.133718 87.108881 
L 259.134637 86.953338 
L 259.946053 86.331166 
L 260.011217 86.175623 
L 261.450936 85.086821 
L 261.738922 84.775735 
L 262.175211 84.620192 
L 262.194885 84.464649 
L 262.831456 84.309106 
L 262.884915 84.153563 
L 263.49537 83.842476 
L 263.97649 82.909218 
L 264.363985 82.598132 
L 264.492246 82.131502 
L 264.581659 81.975959 
L 264.938834 81.664873 
L 265.109332 81.042701 
L 265.73386 80.887158 
L 266.337732 79.798356 
L 266.34566 79.642813 
L 266.920616 79.176184 
L 266.920891 79.020641 
L 267.423606 78.865098 
L 267.653791 78.398468 
L 267.792814 77.776296 
L 268.104454 77.620753 
L 268.221989 77.309667 
L 268.557622 76.998581 
L 269.249836 76.687494 
L 269.347232 76.220865 
L 269.734583 76.065322 
L 270.121975 75.287607 
L 270.29121 74.976521 
L 270.315358 74.820977 
L 270.774496 74.509891 
L 270.871952 74.198805 
L 271.172431 73.265547 
L 271.64849 73.110003 
L 271.942084 72.643374 
L 273.016505 72.021202 
L 273.210815 71.710116 
L 273.40042 71.39903 
L 273.407226 71.243486 
L 273.749051 70.9324 
L 274.043547 70.621314 
L 274.868388 70.154685 
L 274.881653 69.843599 
L 275.349437 69.532512 
L 275.406998 69.376969 
L 275.87105 69.065883 
L 276.090241 68.599254 
L 277.000266 68.443711 
L 277.171253 68.132625 
L 277.966129 67.821539 
L 278.372597 67.199366 
L 278.627282 66.88828 
L 279.846238 66.266108 
L 279.93408 66.110565 
L 280.52157 65.799478 
L 280.692727 65.332849 
L 280.711569 65.177306 
L 281.74105 64.710677 
L 282.426127 64.244048 
L 282.495865 63.932961 
L 282.953883 63.621875 
L 283.641909 62.84416 
L 284.023433 62.688617 
L 284.27431 62.377531 
L 285.00235 62.221987 
L 285.004714 62.066444 
L 285.54083 61.755358 
L 285.542977 61.599815 
L 286.374759 61.288729 
L 286.48136 61.133186 
L 287.137526 60.8221 
L 288.469724 59.266669 
L 289.076666 58.955583 
L 289.126008 58.80004 
L 289.678066 58.488953 
L 289.779633 58.177867 
L 290.435545 57.400152 
L 291.032295 57.089066 
L 291.079776 56.933523 
L 291.724792 56.777979 
L 292.058684 56.155807 
L 293.38859 55.378092 
L 293.64603 54.911462 
L 294.883886 54.755919 
L 294.935004 54.600376 
L 295.106567 54.444833 
L 295.785208 54.28929 
L 296.059156 53.667118 
L 296.636998 53.356032 
L 296.885124 53.044945 
L 297.197988 52.889402 
L 297.319563 52.578316 
L 298.126322 52.26723 
L 298.155856 52.111687 
L 298.417025 51.800601 
L 298.418683 51.645058 
L 299.346984 50.711799 
L 299.891364 50.556256 
L 300.36443 49.934084 
L 300.556565 49.778541 
L 301.358 49.467454 
L 302.013605 49.000825 
L 302.468171 48.534196 
L 302.685973 48.378653 
L 303.464036 48.067567 
L 303.583371 47.912024 
L 304.565582 47.445394 
L 304.665929 47.134308 
L 304.733457 46.823222 
L 305.636856 46.356593 
L 306.16185 46.20105 
L 306.269441 45.889963 
L 306.786319 45.578877 
L 307.51598 45.423334 
L 308.134497 44.956705 
L 308.732437 44.645619 
L 308.994579 44.490076 
L 309.017802 44.334533 
L 309.956287 43.867903 
L 310.233839 43.71236 
L 310.291322 43.401274 
L 310.561947 43.090188 
L 311.650747 42.934645 
L 312.14788 42.623559 
L 313.260564 42.468015 
L 313.928875 42.156929 
L 314.808016 42.001386 
L 314.903287 41.845843 
L 315.486348 41.534757 
L 315.544688 41.379214 
L 316.458938 40.912585 
L 317.071712 40.290412 
L 317.701305 40.134869 
L 317.798862 39.979326 
L 318.88599 39.66824 
L 319.126361 39.512697 
L 319.130696 39.357154 
L 319.745342 38.734981 
L 321.418111 38.579438 
L 321.508828 38.268352 
L 322.386319 37.957266 
L 322.504979 37.64618 
L 322.952867 37.490637 
L 323.019762 37.179551 
L 325.262178 36.868464 
L 326.280935 35.935206 
L 326.662383 35.468577 
L 327.336732 35.15749 
L 327.374429 35.001947 
L 328.827488 33.757603 
L 329.35219 33.60206 
L 331.805723 33.446517 
L 332.715019 33.13543 
L 333.817941 32.824344 
L 334.439085 32.668801 
L 334.526145 32.513258 
L 335.120339 32.357715 
L 336.15885 32.202172 
L 336.43908 31.735543 
L 336.985639 31.579999 
L 338.299331 31.424456 
L 338.416396 31.268913 
L 339.366804 30.802284 
L 341.614401 30.491198 
L 341.639762 30.335655 
L 343.217745 30.180112 
L 343.340435 30.024569 
L 343.668061 29.869026 
L 346.169473 29.402396 
L 346.44146 29.246853 
L 352.481546 28.624681 
L 353.047758 28.469138 
L 354.563375 28.313595 
L 354.628167 28.158052 
L 356.135664 27.691422 
L 357.563733 27.535879 
L 357.883282 27.380336 
L 359.298084 27.224793 
L 359.397191 26.913707 
L 360.336291 26.758164 
L 360.546401 26.602621 
L 362.033222 26.447078 
L 362.36505 26.291535 
L 363.030988 26.135991 
L 365.584405 25.980448 
L 365.634942 25.824905 
L 368.025219 25.669362 
L 372.871384 25.513819 
L 374.077831 25.202733 
L 381.663864 24.736104 
L 388.730064 24.580561 
L 389.020281 24.425018 
L 396.131019 23.958388 
L 401.250221 23.802845 
L 401.927144 23.647302 
L 407.585597 23.491759 
L 408.478659 23.180673 
L 411.926194 23.02513 
L 420.942801 22.714044 
L 421.454653 22.5585 
L 440.704799 22.091871 
L 473.36081 21.936328 
L 473.36081 21.936328 
" clip-path="url(#paa5c3d1c80)" style="fill: none; stroke: #111111; stroke-width: 2; stroke-linecap: round"/>
   </g>
   <g id="line2d_14">
    <path d="M 132.611535 177.012785 
L 137.801462 176.857242 
L 141.773424 175.923983 
L 142.524939 175.612897 
L 143.687934 175.457354 
L 143.80763 175.301811 
L 144.497031 174.990725 
L 146.201409 173.590837 
L 146.268854 173.435294 
L 146.575495 173.124208 
L 146.746394 172.346492 
L 147.065359 172.035406 
L 147.172663 171.72432 
L 147.452235 171.413234 
L 148.090126 170.479975 
L 148.578889 169.080088 
L 148.905255 168.613458 
L 148.953881 168.302372 
L 149.118117 167.835743 
L 149.209844 167.369114 
L 149.3358 167.058028 
L 149.555561 165.813683 
L 149.666556 165.502597 
L 149.805273 164.880424 
L 149.909295 164.413795 
L 150.042919 164.102709 
L 150.297155 163.480537 
L 150.753299 162.702821 
L 151.159605 160.836304 
L 151.434169 160.525218 
L 151.729323 160.369675 
L 151.790418 159.591959 
L 152.178667 159.280873 
L 152.63295 157.880985 
L 153.106586 157.569899 
L 153.202118 156.947727 
L 153.469989 156.636641 
L 153.579762 156.170011 
L 153.803355 155.236753 
L 154.243313 153.836865 
L 154.339543 153.525779 
L 154.462574 152.436977 
L 154.599473 151.970348 
L 155.074758 150.57046 
L 155.152053 150.259374 
L 155.31692 149.170573 
L 155.575838 148.5484 
L 155.716062 147.459599 
L 155.803547 147.148512 
L 155.878654 146.215254 
L 156.205173 144.659823 
L 156.363733 144.037651 
L 156.549265 143.571022 
L 156.717449 141.860048 
L 156.791225 141.393418 
L 156.939858 141.082332 
L 156.987388 140.771246 
L 157.431999 140.304617 
L 157.618152 139.837987 
L 158.137948 138.749186 
L 158.347528 138.593643 
L 158.476895 137.815927 
L 158.717384 137.193755 
L 158.856934 136.727126 
L 159.033354 136.260496 
L 159.066109 135.94941 
L 159.455872 135.016152 
L 159.566531 134.549523 
L 159.705037 133.616264 
L 160.082285 132.527462 
L 160.314126 131.90529 
L 161.912402 125.83911 
L 162.160071 125.37248 
L 162.292822 124.439222 
L 162.481577 124.128136 
L 162.643154 123.039334 
L 163.204174 121.483903 
L 163.309311 120.550645 
L 163.632897 120.239559 
L 163.954325 118.528585 
L 164.160715 118.217498 
L 164.520532 116.817611 
L 164.724545 116.195438 
L 165.17129 114.640007 
L 165.516425 113.706749 
L 165.536678 113.551206 
L 165.734278 113.24012 
L 165.88323 112.306861 
L 166.057516 111.995775 
L 166.332696 111.062517 
L 166.864872 110.284801 
L 166.882505 110.129258 
L 167.062117 109.818172 
L 167.226754 109.040456 
L 167.76881 108.107198 
L 168.61343 106.551767 
L 168.7066 106.240681 
L 168.766496 105.774052 
L 169.109035 105.462965 
L 169.201803 104.840793 
L 169.414403 103.751991 
L 169.66351 102.974276 
L 169.795978 102.041018 
L 170.024324 101.729931 
L 170.334205 100.485587 
L 170.692027 100.1745 
L 170.838722 99.707871 
L 171.041992 99.085699 
L 171.053842 98.930156 
L 171.196912 98.61907 
L 172.376424 95.819294 
L 172.533897 95.508208 
L 172.549017 95.352665 
L 172.908977 94.886036 
L 172.99336 94.574949 
L 173.312204 94.419406 
L 173.401689 93.641691 
L 173.467152 93.175062 
L 173.6577 92.863975 
L 173.708427 92.552889 
L 173.881509 92.241803 
L 173.904724 91.930717 
L 174.740824 91.308545 
L 175.158905 89.908657 
L 175.316654 89.597571 
L 175.370198 89.442028 
L 175.728867 89.130941 
L 175.842882 88.664312 
L 176.418693 87.57551 
L 176.591698 86.797795 
L 176.696043 86.486709 
L 176.952683 86.175623 
L 177.307036 84.931278 
L 177.434982 84.620192 
L 177.607857 83.99802 
L 177.805814 83.686933 
L 178.047997 82.753675 
L 178.394453 82.442589 
L 178.845638 81.198244 
L 179.205638 81.042701 
L 179.248652 80.731615 
L 179.366612 80.576072 
L 179.794302 80.264985 
L 179.839991 79.953899 
L 180.197621 79.48727 
L 180.264908 79.176184 
L 180.506317 79.020641 
L 180.569453 78.398468 
L 180.992723 77.776296 
L 181.146403 77.46521 
L 181.480695 76.220865 
L 181.791256 75.909779 
L 182.122759 75.754236 
L 182.248775 75.132064 
L 182.619805 74.665434 
L 182.789721 74.043262 
L 182.801759 73.887719 
L 183.050307 73.732176 
L 183.251905 73.265547 
L 183.475499 72.95446 
L 185.247565 70.9324 
L 185.982644 70.621314 
L 186.336976 69.532512 
L 186.491934 69.221426 
L 186.905018 68.91034 
L 187.905347 68.599254 
L 187.914848 68.443711 
L 188.400246 68.288168 
L 188.48459 67.977082 
L 189.12824 67.665995 
L 189.200306 67.354909 
L 189.410186 67.199366 
L 189.506661 66.577194 
L 189.898971 66.266108 
L 190.000106 66.110565 
L 190.413344 65.955022 
L 190.60772 65.643935 
L 190.818324 65.332849 
L 191.101409 65.021763 
L 191.258729 64.86622 
L 191.587571 64.710677 
L 191.629472 64.555134 
L 191.878631 64.399591 
L 191.953893 64.088504 
L 192.518456 63.621875 
L 193.173707 61.910901 
L 194.698657 60.977643 
L 195.294367 60.199927 
L 196.772857 59.422212 
L 196.795909 59.266669 
L 197.398263 58.955583 
L 197.870958 58.644496 
L 198.328526 57.866781 
L 198.417584 57.711238 
L 198.809648 57.400152 
L 199.510698 56.622436 
L 200.04648 56.31135 
L 200.328816 56.155807 
L 200.499809 55.533635 
L 200.588093 55.222549 
L 200.899006 55.067005 
L 200.994977 54.444833 
L 201.404755 54.28929 
L 201.461426 54.133747 
L 202.283357 53.822661 
L 203.123512 53.200488 
L 203.214471 52.889402 
L 204.8666 52.26723 
L 205.377547 51.956144 
L 205.67563 51.800601 
L 206.448746 51.489514 
L 206.543379 51.178428 
L 206.997281 50.867342 
L 207.467223 50.711799 
L 207.861565 50.089627 
L 208.595895 49.778541 
L 208.774402 49.311911 
L 209.138741 49.000825 
L 209.319411 48.534196 
L 209.522131 48.378653 
L 209.568566 48.067567 
L 210.078535 47.445394 
L 211.359022 47.134308 
L 211.568474 46.823222 
L 212.051621 46.512136 
L 212.508255 46.045506 
L 213.591334 45.73442 
L 213.805691 45.267791 
L 214.34661 44.956705 
L 214.481847 44.645619 
L 214.856616 44.490076 
L 216.526592 44.334533 
L 217.634711 43.71236 
L 218.230133 43.401274 
L 218.387016 43.245731 
L 219.552831 42.934645 
L 221.242665 42.468015 
L 222.096534 42.156929 
L 222.462456 41.6903 
L 222.818776 41.379214 
L 223.129872 41.068128 
L 223.534381 40.912585 
L 223.562831 40.757042 
L 223.766511 40.445955 
L 223.875766 40.290412 
L 224.538075 40.134869 
L 224.610774 39.979326 
L 225.177457 39.66824 
L 225.658918 39.201611 
L 226.233805 38.890525 
L 227.05712 38.268352 
L 227.234218 37.801723 
L 228.160386 37.490637 
L 229.201435 37.179551 
L 229.264845 37.024007 
L 230.882433 36.246292 
L 231.840774 36.090749 
L 231.989664 35.62412 
L 232.439919 35.313034 
L 232.495992 35.15749 
L 232.832848 35.001947 
L 233.508282 34.846404 
L 233.793297 34.535318 
L 235.437387 34.224232 
L 237.718589 33.757603 
L 237.801865 33.60206 
L 238.342176 33.290973 
L 238.452341 33.13543 
L 239.542222 32.668801 
L 241.271399 32.513258 
L 242.073304 32.202172 
L 242.15719 32.046629 
L 243.650867 31.891086 
L 243.730245 31.735543 
L 244.559225 31.268913 
L 247.854087 30.802284 
L 248.360248 30.646741 
L 250.967301 30.491198 
L 252.313869 29.869026 
L 252.410464 29.713482 
L 253.112807 29.557939 
L 253.365809 29.09131 
L 253.457892 28.935767 
L 254.370927 28.780224 
L 260.144251 28.313595 
L 262.886282 27.691422 
L 262.970696 27.535879 
L 263.934612 27.224793 
L 263.946756 27.06925 
L 265.326259 26.913707 
L 265.385434 26.758164 
L 269.029136 26.291535 
L 269.10442 25.980448 
L 270.570538 25.669362 
L 271.199723 25.513819 
L 271.250789 25.358276 
L 271.943628 25.202733 
L 273.799433 25.04719 
L 281.419274 24.891647 
L 281.583594 24.580561 
L 288.022329 24.269474 
L 291.40633 23.802845 
L 297.212401 23.491759 
L 299.024128 23.336216 
L 319.416904 22.5585 
L 356.68337 22.091871 
L 357.370802 21.936328 
L 357.370802 21.936328 
" clip-path="url(#paa5c3d1c80)" style="fill: none; stroke: #4878cf; stroke-width: 1.2; stroke-linecap: round"/>
   </g>
   <g id="line2d_15">
    <path d="M 67.661091 177.012785 
L 67.693402 176.701699 
L 67.906846 176.390613 
L 67.916626 176.23507 
L 68.273973 175.76844 
L 68.556258 174.835182 
L 68.934315 174.679639 
L 68.981047 174.524096 
L 69.30707 174.368553 
L 69.348802 173.901923 
L 69.748184 173.590837 
L 69.823526 173.435294 
L 70.528994 173.124208 
L 70.73836 172.813122 
L 70.832815 172.502036 
L 71.158544 172.035406 
L 71.273129 171.568777 
L 71.525919 171.257691 
L 71.552244 170.946605 
L 71.807812 170.635519 
L 72.377285 170.479975 
L 72.454439 170.168889 
L 73.451324 168.613458 
L 73.628158 167.6802 
L 73.857447 167.369114 
L 74.014947 166.591398 
L 74.302829 166.280312 
L 74.376898 165.813683 
L 74.910275 165.65814 
L 75.32926 165.035967 
L 75.981914 164.569338 
L 75.991261 164.413795 
L 76.354433 164.258252 
L 76.71136 163.63608 
L 77.085603 163.324993 
L 77.782282 162.702821 
L 78.37747 162.547278 
L 78.529317 161.925106 
L 78.936874 161.458476 
L 79.433476 159.747502 
L 79.839175 159.591959 
L 79.892867 159.436416 
L 80.366198 159.280873 
L 80.563402 158.503158 
L 80.985282 157.414356 
L 81.200516 157.10327 
L 81.593093 156.481098 
L 81.953776 156.170011 
L 82.341802 155.08121 
L 82.573347 154.925667 
L 82.633828 154.614581 
L 83.018128 154.147951 
L 83.156738 153.681322 
L 83.377601 153.525779 
L 83.395189 153.214693 
L 83.556698 152.903607 
L 83.85331 152.281434 
L 84.165066 151.659262 
L 84.603289 151.348176 
L 84.613261 151.192633 
L 84.949843 150.726003 
L 84.956095 150.57046 
L 85.103385 150.259374 
L 85.18677 149.948288 
L 85.289215 149.637202 
L 85.724965 149.481659 
L 86.216752 148.392857 
L 86.557017 148.081771 
L 86.880634 147.615142 
L 87.009642 146.992969 
L 87.237068 146.681883 
L 87.494628 146.370797 
L 87.628099 145.748625 
L 87.804964 145.437539 
L 88.522603 144.50428 
L 88.536207 144.348737 
L 88.766408 144.037651 
L 88.904342 143.726565 
L 89.199526 143.104392 
L 89.504147 142.326677 
L 89.652167 142.015591 
L 90.198163 140.771246 
L 90.450263 140.46016 
L 91.082563 138.904729 
L 91.317592 138.749186 
L 91.345699 138.282557 
L 91.633079 138.127013 
L 91.739554 137.660384 
L 92.436473 136.727126 
L 92.629309 136.41604 
L 92.70961 136.104953 
L 93.019912 135.94941 
L 93.144239 135.482781 
L 93.584991 135.327238 
L 93.880218 134.705066 
L 93.94442 134.393979 
L 94.277575 134.082893 
L 94.432102 133.771807 
L 95.377292 132.371919 
L 95.732656 131.594204 
L 96.131448 131.127575 
L 96.139153 130.972032 
L 96.998002 129.727687 
L 97.078364 129.572144 
L 97.931815 128.949971 
L 98.150797 128.483342 
L 98.475112 127.86117 
L 98.738341 126.927911 
L 98.902252 126.461282 
L 99.361782 125.528024 
L 99.366181 125.37248 
L 99.676815 124.905851 
L 99.946189 124.128136 
L 100.114925 123.81705 
L 100.43052 123.039334 
L 100.74354 122.883791 
L 100.864078 122.572705 
L 101.062648 122.261619 
L 101.437138 121.950533 
L 101.470656 121.794989 
L 101.805247 121.483903 
L 101.851301 121.32836 
L 102.291393 120.861731 
L 102.295138 120.706188 
L 102.5904 120.550645 
L 102.667142 120.239559 
L 102.999758 119.928472 
L 103.201746 119.150757 
L 103.961124 117.906412 
L 104.083837 117.128697 
L 104.305952 116.662068 
L 104.822554 116.350981 
L 105.006936 115.573266 
L 105.035664 115.417723 
L 105.641256 114.795551 
L 106.535838 113.395663 
L 106.988928 113.24012 
L 107.090424 113.084577 
L 107.334367 112.929034 
L 107.431876 112.306861 
L 107.853047 111.373603 
L 108.144042 111.21806 
L 108.365433 110.75143 
L 109.367695 109.818172 
L 109.397443 109.662629 
L 109.80836 109.351543 
L 110.24007 109.195999 
L 110.292089 109.040456 
L 110.501669 108.884913 
L 110.614415 108.573827 
L 110.898762 108.262741 
L 111.121344 107.951655 
L 111.53529 107.796112 
L 111.659398 107.329482 
L 111.957982 107.018396 
L 112.150903 106.551767 
L 112.244048 106.085138 
L 112.291645 105.929595 
L 112.54701 105.774052 
L 112.684254 105.307422 
L 112.852434 104.996336 
L 113.109973 104.374164 
L 113.22479 103.907535 
L 113.435853 103.285362 
L 113.581187 102.974276 
L 113.925312 102.196561 
L 114.476994 101.885474 
L 115.378354 100.330044 
L 115.456882 99.863414 
L 115.911571 99.552328 
L 116.203367 98.774613 
L 116.476667 98.463527 
L 116.485737 98.307983 
L 116.687454 97.996897 
L 116.706003 97.841354 
L 117.171628 97.685811 
L 117.221972 97.374725 
L 117.53919 96.908096 
L 117.574995 96.752553 
L 118.107946 96.441466 
L 118.283942 95.974837 
L 118.397081 95.508208 
L 119.037039 94.574949 
L 119.091915 94.419406 
L 119.494397 94.10832 
L 119.830727 93.952777 
L 119.849462 93.797234 
L 121.050274 93.019519 
L 121.054526 92.863975 
L 121.219576 92.552889 
L 121.462259 91.775174 
L 121.630052 91.464088 
L 121.682828 91.153001 
L 121.979176 90.997458 
L 122.186895 89.597571 
L 122.4311 89.286484 
L 122.497104 88.975398 
L 122.775406 88.664312 
L 123.110175 88.197683 
L 123.601213 87.731054 
L 124.713004 87.419967 
L 124.85398 87.108881 
L 125.758111 86.797795 
L 126.100968 86.175623 
L 126.646958 85.864537 
L 126.977521 85.55345 
L 127.063216 85.242364 
L 127.159254 85.086821 
L 127.557848 84.931278 
L 127.625561 84.464649 
L 127.873988 84.153563 
L 128.045424 83.53139 
L 128.523051 83.375847 
L 128.53056 83.220304 
L 129.740024 82.598132 
L 129.771574 82.287046 
L 130.140174 81.820416 
L 130.284685 81.50933 
L 130.475373 81.353787 
L 130.481735 81.198244 
L 130.776052 80.731615 
L 132.039769 80.264985 
L 135.027335 78.709555 
L 135.161304 78.398468 
L 135.482847 78.242925 
L 135.535156 78.087382 
L 136.358475 77.46521 
L 136.63113 76.998581 
L 137.505313 76.376408 
L 138.286866 75.909779 
L 138.317828 75.754236 
L 139.363797 74.976521 
L 141.347222 74.509891 
L 141.716683 74.198805 
L 142.290017 74.043262 
L 142.312381 73.887719 
L 143.573817 72.798917 
L 144.405527 72.487831 
L 144.437356 72.332288 
L 145.512156 71.554573 
L 146.114423 71.087943 
L 146.564639 70.9324 
L 146.625815 70.776857 
L 147.356147 70.310228 
L 148.669185 69.843599 
L 149.174635 69.532512 
L 149.90826 69.376969 
L 150.24399 68.754797 
L 150.42777 68.599254 
L 150.912901 68.443711 
L 151.874543 68.288168 
L 152.587726 67.821539 
L 153.738302 67.354909 
L 153.783613 67.199366 
L 154.146229 67.043823 
L 154.178148 66.732737 
L 154.632284 66.421651 
L 155.385638 65.955022 
L 155.389792 65.799478 
L 155.549594 65.643935 
L 156.075825 65.488392 
L 156.122094 65.021763 
L 156.784706 64.86622 
L 157.282676 64.399591 
L 158.330069 64.088504 
L 158.374854 63.932961 
L 158.650698 63.621875 
L 159.530559 63.310789 
L 159.935819 62.999703 
L 161.159494 62.84416 
L 161.395869 62.533074 
L 161.569943 62.377531 
L 163.003203 61.755358 
L 163.063522 61.599815 
L 163.272941 61.444272 
L 164.262322 61.133186 
L 164.314947 60.977643 
L 164.899928 60.8221 
L 165.104618 60.35547 
L 165.638655 60.044384 
L 165.679394 59.888841 
L 165.930998 59.733298 
L 166.493021 59.577755 
L 166.613663 59.266669 
L 167.312468 59.111126 
L 167.455342 58.955583 
L 168.819446 58.488953 
L 168.965233 58.33341 
L 169.495966 58.177867 
L 169.606545 58.022324 
L 171.211876 57.711238 
L 171.78732 57.089066 
L 172.895058 56.622436 
L 172.928564 56.466893 
L 173.076049 56.31135 
L 174.144734 56.000264 
L 175.263731 55.067005 
L 176.63324 54.600376 
L 176.815082 54.28929 
L 177.417504 53.978204 
L 177.552727 53.667118 
L 178.138795 53.511575 
L 178.429545 53.200488 
L 179.719473 52.733859 
L 180.28974 52.422773 
L 180.953571 52.26723 
L 181.100028 51.645058 
L 182.563982 51.022885 
L 182.784847 50.711799 
L 184.36774 50.556256 
L 184.413785 50.400713 
L 185.641013 49.934084 
L 185.848005 49.622997 
L 186.14702 49.467454 
L 187.502639 49.000825 
L 187.602876 48.689739 
L 188.669705 48.534196 
L 188.693058 48.378653 
L 188.875095 48.22311 
L 189.810299 47.75648 
L 190.020277 47.445394 
L 190.136476 47.289851 
L 192.196553 46.512136 
L 192.573275 45.889963 
L 193.84583 45.578877 
L 195.030745 45.267791 
L 195.121475 45.112248 
L 197.273471 44.801162 
L 197.381803 44.645619 
L 199.215826 44.334533 
L 199.270739 44.178989 
L 199.518569 44.023446 
L 199.554611 43.867903 
L 200.22308 43.401274 
L 200.601133 42.934645 
L 202.168302 42.468015 
L 204.956458 42.156929 
L 205.557398 41.534757 
L 205.942501 41.379214 
L 205.964435 41.223671 
L 206.534803 40.757042 
L 207.995859 40.601498 
L 208.186666 40.290412 
L 212.6285 38.890525 
L 212.805141 38.734981 
L 215.092537 38.423895 
L 215.372095 38.112809 
L 215.443309 37.957266 
L 216.242697 37.801723 
L 216.27653 37.64618 
L 218.287161 37.335094 
L 218.410111 37.179551 
L 220.179742 36.868464 
L 220.41827 36.712921 
L 221.419676 36.557378 
L 221.427485 36.401835 
L 221.926385 36.246292 
L 223.052405 36.090749 
L 223.29714 35.935206 
L 223.324943 35.779663 
L 224.219717 35.62412 
L 224.619415 35.15749 
L 225.48227 34.690861 
L 225.565385 34.535318 
L 225.867991 34.379775 
L 229.629538 33.913146 
L 229.790645 33.757603 
L 230.282183 33.60206 
L 230.338853 33.446517 
L 233.408585 33.13543 
L 233.832269 32.357715 
L 235.653764 31.891086 
L 236.550213 31.735543 
L 239.873029 31.579999 
L 239.954575 31.424456 
L 241.046162 31.11337 
L 242.176944 30.802284 
L 242.397637 30.491198 
L 244.255138 29.869026 
L 244.433094 29.557939 
L 244.764926 29.402396 
L 246.631809 29.246853 
L 247.019905 29.09131 
L 249.89192 28.935767 
L 250.80118 28.624681 
L 250.917495 28.469138 
L 254.320884 28.002508 
L 256.342369 27.535879 
L 256.510691 27.380336 
L 256.948368 27.224793 
L 260.42714 26.913707 
L 260.592782 26.758164 
L 268.527624 26.135991 
L 268.969991 25.980448 
L 268.998025 25.824905 
L 271.300987 25.513819 
L 271.936826 25.358276 
L 275.716446 25.202733 
L 277.607823 24.736104 
L 277.978604 24.580561 
L 281.784055 24.113931 
L 295.770411 23.491759 
L 323.824309 23.02513 
L 345.276632 22.091871 
L 404.029366 21.936328 
L 404.029366 21.936328 
" clip-path="url(#paa5c3d1c80)" style="fill: none; stroke: #d1701f; stroke-width: 1.2; stroke-linecap: round"/>
   </g>
   <g id="line2d_16">
    <path d="M 67.542628 177.012785 
L 67.690367 176.23507 
L 68.147619 171.257691 
L 68.249912 170.013346 
L 68.360817 169.235631 
L 68.453088 168.302372 
L 68.677484 165.502597 
L 68.768141 165.035967 
L 68.902136 163.947166 
L 69.093313 161.925106 
L 69.232332 161.14739 
L 69.706663 155.236753 
L 69.910387 153.992408 
L 70.026042 152.281434 
L 70.09607 151.348176 
L 70.208753 150.259374 
L 70.305931 149.637202 
L 70.73299 145.437539 
L 70.798295 144.970909 
L 71.215428 142.326677 
L 71.306692 141.704504 
L 72.198463 130.972032 
L 72.559072 128.638885 
L 72.693438 126.772368 
L 73.170363 123.194877 
L 73.210559 122.572705 
L 73.301334 122.261619 
L 73.447078 120.861731 
L 73.602474 119.772929 
L 73.659356 118.995214 
L 73.78423 118.528585 
L 73.954437 116.662068 
L 74.009493 116.039895 
L 74.582328 110.595887 
L 74.716603 109.973715 
L 74.826613 108.573827 
L 74.998701 108.262741 
L 75.159529 107.485026 
L 75.322802 106.862853 
L 75.892473 102.66319 
L 76.0404 102.041018 
L 76.056227 101.729931 
L 76.190773 101.418845 
L 76.462952 100.1745 
L 76.655406 98.307983 
L 76.751964 97.841354 
L 77.213522 93.952777 
L 77.354459 93.175062 
L 77.461877 92.397346 
L 77.844182 89.442028 
L 77.915877 88.975398 
L 78.048403 88.197683 
L 78.176614 87.731054 
L 78.701704 85.708993 
L 78.761417 85.242364 
L 78.868988 84.309106 
L 79.960113 76.687494 
L 80.058371 76.220865 
L 80.13232 75.598693 
L 80.231818 75.132064 
L 80.413844 74.354348 
L 80.653098 73.265547 
L 81.035293 70.465771 
L 81.23834 69.221426 
L 82.267789 64.088504 
L 82.418125 62.533074 
L 82.681876 61.910901 
L 82.753053 61.288729 
L 82.850784 60.977643 
L 83.312309 59.422212 
L 83.464584 59.111126 
L 83.635161 58.177867 
L 83.695983 57.400152 
L 83.850202 56.933523 
L 84.621712 53.200488 
L 84.711955 52.889402 
L 84.940222 51.956144 
L 85.139627 51.800601 
L 85.25238 51.178428 
L 85.448002 50.867342 
L 85.589303 50.089627 
L 85.768581 49.156368 
L 86.147542 48.22311 
L 86.409251 47.75648 
L 86.693953 46.978765 
L 87.073032 46.045506 
L 87.239883 45.423334 
L 87.459963 45.267791 
L 87.4676 45.112248 
L 87.777951 44.801162 
L 87.849761 44.490076 
L 88.057605 44.178989 
L 88.090723 44.023446 
L 89.284154 42.779102 
L 89.392775 42.156929 
L 89.445561 42.001386 
L 89.685923 41.845843 
L 89.696045 41.6903 
L 89.961329 41.379214 
L 90.195648 40.757042 
L 90.728666 39.357154 
L 91.036667 39.201611 
L 91.191782 38.423895 
L 91.738892 37.957266 
L 92.201928 37.801723 
L 92.270137 37.64618 
L 92.63203 37.335094 
L 92.843599 36.868464 
L 92.994089 36.557378 
L 93.331593 35.779663 
L 93.67278 35.313034 
L 93.775881 34.690861 
L 94.060546 34.068689 
L 94.348401 33.913146 
L 94.489306 33.60206 
L 94.748741 32.979887 
L 94.990974 32.824344 
L 94.998999 32.668801 
L 95.78737 32.202172 
L 96.116634 30.957827 
L 96.426358 30.802284 
L 96.555567 30.335655 
L 96.592021 30.180112 
L 96.937477 30.024569 
L 96.966505 29.869026 
L 97.273149 29.713482 
L 97.347551 29.402396 
L 97.591524 29.09131 
L 97.747659 28.469138 
L 97.932372 28.158052 
L 98.04584 27.846965 
L 98.320555 27.691422 
L 98.437635 27.06925 
L 98.881131 26.291535 
L 98.898784 26.135991 
L 99.200146 25.824905 
L 99.279122 25.202733 
L 99.664251 24.891647 
L 99.91411 24.736104 
L 100.954733 24.580561 
L 101.311545 23.802845 
L 101.493391 23.647302 
L 102.099548 23.336216 
L 104.100139 22.402957 
L 106.675786 21.936328 
L 106.675786 21.936328 
" clip-path="url(#paa5c3d1c80)" style="fill: none; stroke: #6a51a3; stroke-width: 1.2; stroke-linecap: round"/>
   </g>
   <g id="patch_3">
    <path d="M 47.251719 177.168328 
L 47.251719 21.936328 
" style="fill: none; stroke: #cccccc; stroke-width: 1.25; stroke-linejoin: miter; stroke-linecap: square"/>
   </g>
   <g id="patch_4">
    <path d="M 47.251719 177.168328 
L 493.651719 177.168328 
" style="fill: none; stroke: #cccccc; stroke-width: 1.25; stroke-linejoin: miter; stroke-linecap: square"/>
   </g>
   <g id="text_15">
    <!-- Correction Δv - - empirical CDF (total + burns) -->
    <g style="fill: #262626" transform="translate(149.922031 15.936328) scale(0.12 -0.12)">
     <defs>
      <path id="ArialMT-26" d="M 3763 1606 
L 4369 1453 
Q 4178 706 3683 314 
Q 3188 -78 2472 -78 
Q 1731 -78 1267 223 
Q 803 525 561 1097 
Q 319 1669 319 2325 
Q 319 3041 592 3573 
Q 866 4106 1370 4382 
Q 1875 4659 2481 4659 
Q 3169 4659 3637 4309 
Q 4106 3959 4291 3325 
L 3694 3184 
Q 3534 3684 3231 3912 
Q 2928 4141 2469 4141 
Q 1941 4141 1586 3887 
Q 1231 3634 1087 3207 
Q 944 2781 944 2328 
Q 944 1744 1114 1308 
Q 1284 872 1643 656 
Q 2003 441 2422 441 
Q 2931 441 3284 734 
Q 3638 1028 3763 1606 
z
" transform="scale(0.015625)"/>
      <path id="ArialMT-10" d="M 203 1375 
L 203 1941 
L 1931 1941 
L 1931 1375 
L 203 1375 
z
" transform="scale(0.015625)"/>
      <path id="ArialMT-53" d="M 422 -1272 
L 422 3319 
L 934 3319 
L 934 2888 
Q 1116 3141 1344 3267 
Q 1572 3394 1897 3394 
Q 2322 3394 2647 3175 
Q 2972 2956 3137 2557 
Q 3303 2159 3303 1684 
Q 3303 1175 3120 767 
Q 2938 359 2589 142 
Q 2241 -75 1856 -75 
Q 1575 -75 1351 44 
Q 1128 163 984 344 
L 984 -1272 
L 422 -1272 
z
M 931 1641 
Q 931 1000 1190 694 
Q 1450 388 1819 388 
Q 2194 388 2461 705 
Q 2728 1022 2728 1688 
Q 2728 2322 2467 2637 
Q 2206 2953 1844 2953 
Q 1484 2953 1207 2617 
Q 931 2281 931 1641 
z
" transform="scale(0.015625)"/>
      <path id="ArialMT-27" d="M 494 0 
L 494 4581 
L 2072 4581 
Q 2606 4581 2888 4516 
Q 3281 4425 3559 4188 
Q 3922 3881 4101 3404 
Q 4281 2928 4281 2316 
Q 4281 1794 4159 1391 
Q 4038 988 3847 723 
Q 3656 459 3429 307 
Q 3203 156 2883 78 
Q 2563 0 2147 0 
L 494 0 
z
M 1100 541 
L 2078 541 
Q 2531 541 2789 625 
Q 3047 709 3200 863 
Q 3416 1078 3536 1442 
Q 3656 1806 3656 2325 
Q 3656 3044 3420 3430 
Q 3184 3816 2847 3947 
Q 2603 4041 2063 4041 
L 1100 4041 
L 1100 541 
z
" transform="scale(0.015625)"/>
      <path id="ArialMT-29" d="M 525 0 
L 525 4581 
L 3616 4581 
L 3616 4041 
L 1131 4041 
L 1131 2622 
L 3281 2622 
L 3281 2081 
L 1131 2081 
L 1131 0 
L 525 0 
z
" transform="scale(0.015625)"/>
      <path id="ArialMT-e" d="M 1603 741 
L 1603 1997 
L 356 1997 
L 356 2522 
L 1603 2522 
L 1603 3769 
L 2134 3769 
L 2134 2522 
L 3381 2522 
L 3381 1997 
L 2134 1997 
L 2134 741 
L 1603 741 
z
" transform="scale(0.015625)"/>
      <path id="ArialMT-45" d="M 941 0 
L 419 0 
L 419 4581 
L 981 4581 
L 981 2947 
Q 1338 3394 1891 3394 
Q 2197 3394 2470 3270 
Q 2744 3147 2920 2923 
Q 3097 2700 3197 2384 
Q 3297 2069 3297 1709 
Q 3297 856 2875 390 
Q 2453 -75 1863 -75 
Q 1275 -75 941 416 
L 941 0 
z
M 934 1684 
Q 934 1088 1097 822 
Q 1363 388 1816 388 
Q 2184 388 2453 708 
Q 2722 1028 2722 1663 
Q 2722 2313 2464 2622 
Q 2206 2931 1841 2931 
Q 1472 2931 1203 2611 
Q 934 2291 934 1684 
z
" transform="scale(0.015625)"/>
     </defs>
     <use xlink:href="#ArialMT-26"/>
     <use xlink:href="#ArialMT-52" transform="translate(72.21875 0)"/>
     <use xlink:href="#ArialMT-55" transform="translate(127.828125 0)"/>
     <use xlink:href="#ArialMT-55" transform="translate(161.125 0)"/>
     <use xlink:href="#ArialMT-48" transform="translate(194.421875 0)"/>
     <use xlink:href="#ArialMT-46" transform="translate(250.03125 0)"/>
     <use xlink:href="#ArialMT-57" transform="translate(300.03125 0)"/>
     <use xlink:href="#ArialMT-4c" transform="translate(327.8125 0)"/>
     <use xlink:href="#ArialMT-52" transform="translate(350.03125 0)"/>
     <use xlink:href="#ArialMT-51" transform="translate(405.640625 0)"/>
     <use xlink:href="#ArialMT-3" transform="translate(461.25 0)"/>
     <use xlink:href="#ArialMT-1fb" transform="translate(489.03125 0)"/>
     <use xlink:href="#ArialMT-59" transform="translate(555.828125 0)"/>
     <use xlink:href="#ArialMT-3" transform="translate(605.828125 0)"/>
     <use xlink:href="#ArialMT-10" transform="translate(633.609375 0)"/>
     <use xlink:href="#ArialMT-10" transform="translate(666.90625 0)"/>
     <use xlink:href="#ArialMT-3" transform="translate(700.203125 0)"/>
     <use xlink:href="#ArialMT-48" transform="translate(727.984375 0)"/>
     <use xlink:href="#ArialMT-50" transform="translate(783.59375 0)"/>
     <use xlink:href="#ArialMT-53" transform="translate(866.890625 0)"/>
     <use xlink:href="#ArialMT-4c" transform="translate(922.5 0)"/>
     <use xlink:href="#ArialMT-55" transform="translate(944.71875 0)"/>
     <use xlink:href="#ArialMT-4c" transform="translate(978.015625 0)"/>
     <use xlink:href="#ArialMT-46" transform="translate(1000.234375 0)"/>
     <use xlink:href="#ArialMT-44" transform="translate(1050.234375 0)"/>
     <use xlink:href="#ArialMT-4f" transform="translate(1105.84375 0)"/>
     <use xlink:href="#ArialMT-3" transform="translate(1128.0625 0)"/>
     <use xlink:href="#ArialMT-26" transform="translate(1155.84375 0)"/>
     <use xlink:href="#ArialMT-27" transform="translate(1228.0625 0)"/>
     <use xlink:href="#ArialMT-29" transform="translate(1300.28125 0)"/>
     <use xlink:href="#ArialMT-3" transform="translate(1361.359375 0)"/>
     <use xlink:href="#ArialMT-b" transform="translate(1389.140625 0)"/>
     <use xlink:href="#ArialMT-57" transform="translate(1422.4375 0)"/>
     <use xlink:href="#ArialMT-52" transform="translate(1450.21875 0)"/>
     <use xlink:href="#ArialMT-57" transform="translate(1505.828125 0)"/>
     <use xlink:href="#ArialMT-44" transform="translate(1533.609375 0)"/>
     <use xlink:href="#ArialMT-4f" transform="translate(1589.21875 0)"/>
     <use xlink:href="#ArialMT-3" transform="translate(1611.4375 0)"/>
     <use xlink:href="#ArialMT-e" transform="translate(1639.21875 0)"/>
     <use xlink:href="#ArialMT-3" transform="translate(1697.625 0)"/>
     <use xlink:href="#ArialMT-45" transform="translate(1725.40625 0)"/>
     <use xlink:href="#ArialMT-58" transform="translate(1781.015625 0)"/>
     <use xlink:href="#ArialMT-55" transform="translate(1836.625 0)"/>
     <use xlink:href="#ArialMT-51" transform="translate(1869.921875 0)"/>
     <use xlink:href="#ArialMT-56" transform="translate(1925.53125 0)"/>
     <use xlink:href="#ArialMT-c" transform="translate(1975.53125 0)"/>
    </g>
   </g>
   <g id="legend_1">
    <g id="patch_5">
     <path d="M 371.331916 172.170328 
L 486.654519 172.170328 
Q 488.653719 172.170328 488.653719 170.171128 
L 488.653719 113.654486 
Q 488.653719 111.655286 486.654519 111.655286 
L 371.331916 111.655286 
Q 369.332716 111.655286 369.332716 113.654486 
L 369.332716 170.171128 
Q 369.332716 172.170328 371.331916 172.170328 
z
" style="fill: #f5f5f5; opacity: 0.8; stroke: #cccccc; stroke-linejoin: miter"/>
    </g>
    <g id="line2d_17">
     <path d="M 373.331116 119.432447 
L 383.327116 119.432447 
L 393.323116 119.432447 
" style="fill: none; stroke: #111111; stroke-width: 2; stroke-linecap: round"/>
    </g>
    <g id="text_16">
     <!-- total Δv -->
     <g style="fill: #262626" transform="translate(401.319916 122.931047) scale(0.09996 -0.09996)">
      <use xlink:href="#ArialMT-57"/>
      <use xlink:href="#ArialMT-52" transform="translate(27.78125 0)"/>
      <use xlink:href="#ArialMT-57" transform="translate(83.390625 0)"/>
      <use xlink:href="#ArialMT-44" transform="translate(111.171875 0)"/>
      <use xlink:href="#ArialMT-4f" transform="translate(166.78125 0)"/>
      <use xlink:href="#ArialMT-3" transform="translate(189 0)"/>
      <use xlink:href="#ArialMT-1fb" transform="translate(216.78125 0)"/>
      <use xlink:href="#ArialMT-59" transform="translate(283.578125 0)"/>
     </g>
    </g>
    <g id="line2d_18">
     <path d="M 373.331116 133.811459 
L 383.327116 133.811459 
L 393.323116 133.811459 
" style="fill: none; stroke: #4878cf; stroke-width: 1.2; stroke-linecap: round"/>
    </g>
    <g id="text_17">
     <!-- dv1 periapsis raise -->
     <g style="fill: #262626" transform="translate(401.319916 137.310059) scale(0.09996 -0.09996)">
      <defs>
       <path id="ArialMT-47" d="M 2575 0 
L 2575 419 
Q 2259 -75 1647 -75 
Q 1250 -75 917 144 
Q 584 363 401 755 
Q 219 1147 219 1656 
Q 219 2153 384 2558 
Q 550 2963 881 3178 
Q 1213 3394 1622 3394 
Q 1922 3394 2156 3267 
Q 2391 3141 2538 2938 
L 2538 4581 
L 3097 4581 
L 3097 0 
L 2575 0 
z
M 797 1656 
Q 797 1019 1065 703 
Q 1334 388 1700 388 
Q 2069 388 2326 689 
Q 2584 991 2584 1609 
Q 2584 2291 2321 2609 
Q 2059 2928 1675 2928 
Q 1300 2928 1048 2622 
Q 797 2316 797 1656 
z
" transform="scale(0.015625)"/>
      </defs>
      <use xlink:href="#ArialMT-47"/>
      <use xlink:href="#ArialMT-59" transform="translate(55.609375 0)"/>
      <use xlink:href="#ArialMT-14" transform="translate(105.609375 0)"/>
      <use xlink:href="#ArialMT-3" transform="translate(161.21875 0)"/>
      <use xlink:href="#ArialMT-53" transform="translate(189 0)"/>
      <use xlink:href="#ArialMT-48" transform="translate(244.609375 0)"/>
      <use xlink:href="#ArialMT-55" transform="translate(300.21875 0)"/>
      <use xlink:href="#ArialMT-4c" transform="translate(333.515625 0)"/>
      <use xlink:href="#ArialMT-44" transform="translate(355.734375 0)"/>
      <use xlink:href="#ArialMT-53" transform="translate(411.34375 0)"/>
      <use xlink:href="#ArialMT-56" transform="translate(466.953125 0)"/>
      <use xlink:href="#ArialMT-4c" transform="translate(516.953125 0)"/>
      <use xlink:href="#ArialMT-56" transform="translate(539.171875 0)"/>
      <use xlink:href="#ArialMT-3" transform="translate(589.171875 0)"/>
      <use xlink:href="#ArialMT-55" transform="translate(616.953125 0)"/>
      <use xlink:href="#ArialMT-44" transform="translate(650.25 0)"/>
      <use xlink:href="#ArialMT-4c" transform="translate(705.859375 0)"/>
      <use xlink:href="#ArialMT-56" transform="translate(728.078125 0)"/>
      <use xlink:href="#ArialMT-48" transform="translate(778.078125 0)"/>
     </g>
    </g>
    <g id="line2d_19">
     <path d="M 373.331116 148.190471 
L 383.327116 148.190471 
L 393.323116 148.190471 
" style="fill: none; stroke: #d1701f; stroke-width: 1.2; stroke-linecap: round"/>
    </g>
    <g id="text_18">
     <!-- dv2 circularization -->
     <g style="fill: #262626" transform="translate(401.319916 151.689071) scale(0.09996 -0.09996)">
      <defs>
       <path id="ArialMT-5d" d="M 125 0 
L 125 456 
L 2238 2881 
Q 1878 2863 1603 2863 
L 250 2863 
L 250 3319 
L 2963 3319 
L 2963 2947 
L 1166 841 
L 819 456 
Q 1197 484 1528 484 
L 3063 484 
L 3063 0 
L 125 0 
z
" transform="scale(0.015625)"/>
      </defs>
      <use xlink:href="#ArialMT-47"/>
      <use xlink:href="#ArialMT-59" transform="translate(55.609375 0)"/>
      <use xlink:href="#ArialMT-15" transform="translate(105.609375 0)"/>
      <use xlink:href="#ArialMT-3" transform="translate(161.21875 0)"/>
      <use xlink:href="#ArialMT-46" transform="translate(189 0)"/>
      <use xlink:href="#ArialMT-4c" transform="translate(239 0)"/>
      <use xlink:href="#ArialMT-55" transform="translate(261.21875 0)"/>
      <use xlink:href="#ArialMT-46" transform="translate(294.515625 0)"/>
      <use xlink:href="#ArialMT-58" transform="translate(344.515625 0)"/>
      <use xlink:href="#ArialMT-4f" transform="translate(400.125 0)"/>
      <use xlink:href="#ArialMT-44" transform="translate(422.34375 0)"/>
      <use xlink:href="#ArialMT-55" transform="translate(477.953125 0)"/>
      <use xlink:href="#ArialMT-4c" transform="translate(511.25 0)"/>
      <use xlink:href="#ArialMT-5d" transform="translate(533.46875 0)"/>
      <use xlink:href="#ArialMT-44" transform="translate(583.46875 0)"/>
      <use xlink:href="#ArialMT-57" transform="translate(639.078125 0)"/>
      <use xlink:href="#ArialMT-4c" transform="translate(666.859375 0)"/>
      <use xlink:href="#ArialMT-52" transform="translate(689.078125 0)"/>
      <use xlink:href="#ArialMT-51" transform="translate(744.6875 0)"/>
     </g>
    </g>
    <g id="line2d_20">
     <path d="M 373.331116 162.569482 
L 383.327116 162.569482 
L 393.323116 162.569482 
" style="fill: none; stroke: #6a51a3; stroke-width: 1.2; stroke-linecap: round"/>
    </g>
    <g id="text_19">
     <!-- dv3 plane change -->
     <g style="fill: #262626" transform="translate(401.319916 166.068082) scale(0.09996 -0.09996)">
      <defs>
       <path id="ArialMT-4b" d="M 422 0 
L 422 4581 
L 984 4581 
L 984 2938 
Q 1378 3394 1978 3394 
Q 2347 3394 2619 3248 
Q 2891 3103 3008 2847 
Q 3125 2591 3125 2103 
L 3125 0 
L 2563 0 
L 2563 2103 
Q 2563 2525 2380 2717 
Q 2197 2909 1863 2909 
Q 1613 2909 1392 2779 
Q 1172 2650 1078 2428 
Q 984 2206 984 1816 
L 984 0 
L 422 0 
z
" transform="scale(0.015625)"/>
       <path id="ArialMT-4a" d="M 319 -275 
L 866 -356 
Q 900 -609 1056 -725 
Q 1266 -881 1628 -881 
Q 2019 -881 2231 -725 
Q 2444 -569 2519 -288 
Q 2563 -116 2559 434 
Q 2191 0 1641 0 
Q 956 0 581 494 
Q 206 988 206 1678 
Q 206 2153 378 2554 
Q 550 2956 876 3175 
Q 1203 3394 1644 3394 
Q 2231 3394 2613 2919 
L 2613 3319 
L 3131 3319 
L 3131 450 
Q 3131 -325 2973 -648 
Q 2816 -972 2473 -1159 
Q 2131 -1347 1631 -1347 
Q 1038 -1347 672 -1080 
Q 306 -813 319 -275 
z
M 784 1719 
Q 784 1066 1043 766 
Q 1303 466 1694 466 
Q 2081 466 2343 764 
Q 2606 1063 2606 1700 
Q 2606 2309 2336 2618 
Q 2066 2928 1684 2928 
Q 1309 2928 1046 2623 
Q 784 2319 784 1719 
z
" transform="scale(0.015625)"/>
      </defs>
      <use xlink:href="#ArialMT-47"/>
      <use xlink:href="#ArialMT-59" transform="translate(55.609375 0)"/>
      <use xlink:href="#ArialMT-16" transform="translate(105.609375 0)"/>
      <use xlink:href="#ArialMT-3" transform="translate(161.21875 0)"/>
      <use xlink:href="#ArialMT-53" transform="translate(189 0)"/>
      <use xlink:href="#ArialMT-4f" transform="translate(244.609375 0)"/>
      <use xlink:href="#ArialMT-44" transform="translate(266.828125 0)"/>
      <use xlink:href="#ArialMT-51" transform="translate(322.4375 0)"/>
      <use xlink:href="#ArialMT-48" transform="translate(378.046875 0)"/>
      <use xlink:href="#ArialMT-3" transform="translate(433.65625 0)"/>
      <use xlink:href="#ArialMT-46" transform="translate(461.4375 0)"/>
      <use xlink:href="#ArialMT-4b" transform="translate(511.4375 0)"/>
      <use xlink:href="#ArialMT-44" transform="translate(567.046875 0)"/>
      <use xlink:href="#ArialMT-51" transform="translate(622.65625 0)"/>
      <use xlink:href="#ArialMT-4a" transform="translate(678.265625 0)"/>
      <use xlink:href="#ArialMT-48" transform="translate(733.875 0)"/>
     </g>
    </g>
   </g>
  </g>
 </g>
 <defs>
  <clipPath id="paa5c3d1c80">
   <rect x="47.251719" y="21.936328" width="446.4" height="155.232"/>
  </clipPath>
 </defs>
</svg>
