<?xml version="1.0" encoding="utf-8" standalone="no"?>
<!DOCTYPE svg PUBLIC "-//W3C//DTD SVG 1.1//EN"
  "http://www.w3.org/Graphics/SVG/1.1/DTD/svg11.dtd">
<svg xmlns:xlink="http://www.w3.org/1999/xlink" width="620.666894pt" height="241.364719pt" viewBox="0 0 620.666894 241.364719" xmlns="http://www.w3.org/2000/svg" version="1.1">
 <metadata>
  <rdf:RDF xmlns:dc="http://purl.org/dc/elements/1.1/" xmlns:cc="http://creativecommons.org/ns#" xmlns:rdf="http://www.w3.org/1999/02/22-rdf-syntax-ns#">
   <cc:Work>
    <dc:type rdf:resource="http://purl.org/dc/dcmitype/StillImage"/>
    <dc:date>2026-07-03T21:41:07.333885</dc:date>
    <dc:format>image/svg+xml</dc:format>
    <dc:creator>
     <cc:Agent>
      <dc:title>Matplotlib v3.10.9, https://matplotlib.org/</dc:title>
     </cc:Agent>
    </dc:creator>
   </cc:Work>
  </rdf:RDF>
 </metadata>
 <defs>
  <style type="text/css">*{stroke-linejoin: round; stroke-linecap: butt}</style>
 </defs>
 <g id="figure_1">
  <g id="patch_1">
   <path d="M 0 241.364719 
L 620.666894 241.364719 
L 620.666894 -0 
L 0 -0 
z
" style="fill: #ffffff"/>
  </g>
  <g id="axes_1">
   <g id="patch_2">
    <path d="M 46.964375 199.343625 
L 604.964375 199.343625 
L 604.964375 21.935625 
L 46.964375 21.935625 
z
" style="fill: #f5f5f5"/>
   </g>
   <g id="matplotlib.axis_1">
    <g id="xtick_1">
     <g id="line2d_1">
      <path d="M 72.327675 199.343625 
L 72.327675 21.935625 
" clip-path="url(#pba1cda5c11)" style="fill: none; stroke: #cccccc; stroke-linecap: round"/>
     </g>
     <g id="text_1">
      <!-- 0 -->
      <g style="fill: #262626" transform="translate(69.269159 216.717219) scale(0.11 -0.11)">
       <defs>
        <path id="ArialMT-30" d="M 266 2259 
Q 266 3072 433 3567 
Q 600 4063 929 4331 
Q 1259 4600 1759 4600 
Q 2128 4600 2406 4451 
Q 2684 4303 2865 4023 
Q 3047 3744 3150 3342 
Q 3253 2941 3253 2259 
Q 3253 1453 3087 958 
Q 2922 463 2592 192 
Q 2263 -78 1759 -78 
Q 1097 -78 719 397 
Q 266 969 266 2259 
z
M 844 2259 
Q 844 1131 1108 757 
Q 1372 384 1759 384 
Q 2147 384 2411 759 
Q 2675 1134 2675 2259 
Q 2675 3391 2411 3762 
Q 2147 4134 1753 4134 
Q 1366 4134 1134 3806 
Q 844 3388 844 2259 
z
" transform="scale(0.015625)"/>
       </defs>
       <use xlink:href="#ArialMT-30"/>
      </g>
     </g>
    </g>
    <g id="xtick_2">
     <g id="line2d_2">
      <path d="M 148.322485 199.343625 
L 148.322485 21.935625 
" clip-path="url(#pba1cda5c11)" style="fill: none; stroke: #cccccc; stroke-linecap: round"/>
     </g>
     <g id="text_2">
      <!-- 50 -->
      <g style="fill: #262626" transform="translate(142.205454 216.717219) scale(0.11 -0.11)">
       <defs>
        <path id="ArialMT-35" d="M 266 1200 
L 856 1250 
Q 922 819 1161 601 
Q 1400 384 1738 384 
Q 2144 384 2425 690 
Q 2706 997 2706 1503 
Q 2706 1984 2436 2262 
Q 2166 2541 1728 2541 
Q 1456 2541 1237 2417 
Q 1019 2294 894 2097 
L 366 2166 
L 809 4519 
L 3088 4519 
L 3088 3981 
L 1259 3981 
L 1013 2750 
Q 1425 3038 1878 3038 
Q 2478 3038 2890 2622 
Q 3303 2206 3303 1553 
Q 3303 931 2941 478 
Q 2500 -78 1738 -78 
Q 1113 -78 717 272 
Q 322 622 266 1200 
z
" transform="scale(0.015625)"/>
       </defs>
       <use xlink:href="#ArialMT-35"/>
       <use xlink:href="#ArialMT-30" transform="translate(55.615234 0)"/>
      </g>
     </g>
    </g>
    <g id="xtick_3">
     <g id="line2d_3">
      <path d="M 224.317296 199.343625 
L 224.317296 21.935625 
" clip-path="url(#pba1cda5c11)" style="fill: none; stroke: #cccccc; stroke-linecap: round"/>
     </g>
     <g id="text_3">
      <!-- 100 -->
      <g style="fill: #262626" transform="translate(215.141749 216.717219) scale(0.11 -0.11)">
       <defs>
        <path id="ArialMT-31" d="M 2384 0 
L 1822 0 
L 1822 3584 
Q 1619 3391 1289 3197 
Q 959 3003 697 2906 
L 697 3450 
Q 1169 3672 1522 3987 
Q 1875 4303 2022 4600 
L 2384 4600 
L 2384 0 
z
" transform="scale(0.015625)"/>
       </defs>
       <use xlink:href="#ArialMT-31"/>
       <use xlink:href="#ArialMT-30" transform="translate(55.615234 0)"/>
       <use xlink:href="#ArialMT-30" transform="translate(111.230469 0)"/>
      </g>
     </g>
    </g>
    <g id="xtick_4">
     <g id="line2d_4">
      <path d="M 300.312106 199.343625 
L 300.312106 21.935625 
" clip-path="url(#pba1cda5c11)" style="fill: none; stroke: #cccccc; stroke-linecap: round"/>
     </g>
     <g id="text_4">
      <!-- 150 -->
      <g style="fill: #262626" transform="translate(291.136559 216.717219) scale(0.11 -0.11)">
       <use xlink:href="#ArialMT-31"/>
       <use xlink:href="#ArialMT-35" transform="translate(55.615234 0)"/>
       <use xlink:href="#ArialMT-30" transform="translate(111.230469 0)"/>
      </g>
     </g>
    </g>
    <g id="xtick_5">
     <g id="line2d_5">
      <path d="M 376.306916 199.343625 
L 376.306916 21.935625 
" clip-path="url(#pba1cda5c11)" style="fill: none; stroke: #cccccc; stroke-linecap: round"/>
     </g>
     <g id="text_5">
      <!-- 200 -->
      <g style="fill: #262626" transform="translate(367.131369 216.717219) scale(0.11 -0.11)">
       <defs>
        <path id="ArialMT-32" d="M 3222 541 
L 3222 0 
L 194 0 
Q 188 203 259 391 
Q 375 700 629 1000 
Q 884 1300 1366 1694 
Q 2113 2306 2375 2664 
Q 2638 3022 2638 3341 
Q 2638 3675 2398 3904 
Q 2159 4134 1775 4134 
Q 1369 4134 1125 3890 
Q 881 3647 878 3216 
L 300 3275 
Q 359 3922 746 4261 
Q 1134 4600 1788 4600 
Q 2447 4600 2831 4234 
Q 3216 3869 3216 3328 
Q 3216 3053 3103 2787 
Q 2991 2522 2730 2228 
Q 2469 1934 1863 1422 
Q 1356 997 1212 845 
Q 1069 694 975 541 
L 3222 541 
z
" transform="scale(0.015625)"/>
       </defs>
       <use xlink:href="#ArialMT-32"/>
       <use xlink:href="#ArialMT-30" transform="translate(55.615234 0)"/>
       <use xlink:href="#ArialMT-30" transform="translate(111.230469 0)"/>
      </g>
     </g>
    </g>
    <g id="xtick_6">
     <g id="line2d_6">
      <path d="M 452.301727 199.343625 
L 452.301727 21.935625 
" clip-path="url(#pba1cda5c11)" style="fill: none; stroke: #cccccc; stroke-linecap: round"/>
     </g>
     <g id="text_6">
      <!-- 250 -->
      <g style="fill: #262626" transform="translate(443.12618 216.717219) scale(0.11 -0.11)">
       <use xlink:href="#ArialMT-32"/>
       <use xlink:href="#ArialMT-35" transform="translate(55.615234 0)"/>
       <use xlink:href="#ArialMT-30" transform="translate(111.230469 0)"/>
      </g>
     </g>
    </g>
    <g id="xtick_7">
     <g id="line2d_7">
      <path d="M 528.296537 199.343625 
L 528.296537 21.935625 
" clip-path="url(#pba1cda5c11)" style="fill: none; stroke: #cccccc; stroke-linecap: round"/>
     </g>
     <g id="text_7">
      <!-- 300 -->
      <g style="fill: #262626" transform="translate(519.12099 216.717219) scale(0.11 -0.11)">
       <defs>
        <path id="ArialMT-33" d="M 269 1209 
L 831 1284 
Q 928 806 1161 595 
Q 1394 384 1728 384 
Q 2125 384 2398 659 
Q 2672 934 2672 1341 
Q 2672 1728 2419 1979 
Q 2166 2231 1775 2231 
Q 1616 2231 1378 2169 
L 1441 2663 
Q 1497 2656 1531 2656 
Q 1891 2656 2178 2843 
Q 2466 3031 2466 3422 
Q 2466 3731 2256 3934 
Q 2047 4138 1716 4138 
Q 1388 4138 1169 3931 
Q 950 3725 888 3313 
L 325 3413 
Q 428 3978 793 4289 
Q 1159 4600 1703 4600 
Q 2078 4600 2393 4439 
Q 2709 4278 2876 4000 
Q 3044 3722 3044 3409 
Q 3044 3113 2884 2869 
Q 2725 2625 2413 2481 
Q 2819 2388 3044 2092 
Q 3269 1797 3269 1353 
Q 3269 753 2831 336 
Q 2394 -81 1725 -81 
Q 1122 -81 723 278 
Q 325 638 269 1209 
z
" transform="scale(0.015625)"/>
       </defs>
       <use xlink:href="#ArialMT-33"/>
       <use xlink:href="#ArialMT-30" transform="translate(55.615234 0)"/>
       <use xlink:href="#ArialMT-30" transform="translate(111.230469 0)"/>
      </g>
     </g>
    </g>
    <g id="xtick_8">
     <g id="line2d_8">
      <path d="M 604.291347 199.343625 
L 604.291347 21.935625 
" clip-path="url(#pba1cda5c11)" style="fill: none; stroke: #cccccc; stroke-linecap: round"/>
     </g>
     <g id="text_8">
      <!-- 350 -->
      <g style="fill: #262626" transform="translate(595.1158 216.717219) scale(0.11 -0.11)">
       <use xlink:href="#ArialMT-33"/>
       <use xlink:href="#ArialMT-35" transform="translate(55.615234 0)"/>
       <use xlink:href="#ArialMT-30" transform="translate(111.230469 0)"/>
      </g>
     </g>
    </g>
    <g id="text_9">
     <!-- correction Δv (m/s) -->
     <g style="fill: #262626" transform="translate(275.950625 231.639094) scale(0.12 -0.12)">
      <defs>
       <path id="ArialMT-63" d="M 2588 1216 
L 3141 1144 
Q 3050 572 2676 248 
Q 2303 -75 1759 -75 
Q 1078 -75 664 370 
Q 250 816 250 1647 
Q 250 2184 428 2587 
Q 606 2991 970 3192 
Q 1334 3394 1763 3394 
Q 2303 3394 2647 3120 
Q 2991 2847 3088 2344 
L 2541 2259 
Q 2463 2594 2264 2762 
Q 2066 2931 1784 2931 
Q 1359 2931 1093 2626 
Q 828 2322 828 1663 
Q 828 994 1084 691 
Q 1341 388 1753 388 
Q 2084 388 2306 591 
Q 2528 794 2588 1216 
z
" transform="scale(0.015625)"/>
       <path id="ArialMT-6f" d="M 213 1659 
Q 213 2581 725 3025 
Q 1153 3394 1769 3394 
Q 2453 3394 2887 2945 
Q 3322 2497 3322 1706 
Q 3322 1066 3130 698 
Q 2938 331 2570 128 
Q 2203 -75 1769 -75 
Q 1072 -75 642 372 
Q 213 819 213 1659 
z
M 791 1659 
Q 791 1022 1069 705 
Q 1347 388 1769 388 
Q 2188 388 2466 706 
Q 2744 1025 2744 1678 
Q 2744 2294 2464 2611 
Q 2184 2928 1769 2928 
Q 1347 2928 1069 2612 
Q 791 2297 791 1659 
z
" transform="scale(0.015625)"/>
       <path id="ArialMT-72" d="M 416 0 
L 416 3319 
L 922 3319 
L 922 2816 
Q 1116 3169 1280 3281 
Q 1444 3394 1641 3394 
Q 1925 3394 2219 3213 
L 2025 2691 
Q 1819 2813 1613 2813 
Q 1428 2813 1281 2702 
Q 1134 2591 1072 2394 
Q 978 2094 978 1738 
L 978 0 
L 416 0 
z
" transform="scale(0.015625)"/>
       <path id="ArialMT-65" d="M 2694 1069 
L 3275 997 
Q 3138 488 2766 206 
Q 2394 -75 1816 -75 
Q 1088 -75 661 373 
Q 234 822 234 1631 
Q 234 2469 665 2931 
Q 1097 3394 1784 3394 
Q 2450 3394 2872 2941 
Q 3294 2488 3294 1666 
Q 3294 1616 3291 1516 
L 816 1516 
Q 847 969 1125 678 
Q 1403 388 1819 388 
Q 2128 388 2347 550 
Q 2566 713 2694 1069 
z
M 847 1978 
L 2700 1978 
Q 2663 2397 2488 2606 
Q 2219 2931 1791 2931 
Q 1403 2931 1139 2672 
Q 875 2413 847 1978 
z
" transform="scale(0.015625)"/>
       <path id="ArialMT-74" d="M 1650 503 
L 1731 6 
Q 1494 -44 1306 -44 
Q 1000 -44 831 53 
Q 663 150 594 308 
Q 525 466 525 972 
L 525 2881 
L 113 2881 
L 113 3319 
L 525 3319 
L 525 4141 
L 1084 4478 
L 1084 3319 
L 1650 3319 
L 1650 2881 
L 1084 2881 
L 1084 941 
Q 1084 700 1114 631 
Q 1144 563 1211 522 
Q 1278 481 1403 481 
Q 1497 481 1650 503 
z
" transform="scale(0.015625)"/>
       <path id="ArialMT-69" d="M 425 3934 
L 425 4581 
L 988 4581 
L 988 3934 
L 425 3934 
z
M 425 0 
L 425 3319 
L 988 3319 
L 988 0 
L 425 0 
z
" transform="scale(0.015625)"/>
       <path id="ArialMT-6e" d="M 422 0 
L 422 3319 
L 928 3319 
L 928 2847 
Q 1294 3394 1984 3394 
Q 2284 3394 2536 3286 
Q 2788 3178 2913 3003 
Q 3038 2828 3088 2588 
Q 3119 2431 3119 2041 
L 3119 0 
L 2556 0 
L 2556 2019 
Q 2556 2363 2490 2533 
Q 2425 2703 2258 2804 
Q 2091 2906 1866 2906 
Q 1506 2906 1245 2678 
Q 984 2450 984 1813 
L 984 0 
L 422 0 
z
" transform="scale(0.015625)"/>
       <path id="ArialMT-20" transform="scale(0.015625)"/>
       <path id="ArialMT-394" d="M -6 0 
L 1753 4581 
L 2406 4581 
L 4281 0 
L -6 0 
z
M 834 541 
L 3381 541 
L 2391 3150 
Q 2169 3738 2066 4100 
Q 1981 3675 1819 3225 
L 834 541 
z
" transform="scale(0.015625)"/>
       <path id="ArialMT-76" d="M 1344 0 
L 81 3319 
L 675 3319 
L 1388 1331 
Q 1503 1009 1600 663 
Q 1675 925 1809 1294 
L 2547 3319 
L 3125 3319 
L 1869 0 
L 1344 0 
z
" transform="scale(0.015625)"/>
       <path id="ArialMT-28" d="M 1497 -1347 
Q 1031 -759 709 28 
Q 388 816 388 1659 
Q 388 2403 628 3084 
Q 909 3875 1497 4659 
L 1900 4659 
Q 1522 4009 1400 3731 
Q 1209 3300 1100 2831 
Q 966 2247 966 1656 
Q 966 153 1900 -1347 
L 1497 -1347 
z
" transform="scale(0.015625)"/>
       <path id="ArialMT-6d" d="M 422 0 
L 422 3319 
L 925 3319 
L 925 2853 
Q 1081 3097 1340 3245 
Q 1600 3394 1931 3394 
Q 2300 3394 2536 3241 
Q 2772 3088 2869 2813 
Q 3263 3394 3894 3394 
Q 4388 3394 4653 3120 
Q 4919 2847 4919 2278 
L 4919 0 
L 4359 0 
L 4359 2091 
Q 4359 2428 4304 2576 
Q 4250 2725 4106 2815 
Q 3963 2906 3769 2906 
Q 3419 2906 3187 2673 
Q 2956 2441 2956 1928 
L 2956 0 
L 2394 0 
L 2394 2156 
Q 2394 2531 2256 2718 
Q 2119 2906 1806 2906 
Q 1569 2906 1367 2781 
Q 1166 2656 1075 2415 
Q 984 2175 984 1722 
L 984 0 
L 422 0 
z
" transform="scale(0.015625)"/>
       <path id="ArialMT-2f" d="M 0 -78 
L 1328 4659 
L 1778 4659 
L 453 -78 
L 0 -78 
z
" transform="scale(0.015625)"/>
       <path id="ArialMT-73" d="M 197 991 
L 753 1078 
Q 800 744 1014 566 
Q 1228 388 1613 388 
Q 2000 388 2187 545 
Q 2375 703 2375 916 
Q 2375 1106 2209 1216 
Q 2094 1291 1634 1406 
Q 1016 1563 777 1677 
Q 538 1791 414 1992 
Q 291 2194 291 2438 
Q 291 2659 392 2848 
Q 494 3038 669 3163 
Q 800 3259 1026 3326 
Q 1253 3394 1513 3394 
Q 1903 3394 2198 3281 
Q 2494 3169 2634 2976 
Q 2775 2784 2828 2463 
L 2278 2388 
Q 2241 2644 2061 2787 
Q 1881 2931 1553 2931 
Q 1166 2931 1000 2803 
Q 834 2675 834 2503 
Q 834 2394 903 2306 
Q 972 2216 1119 2156 
Q 1203 2125 1616 2013 
Q 2213 1853 2448 1751 
Q 2684 1650 2818 1456 
Q 2953 1263 2953 975 
Q 2953 694 2789 445 
Q 2625 197 2315 61 
Q 2006 -75 1616 -75 
Q 969 -75 630 194 
Q 291 463 197 991 
z
" transform="scale(0.015625)"/>
       <path id="ArialMT-29" d="M 791 -1347 
L 388 -1347 
Q 1322 153 1322 1656 
Q 1322 2244 1188 2822 
Q 1081 3291 891 3722 
Q 769 4003 388 4659 
L 791 4659 
Q 1378 3875 1659 3084 
Q 1900 2403 1900 1659 
Q 1900 816 1576 28 
Q 1253 -759 791 -1347 
z
" transform="scale(0.015625)"/>
      </defs>
      <use xlink:href="#ArialMT-63"/>
      <use xlink:href="#ArialMT-6f" transform="translate(50 0)"/>
      <use xlink:href="#ArialMT-72" transform="translate(105.615234 0)"/>
      <use xlink:href="#ArialMT-72" transform="translate(138.916016 0)"/>
      <use xlink:href="#ArialMT-65" transform="translate(172.216797 0)"/>
      <use xlink:href="#ArialMT-63" transform="translate(227.832031 0)"/>
      <use xlink:href="#ArialMT-74" transform="translate(277.832031 0)"/>
      <use xlink:href="#ArialMT-69" transform="translate(305.615234 0)"/>
      <use xlink:href="#ArialMT-6f" transform="translate(327.832031 0)"/>
      <use xlink:href="#ArialMT-6e" transform="translate(383.447266 0)"/>
      <use xlink:href="#ArialMT-20" transform="translate(439.0625 0)"/>
      <use xlink:href="#ArialMT-394" transform="translate(461.345703 0)"/>
      <use xlink:href="#ArialMT-76" transform="translate(528.142578 0)"/>
      <use xlink:href="#ArialMT-20" transform="translate(578.142578 0)"/>
      <use xlink:href="#ArialMT-28" transform="translate(605.925781 0)"/>
      <use xlink:href="#ArialMT-6d" transform="translate(639.226562 0)"/>
      <use xlink:href="#ArialMT-2f" transform="translate(722.527344 0)"/>
      <use xlink:href="#ArialMT-73" transform="translate(750.310547 0)"/>
      <use xlink:href="#ArialMT-29" transform="translate(800.310547 0)"/>
     </g>
    </g>
   </g>
   <g id="matplotlib.axis_2">
    <g id="ytick_1">
     <g id="line2d_9">
      <path d="M 46.964375 199.343625 
L 604.964375 199.343625 
" clip-path="url(#pba1cda5c11)" style="fill: none; stroke: #cccccc; stroke-linecap: round"/>
     </g>
     <g id="text_10">
      <!-- 0.0 -->
      <g style="fill: #262626" transform="translate(22.174375 203.280422) scale(0.11 -0.11)">
       <defs>
        <path id="ArialMT-2e" d="M 581 0 
L 581 641 
L 1222 641 
L 1222 0 
L 581 0 
z
" transform="scale(0.015625)"/>
       </defs>
       <use xlink:href="#ArialMT-30"/>
       <use xlink:href="#ArialMT-2e" transform="translate(55.615234 0)"/>
       <use xlink:href="#ArialMT-30" transform="translate(83.398438 0)"/>
      </g>
     </g>
    </g>
    <g id="ytick_2">
     <g id="line2d_10">
      <path d="M 46.964375 163.862025 
L 604.964375 163.862025 
" clip-path="url(#pba1cda5c11)" style="fill: none; stroke: #cccccc; stroke-linecap: round"/>
     </g>
     <g id="text_11">
      <!-- 0.2 -->
      <g style="fill: #262626" transform="translate(22.174375 167.798822) scale(0.11 -0.11)">
       <use xlink:href="#ArialMT-30"/>
       <use xlink:href="#ArialMT-2e" transform="translate(55.615234 0)"/>
       <use xlink:href="#ArialMT-32" transform="translate(83.398438 0)"/>
      </g>
     </g>
    </g>
    <g id="ytick_3">
     <g id="line2d_11">
      <path d="M 46.964375 128.380425 
L 604.964375 128.380425 
" clip-path="url(#pba1cda5c11)" style="fill: none; stroke: #cccccc; stroke-linecap: round"/>
     </g>
     <g id="text_12">
      <!-- 0.4 -->
      <g style="fill: #262626" transform="translate(22.174375 132.317222) scale(0.11 -0.11)">
       <defs>
        <path id="ArialMT-34" d="M 2069 0 
L 2069 1097 
L 81 1097 
L 81 1613 
L 2172 4581 
L 2631 4581 
L 2631 1613 
L 3250 1613 
L 3250 1097 
L 2631 1097 
L 2631 0 
L 2069 0 
z
M 2069 1613 
L 2069 3678 
L 634 1613 
L 2069 1613 
z
" transform="scale(0.015625)"/>
       </defs>
       <use xlink:href="#ArialMT-30"/>
       <use xlink:href="#ArialMT-2e" transform="translate(55.615234 0)"/>
       <use xlink:href="#ArialMT-34" transform="translate(83.398438 0)"/>
      </g>
     </g>
    </g>
    <g id="ytick_4">
     <g id="line2d_12">
      <path d="M 46.964375 92.898825 
L 604.964375 92.898825 
" clip-path="url(#pba1cda5c11)" style="fill: none; stroke: #cccccc; stroke-linecap: round"/>
     </g>
     <g id="text_13">
      <!-- 0.6 -->
      <g style="fill: #262626" transform="translate(22.174375 96.835622) scale(0.11 -0.11)">
       <defs>
        <path id="ArialMT-36" d="M 3184 3459 
L 2625 3416 
Q 2550 3747 2413 3897 
Q 2184 4138 1850 4138 
Q 1581 4138 1378 3988 
Q 1113 3794 959 3422 
Q 806 3050 800 2363 
Q 1003 2672 1297 2822 
Q 1591 2972 1913 2972 
Q 2475 2972 2870 2558 
Q 3266 2144 3266 1488 
Q 3266 1056 3080 686 
Q 2894 316 2569 119 
Q 2244 -78 1831 -78 
Q 1128 -78 684 439 
Q 241 956 241 2144 
Q 241 3472 731 4075 
Q 1159 4600 1884 4600 
Q 2425 4600 2770 4297 
Q 3116 3994 3184 3459 
z
M 888 1484 
Q 888 1194 1011 928 
Q 1134 663 1356 523 
Q 1578 384 1822 384 
Q 2178 384 2434 671 
Q 2691 959 2691 1453 
Q 2691 1928 2437 2201 
Q 2184 2475 1800 2475 
Q 1419 2475 1153 2201 
Q 888 1928 888 1484 
z
" transform="scale(0.015625)"/>
       </defs>
       <use xlink:href="#ArialMT-30"/>
       <use xlink:href="#ArialMT-2e" transform="translate(55.615234 0)"/>
       <use xlink:href="#ArialMT-36" transform="translate(83.398438 0)"/>
      </g>
     </g>
    </g>
    <g id="ytick_5">
     <g id="line2d_13">
      <path d="M 46.964375 57.417225 
L 604.964375 57.417225 
" clip-path="url(#pba1cda5c11)" style="fill: none; stroke: #cccccc; stroke-linecap: round"/>
     </g>
     <g id="text_14">
      <!-- 0.8 -->
      <g style="fill: #262626" transform="translate(22.174375 61.354022) scale(0.11 -0.11)">
       <defs>
        <path id="ArialMT-38" d="M 1131 2484 
Q 781 2613 612 2850 
Q 444 3088 444 3419 
Q 444 3919 803 4259 
Q 1163 4600 1759 4600 
Q 2359 4600 2725 4251 
Q 3091 3903 3091 3403 
Q 3091 3084 2923 2848 
Q 2756 2613 2416 2484 
Q 2838 2347 3058 2040 
Q 3278 1734 3278 1309 
Q 3278 722 2862 322 
Q 2447 -78 1769 -78 
Q 1091 -78 675 323 
Q 259 725 259 1325 
Q 259 1772 486 2073 
Q 713 2375 1131 2484 
z
M 1019 3438 
Q 1019 3113 1228 2906 
Q 1438 2700 1772 2700 
Q 2097 2700 2305 2904 
Q 2513 3109 2513 3406 
Q 2513 3716 2298 3927 
Q 2084 4138 1766 4138 
Q 1444 4138 1231 3931 
Q 1019 3725 1019 3438 
z
M 838 1322 
Q 838 1081 952 856 
Q 1066 631 1291 507 
Q 1516 384 1775 384 
Q 2178 384 2440 643 
Q 2703 903 2703 1303 
Q 2703 1709 2433 1975 
Q 2163 2241 1756 2241 
Q 1359 2241 1098 1978 
Q 838 1716 838 1322 
z
" transform="scale(0.015625)"/>
       </defs>
       <use xlink:href="#ArialMT-30"/>
       <use xlink:href="#ArialMT-2e" transform="translate(55.615234 0)"/>
       <use xlink:href="#ArialMT-38" transform="translate(83.398438 0)"/>
      </g>
     </g>
    </g>
    <g id="ytick_6">
     <g id="line2d_14">
      <path d="M 46.964375 21.935625 
L 604.964375 21.935625 
" clip-path="url(#pba1cda5c11)" style="fill: none; stroke: #cccccc; stroke-linecap: round"/>
     </g>
     <g id="text_15">
      <!-- 1.0 -->
      <g style="fill: #262626" transform="translate(22.174375 25.872422) scale(0.11 -0.11)">
       <use xlink:href="#ArialMT-31"/>
       <use xlink:href="#ArialMT-2e" transform="translate(55.615234 0)"/>
       <use xlink:href="#ArialMT-30" transform="translate(83.398438 0)"/>
      </g>
     </g>
    </g>
    <g id="text_16">
     <!-- cumulative fraction -->
     <g style="fill: #262626" transform="translate(15.789375 160.658062) rotate(-90) scale(0.12 -0.12)">
      <defs>
       <path id="ArialMT-75" d="M 2597 0 
L 2597 488 
Q 2209 -75 1544 -75 
Q 1250 -75 995 37 
Q 741 150 617 320 
Q 494 491 444 738 
Q 409 903 409 1263 
L 409 3319 
L 972 3319 
L 972 1478 
Q 972 1038 1006 884 
Q 1059 663 1231 536 
Q 1403 409 1656 409 
Q 1909 409 2131 539 
Q 2353 669 2445 892 
Q 2538 1116 2538 1541 
L 2538 3319 
L 3100 3319 
L 3100 0 
L 2597 0 
z
" transform="scale(0.015625)"/>
       <path id="ArialMT-6c" d="M 409 0 
L 409 4581 
L 972 4581 
L 972 0 
L 409 0 
z
" transform="scale(0.015625)"/>
       <path id="ArialMT-61" d="M 2588 409 
Q 2275 144 1986 34 
Q 1697 -75 1366 -75 
Q 819 -75 525 192 
Q 231 459 231 875 
Q 231 1119 342 1320 
Q 453 1522 633 1644 
Q 813 1766 1038 1828 
Q 1203 1872 1538 1913 
Q 2219 1994 2541 2106 
Q 2544 2222 2544 2253 
Q 2544 2597 2384 2738 
Q 2169 2928 1744 2928 
Q 1347 2928 1158 2789 
Q 969 2650 878 2297 
L 328 2372 
Q 403 2725 575 2942 
Q 747 3159 1072 3276 
Q 1397 3394 1825 3394 
Q 2250 3394 2515 3294 
Q 2781 3194 2906 3042 
Q 3031 2891 3081 2659 
Q 3109 2516 3109 2141 
L 3109 1391 
Q 3109 606 3145 398 
Q 3181 191 3288 0 
L 2700 0 
Q 2613 175 2588 409 
z
M 2541 1666 
Q 2234 1541 1622 1453 
Q 1275 1403 1131 1340 
Q 988 1278 909 1158 
Q 831 1038 831 891 
Q 831 666 1001 516 
Q 1172 366 1500 366 
Q 1825 366 2078 508 
Q 2331 650 2450 897 
Q 2541 1088 2541 1459 
L 2541 1666 
z
" transform="scale(0.015625)"/>
       <path id="ArialMT-66" d="M 556 0 
L 556 2881 
L 59 2881 
L 59 3319 
L 556 3319 
L 556 3672 
Q 556 4006 616 4169 
Q 697 4388 901 4523 
Q 1106 4659 1475 4659 
Q 1713 4659 2000 4603 
L 1916 4113 
Q 1741 4144 1584 4144 
Q 1328 4144 1222 4034 
Q 1116 3925 1116 3625 
L 1116 3319 
L 1763 3319 
L 1763 2881 
L 1116 2881 
L 1116 0 
L 556 0 
z
" transform="scale(0.015625)"/>
      </defs>
      <use xlink:href="#ArialMT-63"/>
      <use xlink:href="#ArialMT-75" transform="translate(50 0)"/>
      <use xlink:href="#ArialMT-6d" transform="translate(105.615234 0)"/>
      <use xlink:href="#ArialMT-75" transform="translate(188.916016 0)"/>
      <use xlink:href="#ArialMT-6c" transform="translate(244.53125 0)"/>
      <use xlink:href="#ArialMT-61" transform="translate(266.748047 0)"/>
      <use xlink:href="#ArialMT-74" transform="translate(322.363281 0)"/>
      <use xlink:href="#ArialMT-69" transform="translate(350.146484 0)"/>
      <use xlink:href="#ArialMT-76" transform="translate(372.363281 0)"/>
      <use xlink:href="#ArialMT-65" transform="translate(422.363281 0)"/>
      <use xlink:href="#ArialMT-20" transform="translate(477.978516 0)"/>
      <use xlink:href="#ArialMT-66" transform="translate(505.761719 0)"/>
      <use xlink:href="#ArialMT-72" transform="translate(533.544922 0)"/>
      <use xlink:href="#ArialMT-61" transform="translate(566.845703 0)"/>
      <use xlink:href="#ArialMT-63" transform="translate(622.460938 0)"/>
      <use xlink:href="#ArialMT-74" transform="translate(672.460938 0)"/>
      <use xlink:href="#ArialMT-69" transform="translate(700.244141 0)"/>
      <use xlink:href="#ArialMT-6f" transform="translate(722.460938 0)"/>
      <use xlink:href="#ArialMT-6e" transform="translate(778.076172 0)"/>
     </g>
    </g>
   </g>
   <g id="line2d_15">
    <path d="M 258.084128 199.166217 
L 259.225265 198.988809 
L 259.634777 198.633993 
L 259.791997 198.279177 
L 259.961136 198.101769 
L 261.598591 197.392137 
L 261.72998 197.037321 
L 262.212324 196.859913 
L 262.564561 196.327689 
L 262.74177 196.150281 
L 262.850087 195.795465 
L 263.234243 195.618057 
L 263.49641 195.263241 
L 264.001096 194.908425 
L 264.156389 194.376201 
L 264.902428 194.021385 
L 264.969955 193.489161 
L 265.617324 191.892489 
L 265.644705 191.715081 
L 265.906814 191.360265 
L 266.052447 190.828041 
L 266.067441 190.650633 
L 266.426813 190.295817 
L 266.532244 189.941001 
L 266.776718 189.763593 
L 266.979476 188.876553 
L 267.213981 188.344329 
L 267.293872 187.812105 
L 267.442293 186.925065 
L 267.855039 185.150985 
L 267.926608 184.796169 
L 268.05756 184.263945 
L 268.058226 184.086537 
L 268.278039 183.731721 
L 268.33943 183.376905 
L 268.520368 183.022089 
L 268.563377 182.489865 
L 268.727184 182.135049 
L 268.770893 181.602825 
L 269.072597 181.425417 
L 269.147102 181.070601 
L 269.318087 180.893193 
L 269.442218 180.360969 
L 270.620081 177.522441 
L 270.762779 177.167625 
L 271.23946 176.990217 
L 271.356144 176.635401 
L 271.477143 175.748361 
L 271.662729 175.216137 
L 271.761575 174.683913 
L 272.055303 173.974281 
L 272.24856 173.087241 
L 272.483651 172.732425 
L 273.146365 170.603529 
L 273.2955 170.071305 
L 273.420631 169.716489 
L 273.531144 168.474633 
L 273.647915 167.942409 
L 274.25018 167.410185 
L 274.373966 166.877961 
L 274.749175 166.168329 
L 275.36387 163.684617 
L 275.469221 163.152393 
L 275.54625 162.620169 
L 275.912787 162.087945 
L 276.011736 161.378313 
L 276.08605 161.023497 
L 276.162029 160.313865 
L 276.393358 159.781641 
L 276.546559 159.072009 
L 276.608087 158.717193 
L 276.835819 158.362377 
L 277.032193 156.943113 
L 277.993291 153.749769 
L 278.01244 153.217545 
L 278.171981 152.862729 
L 278.672094 150.556425 
L 279.176003 148.959753 
L 279.32133 147.717897 
L 279.547721 146.830857 
L 279.639515 146.121225 
L 279.67346 145.943817 
L 279.912319 145.766409 
L 280.145882 144.524553 
L 280.230642 143.992329 
L 280.329134 143.460105 
L 280.677797 141.863433 
L 280.8053 141.508617 
L 281.365291 138.315273 
L 281.467948 137.250825 
L 281.677165 136.896009 
L 282.245966 134.944521 
L 282.383112 134.412297 
L 282.427649 134.234889 
L 282.908152 133.702665 
L 283.13844 132.638217 
L 283.260423 132.283401 
L 283.401729 131.573769 
L 283.701844 131.041545 
L 283.878217 129.799689 
L 284.048545 129.267465 
L 284.403793 128.203017 
L 284.604468 127.848201 
L 284.713333 126.961161 
L 284.998744 126.428937 
L 285.178547 126.251529 
L 285.316744 125.364489 
L 285.904269 123.058185 
L 286.103665 122.703369 
L 286.127344 122.348553 
L 286.341638 121.993737 
L 286.414911 121.816329 
L 286.622819 121.638921 
L 286.803924 120.751881 
L 286.885619 120.397065 
L 287.115321 119.155209 
L 287.275502 118.622985 
L 288.172041 115.784457 
L 288.330725 115.252233 
L 288.50175 114.897417 
L 288.723107 113.655561 
L 289.161058 112.413705 
L 289.415159 112.058889 
L 289.46233 111.526665 
L 289.753474 111.349257 
L 290.241518 108.688137 
L 290.362299 108.333321 
L 290.875314 106.381833 
L 291.056031 106.204425 
L 291.196199 105.317385 
L 291.366254 104.962569 
L 291.494061 104.430345 
L 291.74428 104.075529 
L 291.830535 103.543305 
L 292.708312 100.704777 
L 292.977214 100.527369 
L 293.383176 98.398473 
L 293.960411 96.801801 
L 294.07011 96.092169 
L 294.164248 95.737353 
L 294.534104 95.382537 
L 294.611463 95.027721 
L 294.869967 94.495497 
L 295.256024 92.898825 
L 295.451375 92.011785 
L 295.681481 91.656969 
L 295.895425 90.769929 
L 296.255784 88.463625 
L 296.364324 88.108809 
L 296.552725 87.753993 
L 297.372456 84.560649 
L 297.459743 83.673609 
L 297.896561 82.963977 
L 298.008992 82.254345 
L 298.403659 81.722121 
L 298.56325 80.835081 
L 298.725584 80.302857 
L 298.862458 79.238409 
L 299.035259 78.883593 
L 299.166368 77.819145 
L 299.290112 77.464329 
L 299.330102 77.109513 
L 299.543767 76.932105 
L 299.660766 76.222473 
L 299.970806 76.045065 
L 300.190927 74.980617 
L 300.319279 74.448393 
L 300.466656 74.093577 
L 300.609385 73.561353 
L 300.857952 71.964681 
L 301.065104 71.787273 
L 301.164068 71.432457 
L 301.557372 70.368009 
L 302.14103 69.303561 
L 302.256181 68.948745 
L 302.476358 68.061705 
L 302.957681 66.287625 
L 303.420135 66.110217 
L 303.869428 65.045769 
L 304.048641 64.690953 
L 304.209049 63.981321 
L 304.317816 63.094281 
L 304.708849 61.675017 
L 304.900516 60.965385 
L 305.053177 60.433161 
L 305.232365 59.546121 
L 305.754187 59.013897 
L 305.974797 57.949449 
L 306.330678 57.594633 
L 306.502427 57.239817 
L 306.736642 56.885001 
L 307.07437 56.175369 
L 307.196907 55.643145 
L 307.783812 54.578697 
L 307.856875 54.223881 
L 308.682128 52.094985 
L 308.862589 51.740169 
L 308.897879 51.385353 
L 309.324037 51.030537 
L 309.491387 50.320905 
L 311.980233 44.289033 
L 312.06807 43.756809 
L 312.319438 43.401993 
L 312.373171 43.224585 
L 313.055034 42.514953 
L 313.776508 41.273097 
L 314.720213 40.386057 
L 315.07309 39.853833 
L 315.561119 39.321609 
L 315.745012 38.611977 
L 316.0764 38.079753 
L 316.338165 37.724937 
L 316.508195 37.370121 
L 316.726822 37.192713 
L 316.946746 36.305673 
L 317.141328 36.128265 
L 317.288877 35.773449 
L 317.491822 35.241225 
L 317.769734 34.886409 
L 317.831774 34.709001 
L 318.750911 33.821961 
L 319.056189 33.467145 
L 319.698451 32.934921 
L 319.790844 32.402697 
L 320.117494 32.225289 
L 320.184033 32.047881 
L 320.44265 31.693065 
L 320.602392 31.515657 
L 321.342286 31.160841 
L 321.369602 30.983433 
L 322.426555 30.451209 
L 323.647263 28.854537 
L 323.98114 28.677129 
L 324.612167 28.499721 
L 325.24221 27.612681 
L 326.333379 27.257865 
L 326.542308 26.903049 
L 327.580596 26.725641 
L 327.646961 26.548233 
L 328.114046 26.193417 
L 328.427228 25.838601 
L 329.707727 25.306377 
L 330.664708 25.128969 
L 330.828757 24.596745 
L 331.145842 24.419337 
L 336.65177 23.532297 
L 336.658006 23.354889 
L 336.777912 23.177481 
L 341.599819 22.822665 
L 341.625324 22.645257 
L 345.199025 22.290441 
L 367.751786 22.113033 
L 579.600739 21.935625 
L 579.600739 21.935625 
" clip-path="url(#pba1cda5c11)" style="fill: none; stroke: #111111; stroke-width: 2; stroke-linecap: round"/>
   </g>
   <g id="line2d_16">
    <path d="M 244.087481 199.166217 
L 247.814349 198.811401 
L 248.475236 197.924361 
L 248.803122 197.569545 
L 249.792607 197.037321 
L 249.836811 196.859913 
L 250.190419 196.682505 
L 250.246902 196.327689 
L 250.886027 195.085833 
L 251.00851 194.731017 
L 251.232346 194.198793 
L 251.346314 193.843977 
L 251.626838 192.956937 
L 251.751363 192.247305 
L 252.12992 191.537673 
L 252.13193 191.360265 
L 252.766694 190.650633 
L 253.006804 190.295817 
L 253.137626 189.586185 
L 253.25385 189.231369 
L 253.478047 187.989513 
L 253.656092 187.634697 
L 254.063844 185.328393 
L 254.2424 184.973577 
L 254.266025 184.441353 
L 254.447474 184.086537 
L 254.659707 182.489865 
L 254.867981 181.957641 
L 255.096172 178.941705 
L 255.474617 177.167625 
L 256.045058 173.442057 
L 256.384902 170.071305 
L 256.64254 167.055369 
L 256.750643 166.700553 
L 257.084343 164.394249 
L 257.216834 163.684617 
L 257.341876 162.087945 
L 257.427587 161.378313 
L 257.528851 160.668681 
L 257.605085 159.604233 
L 257.942914 155.701257 
L 258.104473 153.927177 
L 258.194541 152.862729 
L 258.288528 151.443465 
L 258.365531 150.733833 
L 258.492332 149.491977 
L 258.774743 145.234185 
L 258.910068 144.879369 
L 259.065033 142.750473 
L 259.126916 142.218249 
L 259.536689 137.783049 
L 259.586259 137.250825 
L 261.778586 109.397769 
L 261.914404 107.268873 
L 262.005583 106.736649 
L 262.067296 105.672201 
L 262.3115 102.124041 
L 262.401148 100.882185 
L 262.486649 100.172553 
L 262.812426 95.382537 
L 262.872888 94.672905 
L 263.01039 91.656969 
L 263.107493 89.882889 
L 263.178236 88.995849 
L 263.32864 87.399177 
L 263.655824 81.544713 
L 263.805673 79.593225 
L 263.887399 77.996553 
L 264.049786 75.335433 
L 264.150689 74.270985 
L 264.290766 73.206537 
L 264.383383 72.851721 
L 264.497246 71.077641 
L 264.610187 70.722825 
L 264.736395 68.948745 
L 264.814811 68.416521 
L 264.902489 67.884297 
L 264.981875 67.174665 
L 265.115533 64.868361 
L 265.424956 61.675017 
L 265.568353 60.078345 
L 265.6511 59.723529 
L 265.790862 57.594633 
L 265.927639 55.820553 
L 266.026618 54.756105 
L 266.104593 54.046473 
L 266.259508 51.740169 
L 266.81046 47.127561 
L 266.936463 46.417929 
L 267.225003 42.869769 
L 267.376578 42.160137 
L 267.468171 41.805321 
L 267.621509 39.144201 
L 268.008936 35.773449 
L 268.143031 34.176777 
L 268.269255 33.289737 
L 268.359565 32.934921 
L 268.458931 32.580105 
L 268.61768 30.983433 
L 268.710322 30.628617 
L 269.421097 27.612681 
L 269.855816 26.903049 
L 270.248674 26.725641 
L 270.348432 26.548233 
L 270.692134 26.193417 
L 271.184205 24.774153 
L 271.512805 24.596745 
L 271.634061 24.241929 
L 272.724932 23.709705 
L 272.754689 23.532297 
L 273.677405 22.822665 
L 274.474698 22.645257 
L 274.673599 22.467849 
L 276.039156 22.113033 
L 317.521633 21.935625 
L 317.521633 21.935625 
" clip-path="url(#pba1cda5c11)" style="fill: none; stroke: #4878cf; stroke-width: 1.2; stroke-linecap: round"/>
   </g>
   <g id="line2d_17">
    <path d="M 72.362052 199.166217 
L 72.71193 195.795465 
L 72.834411 194.908425 
L 72.976727 193.311753 
L 73.168409 191.892489 
L 74.149438 183.731721 
L 74.271678 182.667273 
L 74.401521 181.248009 
L 75.067367 175.748361 
L 75.182877 174.861321 
L 75.358842 173.264649 
L 75.486704 172.555017 
L 75.620176 171.667977 
L 75.751166 171.313161 
L 76.084238 168.297225 
L 76.22347 166.345737 
L 76.412237 165.281289 
L 76.525496 163.329801 
L 76.683152 161.910537 
L 76.796277 161.555721 
L 76.844207 160.668681 
L 77.244765 157.652745 
L 77.521175 155.701257 
L 77.67613 154.636809 
L 77.765945 154.281993 
L 77.890397 152.507913 
L 78.009861 152.153097 
L 78.205068 150.379017 
L 78.319346 150.024201 
L 78.358427 149.491977 
L 78.452741 149.137161 
L 78.563098 148.604937 
L 78.638306 147.895305 
L 78.70967 147.363081 
L 78.827298 147.008265 
L 78.862355 146.653449 
L 79.160771 146.121225 
L 79.308525 145.411593 
L 79.422029 144.169737 
L 79.591842 142.395657 
L 82.003672 123.767817 
L 82.148686 123.590409 
L 82.202081 122.880777 
L 82.390823 122.171145 
L 82.499988 120.929289 
L 82.65249 120.042249 
L 82.772377 118.622985 
L 83.494009 113.832969 
L 84.496414 107.801097 
L 84.616118 107.446281 
L 84.762289 106.559241 
L 85.150722 104.962569 
L 85.473855 104.252937 
L 85.608476 103.720713 
L 85.780953 102.833673 
L 85.901737 102.478857 
L 85.9623 101.769225 
L 86.104634 100.882185 
L 86.217647 100.349961 
L 86.694265 97.334025 
L 86.841124 96.979209 
L 86.968528 96.092169 
L 87.720483 91.302153 
L 87.819929 90.769929 
L 87.999225 89.350665 
L 88.239673 88.463625 
L 88.599784 86.689545 
L 88.729328 86.334729 
L 88.924618 85.092873 
L 88.96907 84.738057 
L 89.182071 84.205833 
L 89.295595 83.496201 
L 89.411409 82.963977 
L 89.73061 82.076937 
L 89.978314 81.012489 
L 90.325757 80.302857 
L 90.401472 79.948041 
L 90.537171 79.593225 
L 90.629264 78.528777 
L 90.885391 78.173961 
L 90.930198 77.996553 
L 91.146185 77.819145 
L 91.28478 76.932105 
L 91.443422 76.754697 
L 91.447425 76.577289 
L 91.588371 76.222473 
L 91.58964 76.045065 
L 91.83378 75.690249 
L 92.082923 74.270985 
L 92.226753 73.916169 
L 92.638937 72.142089 
L 92.755213 71.609865 
L 92.860405 70.722825 
L 93.066464 70.190601 
L 93.308117 68.239113 
L 93.575068 67.174665 
L 94.865902 63.094281 
L 95.015229 61.852425 
L 95.343304 61.497609 
L 95.490998 60.787977 
L 95.557267 60.610569 
L 95.808273 60.255753 
L 95.919111 59.900937 
L 95.967348 59.546121 
L 96.099058 59.191305 
L 96.195956 58.836489 
L 96.451349 58.481673 
L 96.517148 58.304265 
L 96.943335 57.949449 
L 97.64415 54.756105 
L 97.864688 54.578697 
L 98.875703 50.143497 
L 99.220854 49.788681 
L 99.650835 48.724233 
L 99.767412 48.546825 
L 100.53084 48.014601 
L 100.83297 46.950153 
L 101.372786 45.885705 
L 101.498833 45.353481 
L 101.559755 44.998665 
L 102.107756 44.289033 
L 102.148057 44.111625 
L 102.656346 43.579401 
L 102.6586 43.401993 
L 102.901803 43.224585 
L 103.015092 42.869769 
L 103.212629 42.692361 
L 103.227016 42.514953 
L 103.536698 42.337545 
L 103.86563 41.273097 
L 104.229382 40.918281 
L 104.253467 40.740873 
L 104.791603 40.386057 
L 104.819709 40.208649 
L 105.106064 39.853833 
L 105.110803 39.676425 
L 105.478365 39.144201 
L 105.685149 38.611977 
L 106.084135 38.434569 
L 106.801791 38.257161 
L 106.883878 38.079753 
L 107.268684 37.902345 
L 107.506416 37.192713 
L 107.784087 36.837897 
L 107.806131 36.483081 
L 108.383083 36.305673 
L 108.408789 36.128265 
L 108.922087 35.950857 
L 109.400406 35.241225 
L 110.261082 34.709001 
L 110.280509 34.531593 
L 112.179193 32.225289 
L 112.715715 32.047881 
L 113.097334 31.693065 
L 113.588443 31.515657 
L 114.529285 31.338249 
L 114.599648 31.160841 
L 115.358134 30.983433 
L 115.746329 30.273801 
L 117.821202 29.741577 
L 117.942002 29.564169 
L 118.450282 29.209353 
L 118.819211 28.677129 
L 119.13294 28.499721 
L 120.284673 28.322313 
L 120.292907 28.144905 
L 120.792855 27.790089 
L 121.479852 27.612681 
L 121.491713 27.435273 
L 124.079369 26.193417 
L 125.207933 26.016009 
L 125.30696 25.838601 
L 125.564094 25.661193 
L 125.572674 25.483785 
L 127.123994 25.128969 
L 129.228413 24.951561 
L 129.379754 24.596745 
L 131.566994 24.064521 
L 141.551358 23.000073 
L 144.67395 22.822665 
L 144.735559 22.645257 
L 149.030622 22.467849 
L 150.204568 22.290441 
L 171.621494 21.935625 
L 171.621494 21.935625 
" clip-path="url(#pba1cda5c11)" style="fill: none; stroke: #d1701f; stroke-width: 1.2; stroke-linecap: round"/>
   </g>
   <g id="line2d_18">
    <path d="M 72.328011 199.166217 
L 72.442024 196.859913 
L 72.714859 190.650633 
L 72.761064 189.941001 
L 73.02561 184.796169 
L 73.144916 179.651337 
L 73.33177 176.635401 
L 73.49697 173.619465 
L 73.567534 172.555017 
L 73.843741 166.345737 
L 73.958012 165.636105 
L 74.374286 157.475337 
L 74.714801 151.266057 
L 75.145902 143.460105 
L 75.222404 142.927881 
L 75.351909 141.686025 
L 75.433551 140.444169 
L 75.533873 139.202313 
L 75.624521 138.315273 
L 76.073271 131.928585 
L 76.168054 131.396361 
L 76.30593 129.444873 
L 76.808857 124.832265 
L 77.028935 123.413001 
L 77.164753 123.058185 
L 77.243033 122.348553 
L 77.458784 121.284105 
L 77.551184 120.751881 
L 77.657216 120.219657 
L 78.158843 117.203721 
L 78.28867 116.139273 
L 78.934094 112.236297 
L 79.049079 111.526665 
L 79.176398 110.817033 
L 79.376211 109.752585 
L 79.442606 109.220361 
L 79.510992 108.688137 
L 79.761344 108.333321 
L 79.886927 107.623689 
L 79.966613 107.446281 
L 80.175949 107.268873 
L 80.284653 106.559241 
L 80.371581 106.204425 
L 80.464349 104.962569 
L 80.494328 104.430345 
L 80.844506 104.252937 
L 81.065367 103.898121 
L 81.833293 102.301449 
L 82.616946 99.640329 
L 82.777351 99.285513 
L 82.924473 98.753289 
L 83.082753 98.221065 
L 83.293115 97.866249 
L 83.377122 97.511433 
L 83.654149 96.979209 
L 83.790142 96.624393 
L 84.280524 96.269577 
L 84.371884 95.914761 
L 84.999914 95.559945 
L 85.450486 94.140681 
L 85.934496 92.721417 
L 86.037292 92.011785 
L 86.203622 91.656969 
L 87.092507 89.350665 
L 87.104989 89.173257 
L 87.328528 88.995849 
L 87.457378 88.463625 
L 87.591499 87.931401 
L 87.70254 87.044361 
L 88.248396 84.915465 
L 88.537415 84.383241 
L 88.658839 83.318793 
L 88.867284 83.141385 
L 88.91625 82.609161 
L 89.480413 82.254345 
L 89.58938 81.367305 
L 89.852622 80.835081 
L 89.871759 80.480265 
L 90.03417 80.302857 
L 90.363024 80.125449 
L 90.805663 79.415817 
L 91.066969 79.061001 
L 91.229187 78.528777 
L 92.090306 76.754697 
L 92.474587 76.577289 
L 93.004627 74.625801 
L 93.223332 74.448393 
L 93.375586 73.561353 
L 93.816742 73.029129 
L 94.082151 72.674313 
L 94.282621 72.142089 
L 94.500736 71.964681 
L 94.513421 71.787273 
L 94.658327 71.432457 
L 94.829318 71.077641 
L 95.357745 70.190601 
L 95.407069 69.835785 
L 95.903728 69.303561 
L 96.280622 68.593929 
L 96.565647 67.529481 
L 96.753049 66.997257 
L 97.009199 66.287625 
L 97.268367 66.110217 
L 97.362184 65.577993 
L 98.43998 64.336137 
L 99.236953 62.562057 
L 99.654439 60.787977 
L 100.040271 60.255753 
L 100.172883 59.900937 
L 100.470758 59.013897 
L 100.489864 58.836489 
L 100.839486 58.481673 
L 100.958561 58.126857 
L 101.154693 57.772041 
L 101.209139 57.594633 
L 101.484691 57.417225 
L 101.488171 57.239817 
L 101.74941 57.062409 
L 101.924924 56.530185 
L 102.26065 56.175369 
L 102.386851 55.465737 
L 102.494322 54.933513 
L 102.780979 54.756105 
L 102.964482 54.046473 
L 103.320151 52.982025 
L 104.006227 52.094985 
L 104.312268 51.917577 
L 104.460938 51.385353 
L 104.484379 51.207945 
L 104.697052 51.030537 
L 104.812247 50.320905 
L 105.041404 49.788681 
L 105.31166 49.433865 
L 105.386375 49.256457 
L 105.659458 49.079049 
L 105.692572 48.901641 
L 105.943324 48.546825 
L 105.951559 48.369417 
L 106.095557 48.014601 
L 106.340026 47.659785 
L 106.714565 47.482377 
L 106.758674 47.127561 
L 107.080479 46.772745 
L 107.177037 46.240521 
L 107.724953 44.821257 
L 107.746856 44.643849 
L 108.210785 44.289033 
L 108.597884 43.401993 
L 108.70104 43.047177 
L 109.342759 42.337545 
L 109.445698 41.805321 
L 109.939292 40.918281 
L 109.957153 40.740873 
L 110.122265 40.563465 
L 110.207764 40.031241 
L 110.91555 38.789385 
L 110.981526 38.434569 
L 111.158806 38.257161 
L 111.227987 37.724937 
L 111.606432 36.660489 
L 112.111637 36.305673 
L 112.264705 35.950857 
L 113.338813 35.596041 
L 113.405385 35.418633 
L 114.10987 35.063817 
L 114.6729 33.644553 
L 115.297454 32.580105 
L 115.664528 32.402697 
L 115.751965 31.870473 
L 116.093344 31.693065 
L 116.117091 31.515657 
L 116.654164 31.338249 
L 117.118483 30.451209 
L 117.569511 30.096393 
L 117.82523 29.564169 
L 118.002145 29.209353 
L 118.131286 29.031945 
L 118.480011 28.854537 
L 118.513981 28.677129 
L 119.105613 28.322313 
L 119.151386 28.144905 
L 119.724755 27.967497 
L 119.737807 27.790089 
L 120.550344 27.435273 
L 120.557094 27.257865 
L 120.701909 27.080457 
L 121.227011 26.903049 
L 121.232547 26.725641 
L 121.862779 26.370825 
L 122.759765 26.193417 
L 123.003657 26.016009 
L 123.439892 25.838601 
L 124.63958 25.483785 
L 125.270902 25.128969 
L 125.43093 24.774153 
L 126.158867 24.419337 
L 127.42601 24.064521 
L 128.26028 23.532297 
L 131.681633 23.177481 
L 139.198167 22.290441 
L 144.566192 22.113033 
L 271.329689 21.935625 
L 271.329689 21.935625 
" clip-path="url(#pba1cda5c11)" style="fill: none; stroke: #6a51a3; stroke-width: 1.2; stroke-linecap: round"/>
   </g>
   <g id="patch_3">
    <path d="M 46.964375 199.343625 
L 46.964375 21.935625 
" style="fill: none; stroke: #cccccc; stroke-width: 1.25; stroke-linejoin: miter; stroke-linecap: square"/>
   </g>
   <g id="patch_4">
    <path d="M 46.964375 199.343625 
L 604.964375 199.343625 
" style="fill: none; stroke: #cccccc; stroke-width: 1.25; stroke-linejoin: miter; stroke-linecap: square"/>
   </g>
   <g id="text_17">
    <!-- Correction Δv - - empirical CDF (total + burns) -->
    <g style="fill: #262626" transform="translate(205.764688 15.935625) scale(0.12 -0.12)">
     <defs>
      <path id="ArialMT-43" d="M 3763 1606 
L 4369 1453 
Q 4178 706 3683 314 
Q 3188 -78 2472 -78 
Q 1731 -78 1267 223 
Q 803 525 561 1097 
Q 319 1669 319 2325 
Q 319 3041 592 3573 
Q 866 4106 1370 4382 
Q 1875 4659 2481 4659 
Q 3169 4659 3637 4309 
Q 4106 3959 4291 3325 
L 3694 3184 
Q 3534 3684 3231 3912 
Q 2928 4141 2469 4141 
Q 1941 4141 1586 3887 
Q 1231 3634 1087 3207 
Q 944 2781 944 2328 
Q 944 1744 1114 1308 
Q 1284 872 1643 656 
Q 2003 441 2422 441 
Q 2931 441 3284 734 
Q 3638 1028 3763 1606 
z
" transform="scale(0.015625)"/>
      <path id="ArialMT-2d" d="M 203 1375 
L 203 1941 
L 1931 1941 
L 1931 1375 
L 203 1375 
z
" transform="scale(0.015625)"/>
      <path id="ArialMT-70" d="M 422 -1272 
L 422 3319 
L 934 3319 
L 934 2888 
Q 1116 3141 1344 3267 
Q 1572 3394 1897 3394 
Q 2322 3394 2647 3175 
Q 2972 2956 3137 2557 
Q 3303 2159 3303 1684 
Q 3303 1175 3120 767 
Q 2938 359 2589 142 
Q 2241 -75 1856 -75 
Q 1575 -75 1351 44 
Q 1128 163 984 344 
L 984 -1272 
L 422 -1272 
z
M 931 1641 
Q 931 1000 1190 694 
Q 1450 388 1819 388 
Q 2194 388 2461 705 
Q 2728 1022 2728 1688 
Q 2728 2322 2467 2637 
Q 2206 2953 1844 2953 
Q 1484 2953 1207 2617 
Q 931 2281 931 1641 
z
" transform="scale(0.015625)"/>
      <path id="ArialMT-44" d="M 494 0 
L 494 4581 
L 2072 4581 
Q 2606 4581 2888 4516 
Q 3281 4425 3559 4188 
Q 3922 3881 4101 3404 
Q 4281 2928 4281 2316 
Q 4281 1794 4159 1391 
Q 4038 988 3847 723 
Q 3656 459 3429 307 
Q 3203 156 2883 78 
Q 2563 0 2147 0 
L 494 0 
z
M 1100 541 
L 2078 541 
Q 2531 541 2789 625 
Q 3047 709 3200 863 
Q 3416 1078 3536 1442 
Q 3656 1806 3656 2325 
Q 3656 3044 3420 3430 
Q 3184 3816 2847 3947 
Q 2603 4041 2063 4041 
L 1100 4041 
L 1100 541 
z
" transform="scale(0.015625)"/>
      <path id="ArialMT-46" d="M 525 0 
L 525 4581 
L 3616 4581 
L 3616 4041 
L 1131 4041 
L 1131 2622 
L 3281 2622 
L 3281 2081 
L 1131 2081 
L 1131 0 
L 525 0 
z
" transform="scale(0.015625)"/>
      <path id="ArialMT-2b" d="M 1603 741 
L 1603 1997 
L 356 1997 
L 356 2522 
L 1603 2522 
L 1603 3769 
L 2134 3769 
L 2134 2522 
L 3381 2522 
L 3381 1997 
L 2134 1997 
L 2134 741 
L 1603 741 
z
" transform="scale(0.015625)"/>
      <path id="ArialMT-62" d="M 941 0 
L 419 0 
L 419 4581 
L 981 4581 
L 981 2947 
Q 1338 3394 1891 3394 
Q 2197 3394 2470 3270 
Q 2744 3147 2920 2923 
Q 3097 2700 3197 2384 
Q 3297 2069 3297 1709 
Q 3297 856 2875 390 
Q 2453 -75 1863 -75 
Q 1275 -75 941 416 
L 941 0 
z
M 934 1684 
Q 934 1088 1097 822 
Q 1363 388 1816 388 
Q 2184 388 2453 708 
Q 2722 1028 2722 1663 
Q 2722 2313 2464 2622 
Q 2206 2931 1841 2931 
Q 1472 2931 1203 2611 
Q 934 2291 934 1684 
z
" transform="scale(0.015625)"/>
     </defs>
     <use xlink:href="#ArialMT-43"/>
     <use xlink:href="#ArialMT-6f" transform="translate(72.216797 0)"/>
     <use xlink:href="#ArialMT-72" transform="translate(127.832031 0)"/>
     <use xlink:href="#ArialMT-72" transform="translate(161.132812 0)"/>
     <use xlink:href="#ArialMT-65" transform="translate(194.433594 0)"/>
     <use xlink:href="#ArialMT-63" transform="translate(250.048828 0)"/>
     <use xlink:href="#ArialMT-74" transform="translate(300.048828 0)"/>
     <use xlink:href="#ArialMT-69" transform="translate(327.832031 0)"/>
     <use xlink:href="#ArialMT-6f" transform="translate(350.048828 0)"/>
     <use xlink:href="#ArialMT-6e" transform="translate(405.664062 0)"/>
     <use xlink:href="#ArialMT-20" transform="translate(461.279297 0)"/>
     <use xlink:href="#ArialMT-394" transform="translate(483.5625 0)"/>
     <use xlink:href="#ArialMT-76" transform="translate(550.359375 0)"/>
     <use xlink:href="#ArialMT-20" transform="translate(600.359375 0)"/>
     <use xlink:href="#ArialMT-2d" transform="translate(628.142578 0)"/>
     <use xlink:href="#ArialMT-2d" transform="translate(661.443359 0)"/>
     <use xlink:href="#ArialMT-20" transform="translate(694.744141 0)"/>
     <use xlink:href="#ArialMT-65" transform="translate(722.527344 0)"/>
     <use xlink:href="#ArialMT-6d" transform="translate(778.142578 0)"/>
     <use xlink:href="#ArialMT-70" transform="translate(861.443359 0)"/>
     <use xlink:href="#ArialMT-69" transform="translate(917.058594 0)"/>
     <use xlink:href="#ArialMT-72" transform="translate(939.275391 0)"/>
     <use xlink:href="#ArialMT-69" transform="translate(972.576172 0)"/>
     <use xlink:href="#ArialMT-63" transform="translate(994.792969 0)"/>
     <use xlink:href="#ArialMT-61" transform="translate(1044.792969 0)"/>
     <use xlink:href="#ArialMT-6c" transform="translate(1100.408203 0)"/>
     <use xlink:href="#ArialMT-20" transform="translate(1122.625 0)"/>
     <use xlink:href="#ArialMT-43" transform="translate(1150.408203 0)"/>
     <use xlink:href="#ArialMT-44" transform="translate(1222.625 0)"/>
     <use xlink:href="#ArialMT-46" transform="translate(1294.841797 0)"/>
     <use xlink:href="#ArialMT-20" transform="translate(1355.925781 0)"/>
     <use xlink:href="#ArialMT-28" transform="translate(1383.708984 0)"/>
     <use xlink:href="#ArialMT-74" transform="translate(1417.009766 0)"/>
     <use xlink:href="#ArialMT-6f" transform="translate(1444.792969 0)"/>
     <use xlink:href="#ArialMT-74" transform="translate(1500.408203 0)"/>
     <use xlink:href="#ArialMT-61" transform="translate(1528.191406 0)"/>
     <use xlink:href="#ArialMT-6c" transform="translate(1583.806641 0)"/>
     <use xlink:href="#ArialMT-20" transform="translate(1606.023438 0)"/>
     <use xlink:href="#ArialMT-2b" transform="translate(1633.806641 0)"/>
     <use xlink:href="#ArialMT-20" transform="translate(1692.205078 0)"/>
     <use xlink:href="#ArialMT-62" transform="translate(1719.988281 0)"/>
     <use xlink:href="#ArialMT-75" transform="translate(1775.603516 0)"/>
     <use xlink:href="#ArialMT-72" transform="translate(1831.21875 0)"/>
     <use xlink:href="#ArialMT-6e" transform="translate(1864.519531 0)"/>
     <use xlink:href="#ArialMT-73" transform="translate(1920.134766 0)"/>
     <use xlink:href="#ArialMT-29" transform="translate(1970.134766 0)"/>
    </g>
   </g>
   <g id="legend_1">
    <g id="patch_5">
     <path d="M 482.644572 194.345625 
L 597.967175 194.345625 
Q 599.966375 194.345625 599.966375 192.346425 
L 599.966375 136.610916 
Q 599.966375 134.611716 597.967175 134.611716 
L 482.644572 134.611716 
Q 480.645372 134.611716 480.645372 136.610916 
L 480.645372 192.346425 
Q 480.645372 194.345625 482.644572 194.345625 
z
" style="fill: #f5f5f5; opacity: 0.8; stroke: #cccccc; stroke-linejoin: miter"/>
    </g>
    <g id="line2d_19">
     <path d="M 484.643772 142.266465 
L 494.639772 142.266465 
L 504.635772 142.266465 
" style="fill: none; stroke: #111111; stroke-width: 2; stroke-linecap: round"/>
    </g>
    <g id="text_18">
     <!-- total Δv -->
     <g style="fill: #262626" transform="translate(512.632572 145.765065) scale(0.09996 -0.09996)">
      <use xlink:href="#ArialMT-74"/>
      <use xlink:href="#ArialMT-6f" transform="translate(27.783203 0)"/>
      <use xlink:href="#ArialMT-74" transform="translate(83.398438 0)"/>
      <use xlink:href="#ArialMT-61" transform="translate(111.181641 0)"/>
      <use xlink:href="#ArialMT-6c" transform="translate(166.796875 0)"/>
      <use xlink:href="#ArialMT-20" transform="translate(189.013672 0)"/>
      <use xlink:href="#ArialMT-394" transform="translate(211.296875 0)"/>
      <use xlink:href="#ArialMT-76" transform="translate(278.09375 0)"/>
     </g>
    </g>
    <g id="line2d_20">
     <path d="M 484.643772 156.435795 
L 494.639772 156.435795 
L 504.635772 156.435795 
" style="fill: none; stroke: #4878cf; stroke-width: 1.2; stroke-linecap: round"/>
    </g>
    <g id="text_19">
     <!-- dv1 periapsis raise -->
     <g style="fill: #262626" transform="translate(512.632572 159.934395) scale(0.09996 -0.09996)">
      <defs>
       <path id="ArialMT-64" d="M 2575 0 
L 2575 419 
Q 2259 -75 1647 -75 
Q 1250 -75 917 144 
Q 584 363 401 755 
Q 219 1147 219 1656 
Q 219 2153 384 2558 
Q 550 2963 881 3178 
Q 1213 3394 1622 3394 
Q 1922 3394 2156 3267 
Q 2391 3141 2538 2938 
L 2538 4581 
L 3097 4581 
L 3097 0 
L 2575 0 
z
M 797 1656 
Q 797 1019 1065 703 
Q 1334 388 1700 388 
Q 2069 388 2326 689 
Q 2584 991 2584 1609 
Q 2584 2291 2321 2609 
Q 2059 2928 1675 2928 
Q 1300 2928 1048 2622 
Q 797 2316 797 1656 
z
" transform="scale(0.015625)"/>
      </defs>
      <use xlink:href="#ArialMT-64"/>
      <use xlink:href="#ArialMT-76" transform="translate(55.615234 0)"/>
      <use xlink:href="#ArialMT-31" transform="translate(105.615234 0)"/>
      <use xlink:href="#ArialMT-20" transform="translate(161.230469 0)"/>
      <use xlink:href="#ArialMT-70" transform="translate(189.013672 0)"/>
      <use xlink:href="#ArialMT-65" transform="translate(244.628906 0)"/>
      <use xlink:href="#ArialMT-72" transform="translate(300.244141 0)"/>
      <use xlink:href="#ArialMT-69" transform="translate(333.544922 0)"/>
      <use xlink:href="#ArialMT-61" transform="translate(355.761719 0)"/>
      <use xlink:href="#ArialMT-70" transform="translate(411.376953 0)"/>
      <use xlink:href="#ArialMT-73" transform="translate(466.992188 0)"/>
      <use xlink:href="#ArialMT-69" transform="translate(516.992188 0)"/>
      <use xlink:href="#ArialMT-73" transform="translate(539.208984 0)"/>
      <use xlink:href="#ArialMT-20" transform="translate(589.208984 0)"/>
      <use xlink:href="#ArialMT-72" transform="translate(616.992188 0)"/>
      <use xlink:href="#ArialMT-61" transform="translate(650.292969 0)"/>
      <use xlink:href="#ArialMT-69" transform="translate(705.908203 0)"/>
      <use xlink:href="#ArialMT-73" transform="translate(728.125 0)"/>
      <use xlink:href="#ArialMT-65" transform="translate(778.125 0)"/>
     </g>
    </g>
    <g id="line2d_21">
     <path d="M 484.643772 170.575449 
L 494.639772 170.575449 
L 504.635772 170.575449 
" style="fill: none; stroke: #d1701f; stroke-width: 1.2; stroke-linecap: round"/>
    </g>
    <g id="text_20">
     <!-- dv2 circularization -->
     <g style="fill: #262626" transform="translate(512.632572 174.074049) scale(0.09996 -0.09996)">
      <defs>
       <path id="ArialMT-7a" d="M 125 0 
L 125 456 
L 2238 2881 
Q 1878 2863 1603 2863 
L 250 2863 
L 250 3319 
L 2963 3319 
L 2963 2947 
L 1166 841 
L 819 456 
Q 1197 484 1528 484 
L 3063 484 
L 3063 0 
L 125 0 
z
" transform="scale(0.015625)"/>
      </defs>
      <use xlink:href="#ArialMT-64"/>
      <use xlink:href="#ArialMT-76" transform="translate(55.615234 0)"/>
      <use xlink:href="#ArialMT-32" transform="translate(105.615234 0)"/>
      <use xlink:href="#ArialMT-20" transform="translate(161.230469 0)"/>
      <use xlink:href="#ArialMT-63" transform="translate(189.013672 0)"/>
      <use xlink:href="#ArialMT-69" transform="translate(239.013672 0)"/>
      <use xlink:href="#ArialMT-72" transform="translate(261.230469 0)"/>
      <use xlink:href="#ArialMT-63" transform="translate(294.53125 0)"/>
      <use xlink:href="#ArialMT-75" transform="translate(344.53125 0)"/>
      <use xlink:href="#ArialMT-6c" transform="translate(400.146484 0)"/>
      <use xlink:href="#ArialMT-61" transform="translate(422.363281 0)"/>
      <use xlink:href="#ArialMT-72" transform="translate(477.978516 0)"/>
      <use xlink:href="#ArialMT-69" transform="translate(511.279297 0)"/>
      <use xlink:href="#ArialMT-7a" transform="translate(533.496094 0)"/>
      <use xlink:href="#ArialMT-61" transform="translate(583.496094 0)"/>
      <use xlink:href="#ArialMT-74" transform="translate(639.111328 0)"/>
      <use xlink:href="#ArialMT-69" transform="translate(666.894531 0)"/>
      <use xlink:href="#ArialMT-6f" transform="translate(689.111328 0)"/>
      <use xlink:href="#ArialMT-6e" transform="translate(744.726562 0)"/>
     </g>
    </g>
    <g id="line2d_22">
     <path d="M 484.643772 184.744779 
L 494.639772 184.744779 
L 504.635772 184.744779 
" style="fill: none; stroke: #6a51a3; stroke-width: 1.2; stroke-linecap: round"/>
    </g>
    <g id="text_21">
     <!-- dv3 plane change -->
     <g style="fill: #262626" transform="translate(512.632572 188.243379) scale(0.09996 -0.09996)">
      <defs>
       <path id="ArialMT-68" d="M 422 0 
L 422 4581 
L 984 4581 
L 984 2938 
Q 1378 3394 1978 3394 
Q 2347 3394 2619 3248 
Q 2891 3103 3008 2847 
Q 3125 2591 3125 2103 
L 3125 0 
L 2563 0 
L 2563 2103 
Q 2563 2525 2380 2717 
Q 2197 2909 1863 2909 
Q 1613 2909 1392 2779 
Q 1172 2650 1078 2428 
Q 984 2206 984 1816 
L 984 0 
L 422 0 
z
" transform="scale(0.015625)"/>
       <path id="ArialMT-67" d="M 319 -275 
L 866 -356 
Q 900 -609 1056 -725 
Q 1266 -881 1628 -881 
Q 2019 -881 2231 -725 
Q 2444 -569 2519 -288 
Q 2563 -116 2559 434 
Q 2191 0 1641 0 
Q 956 0 581 494 
Q 206 988 206 1678 
Q 206 2153 378 2554 
Q 550 2956 876 3175 
Q 1203 3394 1644 3394 
Q 2231 3394 2613 2919 
L 2613 3319 
L 3131 3319 
L 3131 450 
Q 3131 -325 2973 -648 
Q 2816 -972 2473 -1159 
Q 2131 -1347 1631 -1347 
Q 1038 -1347 672 -1080 
Q 306 -813 319 -275 
z
M 784 1719 
Q 784 1066 1043 766 
Q 1303 466 1694 466 
Q 2081 466 2343 764 
Q 2606 1063 2606 1700 
Q 2606 2309 2336 2618 
Q 2066 2928 1684 2928 
Q 1309 2928 1046 2623 
Q 784 2319 784 1719 
z
" transform="scale(0.015625)"/>
      </defs>
      <use xlink:href="#ArialMT-64"/>
      <use xlink:href="#ArialMT-76" transform="translate(55.615234 0)"/>
      <use xlink:href="#ArialMT-33" transform="translate(105.615234 0)"/>
      <use xlink:href="#ArialMT-20" transform="translate(161.230469 0)"/>
      <use xlink:href="#ArialMT-70" transform="translate(189.013672 0)"/>
      <use xlink:href="#ArialMT-6c" transform="translate(244.628906 0)"/>
      <use xlink:href="#ArialMT-61" transform="translate(266.845703 0)"/>
      <use xlink:href="#ArialMT-6e" transform="translate(322.460938 0)"/>
      <use xlink:href="#ArialMT-65" transform="translate(378.076172 0)"/>
      <use xlink:href="#ArialMT-20" transform="translate(433.691406 0)"/>
      <use xlink:href="#ArialMT-63" transform="translate(461.474609 0)"/>
      <use xlink:href="#ArialMT-68" transform="translate(511.474609 0)"/>
      <use xlink:href="#ArialMT-61" transform="translate(567.089844 0)"/>
      <use xlink:href="#ArialMT-6e" transform="translate(622.705078 0)"/>
      <use xlink:href="#ArialMT-67" transform="translate(678.320312 0)"/>
      <use xlink:href="#ArialMT-65" transform="translate(733.935547 0)"/>
     </g>
    </g>
   </g>
  </g>
 </g>
 <defs>
  <clipPath id="pba1cda5c11">
   <rect x="46.964375" y="21.935625" width="558" height="177.408"/>
  </clipPath>
 </defs>
</svg>
