<?xml version="1.0" encoding="utf-8" standalone="no"?>
<!DOCTYPE svg PUBLIC "-//W3C//DTD SVG 1.1//EN"
  "http://www.w3.org/Graphics/SVG/1.1/DTD/svg11.dtd">
<svg xmlns:xlink="http://www.w3.org/1999/xlink" width="612.164375pt" height="241.364719pt" viewBox="0 0 612.164375 241.364719" xmlns="http://www.w3.org/2000/svg" version="1.1">
 <metadata>
  <rdf:RDF xmlns:dc="http://purl.org/dc/elements/1.1/" xmlns:cc="http://creativecommons.org/ns#" xmlns:rdf="http://www.w3.org/1999/02/22-rdf-syntax-ns#">
   <cc:Work>
    <dc:type rdf:resource="http://purl.org/dc/dcmitype/StillImage"/>
    <dc:date>2026-07-03T21:40:54.078842</dc:date>
    <dc:format>image/svg+xml</dc:format>
    <dc:creator>
     <cc:Agent>
      <dc:title>Matplotlib v3.10.9, https://matplotlib.org/</dc:title>
     </cc:Agent>
    </dc:creator>
   </cc:Work>
  </rdf:RDF>
 </metadata>
 <defs>
  <style type="text/css">*{stroke-linejoin: round; stroke-linecap: butt}</style>
 </defs>
 <g id="figure_1">
  <g id="patch_1">
   <path d="M 0 241.364719 
L 612.164375 241.364719 
L 612.164375 -0 
L 0 -0 
z
" style="fill: #ffffff"/>
  </g>
  <g id="axes_1">
   <g id="patch_2">
    <path d="M 46.964375 199.343625 
L 604.964375 199.343625 
L 604.964375 21.935625 
L 46.964375 21.935625 
z
" style="fill: #f5f5f5"/>
   </g>
   <g id="matplotlib.axis_1">
    <g id="xtick_1">
     <g id="line2d_1">
      <path d="M 72.325451 199.343625 
L 72.325451 21.935625 
" clip-path="url(#pf8ce30ae94)" style="fill: none; stroke: #cccccc; stroke-linecap: round"/>
     </g>
     <g id="text_1">
      <!-- 0 -->
      <g style="fill: #262626" transform="translate(69.266935 216.717219) scale(0.11 -0.11)">
       <defs>
        <path id="ArialMT-30" d="M 266 2259 
Q 266 3072 433 3567 
Q 600 4063 929 4331 
Q 1259 4600 1759 4600 
Q 2128 4600 2406 4451 
Q 2684 4303 2865 4023 
Q 3047 3744 3150 3342 
Q 3253 2941 3253 2259 
Q 3253 1453 3087 958 
Q 2922 463 2592 192 
Q 2263 -78 1759 -78 
Q 1097 -78 719 397 
Q 266 969 266 2259 
z
M 844 2259 
Q 844 1131 1108 757 
Q 1372 384 1759 384 
Q 2147 384 2411 759 
Q 2675 1134 2675 2259 
Q 2675 3391 2411 3762 
Q 2147 4134 1753 4134 
Q 1366 4134 1134 3806 
Q 844 3388 844 2259 
z
" transform="scale(0.015625)"/>
       </defs>
       <use xlink:href="#ArialMT-30"/>
      </g>
     </g>
    </g>
    <g id="xtick_2">
     <g id="line2d_2">
      <path d="M 149.987505 199.343625 
L 149.987505 21.935625 
" clip-path="url(#pf8ce30ae94)" style="fill: none; stroke: #cccccc; stroke-linecap: round"/>
     </g>
     <g id="text_2">
      <!-- 20 -->
      <g style="fill: #262626" transform="translate(143.870474 216.717219) scale(0.11 -0.11)">
       <defs>
        <path id="ArialMT-32" d="M 3222 541 
L 3222 0 
L 194 0 
Q 188 203 259 391 
Q 375 700 629 1000 
Q 884 1300 1366 1694 
Q 2113 2306 2375 2664 
Q 2638 3022 2638 3341 
Q 2638 3675 2398 3904 
Q 2159 4134 1775 4134 
Q 1369 4134 1125 3890 
Q 881 3647 878 3216 
L 300 3275 
Q 359 3922 746 4261 
Q 1134 4600 1788 4600 
Q 2447 4600 2831 4234 
Q 3216 3869 3216 3328 
Q 3216 3053 3103 2787 
Q 2991 2522 2730 2228 
Q 2469 1934 1863 1422 
Q 1356 997 1212 845 
Q 1069 694 975 541 
L 3222 541 
z
" transform="scale(0.015625)"/>
       </defs>
       <use xlink:href="#ArialMT-32"/>
       <use xlink:href="#ArialMT-30" transform="translate(55.615234 0)"/>
      </g>
     </g>
    </g>
    <g id="xtick_3">
     <g id="line2d_3">
      <path d="M 227.649559 199.343625 
L 227.649559 21.935625 
" clip-path="url(#pf8ce30ae94)" style="fill: none; stroke: #cccccc; stroke-linecap: round"/>
     </g>
     <g id="text_3">
      <!-- 40 -->
      <g style="fill: #262626" transform="translate(221.532528 216.717219) scale(0.11 -0.11)">
       <defs>
        <path id="ArialMT-34" d="M 2069 0 
L 2069 1097 
L 81 1097 
L 81 1613 
L 2172 4581 
L 2631 4581 
L 2631 1613 
L 3250 1613 
L 3250 1097 
L 2631 1097 
L 2631 0 
L 2069 0 
z
M 2069 1613 
L 2069 3678 
L 634 1613 
L 2069 1613 
z
" transform="scale(0.015625)"/>
       </defs>
       <use xlink:href="#ArialMT-34"/>
       <use xlink:href="#ArialMT-30" transform="translate(55.615234 0)"/>
      </g>
     </g>
    </g>
    <g id="xtick_4">
     <g id="line2d_4">
      <path d="M 305.311613 199.343625 
L 305.311613 21.935625 
" clip-path="url(#pf8ce30ae94)" style="fill: none; stroke: #cccccc; stroke-linecap: round"/>
     </g>
     <g id="text_4">
      <!-- 60 -->
      <g style="fill: #262626" transform="translate(299.194582 216.717219) scale(0.11 -0.11)">
       <defs>
        <path id="ArialMT-36" d="M 3184 3459 
L 2625 3416 
Q 2550 3747 2413 3897 
Q 2184 4138 1850 4138 
Q 1581 4138 1378 3988 
Q 1113 3794 959 3422 
Q 806 3050 800 2363 
Q 1003 2672 1297 2822 
Q 1591 2972 1913 2972 
Q 2475 2972 2870 2558 
Q 3266 2144 3266 1488 
Q 3266 1056 3080 686 
Q 2894 316 2569 119 
Q 2244 -78 1831 -78 
Q 1128 -78 684 439 
Q 241 956 241 2144 
Q 241 3472 731 4075 
Q 1159 4600 1884 4600 
Q 2425 4600 2770 4297 
Q 3116 3994 3184 3459 
z
M 888 1484 
Q 888 1194 1011 928 
Q 1134 663 1356 523 
Q 1578 384 1822 384 
Q 2178 384 2434 671 
Q 2691 959 2691 1453 
Q 2691 1928 2437 2201 
Q 2184 2475 1800 2475 
Q 1419 2475 1153 2201 
Q 888 1928 888 1484 
z
" transform="scale(0.015625)"/>
       </defs>
       <use xlink:href="#ArialMT-36"/>
       <use xlink:href="#ArialMT-30" transform="translate(55.615234 0)"/>
      </g>
     </g>
    </g>
    <g id="xtick_5">
     <g id="line2d_5">
      <path d="M 382.973667 199.343625 
L 382.973667 21.935625 
" clip-path="url(#pf8ce30ae94)" style="fill: none; stroke: #cccccc; stroke-linecap: round"/>
     </g>
     <g id="text_5">
      <!-- 80 -->
      <g style="fill: #262626" transform="translate(376.856636 216.717219) scale(0.11 -0.11)">
       <defs>
        <path id="ArialMT-38" d="M 1131 2484 
Q 781 2613 612 2850 
Q 444 3088 444 3419 
Q 444 3919 803 4259 
Q 1163 4600 1759 4600 
Q 2359 4600 2725 4251 
Q 3091 3903 3091 3403 
Q 3091 3084 2923 2848 
Q 2756 2613 2416 2484 
Q 2838 2347 3058 2040 
Q 3278 1734 3278 1309 
Q 3278 722 2862 322 
Q 2447 -78 1769 -78 
Q 1091 -78 675 323 
Q 259 725 259 1325 
Q 259 1772 486 2073 
Q 713 2375 1131 2484 
z
M 1019 3438 
Q 1019 3113 1228 2906 
Q 1438 2700 1772 2700 
Q 2097 2700 2305 2904 
Q 2513 3109 2513 3406 
Q 2513 3716 2298 3927 
Q 2084 4138 1766 4138 
Q 1444 4138 1231 3931 
Q 1019 3725 1019 3438 
z
M 838 1322 
Q 838 1081 952 856 
Q 1066 631 1291 507 
Q 1516 384 1775 384 
Q 2178 384 2440 643 
Q 2703 903 2703 1303 
Q 2703 1709 2433 1975 
Q 2163 2241 1756 2241 
Q 1359 2241 1098 1978 
Q 838 1716 838 1322 
z
" transform="scale(0.015625)"/>
       </defs>
       <use xlink:href="#ArialMT-38"/>
       <use xlink:href="#ArialMT-30" transform="translate(55.615234 0)"/>
      </g>
     </g>
    </g>
    <g id="xtick_6">
     <g id="line2d_6">
      <path d="M 460.635721 199.343625 
L 460.635721 21.935625 
" clip-path="url(#pf8ce30ae94)" style="fill: none; stroke: #cccccc; stroke-linecap: round"/>
     </g>
     <g id="text_6">
      <!-- 100 -->
      <g style="fill: #262626" transform="translate(451.460174 216.717219) scale(0.11 -0.11)">
       <defs>
        <path id="ArialMT-31" d="M 2384 0 
L 1822 0 
L 1822 3584 
Q 1619 3391 1289 3197 
Q 959 3003 697 2906 
L 697 3450 
Q 1169 3672 1522 3987 
Q 1875 4303 2022 4600 
L 2384 4600 
L 2384 0 
z
" transform="scale(0.015625)"/>
       </defs>
       <use xlink:href="#ArialMT-31"/>
       <use xlink:href="#ArialMT-30" transform="translate(55.615234 0)"/>
       <use xlink:href="#ArialMT-30" transform="translate(111.230469 0)"/>
      </g>
     </g>
    </g>
    <g id="xtick_7">
     <g id="line2d_7">
      <path d="M 538.297775 199.343625 
L 538.297775 21.935625 
" clip-path="url(#pf8ce30ae94)" style="fill: none; stroke: #cccccc; stroke-linecap: round"/>
     </g>
     <g id="text_7">
      <!-- 120 -->
      <g style="fill: #262626" transform="translate(529.122228 216.717219) scale(0.11 -0.11)">
       <use xlink:href="#ArialMT-31"/>
       <use xlink:href="#ArialMT-32" transform="translate(55.615234 0)"/>
       <use xlink:href="#ArialMT-30" transform="translate(111.230469 0)"/>
      </g>
     </g>
    </g>
    <g id="text_8">
     <!-- correction Δv (m/s) -->
     <g style="fill: #262626" transform="translate(275.950625 231.639094) scale(0.12 -0.12)">
      <defs>
       <path id="ArialMT-63" d="M 2588 1216 
L 3141 1144 
Q 3050 572 2676 248 
Q 2303 -75 1759 -75 
Q 1078 -75 664 370 
Q 250 816 250 1647 
Q 250 2184 428 2587 
Q 606 2991 970 3192 
Q 1334 3394 1763 3394 
Q 2303 3394 2647 3120 
Q 2991 2847 3088 2344 
L 2541 2259 
Q 2463 2594 2264 2762 
Q 2066 2931 1784 2931 
Q 1359 2931 1093 2626 
Q 828 2322 828 1663 
Q 828 994 1084 691 
Q 1341 388 1753 388 
Q 2084 388 2306 591 
Q 2528 794 2588 1216 
z
" transform="scale(0.015625)"/>
       <path id="ArialMT-6f" d="M 213 1659 
Q 213 2581 725 3025 
Q 1153 3394 1769 3394 
Q 2453 3394 2887 2945 
Q 3322 2497 3322 1706 
Q 3322 1066 3130 698 
Q 2938 331 2570 128 
Q 2203 -75 1769 -75 
Q 1072 -75 642 372 
Q 213 819 213 1659 
z
M 791 1659 
Q 791 1022 1069 705 
Q 1347 388 1769 388 
Q 2188 388 2466 706 
Q 2744 1025 2744 1678 
Q 2744 2294 2464 2611 
Q 2184 2928 1769 2928 
Q 1347 2928 1069 2612 
Q 791 2297 791 1659 
z
" transform="scale(0.015625)"/>
       <path id="ArialMT-72" d="M 416 0 
L 416 3319 
L 922 3319 
L 922 2816 
Q 1116 3169 1280 3281 
Q 1444 3394 1641 3394 
Q 1925 3394 2219 3213 
L 2025 2691 
Q 1819 2813 1613 2813 
Q 1428 2813 1281 2702 
Q 1134 2591 1072 2394 
Q 978 2094 978 1738 
L 978 0 
L 416 0 
z
" transform="scale(0.015625)"/>
       <path id="ArialMT-65" d="M 2694 1069 
L 3275 997 
Q 3138 488 2766 206 
Q 2394 -75 1816 -75 
Q 1088 -75 661 373 
Q 234 822 234 1631 
Q 234 2469 665 2931 
Q 1097 3394 1784 3394 
Q 2450 3394 2872 2941 
Q 3294 2488 3294 1666 
Q 3294 1616 3291 1516 
L 816 1516 
Q 847 969 1125 678 
Q 1403 388 1819 388 
Q 2128 388 2347 550 
Q 2566 713 2694 1069 
z
M 847 1978 
L 2700 1978 
Q 2663 2397 2488 2606 
Q 2219 2931 1791 2931 
Q 1403 2931 1139 2672 
Q 875 2413 847 1978 
z
" transform="scale(0.015625)"/>
       <path id="ArialMT-74" d="M 1650 503 
L 1731 6 
Q 1494 -44 1306 -44 
Q 1000 -44 831 53 
Q 663 150 594 308 
Q 525 466 525 972 
L 525 2881 
L 113 2881 
L 113 3319 
L 525 3319 
L 525 4141 
L 1084 4478 
L 1084 3319 
L 1650 3319 
L 1650 2881 
L 1084 2881 
L 1084 941 
Q 1084 700 1114 631 
Q 1144 563 1211 522 
Q 1278 481 1403 481 
Q 1497 481 1650 503 
z
" transform="scale(0.015625)"/>
       <path id="ArialMT-69" d="M 425 3934 
L 425 4581 
L 988 4581 
L 988 3934 
L 425 3934 
z
M 425 0 
L 425 3319 
L 988 3319 
L 988 0 
L 425 0 
z
" transform="scale(0.015625)"/>
       <path id="ArialMT-6e" d="M 422 0 
L 422 3319 
L 928 3319 
L 928 2847 
Q 1294 3394 1984 3394 
Q 2284 3394 2536 3286 
Q 2788 3178 2913 3003 
Q 3038 2828 3088 2588 
Q 3119 2431 3119 2041 
L 3119 0 
L 2556 0 
L 2556 2019 
Q 2556 2363 2490 2533 
Q 2425 2703 2258 2804 
Q 2091 2906 1866 2906 
Q 1506 2906 1245 2678 
Q 984 2450 984 1813 
L 984 0 
L 422 0 
z
" transform="scale(0.015625)"/>
       <path id="ArialMT-20" transform="scale(0.015625)"/>
       <path id="ArialMT-394" d="M -6 0 
L 1753 4581 
L 2406 4581 
L 4281 0 
L -6 0 
z
M 834 541 
L 3381 541 
L 2391 3150 
Q 2169 3738 2066 4100 
Q 1981 3675 1819 3225 
L 834 541 
z
" transform="scale(0.015625)"/>
       <path id="ArialMT-76" d="M 1344 0 
L 81 3319 
L 675 3319 
L 1388 1331 
Q 1503 1009 1600 663 
Q 1675 925 1809 1294 
L 2547 3319 
L 3125 3319 
L 1869 0 
L 1344 0 
z
" transform="scale(0.015625)"/>
       <path id="ArialMT-28" d="M 1497 -1347 
Q 1031 -759 709 28 
Q 388 816 388 1659 
Q 388 2403 628 3084 
Q 909 3875 1497 4659 
L 1900 4659 
Q 1522 4009 1400 3731 
Q 1209 3300 1100 2831 
Q 966 2247 966 1656 
Q 966 153 1900 -1347 
L 1497 -1347 
z
" transform="scale(0.015625)"/>
       <path id="ArialMT-6d" d="M 422 0 
L 422 3319 
L 925 3319 
L 925 2853 
Q 1081 3097 1340 3245 
Q 1600 3394 1931 3394 
Q 2300 3394 2536 3241 
Q 2772 3088 2869 2813 
Q 3263 3394 3894 3394 
Q 4388 3394 4653 3120 
Q 4919 2847 4919 2278 
L 4919 0 
L 4359 0 
L 4359 2091 
Q 4359 2428 4304 2576 
Q 4250 2725 4106 2815 
Q 3963 2906 3769 2906 
Q 3419 2906 3187 2673 
Q 2956 2441 2956 1928 
L 2956 0 
L 2394 0 
L 2394 2156 
Q 2394 2531 2256 2718 
Q 2119 2906 1806 2906 
Q 1569 2906 1367 2781 
Q 1166 2656 1075 2415 
Q 984 2175 984 1722 
L 984 0 
L 422 0 
z
" transform="scale(0.015625)"/>
       <path id="ArialMT-2f" d="M 0 -78 
L 1328 4659 
L 1778 4659 
L 453 -78 
L 0 -78 
z
" transform="scale(0.015625)"/>
       <path id="ArialMT-73" d="M 197 991 
L 753 1078 
Q 800 744 1014 566 
Q 1228 388 1613 388 
Q 2000 388 2187 545 
Q 2375 703 2375 916 
Q 2375 1106 2209 1216 
Q 2094 1291 1634 1406 
Q 1016 1563 777 1677 
Q 538 1791 414 1992 
Q 291 2194 291 2438 
Q 291 2659 392 2848 
Q 494 3038 669 3163 
Q 800 3259 1026 3326 
Q 1253 3394 1513 3394 
Q 1903 3394 2198 3281 
Q 2494 3169 2634 2976 
Q 2775 2784 2828 2463 
L 2278 2388 
Q 2241 2644 2061 2787 
Q 1881 2931 1553 2931 
Q 1166 2931 1000 2803 
Q 834 2675 834 2503 
Q 834 2394 903 2306 
Q 972 2216 1119 2156 
Q 1203 2125 1616 2013 
Q 2213 1853 2448 1751 
Q 2684 1650 2818 1456 
Q 2953 1263 2953 975 
Q 2953 694 2789 445 
Q 2625 197 2315 61 
Q 2006 -75 1616 -75 
Q 969 -75 630 194 
Q 291 463 197 991 
z
" transform="scale(0.015625)"/>
       <path id="ArialMT-29" d="M 791 -1347 
L 388 -1347 
Q 1322 153 1322 1656 
Q 1322 2244 1188 2822 
Q 1081 3291 891 3722 
Q 769 4003 388 4659 
L 791 4659 
Q 1378 3875 1659 3084 
Q 1900 2403 1900 1659 
Q 1900 816 1576 28 
Q 1253 -759 791 -1347 
z
" transform="scale(0.015625)"/>
      </defs>
      <use xlink:href="#ArialMT-63"/>
      <use xlink:href="#ArialMT-6f" transform="translate(50 0)"/>
      <use xlink:href="#ArialMT-72" transform="translate(105.615234 0)"/>
      <use xlink:href="#ArialMT-72" transform="translate(138.916016 0)"/>
      <use xlink:href="#ArialMT-65" transform="translate(172.216797 0)"/>
      <use xlink:href="#ArialMT-63" transform="translate(227.832031 0)"/>
      <use xlink:href="#ArialMT-74" transform="translate(277.832031 0)"/>
      <use xlink:href="#ArialMT-69" transform="translate(305.615234 0)"/>
      <use xlink:href="#ArialMT-6f" transform="translate(327.832031 0)"/>
      <use xlink:href="#ArialMT-6e" transform="translate(383.447266 0)"/>
      <use xlink:href="#ArialMT-20" transform="translate(439.0625 0)"/>
      <use xlink:href="#ArialMT-394" transform="translate(461.345703 0)"/>
      <use xlink:href="#ArialMT-76" transform="translate(528.142578 0)"/>
      <use xlink:href="#ArialMT-20" transform="translate(578.142578 0)"/>
      <use xlink:href="#ArialMT-28" transform="translate(605.925781 0)"/>
      <use xlink:href="#ArialMT-6d" transform="translate(639.226562 0)"/>
      <use xlink:href="#ArialMT-2f" transform="translate(722.527344 0)"/>
      <use xlink:href="#ArialMT-73" transform="translate(750.310547 0)"/>
      <use xlink:href="#ArialMT-29" transform="translate(800.310547 0)"/>
     </g>
    </g>
   </g>
   <g id="matplotlib.axis_2">
    <g id="ytick_1">
     <g id="line2d_8">
      <path d="M 46.964375 199.343625 
L 604.964375 199.343625 
" clip-path="url(#pf8ce30ae94)" style="fill: none; stroke: #cccccc; stroke-linecap: round"/>
     </g>
     <g id="text_9">
      <!-- 0.0 -->
      <g style="fill: #262626" transform="translate(22.174375 203.280422) scale(0.11 -0.11)">
       <defs>
        <path id="ArialMT-2e" d="M 581 0 
L 581 641 
L 1222 641 
L 1222 0 
L 581 0 
z
" transform="scale(0.015625)"/>
       </defs>
       <use xlink:href="#ArialMT-30"/>
       <use xlink:href="#ArialMT-2e" transform="translate(55.615234 0)"/>
       <use xlink:href="#ArialMT-30" transform="translate(83.398438 0)"/>
      </g>
     </g>
    </g>
    <g id="ytick_2">
     <g id="line2d_9">
      <path d="M 46.964375 163.862025 
L 604.964375 163.862025 
" clip-path="url(#pf8ce30ae94)" style="fill: none; stroke: #cccccc; stroke-linecap: round"/>
     </g>
     <g id="text_10">
      <!-- 0.2 -->
      <g style="fill: #262626" transform="translate(22.174375 167.798822) scale(0.11 -0.11)">
       <use xlink:href="#ArialMT-30"/>
       <use xlink:href="#ArialMT-2e" transform="translate(55.615234 0)"/>
       <use xlink:href="#ArialMT-32" transform="translate(83.398438 0)"/>
      </g>
     </g>
    </g>
    <g id="ytick_3">
     <g id="line2d_10">
      <path d="M 46.964375 128.380425 
L 604.964375 128.380425 
" clip-path="url(#pf8ce30ae94)" style="fill: none; stroke: #cccccc; stroke-linecap: round"/>
     </g>
     <g id="text_11">
      <!-- 0.4 -->
      <g style="fill: #262626" transform="translate(22.174375 132.317222) scale(0.11 -0.11)">
       <use xlink:href="#ArialMT-30"/>
       <use xlink:href="#ArialMT-2e" transform="translate(55.615234 0)"/>
       <use xlink:href="#ArialMT-34" transform="translate(83.398438 0)"/>
      </g>
     </g>
    </g>
    <g id="ytick_4">
     <g id="line2d_11">
      <path d="M 46.964375 92.898825 
L 604.964375 92.898825 
" clip-path="url(#pf8ce30ae94)" style="fill: none; stroke: #cccccc; stroke-linecap: round"/>
     </g>
     <g id="text_12">
      <!-- 0.6 -->
      <g style="fill: #262626" transform="translate(22.174375 96.835622) scale(0.11 -0.11)">
       <use xlink:href="#ArialMT-30"/>
       <use xlink:href="#ArialMT-2e" transform="translate(55.615234 0)"/>
       <use xlink:href="#ArialMT-36" transform="translate(83.398438 0)"/>
      </g>
     </g>
    </g>
    <g id="ytick_5">
     <g id="line2d_12">
      <path d="M 46.964375 57.417225 
L 604.964375 57.417225 
" clip-path="url(#pf8ce30ae94)" style="fill: none; stroke: #cccccc; stroke-linecap: round"/>
     </g>
     <g id="text_13">
      <!-- 0.8 -->
      <g style="fill: #262626" transform="translate(22.174375 61.354022) scale(0.11 -0.11)">
       <use xlink:href="#ArialMT-30"/>
       <use xlink:href="#ArialMT-2e" transform="translate(55.615234 0)"/>
       <use xlink:href="#ArialMT-38" transform="translate(83.398438 0)"/>
      </g>
     </g>
    </g>
    <g id="ytick_6">
     <g id="line2d_13">
      <path d="M 46.964375 21.935625 
L 604.964375 21.935625 
" clip-path="url(#pf8ce30ae94)" style="fill: none; stroke: #cccccc; stroke-linecap: round"/>
     </g>
     <g id="text_14">
      <!-- 1.0 -->
      <g style="fill: #262626" transform="translate(22.174375 25.872422) scale(0.11 -0.11)">
       <use xlink:href="#ArialMT-31"/>
       <use xlink:href="#ArialMT-2e" transform="translate(55.615234 0)"/>
       <use xlink:href="#ArialMT-30" transform="translate(83.398438 0)"/>
      </g>
     </g>
    </g>
    <g id="text_15">
     <!-- cumulative fraction -->
     <g style="fill: #262626" transform="translate(15.789375 160.658062) rotate(-90) scale(0.12 -0.12)">
      <defs>
       <path id="ArialMT-75" d="M 2597 0 
L 2597 488 
Q 2209 -75 1544 -75 
Q 1250 -75 995 37 
Q 741 150 617 320 
Q 494 491 444 738 
Q 409 903 409 1263 
L 409 3319 
L 972 3319 
L 972 1478 
Q 972 1038 1006 884 
Q 1059 663 1231 536 
Q 1403 409 1656 409 
Q 1909 409 2131 539 
Q 2353 669 2445 892 
Q 2538 1116 2538 1541 
L 2538 3319 
L 3100 3319 
L 3100 0 
L 2597 0 
z
" transform="scale(0.015625)"/>
       <path id="ArialMT-6c" d="M 409 0 
L 409 4581 
L 972 4581 
L 972 0 
L 409 0 
z
" transform="scale(0.015625)"/>
       <path id="ArialMT-61" d="M 2588 409 
Q 2275 144 1986 34 
Q 1697 -75 1366 -75 
Q 819 -75 525 192 
Q 231 459 231 875 
Q 231 1119 342 1320 
Q 453 1522 633 1644 
Q 813 1766 1038 1828 
Q 1203 1872 1538 1913 
Q 2219 1994 2541 2106 
Q 2544 2222 2544 2253 
Q 2544 2597 2384 2738 
Q 2169 2928 1744 2928 
Q 1347 2928 1158 2789 
Q 969 2650 878 2297 
L 328 2372 
Q 403 2725 575 2942 
Q 747 3159 1072 3276 
Q 1397 3394 1825 3394 
Q 2250 3394 2515 3294 
Q 2781 3194 2906 3042 
Q 3031 2891 3081 2659 
Q 3109 2516 3109 2141 
L 3109 1391 
Q 3109 606 3145 398 
Q 3181 191 3288 0 
L 2700 0 
Q 2613 175 2588 409 
z
M 2541 1666 
Q 2234 1541 1622 1453 
Q 1275 1403 1131 1340 
Q 988 1278 909 1158 
Q 831 1038 831 891 
Q 831 666 1001 516 
Q 1172 366 1500 366 
Q 1825 366 2078 508 
Q 2331 650 2450 897 
Q 2541 1088 2541 1459 
L 2541 1666 
z
" transform="scale(0.015625)"/>
       <path id="ArialMT-66" d="M 556 0 
L 556 2881 
L 59 2881 
L 59 3319 
L 556 3319 
L 556 3672 
Q 556 4006 616 4169 
Q 697 4388 901 4523 
Q 1106 4659 1475 4659 
Q 1713 4659 2000 4603 
L 1916 4113 
Q 1741 4144 1584 4144 
Q 1328 4144 1222 4034 
Q 1116 3925 1116 3625 
L 1116 3319 
L 1763 3319 
L 1763 2881 
L 1116 2881 
L 1116 0 
L 556 0 
z
" transform="scale(0.015625)"/>
      </defs>
      <use xlink:href="#ArialMT-63"/>
      <use xlink:href="#ArialMT-75" transform="translate(50 0)"/>
      <use xlink:href="#ArialMT-6d" transform="translate(105.615234 0)"/>
      <use xlink:href="#ArialMT-75" transform="translate(188.916016 0)"/>
      <use xlink:href="#ArialMT-6c" transform="translate(244.53125 0)"/>
      <use xlink:href="#ArialMT-61" transform="translate(266.748047 0)"/>
      <use xlink:href="#ArialMT-74" transform="translate(322.363281 0)"/>
      <use xlink:href="#ArialMT-69" transform="translate(350.146484 0)"/>
      <use xlink:href="#ArialMT-76" transform="translate(372.363281 0)"/>
      <use xlink:href="#ArialMT-65" transform="translate(422.363281 0)"/>
      <use xlink:href="#ArialMT-20" transform="translate(477.978516 0)"/>
      <use xlink:href="#ArialMT-66" transform="translate(505.761719 0)"/>
      <use xlink:href="#ArialMT-72" transform="translate(533.544922 0)"/>
      <use xlink:href="#ArialMT-61" transform="translate(566.845703 0)"/>
      <use xlink:href="#ArialMT-63" transform="translate(622.460938 0)"/>
      <use xlink:href="#ArialMT-74" transform="translate(672.460938 0)"/>
      <use xlink:href="#ArialMT-69" transform="translate(700.244141 0)"/>
      <use xlink:href="#ArialMT-6f" transform="translate(722.460938 0)"/>
      <use xlink:href="#ArialMT-6e" transform="translate(778.076172 0)"/>
     </g>
    </g>
   </g>
   <g id="line2d_14">
    <path d="M 478.296724 199.166217 
L 479.736953 198.988809 
L 484.155329 198.633993 
L 484.294871 198.279177 
L 485.000342 197.569545 
L 485.064458 197.392137 
L 485.58757 196.859913 
L 485.657508 196.682505 
L 485.90698 196.505097 
L 486.801925 196.150281 
L 486.844234 195.795465 
L 487.0148 195.440649 
L 487.06535 195.263241 
L 487.47927 194.908425 
L 487.720502 194.198793 
L 488.14195 191.892489 
L 488.435235 191.715081 
L 488.661042 191.005449 
L 488.677282 190.650633 
L 488.865853 190.295817 
L 489.080461 189.408777 
L 489.220363 189.053961 
L 489.358908 188.166921 
L 489.878477 186.570249 
L 489.901658 186.215433 
L 490.313087 185.328393 
L 490.39036 184.973577 
L 490.637978 184.263945 
L 491.261323 181.780233 
L 491.348986 181.248009 
L 491.501823 180.893193 
L 491.586842 180.538377 
L 491.678411 180.006153 
L 491.808862 179.651337 
L 491.938078 178.941705 
L 492.07906 177.699849 
L 492.439911 175.748361 
L 492.879528 174.683913 
L 493.141118 172.555017 
L 493.262543 172.200201 
L 493.424377 172.022793 
L 493.506052 171.490569 
L 493.644549 170.958345 
L 493.723167 170.603529 
L 493.853281 170.248713 
L 494.054749 169.361673 
L 494.245885 168.829449 
L 494.558816 166.168329 
L 494.561636 165.990921 
L 494.682673 165.636105 
L 495.333521 162.797577 
L 495.506052 162.620169 
L 495.629174 161.733129 
L 495.730381 161.200905 
L 495.862301 160.313865 
L 495.96638 159.781641 
L 496.395089 157.830153 
L 496.615732 156.943113 
L 496.803141 156.233481 
L 496.877413 155.701257 
L 497.202534 154.281993 
L 497.500653 153.217545 
L 497.558095 152.507913 
L 497.78104 150.911241 
L 497.859534 150.556425 
L 498.069136 149.314569 
L 498.187488 148.959753 
L 498.355305 148.072713 
L 499.574011 142.573065 
L 499.945946 140.621577 
L 500.172314 139.734537 
L 500.283341 139.202313 
L 500.717837 136.896009 
L 500.8303 136.008969 
L 500.924498 135.299337 
L 501.074249 133.880073 
L 501.34295 132.993033 
L 501.553368 131.751177 
L 501.65959 131.396361 
L 501.813739 129.267465 
L 502.162525 126.783753 
L 502.261145 126.251529 
L 502.435464 125.896713 
L 502.678845 124.654857 
L 502.75046 123.945225 
L 502.845903 123.235593 
L 503.237577 121.993737 
L 503.413462 120.751881 
L 503.549914 119.864841 
L 503.657218 119.332617 
L 503.765077 118.268169 
L 503.946898 117.203721 
L 504.308517 115.784457 
L 504.42658 115.074825 
L 504.650871 114.365193 
L 504.741964 113.832969 
L 505.166397 112.058889 
L 505.290655 111.704073 
L 505.427023 110.994441 
L 505.513193 110.639625 
L 505.71939 109.575177 
L 505.842072 108.865545 
L 505.956236 108.510729 
L 506.204048 106.914057 
L 508.047365 92.189193 
L 508.136753 91.656969 
L 508.250016 90.237705 
L 508.568976 88.995849 
L 508.689408 88.641033 
L 508.816564 88.286217 
L 508.886187 87.753993 
L 508.998458 87.399177 
L 509.15564 86.334729 
L 509.276434 85.625097 
L 509.409197 84.383241 
L 509.839183 81.722121 
L 509.98351 80.480265 
L 510.283108 79.415817 
L 510.344498 78.528777 
L 510.497696 77.996553 
L 510.649693 77.641737 
L 510.779369 76.932105 
L 510.886537 76.222473 
L 510.975557 75.867657 
L 511.170139 74.803209 
L 511.515338 73.383945 
L 511.611164 72.496905 
L 511.795252 72.319497 
L 511.820174 71.964681 
L 511.956666 71.609865 
L 512.002898 70.900233 
L 512.177815 70.545417 
L 512.346183 69.658377 
L 512.846963 67.706889 
L 513.049001 67.529481 
L 513.1742 67.174665 
L 513.241808 66.642441 
L 513.42178 65.755401 
L 513.742463 65.045769 
L 514.03879 62.562057 
L 514.259883 62.207241 
L 514.37619 61.675017 
L 514.632255 61.497609 
L 514.850188 60.433161 
L 514.881955 60.255753 
L 515.309882 59.723529 
L 515.345602 59.368713 
L 515.647779 58.659081 
L 515.721638 57.949449 
L 515.887868 57.594633 
L 516.131987 56.530185 
L 517.190743 53.336841 
L 517.282608 52.982025 
L 517.392994 52.272393 
L 517.507494 51.917577 
L 517.817641 50.853129 
L 517.992956 50.498313 
L 518.155973 49.788681 
L 518.340887 49.433865 
L 518.43838 48.901641 
L 518.798915 47.837193 
L 519.205015 46.950153 
L 519.469445 45.885705 
L 520.23481 43.224585 
L 520.574676 43.047177 
L 520.770747 42.514953 
L 521.18033 41.450505 
L 521.676519 41.273097 
L 521.684696 41.095689 
L 521.935073 40.740873 
L 522.46151 39.499017 
L 522.689523 38.789385 
L 522.872112 38.611977 
L 522.876163 38.434569 
L 523.085333 38.257161 
L 523.285864 37.547529 
L 523.978608 36.483081 
L 524.031984 35.773449 
L 524.313749 35.596041 
L 524.496972 35.063817 
L 524.841759 33.821961 
L 525.442623 32.757513 
L 525.874486 32.580105 
L 526.172233 31.338249 
L 526.369683 31.160841 
L 526.375334 30.983433 
L 526.503136 30.806025 
L 527.096858 30.628617 
L 527.37463 30.096393 
L 527.869981 29.918985 
L 528.112558 29.564169 
L 528.737547 29.386761 
L 528.942759 28.854537 
L 529.70467 28.322313 
L 529.762282 28.144905 
L 530.138442 27.790089 
L 530.228508 27.435273 
L 530.996728 26.903049 
L 531.101274 26.370825 
L 531.719326 26.016009 
L 532.816862 25.661193 
L 532.851063 25.483785 
L 533.316337 25.128969 
L 534.312609 24.596745 
L 535.121936 24.419337 
L 535.128296 24.241929 
L 536.176539 23.887113 
L 537.507913 23.709705 
L 537.979149 23.354889 
L 544.726643 23.000073 
L 544.907776 22.645257 
L 544.964392 22.467849 
L 550.290982 22.113033 
L 579.600739 21.935625 
L 579.600739 21.935625 
" clip-path="url(#pf8ce30ae94)" style="fill: none; stroke: #111111; stroke-width: 2; stroke-linecap: round"/>
   </g>
   <g id="line2d_15">
    <path d="M 473.198217 199.166217 
L 474.665137 198.988809 
L 474.797132 198.811401 
L 475.199911 198.633993 
L 476.141783 198.456585 
L 476.510521 198.101769 
L 476.975651 197.392137 
L 477.24683 197.037321 
L 478.021859 195.263241 
L 478.149697 194.908425 
L 478.471451 194.021385 
L 478.624175 193.843977 
L 478.727046 192.956937 
L 478.82908 192.424713 
L 479.494882 187.279881 
L 479.742509 185.505801 
L 479.864107 184.973577 
L 479.99782 183.909129 
L 480.203662 182.667273 
L 480.366786 182.312457 
L 480.405552 181.602825 
L 480.577389 181.248009 
L 480.720152 180.538377 
L 480.880774 178.764297 
L 480.991795 178.409481 
L 481.099898 177.522441 
L 481.504366 173.442057 
L 481.700169 172.022793 
L 481.804133 170.603529 
L 481.942462 168.829449 
L 482.288979 165.281289 
L 482.446886 164.039433 
L 482.632605 161.023497 
L 482.74664 160.136457 
L 482.893434 158.007561 
L 482.982052 156.943113 
L 483.082836 155.523849 
L 483.229602 154.281993 
L 483.914074 144.347145 
L 484.008786 142.927881 
L 484.165542 140.444169 
L 484.257553 139.202313 
L 484.507099 134.057481 
L 484.930267 128.735241 
L 485.073567 126.606345 
L 485.168486 125.187081 
L 485.221492 124.300041 
L 485.389809 121.638921 
L 486.659124 102.656265 
L 486.743077 102.124041 
L 486.887131 99.817737 
L 487.030123 97.156617 
L 487.252128 93.608457 
L 487.383262 90.947337 
L 487.490227 89.350665 
L 487.591157 88.818441 
L 487.729393 86.157321 
L 487.828849 85.802505 
L 488.707793 76.045065 
L 488.796825 75.690249 
L 488.959278 74.093577 
L 489.524294 66.287625 
L 489.638295 64.868361 
L 490.016187 61.675017 
L 490.115899 60.965385 
L 490.220445 59.723529 
L 490.289159 59.368713 
L 490.449303 57.772041 
L 491.022327 51.030537 
L 491.129528 49.611273 
L 491.549892 47.659785 
L 491.734575 46.063113 
L 492.014116 43.934217 
L 492.136801 43.579401 
L 492.220734 42.160137 
L 492.647223 40.386057 
L 493.987113 32.402697 
L 494.601165 31.160841 
L 494.754568 30.273801 
L 494.910099 30.096393 
L 494.999556 29.386761 
L 495.332666 28.677129 
L 495.445768 28.144905 
L 495.539037 27.790089 
L 495.566505 27.257865 
L 495.701151 26.903049 
L 496.020737 26.016009 
L 496.141186 25.661193 
L 496.321511 24.774153 
L 497.151796 24.064521 
L 498.04998 23.177481 
L 498.067914 23.000073 
L 499.46061 22.467849 
L 501.094906 22.113033 
L 502.05222 21.935625 
L 502.05222 21.935625 
" clip-path="url(#pf8ce30ae94)" style="fill: none; stroke: #4878cf; stroke-width: 1.2; stroke-linecap: round"/>
   </g>
   <g id="line2d_16">
    <path d="M 72.343373 199.166217 
L 72.479036 198.279177 
L 72.560939 197.569545 
L 73.005273 193.311753 
L 73.09464 192.779529 
L 73.363819 189.763593 
L 73.525127 188.699145 
L 74.062018 183.376905 
L 74.243182 182.312457 
L 74.3746 181.602825 
L 74.513195 181.248009 
L 74.587606 180.715785 
L 74.713434 179.828745 
L 74.88544 177.877257 
L 75.006785 176.812809 
L 75.139925 176.103177 
L 75.648831 171.845385 
L 75.911168 168.829449 
L 75.984984 168.474633 
L 76.15055 166.877961 
L 76.311448 165.990921 
L 76.475194 163.507209 
L 76.565683 162.620169 
L 76.662819 162.265353 
L 76.887724 159.781641 
L 77.002824 159.426825 
L 77.096981 158.894601 
L 77.362753 156.056073 
L 77.904386 152.507913 
L 78.065223 151.620873 
L 78.321025 149.137161 
L 78.428924 148.427529 
L 78.534604 147.540489 
L 78.659165 147.185673 
L 78.765403 146.653449 
L 78.896879 145.766409 
L 78.991138 145.056777 
L 79.331542 142.040841 
L 79.411133 141.153801 
L 79.481032 140.798985 
L 79.7544 138.137865 
L 79.859497 137.428233 
L 79.993557 136.186377 
L 80.380112 133.347849 
L 81.213395 124.832265 
L 81.32687 124.300041 
L 82.126263 118.622985 
L 82.28082 118.268169 
L 82.406322 117.735945 
L 82.557082 116.848905 
L 83.761959 107.623689 
L 83.875747 107.268873 
L 84.231478 105.317385 
L 84.317079 104.962569 
L 84.429082 104.607753 
L 84.629765 103.365897 
L 84.823664 101.591817 
L 85.092422 100.172553 
L 85.220934 99.817737 
L 85.317469 99.462921 
L 86.758877 91.124745 
L 86.853853 90.592521 
L 87.033622 89.350665 
L 87.155586 88.995849 
L 87.2351 88.108809 
L 87.329367 87.399177 
L 87.342632 86.866953 
L 87.460836 86.512137 
L 87.633978 85.092873 
L 87.831172 84.738057 
L 88.186302 82.786569 
L 88.396088 82.076937 
L 88.507 81.189897 
L 88.678618 80.480265 
L 89.251809 78.528777 
L 89.384223 78.173961 
L 89.71717 75.335433 
L 89.870413 74.448393 
L 90.236233 72.851721 
L 90.377431 72.496905 
L 90.479373 72.142089 
L 90.685943 71.787273 
L 90.959283 70.722825 
L 91.086074 70.368009 
L 91.150903 69.658377 
L 91.299138 68.948745 
L 91.779501 64.868361 
L 92.287051 62.739465 
L 92.332403 62.384649 
L 92.513487 61.675017 
L 92.686062 60.433161 
L 92.875726 60.078345 
L 93.05074 59.546121 
L 93.324346 58.481673 
L 93.3486 57.949449 
L 93.592148 57.417225 
L 93.680072 57.062409 
L 93.960137 56.175369 
L 94.480134 53.336841 
L 94.703002 53.159433 
L 94.86214 52.272393 
L 94.976114 51.562761 
L 95.029275 51.030537 
L 95.334885 50.498313 
L 95.463418 49.788681 
L 95.730558 49.256457 
L 95.810712 48.724233 
L 96.074624 48.546825 
L 96.155164 48.014601 
L 96.488086 47.837193 
L 96.491992 47.659785 
L 96.670082 47.304969 
L 96.882694 46.595337 
L 97.084525 46.240521 
L 97.188282 45.885705 
L 97.501256 45.176073 
L 97.553641 44.821257 
L 97.866219 44.466441 
L 97.912103 44.111625 
L 98.095855 43.934217 
L 98.169896 43.401993 
L 98.616485 42.160137 
L 98.880476 41.982729 
L 98.950092 41.627913 
L 99.472866 40.740873 
L 99.547348 40.208649 
L 100.006829 39.499017 
L 100.256674 38.966793 
L 100.666031 38.611977 
L 100.682877 38.434569 
L 101.289334 37.724937 
L 101.77323 36.660489 
L 102.012794 36.483081 
L 102.096974 35.773449 
L 102.981322 35.418633 
L 103.015915 35.241225 
L 103.25118 35.063817 
L 103.770912 33.467145 
L 104.19278 32.757513 
L 104.776652 32.402697 
L 104.825356 32.047881 
L 105.032686 31.693065 
L 105.947556 31.160841 
L 106.393775 30.451209 
L 106.685611 30.273801 
L 106.815601 29.918985 
L 107.181747 29.564169 
L 107.995812 29.386761 
L 108.190877 29.031945 
L 108.198105 28.854537 
L 108.655634 28.499721 
L 109.094283 27.967497 
L 109.172287 27.612681 
L 109.262052 27.435273 
L 109.844398 26.903049 
L 109.946151 26.548233 
L 110.32326 26.016009 
L 111.415123 25.838601 
L 111.704902 25.483785 
L 112.184746 25.306377 
L 112.322535 25.128969 
L 113.792362 24.774153 
L 114.469038 24.419337 
L 114.998228 24.241929 
L 115.120674 24.064521 
L 116.45285 23.709705 
L 116.6022 23.354889 
L 117.444321 23.177481 
L 117.864286 22.822665 
L 119.176946 22.467849 
L 128.713229 22.290441 
L 131.171352 22.113033 
L 140.793 21.935625 
L 140.793 21.935625 
" clip-path="url(#pf8ce30ae94)" style="fill: none; stroke: #d1701f; stroke-width: 1.2; stroke-linecap: round"/>
   </g>
   <g id="line2d_17">
    <path d="M 72.328011 199.166217 
L 72.753796 193.666569 
L 72.839661 192.247305 
L 73.014158 189.231369 
L 73.2296 183.199497 
L 73.403395 179.473929 
L 73.853614 173.442057 
L 73.989107 170.603529 
L 74.340515 164.394249 
L 74.476238 160.846089 
L 76.226361 134.412297 
L 76.368133 131.396361 
L 76.453076 130.864137 
L 76.640224 128.380425 
L 77.506705 111.349257 
L 77.591244 110.639625 
L 77.685949 109.575177 
L 77.736628 108.865545 
L 77.811563 108.510729 
L 78.249562 100.527369 
L 79.293429 87.576585 
L 79.401255 87.044361 
L 79.523302 86.334729 
L 79.6509 84.028425 
L 79.744973 82.609161 
L 79.865187 82.076937 
L 79.975448 81.012489 
L 80.075459 79.593225 
L 80.225529 78.351369 
L 80.344248 76.577289 
L 80.55925 74.270985 
L 80.705564 72.674313 
L 80.867409 70.190601 
L 80.988004 68.416521 
L 81.117359 67.352073 
L 81.442103 63.981321 
L 81.541856 63.626505 
L 81.976685 59.013897 
L 82.069342 57.949449 
L 82.175998 57.239817 
L 82.220449 56.707593 
L 82.306015 56.352777 
L 82.441832 55.288329 
L 82.683394 53.691657 
L 82.715299 53.336841 
L 82.891819 52.982025 
L 83.003205 51.917577 
L 83.510119 50.320905 
L 83.716085 49.079049 
L 84.108279 45.530889 
L 84.549901 43.224585 
L 84.876173 40.740873 
L 85.445981 38.079753 
L 85.760281 37.724937 
L 86.180897 36.128265 
L 86.184226 35.950857 
L 86.314008 35.596041 
L 87.174086 32.047881 
L 87.379972 31.515657 
L 87.58412 30.628617 
L 87.981535 29.564169 
L 88.189077 29.386761 
L 88.327375 28.677129 
L 88.748239 27.967497 
L 89.742993 25.306377 
L 90.102456 25.128969 
L 90.358692 24.596745 
L 91.053711 23.709705 
L 91.642835 23.532297 
L 91.650066 23.354889 
L 92.272077 23.177481 
L 94.040316 22.822665 
L 94.23815 22.645257 
L 94.715895 22.467849 
L 96.14317 22.290441 
L 96.498113 22.113033 
L 97.835587 21.935625 
L 97.835587 21.935625 
" clip-path="url(#pf8ce30ae94)" style="fill: none; stroke: #6a51a3; stroke-width: 1.2; stroke-linecap: round"/>
   </g>
   <g id="patch_3">
    <path d="M 46.964375 199.343625 
L 46.964375 21.935625 
" style="fill: none; stroke: #cccccc; stroke-width: 1.25; stroke-linejoin: miter; stroke-linecap: square"/>
   </g>
   <g id="patch_4">
    <path d="M 46.964375 199.343625 
L 604.964375 199.343625 
" style="fill: none; stroke: #cccccc; stroke-width: 1.25; stroke-linejoin: miter; stroke-linecap: square"/>
   </g>
   <g id="text_16">
    <!-- Correction Δv - - empirical CDF (total + burns) -->
    <g style="fill: #262626" transform="translate(205.764688 15.935625) scale(0.12 -0.12)">
     <defs>
      <path id="ArialMT-43" d="M 3763 1606 
L 4369 1453 
Q 4178 706 3683 314 
Q 3188 -78 2472 -78 
Q 1731 -78 1267 223 
Q 803 525 561 1097 
Q 319 1669 319 2325 
Q 319 3041 592 3573 
Q 866 4106 1370 4382 
Q 1875 4659 2481 4659 
Q 3169 4659 3637 4309 
Q 4106 3959 4291 3325 
L 3694 3184 
Q 3534 3684 3231 3912 
Q 2928 4141 2469 4141 
Q 1941 4141 1586 3887 
Q 1231 3634 1087 3207 
Q 944 2781 944 2328 
Q 944 1744 1114 1308 
Q 1284 872 1643 656 
Q 2003 441 2422 441 
Q 2931 441 3284 734 
Q 3638 1028 3763 1606 
z
" transform="scale(0.015625)"/>
      <path id="ArialMT-2d" d="M 203 1375 
L 203 1941 
L 1931 1941 
L 1931 1375 
L 203 1375 
z
" transform="scale(0.015625)"/>
      <path id="ArialMT-70" d="M 422 -1272 
L 422 3319 
L 934 3319 
L 934 2888 
Q 1116 3141 1344 3267 
Q 1572 3394 1897 3394 
Q 2322 3394 2647 3175 
Q 2972 2956 3137 2557 
Q 3303 2159 3303 1684 
Q 3303 1175 3120 767 
Q 2938 359 2589 142 
Q 2241 -75 1856 -75 
Q 1575 -75 1351 44 
Q 1128 163 984 344 
L 984 -1272 
L 422 -1272 
z
M 931 1641 
Q 931 1000 1190 694 
Q 1450 388 1819 388 
Q 2194 388 2461 705 
Q 2728 1022 2728 1688 
Q 2728 2322 2467 2637 
Q 2206 2953 1844 2953 
Q 1484 2953 1207 2617 
Q 931 2281 931 1641 
z
" transform="scale(0.015625)"/>
      <path id="ArialMT-44" d="M 494 0 
L 494 4581 
L 2072 4581 
Q 2606 4581 2888 4516 
Q 3281 4425 3559 4188 
Q 3922 3881 4101 3404 
Q 4281 2928 4281 2316 
Q 4281 1794 4159 1391 
Q 4038 988 3847 723 
Q 3656 459 3429 307 
Q 3203 156 2883 78 
Q 2563 0 2147 0 
L 494 0 
z
M 1100 541 
L 2078 541 
Q 2531 541 2789 625 
Q 3047 709 3200 863 
Q 3416 1078 3536 1442 
Q 3656 1806 3656 2325 
Q 3656 3044 3420 3430 
Q 3184 3816 2847 3947 
Q 2603 4041 2063 4041 
L 1100 4041 
L 1100 541 
z
" transform="scale(0.015625)"/>
      <path id="ArialMT-46" d="M 525 0 
L 525 4581 
L 3616 4581 
L 3616 4041 
L 1131 4041 
L 1131 2622 
L 3281 2622 
L 3281 2081 
L 1131 2081 
L 1131 0 
L 525 0 
z
" transform="scale(0.015625)"/>
      <path id="ArialMT-2b" d="M 1603 741 
L 1603 1997 
L 356 1997 
L 356 2522 
L 1603 2522 
L 1603 3769 
L 2134 3769 
L 2134 2522 
L 3381 2522 
L 3381 1997 
L 2134 1997 
L 2134 741 
L 1603 741 
z
" transform="scale(0.015625)"/>
      <path id="ArialMT-62" d="M 941 0 
L 419 0 
L 419 4581 
L 981 4581 
L 981 2947 
Q 1338 3394 1891 3394 
Q 2197 3394 2470 3270 
Q 2744 3147 2920 2923 
Q 3097 2700 3197 2384 
Q 3297 2069 3297 1709 
Q 3297 856 2875 390 
Q 2453 -75 1863 -75 
Q 1275 -75 941 416 
L 941 0 
z
M 934 1684 
Q 934 1088 1097 822 
Q 1363 388 1816 388 
Q 2184 388 2453 708 
Q 2722 1028 2722 1663 
Q 2722 2313 2464 2622 
Q 2206 2931 1841 2931 
Q 1472 2931 1203 2611 
Q 934 2291 934 1684 
z
" transform="scale(0.015625)"/>
     </defs>
     <use xlink:href="#ArialMT-43"/>
     <use xlink:href="#ArialMT-6f" transform="translate(72.216797 0)"/>
     <use xlink:href="#ArialMT-72" transform="translate(127.832031 0)"/>
     <use xlink:href="#ArialMT-72" transform="translate(161.132812 0)"/>
     <use xlink:href="#ArialMT-65" transform="translate(194.433594 0)"/>
     <use xlink:href="#ArialMT-63" transform="translate(250.048828 0)"/>
     <use xlink:href="#ArialMT-74" transform="translate(300.048828 0)"/>
     <use xlink:href="#ArialMT-69" transform="translate(327.832031 0)"/>
     <use xlink:href="#ArialMT-6f" transform="translate(350.048828 0)"/>
     <use xlink:href="#ArialMT-6e" transform="translate(405.664062 0)"/>
     <use xlink:href="#ArialMT-20" transform="translate(461.279297 0)"/>
     <use xlink:href="#ArialMT-394" transform="translate(483.5625 0)"/>
     <use xlink:href="#ArialMT-76" transform="translate(550.359375 0)"/>
     <use xlink:href="#ArialMT-20" transform="translate(600.359375 0)"/>
     <use xlink:href="#ArialMT-2d" transform="translate(628.142578 0)"/>
     <use xlink:href="#ArialMT-2d" transform="translate(661.443359 0)"/>
     <use xlink:href="#ArialMT-20" transform="translate(694.744141 0)"/>
     <use xlink:href="#ArialMT-65" transform="translate(722.527344 0)"/>
     <use xlink:href="#ArialMT-6d" transform="translate(778.142578 0)"/>
     <use xlink:href="#ArialMT-70" transform="translate(861.443359 0)"/>
     <use xlink:href="#ArialMT-69" transform="translate(917.058594 0)"/>
     <use xlink:href="#ArialMT-72" transform="translate(939.275391 0)"/>
     <use xlink:href="#ArialMT-69" transform="translate(972.576172 0)"/>
     <use xlink:href="#ArialMT-63" transform="translate(994.792969 0)"/>
     <use xlink:href="#ArialMT-61" transform="translate(1044.792969 0)"/>
     <use xlink:href="#ArialMT-6c" transform="translate(1100.408203 0)"/>
     <use xlink:href="#ArialMT-20" transform="translate(1122.625 0)"/>
     <use xlink:href="#ArialMT-43" transform="translate(1150.408203 0)"/>
     <use xlink:href="#ArialMT-44" transform="translate(1222.625 0)"/>
     <use xlink:href="#ArialMT-46" transform="translate(1294.841797 0)"/>
     <use xlink:href="#ArialMT-20" transform="translate(1355.925781 0)"/>
     <use xlink:href="#ArialMT-28" transform="translate(1383.708984 0)"/>
     <use xlink:href="#ArialMT-74" transform="translate(1417.009766 0)"/>
     <use xlink:href="#ArialMT-6f" transform="translate(1444.792969 0)"/>
     <use xlink:href="#ArialMT-74" transform="translate(1500.408203 0)"/>
     <use xlink:href="#ArialMT-61" transform="translate(1528.191406 0)"/>
     <use xlink:href="#ArialMT-6c" transform="translate(1583.806641 0)"/>
     <use xlink:href="#ArialMT-20" transform="translate(1606.023438 0)"/>
     <use xlink:href="#ArialMT-2b" transform="translate(1633.806641 0)"/>
     <use xlink:href="#ArialMT-20" transform="translate(1692.205078 0)"/>
     <use xlink:href="#ArialMT-62" transform="translate(1719.988281 0)"/>
     <use xlink:href="#ArialMT-75" transform="translate(1775.603516 0)"/>
     <use xlink:href="#ArialMT-72" transform="translate(1831.21875 0)"/>
     <use xlink:href="#ArialMT-6e" transform="translate(1864.519531 0)"/>
     <use xlink:href="#ArialMT-73" transform="translate(1920.134766 0)"/>
     <use xlink:href="#ArialMT-29" transform="translate(1970.134766 0)"/>
    </g>
   </g>
   <g id="legend_1">
    <g id="patch_5">
     <path d="M 482.644572 194.345625 
L 597.967175 194.345625 
Q 599.966375 194.345625 599.966375 192.346425 
L 599.966375 136.610916 
Q 599.966375 134.611716 597.967175 134.611716 
L 482.644572 134.611716 
Q 480.645372 134.611716 480.645372 136.610916 
L 480.645372 192.346425 
Q 480.645372 194.345625 482.644572 194.345625 
z
" style="fill: #f5f5f5; opacity: 0.8; stroke: #cccccc; stroke-linejoin: miter"/>
    </g>
    <g id="line2d_18">
     <path d="M 484.643772 142.266465 
L 494.639772 142.266465 
L 504.635772 142.266465 
" style="fill: none; stroke: #111111; stroke-width: 2; stroke-linecap: round"/>
    </g>
    <g id="text_17">
     <!-- total Δv -->
     <g style="fill: #262626" transform="translate(512.632572 145.765065) scale(0.09996 -0.09996)">
      <use xlink:href="#ArialMT-74"/>
      <use xlink:href="#ArialMT-6f" transform="translate(27.783203 0)"/>
      <use xlink:href="#ArialMT-74" transform="translate(83.398438 0)"/>
      <use xlink:href="#ArialMT-61" transform="translate(111.181641 0)"/>
      <use xlink:href="#ArialMT-6c" transform="translate(166.796875 0)"/>
      <use xlink:href="#ArialMT-20" transform="translate(189.013672 0)"/>
      <use xlink:href="#ArialMT-394" transform="translate(211.296875 0)"/>
      <use xlink:href="#ArialMT-76" transform="translate(278.09375 0)"/>
     </g>
    </g>
    <g id="line2d_19">
     <path d="M 484.643772 156.435795 
L 494.639772 156.435795 
L 504.635772 156.435795 
" style="fill: none; stroke: #4878cf; stroke-width: 1.2; stroke-linecap: round"/>
    </g>
    <g id="text_18">
     <!-- dv1 periapsis raise -->
     <g style="fill: #262626" transform="translate(512.632572 159.934395) scale(0.09996 -0.09996)">
      <defs>
       <path id="ArialMT-64" d="M 2575 0 
L 2575 419 
Q 2259 -75 1647 -75 
Q 1250 -75 917 144 
Q 584 363 401 755 
Q 219 1147 219 1656 
Q 219 2153 384 2558 
Q 550 2963 881 3178 
Q 1213 3394 1622 3394 
Q 1922 3394 2156 3267 
Q 2391 3141 2538 2938 
L 2538 4581 
L 3097 4581 
L 3097 0 
L 2575 0 
z
M 797 1656 
Q 797 1019 1065 703 
Q 1334 388 1700 388 
Q 2069 388 2326 689 
Q 2584 991 2584 1609 
Q 2584 2291 2321 2609 
Q 2059 2928 1675 2928 
Q 1300 2928 1048 2622 
Q 797 2316 797 1656 
z
" transform="scale(0.015625)"/>
      </defs>
      <use xlink:href="#ArialMT-64"/>
      <use xlink:href="#ArialMT-76" transform="translate(55.615234 0)"/>
      <use xlink:href="#ArialMT-31" transform="translate(105.615234 0)"/>
      <use xlink:href="#ArialMT-20" transform="translate(161.230469 0)"/>
      <use xlink:href="#ArialMT-70" transform="translate(189.013672 0)"/>
      <use xlink:href="#ArialMT-65" transform="translate(244.628906 0)"/>
      <use xlink:href="#ArialMT-72" transform="translate(300.244141 0)"/>
      <use xlink:href="#ArialMT-69" transform="translate(333.544922 0)"/>
      <use xlink:href="#ArialMT-61" transform="translate(355.761719 0)"/>
      <use xlink:href="#ArialMT-70" transform="translate(411.376953 0)"/>
      <use xlink:href="#ArialMT-73" transform="translate(466.992188 0)"/>
      <use xlink:href="#ArialMT-69" transform="translate(516.992188 0)"/>
      <use xlink:href="#ArialMT-73" transform="translate(539.208984 0)"/>
      <use xlink:href="#ArialMT-20" transform="translate(589.208984 0)"/>
      <use xlink:href="#ArialMT-72" transform="translate(616.992188 0)"/>
      <use xlink:href="#ArialMT-61" transform="translate(650.292969 0)"/>
      <use xlink:href="#ArialMT-69" transform="translate(705.908203 0)"/>
      <use xlink:href="#ArialMT-73" transform="translate(728.125 0)"/>
      <use xlink:href="#ArialMT-65" transform="translate(778.125 0)"/>
     </g>
    </g>
    <g id="line2d_20">
     <path d="M 484.643772 170.575449 
L 494.639772 170.575449 
L 504.635772 170.575449 
" style="fill: none; stroke: #d1701f; stroke-width: 1.2; stroke-linecap: round"/>
    </g>
    <g id="text_19">
     <!-- dv2 circularization -->
     <g style="fill: #262626" transform="translate(512.632572 174.074049) scale(0.09996 -0.09996)">
      <defs>
       <path id="ArialMT-7a" d="M 125 0 
L 125 456 
L 2238 2881 
Q 1878 2863 1603 2863 
L 250 2863 
L 250 3319 
L 2963 3319 
L 2963 2947 
L 1166 841 
L 819 456 
Q 1197 484 1528 484 
L 3063 484 
L 3063 0 
L 125 0 
z
" transform="scale(0.015625)"/>
      </defs>
      <use xlink:href="#ArialMT-64"/>
      <use xlink:href="#ArialMT-76" transform="translate(55.615234 0)"/>
      <use xlink:href="#ArialMT-32" transform="translate(105.615234 0)"/>
      <use xlink:href="#ArialMT-20" transform="translate(161.230469 0)"/>
      <use xlink:href="#ArialMT-63" transform="translate(189.013672 0)"/>
      <use xlink:href="#ArialMT-69" transform="translate(239.013672 0)"/>
      <use xlink:href="#ArialMT-72" transform="translate(261.230469 0)"/>
      <use xlink:href="#ArialMT-63" transform="translate(294.53125 0)"/>
      <use xlink:href="#ArialMT-75" transform="translate(344.53125 0)"/>
      <use xlink:href="#ArialMT-6c" transform="translate(400.146484 0)"/>
      <use xlink:href="#ArialMT-61" transform="translate(422.363281 0)"/>
      <use xlink:href="#ArialMT-72" transform="translate(477.978516 0)"/>
      <use xlink:href="#ArialMT-69" transform="translate(511.279297 0)"/>
      <use xlink:href="#ArialMT-7a" transform="translate(533.496094 0)"/>
      <use xlink:href="#ArialMT-61" transform="translate(583.496094 0)"/>
      <use xlink:href="#ArialMT-74" transform="translate(639.111328 0)"/>
      <use xlink:href="#ArialMT-69" transform="translate(666.894531 0)"/>
      <use xlink:href="#ArialMT-6f" transform="translate(689.111328 0)"/>
      <use xlink:href="#ArialMT-6e" transform="translate(744.726562 0)"/>
     </g>
    </g>
    <g id="line2d_21">
     <path d="M 484.643772 184.744779 
L 494.639772 184.744779 
L 504.635772 184.744779 
" style="fill: none; stroke: #6a51a3; stroke-width: 1.2; stroke-linecap: round"/>
    </g>
    <g id="text_20">
     <!-- dv3 plane change -->
     <g style="fill: #262626" transform="translate(512.632572 188.243379) scale(0.09996 -0.09996)">
      <defs>
       <path id="ArialMT-33" d="M 269 1209 
L 831 1284 
Q 928 806 1161 595 
Q 1394 384 1728 384 
Q 2125 384 2398 659 
Q 2672 934 2672 1341 
Q 2672 1728 2419 1979 
Q 2166 2231 1775 2231 
Q 1616 2231 1378 2169 
L 1441 2663 
Q 1497 2656 1531 2656 
Q 1891 2656 2178 2843 
Q 2466 3031 2466 3422 
Q 2466 3731 2256 3934 
Q 2047 4138 1716 4138 
Q 1388 4138 1169 3931 
Q 950 3725 888 3313 
L 325 3413 
Q 428 3978 793 4289 
Q 1159 4600 1703 4600 
Q 2078 4600 2393 4439 
Q 2709 4278 2876 4000 
Q 3044 3722 3044 3409 
Q 3044 3113 2884 2869 
Q 2725 2625 2413 2481 
Q 2819 2388 3044 2092 
Q 3269 1797 3269 1353 
Q 3269 753 2831 336 
Q 2394 -81 1725 -81 
Q 1122 -81 723 278 
Q 325 638 269 1209 
z
" transform="scale(0.015625)"/>
       <path id="ArialMT-68" d="M 422 0 
L 422 4581 
L 984 4581 
L 984 2938 
Q 1378 3394 1978 3394 
Q 2347 3394 2619 3248 
Q 2891 3103 3008 2847 
Q 3125 2591 3125 2103 
L 3125 0 
L 2563 0 
L 2563 2103 
Q 2563 2525 2380 2717 
Q 2197 2909 1863 2909 
Q 1613 2909 1392 2779 
Q 1172 2650 1078 2428 
Q 984 2206 984 1816 
L 984 0 
L 422 0 
z
" transform="scale(0.015625)"/>
       <path id="ArialMT-67" d="M 319 -275 
L 866 -356 
Q 900 -609 1056 -725 
Q 1266 -881 1628 -881 
Q 2019 -881 2231 -725 
Q 2444 -569 2519 -288 
Q 2563 -116 2559 434 
Q 2191 0 1641 0 
Q 956 0 581 494 
Q 206 988 206 1678 
Q 206 2153 378 2554 
Q 550 2956 876 3175 
Q 1203 3394 1644 3394 
Q 2231 3394 2613 2919 
L 2613 3319 
L 3131 3319 
L 3131 450 
Q 3131 -325 2973 -648 
Q 2816 -972 2473 -1159 
Q 2131 -1347 1631 -1347 
Q 1038 -1347 672 -1080 
Q 306 -813 319 -275 
z
M 784 1719 
Q 784 1066 1043 766 
Q 1303 466 1694 466 
Q 2081 466 2343 764 
Q 2606 1063 2606 1700 
Q 2606 2309 2336 2618 
Q 2066 2928 1684 2928 
Q 1309 2928 1046 2623 
Q 784 2319 784 1719 
z
" transform="scale(0.015625)"/>
      </defs>
      <use xlink:href="#ArialMT-64"/>
      <use xlink:href="#ArialMT-76" transform="translate(55.615234 0)"/>
      <use xlink:href="#ArialMT-33" transform="translate(105.615234 0)"/>
      <use xlink:href="#ArialMT-20" transform="translate(161.230469 0)"/>
      <use xlink:href="#ArialMT-70" transform="translate(189.013672 0)"/>
      <use xlink:href="#ArialMT-6c" transform="translate(244.628906 0)"/>
      <use xlink:href="#ArialMT-61" transform="translate(266.845703 0)"/>
      <use xlink:href="#ArialMT-6e" transform="translate(322.460938 0)"/>
      <use xlink:href="#ArialMT-65" transform="translate(378.076172 0)"/>
      <use xlink:href="#ArialMT-20" transform="translate(433.691406 0)"/>
      <use xlink:href="#ArialMT-63" transform="translate(461.474609 0)"/>
      <use xlink:href="#ArialMT-68" transform="translate(511.474609 0)"/>
      <use xlink:href="#ArialMT-61" transform="translate(567.089844 0)"/>
      <use xlink:href="#ArialMT-6e" transform="translate(622.705078 0)"/>
      <use xlink:href="#ArialMT-67" transform="translate(678.320312 0)"/>
      <use xlink:href="#ArialMT-65" transform="translate(733.935547 0)"/>
     </g>
    </g>
   </g>
  </g>
 </g>
 <defs>
  <clipPath id="pf8ce30ae94">
   <rect x="46.964375" y="21.935625" width="558" height="177.408"/>
  </clipPath>
 </defs>
</svg>
